<svg id="Layer_9" data-name="Layer 9" xmlns="http://www.w3.org/2000/svg" width="1321.5" height="482" viewBox="0 0 1321.5 482"><path d="M111,51.1,51.4,128.2,171.3,47.5,61.5,252.4,340.7,57.5,58.2,415.6C182.4,283.2,306.7,176.7,431,44.3c-101.8,152.3-147.5,241.6-249.2,394,137-161.1,240-269.7,416.3-395.6A2245.1,2245.1,0,0,0,352.5,431.4l336-311.5c-82.2,93.8-149.2,198.4-198.2,309.6q177.5-187,355.1-374L650.6,421.1,967.3,69.8,788.9,355.2a1798.8,1798.8,0,0,1,223.6-175.5C944.4,264,887.8,339.9,844.1,436.6c65.4-57.8,130.7-99.7,196-157.6L988.6,412.8l150.6-151-44.9,133,151.2-107.9q-17.1,51-34.1,101.9l55-67.2-9.6,81.6,6.8-9.9" fill="none" stroke="#0096a4" stroke-linecap="round" stroke-linejoin="round" stroke-width="78.98"/><path d="M71,35.7H95.9V194.6H71Z" fill="#fff"/><path d="M166.3,194.6c-1.4-4.1-2.3-6.6-2.3-19.5v-25c0-14.7-5-20.2-16.3-20.2h-8.6v64.7h-25V35.7h37.7c25.8,0,37,12,37,36.6V84.7c0,16.4-5.3,26.8-16.4,32.1v.4c12.5,5.2,16.6,17,16.6,33.6v24.5c0,7.7.2,13.4,2.7,19.3ZM139.1,58.4v48.8h9.7c9.3,0,15-4.1,15-16.8V74.8c0-11.4-3.9-16.4-12.7-16.4Z" fill="#fff"/><path d="M203.3,73.8c0-25.4,13.4-39.9,37.9-39.9s37.9,14.5,37.9,39.9v82.7c0,25.4-13.4,39.9-37.9,39.9s-37.9-14.5-37.9-39.9Zm25,84.3c0,11.3,5,15.6,12.9,15.6s12.9-4.3,12.9-15.6V72.3c0-11.4-5-15.7-12.9-15.7s-12.9,4.3-12.9,15.7Z" fill="#fff"/><path d="M317.9,79.5h-.4V194.6H295V35.7h31.3l25.2,95.1h.5V35.7h22.2V194.6H348.6Z" fill="#fff"/><path d="M452.3,106.3h32.2V129H452.3v65.6h-25V35.7h66.1V58.4H452.3Z" fill="#fff"/><path d="M505.4,35.7h25V194.6h-25Z" fill="#fff"/><path d="M582.1,33.9c24.3,0,36.8,14.5,36.8,39.9v5H595.3V72.3c0-11.4-4.5-15.7-12.5-15.7s-12.5,4.3-12.5,15.7,5,20.2,21.4,34.5c20.9,18.4,27.4,31.5,27.4,49.7,0,25.4-12.7,39.9-37.2,39.9s-37.2-14.5-37.2-39.9v-9.8h23.6v11.4c0,11.3,5,15.4,12.9,15.4s13-4.1,13-15.4-5-20.2-21.4-34.5C552,105.2,545.4,92,545.4,73.8,545.4,48.4,557.9,33.9,582.1,33.9Z" fill="#fff"/><path d="M626.2,35.7h77.2V58.4H677.3V194.6h-25V58.4H626.2Z" fill="#fff"/><path d="M786.9,165.3h.4L806.2,35.7h22.9L804.6,194.6H767.4L742.9,35.7h25.2Z" fill="#fff"/><path d="M874.3,33.9c24.3,0,36.8,14.5,36.8,39.9v5H887.5V72.3c0-11.4-4.6-15.7-12.5-15.7s-12.5,4.3-12.5,15.7,5,20.2,21.3,34.5c20.9,18.4,27.5,31.5,27.5,49.7,0,25.4-12.7,39.9-37.2,39.9s-37.3-14.5-37.3-39.9v-9.8h23.6v11.4c0,11.3,5,15.4,13,15.4s12.9-4.1,12.9-15.4-5-20.2-21.3-34.5c-20.9-18.4-27.5-31.6-27.5-49.8C837.5,48.4,850,33.9,874.3,33.9Z" fill="#fff"/><path d="M948.5,170.6v24h-24v-24Z" fill="#fff"/><path d="M71,244.7h39.5c24.9,0,37.2,13.9,37.2,39.3v80.3c0,25.5-12.3,39.3-37.2,39.3H71Zm24.9,22.7V380.9H110c7.9,0,12.7-4.1,12.7-15.4V282.8c0-11.3-4.8-15.4-12.7-15.4Z" fill="#fff"/><path d="M215.8,403.6c-1.4-4.1-2.3-6.6-2.3-19.5v-25c0-14.7-5-20.2-16.3-20.2h-8.7v64.7H163.6V244.7h37.7c25.8,0,37,12,37,36.6v12.4c0,16.4-5.3,26.8-16.4,32.1v.4c12.5,5.2,16.6,17,16.6,33.6v24.5c0,7.7.2,13.4,2.7,19.3ZM188.5,267.4v48.8h9.8c9.3,0,15-4.1,15-16.8V283.8c0-11.4-3.9-16.4-12.7-16.4Z" fill="#fff"/><path d="M278.7,244.7V367.3c0,11.3,5,15.4,12.9,15.4s12.9-4.1,12.9-15.4V244.7h23.6v121c0,25.4-12.7,40-37.2,40s-37.2-14.6-37.2-40v-121Z" fill="#fff"/><path d="M367.9,288.5h-.5V403.6H344.9V244.7h31.4l25.2,95.1h.4V244.7h22.3V403.6H398.5Z" fill="#fff"/><path d="M474.8,340.3l-7.7,14.5v48.8h-25V244.7h25v68.8h.4l32.3-68.8h24.9L490,315.5l34.7,88.1H499.1Z" fill="#fff"/><path d="M561,311.7h34.3v22.7H561v46.5h43.2v22.7H536.1V244.7h68.1v22.7H561Z" fill="#fff"/><path d="M642.3,288.5h-.5V403.6H619.4V244.7h31.3l25.2,95.1h.5V244.7h22.2V403.6H672.9Z" fill="#fff"/><path d="M804.4,357.5h.4l16.8-112.8h34.8V403.6H832.8V289.7h-.5L815.5,403.6H791.9L773.7,291.2h-.4V403.6H751.5V244.7h34.7Z" fill="#fff"/><path d="M955.3,403.6H930.1l-4.3-28.8H895.2l-4.3,28.8h-23l25.5-158.9h36.5Zm-56.9-50.4h24l-11.8-80.3h-.4Z" fill="#fff"/><path d="M1000.5,242.9c24.3,0,36.8,14.5,36.8,39.9v5h-23.6v-6.5c0-11.4-4.6-15.7-12.5-15.7s-12.5,4.3-12.5,15.7,5,20.2,21.3,34.5c20.9,18.3,27.5,31.5,27.5,49.7,0,25.4-12.7,39.9-37.2,39.9S963,390.9,963,365.5v-9.8h23.7v11.4c0,11.3,4.9,15.4,12.9,15.4s12.9-4.1,12.9-15.4-5-20.2-21.3-34.5c-20.9-18.4-27.5-31.6-27.5-49.8C963.7,257.4,976.2,242.9,1000.5,242.9Z" fill="#fff"/><path d="M1044.5,244.7h77.2v22.7h-26.1V403.6h-25V267.4h-26.1Z" fill="#fff"/><path d="M1157.6,311.7h34.3v22.7h-34.3v46.5h43.1v22.7h-68.1V244.7h68.1v22.7h-43.1Z" fill="#fff"/><path d="M1268.4,403.6c-1.4-4.1-2.3-6.6-2.3-19.5v-25c0-14.7-5-20.2-16.4-20.2h-8.6v64.7h-25V244.7h37.7c25.9,0,37,12,37,36.6v12.4c0,16.4-5.2,26.8-16.3,32.1v.4c12.5,5.2,16.6,17,16.6,33.6v24.5c0,7.7.2,13.4,2.7,19.3Zm-27.3-136.2v48.8h9.8c9.3,0,15-4.1,15-16.8V283.8c0-11.4-3.9-16.4-12.8-16.4Z" fill="#fff"/><path d="M67,31.7H91.9V190.6H67Z" fill="#2d315d"/><path d="M162.3,190.6c-1.4-4.1-2.3-6.6-2.3-19.5v-25c0-14.7-5-20.2-16.3-20.2H135v64.7H110.1V31.7h37.7c25.8,0,37,12,37,36.6V80.7c0,16.4-5.3,26.8-16.4,32v.5c12.5,5.2,16.6,17,16.6,33.6v24.5c0,7.7.2,13.4,2.7,19.3ZM135,54.4v48.8h9.8c9.3,0,15-4.1,15-16.8V70.8c0-11.4-3.9-16.4-12.7-16.4Z" fill="#2d315d"/><path d="M199.3,69.8c0-25.4,13.4-39.9,37.9-39.9s37.9,14.5,37.9,39.9v82.7c0,25.4-13.4,39.9-37.9,39.9s-37.9-14.5-37.9-39.9Zm25,84.3c0,11.3,5,15.6,12.9,15.6s12.9-4.3,12.9-15.6V68.3c0-11.4-5-15.7-12.9-15.7s-12.9,4.3-12.9,15.7Z" fill="#2d315d"/><path d="M313.9,75.5h-.4V190.6H291V31.7h31.3l25.2,95.1h.5V31.7h22.2V190.6H344.6Z" fill="#2d315d"/><path d="M448.3,102.3h32.2V125H448.3v65.6h-25V31.7h66.1V54.4H448.3Z" fill="#2d315d"/><path d="M501.4,31.7h25V190.6h-25Z" fill="#2d315d"/><path d="M578.1,29.9c24.3,0,36.8,14.5,36.8,39.9v5H591.3V68.3c0-11.4-4.5-15.7-12.5-15.7s-12.5,4.3-12.5,15.7,5,20.2,21.4,34.5c20.9,18.3,27.4,31.5,27.4,49.7,0,25.4-12.7,39.9-37.2,39.9s-37.2-14.5-37.2-39.9v-9.8h23.6v11.4c0,11.3,5,15.4,12.9,15.4s13-4.1,13-15.4-5-20.2-21.4-34.5C548,101.2,541.4,88,541.4,69.8,541.4,44.4,553.9,29.9,578.1,29.9Z" fill="#2d315d"/><path d="M622.2,31.7h77.2V54.4H673.3V190.6h-25V54.4H622.2Z" fill="#2d315d"/><path d="M782.9,161.3h.4L802.2,31.7h22.9L800.6,190.6H763.4L738.9,31.7h25.2Z" fill="#2d315d"/><path d="M870.3,29.9c24.3,0,36.8,14.5,36.8,39.9v5H883.5V68.3c0-11.4-4.6-15.7-12.5-15.7s-12.5,4.3-12.5,15.7,5,20.2,21.3,34.5c20.9,18.3,27.5,31.5,27.5,49.7,0,25.4-12.7,39.9-37.2,39.9s-37.3-14.5-37.3-39.9v-9.8h23.6v11.4c0,11.3,5,15.4,13,15.4s12.9-4.1,12.9-15.4-5-20.2-21.3-34.5c-20.9-18.4-27.5-31.6-27.5-49.8C833.5,44.4,846,29.9,870.3,29.9Z" fill="#2d315d"/><path d="M944.5,166.5v24.1h-24V166.5Z" fill="#2d315d"/><path d="M67,240.7h39.5c24.9,0,37.2,13.9,37.2,39.3v80.3c0,25.5-12.3,39.3-37.2,39.3H67Zm24.9,22.7V376.9H106c7.9,0,12.7-4.1,12.7-15.4V278.8c0-11.3-4.8-15.4-12.7-15.4Z" fill="#2d315d"/><path d="M211.8,399.6c-1.4-4.1-2.3-6.6-2.3-19.5v-25c0-14.7-5-20.2-16.3-20.2h-8.7v64.7H159.6V240.7h37.6c25.9,0,37,12,37,36.6v12.4c0,16.4-5.2,26.8-16.3,32v.5c12.5,5.2,16.6,17,16.6,33.6v24.5c0,7.7.2,13.4,2.7,19.3ZM184.5,263.4v48.8h9.8c9.3,0,15-4.1,15-16.8V279.8c0-11.4-3.9-16.4-12.7-16.4Z" fill="#2d315d"/><path d="M274.7,240.7V363.3c0,11.3,4.9,15.4,12.9,15.4s12.9-4.1,12.9-15.4V240.7h23.6v121c0,25.4-12.7,40-37.2,40s-37.2-14.6-37.2-40v-121Z" fill="#2d315d"/><path d="M363.9,284.5h-.5V399.6H340.9V240.7h31.4l25.2,95.1h.4V240.7h22.3V399.6H394.5Z" fill="#2d315d"/><path d="M470.8,336.3l-7.7,14.5v48.8h-25V240.7h25v68.8h.4l32.2-68.8h25L486,311.5l34.7,88.1H495.1Z" fill="#2d315d"/><path d="M557,307.7h34.3v22.7H557v46.5h43.2v22.7H532.1V240.7h68.1v22.7H557Z" fill="#2d315d"/><path d="M638.3,284.5h-.5V399.6H615.4V240.7h31.3l25.2,95.1h.4V240.7h22.3V399.6H668.9Z" fill="#2d315d"/><path d="M800.4,353.5h.4l16.8-112.8h34.8V399.6H828.7V285.7h-.4L811.5,399.6H787.9L769.7,287.2h-.4V399.6H747.5V240.7h34.7Z" fill="#2d315d"/><path d="M951.3,399.6H926.1l-4.3-28.8H891.2l-4.3,28.8h-23l25.5-158.9h36.5Zm-57-50.4h24.1l-11.8-80.3h-.4Z" fill="#2d315d"/><path d="M996.5,238.9c24.3,0,36.8,14.5,36.8,39.9v5h-23.6v-6.5c0-11.4-4.6-15.7-12.5-15.7s-12.5,4.3-12.5,15.7,5,20.2,21.3,34.5c20.9,18.3,27.5,31.5,27.5,49.7,0,25.4-12.7,39.9-37.2,39.9S959,386.9,959,361.5v-9.8h23.7v11.4c0,11.3,4.9,15.4,12.9,15.4s12.9-4.1,12.9-15.4-5-20.2-21.3-34.5c-20.9-18.4-27.5-31.6-27.5-49.8C959.7,253.4,972.2,238.9,996.5,238.9Z" fill="#2d315d"/><path d="M1040.5,240.7h77.2v22.7h-26.1V399.6h-25V263.4h-26.1Z" fill="#2d315d"/><path d="M1153.6,307.7h34.3v22.7h-34.3v46.5h43.1v22.7h-68.1V240.7h68.1v22.7h-43.1Z" fill="#2d315d"/><path d="M1264.4,399.6c-1.4-4.1-2.3-6.6-2.3-19.5v-25c0-14.7-5-20.2-16.4-20.2h-8.6v64.7h-25V240.7h37.7c25.9,0,37,12,37,36.6v12.4c0,16.4-5.2,26.8-16.3,32v.5c12.5,5.2,16.6,17,16.6,33.6v24.5c0,7.7.2,13.4,2.7,19.3Zm-27.3-136.2v48.8h9.8c9.3,0,15-4.1,15-16.8V279.8c0-11.4-3.9-16.4-12.8-16.4Z" fill="#2d315d"/><rect x="62.5" y="432.2" width="1231.3" height="14.7" fill="#fff"/><rect x="57.4" y="429.2" width="1231.3" height="14.7" fill="#2d315d"/></svg>