<svg id="Layer_8" data-name="Layer 8" xmlns="http://www.w3.org/2000/svg" width="1186.7" height="482" viewBox="0 0 1186.7 482"><path d="M113.3,57.8,53.2,123.9a528.3,528.3,0,0,1,179.6-78L99,180.8,340.5,72.1l-90.7,77.1c-60.7,51.7-122.1,104-167,168.7a635.8,635.8,0,0,1,231.1-104c-84.6,56.2-155.5,131.1-205.5,217L452.6,256.6,330,422.5,592.4,270.8,462.1,426.7,715.2,249.9,600.4,437.8,823.5,286.5c-34,56.3-68.1,95.7-102.1,152,44.2-46.5,97.7-68,156.8-95.8l-36.3,86.1" fill="none" stroke="#0096a4" stroke-linecap="round" stroke-linejoin="round" stroke-width="80.29"/><path d="M63.7,35.7h77.2V58.4H114.8V194.6h-25V58.4H63.7Z" fill="#fff"/><path d="M176.7,194.6H151.8V35.7h24.9v68.1h28.4V35.7h25.4V194.6H205.1V126.5H176.7Z" fill="#fff"/><path d="M273.7,102.7h34.2v22.7H273.7v46.5h43.1v22.7H248.7V35.7h68.1V58.4H273.7Z" fill="#fff"/><path d="M71,244.7H95.9V403.6H71Z" fill="#fff"/><path d="M106.8,244.7H184v22.7H157.9V403.6h-25V267.4H106.8Z" fill="#fff"/><path d="M267.1,403.6H241.9l-4.3-28.8H206.9l-4.3,28.8H179.7l25.4-158.9h36.6Zm-57-50.4h24.1l-11.8-80.3h-.5Z" fill="#fff"/><path d="M278.7,244.7h24.9V380.9h41.1v22.7h-66Z" fill="#fff"/><path d="M355.6,244.7h25V403.6h-25Z" fill="#fff"/><path d="M479.5,403.6H454.3L450,374.8H419.4l-4.3,28.8h-23l25.5-158.9h36.5Zm-56.9-50.4h24l-11.8-80.3h-.4Z" fill="#fff"/><path d="M513.8,288.5h-.4V403.6H490.9V244.7h31.3l25.2,95.1h.5V244.7h22.2V403.6H544.5Z" fill="#fff"/><path d="M616.4,380.9c2.7.2,5.9.2,8.6.2,8,0,14.3-2.9,14.3-15.2V244.7h25V364.1c0,31.8-17,40-35.8,40a94,94,0,0,1-12.1-.5Z" fill="#fff"/><path d="M679.3,282.8c0-25.4,13.4-39.9,37.9-39.9s37.9,14.5,37.9,39.9v82.7c0,25.4-13.4,39.9-37.9,39.9s-37.9-14.5-37.9-39.9Zm25,84.3c0,11.3,5,15.6,12.9,15.6s12.9-4.3,12.9-15.6V281.3c0-11.4-4.9-15.7-12.9-15.7s-12.9,4.3-12.9,15.7Z" fill="#fff"/><path d="M845.9,281.3v5.6c0,16.4-5,26.6-16.1,31.8v.5c13.4,5.2,18.6,17,18.6,33.8v12.9c0,24.5-12.9,37.7-37.9,37.7H771.2V244.7h37.7C834.8,244.7,845.9,256.7,845.9,281.3Zm-49.7-13.9v42H806c9.3,0,14.9-4.1,14.9-16.8v-8.8c0-11.4-3.8-16.4-12.7-16.4Zm0,64.7v48.8h14.3c8.4,0,12.9-3.8,12.9-15.7V351.4c0-14.8-4.7-19.3-16.1-19.3Z" fill="#fff"/><path d="M59.7,31.7h77.2V54.4H110.8V190.6h-25V54.4H59.7Z" fill="#2d315d"/><path d="M172.7,190.6H147.8V31.7h24.9V99.8h28.4V31.7h25.4V190.6H201.1V122.5H172.7Z" fill="#2d315d"/><path d="M269.7,98.7h34.2v22.7H269.7v46.5h43.1v22.7H244.7V31.7h68.1V54.4H269.7Z" fill="#2d315d"/><path d="M67,240.7H91.9V399.6H67Z" fill="#2d315d"/><path d="M102.8,240.7H180v22.7H153.9V399.6h-25V263.4H102.8Z" fill="#2d315d"/><path d="M263.1,399.6H237.9l-4.3-28.8H202.9l-4.3,28.8H175.7l25.4-158.9h36.6Zm-57-50.4h24.1l-11.8-80.3h-.5Z" fill="#2d315d"/><path d="M274.7,240.7h24.9V376.9h41.1v22.7h-66Z" fill="#2d315d"/><path d="M351.6,240.7h25V399.6h-25Z" fill="#2d315d"/><path d="M475.5,399.6H450.3L446,370.8H415.4l-4.3,28.8h-23l25.5-158.9h36.5Zm-56.9-50.4h24l-11.8-80.3h-.4Z" fill="#2d315d"/><path d="M509.8,284.5h-.4V399.6H486.9V240.7h31.3l25.2,95.1h.5V240.7h22.2V399.6H540.5Z" fill="#2d315d"/><path d="M612.4,376.9c2.7.2,5.9.2,8.6.2,8,0,14.3-2.9,14.3-15.2V240.7h25V360.1c0,31.8-17,40-35.9,40a93.2,93.2,0,0,1-12-.5Z" fill="#2d315d"/><path d="M675.3,278.8c0-25.4,13.4-39.9,37.9-39.9s37.9,14.5,37.9,39.9v82.7c0,25.4-13.4,39.9-37.9,39.9s-37.9-14.5-37.9-39.9Zm25,84.3c0,11.3,5,15.6,12.9,15.6s12.9-4.3,12.9-15.6V277.3c0-11.4-4.9-15.7-12.9-15.7s-12.9,4.3-12.9,15.7Z" fill="#2d315d"/><path d="M841.9,277.3v5.6c0,16.4-5,26.6-16.1,31.8v.5c13.4,5.2,18.6,17,18.6,33.8v12.9c0,24.5-12.9,37.7-37.9,37.7H767.2V240.7h37.7C830.8,240.7,841.9,252.7,841.9,277.3Zm-49.7-13.9v42H802c9.3,0,14.9-4.1,14.9-16.8v-8.8c0-11.4-3.8-16.4-12.7-16.4Zm0,64.7v48.8h14.3c8.4,0,12.9-3.8,12.9-15.7V347.4c0-14.8-4.7-19.3-16.1-19.3Z" fill="#2d315d"/><rect x="60.6" y="432.2" width="787.8" height="14.7" fill="#fff"/><rect x="57.4" y="429.2" width="787.8" height="14.7" fill="#2d315d"/></svg>