<svg id="Layer_6" data-name="Layer 6" xmlns="http://www.w3.org/2000/svg" width="1186.7" height="482" viewBox="0 0 1186.7 482"><path d="M149,42C111.3,84.8,96.1,147.8,58.5,190.6c69.3-44.2,126-75.5,208.1-114.2C184.7,139.6,97.9,310.2,55.2,399.6c106.9-109.4,259.9-289,405.9-351Q316.8,237.5,172.3,426.2C327.9,308.3,481.7,171.1,628.4,54.4c-91.2,136.2-166.4,247-261.8,383,206.2-83.5,268-246.8,423.9-384.8C757.1,166.4,634.9,322.5,589.2,429.2,714.4,286.7,838.6,204,926,48.4c-5.1,73.8-5.5,112.2-14.1,181.9,51-55.2,70.7-82.7,134.9-181.7-7,114.5-3.2,133,0,185.7" fill="none" stroke="#f37021" stroke-linecap="round" stroke-linejoin="round" stroke-width="79.3"/><path d="M95.1,131.2l-7.7,14.6v48.8H62.5V35.7H87.4v68.8h.5l32.2-68.8h25l-34.7,70.8,34.7,88.1H119.4Z" fill="#fff"/><path d="M237.2,194.6H212l-4.3-28.9H177.1l-4.3,28.9h-23L175.3,35.7h36.5Zm-56.9-50.4h24L192.5,63.8h-.4Z" fill="#fff"/><path d="M301,194.6c-1.3-4.1-2.2-6.6-2.2-19.5v-25c0-14.8-5-20.2-16.4-20.2h-8.6v64.7h-25V35.7h37.7c25.9,0,37,12,37,36.5V84.7c0,16.4-5.2,26.8-16.3,32v.5c12.4,5.2,16.5,17,16.5,33.6v24.5c0,7.7.3,13.4,2.8,19.3ZM273.8,58.4v48.8h9.8c9.3,0,14.9-4.1,14.9-16.8V74.7c0-11.3-3.8-16.3-12.7-16.3Z" fill="#fff"/><path d="M373.7,33.9c24.3,0,36.7,14.5,36.7,39.9v5H386.8V72.2c0-11.3-4.5-15.6-12.4-15.6s-12.5,4.3-12.5,15.6,5,20.2,21.3,34.5c20.9,18.4,27.5,31.6,27.5,49.7,0,25.5-12.7,40-37.3,40s-37.2-14.5-37.2-40v-9.7h23.6V158c0,11.4,5,15.5,13,15.5s12.9-4.1,12.9-15.5-5-20.2-21.3-34.5c-20.9-18.4-27.5-31.5-27.5-49.7C336.9,48.4,349.4,33.9,373.7,33.9Z" fill="#fff"/><path d="M512.8,148.5h.5L530.1,35.7h34.7V194.6H541.2V80.6h-.5l-16.8,114H500.3L482.2,82.2h-.5V194.6H459.9V35.7h34.8Z" fill="#fff"/><path d="M663.8,194.6H638.6l-4.3-28.9H603.6l-4.3,28.9H576.4L601.8,35.7h36.5Zm-57-50.4h24.1L619.1,63.8h-.5Z" fill="#fff"/><path d="M708.9,33.9c24.3,0,36.8,14.5,36.8,39.9v5H722.1V72.2c0-11.3-4.5-15.6-12.5-15.6s-12.5,4.3-12.5,15.6,5,20.2,21.4,34.5c20.9,18.4,27.4,31.6,27.4,49.7,0,25.5-12.7,40-37.2,40s-37.2-14.5-37.2-40v-9.7h23.6V158c0,11.4,5,15.5,12.9,15.5s13-4.1,13-15.5-5-20.2-21.4-34.5c-20.8-18.4-27.4-31.5-27.4-49.7C672.2,48.4,684.7,33.9,708.9,33.9Z" fill="#fff"/><path d="M793.8,33.9c24.3,0,36.8,14.5,36.8,39.9v5H807V72.2c0-11.3-4.5-15.6-12.5-15.6S782,60.9,782,72.2s5,20.2,21.4,34.5c20.9,18.4,27.4,31.6,27.4,49.7,0,25.5-12.7,40-37.2,40s-37.2-14.5-37.2-40v-9.7H780V158c0,11.4,5,15.5,12.9,15.5s13-4.1,13-15.5-5-20.2-21.4-34.5c-20.9-18.4-27.4-31.5-27.4-49.7C757.1,48.4,769.6,33.9,793.8,33.9Z" fill="#fff"/><path d="M926,194.6H900.8l-4.4-28.9H865.8l-4.3,28.9H838.6L864,35.7h36.5Zm-57-50.4h24L881.2,63.8h-.4Z" fill="#fff"/><path d="M974.8,106h34.9v50.4c0,25.5-12.7,40-37.2,40s-37.2-14.5-37.2-40V73.8c0-25.4,12.7-39.9,37.2-39.9s37.2,14.5,37.2,39.9V89.2H986.1v-17c0-11.3-5-15.6-12.9-15.6s-13,4.3-13,15.6V158c0,11.4,5,15.5,13,15.5s12.9-4.1,12.9-15.5V128.7H974.8Z" fill="#fff"/><path d="M1050.8,102.6h34.3v22.7h-34.3v46.6h43.1v22.7h-68.1V35.7h68.1V58.4h-43.1Z" fill="#fff"/><path d="M55.2,244.7h77.2v22.7H106.3V403.6h-25V267.4H55.2Z" fill="#fff"/><path d="M168.2,403.6H143.3V244.7h24.9v68.1h28.4V244.7H222V403.6H196.6V335.5H168.2Z" fill="#fff"/><path d="M265.2,311.6h34.2v22.7H265.2v46.6h43.1v22.7H240.2V244.7h68.1v22.7H265.2Z" fill="#fff"/><path d="M375.9,403.6c-1.3-4.1-2.2-6.6-2.2-19.5v-25c0-14.8-5-20.2-16.4-20.2h-8.6v64.7h-25V244.7h37.7c25.9,0,37,12,37,36.5v12.5c0,16.4-5.2,26.8-16.3,32v.5c12.5,5.2,16.5,17,16.5,33.6v24.5c0,7.7.3,13.4,2.8,19.3ZM348.7,267.4v48.8h9.8c9.3,0,14.9-4.1,14.9-16.8V283.7c0-11.3-3.8-16.3-12.7-16.3Z" fill="#fff"/><path d="M495.8,403.6H470.6l-4.3-28.9H435.6l-4.3,28.9H408.4l25.4-158.9h36.6Zm-57-50.4h24.1l-11.8-80.4h-.5Z" fill="#fff"/><path d="M581.4,283.9v20.7c0,25.4-12.3,39.3-37.3,39.3H532.3v59.7H507.4V244.7h36.7C569.1,244.7,581.4,258.5,581.4,283.9Zm-49.1-16.5v53.8h11.8c8,0,12.3-3.7,12.3-15V282.4c0-11.4-4.3-15-12.3-15Z" fill="#fff"/><path d="M615.9,350.9,584.3,244.7h26.1l18.9,72.4h.4l18.9-72.4h23.8L640.8,350.9v52.7H615.9Z" fill="#fff"/><path d="M91.1,127.2l-7.7,14.6v48.8H58.5V31.7H83.4v68.8h.5l32.2-68.8h25l-34.7,70.8,34.7,88.1H115.4Z" fill="#2d315d"/><path d="M233.2,190.6H208l-4.3-28.9H173.1l-4.3,28.9h-23L171.3,31.7h36.5Zm-56.9-50.4h24L188.5,59.8h-.4Z" fill="#2d315d"/><path d="M297,190.6c-1.3-4.1-2.2-6.6-2.2-19.5v-25c0-14.8-5-20.2-16.4-20.2h-8.6v64.7h-25V31.7h37.7c25.9,0,37,12,37,36.5V80.7c0,16.3-5.2,26.8-16.3,32v.5c12.4,5.2,16.5,17,16.5,33.6v24.5c0,7.7.3,13.4,2.8,19.3ZM269.8,54.4v48.8h9.7c9.4,0,15-4.1,15-16.8V70.7c0-11.3-3.8-16.3-12.7-16.3Z" fill="#2d315d"/><path d="M369.7,29.9c24.3,0,36.7,14.5,36.7,39.9v5H382.8V68.2c0-11.3-4.5-15.6-12.5-15.6s-12.4,4.3-12.4,15.6,5,20.2,21.3,34.5c20.9,18.4,27.5,31.6,27.5,49.7,0,25.5-12.7,40-37.3,40s-37.2-14.5-37.2-40v-9.7h23.6V154c0,11.4,5,15.5,13,15.5s12.9-4.1,12.9-15.5-5-20.2-21.3-34.5c-20.9-18.4-27.5-31.5-27.5-49.7C332.9,44.4,345.4,29.9,369.7,29.9Z" fill="#2d315d"/><path d="M508.8,144.5h.5L526.1,31.7h34.7V190.6H537.2V76.6h-.5l-16.8,114H496.3L478.2,78.2h-.5V190.6H455.9V31.7h34.8Z" fill="#2d315d"/><path d="M659.8,190.6H634.6l-4.3-28.9H599.6l-4.3,28.9H572.4L597.8,31.7h36.5Zm-57-50.4h24.1L615,59.8h-.4Z" fill="#2d315d"/><path d="M704.9,29.9c24.3,0,36.8,14.5,36.8,39.9v5H718.1V68.2c0-11.3-4.5-15.6-12.5-15.6s-12.5,4.3-12.5,15.6,5,20.2,21.4,34.5c20.9,18.4,27.4,31.6,27.4,49.7,0,25.5-12.7,40-37.2,40s-37.2-14.5-37.2-40v-9.7h23.6V154c0,11.4,5,15.5,12.9,15.5s13-4.1,13-15.5-5-20.2-21.4-34.5c-20.9-18.4-27.4-31.5-27.4-49.7C668.2,44.4,680.7,29.9,704.9,29.9Z" fill="#2d315d"/><path d="M789.8,29.9c24.3,0,36.8,14.5,36.8,39.9v5H803V68.2c0-11.3-4.5-15.6-12.5-15.6S778,56.9,778,68.2s5,20.2,21.4,34.5c20.9,18.4,27.4,31.6,27.4,49.7,0,25.5-12.7,40-37.2,40s-37.2-14.5-37.2-40v-9.7H776V154c0,11.4,5,15.5,12.9,15.5s13-4.1,13-15.5-5-20.2-21.4-34.5c-20.9-18.4-27.4-31.5-27.4-49.7C753.1,44.4,765.5,29.9,789.8,29.9Z" fill="#2d315d"/><path d="M922,190.6H896.8l-4.4-28.9H861.8l-4.3,28.9H834.6L860,31.7h36.5Zm-57-50.4h24L877.2,59.8h-.4Z" fill="#2d315d"/><path d="M970.8,102h34.9v50.4c0,25.5-12.7,40-37.2,40s-37.2-14.5-37.2-40V69.8c0-25.4,12.7-39.9,37.2-39.9s37.2,14.5,37.2,39.9V85.2H982.1v-17c0-11.3-5-15.6-12.9-15.6s-13,4.3-13,15.6V154c0,11.4,5,15.5,13,15.5s12.9-4.1,12.9-15.5V124.7H970.8Z" fill="#2d315d"/><path d="M1046.8,98.6h34.3v22.7h-34.3v46.6h43.1v22.7h-68.1V31.7h68.1V54.4h-43.1Z" fill="#2d315d"/><path d="M51.2,240.7h77.2v22.7H102.3V399.6h-25V263.4H51.2Z" fill="#2d315d"/><path d="M164.2,399.6H139.3V240.7h24.9v68.1h28.4V240.7H218V399.6H192.6V331.5H164.2Z" fill="#2d315d"/><path d="M261.2,307.6h34.2v22.7H261.2v46.6h43.1v22.7H236.2V240.7h68.1v22.7H261.2Z" fill="#2d315d"/><path d="M371.9,399.6c-1.3-4.1-2.2-6.6-2.2-19.5v-25c0-14.8-5-20.2-16.4-20.2h-8.6v64.7h-25V240.7h37.7c25.9,0,37,12,37,36.5v12.5c0,16.3-5.2,26.8-16.3,32v.5c12.5,5.2,16.5,17,16.5,33.6v24.5c0,7.7.3,13.4,2.8,19.3ZM344.7,263.4v48.8h9.8c9.3,0,14.9-4.1,14.9-16.8V279.7c0-11.3-3.8-16.3-12.7-16.3Z" fill="#2d315d"/><path d="M491.8,399.6H466.6l-4.3-28.9H431.6l-4.3,28.9H404.4l25.4-158.9h36.6Zm-57-50.4h24.1l-11.8-80.4h-.5Z" fill="#2d315d"/><path d="M577.4,279.9v20.7c0,25.4-12.3,39.3-37.3,39.3H528.3v59.7H503.4V240.7h36.7C565.1,240.7,577.4,254.5,577.4,279.9Zm-49.1-16.5v53.8h11.8c8,0,12.3-3.7,12.3-15V278.4c0-11.4-4.3-15-12.3-15Z" fill="#2d315d"/><path d="M611.9,346.9,580.3,240.7h26.1l18.9,72.4h.4l18.9-72.4h23.8L636.8,346.9v52.7H611.9Z" fill="#2d315d"/><rect x="61.6" y="432.2" width="1032.3" height="14.7" fill="#fff"/><rect x="57.4" y="429.2" width="1032.3" height="14.7" fill="#2d315d"/></svg>