<svg id="Layer_1" data-name="Layer 1" xmlns="http://www.w3.org/2000/svg" width="26.7in" height="15in" viewBox="0 0 1920 1080"><rect y="786.4" width="1920" height="293.57" fill="#fff" stroke="#000" stroke-linecap="round" stroke-linejoin="round" stroke-width="11"/><rect width="1920" height="786.43" fill="#231f20" stroke="#000" stroke-linecap="round" stroke-linejoin="round" stroke-width="18"/><line y1="911.4" x2="22.5" y2="911.4" fill="none" stroke="#000" stroke-linecap="round" stroke-linejoin="round" stroke-width="18"/><line x1="106.2" y1="911.4" x2="1855.7" y2="911.4" fill="none" stroke="#000" stroke-linecap="round" stroke-linejoin="round" stroke-width="18" stroke-dasharray="44.29 83.66"/><line x1="1897.5" y1="911.4" x2="1920" y2="911.4" fill="none" stroke="#000" stroke-linecap="round" stroke-linejoin="round" stroke-width="18"/><path d="M1823,675.2c.1-2.1-.3-3.9.4-4.9a35.1,35.1,0,0,1,5.1-5.1c.4-.3,1.3,0,1.9,0,12.6-.2,12.6-.2,14.8-12.5,1.5-8,2.9-16.1,4.7-24,.3-1.6,1.9-2.9,2.9-4.2.3,1.6,1.1,3.3.8,4.8-2,11.6-4.3,23.2-6.5,35.2,5.9,1,6.8,5.1,6.1,10.7h7.3c10.5,0,21-.2,31.5.1,1.9,0,4.8,1.4,5.5,2.9s-.2,4.7-1.4,6.1c-4.9,5.7-10.1,11.2-15.4,16.5-2.1,2.2-2.7,3.9-1.3,6.9,5.6,11.2,10.8,22.5,16.4,33.7a11.8,11.8,0,0,0,5.1,4.8c10.4,5.2,16.1,13.3,16.3,24.9.2,7.5.1,14.9.1,22.3,12.1,5.2,14.1,8.9,12.5,21.6-1,8.3-1.7,16.6-2.5,24.9-.2,1.5-.3,3-.6,4.4-2.2,11-9.3,15.3-19.8,11.4-1.5-.5-2.5-2.7-3.7-4.2s-1.3-2.2-2-3.3c-.8,1.3-2.1,2.4-2.3,3.7a50,50,0,0,1-12.6,27.2c-3.1,3.4-6.7,6.3-10.8,10.1h18.6c5.5,0,11.1-.3,16.5.2,1.7.1,3.1,2.6,4.6,4a37.4,37.4,0,0,1-4.5,3.6c-.9.5-2.3.2-3.5.2H1421.4c-3.2,0-7.7,1.1-7.9-3.7s4.6-4.2,7.9-4.2c9.6-.1,19.2,0,29.8,0-3.8-3.4-7.3-5.5-9.5-8.7a149.3,149.3,0,0,1-12-20.4c-1.6-3.2-2.7-4.7-6.4-3.5a15.4,15.4,0,0,0-.5,3.1c-.4,7.4-1.3,8.4-8.5,8.4h-19.5c-3.6,0-7.1-.3-7.4-4.8s3.1-5.3,6.8-5.3c.3,0,.6-.3,1.5-.7-1.6-8.1-3.2-16.3-4.9-24.6-1.2-6-2.3-12.1-3.7-18.1-.8-3.3-.2-5.9,2.7-7.8,6.1-4.1,8.8-9.6,10.6-16.9,5.5-22.7,22.4-34.3,43.9-38.6,14.1-2.8,28.7-3,43.2-4.2s26.9-1.7,40.3-3a14,14,0,0,0,7.8-3.3c20.9-18.6,41.7-37.4,62.4-56.2a35.5,35.5,0,0,1,25-9.6h200Zm78.4,92.9c0,5.7-.1,11.4-.1,17l3.3,3.6c.9-1,2.5-2.1,2.4-3.1-.4-7.2-1.2-14.4-1.9-21.6l-2.6-2.2a17.8,17.8,0,0,0-1.2,2.9A19.3,19.3,0,0,0,1901.4,768.1Zm7.9,36.2h-12.8l2.7,2.9c4,8.2,7.9,16.4,12.1,24.5a5.1,5.1,0,0,0,3.9,2.2c1,0,2.7-1.7,2.9-2.9.8-7.2,1.4-14.5,2-21.8.4-3-.8-4.7-3.8-4.9ZM1401,811l-3.5,4.1c1.3,6.4,2.6,12.7,3.8,19.1,1.6,8.4,1.6,8.5,10.1,7.9a15.6,15.6,0,0,0,1.7-.7c1.1-10.8,5-20.8,10.7-30.2l1.9-3c-7.1,0-13.5-.2-19.9.1C1404.2,808.4,1402.6,810,1401,811Zm159.4-42.8c2.8-3.9,1.8-6.7-2.7-7s-9,.2-13.4-.1-5.8.7-7,4l-3,4.6Zm-129,14.2c4.3-5.5,7.6-11.3,7.8-19.5-9.9,4.8-14.9,12.5-18.8,21.3-1.3,3.4-2.5,6.8-3.7,10.2l1.7.8C1424.2,792.5,1428.3,788,1431.4,782.4Zm165.7-71.3,13.9-14.5c-10.2-1.1-10.2-1.1-14.8,3.5l-45,40.9-3.7,1.1,1.9,2c4.9,0,9.9.2,14.8,0a7.4,7.4,0,0,0,4.3-1.9C1578.1,731.9,1587.6,721.5,1597.1,711.1Zm79.2-14.8h-39.7a6.7,6.7,0,0,0-4.2,1.8,82.9,82.9,0,0,0-6.1,7.2l-33,38,1.2,1.4c3-2.6,5.8-6,9.3-7.5s8.3-1.4,12.5-2c1.7,0,3.3.3,4.9.2,3.9-.4,6.5.7,6.6,5-.2,2.7.8,3.9,3.7,3.9l71.8-.2h25.8V696.3h-52.8Zm71,47.7h97.9l-19.9-43.9c-.4-3-1.9-4.1-5.1-4-7.6.2-15.2.2-22.9.2h-61.9V744Zm-217.9,32.3c-3.9,5.3-7.8,10.7-11.5,16.2-.6.8.1,2.5.2,3.8,12.3,10.7,20.9,23.6,23.8,39.8.5,3.3.8,6.5,1.3,9.7h23.9V786.1c.8-10.9,2.3-21.7,8.3-31.8h-27.1l-4.7,1.4.5,1.5h11.4c9.3,0,12.3,4,9.6,12.8-3,1.1-6,2.8-9.1,3-6.9.5-14-.1-20.9.3C1533.1,773.4,1531.3,775.2,1529.4,776.3Zm6.2-20.1.4-1.9c-1.4,0-2.9-.2-4.4-.1-21.9,1.5-43.7,2.8-65.6,4.5-6.9.5-13.8,1.7-20.7,2.7-.6.5-1.7,1-1.9,1.7-1.5,5.2-2.9,10.5-4.3,15.8-4.9,5.8-9.5,11.9-14.7,17.4-2.2,2.4-6.1,4.5-8.8,1.7s-2.1-5.8-1.5-8.5c.8-4.3,2.9-8.4,4.5-12.5-6.8,6.9-9.7,15.2-10,25.2,6.7,0,13,.2,19.2-.2a11,11,0,0,0,6.5-2.6c12.2-10.4,26.1-16.1,42.3-16.5,12.2-.2,23.3,2.8,34.3,8.7l7.2-10.5Zm199.9,30.9v58.7h47.4c.3-2.7.5-5,.8-7.3,2.4-16.5,10.6-29.9,22.7-41l.9-.4q36.5-26.6,75.6-4.3a8.7,8.7,0,0,0,3.2,1.3c6.6.1,13.2,0,19.7,0-7.9-1.8-8.5-2.6-8.5-11.2,0-4-.2-8,0-12s.9-9.2,1.4-14.8l-8.4-1.8h-152c-2.5-.6-3.1.7-3,2.9C1735.4,767.2,1735.4,777.2,1735.5,787.1Zm-149.2-32.8c-1.7.9-4.1,1.2-5,2.6-6.1,8.8-7.7,18.8-7.8,29.2v59.7h155.6V788.1c.1-10.3.1-20.5.2-30.8,0-2.3-.5-3.6-3-3h-80c-6,0-12,.2-18,.3-.5,4.7-3.1,6.3-7.7,5.7a41.7,41.7,0,0,0-7.9,0,17.8,17.8,0,0,1-14.3-5.3Zm-81.2,134.5h316.3c-11.1-7.7-18.1-17-22.2-28.8-.4-1.2-3.4-1.5-5.5-2.3-1.4,10.5-1.4,10.5-11,10.5H1541.3c-3.6,0-6.9.1-8.5-4.4-.9-2.7-5.9-2.4-7,.3C1521.6,874.1,1515,882,1505.1,888.8Zm379.1-144.6c0-1.9.2-2.5,0-2.9-6.6-14-13.1-28-20-41.9-.9-1.7-4-3-6.1-3.1-7-.4-14-.2-21-.1-5.5,0-6,.9-3.9,5.8,4.7,10.9,9.9,21.5,14.2,32.5,2.8,7.5,7,10.7,15.2,9.8S1876.8,744.2,1884.2,744.2ZM1609.1,688l.4,1.5h248.1c.1-.6.3-1.3.4-1.9-3.4-.8-6.8-2.3-10.1-2.3q-112.8-.3-225.5,0C1618,685.3,1613.5,687.1,1609.1,688Zm239.1,198.1c22.3.1,41.1-18.8,41.1-41s-18.7-40.9-40.7-40.9-41.3,18.5-41.3,40.7S1826,886.1,1848.2,886.1Zm-369.9-81.9c-22,0-40.9,18.7-41,40.6s18.5,41.3,40.7,41.3,41.3-18.7,41.3-40.9A41.3,41.3,0,0,0,1478.3,804.2Zm173,54h70c2.7,0,7.2,1.4,7.3-2.7s-4.6-3.2-7.4-3.2c-46.6-.1-93.3,0-139.9,0-1.2,0-2.5-.3-3.5.1a21.9,21.9,0,0,0-4.1,2.6c1.4,1.1,2.6,2.5,4.2,3.1s2.9.2,4.4.2Zm-75-115c6.7,2.7,10.2-1.4,13.5-5.2,8.4-9.7,16.8-19.3,25.1-29.1,3.2-3.8,6.2-7.7,9.4-11.6l-1.6-1.7c-2.3,1.5-5,2.6-6.8,4.6-9.8,10.2-19.4,20.5-28.9,30.9C1583.4,734.9,1580.1,739,1576.3,743.2Zm183.5,109c-6.5,0-13-.2-19.5.1-1.6.1-3.1,2-4.6,3.1,1.5.9,3,2.6,4.6,2.6,12.6.2,25.3.2,37.9,0,1.6,0,3.1-2,4.7-3.1-1.6-.9-3.1-2.5-4.6-2.6C1772.1,852,1765.9,852.2,1759.8,852.2Zm-146.3-98c3.4-.3,7.8,1.1,7.9-5.1s-.5-8-7.9-7.9-10.7,2.6-10.9,6.5S1606.6,754.1,1613.5,754.2ZM1555.4,858h0a60.3,60.3,0,0,0,8.5-.1c1.1-.2,2-1.7,3-2.6-.9-1-1.8-2.8-2.8-2.8-5.8-.3-11.6-.3-17.4-.1-1.1.1-2,1.7-3,2.6,1.1,1,2,2.7,3.3,2.9A58.7,58.7,0,0,0,1555.4,858Zm274.8-184.8c3.6,3,13.3,2.8,16.2-.3C1842.4,670.2,1833.4,670.4,1830.2,673.2ZM1414.1,852.8c-2.6-2-4.1-3.7-6-4.3s-3.3,2.4-3.1,2.9a36.5,36.5,0,0,0,4.1,6.4Zm466-165.1c-.2-.9-.3-1.7-.5-2.6l-9,1.1,2,5.6ZM1913.9,845l1.8.2.6-4.2-1.9-.3Z" fill="#1e1e1e"/><path d="M1797.3,696.3c7.7,0,15.3,0,22.9-.2,3.2-.1,4.7,1,5.1,4-1.7,1-3.3,2.6-5,2.9s-6.5.1-10.1.1c8.9,13.3,9.4,16,6.1,28.1-.4,3.8.7,8.7-5.3,8.9l-56.8.9c-4.4.1-7.5-1.7-7-6.8.1-7.9,0-15.7.1-23.5.1-5.9.7-6.5,6.7-6.5h40.8a51.2,51.2,0,0,0,5.9-.8Z" fill="#dfdfdf"/><path d="M1627.8,740.3c-.1-4.3-2.7-5.4-6.6-5-1.6.1-3.2-.2-4.9-.2l21-25.9c3.8-5.8,9.4-6.4,15.6-6.1,9.1.3,18.3,0,27.4,0h0c.8,1.7,1.6,3.6,2.5,5.3,6.1,10.6,12.3,21.1,18.5,31.6h-73.5Z" fill="#d8d8d8"/><path d="M1848.2,886.1c-22.2,0-41-18.8-40.9-41.2s18.9-40.8,41.3-40.7,40.7,18.8,40.7,40.9S1870.5,886.2,1848.2,886.1Zm29.1-19a29.2,29.2,0,0,1,1.7-3.6c8.9-16.6,6.6-31.7-6.7-44.9s-43.7-13.1-56,10.1c-7.1,13.5-4.3,26.1,3,38.4,5.1,9.3,13.3,14,23.5,15.7C1856.8,885.1,1871.7,878.3,1877.3,867.1Z" fill="#343434"/><path d="M1478.3,804.2a41.3,41.3,0,0,1,41,41c0,22.2-19,41-41.3,40.9s-40.8-18.9-40.7-41.3S1456.3,804.2,1478.3,804.2Zm29,62.9,1.7-3.6c9-16.5,6.8-31.9-6.7-44.8-11.1-10.6-24.2-12.1-38-6.8s-21.6,17.8-22.1,31.6c-.3,8.9,3.5,16.1,7.1,23.6,2.2,2.7,4,5.7,6.5,8C1471.1,888.8,1498.7,884.5,1507.3,867.1Z" fill="#343434"/><path d="M1651.3,858.2h-69c-1.5,0-3.1.3-4.4-.2s-2.8-2-4.2-3.1a21.9,21.9,0,0,1,4.1-2.6c1-.4,2.3-.1,3.5-.1,46.6,0,93.3-.1,139.9,0,2.8,0,7.6-1.7,7.4,3.2s-4.6,2.7-7.3,2.7Z" fill="#343434"/><path d="M1816.3,731.2c3.3-12.1,2.8-14.8-6.1-28.1,3.6,0,6.9.4,10.1-.1s3.3-1.9,5-2.9l19.9,43.9h-20.9C1821.6,739.7,1819,735.4,1816.3,731.2Z" fill="#d5d5d5"/><path d="M1797.3,696.3l3.4,7a51.2,51.2,0,0,1-5.9.8H1754c-6,0-6.6.6-6.7,6.5-.1,7.8,0,15.6-.1,23.5-3.9-6.4-7.8-12.7-11.8-19V696.3Z" fill="#d2d2d2"/><path d="M1721.3,696.3h3l4.8,5.8V744h-25.8l-2-3.8h0c9,.1,9,.1,9-9.1v-7.9c0-3.9,2.1-6.5,5.9-6.6s6.5-2.9,6.1-7.4a58,58,0,0,1,0-5.9C1721.9,700.9,1721.6,698.6,1721.3,696.3Z" fill="#cbcbcb"/><path d="M1637.3,709.2l-21,25.9c-4.2.6-8.7.4-12.5,2s-6.3,4.9-9.3,7.5l-1.2-1.4,33-38Z" fill="#c4c4c4"/><path d="M1551.2,741l45-40.9,5.7.8-6.6,9.2c-7.8,8.1-16.3,15.7-23.3,24.5S1559,741.8,1551.2,741Z" fill="#d8d8d8"/><path d="M1735.4,715.2c4,6.3,7.9,12.6,11.8,19-.5,5.1,2.6,6.9,7,6.8l56.8-.9c6-.2,4.9-5.1,5.3-8.9,2.7,4.2,5.3,8.5,8,12.8h-77l-11.8-19.8Z" fill="#cacaca"/><path d="M1637.3,709.2l-11-4a82.9,82.9,0,0,1,6.1-7.2,6.7,6.7,0,0,1,4.2-1.8h39.7c1.3,2.3,2.6,4.6,4,6.8-9.1,0-18.3.3-27.4,0C1646.7,702.8,1641.1,703.4,1637.3,709.2Z" fill="#cfcfcf"/><path d="M1680.3,703.1c-1.4-2.2-2.7-4.5-4-6.8h45c.3,2.3.6,4.6,1,6.9h-42Z" fill="#d8d8d8"/><path d="M1701.3,740.2l2,3.8-71.8.2c-2.9,0-3.9-1.2-3.7-3.9Z" fill="#c3c3c3"/><path d="M1759.8,852.2c6.1,0,12.3-.2,18.5.1,1.5.1,3,1.7,4.6,2.6-1.6,1.1-3.1,3.1-4.7,3.1-12.6.2-25.3.2-37.9,0-1.6,0-3.1-1.7-4.6-2.6,1.5-1.1,3-3,4.6-3.1C1746.8,852,1753.3,852.2,1759.8,852.2Z" fill="#343434"/><path d="M1551.2,741c7.8.8,14.9,1.1,20.8-6.4s15.5-16.4,23.3-24.5l1.8,1c-9.5,10.4-19,20.8-28.6,31.1a7.4,7.4,0,0,1-4.3,1.9c-4.9.2-9.9,0-14.8,0l-1.9-2Z" fill="#c2c2c2"/><path d="M1420.4,784.2c3.9-8.8,8.9-16.5,18.8-21.3-.2,8.2-3.5,14-7.8,19.5-.5-1.5-1-2.9-1.6-4.4-1.5.7-3.3,1-4.7,2A30.8,30.8,0,0,0,1420.4,784.2Z" fill="#dbdbdb"/><path d="M1555.4,858a58.7,58.7,0,0,1-8.4-.1c-1.3-.2-2.2-1.9-3.3-2.9,1-.9,1.9-2.5,3-2.6,5.8-.2,11.6-.2,17.4.1,1,0,1.9,1.8,2.8,2.8-1,.9-1.9,2.4-3,2.6a60.3,60.3,0,0,1-8.5.1Z" fill="#343434"/><path d="M1420.4,784.2a30.8,30.8,0,0,1,4.7-4.2c1.4-1,3.2-1.3,4.7-2,.6,1.5,1.1,2.9,1.6,4.4-3.1,5.6-7.2,10.1-13,12.8l-1.7-.8C1417.9,791,1419.1,787.6,1420.4,784.2Z" fill="#f2f2f2"/><path d="M1735.5,724.2l11.8,19.8h-11.8Z" fill="#d4d4d4"/><path d="M1537.3,765.1c1.2-3.3,3.5-4.3,7-4s8.9-.1,13.4.1,5.5,3.1,2.7,7a87.1,87.1,0,0,0-8.5-2C1547.1,765.7,1542.2,765.5,1537.3,765.1Z" fill="#fafafa"/><path d="M1597.1,711.1l-1.8-1,6.6-9.2-5.7-.8c4.6-4.6,4.6-4.6,14.8-3.5Z" fill="#cdcdcd"/><path d="M1537.3,765.1c4.9.4,9.8.6,14.6,1.1a87.1,87.1,0,0,1,8.5,2l-26.1,1.5Z" fill="#d7d7d7"/><path d="M1830.2,673.2c3.2-2.8,12.2-3,16.2-.3C1843.5,676,1833.8,676.2,1830.2,673.2Z" fill="#343434"/><path d="M1414.1,852.8l-5,5a36.5,36.5,0,0,1-4.1-6.4c-.2-.5,2.4-3.1,3.1-2.9S1411.5,850.8,1414.1,852.8Z" fill="#333"/><path d="M1905.1,764c.7,7.2,1.5,14.4,1.9,21.6.1,1-1.5,2.1-2.4,3.1l-3.3-3.6h1c1-1.7,2.7-3.3,2.8-5.1.3-5.4,0-10.8-.1-16.2Z" fill="#313131"/><path d="M1913.9,845l.5-4.3,1.9.3-.6,4.2Z" fill="#333"/><path d="M1729.1,702.1l-4.8-5.8h4.8Z" fill="#d8d8d8"/><path d="M1902.3,785.2h-1c0-5.6.1-11.3.1-17h1C1902.3,773.9,1902.3,779.5,1902.3,785.2Z" fill="#ababab"/><path d="M1902.4,768.2h-1a19.3,19.3,0,0,1-.1-3.4,17.8,17.8,0,0,1,1.2-2.9l2.6,2.2h-.1Z" fill="#ececec"/><path d="M1704.3,762h1c2,.9,5.5,1.7,5.6,2.9.4,3.9-3.3,2.9-5.6,3.3h-18c-.8,0-1.8.2-2.4-.2a26.6,26.6,0,0,1-3.5-3.2,17.7,17.7,0,0,1,3.5-2.6c.9-.5,2.2-.3,3.3-.3Z" fill="#1f1f1f"/><path d="M1816.6,756.3h7.3c7.3,3.2,10.3,8.7,9.2,16.5-2.6,5.5-6.3,9.3-12.8,9.3s-10.3-3.8-12.9-9.3C1806.4,765,1809.4,759.5,1816.6,756.3Zm8.6,16c-1.9-1-5.6-2.2-5.6-3.1.6-5.4,5.7-1.7,8.6-3.8-1.8-3.8-4.9-5.8-9-5.1s-7.6,3.8-7.8,8.8,3,8.1,7.7,8.9,7.3-1.2,9.1-5.2c-.5-.2-.7-.5-1-.5Z" fill="#202020"/><path d="M1726.3,754.3h-80c-6,0-12,.2-18,.3-.5,4.7-3.1,6.3-7.7,5.7a41.7,41.7,0,0,0-7.9,0,17.8,17.8,0,0,1-14.3-5.3h0l-12.1-.6c-1.7.9-4.1,1.2-5,2.6-6.1,8.8-7.7,18.8-7.8,29.2v59.7h155.6V788.1c.1-10.3.1-20.5.2-30.8C1729.3,755,1728.8,753.7,1726.3,754.3Zm-21,14h-18c-.8,0-1.8.2-2.4-.2a26.6,26.6,0,0,1-3.5-3.2,17.7,17.7,0,0,1,3.5-2.6c.9-.5,2.2-.3,3.3-.3h17.1c2,.9,5.5,1.7,5.6,2.9C1711.3,768.9,1707.6,767.9,1705.3,768.3Z" fill="#fff"/><path d="M1897.3,782.9c0-4-.2-8,0-12s.9-9.2,1.4-14.8l-8.4-1.8h-152c-2.5-.6-3.1.7-3,2.9.1,10,.1,20,.2,29.9v58.7h47.4c.3-2.7.5-5,.8-7.3,2.4-16.5,10.6-29.9,22.7-41l.9-.4q36.5-26.6,75.6-4.3a8.7,8.7,0,0,0,3.2,1.3c6.6.1,13.2,0,19.7,0C1897.9,792.3,1897.3,791.5,1897.3,782.9Zm-64.2-10.1h0c-2.6,5.5-6.3,9.3-12.8,9.3s-10.3-3.8-12.9-9.3c-1-7.8,2-13.3,9.2-16.5h7.3C1831.2,759.5,1834.2,765,1833.1,772.8Z" fill="#fff"/><path d="M1837.1,696.2c-5.5,0-6,.9-3.9,5.8,4.7,10.9,9.9,21.5,14.2,32.5,2.8,7.5,7,10.7,15.2,9.8s14.2-.1,21.6-.1c0-1.9.2-2.5,0-2.9-6.6-14-13.1-28-20-41.9-.9-1.7-4-3-6.1-3.1C1851.1,695.9,1844.1,696.1,1837.1,696.2Z" fill="#fff"/><path d="M1857.6,689.5c.1-.6.3-1.3.4-1.9-3.4-.8-6.8-2.3-10.1-2.3q-112.8-.3-225.5,0c-4.4,0-8.9,1.8-13.3,2.7a8.3,8.3,0,0,0,.4,1.5Z" fill="#fff"/><path d="M1535.6,756.2a10.6,10.6,0,0,0,.4-1.9c-1.4,0-2.9-.2-4.4-.1-21.9,1.5-43.7,2.8-65.6,4.5-6.9.5-13.8,1.7-20.7,2.7l1.4.4-1.4-.4c-.6.5-1.7,1-1.9,1.7-1.5,5.2-2.9,10.5-4.3,15.8l1.7.8-1.7-.8c-4.9,5.8-9.5,11.9-14.7,17.4-2.2,2.4-6.1,4.5-8.8,1.7s-2.1-5.8-1.5-8.5c.8-4.3,2.9-8.4,4.5-12.5-6.8,6.9-9.7,15.2-10,25.2,6.7,0,13,.2,19.2-.2a11,11,0,0,0,6.5-2.6c12.2-10.4,26.1-16.1,42.3-16.5,12.2-.2,23.3,2.8,34.3,8.7l7.2-10.5Z" fill="#fff"/><path d="M1572.3,754.3h-24l-4.7,1.4a8.8,8.8,0,0,1,.5,1.5h11.4c9.3,0,12.3,4,9.6,12.8-3,1.1-6,2.8-9.1,3-6.9.5-14-.1-20.9.3-2,.1-3.8,1.9-5.7,3-3.9,5.3-7.8,10.7-11.5,16.2-.6.8.1,2.5.2,3.8,12.3,10.7,20.9,23.6,23.8,39.8.5,3.3.8,6.5,1.3,9.7h23.9V786.1c.8-10.9,2.3-21.7,8.3-31.8Z" fill="#fff"/><path d="M1589.8,738c8.4-9.7,16.8-19.3,25.1-29.1,3.2-3.8,6.2-7.7,9.4-11.6a12.9,12.9,0,0,1-1.6-1.7c-2.3,1.5-5,2.6-6.8,4.6-9.8,10.2-19.4,20.5-28.9,30.9-3.6,3.8-6.9,7.9-10.7,12.1C1583,745.9,1586.5,741.8,1589.8,738Z" fill="#fff"/><path d="M1613.5,741.2c-6.5.1-10.7,2.6-10.9,6.5s4,6.4,10.9,6.5c3.4-.3,7.8,1.1,7.9-5.1S1620.9,741.1,1613.5,741.2Z" fill="#fff"/><path d="M1405.8,808.3c-1.6.1-3.2,1.7-4.8,2.7l-3.5,4.1c1.3,6.4,2.6,12.7,3.8,19.1,1.6,8.4,1.6,8.5,10.1,7.9a15.6,15.6,0,0,0,1.7-.7c1.1-10.8,5-20.8,10.7-30.2l1.9-3C1418.6,808.2,1412.2,808,1405.8,808.3Z" fill="#fff"/><path d="M1916.3,804.3h-19.8l2.7,2.9c4,8.2,7.9,16.4,12.1,24.5a5.1,5.1,0,0,0,3.9,2.2c1,0,2.7-1.7,2.9-2.9.8-7.2,1.4-14.5,2-21.8C1920.5,806.2,1919.3,804.5,1916.3,804.3Z" fill="#fff"/><path d="M1880.1,687.7c-.2-.9-.3-1.7-.5-2.6l-9,1.1,2,5.6Z" fill="#fff"/><path d="M1680.3,703.2h42a58,58,0,0,0,0,5.9c.4,4.5-.9,7.2-6.1,7.4s-5.9,2.7-5.9,6.6V731c0,9.2,0,9.2-9,9.1-6.2-10.5-12.4-21-18.5-31.6C1681.9,706.8,1681.1,704.9,1680.3,703.2Z" fill="#e3e3e3"/><path d="M1819.3,867.1c-7.3-12.3-10.1-24.9-3-38.4,12.3-23.2,41.2-24.7,56-10.1s15.6,28.3,6.7,44.9a29.2,29.2,0,0,0-1.7,3.6l-3.7,3.4c-10.5,10.3-23.1,13.5-36.7,8.4C1830.4,876.5,1825.1,871.1,1819.3,867.1Zm52.9-29.2c2-1,5.1-1.1,3.4-4.9s-3.6-1.7-5.6-.9-2.6,1.3-3.9,1.9l-8.3,3.3,2.8,5.7Zm-34.2-8.7c.8,2.1,1.6,4.2,2.5,6.4l5.7-2.8c-.8-1.6-1.4-3.1-2.1-4.6s-2.2-6-3.8-8.6c-.6-1.1-2.7-1.2-4.1-1.8-.5,1.4-1.7,3-1.4,4.2S1836.9,826.8,1838,829.2Zm20.5,0c1.1-2.4,2.6-4.7,3.3-7.2s-.9-2.8-1.4-4.2c-1.5.6-3.6.7-4.2,1.8-1.6,2.6-2.5,5.7-3.7,8.6s-1.4,3.1-2.1,4.8l5.8,2.5C1857.1,833.2,1857.8,831.2,1858.5,829.2Zm-34.3,9.1,11.7,5.3c1-2.3,1.6-3.9,2.4-6l-8.9-3.5c-1-.5-2-1.2-3-1.6s-4.2-2.6-5.6.9S1821.7,837.6,1824.2,838.3Zm37,29.9c-1.7-4.3-3.5-8.5-5.4-13.2l-6,2.6,5.6,12.6c.1,2.9,1.6,3.7,4.2,2.7S1863.1,870.6,1861.2,868.2Zm-20.1,1.9c1.9-4.1,3.7-8.2,5.7-12.6l-6.1-2.4c-1.8,4.6-3.6,8.8-5.3,13.1-1.4,1.9-1.6,3.3,1,4.5S1840.5,872.7,1841.1,870.1Zm-19.8-17c0,1.8,0,3.5.1,5.2l3.8-.2,13.1-5.8c-1-2.2-1.7-3.8-2.6-5.6Zm52-.1-12.7-5.9c-1,2.2-1.7,3.9-2.6,6l13.1,5.4c2.2,1.7,3.6,1.4,4.7-1.3S1876.1,853.2,1873.3,853Zm-18.1-4.2c-.3-2.8.3-6.1-.9-8.3s-5.9-4.2-9.6-2.3-4.9,6.2-3.3,10.6C1845.7,854.7,1850.9,854.6,1855.2,848.8Zm-3.2,26,.9-1.2c-1.6-1.5-3.1-4.1-4.7-4.1s-3,2.7-4.5,4.2l.9,1.1Zm-22.8-5.7,2.4-.9c-.3-2.1.1-4.8-1.1-6.1s-3.7.2-6.7.6Zm42.7-4.6-.9-2.2-6,.5c.3,1.9.5,3.9.9,6.9Zm1.1-22.1c-1.3,5.6-1.3,5.6,5.1,7.3,0-1.8.1-3.5.1-4Zm-54,6.9c3.1-1.2,6.8-1.5,4.2-7.3C1822.2,845.3,1816.2,843.5,1819,849.3Z" fill="#1f1f1f"/><path d="M1819.3,867.1c5.8,4,11.1,9.4,17.6,11.8,13.6,5.1,26.2,1.9,36.7-8.4l3.7-3.4c-5.6,11.2-20.5,18-34.5,15.7C1832.6,881.1,1824.4,876.4,1819.3,867.1Z" fill="#5c5c5c"/><path d="M1449.3,867.1c-3.6-7.5-7.4-14.7-7.1-23.6.5-13.8,8.7-26.6,22.1-31.6s26.9-3.8,38,6.8c13.5,12.9,15.7,28.3,6.7,44.8l-1.7,3.6-3.7,3.4c-10.4,10.2-22.5,12.7-36.4,8.9C1459.8,877.3,1454.7,872.1,1449.3,867.1Zm46.9-33-8.4,3.2,2.8,5.7,9.9-4.6,5.7-2.4c-.4-4.5-2-6.3-6.1-4Zm-28.2-4.7,2.4,6.1,5.8-2.6-2.1-4.7c-1-2.6-2.1-5.2-3.2-7.7s-1.5-4-4.5-2.8-2.5,2.9-1.5,5S1467,827.2,1468,829.4Zm14.5-1.2c-.7,1.6-1.4,3.1-2.1,4.8l5.7,2.4c.7-1.9,1.4-3.6,2.1-5.2s2.8-5.4,3.6-8.2c.3-1.2-.9-2.8-1.5-4.2-1.4.6-3.5.7-4.1,1.8C1484.6,822.2,1483.7,825.3,1482.5,828.2Zm2.6,41c1.8,5.2,2.4,5.4,7.4,1.5-.6-1.2-1.2-2.5-1.9-3.8l-4.9-11.8-5.6,2.4a29.2,29.2,0,0,0,1.1,3.2Zm-19.1-2.3c-.7,1.4-1.3,2.9-2,4.3,3.8,2.5,6.7,3.6,7.5-2,1.7-3.8,3.4-7.7,5.3-11.8l-6.1-2.3Zm-12.7-28.8,12.6,5.6,2.5-6.1-11.1-4.4-5.2-2.4C1450.7,834,1448.2,836.6,1453.3,838.1Zm-2,15c0,1.7,0,3.5.1,5.2l3.9-.2,13-5.9-2.6-5.6Zm49,5,4.9,2.3c-.6-3.2,4.3-6.1-1.8-7.4l-12.9-5.9-2.5,6Zm-15.1-9.3c-.2-2.7.5-5.8-.6-7.9s-5.5-4.6-9.4-2.9-5.3,5.1-3.8,10.8C1475.7,854.6,1480.8,854.7,1485.2,848.8Zm-11.5,24.9.9,1.1h7.4l.9-1.2c-1.6-1.5-3.1-4.1-4.7-4S1475.2,872.2,1473.7,873.7Zm-18.3-11.9-.7,1.6,4.9,5.4,1.8-.3c0-2,.7-4.7-.3-5.8S1457.4,862,1455.4,861.8Zm52.6-12c.1-2.3.2-4,.2-5.2l-5.4-2.3C1501.1,847,1503.2,849,1508,849.8Zm-12.7,18.6,1.5.3,4.9-4.5-.3-1.5-6.1-.3Zm-41.6-25.6-5.5,1.2c.1,1.4.2,3.2.3,5.2C1452.3,848.4,1455.4,847.7,1453.7,842.8Z" fill="#1f1f1f"/><path d="M1449.3,867.1c5.4,5,10.5,10.2,17.9,12.3,13.9,3.8,26,1.3,36.4-8.9l3.7-3.4c-8.6,17.4-36.2,21.7-51.5,8C1453.3,872.8,1451.5,869.8,1449.3,867.1Z" fill="#5c5c5c"/><path d="M1902.4,768.2l2.6-4.3c.1,5.4.4,10.8.1,16.2-.1,1.8-1.8,3.4-2.8,5.1C1902.3,779.5,1902.3,773.9,1902.4,768.2Z" fill="#464646"/><path d="M1811.4,769.1c.2-5,3-8,7.8-8.8s7.2,1.3,9,5.1c-2.9,2.1-8-1.6-8.6,3.8,0,.9,3.7,2.1,5.6,3.1C1819.5,776.2,1815.4,772.8,1811.4,769.1Z" fill="#f4f4f4"/><path d="M1811.4,769.1c4,3.7,8.1,7.1,13.8,3.2h2c.3,0,.5.3,1,.5-1.8,4-5,5.9-9.1,5.2S1811.6,774.2,1811.4,769.1Z" fill="#dadada"/><path d="M1841.4,848.8c-1.6-4.4-1.1-8.2,3.3-10.6s7.6-1.2,9.6,2.3.6,5.5.9,8.3C1849.9,845.2,1846.7,845.2,1841.4,848.8Zm5.3-8-1.8-1.7-2.5,2.9a12.9,12.9,0,0,0,1.7,1.6Z" fill="#787878"/><path d="M1871.1,858.5l-13.1-5.4c.9-2.1,1.6-3.8,2.6-6l12.7,5.9Z" fill="#d4d4d4"/><path d="M1821.3,853.1l14.4-6.4c.9,1.8,1.6,3.4,2.6,5.6l-13.1,5.8Z" fill="#d5d5d5"/><path d="M1835.4,868.2c1.7-4.3,3.5-8.5,5.3-13.1l6.1,2.4c-2,4.4-3.8,8.5-5.7,12.6Z" fill="#d5d5d5"/><path d="M1855.4,870.2l-5.6-12.6,6-2.6c1.9,4.7,3.7,8.9,5.4,13.2Z" fill="#d5d5d5"/><path d="M1829.4,834.1l8.9,3.5c-.8,2.1-1.4,3.7-2.4,6l-11.7-5.3Z" fill="#d4d4d4"/><path d="M1852.5,828.2c1.2-2.9,2.1-6,3.7-8.6.6-1.1,2.7-1.2,4.2-1.8.5,1.4,1.7,3,1.4,4.2s-2.2,4.8-3.3,7.2Z" fill="#acacac"/><path d="M1838,829.2c-1.1-2.4-2.6-4.7-3.2-7.2s.9-2.8,1.4-4.2c1.4.6,3.5.7,4.1,1.8,1.6,2.6,2.6,5.7,3.8,8.6Z" fill="#acacac"/><path d="M1841.4,848.8c5.3-3.6,8.5-3.6,13.8,0C1850.9,854.6,1845.7,854.7,1841.4,848.8Z" fill="#414141"/><path d="M1872.2,837.9l-11.6,5.1-2.8-5.7,8.3-3.3Z" fill="#d4d4d4"/><path d="M1852.5,828.2l6,1c-.7,2-1.4,4-2.3,6.3l-5.8-2.5C1851.1,831.3,1851.8,829.8,1852.5,828.2Z" fill="#d1d1d1"/><path d="M1838,829.2l6.1-1c.7,1.5,1.3,3,2.1,4.6l-5.7,2.8C1839.6,833.4,1838.8,831.3,1838,829.2Z" fill="#d1d1d1"/><path d="M1852,874.8h-7.4l-.9-1.1c1.5-1.5,3-4.1,4.5-4.2s3.1,2.6,4.7,4.1Z" fill="#eaeaea"/><path d="M1872.2,837.9l-6.1-3.9c1.3-.6,2.6-1.4,3.9-1.9s4.1-2.7,5.6.9S1874.2,836.9,1872.2,837.9Z" fill="#aaa"/><path d="M1829.2,869.1l-5.4-6.4c3-.4,6-1.4,6.7-.6s.8,4,1.1,6.1Z" fill="#e8e8e8"/><path d="M1829.4,834.1l-5.2,4.2c-2.5-.7-4.9-1.3-3.4-4.9s3.6-1.6,5.6-.9S1828.4,833.6,1829.4,834.1Z" fill="#ababab"/><path d="M1871.9,864.5l-6,5.2c-.4-3-.6-5-.9-6.9l6-.5Z" fill="#eaeaea"/><path d="M1873,842.4l5.2,3.3c0,.5-.1,2.2-.1,4C1871.7,848,1871.7,848,1873,842.4Z" fill="#cfcfcf"/><path d="M1819,849.3c-2.8-5.8,3.2-4,4.2-7.3C1825.8,847.8,1822.1,848.1,1819,849.3Z" fill="#cecece"/><path d="M1855.4,870.2l5.8-2c1.9,2.4,1.1,3.8-1.6,4.7S1855.5,873.1,1855.4,870.2Z" fill="#f4f4f4"/><path d="M1835.4,868.2l5.7,1.9c-.6,2.6-1.6,4.1-4.7,2.6S1834,870.1,1835.4,868.2Z" fill="#f4f4f4"/><path d="M1871.1,858.5l2.2-5.5c2.8.2,3.6,1.5,2.5,4.2S1873.3,860.2,1871.1,858.5Z" fill="#f1f1f1"/><path d="M1821.3,853.1l3.9,5-3.8.2C1821.3,856.6,1821.3,854.9,1821.3,853.1Z" fill="#f3f3f3"/><path d="M1471.4,848.8c-1.5-5.7-.4-9,3.8-10.8s7.5-.7,9.4,2.9.4,5.2.6,7.9C1479.9,845.2,1476.7,845.2,1471.4,848.8Zm4.9-7.5-1.3-1.1c-.8,1-1.7,1.9-2.6,2.9l1.2,1.1Z" fill="#787878"/><path d="M1500.3,858.1l-12.3-5,2.5-6,12.9,5.9C1502.3,854.7,1501.3,856.4,1500.3,858.1Z" fill="#d5d5d5"/><path d="M1451.3,853.1l14.4-6.5,2.6,5.6-13,5.9Z" fill="#d5d5d5"/><path d="M1457.3,833.2l11.1,4.4-2.5,6.1-12.6-5.6C1454.6,836.5,1456,834.9,1457.3,833.2Z" fill="#d5d5d5"/><path d="M1466,866.9l4.7-11.8,6.1,2.3c-1.9,4.1-3.6,8-5.3,11.8Z" fill="#d5d5d5"/><path d="M1485.1,869.2l-3.9-8.5a29.2,29.2,0,0,1-1.1-3.2l5.6-2.4,4.9,11.8Z" fill="#d5d5d5"/><path d="M1482.5,828.2c1.2-2.9,2.1-6,3.7-8.6.6-1.1,2.7-1.2,4.1-1.8.6,1.4,1.8,3,1.5,4.2-.8,2.8-2.4,5.5-3.6,8.2Z" fill="#aeaeae"/><path d="M1471.4,848.8c5.3-3.6,8.5-3.6,13.8,0C1480.8,854.7,1475.7,854.6,1471.4,848.8Z" fill="#414141"/><path d="M1468,829.4c-1-2.2-2-4.5-3.1-6.7s-1.5-3.8,1.5-5,3.7.8,4.5,2.8,2.2,5.1,3.2,7.7Z" fill="#adadad"/><path d="M1500.5,838.4l-9.9,4.6-2.8-5.7,8.4-3.2Z" fill="#d4d4d4"/><path d="M1500.5,838.4l-4.3-4.3,3.9-2.1c4.1-2.3,5.7-.5,6.1,4Z" fill="#acacac"/><path d="M1468,829.4l6.1-1.2,2.1,4.7-5.8,2.6Z" fill="#d3d3d3"/><path d="M1473.7,873.7c1.5-1.5,3-4.1,4.5-4.1s3.1,2.5,4.7,4l-.9,1.2h-7.4Z" fill="#efefef"/><path d="M1455.4,861.8c2,.2,4.7-.3,5.7.9s.3,3.8.3,5.8l-1.8.3-4.9-5.4Z" fill="#ededed"/><path d="M1482.5,828.2l5.7,2c-.7,1.6-1.4,3.3-2.1,5.2l-5.7-2.4C1481.1,831.3,1481.8,829.8,1482.5,828.2Z" fill="#d2d2d2"/><path d="M1508,849.8c-4.8-.8-6.9-2.8-5.2-7.5l5.4,2.3C1508.2,845.8,1508.1,847.5,1508,849.8Z" fill="#cacaca"/><path d="M1495.3,868.4v-6l6.1.3.3,1.5-4.9,4.5Z" fill="#ededed"/><path d="M1485.1,869.2l5.5-2.3c.7,1.3,1.3,2.6,1.9,3.8C1487.5,874.6,1486.9,874.4,1485.1,869.2Z" fill="#f5f5f5"/><path d="M1453.7,842.8c1.7,4.9-1.4,5.6-5.2,6.4-.1-2-.2-3.8-.3-5.2Z" fill="#d1d1d1"/><path d="M1466,866.9l5.5,2.3c-.8,5.6-3.7,4.5-7.5,2C1464.7,869.8,1465.3,868.3,1466,866.9Z" fill="#f5f5f5"/><path d="M1457.3,833.2c-1.3,1.7-2.7,3.3-4,4.9-5.1-1.5-2.6-4.1-1.2-7.3Z" fill="#adadad"/><path d="M1500.3,858.1c1-1.7,2-3.4,3.1-5.1,6.1,1.3,1.2,4.2,1.8,7.4Z" fill="#f4f4f4"/><path d="M1451.3,853.1l4,5-3.9.2C1451.3,856.6,1451.3,854.8,1451.3,853.1Z" fill="#f4f4f4"/><path d="M1846.7,840.8l-2.6,2.8a12.9,12.9,0,0,1-1.7-1.6l2.5-2.9Z" fill="#f3f3f3"/><path d="M1476.3,841.3l-2.7,2.9-1.2-1.1c.9-1,1.8-1.9,2.6-2.9Z" fill="#f3f3f3"/><path d="M1023.8,665.7c.1-2-.3-3.8.4-4.8a35.1,35.1,0,0,1,5.1-5.1c.4-.3,1.3,0,1.9-.1,12.6-.1,12.6-.1,14.8-12.4,1.5-8.1,3-16.1,4.7-24,.3-1.6,1.9-2.9,2.9-4.3.3,1.7,1.1,3.4.8,4.9-2,11.6-4.3,23.2-6.5,35.2,5.9,1,6.8,5.1,6.1,10.6h7.3c10.5,0,21-.1,31.5.2,1.9,0,4.8,1.4,5.5,2.9s-.2,4.7-1.4,6.1c-4.9,5.7-10.1,11.2-15.4,16.5-2.1,2.2-2.7,3.9-1.2,6.9,5.5,11.2,10.7,22.5,16.3,33.7a11.8,11.8,0,0,0,5.1,4.8c10.4,5.2,16.1,13.3,16.4,24.9.1,7.4,0,14.9,0,22.3,12.1,5.1,14.1,8.9,12.5,21.6-1,8.3-1.7,16.6-2.5,24.9a31.1,31.1,0,0,1-.6,4.4c-2.2,11-9.3,15.3-19.8,11.4-1.5-.5-2.5-2.7-3.7-4.2s-1.3-2.2-2-3.3c-.8,1.3-2.1,2.4-2.2,3.7a50.9,50.9,0,0,1-12.7,27.2c-3.1,3.4-6.7,6.3-10.8,10h18.6c5.5.1,11.1-.3,16.5.3,1.7.1,3.1,2.6,4.6,4a37.4,37.4,0,0,1-4.5,3.6c-.9.5-2.3.1-3.5.1H622.2c-3.2,0-7.7,1.1-7.8-3.7s4.5-4.2,7.8-4.2H652c-3.7-3.3-7.3-5.5-9.5-8.6a160.3,160.3,0,0,1-12-20.4c-1.5-3.2-2.6-4.7-6.4-3.5a28.7,28.7,0,0,0-.5,3.1c-.4,7.4-1.3,8.4-8.5,8.4H595.6c-3.6,0-7.1-.3-7.4-4.8s3.1-5.3,6.8-5.3c.3,0,.6-.3,1.5-.7-1.6-8.1-3.2-16.3-4.9-24.6-1.2-6-2.3-12.1-3.7-18.1-.8-3.3-.2-5.9,2.7-7.8,6.1-4.1,8.8-9.7,10.6-16.9,5.6-22.8,22.4-34.3,43.9-38.6,14.1-2.8,28.7-3,43.2-4.2s26.9-1.7,40.3-3a14,14,0,0,0,7.8-3.3q31.4-28.1,62.4-56.2a35.5,35.5,0,0,1,25-9.6h200Zm78.5,93c-.1,5.7-.1,11.4-.2,17l3.3,3.6c.9-1,2.5-2.1,2.4-3.1-.4-7.3-1.2-14.4-1.9-21.6l-2.6-2.2a17.8,17.8,0,0,0-1.2,2.9A19.4,19.4,0,0,0,1102.3,758.7Zm7.8,36.2h-12.8l2.7,2.9c4,8.2,7.9,16.4,12.1,24.5a5.1,5.1,0,0,0,3.9,2.2c1,0,2.7-1.7,2.9-2.9.9-7.2,1.4-14.5,2-21.8.4-3-.8-4.7-3.8-4.9Zm-508.3,6.7-3.4,4.1c1.2,6.3,2.5,12.7,3.7,19.1,1.6,8.4,1.6,8.4,10.1,7.8a5.8,5.8,0,0,0,1.7-.6c1.1-10.9,5-20.8,10.7-30.2l1.9-3c-7.1,0-13.5-.2-19.9.1C605,799,603.4,800.6,601.8,801.6Zm159.4-42.8c2.8-3.9,1.8-6.7-2.7-7s-9,.2-13.4-.1-5.8.7-7,4l-3,4.6ZM632.2,773c4.3-5.5,7.6-11.3,7.8-19.6-9.9,4.9-14.9,12.6-18.8,21.3-1.2,3.5-2.5,6.9-3.7,10.3l1.7.8C625,783.1,629.1,778.6,632.2,773ZM798,701.7l13.8-14.5c-10.2-1.1-10.2-1.1-14.8,3.5l-45,40.9-3.7,1.1,1.9,2c4.9,0,9.9.2,14.9-.1a6.7,6.7,0,0,0,4.2-1.8C779,722.5,788.4,712.1,798,701.7Zm79.1-14.8c-13.2,0-26.5-.2-39.7-.1a6.7,6.7,0,0,0-4.2,1.8,70.3,70.3,0,0,0-6.1,7.2l-33,38,1.2,1.4c3.1-2.6,5.8-6,9.3-7.5s8.3-1.4,12.5-2c1.7,0,3.3.3,5,.2,3.8-.4,6.4.7,6.6,5-.3,2.7.7,3.9,3.6,3.9,23.9-.2,47.9-.2,71.8-.2h25.8V686.9H877.1Zm71,47.7h98l-20-43.9c-.4-3-1.9-4.1-5-4-7.7.2-15.3.2-23,.2H936.2v47.7ZM730.2,766.8c-3.9,5.4-7.8,10.8-11.5,16.3-.6.8.1,2.5.2,3.8,12.3,10.7,20.9,23.5,23.8,39.8.5,3.2.8,6.5,1.3,9.7h23.9V776.7c.8-10.9,2.3-21.7,8.3-31.8H749.1l-4.7,1.4.5,1.5h11.4c9.3,0,12.3,4,9.6,12.8-3,1-6,2.8-9.1,3-6.9.5-14-.1-20.9.3C734,764,732.1,765.8,730.2,766.8Zm6.2-20,.4-1.9c-1.4,0-2.9-.2-4.4-.1-21.9,1.5-43.7,2.8-65.6,4.5-6.9.5-13.8,1.7-20.6,2.7-.7.5-1.8,1-2,1.7-1.5,5.2-2.9,10.5-4.3,15.8-4.9,5.8-9.5,11.9-14.7,17.4-2.2,2.4-6.1,4.5-8.8,1.7s-2.1-5.8-1.5-8.5c.8-4.3,2.9-8.4,4.5-12.5-6.8,6.9-9.7,15.2-10,25.1,6.7,0,13,.3,19.2-.1a11,11,0,0,0,6.5-2.6c12.2-10.5,26.1-16.2,42.3-16.5,12.2-.2,23.3,2.8,34.3,8.7l7.2-10.5Zm199.9,30.9v58.7h47.4c.3-2.7.5-5,.8-7.3,2.4-16.5,10.6-29.9,22.7-41l.9-.4q36.5-26.6,75.7-4.3a6.3,6.3,0,0,0,3.1,1.2c6.6.2,13.2.1,19.7.1-7.9-1.9-8.5-2.6-8.5-11.3,0-3.9-.2-8,0-11.9s.9-9.2,1.4-14.8l-8.4-1.8h-152c-2.5-.6-3.1.7-3,2.9C936.2,757.8,936.2,767.8,936.3,777.7ZM787.1,744.9c-1.7.9-4.1,1.2-5,2.6-6.1,8.8-7.7,18.8-7.8,29.2v59.7H929.9V778.7c.1-10.3.1-20.6.2-30.8.1-2.3-.5-3.6-3-3h-80c-6,0-12,.2-18,.3-.5,4.7-3.1,6.3-7.7,5.7a41.7,41.7,0,0,0-7.9,0,17.8,17.8,0,0,1-14.3-5.3ZM705.9,879.4h316.3c-11.1-7.7-18.1-17-22.2-28.8-.4-1.2-3.4-1.5-5.5-2.4-1.4,10.5-1.4,10.5-11,10.5H742.1c-3.6,0-6.9.1-8.4-4.4-1-2.7-6-2.4-7.1.3C722.4,864.7,715.8,872.6,705.9,879.4ZM1085,734.7c0-1.8.2-2.4,0-2.8-6.6-14-13.1-28-20-41.9-.9-1.7-4-3-6.1-3.1-7-.4-14-.2-21-.1-5.5,0-6,.9-3.9,5.8,4.7,10.9,9.9,21.5,14.2,32.5,2.8,7.5,7,10.7,15.2,9.8S1077.6,734.7,1085,734.7ZM809.9,678.6l.4,1.5h248.1c.1-.6.3-1.3.4-1.9-3.4-.8-6.8-2.3-10.1-2.3q-112.8-.3-225.5,0C818.8,675.9,814.3,677.6,809.9,678.6ZM1049,876.7c22.3.1,41.1-18.8,41.1-41s-18.7-40.9-40.7-40.9-41.3,18.5-41.3,40.7S1026.8,876.7,1049,876.7ZM679.1,794.8c-22-.1-40.9,18.7-41,40.6s18.5,41.3,40.8,41.3,41.2-18.7,41.2-40.9A41.3,41.3,0,0,0,679.1,794.8Zm173,53.9h70c2.7,0,7.2,1.4,7.4-2.7s-4.7-3.2-7.5-3.2H782.1c-1.2,0-2.5-.3-3.5.1a25.7,25.7,0,0,0-4.1,2.6c1.4,1.1,2.6,2.5,4.2,3.1s3,.1,4.5.1Zm-75-114.9c6.7,2.7,10.2-1.4,13.5-5.2l25.1-29.1c3.2-3.8,6.2-7.7,9.4-11.6l-1.6-1.7c-2.3,1.5-4.9,2.6-6.8,4.6-9.8,10.2-19.3,20.5-28.9,30.9C784.2,725.5,780.9,729.6,777.1,733.8Zm183.5,109c-6.5,0-13-.2-19.5.1-1.6.1-3.1,2-4.6,3.1,1.5.9,3.1,2.6,4.6,2.6,12.7.2,25.3.2,37.9,0,1.6-.1,3.1-2,4.7-3.1-1.5-.9-3.1-2.5-4.6-2.6C972.9,842.6,966.8,842.8,960.6,842.8ZM814.3,744.7c3.4-.2,7.8,1.2,7.9-5s-.5-8-7.9-7.9-10.7,2.6-10.9,6.5S807.4,744.7,814.3,744.7ZM756.2,848.6h0a60.3,60.3,0,0,0,8.5-.1c1.1-.2,2-1.7,3-2.6-.9-1-1.8-2.8-2.8-2.8-5.8-.3-11.6-.3-17.4-.1-1.1.1-2,1.7-3,2.6,1.1,1,2,2.7,3.3,2.9A58.7,58.7,0,0,0,756.2,848.6ZM1031,663.8c3.6,3,13.3,2.8,16.2-.3C1043.2,660.8,1034.2,661,1031,663.8ZM614.9,843.4c-2.6-2-4.1-3.7-6-4.3s-3.3,2.4-3.1,2.9a36.5,36.5,0,0,0,4.1,6.4Zm466-165.1a23.8,23.8,0,0,0-.5-2.6l-9,1.1,2,5.6Zm33.8,157.3,1.8.2.6-4.2-1.9-.3Z" fill="#1e1e1e"/><path d="M998.1,686.9c7.7,0,15.3,0,23-.2,3.1-.1,4.6,1,5,4-1.7,1-3.3,2.6-5,2.9-3.2.5-6.5.1-10.1.1,8.9,13.3,9.4,16,6.1,28.1-.4,3.8.7,8.7-5.3,8.9l-56.8.9c-4.4.1-7.5-1.7-6.9-6.9,0-7.8-.1-15.6,0-23.4.1-5.9.7-6.5,6.7-6.5h40.8a51.2,51.2,0,0,0,5.9-.8Z" fill="#dfdfdf"/><path d="M828.7,730.9c-.2-4.3-2.8-5.4-6.6-5-1.7.1-3.3-.2-5-.2l21-26c3.8-5.7,9.4-6.3,15.6-6,9.1.3,18.3,0,27.4,0h0c.8,1.7,1.6,3.6,2.5,5.3l18.5,31.6H828.7Z" fill="#d8d8d8"/><path d="M1049,876.7c-22.2,0-41-18.8-40.9-41.2s18.9-40.8,41.3-40.7,40.7,18.8,40.7,40.9S1071.3,876.8,1049,876.7Zm29.1-19,1.7-3.6c9-16.6,6.6-31.7-6.7-44.9s-43.7-13.1-56,10.1c-7.1,13.4-4.3,26.1,3,38.4,5.1,9.3,13.3,14,23.5,15.7C1057.7,875.6,1072.5,868.9,1078.1,857.7Z" fill="#343434"/><path d="M679.1,794.8a41.3,41.3,0,0,1,41,41c0,22.2-18.9,41-41.2,40.9s-40.9-18.9-40.8-41.3S657.1,794.7,679.1,794.8Zm29,62.9,1.7-3.6c9-16.6,6.8-31.9-6.7-44.8-11.1-10.6-24.2-12.1-38-6.8s-21.6,17.8-22.1,31.6c-.3,8.8,3.5,16.1,7.1,23.6,2.2,2.7,4,5.7,6.5,8C671.9,879.4,699.5,875.1,708.1,857.7Z" fill="#343434"/><path d="M852.1,848.7H783.2c-1.5,0-3.2.4-4.5-.1s-2.8-2-4.2-3.1a25.7,25.7,0,0,1,4.1-2.6c1-.4,2.3-.1,3.5-.1H922c2.8,0,7.6-1.7,7.5,3.2s-4.7,2.7-7.4,2.7Z" fill="#343434"/><path d="M1017.1,721.8c3.3-12.1,2.8-14.8-6.1-28.1,3.6,0,6.9.4,10.1-.1,1.7-.3,3.3-1.9,5-2.9l20,43.9h-21C1022.4,730.3,1019.8,726,1017.1,721.8Z" fill="#d5d5d5"/><path d="M998.1,686.9l3.4,7a51.2,51.2,0,0,1-5.9.8H954.8c-6,0-6.6.6-6.7,6.5-.1,7.8,0,15.6,0,23.4l-11.9-18.9V686.9Z" fill="#d2d2d2"/><path d="M922.1,686.9h3l4.8,5.8v41.9H904.1l-2-3.8h0c9,.1,9,.1,9-9.1v-7.9c.1-3.9,2.1-6.5,5.9-6.6s6.5-2.9,6.1-7.4c-.2-2,0-4,0-6S922.4,689.2,922.1,686.9Z" fill="#cbcbcb"/><path d="M838.1,699.7l-21,26c-4.2.6-8.7.4-12.5,2s-6.2,4.9-9.3,7.5l-1.2-1.4,33-38Z" fill="#c4c4c4"/><path d="M752,731.6l45-40.9,5.7.8-6.6,9.2c-7.8,8.1-16.3,15.7-23.3,24.5S759.8,732.4,752,731.6Z" fill="#d8d8d8"/><path d="M936.2,705.8l11.9,18.9c-.6,5.2,2.5,7,6.9,6.9l56.8-.9c6-.2,4.9-5.1,5.3-8.9,2.7,4.2,5.3,8.5,8,12.8h-77l-11.8-19.8Z" fill="#cacaca"/><path d="M838.1,699.7l-11-3.9a70.3,70.3,0,0,1,6.1-7.2,6.7,6.7,0,0,1,4.2-1.8c13.2-.1,26.5.1,39.7.1l4,6.8c-9.1,0-18.3.3-27.4,0C847.5,693.4,841.9,694,838.1,699.7Z" fill="#cfcfcf"/><path d="M881.1,693.7l-4-6.8h45c.3,2.3.6,4.6,1,6.8h-42Z" fill="#d8d8d8"/><path d="M902.1,730.8l2,3.8c-23.9,0-47.9,0-71.8.2-2.9,0-3.9-1.2-3.6-3.9Z" fill="#c3c3c3"/><path d="M960.6,842.8c6.2,0,12.3-.2,18.5.1,1.5.1,3.1,1.7,4.6,2.6-1.6,1.1-3.1,3-4.7,3.1-12.6.2-25.2.2-37.9,0-1.5,0-3.1-1.7-4.6-2.6,1.5-1.1,3-3,4.6-3.1C947.6,842.6,954.1,842.8,960.6,842.8Z" fill="#343434"/><path d="M752,731.6c7.8.8,14.9,1.1,20.8-6.4s15.5-16.4,23.3-24.5l1.9,1c-9.6,10.4-19,20.8-28.7,31.1a6.7,6.7,0,0,1-4.2,1.8c-5,.3-10,.1-14.9.1l-1.9-2Z" fill="#c2c2c2"/><path d="M621.2,774.7c3.9-8.7,8.9-16.4,18.8-21.3-.2,8.3-3.5,14.1-7.8,19.6-.5-1.5-1-2.9-1.6-4.4a21.4,21.4,0,0,0-4.7,2A36.3,36.3,0,0,0,621.2,774.7Z" fill="#dbdbdb"/><path d="M756.2,848.6a58.7,58.7,0,0,1-8.4-.1c-1.3-.2-2.2-1.9-3.3-2.9,1-.9,1.9-2.5,3-2.6,5.8-.2,11.6-.2,17.4.1,1,0,1.9,1.8,2.8,2.8-1,.9-1.9,2.4-3,2.6a60.3,60.3,0,0,1-8.5.1Z" fill="#343434"/><path d="M621.2,774.7a36.3,36.3,0,0,1,4.7-4.1,21.4,21.4,0,0,1,4.7-2c.6,1.5,1.1,2.9,1.6,4.4-3.1,5.6-7.2,10.1-13,12.8l-1.7-.8C618.7,781.6,620,778.2,621.2,774.7Z" fill="#f2f2f2"/><path d="M936.3,714.8l11.8,19.8H936.3Z" fill="#d4d4d4"/><path d="M738.1,755.7c1.2-3.3,3.5-4.3,7-4s8.9-.1,13.4.1,5.5,3.1,2.7,7a80.8,80.8,0,0,0-8.5-2C747.9,756.3,743,756.1,738.1,755.7Z" fill="#fafafa"/><path d="M798,701.7l-1.9-1,6.6-9.2-5.7-.8c4.6-4.6,4.6-4.6,14.8-3.5Z" fill="#cdcdcd"/><path d="M738.1,755.7c4.9.4,9.8.6,14.6,1.1a80.8,80.8,0,0,1,8.5,2l-26.1,1.5Z" fill="#d7d7d7"/><path d="M1031,663.8c3.2-2.8,12.2-3,16.2-.3C1044.3,666.6,1034.6,666.8,1031,663.8Z" fill="#343434"/><path d="M614.9,843.4l-5,5a36.5,36.5,0,0,1-4.1-6.4c-.2-.5,2.5-3.1,3.1-2.9S612.3,841.4,614.9,843.4Z" fill="#333"/><path d="M1105.9,754.6c.7,7.2,1.5,14.3,1.9,21.6.1,1-1.5,2.1-2.4,3.1l-3.3-3.6h1c1-1.6,2.7-3.2,2.8-5,.3-5.4,0-10.8-.1-16.2Z" fill="#313131"/><path d="M1114.7,835.6l.5-4.3,1.9.3-.6,4.2Z" fill="#333"/><path d="M929.9,692.7l-4.8-5.8h4.8Z" fill="#d8d8d8"/><path d="M1103.1,775.7h-1c.1-5.6.1-11.3.2-17h.9C1103.1,764.5,1103.1,770.1,1103.1,775.7Z" fill="#ababab"/><path d="M1103.2,758.8h-.9a19.4,19.4,0,0,1-.2-3.4,17.8,17.8,0,0,1,1.2-2.9l2.6,2.2h-.1Z" fill="#ececec"/><path d="M905.1,752.6h1c2,.9,5.5,1.7,5.6,2.9.4,3.9-3.3,2.8-5.6,3.3h-18c-.8,0-1.8.2-2.4-.2a26.6,26.6,0,0,1-3.5-3.2,23.3,23.3,0,0,1,3.5-2.7,8.9,8.9,0,0,1,3.3-.2Z" fill="#1f1f1f"/><path d="M1017.4,746.9h7.4c7.2,3.2,10.2,8.7,9.1,16.5-2.5,5.5-6.3,9.3-12.8,9.3s-10.3-3.8-12.8-9.3C1007.2,755.6,1010.2,750.1,1017.4,746.9Zm8.6,16c-1.9-1-5.6-2.2-5.5-3.1.5-5.4,5.6-1.7,8.5-3.8-1.8-3.8-4.9-5.8-9-5.1s-7.6,3.7-7.8,8.8,3,8.1,7.7,8.9,7.3-1.2,9.1-5.2c-.5-.2-.7-.5-1-.5A13.4,13.4,0,0,0,1026,762.9Z" fill="#202020"/><path d="M927.1,744.9h-80c-6,0-12,.2-18,.3-.5,4.7-3.1,6.3-7.7,5.7a41.7,41.7,0,0,0-7.9,0,17.8,17.8,0,0,1-14.3-5.3h0l-12.1-.6c-1.7.9-4.1,1.2-5,2.6-6.1,8.8-7.7,18.8-7.8,29.2v59.7H929.9V778.7c.1-10.3.1-20.6.2-30.8C930.2,745.6,929.6,744.3,927.1,744.9Zm-21,14h-18c-.8,0-1.8.2-2.4-.2a26.6,26.6,0,0,1-3.5-3.2,23.3,23.3,0,0,1,3.5-2.7,8.9,8.9,0,0,1,3.3-.2h17.1c2,.9,5.5,1.7,5.6,2.9C912.1,759.5,908.4,758.4,906.1,758.9Z" fill="#1a3ad3"/><path d="M1098.1,773.4c0-3.9-.2-8,0-11.9s.9-9.2,1.4-14.8l-8.4-1.8h-152c-2.5-.6-3.1.7-3,2.9.1,10,.1,20,.2,29.9v58.7h47.4c.3-2.7.5-5,.8-7.3,2.4-16.5,10.6-29.9,22.7-41l.9-.4q36.5-26.6,75.7-4.3a6.3,6.3,0,0,0,3.1,1.2c6.6.2,13.2.1,19.7.1C1098.7,782.8,1098.1,782.1,1098.1,773.4Zm-64.2-10h0c-2.5,5.5-6.3,9.3-12.8,9.3s-10.3-3.8-12.8-9.3c-1.1-7.8,1.9-13.3,9.1-16.5h7.4C1032,750.1,1035,755.6,1033.9,763.4Z" fill="#1a3ad3"/><path d="M1037.9,686.8c-5.5,0-6,.9-3.9,5.8,4.7,10.9,9.9,21.5,14.2,32.5,2.8,7.5,7,10.7,15.2,9.8s14.2-.2,21.6-.2c0-1.8.2-2.4,0-2.8-6.6-14-13.1-28-20-41.9-.9-1.7-4-3-6.1-3.1C1051.9,686.5,1044.9,686.7,1037.9,686.8Z" fill="#1a3ad3"/><path d="M1058.4,680.1c.1-.6.3-1.3.4-1.9-3.4-.8-6.8-2.3-10.1-2.3q-112.8-.3-225.5,0c-4.4,0-8.9,1.7-13.3,2.7a8.3,8.3,0,0,0,.4,1.5Z" fill="#1a3ad3"/><path d="M736.4,746.8a10.6,10.6,0,0,0,.4-1.9c-1.4,0-2.9-.2-4.4-.1-21.9,1.5-43.7,2.8-65.6,4.5-6.9.5-13.8,1.7-20.6,2.7l1.3.4-1.3-.4c-.7.5-1.8,1-2,1.7-1.5,5.2-2.9,10.5-4.3,15.8l1.7.8-1.7-.8c-4.9,5.8-9.5,11.9-14.7,17.4-2.2,2.4-6.1,4.5-8.8,1.7s-2.1-5.8-1.5-8.5c.8-4.3,2.9-8.4,4.5-12.5-6.8,6.9-9.7,15.2-10,25.1,6.7,0,13,.3,19.2-.1a11,11,0,0,0,6.5-2.6c12.2-10.5,26.1-16.2,42.3-16.5,12.2-.2,23.3,2.8,34.3,8.7l7.2-10.5Z" fill="#1a3ad3"/><path d="M773.1,744.9h-24l-4.7,1.4a8.8,8.8,0,0,1,.5,1.5h11.4c9.3,0,12.3,4,9.6,12.8-3,1-6,2.8-9.1,3-6.9.5-14-.1-20.9.3-1.9.1-3.8,1.9-5.7,2.9-3.9,5.4-7.8,10.8-11.5,16.3-.6.8.1,2.5.2,3.8,12.3,10.7,20.9,23.5,23.8,39.8.5,3.2.8,6.5,1.3,9.7h23.9V776.7c.8-10.9,2.3-21.7,8.3-31.8Z" fill="#1a3ad3"/><path d="M790.6,728.6l25.1-29.1c3.2-3.8,6.2-7.7,9.4-11.6l-1.6-1.7c-2.3,1.5-4.9,2.6-6.8,4.6-9.8,10.2-19.3,20.5-28.9,30.9-3.6,3.8-6.9,7.9-10.7,12.1C783.8,736.5,787.3,732.4,790.6,728.6Z" fill="#1a3ad3"/><path d="M814.3,731.8c-6.5.1-10.7,2.6-10.9,6.5s4,6.4,10.9,6.4c3.4-.2,7.8,1.2,7.9-5S821.7,731.7,814.3,731.8Z" fill="#1a3ad3"/><path d="M606.6,798.9c-1.6.1-3.2,1.7-4.8,2.7s-2.3,2.7-3.4,4.1c1.2,6.3,2.5,12.7,3.7,19.1,1.6,8.4,1.6,8.4,10.1,7.8a5.8,5.8,0,0,0,1.7-.6c1.1-10.9,5-20.8,10.7-30.2l1.9-3C619.4,798.8,613,798.6,606.6,798.9Z" fill="#1a3ad3"/><path d="M1117.1,794.9h-19.8l2.7,2.9c4,8.2,7.9,16.4,12.1,24.5a5.1,5.1,0,0,0,3.9,2.2c1,0,2.7-1.7,2.9-2.9.9-7.2,1.4-14.5,2-21.8C1121.3,796.8,1120.1,795.1,1117.1,794.9Z" fill="#1a3ad3"/><path d="M1080.9,678.3a23.8,23.8,0,0,0-.5-2.6l-9,1.1,2,5.6Z" fill="#1a3ad3"/><path d="M881.1,693.8h42c0,2-.2,4,0,6,.4,4.5-.9,7.2-6.1,7.4s-5.8,2.7-5.9,6.6v7.9c0,9.2,0,9.2-9,9.1l-18.5-31.6C882.7,697.4,881.9,695.5,881.1,693.8Z" fill="#e3e3e3"/><path d="M1020.1,857.7c-7.3-12.3-10.1-25-3-38.4,12.3-23.2,41.2-24.7,56-10.1s15.7,28.3,6.7,44.9l-1.7,3.6-3.7,3.4c-10.5,10.3-23.1,13.5-36.7,8.4C1031.2,867.1,1025.9,861.7,1020.1,857.7Zm52.9-29.2c2-1,5.1-1.1,3.4-4.9s-3.6-1.7-5.6-.9-2.6,1.3-3.9,1.9l-8.3,3.3,2.8,5.7Zm-34.2-8.7c.8,2.1,1.7,4.2,2.5,6.4l5.7-2.8-2.1-4.6c-1.2-2.9-2.1-6-3.7-8.6s-2.7-1.2-4.2-1.8c-.5,1.4-1.7,3-1.4,4.2S1037.7,817.4,1038.8,819.8Zm20.5,0c1.1-2.4,2.6-4.7,3.3-7.2s-.9-2.8-1.4-4.2c-1.5.6-3.5.7-4.2,1.8s-2.5,5.7-3.7,8.6l-2.1,4.8,5.8,2.5C1057.9,823.8,1058.6,821.8,1059.3,819.8Zm-34.3,9.1,11.7,5.3c1-2.3,1.6-4,2.4-6l-8.9-3.5c-1-.5-2-1.2-3-1.6s-4.2-2.6-5.6.9S1022.5,828.2,1025,828.9Zm37,29.9c-1.7-4.3-3.5-8.5-5.4-13.2l-6,2.6,5.6,12.6c.1,2.9,1.6,3.6,4.2,2.7S1063.9,861.1,1062,858.8Zm-20,1.9c1.8-4.1,3.6-8.2,5.6-12.6l-6.1-2.4c-1.8,4.6-3.6,8.8-5.3,13.1-1.4,1.9-1.6,3.3,1,4.5S1041.3,863.3,1042,860.7Zm-19.9-17c0,1.7,0,3.5.1,5.2l3.9-.2,13.1-5.8c-1.1-2.2-1.8-3.8-2.7-5.7Zm52-.1-12.7-5.9c-1,2.2-1.7,3.9-2.6,6l13.1,5.4c2.2,1.7,3.6,1.4,4.7-1.3S1076.9,843.8,1074.1,843.6Zm-18.1-4.2c-.3-2.8.4-6.1-.9-8.3s-5.8-4.2-9.6-2.3-4.9,6.2-3.3,10.6C1046.5,845.2,1051.7,845.2,1056,839.4Zm-3.2,26,.9-1.2c-1.6-1.5-3.1-4.1-4.7-4.1s-3,2.7-4.5,4.2l.9,1.1Zm-22.7-5.7,2.3-.9c-.3-2.1.1-4.8-1.1-6.1s-3.7.2-6.7.5Zm42.6-4.6a14.3,14.3,0,0,1-.8-2.2l-6.1.5c.3,1.9.5,3.9.9,6.9Zm1.1-22.1c-1.2,5.6-1.2,5.6,5.1,7.3,0-1.8.1-3.5.1-4Zm-54,6.9c3.1-1.2,6.8-1.6,4.2-7.3C1023,835.9,1017,834.1,1019.8,839.9Z" fill="#1f1f1f"/><path d="M1020.1,857.7c5.8,4,11.1,9.4,17.6,11.8,13.6,5.1,26.2,1.9,36.7-8.4l3.7-3.4c-5.6,11.2-20.4,17.9-34.5,15.7C1033.4,871.7,1025.2,867,1020.1,857.7Z" fill="#5c5c5c"/><path d="M650.1,857.7c-3.6-7.5-7.4-14.8-7.1-23.6.5-13.8,8.7-26.6,22.1-31.6s26.9-3.8,38,6.8c13.5,12.9,15.7,28.2,6.7,44.8l-1.7,3.6-3.7,3.4C694,871.2,681.9,873.8,668,870,660.6,867.9,655.5,862.7,650.1,857.7Zm46.9-33-8.4,3.2c1.1,2.1,1.8,3.6,2.8,5.7l9.9-4.6,5.7-2.4c-.4-4.5-2-6.3-6.1-4C699.7,823.4,698.3,824,697,824.7ZM668.8,820l2.4,6.1,5.8-2.6-2.1-4.7c-1-2.6-2.1-5.2-3.1-7.7s-1.6-4.1-4.6-2.8-2.5,2.9-1.5,5S667.8,817.8,668.8,820Zm14.5-1.2c-.7,1.6-1.4,3.1-2.1,4.8l5.7,2.4c.8-1.9,1.4-3.6,2.1-5.2s2.8-5.4,3.6-8.2c.3-1.2-.9-2.8-1.5-4.2-1.4.6-3.4.7-4.1,1.8S684.5,815.9,683.3,818.8Zm2.6,41c1.8,5.2,2.4,5.4,7.4,1.5-.6-1.2-1.2-2.5-1.9-3.8l-4.9-11.9-5.6,2.5a29.2,29.2,0,0,0,1.1,3.2Zm-19.1-2.3c-.7,1.4-1.3,2.8-2,4.3,3.8,2.5,6.7,3.6,7.5-2,1.7-3.8,3.4-7.7,5.3-11.8l-6.1-2.3Zm-12.7-28.8,12.6,5.5,2.5-6-11.1-4.4-5.2-2.4C651.5,824.6,649,827.2,654.1,828.7Zm-2,15c0,1.7.1,3.5.1,5.2l3.9-.2,13-5.9-2.6-5.6Zm49,5L706,851c-.6-3.2,4.3-6.1-1.8-7.4l-12.9-5.9-2.5,6ZM686,839.4c-.2-2.7.5-5.8-.6-7.9s-5.5-4.6-9.4-2.9-5.3,5.1-3.8,10.8C676.5,845.2,681.6,845.2,686,839.4Zm-11.5,24.9.9,1.1h7.4l.9-1.2c-1.6-1.5-3.1-4.1-4.7-4.1S676,862.8,674.5,864.3Zm-18.3-11.9-.7,1.6,4.9,5.4,1.8-.3c0-2,.7-4.7-.3-5.8S658.2,852.6,656.2,852.4Zm52.6-12c.1-2.3.2-4.1.2-5.2l-5.4-2.3C701.9,837.6,704,839.5,708.8,840.4ZM696.1,859l1.5.3,4.9-4.5-.3-1.5-6.1-.3Zm-41.6-25.6-5.5,1.2c.1,1.4.2,3.2.3,5.2C653.1,839,656.2,838.3,654.5,833.4Z" fill="#1f1f1f"/><path d="M650.1,857.7c5.4,5,10.5,10.2,17.9,12.3,13.9,3.8,26,1.2,36.4-8.9l3.7-3.4c-8.6,17.4-36.2,21.7-51.5,8C654.1,863.4,652.3,860.4,650.1,857.7Z" fill="#5c5c5c"/><path d="M1103.2,758.8l2.6-4.3c.1,5.4.4,10.8.1,16.2-.1,1.8-1.8,3.4-2.8,5C1103.1,770.1,1103.1,764.5,1103.2,758.8Z" fill="#464646"/><path d="M1012.2,759.7c.2-5.1,3-8,7.8-8.8s7.2,1.3,9,5.1c-2.9,2.1-8-1.6-8.5,3.8-.1.9,3.6,2.1,5.5,3.1C1020.3,766.8,1016.2,763.4,1012.2,759.7Z" fill="#f4f4f4"/><path d="M1012.2,759.7c4,3.7,8.1,7.1,13.8,3.2a13.4,13.4,0,0,1,2,0c.3,0,.5.3,1,.5-1.8,4-5,5.9-9.1,5.2S1012.4,764.8,1012.2,759.7Z" fill="#dadada"/><path d="M1042.2,839.4c-1.6-4.4-1.1-8.2,3.3-10.6s7.6-1.2,9.6,2.3.6,5.5.9,8.3C1050.7,835.8,1047.5,835.8,1042.2,839.4Zm5.3-8-1.8-1.7-2.5,2.9a12.9,12.9,0,0,0,1.7,1.6Z" fill="#787878"/><path d="M1071.9,849.1l-13.1-5.4c.9-2.1,1.6-3.8,2.6-6l12.7,5.9Z" fill="#d4d4d4"/><path d="M1022.1,843.7l14.4-6.5c.9,1.9,1.6,3.5,2.7,5.7l-13.1,5.8Z" fill="#d5d5d5"/><path d="M1036.2,858.8c1.7-4.3,3.5-8.5,5.3-13.1l6.1,2.4c-2,4.4-3.8,8.5-5.6,12.6Z" fill="#d5d5d5"/><path d="M1056.2,860.8l-5.6-12.6,6-2.6c1.9,4.7,3.7,8.9,5.4,13.2Z" fill="#d5d5d5"/><path d="M1030.2,824.7l8.9,3.5c-.8,2-1.4,3.7-2.4,6l-11.7-5.3Z" fill="#d4d4d4"/><path d="M1053.3,818.8c1.2-2.9,2.1-6,3.7-8.6s2.7-1.2,4.2-1.8c.5,1.4,1.7,3,1.4,4.2s-2.2,4.8-3.3,7.2Z" fill="#acacac"/><path d="M1038.8,819.8c-1.1-2.4-2.6-4.7-3.2-7.2s.9-2.8,1.4-4.2c1.5.6,3.5.7,4.2,1.8s2.5,5.7,3.7,8.6Z" fill="#acacac"/><path d="M1042.2,839.4c5.3-3.6,8.5-3.6,13.8,0C1051.7,845.2,1046.5,845.2,1042.2,839.4Z" fill="#414141"/><path d="M1073,828.5l-11.6,5.1-2.8-5.7,8.3-3.3Z" fill="#d4d4d4"/><path d="M1053.3,818.8l6,1c-.7,2-1.4,4-2.3,6.3l-5.8-2.5Z" fill="#d1d1d1"/><path d="M1038.8,819.8l6.1-1,2.1,4.6-5.7,2.8C1040.5,824,1039.6,821.9,1038.8,819.8Z" fill="#d1d1d1"/><path d="M1052.8,865.4h-7.4l-.9-1.1c1.5-1.5,3-4.1,4.5-4.2s3.1,2.6,4.7,4.1Z" fill="#eaeaea"/><path d="M1073,828.5l-6.1-3.9c1.3-.6,2.6-1.4,3.9-1.9s4.1-2.7,5.6.9S1075,827.5,1073,828.5Z" fill="#aaa"/><path d="M1030.1,859.7l-5.5-6.5c3-.3,6-1.4,6.7-.5s.8,4,1.1,6.1Z" fill="#e8e8e8"/><path d="M1030.2,824.7l-5.2,4.2c-2.5-.7-4.9-1.3-3.4-4.9s3.6-1.6,5.6-.9S1029.2,824.2,1030.2,824.7Z" fill="#ababab"/><path d="M1072.7,855.1l-6,5.2c-.4-3-.6-5-.9-6.9l6.1-.5A14.3,14.3,0,0,0,1072.7,855.1Z" fill="#eaeaea"/><path d="M1073.8,833l5.2,3.3c0,.5-.1,2.2-.1,4C1072.6,838.6,1072.6,838.6,1073.8,833Z" fill="#cfcfcf"/><path d="M1019.8,839.9c-2.8-5.8,3.2-4,4.2-7.3C1026.6,838.3,1022.9,838.7,1019.8,839.9Z" fill="#cecece"/><path d="M1056.2,860.8l5.8-2c1.9,2.3,1.1,3.8-1.6,4.7S1056.3,863.7,1056.2,860.8Z" fill="#f4f4f4"/><path d="M1036.2,858.8l5.8,1.9c-.7,2.6-1.7,4.1-4.8,2.6S1034.8,860.7,1036.2,858.8Z" fill="#f4f4f4"/><path d="M1071.9,849.1l2.2-5.5c2.8.2,3.6,1.4,2.5,4.2S1074.1,850.8,1071.9,849.1Z" fill="#f1f1f1"/><path d="M1022.1,843.7l4,5-3.9.2C1022.1,847.2,1022.1,845.4,1022.1,843.7Z" fill="#f3f3f3"/><path d="M672.2,839.4c-1.5-5.7-.4-9,3.8-10.8s7.5-.7,9.4,2.9.4,5.2.6,7.9C680.7,835.8,677.5,835.8,672.2,839.4Zm4.9-7.5-1.3-1.1-2.5,2.9,1.1,1Z" fill="#787878"/><path d="M701.1,848.7l-12.3-5,2.5-6,12.9,5.9C703.1,845.3,702.1,847,701.1,848.7Z" fill="#d5d5d5"/><path d="M652.1,843.7l14.4-6.5,2.6,5.6-13,5.9Z" fill="#d5d5d5"/><path d="M658.1,823.8l11.1,4.4-2.5,6-12.6-5.5C655.4,827.1,656.8,825.5,658.1,823.8Z" fill="#d5d5d5"/><path d="M666.8,857.5l4.7-11.8,6.1,2.3c-1.9,4.1-3.6,8-5.3,11.8Z" fill="#d5d5d5"/><path d="M685.9,859.8l-3.9-8.5a29.2,29.2,0,0,1-1.1-3.2l5.6-2.5,4.9,11.9Z" fill="#d5d5d5"/><path d="M683.3,818.8c1.2-2.9,2.1-6,3.7-8.6s2.7-1.2,4.1-1.8c.6,1.4,1.8,3,1.5,4.2-.8,2.8-2.4,5.4-3.6,8.2Z" fill="#aeaeae"/><path d="M672.2,839.4c5.3-3.6,8.5-3.6,13.8,0C681.6,845.2,676.5,845.2,672.2,839.4Z" fill="#414141"/><path d="M668.8,820c-1-2.2-2-4.5-3.1-6.7s-1.5-3.8,1.5-5,3.7.8,4.6,2.8,2.1,5.1,3.1,7.7Z" fill="#adadad"/><path d="M701.3,829l-9.9,4.6c-1-2.1-1.7-3.6-2.8-5.7l8.4-3.2Z" fill="#d4d4d4"/><path d="M701.3,829l-4.3-4.3c1.3-.7,2.7-1.3,3.9-2.1,4.1-2.3,5.7-.5,6.1,4Z" fill="#acacac"/><path d="M668.8,820l6.1-1.2,2.1,4.7-5.8,2.6Z" fill="#d3d3d3"/><path d="M674.5,864.3c1.5-1.5,3-4.1,4.5-4.2s3.1,2.6,4.7,4.1l-.9,1.2h-7.4Z" fill="#efefef"/><path d="M656.2,852.4c2,.2,4.7-.3,5.7.9s.3,3.8.3,5.8l-1.8.3-4.9-5.4Z" fill="#ededed"/><path d="M683.3,818.8l5.7,2c-.7,1.6-1.3,3.3-2.1,5.2l-5.7-2.4C681.9,821.9,682.6,820.4,683.3,818.8Z" fill="#d2d2d2"/><path d="M708.8,840.4c-4.8-.9-6.9-2.8-5.2-7.5l5.4,2.3C709,836.3,708.9,838.1,708.8,840.4Z" fill="#cacaca"/><path d="M696.1,859v-6l6.1.3.3,1.5-4.9,4.5Z" fill="#ededed"/><path d="M685.9,859.8l5.5-2.3c.7,1.3,1.3,2.6,1.9,3.8C688.3,865.2,687.7,865,685.9,859.8Z" fill="#f5f5f5"/><path d="M654.5,833.4c1.7,4.9-1.4,5.6-5.2,6.4-.1-2-.2-3.8-.3-5.2Z" fill="#d1d1d1"/><path d="M666.8,857.5l5.5,2.3c-.8,5.6-3.7,4.5-7.5,2C665.5,860.3,666.1,858.9,666.8,857.5Z" fill="#f5f5f5"/><path d="M658.1,823.8c-1.3,1.7-2.7,3.3-4,4.9-5.1-1.5-2.6-4.1-1.2-7.3Z" fill="#adadad"/><path d="M701.1,848.7c1-1.7,2-3.4,3.1-5.1,6.1,1.3,1.2,4.2,1.8,7.4Z" fill="#f4f4f4"/><path d="M652.1,843.7l4,5-3.9.2C652.2,847.2,652.1,845.4,652.1,843.7Z" fill="#f4f4f4"/><path d="M1047.5,831.4l-2.6,2.8a12.9,12.9,0,0,1-1.7-1.6l2.5-2.9Z" fill="#f3f3f3"/><path d="M677.1,831.9l-2.7,2.8-1.1-1,2.5-2.9Z" fill="#f3f3f3"/><path d="M479.1,802.2c.2-2-.2-3.8.5-4.9a30.1,30.1,0,0,1,5-5.1c.4-.3,1.3,0,2,0,12.6-.2,12.5-.2,14.8-12.5,1.4-8,2.9-16.1,4.6-24,.4-1.6,2-2.8,3-4.2.3,1.6,1,3.3.8,4.8-2.1,11.6-4.3,23.2-6.6,35.2,5.9,1,6.9,5.1,6.1,10.7h7.3c10.5,0,21-.2,31.5.1,2,.1,4.9,1.4,5.6,3s-.2,4.6-1.5,6.1c-4.8,5.7-10,11.1-15.3,16.4-2.2,2.2-2.8,3.9-1.3,6.9,5.6,11.2,10.7,22.6,16.3,33.7a11.5,11.5,0,0,0,5.2,4.8c10.3,5.2,16,13.3,16.3,24.9.2,7.5,0,15,0,22.3,12.1,5.2,14.1,8.9,12.6,21.7-1.1,8.2-1.7,16.5-2.6,24.8a31.2,31.2,0,0,1-.5,4.4c-2.2,11.1-9.4,15.3-19.9,11.5-1.5-.6-2.5-2.8-3.6-4.3a35.3,35.3,0,0,1-2.1-3.2c-.7,1.2-2,2.3-2.2,3.6-1.6,10.4-5.6,19.6-12.6,27.3-3.1,3.3-6.7,6.2-10.9,10h18.7c5.5,0,11-.3,16.5.2,1.6.1,3,2.6,4.6,4a41.4,41.4,0,0,1-4.6,3.7c-.9.5-2.3.1-3.4.1H77.5c-3.2,0-7.7,1.1-7.8-3.7s4.6-4.2,7.9-4.2c9.6-.1,19.2,0,29.8,0-3.8-3.4-7.4-5.5-9.5-8.7a150,150,0,0,1-12.1-20.4c-1.5-3.2-2.6-4.7-6.4-3.5-.1,1-.4,2.1-.5,3.2-.3,7.4-1.3,8.3-8.5,8.4s-13-.1-19.5,0c-3.6,0-7.1-.3-7.3-4.8s3.1-5.3,6.8-5.3c.3,0,.5-.3,1.4-.6L47,959.8c-1.2-6-2.3-12.1-3.7-18.1-.8-3.3-.3-5.9,2.6-7.8,6.1-4,8.9-9.6,10.6-16.9,5.6-22.7,22.4-34.2,43.9-38.6,14.1-2.8,28.8-3,43.2-4.2s26.9-1.7,40.3-2.9a15.2,15.2,0,0,0,7.9-3.4c20.9-18.6,41.6-37.4,62.3-56.2a35.6,35.6,0,0,1,25-9.6h200Zm78.5,92.9c-.1,5.7-.1,11.4-.2,17.1l3.4,3.5c.8-1,2.5-2.1,2.4-3.1-.5-7.2-1.3-14.4-2-21.6l-2.5-2.1a7.4,7.4,0,0,0-1.2,2.9A12.3,12.3,0,0,0,557.6,895.1Zm7.9,36.2H552.7l2.7,2.9c4,8.2,7.8,16.4,12,24.5a5.2,5.2,0,0,0,4,2.3c1,0,2.7-1.8,2.8-3,.9-7.2,1.4-14.5,2.1-21.8.3-2.9-.9-4.6-3.9-4.9ZM57.1,938l-3.4,4.1c1.2,6.4,2.5,12.7,3.7,19.1,1.6,8.5,1.6,8.5,10.2,7.9l1.6-.7c1.1-10.8,5.1-20.8,10.7-30.1l1.9-3.1c-7.1,0-13.5-.2-19.8.1C60.3,935.4,58.7,937.1,57.1,938Zm159.4-42.8c2.8-3.8,1.8-6.7-2.6-6.9s-9,.1-13.5-.2-5.8.8-7,4.1c-.7,1.1-1.5,2.2-2.9,4.5ZM87.6,909.4c4.3-5.4,7.5-11.3,7.8-19.5-10,4.8-15,12.5-18.9,21.3l-3.6,10.2,1.6.8C80.3,919.5,84.4,915,87.6,909.4Zm165.7-71.3,13.8-14.5c-10.1-1.1-10.2-1.1-14.8,3.5l-45,40.9-3.6,1.1,1.8,2.1c5,0,9.9.1,14.9-.1a7.4,7.4,0,0,0,4.3-1.9C234.3,858.9,243.8,848.5,253.3,838.1Zm79.1-14.8H292.8a6.6,6.6,0,0,0-4.3,1.7c-2.2,2.2-4.1,4.8-6.1,7.2l-33,38.1,1.2,1.3c3.1-2.6,5.8-6,9.3-7.5s8.4-1.4,12.6-2a40.2,40.2,0,0,0,4.9.2c3.8-.4,6.4.7,6.6,5.1-.3,2.6.7,3.8,3.6,3.8l71.8-.2h25.9V823.3H332.4Zm71,47.7h98l-20-43.9c-.3-2.9-1.9-4.1-5-4-7.6.3-15.3.2-23,.2H391.6V871ZM185.6,903.3c-3.9,5.4-7.9,10.7-11.6,16.2-.6.8.1,2.5.2,3.8,12.3,10.7,20.9,23.6,23.8,39.9.6,3.2.9,6.4,1.3,9.6h24V913.2c.7-11,2.3-21.8,8.2-31.9h-27l-4.7,1.4.5,1.5h11.4c9.3,0,12.3,4,9.6,12.8-3.1,1.1-6.1,2.8-9.2,3-6.9.5-13.9,0-20.9.3C189.3,900.4,187.4,902.2,185.6,903.3Zm6.2-20,.4-1.9-4.5-.2c-21.8,1.5-43.7,2.8-65.5,4.5-7,.5-13.8,1.8-20.7,2.7-.7.5-1.8,1-2,1.7-1.5,5.2-2.8,10.5-4.2,15.8-4.9,5.8-9.6,11.9-14.7,17.4-2.3,2.5-6.1,4.6-8.9,1.7s-2-5.8-1.5-8.5c.9-4.3,3-8.3,4.5-12.5-6.7,6.9-9.6,15.2-10,25.2,6.7,0,13,.2,19.3-.2a11.3,11.3,0,0,0,6.5-2.6c12.2-10.4,26.1-16.1,42.3-16.4,12.1-.3,23.3,2.8,34.3,8.6l7.1-10.4Zm199.8,30.9v58.6H439c.3-2.7.6-5,.9-7.3,2.3-16.5,10.5-29.8,22.6-41a2.5,2.5,0,0,0,.9-.4q36.5-26.6,75.7-4.2a7.8,7.8,0,0,0,3.2,1.2c6.5.1,13.1,0,19.7,0-8-1.8-8.6-2.6-8.6-11.2,0-4-.1-8,.1-12s.8-9.2,1.4-14.7l-8.5-1.9H394.5c-2.6-.6-3.1.7-3.1,3C391.5,894.2,391.5,904.2,391.6,914.2ZM242.5,881.3c-1.7.9-4.1,1.3-5.1,2.6-6,8.8-7.6,18.9-7.8,29.3v59.6H385.3V915.2c0-10.3,0-20.6.2-30.9,0-2.3-.5-3.6-3.1-3h-80c-6,0-12,.2-17.9.3-.5,4.7-3.1,6.3-7.7,5.7a41.7,41.7,0,0,0-7.9,0,17.6,17.6,0,0,1-14.3-5.3Zm-81.2,134.5H477.6c-11.2-7.7-18.2-17-22.2-28.7-.5-1.3-3.5-1.6-5.5-2.4-1.5,10.5-1.5,10.5-11.1,10.5H197.4c-3.5,0-6.8.1-8.4-4.4-1-2.7-5.9-2.4-7.1.4C177.7,1001.1,171.1,1009,161.3,1015.8Zm379-144.6c0-1.9.2-2.4,0-2.8-6.6-14-13.1-28.1-20-42-.8-1.6-3.9-2.9-6.1-3.1-7-.4-14-.2-21-.1-5.5.1-6,.9-3.9,5.8,4.8,10.9,10,21.5,14.2,32.6,2.9,7.4,7.1,10.7,15.3,9.7S533,871.2,540.3,871.2ZM265.2,815l.4,1.5H513.8l.3-1.9c-3.4-.8-6.7-2.3-10.1-2.3q-112.7-.1-225.4,0C274.1,812.3,269.7,814.1,265.2,815Zm239.2,198.2c22.2,0,41.1-18.9,41-41.1s-18.7-40.9-40.7-40.9-41.2,18.6-41.3,40.8S482.1,1013.2,504.4,1013.2Zm-370-82c-22,0-40.9,18.7-41,40.6s18.6,41.3,40.8,41.4,41.2-18.7,41.2-41A41.3,41.3,0,0,0,134.4,931.2Zm173.1,54h69.9c2.7,0,7.3,1.4,7.4-2.7s-4.7-3.1-7.4-3.1c-46.7-.2-93.3-.1-140-.1-1.1,0-2.4-.3-3.4.1a26.5,26.5,0,0,0-4.2,2.6c1.4,1.1,2.7,2.5,4.2,3.1s3,.2,4.5.2Zm-75-115c6.7,2.7,10.1-1.3,13.5-5.2,8.4-9.6,16.7-19.3,25-29.1,3.2-3.7,6.3-7.7,9.4-11.5l-1.6-1.8c-2.3,1.5-4.9,2.7-6.8,4.6-9.7,10.2-19.3,20.5-28.9,30.9Zm183.4,109c-6.5,0-13-.2-19.4.1-1.6.1-3.1,2-4.7,3.1,1.6.9,3.1,2.6,4.6,2.6,12.7.2,25.3.3,38,0,1.5,0,3.1-2,4.6-3.1-1.5-.9-3-2.5-4.6-2.6C428.3,979,422.1,979.2,415.9,979.2Zm-146.2-98c3.3-.3,7.7,1.1,7.9-5.1s-.6-8-7.9-7.9-10.8,2.7-10.9,6.5S262.8,881.1,269.7,881.2ZM211.6,985.1h0a58.9,58.9,0,0,0,8.4-.1c1.1-.2,2-1.7,3-2.6-.9-1-1.8-2.8-2.7-2.8-5.8-.3-11.7-.3-17.5-.1-1,.1-2,1.7-3,2.7,1.1,1,2.1,2.6,3.3,2.8A60,60,0,0,0,211.6,985.1ZM486.3,800.2c3.7,3,13.4,2.8,16.2-.3C498.5,797.2,489.5,797.4,486.3,800.2ZM70.3,979.8c-2.7-2-4.2-3.6-6-4.3s-3.4,2.4-3.2,2.9c1,2.3,2.7,4.3,4.1,6.4Zm466-165.1-.6-2.6-9,1.1,2.1,5.6ZM570.1,972l1.7.2.6-4.2-1.8-.2Z" fill="#1e1e1e"/><path d="M453.4,823.3c7.7,0,15.4.1,23-.2,3.1-.1,4.7,1.1,5,4-1.6,1-3.2,2.6-5,2.9s-6.5.1-10.1.1c8.9,13.4,9.5,16,6.1,28.1-.3,3.8.8,8.7-5.3,8.9-18.9.4-37.9.7-56.8.9-4.4.1-7.4-1.7-6.9-6.8,0-7.8,0-15.6.1-23.4,0-6,.6-6.6,6.6-6.6h40.8a49.9,49.9,0,0,0,6-.8C455.5,827.5,454.5,825.4,453.4,823.3Z" fill="#dfdfdf"/><path d="M284,867.4c-.2-4.4-2.8-5.5-6.6-5.1a40.2,40.2,0,0,1-4.9-.2l20.9-25.9c3.8-5.8,9.4-6.4,15.7-6.1,9.1.3,18.2.1,27.3.1h0c.9,1.8,1.6,3.6,2.6,5.3,6.1,10.6,12.3,21.1,18.4,31.6h.1Z" fill="#d8d8d8"/><path d="M504.4,1013.2c-22.3,0-41-18.9-41-41.2s19-40.9,41.3-40.8,40.7,18.8,40.7,40.9S526.6,1013.2,504.4,1013.2Zm29-19c.6-1.3,1.1-2.5,1.7-3.7,9-16.6,6.7-31.7-6.7-44.9s-43.6-13.1-56,10.2c-7.1,13.4-4.3,26,3,38.3,5.2,9.3,13.4,14,23.6,15.7C513,1012.1,527.9,1005.3,533.4,994.2Z" fill="#343434"/><path d="M134.4,931.2a41.3,41.3,0,0,1,41,41c0,22.3-18.9,41-41.2,41s-40.8-19-40.8-41.4S112.4,931.2,134.4,931.2Zm29,62.9,1.7-3.6c9-16.5,6.9-31.9-6.7-44.8-11-10.5-24.1-12.1-38-6.8s-21.6,17.8-22.1,31.7c-.3,8.8,3.5,16.1,7.1,23.5,2.2,2.7,4,5.8,6.6,8C127.3,1015.8,154.8,1011.5,163.4,994.1Z" fill="#343434"/><path d="M307.5,985.2h-69c-1.5,0-3.2.3-4.5-.2s-2.8-2-4.2-3.1a26.5,26.5,0,0,1,4.2-2.6c1-.4,2.3-.1,3.4-.1,46.7,0,93.3-.1,140,.1,2.7,0,7.5-1.8,7.4,3.1s-4.7,2.7-7.4,2.7Z" fill="#343434"/><path d="M472.5,858.2c3.3-12.1,2.7-14.7-6.2-28.1,3.6,0,6.9.4,10.1-.1s3.4-1.9,5-2.9l20,43.9h-21Z" fill="#d5d5d5"/><path d="M453.4,823.3c1.1,2.1,2.1,4.2,3.5,7a49.9,49.9,0,0,1-6,.8H410.1c-6,0-6.6.6-6.6,6.6-.1,7.8-.1,15.6-.1,23.4-3.9-6.4-7.9-12.7-11.8-19V823.3Z" fill="#d2d2d2"/><path d="M377.4,823.3h3.1l4.8,5.8V871H359.4l-1.9-3.8h-.1c9,.1,9,.1,9-9,0-2.7.1-5.3.1-8s2.1-6.5,5.9-6.6,6.5-2.9,6.1-7.4a58.1,58.1,0,0,1-.1-5.9C378.1,827.9,377.7,825.6,377.4,823.3Z" fill="#cbcbcb"/><path d="M293.4,836.2l-20.9,25.9c-4.2.6-8.8.4-12.6,2s-6.2,4.9-9.3,7.5l-1.2-1.3,33-38.1Z" fill="#c4c4c4"/><path d="M207.3,868l45-40.9,5.8.8-6.7,9.3c-7.8,8.1-16.3,15.6-23.2,24.4S215.2,868.9,207.3,868Z" fill="#d8d8d8"/><path d="M391.6,842.2c3.9,6.3,7.9,12.6,11.8,19-.5,5.1,2.5,6.9,6.9,6.8,18.9-.2,37.9-.5,56.8-.9,6.1-.2,5-5.1,5.3-8.9,2.7,4.3,5.4,8.5,8,12.8h-77l-11.8-19.8Z" fill="#cacaca"/><path d="M293.4,836.2l-11-4c2-2.4,3.9-5,6.1-7.2a6.6,6.6,0,0,1,4.3-1.7h39.6c1.4,2.3,2.7,4.6,4,6.9-9.1,0-18.2.2-27.3-.1C302.8,829.8,297.2,830.4,293.4,836.2Z" fill="#cfcfcf"/><path d="M336.4,830.2c-1.3-2.3-2.6-4.6-4-6.9h45c.3,2.3.7,4.6,1,6.9Z" fill="#d8d8d8"/><path d="M357.5,867.2l1.9,3.8-71.8.2c-2.9,0-3.9-1.2-3.6-3.8Z" fill="#c3c3c3"/><path d="M415.9,979.2c6.2,0,12.4-.2,18.5.1,1.6.1,3.1,1.7,4.6,2.6-1.5,1.1-3.1,3.1-4.6,3.1-12.7.3-25.3.2-38,0-1.5,0-3-1.7-4.6-2.6,1.6-1.1,3.1-3,4.7-3.1C402.9,979,409.4,979.2,415.9,979.2Z" fill="#343434"/><path d="M207.3,868c7.9.9,14.9,1.2,20.9-6.4s15.4-16.3,23.2-24.4l1.9.9c-9.5,10.4-19,20.8-28.6,31.1a7.4,7.4,0,0,1-4.3,1.9c-5,.2-9.9.1-14.9.1l-1.8-2.1Z" fill="#c2c2c2"/><path d="M76.5,911.2c3.9-8.8,8.9-16.5,18.9-21.3-.3,8.2-3.5,14.1-7.8,19.5-.6-1.4-1.1-2.9-1.6-4.4a33.2,33.2,0,0,0-4.7,2A48.1,48.1,0,0,0,76.5,911.2Z" fill="#dbdbdb"/><path d="M211.6,985.1a60,60,0,0,1-8.5-.2c-1.2-.2-2.2-1.8-3.3-2.8,1-1,2-2.6,3-2.7,5.8-.2,11.7-.2,17.5.1.9,0,1.8,1.8,2.7,2.8-1,.9-1.9,2.4-3,2.6a58.9,58.9,0,0,1-8.4.1Z" fill="#343434"/><path d="M76.5,911.2a48.1,48.1,0,0,1,4.8-4.2,33.2,33.2,0,0,1,4.7-2c.5,1.5,1,3,1.6,4.4-3.2,5.6-7.3,10.1-13.1,12.8l-1.6-.8Z" fill="#f2f2f2"/><path d="M391.6,851.2,403.4,871H391.6Z" fill="#d4d4d4"/><path d="M193.4,892.2c1.2-3.3,3.6-4.3,7-4.1s9-.1,13.5.2,5.4,3.1,2.6,6.9a85.2,85.2,0,0,0-8.4-2C203.2,892.7,198.3,892.5,193.4,892.2Z" fill="#fafafa"/><path d="M253.3,838.1l-1.9-.9,6.7-9.3-5.8-.8c4.6-4.6,4.7-4.6,14.8-3.5Z" fill="#cdcdcd"/><path d="M193.4,892.2c4.9.3,9.8.5,14.7,1a85.2,85.2,0,0,1,8.4,2l-26,1.5C191.9,894.4,192.7,893.3,193.4,892.2Z" fill="#d7d7d7"/><path d="M486.3,800.2c3.2-2.8,12.2-3,16.2-.3C499.7,803,490,803.2,486.3,800.2Z" fill="#343434"/><path d="M70.3,979.8l-5.1,5c-1.4-2.1-3.1-4.1-4.1-6.4-.2-.5,2.5-3.1,3.2-2.9S67.6,977.8,70.3,979.8Z" fill="#333"/><path d="M561.2,891c.7,7.2,1.5,14.4,2,21.6.1,1-1.6,2.1-2.4,3.1l-3.4-3.5h1c1-1.7,2.8-3.3,2.9-5,.3-5.4,0-10.9-.1-16.3Z" fill="#313131"/><path d="M570.1,972l.5-4.2,1.8.2-.6,4.2Z" fill="#333"/><path d="M385.3,829.1l-4.8-5.8h4.8Z" fill="#d8d8d8"/><path d="M558.4,912.2h-1c.1-5.7.1-11.4.2-17.1h.9C558.5,900.9,558.5,906.5,558.4,912.2Z" fill="#ababab"/><path d="M558.5,895.2h-.9a12.3,12.3,0,0,1-.1-3.3,7.4,7.4,0,0,1,1.2-2.9l2.5,2.1h0Z" fill="#ececec"/><path d="M360.5,889h.9c2,1,5.5,1.7,5.7,2.9.4,3.9-3.3,2.9-5.7,3.3h-18c-.8,0-1.8.2-2.4-.2s-2.3-2.1-3.5-3.2a21.1,21.1,0,0,1,3.5-2.6c1-.5,2.2-.2,3.4-.3Z" fill="#1f1f1f"/><path d="M472.8,883.4h7.3c7.2,3.1,10.3,8.6,9.2,16.4-2.6,5.5-6.4,9.3-12.9,9.3s-10.2-3.8-12.8-9.3C462.5,892,465.5,886.5,472.8,883.4Zm8.6,15.9c-2-1-5.7-2.2-5.6-3,.5-5.5,5.7-1.8,8.6-3.9-1.9-3.8-4.9-5.7-9.1-5.1s-7.6,3.8-7.7,8.9,2.9,8,7.7,8.8,7.2-1.2,9.1-5.2c-.5-.2-.8-.5-1.1-.5Z" fill="#202020"/><path d="M382.4,881.3h-80c-6,0-12,.2-17.9.3-.5,4.7-3.1,6.3-7.7,5.7a41.7,41.7,0,0,0-7.9,0,17.6,17.6,0,0,1-14.3-5.3h0l-12.1-.6c-1.7.9-4.1,1.3-5.1,2.6-6,8.8-7.6,18.9-7.8,29.3v59.6H385.3V915.2c0-10.3,0-20.6.2-30.9C385.5,882,385,880.7,382.4,881.3Zm-21,14h-18c-.8,0-1.8.2-2.4-.2s-2.3-2.1-3.5-3.2a21.1,21.1,0,0,1,3.5-2.6c1-.5,2.2-.2,3.4-.3h17c2,1,5.5,1.7,5.7,2.9C367.5,895.9,363.8,894.9,361.4,895.3Z" fill="#fff200"/><path d="M553.4,909.9c0-4-.1-8,.1-12s.8-9.2,1.4-14.7l-8.5-1.9H394.5c-2.6-.6-3.1.7-3.1,3,.1,9.9.1,19.9.2,29.9v58.6H439c.3-2.7.6-5,.9-7.3,2.3-16.5,10.5-29.8,22.6-41a2.5,2.5,0,0,0,.9-.4q36.5-26.6,75.7-4.2a7.8,7.8,0,0,0,3.2,1.2c6.5.1,13.1,0,19.7,0C554,919.3,553.4,918.5,553.4,909.9Zm-64.1-10.1h0c-2.6,5.5-6.4,9.3-12.9,9.3s-10.2-3.8-12.8-9.3c-1.1-7.8,1.9-13.3,9.2-16.4h7.3C487.3,886.5,490.4,892,489.3,899.8Z" fill="#fff200"/><path d="M493.2,823.2c-5.5.1-6,.9-3.9,5.8,4.8,10.9,10,21.5,14.2,32.6,2.9,7.4,7.1,10.7,15.3,9.7s14.2-.1,21.5-.1c0-1.9.2-2.4,0-2.8-6.6-14-13.1-28.1-20-42-.8-1.6-3.9-2.9-6.1-3.1C507.2,822.9,500.2,823.1,493.2,823.2Z" fill="#fff200"/><path d="M513.8,816.5l.3-1.9c-3.4-.8-6.7-2.3-10.1-2.3q-112.7-.1-225.4,0c-4.5,0-8.9,1.8-13.4,2.7a8.3,8.3,0,0,1,.4,1.5Z" fill="#fff200"/><path d="M191.8,883.3c.1-.7.3-1.3.4-1.9l-4.5-.2c-21.8,1.5-43.7,2.8-65.5,4.5-7,.5-13.8,1.8-20.7,2.7l1.4.4-1.4-.4c-.7.5-1.8,1-2,1.7-1.5,5.2-2.8,10.5-4.2,15.8l1.7.8-1.7-.8c-4.9,5.8-9.6,11.9-14.7,17.4-2.3,2.5-6.1,4.6-8.9,1.7s-2-5.8-1.5-8.5c.9-4.3,3-8.3,4.5-12.5-6.7,6.9-9.6,15.2-10,25.2,6.7,0,13,.2,19.3-.2a11.3,11.3,0,0,0,6.5-2.6c12.2-10.4,26.1-16.1,42.3-16.4,12.1-.3,23.3,2.8,34.3,8.6l7.1-10.4Z" fill="#fff200"/><path d="M228.4,881.3H204.5l-4.7,1.4a8.8,8.8,0,0,0,.5,1.5h11.4c9.3,0,12.3,4,9.6,12.8-3.1,1.1-6.1,2.8-9.2,3-6.9.5-13.9,0-20.9.3-1.9.1-3.8,1.9-5.6,3-3.9,5.4-7.9,10.7-11.6,16.2-.6.8.1,2.5.2,3.8,12.3,10.7,20.9,23.6,23.8,39.9.6,3.2.9,6.4,1.3,9.6h24V913.2c.7-11,2.3-21.8,8.2-31.9Z" fill="#fff200"/><path d="M246,865c8.4-9.6,16.7-19.3,25-29.1,3.2-3.7,6.3-7.7,9.4-11.5l-1.6-1.8c-2.3,1.5-4.9,2.7-6.8,4.6-9.7,10.2-19.3,20.5-28.9,30.9l-10.6,12.1C239.2,872.9,242.6,868.9,246,865Z" fill="#fff200"/><path d="M269.7,868.2c-6.5.1-10.8,2.7-10.9,6.5s4,6.4,10.9,6.5c3.3-.3,7.7,1.1,7.9-5.1S277,868.1,269.7,868.2Z" fill="#fff200"/><path d="M62,935.3c-1.7.1-3.3,1.8-4.9,2.7l-3.4,4.1c1.2,6.4,2.5,12.7,3.7,19.1,1.6,8.5,1.6,8.5,10.2,7.9l1.6-.7c1.1-10.8,5.1-20.8,10.7-30.1l1.9-3.1C74.7,935.2,68.3,935,62,935.3Z" fill="#fff200"/><path d="M572.4,931.3H552.7l2.7,2.9c4,8.2,7.8,16.4,12,24.5a5.2,5.2,0,0,0,4,2.3c1,0,2.7-1.8,2.8-3,.9-7.2,1.4-14.5,2.1-21.8C576.6,933.3,575.4,931.6,572.4,931.3Z" fill="#fff200"/><path d="M536.3,814.7l-.6-2.6-9,1.1,2.1,5.6Z" fill="#fff200"/><path d="M336.4,830.2h42a58.1,58.1,0,0,0,.1,5.9c.4,4.5-.9,7.2-6.1,7.4s-5.9,2.7-5.9,6.6-.1,5.3-.1,8c0,9.1,0,9.1-9,9-6.1-10.5-12.3-21-18.4-31.6C338,833.8,337.3,832,336.4,830.2Z" fill="#e3e3e3"/><path d="M475.4,994.1c-7.3-12.3-10.1-24.9-3-38.3,12.4-23.3,41.3-24.8,56-10.2s15.7,28.3,6.7,44.9c-.6,1.2-1.1,2.4-1.7,3.7l-3.6,3.3c-10.6,10.3-23.2,13.5-36.8,8.4C486.6,1003.5,481.3,998.2,475.4,994.1Zm52.9-29.2c2-1,5.2-1.1,3.5-4.9s-3.7-1.6-5.6-.9-2.7,1.3-4,1.9l-8.2,3.4c1,2.1,1.8,3.7,2.8,5.6Zm-34.1-8.7c.8,2.1,1.6,4.2,2.5,6.4l5.6-2.7c-.7-1.7-1.4-3.2-2.1-4.7s-2.1-5.9-3.7-8.6c-.6-1-2.7-1.2-4.1-1.8-.6,1.4-1.8,3-1.5,4.2A42.2,42.2,0,0,0,494.2,956.2Zm20.4,0c1.2-2.4,2.7-4.6,3.3-7.1s-.9-2.8-1.4-4.3c-1.4.6-3.5.7-4.1,1.8a66,66,0,0,0-3.8,8.6c-.7,1.6-1.3,3.2-2.1,4.8l5.9,2.5Zm-34.3,9.1,11.8,5.4c.9-2.4,1.6-4,2.4-6.1l-9-3.5a28,28,0,0,0-3-1.5c-2-.8-4.1-2.7-5.6.8S477.8,964.7,480.3,965.3Zm37.1,29.9c-1.8-4.3-3.6-8.5-5.5-13.2l-6,2.6c2,4.5,3.9,8.5,5.7,12.6,0,3,1.5,3.7,4.2,2.7S519.2,997.6,517.4,995.2Zm-20.1,2c1.8-4.2,3.7-8.3,5.6-12.7l-6-2.3-5.4,13c-1.4,1.9-1.5,3.3,1,4.5S496.6,999.7,497.3,997.2Zm-19.9-17c0,1.7.1,3.4.1,5.1l3.9-.2,13.1-5.8c-1-2.2-1.8-3.7-2.7-5.6Zm52.1-.2-12.8-5.9c-.9,2.2-1.7,3.9-2.6,6l13.2,5.4c2.1,1.7,3.5,1.5,4.6-1.3S532.3,980.3,529.5,980Zm-18.2-4.2c-.2-2.8.4-6.1-.9-8.3s-5.8-4.2-9.5-2.3-5,6.2-3.3,10.6C501.9,981.7,507,981.7,511.3,975.8Zm-3.2,26,.9-1.2c-1.5-1.5-3.1-4.1-4.6-4s-3,2.6-4.5,4.1l.9,1.1Zm-22.7-5.7,2.4-.9c-.3-2.1,0-4.7-1.1-6.1s-3.8.3-6.7.6Zm42.7-4.6-.9-2.1-6.1.4c.3,1.9.6,3.9.9,6.9Zm1.1-22.1c-1.3,5.6-1.3,5.6,5,7.3.1-1.8.2-3.5.2-4Zm-54,6.9c3-1.2,6.7-1.5,4.1-7.2C478.4,972.3,472.4,970.5,475.2,976.3Z" fill="#1f1f1f"/><path d="M475.4,994.1c5.9,4.1,11.2,9.4,17.6,11.8,13.6,5.1,26.2,1.9,36.8-8.4l3.6-3.3c-5.5,11.1-20.4,17.9-34.4,15.6C488.8,1008.1,480.6,1003.4,475.4,994.1Z" fill="#5c5c5c"/><path d="M105.4,994.1c-3.6-7.4-7.4-14.7-7.1-23.5.5-13.9,8.8-26.6,22.1-31.7s27-3.7,38,6.8c13.6,12.9,15.7,28.3,6.7,44.8l-1.7,3.6-3.6,3.4c-10.4,10.2-22.6,12.7-36.4,8.9C115.9,1004.3,110.8,999.1,105.4,994.1Zm46.9-33-8.3,3.2c1,2.1,1.8,3.7,2.7,5.7l9.9-4.6,5.8-2.4c-.5-4.5-2.1-6.3-6.1-3.9Zm-28.1-4.7,2.4,6.2,5.8-2.7-2.1-4.7-3.2-7.7c-.9-2-1.5-4-4.6-2.8s-2.5,2.9-1.4,5.1S123.2,954.2,124.2,956.4Zm14.5-1.2-2.2,4.8,5.7,2.4c.8-1.9,1.5-3.6,2.1-5.2a49.8,49.8,0,0,0,3.6-8.2c.3-1.1-.9-2.8-1.4-4.2-1.4.6-3.5.8-4.1,1.8A54.4,54.4,0,0,0,138.7,955.2Zm2.5,41c1.8,5.3,2.5,5.4,7.4,1.5l-1.8-3.8c-1.7-3.9-3.3-7.8-5-11.8l-5.6,2.5c.5,1.2.7,2.2,1.1,3.1ZM122.1,994l-1.9,4.2c3.7,2.5,6.6,3.7,7.4-2,1.7-3.8,3.5-7.6,5.3-11.7l-6-2.3C125.2,986.3,123.6,990.1,122.1,994Zm-12.6-28.9,12.6,5.6c.9-2.4,1.6-4,2.4-6.1l-11.1-4.3-5.2-2.5C106.8,961,104.4,963.6,109.5,965.1Zm-2.1,15.1c0,1.7.1,3.4.1,5.1l3.9-.2,13-5.9-2.6-5.5Zm49.1,4.9,4.9,2.3c-.6-3.2,4.2-6.1-1.9-7.4l-12.8-5.9c-1,2.2-1.7,4-2.6,6Zm-15.2-9.3c-.1-2.7.6-5.8-.6-7.9s-5.5-4.6-9.4-2.9-5.3,5.1-3.7,10.8C131.9,981.7,137,981.7,141.3,975.8Zm-11.4,24.9.9,1.1h7.3l.9-1.2c-1.5-1.5-3.1-4-4.6-4S131.4,999.2,129.9,1000.7Zm-18.4-11.9-.7,1.7,4.9,5.3,1.8-.3c0-2,.8-4.7-.2-5.8S113.5,989,111.5,988.8Zm52.6-12c.1-2.2.2-4,.3-5.2l-5.4-2.3C157.2,974.1,159.3,976,164.1,976.8Zm-12.7,18.7,1.5.2,4.9-4.5-.3-1.4-6.1-.4Zm-41.5-25.7-5.5,1.2c.1,1.4.1,3.2.3,5.2C108.4,975.4,111.6,974.8,109.9,969.8Z" fill="#1f1f1f"/><path d="M105.4,994.1c5.4,5,10.5,10.2,18,12.3,13.8,3.8,26,1.3,36.4-8.9l3.6-3.4c-8.6,17.4-36.1,21.7-51.4,8C109.4,999.9,107.6,996.8,105.4,994.1Z" fill="#5c5c5c"/><path d="M558.5,895.2l2.7-4.3c.1,5.4.4,10.9.1,16.3-.1,1.7-1.9,3.3-2.9,5C558.5,906.5,558.5,900.9,558.5,895.2Z" fill="#464646"/><path d="M467.6,896.2c.1-5.1,3-8.1,7.7-8.9s7.2,1.3,9.1,5.1c-2.9,2.1-8.1-1.6-8.6,3.9-.1.8,3.6,2,5.6,3C475.6,903.3,471.6,899.8,467.6,896.2Z" fill="#f4f4f4"/><path d="M467.6,896.2c4,3.6,8,7.1,13.8,3.1h1.9c.3,0,.6.3,1.1.5-1.9,4-5,5.9-9.1,5.2S467.7,901.2,467.6,896.2Z" fill="#dadada"/><path d="M497.6,975.8c-1.7-4.4-1.2-8.2,3.3-10.6s7.5-1.2,9.5,2.3.7,5.5.9,8.3C506,972.2,502.8,972.2,497.6,975.8Zm5.2-8a13.7,13.7,0,0,1-1.7-1.7c-.9,1-1.7,2-2.6,2.9l1.7,1.7Z" fill="#787878"/><path d="M527.3,985.5l-13.2-5.4c.9-2.1,1.7-3.8,2.6-6l12.8,5.9Z" fill="#d4d4d4"/><path d="M477.4,980.2l14.4-6.5c.9,1.9,1.7,3.4,2.7,5.6l-13.1,5.8Z" fill="#d5d5d5"/><path d="M491.5,995.2l5.4-13,6,2.3c-1.9,4.4-3.8,8.5-5.6,12.7Z" fill="#d5d5d5"/><path d="M511.6,997.2c-1.8-4.1-3.7-8.1-5.7-12.6l6-2.6c1.9,4.7,3.7,8.9,5.5,13.2Z" fill="#d5d5d5"/><path d="M485.5,961.1l9,3.5c-.8,2.1-1.5,3.7-2.4,6.1l-11.8-5.4Z" fill="#d4d4d4"/><path d="M508.6,955.2a66,66,0,0,1,3.8-8.6c.6-1.1,2.7-1.2,4.1-1.8.5,1.5,1.7,3.1,1.4,4.3s-2.1,4.7-3.3,7.1Z" fill="#acacac"/><path d="M494.2,956.2a42.2,42.2,0,0,1-3.3-7.2c-.3-1.2.9-2.8,1.5-4.2,1.4.6,3.5.8,4.1,1.8,1.6,2.7,2.5,5.7,3.7,8.6Z" fill="#acacac"/><path d="M497.6,975.8c5.2-3.6,8.4-3.6,13.7,0C507,981.7,501.9,981.7,497.6,975.8Z" fill="#414141"/><path d="M528.3,964.9,516.8,970c-1-1.9-1.8-3.5-2.8-5.6l8.2-3.4Z" fill="#d4d4d4"/><path d="M508.6,955.2l6,1-2.2,6.3-5.9-2.5C507.3,958.4,507.9,956.8,508.6,955.2Z" fill="#d1d1d1"/><path d="M494.2,956.2l6-1c.7,1.5,1.4,3,2.1,4.7l-5.6,2.7C495.8,960.4,495,958.3,494.2,956.2Z" fill="#d1d1d1"/><path d="M508.1,1001.8h-7.3l-.9-1.1c1.5-1.5,3-4.1,4.5-4.1s3.1,2.5,4.6,4Z" fill="#eaeaea"/><path d="M528.3,964.9l-6.1-3.9c1.3-.6,2.6-1.4,4-1.9s4-2.6,5.6.9S530.3,963.9,528.3,964.9Z" fill="#aaa"/><path d="M485.4,996.1l-5.4-6.4c2.9-.3,5.9-1.4,6.7-.6s.8,4,1.1,6.1Z" fill="#e8e8e8"/><path d="M485.5,961.1l-5.2,4.2c-2.5-.6-4.8-1.3-3.4-4.9s3.6-1.6,5.6-.8A28,28,0,0,1,485.5,961.1Z" fill="#ababab"/><path d="M528.1,991.5l-6.1,5.2c-.3-3-.6-5-.9-6.9l6.1-.4Z" fill="#eaeaea"/><path d="M529.2,969.4l5.2,3.3c0,.5-.1,2.2-.2,4C527.9,975,527.9,975,529.2,969.4Z" fill="#cfcfcf"/><path d="M475.2,976.3c-2.8-5.8,3.2-4,4.1-7.2C481.9,974.8,478.2,975.1,475.2,976.3Z" fill="#cecece"/><path d="M511.6,997.2l5.8-2c1.8,2.4,1,3.8-1.6,4.7S511.6,1000.2,511.6,997.2Z" fill="#f4f4f4"/><path d="M491.5,995.2l5.8,2c-.7,2.5-1.7,4-4.8,2.5S490.1,997.1,491.5,995.2Z" fill="#f4f4f4"/><path d="M527.3,985.5l2.2-5.5c2.8.3,3.6,1.5,2.4,4.2S529.4,987.2,527.3,985.5Z" fill="#f1f1f1"/><path d="M477.4,980.2l4,4.9-3.9.2C477.5,983.6,477.4,981.9,477.4,980.2Z" fill="#f3f3f3"/><path d="M127.6,975.8c-1.6-5.7-.4-9,3.7-10.8s7.6-.7,9.4,2.9.5,5.2.6,7.9C136,972.2,132.9,972.2,127.6,975.8Zm4.8-7.4-1.2-1.2-2.6,2.9,1.2,1.1Z" fill="#787878"/><path d="M156.5,985.1l-12.4-5c.9-2,1.6-3.8,2.6-6l12.8,5.9Z" fill="#d5d5d5"/><path d="M107.4,980.2l14.4-6.5,2.6,5.5-13,5.9Z" fill="#d5d5d5"/><path d="M113.4,960.3l11.1,4.3c-.8,2.1-1.5,3.7-2.4,6.1l-12.6-5.6Z" fill="#d5d5d5"/><path d="M122.1,994c1.5-3.9,3.1-7.7,4.8-11.8l6,2.3c-1.8,4.1-3.6,7.9-5.3,11.7Z" fill="#d5d5d5"/><path d="M141.2,996.2l-3.9-8.5c-.4-.9-.6-1.9-1.1-3.1l5.6-2.5c1.7,4,3.3,7.9,5,11.8Z" fill="#d5d5d5"/><path d="M138.7,955.2a54.4,54.4,0,0,1,3.7-8.6c.6-1,2.7-1.2,4.1-1.8.5,1.4,1.7,3.1,1.4,4.2a49.8,49.8,0,0,1-3.6,8.2Z" fill="#aeaeae"/><path d="M127.6,975.8c5.3-3.6,8.4-3.6,13.7,0C137,981.7,131.9,981.7,127.6,975.8Z" fill="#414141"/><path d="M124.2,956.4c-1-2.2-2-4.4-3.1-6.6s-1.5-3.9,1.4-5.1,3.7.8,4.6,2.8l3.2,7.7Z" fill="#adadad"/><path d="M156.6,965.4l-9.9,4.6c-.9-2-1.7-3.6-2.7-5.7l8.3-3.2C153.8,962.5,155.2,964,156.6,965.4Z" fill="#d4d4d4"/><path d="M156.6,965.4c-1.4-1.4-2.8-2.9-4.3-4.3l4-2c4-2.4,5.6-.6,6.1,3.9Z" fill="#acacac"/><path d="M124.2,956.4l6.1-1.2,2.1,4.7-5.8,2.7Z" fill="#d3d3d3"/><path d="M129.9,1000.7c1.5-1.5,3-4.1,4.5-4.1s3.1,2.5,4.6,4l-.9,1.2h-7.3Z" fill="#efefef"/><path d="M111.5,988.8c2,.2,4.8-.2,5.8.9s.2,3.8.2,5.8l-1.8.3-4.9-5.3Z" fill="#ededed"/><path d="M138.7,955.2l5.6,2c-.6,1.6-1.3,3.3-2.1,5.2l-5.7-2.4Z" fill="#d2d2d2"/><path d="M164.1,976.8c-4.8-.8-6.9-2.7-5.1-7.5l5.4,2.3C164.3,972.8,164.2,974.6,164.1,976.8Z" fill="#cacaca"/><path d="M151.4,995.5v-6.1l6.1.4.3,1.4-4.9,4.5Z" fill="#ededed"/><path d="M141.2,996.2l5.6-2.3,1.8,3.8C143.7,1001.6,143,1001.5,141.2,996.2Z" fill="#f5f5f5"/><path d="M109.9,969.8c1.7,5-1.5,5.6-5.2,6.4-.2-2-.2-3.8-.3-5.2Z" fill="#d1d1d1"/><path d="M122.1,994l5.5,2.2c-.8,5.7-3.7,4.5-7.4,2Z" fill="#f5f5f5"/><path d="M113.4,960.3l-3.9,4.8c-5.1-1.5-2.7-4.1-1.3-7.3Z" fill="#adadad"/><path d="M156.5,985.1l3-5.1c6.1,1.3,1.3,4.2,1.9,7.4Z" fill="#f4f4f4"/><path d="M107.4,980.2l4,4.9-3.9.2C107.5,983.6,107.4,981.9,107.4,980.2Z" fill="#f4f4f4"/><path d="M502.8,967.8l-2.6,2.9-1.7-1.7c.9-.9,1.7-1.9,2.6-2.9A13.7,13.7,0,0,0,502.8,967.8Z" fill="#f3f3f3"/><path d="M132.4,968.4l-2.6,2.8-1.2-1.1,2.6-2.9Z" fill="#f3f3f3"/><path d="M1455.2,785.3c.2-2-.3-3.8.5-4.9a30.1,30.1,0,0,1,5-5.1c.4-.3,1.3,0,2,0,12.6-.2,12.5-.2,14.8-12.5,1.4-8,2.9-16,4.6-24,.4-1.6,2-2.8,3-4.2.3,1.6,1,3.3.7,4.8-2,11.7-4.2,23.2-6.5,35.2,5.9,1,6.8,5.1,6.1,10.7h7.3c10.5,0,21-.2,31.5.1,2,.1,4.9,1.4,5.6,3s-.2,4.6-1.5,6.1c-4.9,5.7-10.1,11.1-15.3,16.4-2.2,2.2-2.8,3.9-1.3,6.9,5.6,11.2,10.7,22.6,16.3,33.7a11.5,11.5,0,0,0,5.2,4.8c10.3,5.2,16,13.3,16.3,24.9.2,7.5,0,15,0,22.3,12.1,5.2,14.1,8.9,12.5,21.7-1,8.2-1.6,16.5-2.5,24.8a31.1,31.1,0,0,1-.6,4.4c-2.1,11.1-9.3,15.3-19.8,11.5-1.5-.6-2.5-2.8-3.6-4.3a35.3,35.3,0,0,1-2.1-3.2c-.8,1.2-2,2.3-2.2,3.6-1.6,10.4-5.6,19.6-12.7,27.3-3,3.3-6.6,6.2-10.8,10h18.7c5.5,0,11-.3,16.4.2,1.7.1,3.1,2.6,4.6,4a40.2,40.2,0,0,1-4.5,3.7c-.9.5-2.3.1-3.4.1H1053.6c-3.2,0-7.7,1-7.8-3.8s4.6-4.2,7.9-4.2h29.8c-3.8-3.4-7.4-5.5-9.5-8.6a157.4,157.4,0,0,1-12.1-20.5c-1.5-3.1-2.6-4.7-6.4-3.5-.1,1-.4,2.1-.5,3.2-.3,7.4-1.3,8.3-8.5,8.4H1027c-3.6,0-7.1-.3-7.3-4.7s3-5.4,6.7-5.4a5.3,5.3,0,0,0,1.5-.6l-4.8-24.7c-1.2-6-2.3-12.1-3.7-18-.8-3.4-.3-6,2.6-7.9,6.1-4,8.9-9.6,10.6-16.9,5.6-22.7,22.4-34.2,43.9-38.5,14.1-2.9,28.8-3.1,43.2-4.3s26.9-1.7,40.3-2.9a15.6,15.6,0,0,0,7.9-3.4c20.8-18.6,41.6-37.4,62.3-56.2a35.6,35.6,0,0,1,25-9.6h200Zm78.5,92.9c-.1,5.7-.1,11.4-.2,17.1l3.4,3.6c.8-1.1,2.4-2.2,2.4-3.2-.5-7.2-1.3-14.4-2-21.6l-2.5-2.1a8.1,8.1,0,0,0-1.2,2.9A12.3,12.3,0,0,0,1533.7,878.2Zm7.9,36.2h-12.8l2.7,2.9c3.9,8.2,7.8,16.4,12,24.5a5.2,5.2,0,0,0,4,2.3c1,0,2.7-1.8,2.8-2.9.9-7.3,1.4-14.6,2.1-21.9.3-2.9-.9-4.6-3.9-4.9Zm-508.4,6.7-3.4,4.1c1.2,6.4,2.5,12.7,3.7,19.1,1.6,8.5,1.6,8.5,10.2,7.9l1.6-.7c1.1-10.8,5-20.8,10.7-30.1l1.9-3.1c-7.1,0-13.5-.2-19.8.1C1036.4,918.5,1034.8,920.2,1033.2,921.1Zm159.4-42.8c2.8-3.8,1.8-6.7-2.7-6.9s-8.9.1-13.4-.2-5.8.8-7,4.1l-3,4.5Zm-128.9,14.2c4.3-5.4,7.5-11.3,7.8-19.5-10,4.8-15,12.6-18.9,21.3l-3.6,10.2,1.6.9C1056.4,902.6,1060.5,898.1,1063.7,892.5Zm165.7-71.3,13.8-14.5c-10.1-1.1-10.2-1.1-14.8,3.5l-45,40.9-3.6,1.1,1.8,2.1c5,0,9.9.1,14.9-.1a7.4,7.4,0,0,0,4.3-1.9C1210.4,842,1219.9,831.6,1229.4,821.2Zm79.1-14.8c-13.2,0-26.4-.1-39.7,0a6.6,6.6,0,0,0-4.2,1.7c-2.2,2.2-4.1,4.8-6.1,7.2l-33,38.1,1.2,1.3c3.1-2.6,5.8-6,9.3-7.4s8.3-1.5,12.6-2.1a40.2,40.2,0,0,0,4.9.2c3.8-.3,6.4.7,6.6,5.1-.3,2.6.7,3.8,3.6,3.8l71.8-.2h25.9V806.4h-52.9Zm71,47.7h98c-6.9-15.2-13.5-29.5-20-43.9-.3-2.9-1.9-4.1-5-4-7.7.3-15.3.2-23,.2h-61.8v47.7Zm-217.8,32.3c-3.9,5.4-7.9,10.7-11.6,16.2-.6.8.1,2.5.2,3.8,12.3,10.7,20.9,23.6,23.8,39.9.6,3.2.9,6.4,1.3,9.6h24V896.3c.7-11,2.3-21.8,8.2-31.9h-27l-4.7,1.4.5,1.5h11.3c9.4,0,12.4,4,9.7,12.8-3.1,1.1-6.1,2.8-9.2,3-6.9.5-13.9,0-20.9.3C1165.4,883.5,1163.5,885.3,1161.7,886.4Zm6.2-20,.4-1.9a33.8,33.8,0,0,0-4.5-.1c-21.8,1.4-43.7,2.8-65.6,4.4-6.9.5-13.7,1.8-20.6,2.7-.7.5-1.8,1-2,1.7-1.5,5.2-2.9,10.5-4.3,15.8-4.8,5.9-9.5,11.9-14.6,17.5-2.3,2.4-6.1,4.5-8.9,1.6s-2-5.8-1.5-8.5c.8-4.3,2.9-8.3,4.5-12.5-6.7,6.9-9.6,15.2-10,25.2,6.7,0,13,.2,19.3-.1a12.1,12.1,0,0,0,6.5-2.7c12.2-10.4,26.1-16.1,42.3-16.4,12.1-.3,23.3,2.8,34.3,8.6l7.1-10.4Zm199.8,30.9v58.6h47.4c.3-2.7.5-5,.9-7.2,2.3-16.6,10.5-29.9,22.6-41.1a2.5,2.5,0,0,0,.9-.4q36.4-26.6,75.7-4.2a7.8,7.8,0,0,0,3.2,1.2H1538c-7.9-1.8-8.5-2.6-8.5-11.2,0-4-.2-8,.1-12s.8-9.2,1.4-14.7l-8.5-1.9H1370.6c-2.6-.6-3.1.7-3.1,3C1367.6,877.3,1367.6,887.3,1367.7,897.3Zm-149.1-32.9c-1.8.9-4.1,1.3-5.1,2.6-6,8.8-7.6,18.9-7.8,29.3v59.6h155.6V898.3c.1-10.3.1-20.6.3-30.9,0-2.3-.5-3.6-3.1-3h-80c-6,0-12,.2-17.9.3-.5,4.7-3.2,6.3-7.7,5.7a41.7,41.7,0,0,0-7.9,0,17.5,17.5,0,0,1-14.3-5.3Zm-81.2,134.5h316.3c-11.2-7.7-18.2-17-22.3-28.7-.4-1.3-3.4-1.6-5.4-2.4-1.5,10.5-1.5,10.5-11.1,10.5H1173.5c-3.5,0-6.9.1-8.4-4.4-1-2.7-5.9-2.4-7.1.4C1153.8,984.2,1147.2,992.1,1137.4,998.9Zm379-144.6c0-1.9.2-2.4,0-2.8-6.6-14-13.1-28.1-20-42-.8-1.6-4-2.9-6.1-3.1-7-.3-14-.2-21-.1-5.5.1-6,.9-3.9,5.8,4.8,10.9,9.9,21.5,14.2,32.6,2.9,7.4,7,10.7,15.3,9.7S1509.1,854.3,1516.4,854.3Zm-275.1-56.2.4,1.5h248.2l.3-1.9c-3.4-.8-6.7-2.3-10.1-2.3q-112.8-.1-225.4,0C1250.2,795.4,1245.8,797.2,1241.3,798.1Zm239.2,198.2c22.2,0,41-18.8,41-41.1s-18.7-40.8-40.7-40.9-41.2,18.6-41.3,40.8S1458.2,996.3,1480.5,996.3Zm-370-82c-22,0-40.9,18.7-41,40.6s18.6,41.3,40.8,41.4,41.2-18.7,41.2-40.9S1132.9,914.3,1110.5,914.3Zm173,54h70c2.7,0,7.3,1.5,7.4-2.7s-4.7-3.1-7.4-3.1c-46.7-.2-93.3-.1-140-.1-1.1,0-2.4-.3-3.4.1a21.3,21.3,0,0,0-4.2,2.7c1.4,1,2.7,2.4,4.2,3s3,.2,4.5.2Zm-74.9-115c6.7,2.7,10.1-1.3,13.5-5.2,8.4-9.6,16.7-19.3,25-29,3.2-3.8,6.3-7.8,9.4-11.6l-1.6-1.8c-2.3,1.5-4.9,2.7-6.8,4.6-9.7,10.2-19.3,20.6-28.9,30.9Zm183.4,109c-6.5,0-13-.2-19.4.2-1.6,0-3.1,1.9-4.7,3,1.6.9,3.1,2.6,4.6,2.6,12.7.2,25.3.3,38,0,1.5,0,3.1-2,4.6-3.1-1.5-.9-3-2.5-4.6-2.6C1404.3,962.1,1398.2,962.3,1392,962.3Zm-146.2-98c3.3-.3,7.7,1.1,7.9-5.1s-.6-8-7.9-7.9-10.8,2.7-10.9,6.5S1238.9,864.2,1245.8,864.3Zm-58.1,103.9h0a58.9,58.9,0,0,0,8.4-.1c1.1-.1,2-1.7,3-2.6-.9-1-1.8-2.8-2.7-2.8a170.2,170.2,0,0,0-17.5,0c-1,0-2,1.6-3,2.6,1.1,1,2.1,2.6,3.3,2.8C1182,968.5,1184.8,968.2,1187.7,968.2Zm274.7-184.9c3.7,3,13.4,2.8,16.2-.3C1474.6,780.4,1465.6,780.5,1462.4,783.3Zm-416,179.6c-2.7-2-4.2-3.6-6-4.3s-3.4,2.4-3.2,2.9c1,2.3,2.7,4.3,4.1,6.5Zm466-165.1-.6-2.6-9,1.1,2,5.7Zm33.7,157.3,1.8.2.6-4.2-1.8-.2Z" fill="#1e1e1e"/><path d="M1429.5,806.4c7.7,0,15.3.1,23-.2,3.1-.1,4.7,1.1,5,4-1.6,1.1-3.2,2.7-5,2.9s-6.5.2-10.1.2c8.9,13.3,9.5,15.9,6.1,28-.3,3.8.7,8.8-5.3,8.9l-56.8,1c-4.4,0-7.5-1.8-6.9-6.9V820.9c.1-6,.7-6.6,6.7-6.6H1427a49.9,49.9,0,0,0,6-.8C1431.6,810.6,1430.5,808.5,1429.5,806.4Z" fill="#dfdfdf"/><path d="M1260.1,850.5c-.2-4.4-2.8-5.4-6.6-5.1a40.2,40.2,0,0,1-4.9-.2l20.9-25.9c3.8-5.8,9.4-6.3,15.7-6.1,9.1.3,18.2.1,27.3.1h0c.9,1.8,1.6,3.6,2.6,5.3,6.1,10.6,12.3,21.1,18.4,31.6h0Z" fill="#d8d8d8"/><path d="M1480.5,996.3c-22.3,0-41-18.9-41-41.2s19-40.9,41.3-40.8,40.7,18.8,40.7,40.9S1502.7,996.3,1480.5,996.3Zm29-19c.6-1.2,1.1-2.5,1.7-3.7,9-16.5,6.7-31.7-6.7-44.9s-43.7-13.1-56,10.2c-7.1,13.4-4.3,26,3,38.4,5.2,9.2,13.3,13.9,23.6,15.6C1489.1,995.2,1504,988.4,1509.5,977.3Z" fill="#343434"/><path d="M1110.5,914.3c22.4,0,41,18.7,41,41.1s-18.9,40.9-41.2,40.9-40.9-19-40.8-41.4S1088.5,914.3,1110.5,914.3Zm29,62.9,1.7-3.6c9-16.5,6.9-31.9-6.7-44.8-11.1-10.5-24.1-12.1-38-6.8s-21.6,17.8-22.1,31.7c-.3,8.8,3.5,16.1,7.1,23.6,2.2,2.6,4,5.7,6.6,7.9C1103.4,998.9,1130.9,994.6,1139.5,977.2Z" fill="#343434"/><path d="M1283.5,968.3h-68.9c-1.5,0-3.2.3-4.5-.2s-2.8-2-4.2-3a21.3,21.3,0,0,1,4.2-2.7c1-.4,2.3-.1,3.4-.1,46.7,0,93.3-.1,140,.1,2.7,0,7.5-1.8,7.4,3.1s-4.7,2.7-7.4,2.7Z" fill="#343434"/><path d="M1448.5,841.3c3.4-12.1,2.8-14.7-6.1-28,3.6,0,6.9.3,10.1-.2s3.4-1.8,5-2.9c6.5,14.4,13.1,28.7,20,43.9h-21C1453.9,849.8,1451.2,845.6,1448.5,841.3Z" fill="#d5d5d5"/><path d="M1429.5,806.4c1,2.1,2.1,4.2,3.5,7a49.9,49.9,0,0,1-6,.8h-40.8c-6,0-6.6.6-6.7,6.6v23.4l-11.8-19V806.4Z" fill="#d2d2d2"/><path d="M1353.5,806.4h3.1l4.8,5.8v41.9h-25.9l-2-3.8h0c9,.1,9,.1,9-9,0-2.7.1-5.3.1-8s2.1-6.5,5.9-6.6,6.5-2.9,6.1-7.4a57.6,57.6,0,0,1-.1-5.9C1354.2,811,1353.8,808.7,1353.5,806.4Z" fill="#cbcbcb"/><path d="M1269.5,819.3l-20.9,25.9c-4.3.6-8.8.4-12.6,2.1s-6.2,4.8-9.3,7.4l-1.2-1.3,33-38.1Z" fill="#c4c4c4"/><path d="M1183.4,851.1l45-40.9,5.8.8c-2.6,3.6-4.7,6.4-6.7,9.3-7.8,8.1-16.3,15.6-23.3,24.5S1191.3,852,1183.4,851.1Z" fill="#d8d8d8"/><path d="M1367.7,825.3l11.8,19c-.6,5.1,2.5,6.9,6.9,6.9l56.8-1c6-.1,5-5.1,5.3-8.9,2.7,4.3,5.4,8.5,8,12.8h-77l-11.8-19.8Z" fill="#cacaca"/><path d="M1269.5,819.3l-11-4c2-2.4,3.9-5,6.1-7.2a6.6,6.6,0,0,1,4.2-1.7c13.3-.1,26.5,0,39.7,0,1.4,2.3,2.7,4.6,4,6.9-9.1,0-18.2.2-27.3-.1C1278.9,813,1273.3,813.5,1269.5,819.3Z" fill="#cfcfcf"/><path d="M1312.5,813.3c-1.3-2.3-2.6-4.6-4-6.9h45c.3,2.3.7,4.6,1,6.9Z" fill="#d8d8d8"/><path d="M1333.5,850.3l2,3.8-71.8.2c-2.9,0-3.9-1.2-3.6-3.8Z" fill="#c3c3c3"/><path d="M1392,962.3c6.2,0,12.3-.2,18.5.1,1.6.1,3.1,1.7,4.6,2.6-1.5,1.1-3.1,3.1-4.6,3.1-12.7.3-25.3.2-38,0-1.5,0-3-1.7-4.6-2.6,1.6-1.1,3.1-3,4.7-3C1379,962.1,1385.5,962.3,1392,962.3Z" fill="#343434"/><path d="M1183.4,851.1c7.9.9,14.9,1.2,20.8-6.3s15.5-16.4,23.3-24.5l1.9.9c-9.5,10.4-19,20.8-28.6,31.1a7.4,7.4,0,0,1-4.3,1.9c-5,.2-9.9.1-14.9.1l-1.8-2.1Z" fill="#c2c2c2"/><path d="M1052.6,894.3c3.9-8.7,8.9-16.5,18.9-21.3-.3,8.2-3.5,14.1-7.8,19.5-.6-1.4-1.1-2.9-1.6-4.4-1.6.7-3.4,1.1-4.7,2A48.1,48.1,0,0,0,1052.6,894.3Z" fill="#dbdbdb"/><path d="M1187.7,968.2c-2.9,0-5.7.3-8.5-.2-1.2-.2-2.2-1.8-3.3-2.8,1-1,2-2.6,3-2.6a170.2,170.2,0,0,1,17.5,0c.9,0,1.8,1.8,2.7,2.8-1,.9-1.9,2.5-3,2.6a58.9,58.9,0,0,1-8.4.1Z" fill="#343434"/><path d="M1052.6,894.3a48.1,48.1,0,0,1,4.8-4.2c1.3-.9,3.1-1.3,4.7-2,.5,1.5,1,3,1.6,4.4-3.2,5.6-7.3,10.1-13.1,12.9l-1.6-.9Z" fill="#f2f2f2"/><path d="M1367.7,834.3l11.8,19.8h-11.8Z" fill="#d4d4d4"/><path d="M1169.5,875.3c1.2-3.3,3.6-4.3,7-4.1s9-.1,13.4.2,5.5,3.1,2.7,6.9a80.8,80.8,0,0,0-8.5-2C1179.3,875.8,1174.4,875.6,1169.5,875.3Z" fill="#fafafa"/><path d="M1229.4,821.2l-1.9-.9c2-2.9,4.1-5.7,6.7-9.3l-5.8-.8c4.6-4.6,4.7-4.6,14.8-3.5Z" fill="#cdcdcd"/><path d="M1169.5,875.3c4.9.3,9.8.5,14.6,1a80.8,80.8,0,0,1,8.5,2l-26.1,1.5Z" fill="#d7d7d7"/><path d="M1462.4,783.3c3.2-2.8,12.2-2.9,16.2-.3C1475.8,786.1,1466.1,786.3,1462.4,783.3Z" fill="#343434"/><path d="M1046.4,962.9l-5.1,5.1c-1.4-2.2-3.1-4.2-4.1-6.5-.2-.5,2.5-3.1,3.2-2.9S1043.7,960.9,1046.4,962.9Z" fill="#333"/><path d="M1537.3,874.1c.7,7.2,1.5,14.4,2,21.6,0,1-1.6,2.1-2.4,3.2l-3.4-3.6h1c1-1.7,2.8-3.3,2.9-5,.3-5.4-.1-10.9-.1-16.3Z" fill="#313131"/><path d="M1546.1,955.1l.6-4.2,1.8.2-.6,4.2Z" fill="#333"/><path d="M1361.4,812.2l-4.8-5.8h4.8Z" fill="#d8d8d8"/><path d="M1534.5,895.3h-1c.1-5.7.1-11.4.2-17.1h.9C1534.6,884,1534.6,889.6,1534.5,895.3Z" fill="#ababab"/><path d="M1534.6,878.3h-.9a12.3,12.3,0,0,1-.1-3.3,8.1,8.1,0,0,1,1.2-2.9l2.5,2.1h0Z" fill="#ececec"/><path d="M1336.6,872.1h.9c2,1,5.5,1.7,5.6,2.9.5,3.9-3.2,2.9-5.6,3.3h-18c-.8,0-1.8.2-2.4-.2s-2.3-2.1-3.5-3.1a17.3,17.3,0,0,1,3.5-2.7c1-.5,2.2-.2,3.4-.3Z" fill="#1f1f1f"/><path d="M1448.9,866.5h7.3c7.2,3.1,10.2,8.6,9.2,16.4-2.6,5.5-6.4,9.4-12.9,9.4s-10.2-3.9-12.8-9.4C1438.6,875.1,1441.6,869.6,1448.9,866.5Zm8.6,15.9c-2-1-5.7-2.2-5.6-3,.5-5.5,5.7-1.8,8.6-3.9-1.9-3.8-4.9-5.7-9.1-5.1s-7.6,3.8-7.7,8.9,2.9,8,7.7,8.8,7.2-1.2,9-5.1c-.4-.3-.7-.6-1-.6Z" fill="#202020"/><path d="M1358.5,864.4h-80c-6,0-12,.2-17.9.3-.5,4.7-3.2,6.3-7.7,5.7a41.7,41.7,0,0,0-7.9,0,17.5,17.5,0,0,1-14.3-5.3h0l-12.1-.6c-1.8.9-4.1,1.3-5.1,2.6-6,8.8-7.6,18.9-7.8,29.3v59.6h155.6V898.3c.1-10.3.1-20.6.3-30.9C1361.6,865.1,1361.1,863.8,1358.5,864.4Zm-21,14h-18c-.8,0-1.8.2-2.4-.2s-2.3-2.1-3.5-3.1a17.3,17.3,0,0,1,3.5-2.7c1-.5,2.2-.2,3.4-.3h17c2,1,5.5,1.7,5.6,2.9C1343.6,879,1339.9,878,1337.5,878.4Z" fill="#ed1c24"/><path d="M1529.5,893c0-4-.2-8,.1-12s.8-9.2,1.4-14.7l-8.5-1.9H1370.6c-2.6-.6-3.1.7-3.1,3,.1,9.9.1,19.9.2,29.9v58.6h47.4c.3-2.7.5-5,.9-7.2,2.3-16.6,10.5-29.9,22.6-41.1a2.5,2.5,0,0,0,.9-.4q36.4-26.6,75.7-4.2a7.8,7.8,0,0,0,3.2,1.2H1538C1530.1,902.4,1529.5,901.6,1529.5,893Zm-64.1-10.1h0c-2.6,5.5-6.4,9.4-12.9,9.4s-10.2-3.9-12.8-9.4c-1.1-7.8,1.9-13.3,9.2-16.4h7.3C1463.4,869.6,1466.4,875.1,1465.4,882.9Z" fill="#ed1c24"/><path d="M1469.3,806.3c-5.5.1-6,.9-3.9,5.8,4.8,10.9,9.9,21.5,14.2,32.6,2.9,7.4,7,10.7,15.3,9.7s14.2-.1,21.5-.1c0-1.9.2-2.4,0-2.8-6.6-14-13.1-28.1-20-42-.8-1.6-4-2.9-6.1-3.1C1483.3,806.1,1476.3,806.2,1469.3,806.3Z" fill="#ed1c24"/><path d="M1489.9,799.6l.3-1.9c-3.4-.8-6.7-2.3-10.1-2.3q-112.8-.1-225.4,0c-4.5,0-8.9,1.8-13.4,2.7a8.3,8.3,0,0,1,.4,1.5Z" fill="#ed1c24"/><path d="M1167.9,866.4a10.6,10.6,0,0,1,.4-1.9,33.8,33.8,0,0,0-4.5-.1c-21.8,1.4-43.7,2.8-65.6,4.4-6.9.5-13.7,1.8-20.6,2.7l1.4.4-1.4-.4c-.7.5-1.8,1-2,1.7-1.5,5.2-2.9,10.5-4.3,15.8l1.8.8-1.8-.8c-4.8,5.9-9.5,11.9-14.6,17.5-2.3,2.4-6.1,4.5-8.9,1.6s-2-5.8-1.5-8.5c.8-4.3,2.9-8.3,4.5-12.5-6.7,6.9-9.6,15.2-10,25.2,6.7,0,13,.2,19.3-.1a12.1,12.1,0,0,0,6.5-2.7c12.2-10.4,26.1-16.1,42.3-16.4,12.1-.3,23.3,2.8,34.3,8.6l7.1-10.4Z" fill="#ed1c24"/><path d="M1204.5,864.4h-23.9l-4.7,1.4a8.8,8.8,0,0,0,.5,1.5h11.3c9.4,0,12.4,4,9.7,12.8-3.1,1.1-6.1,2.8-9.2,3-6.9.5-13.9,0-20.9.3-1.9.1-3.8,1.9-5.6,3-3.9,5.4-7.9,10.7-11.6,16.2-.6.8.1,2.5.2,3.8,12.3,10.7,20.9,23.6,23.8,39.9.6,3.2.9,6.4,1.3,9.6h24V896.3c.7-11,2.3-21.8,8.2-31.9Z" fill="#ed1c24"/><path d="M1222.1,848.1c8.4-9.6,16.7-19.3,25-29,3.2-3.8,6.3-7.8,9.4-11.6l-1.6-1.8c-2.3,1.5-4.9,2.7-6.8,4.6-9.7,10.2-19.3,20.6-28.9,30.9l-10.6,12.1C1215.3,856,1218.7,852,1222.1,848.1Z" fill="#ed1c24"/><path d="M1245.8,851.3c-6.5.1-10.8,2.7-10.9,6.5s4,6.4,10.9,6.5c3.3-.3,7.7,1.1,7.9-5.1S1253.1,851.2,1245.8,851.3Z" fill="#ed1c24"/><path d="M1038.1,918.4c-1.7.1-3.3,1.8-4.9,2.7l-3.4,4.1c1.2,6.4,2.5,12.7,3.7,19.1,1.6,8.5,1.6,8.5,10.2,7.9l1.6-.7c1.1-10.8,5-20.8,10.7-30.1l1.9-3.1C1050.8,918.3,1044.4,918.1,1038.1,918.4Z" fill="#ed1c24"/><path d="M1548.5,914.4h-19.7l2.7,2.9c3.9,8.2,7.8,16.4,12,24.5a5.2,5.2,0,0,0,4,2.3c1,0,2.7-1.8,2.8-2.9.9-7.3,1.4-14.6,2.1-21.9C1552.7,916.4,1551.5,914.7,1548.5,914.4Z" fill="#ed1c24"/><path d="M1512.4,797.8l-.6-2.6-9,1.1c.7,1.9,1.4,3.8,2,5.7Z" fill="#ed1c24"/><path d="M1312.5,813.3h42a57.6,57.6,0,0,0,.1,5.9c.4,4.5-1,7.2-6.1,7.4s-5.9,2.7-5.9,6.6-.1,5.3-.1,8c0,9.1,0,9.1-9,9-6.1-10.5-12.3-21-18.4-31.6C1314.1,816.9,1313.4,815.1,1312.5,813.3Z" fill="#e3e3e3"/><path d="M1451.5,977.3c-7.3-12.4-10.1-25-3-38.4,12.3-23.3,41.2-24.7,56-10.2s15.7,28.4,6.7,44.9c-.6,1.2-1.1,2.5-1.7,3.7l-3.7,3.3c-10.5,10.3-23.1,13.6-36.7,8.4C1462.7,986.6,1457.3,981.3,1451.5,977.3Zm52.9-29.3c2-1,5.2-1.1,3.5-4.9s-3.7-1.6-5.7-.9l-3.9,1.9-8.3,3.4,2.9,5.6Zm-34.2-8.7c.9,2.1,1.7,4.2,2.6,6.4l5.6-2.7c-.7-1.7-1.4-3.2-2.1-4.7s-2.1-5.9-3.7-8.6c-.6-1-2.7-1.2-4.1-1.8-.6,1.5-1.8,3.1-1.5,4.2A42.5,42.5,0,0,0,1470.2,939.3Zm20.5,0c1.2-2.3,2.7-4.6,3.3-7.1s-.9-2.8-1.4-4.3c-1.4.6-3.5.8-4.1,1.8a66,66,0,0,0-3.8,8.6l-2.1,4.9,5.9,2.4Zm-34.3,9.1,11.8,5.4c.9-2.4,1.6-4,2.4-6.1l-9-3.5c-1-.5-2-1.1-3-1.5s-4.1-2.7-5.6.9S1453.9,947.8,1456.4,948.4Zm37,29.9c-1.7-4.3-3.5-8.5-5.4-13.2l-6,2.7,5.7,12.5c0,3,1.5,3.7,4.2,2.7S1495.3,980.7,1493.4,978.3Zm-20,2c1.8-4.2,3.6-8.3,5.6-12.7l-6-2.3-5.4,13c-1.4,1.9-1.6,3.3,1,4.5S1472.7,982.8,1473.4,980.3Zm-19.9-17c0,1.7.1,3.4.1,5.1l3.9-.2,13.1-5.8-2.7-5.6Zm52.1-.2-12.8-5.9c-.9,2.2-1.7,3.9-2.6,6l13.1,5.4c2.2,1.7,3.6,1.5,4.7-1.3S1508.4,963.4,1505.6,963.1Zm-18.2-4.2c-.2-2.8.4-6.1-.9-8.3s-5.8-4.2-9.5-2.3-5,6.2-3.4,10.6C1478,964.8,1483.1,964.8,1487.4,958.9Zm-3.2,26,.9-1.2c-1.5-1.4-3.1-4.1-4.6-4s-3,2.6-4.5,4.1a4.4,4.4,0,0,0,.8,1.1Zm-22.7-5.7,2.3-.9c-.2-2.1.1-4.7-1-6.1s-3.8.3-6.7.6Zm42.7-4.6-.9-2.1-6.1.4c.3,1.9.5,3.9.9,7Zm1.1-22.1c-1.3,5.6-1.3,5.6,5,7.3.1-1.8.2-3.5.2-4Zm-54,6.9c3-1.2,6.7-1.5,4.1-7.2C1454.5,955.4,1448.5,953.6,1451.3,959.4Z" fill="#1f1f1f"/><path d="M1451.5,977.3c5.8,4,11.2,9.3,17.6,11.7,13.6,5.2,26.2,1.9,36.7-8.4l3.7-3.3c-5.5,11.1-20.4,17.9-34.4,15.6C1464.8,991.2,1456.7,986.5,1451.5,977.3Z" fill="#5c5c5c"/><path d="M1081.5,977.3c-3.6-7.5-7.4-14.8-7.1-23.6.5-13.9,8.8-26.6,22.1-31.7s26.9-3.7,38,6.8c13.6,12.9,15.7,28.3,6.7,44.8l-1.7,3.6-3.6,3.4c-10.4,10.2-22.6,12.7-36.4,8.9C1092,987.4,1086.9,982.2,1081.5,977.3Zm46.9-33.1-8.3,3.2c1,2.1,1.7,3.7,2.7,5.7l9.9-4.6,5.8-2.4c-.5-4.5-2.1-6.3-6.1-3.9Zm-28.1-4.7,2.4,6.2,5.8-2.7-2.2-4.7c-1-2.6-2-5.1-3.1-7.7s-1.5-4-4.6-2.8-2.5,2.9-1.4,5.1S1099.2,937.3,1100.3,939.5Zm14.4-1.2-2.1,4.8,5.7,2.4c.8-1.9,1.4-3.6,2.1-5.2a49.8,49.8,0,0,0,3.6-8.2c.3-1.1-.9-2.8-1.4-4.2-1.4.6-3.5.8-4.1,1.8A66,66,0,0,0,1114.7,938.3Zm2.6,41c1.8,5.3,2.5,5.4,7.4,1.5l-1.8-3.8c-1.7-3.9-3.3-7.7-5-11.8l-5.6,2.5c.5,1.3.7,2.2,1.1,3.1Zm-19.1-2.2c-.7,1.4-1.3,2.8-1.9,4.2,3.7,2.5,6.6,3.7,7.4-2l5.3-11.7-6.1-2.3C1101.3,969.4,1099.7,973.2,1098.2,977.1Zm-12.7-28.9,12.7,5.6c.9-2.4,1.5-4,2.4-6.1l-11.1-4.3-5.2-2.4C1082.9,944.1,1080.5,946.8,1085.5,948.2Zm-2,15.1c0,1.7.1,3.4.1,5.1l3.9-.2,13-5.9-2.6-5.5Zm49,4.9,5,2.3c-.7-3.2,4.2-6.1-1.9-7.4l-12.8-5.9c-1,2.2-1.7,4-2.6,6Zm-15.1-9.3c-.1-2.7.6-5.8-.6-7.9s-5.5-4.5-9.4-2.9-5.3,5.1-3.8,10.8C1108,964.8,1113.1,964.8,1117.4,958.9Zm-11.5,24.9,1,1.1h7.3l.9-1.2c-1.5-1.5-3.1-4-4.6-4S1107.5,982.3,1105.9,983.8Zm-18.3-11.9-.7,1.7,4.9,5.3,1.8-.3c0-2,.8-4.7-.2-5.8S1089.6,972.1,1087.6,971.9Zm52.6-12c.1-2.2.2-4,.3-5.2l-5.4-2.3C1133.3,957.2,1135.4,959.1,1140.2,959.9Zm-12.7,18.7,1.5.2,4.9-4.5-.3-1.4-6.1-.3ZM1086,952.9l-5.5,1.2c0,1.4.1,3.2.2,5.2C1084.5,958.5,1087.7,957.9,1086,952.9Z" fill="#1f1f1f"/><path d="M1081.5,977.3c5.4,4.9,10.5,10.1,18,12.2,13.8,3.8,26,1.3,36.4-8.9l3.6-3.4c-8.6,17.4-36.1,21.7-51.4,8C1085.5,983,1083.7,979.9,1081.5,977.3Z" fill="#5c5c5c"/><path d="M1534.6,878.3l2.7-4.3c0,5.4.4,10.9.1,16.3-.1,1.7-1.9,3.3-2.9,5C1534.6,889.6,1534.6,884,1534.6,878.3Z" fill="#464646"/><path d="M1443.7,879.3c.1-5.1,2.9-8.1,7.7-8.9s7.2,1.3,9.1,5.1c-2.9,2.1-8.1-1.6-8.6,3.9-.1.8,3.6,2,5.6,3C1451.7,886.4,1447.7,882.9,1443.7,879.3Z" fill="#f4f4f4"/><path d="M1443.7,879.3c4,3.6,8,7.1,13.8,3.1h1.9c.3,0,.6.3,1,.6-1.8,3.9-4.9,5.8-9,5.1S1443.8,884.3,1443.7,879.3Z" fill="#dadada"/><path d="M1473.6,958.9c-1.6-4.4-1.1-8.2,3.4-10.6s7.5-1.2,9.5,2.3.7,5.5.9,8.3C1482.1,955.3,1478.9,955.3,1473.6,958.9Zm5.3-8-1.8-1.7-2.5,3,1.7,1.6Z" fill="#787878"/><path d="M1503.3,968.6l-13.1-5.4c.9-2.1,1.7-3.8,2.6-6l12.8,5.9Z" fill="#d4d4d4"/><path d="M1453.5,963.3l14.4-6.5,2.7,5.6-13.1,5.8Z" fill="#d5d5d5"/><path d="M1467.6,978.3l5.4-13,6,2.3c-2,4.4-3.8,8.5-5.6,12.7Z" fill="#d5d5d5"/><path d="M1487.7,980.3l-5.7-12.5,6-2.7c1.9,4.7,3.7,8.9,5.4,13.2Z" fill="#d5d5d5"/><path d="M1461.6,944.2l9,3.5c-.8,2.1-1.5,3.7-2.4,6.1l-11.8-5.4Z" fill="#d4d4d4"/><path d="M1484.7,938.3a66,66,0,0,1,3.8-8.6c.6-1,2.7-1.2,4.1-1.8.5,1.5,1.7,3.1,1.4,4.3s-2.1,4.8-3.3,7.1Z" fill="#acacac"/><path d="M1470.2,939.3a42.5,42.5,0,0,1-3.2-7.2c-.3-1.1.9-2.7,1.5-4.2,1.4.6,3.5.8,4.1,1.8,1.6,2.7,2.5,5.7,3.7,8.6Z" fill="#acacac"/><path d="M1473.6,958.9c5.3-3.6,8.5-3.6,13.8,0C1483.1,964.8,1478,964.8,1473.6,958.9Z" fill="#414141"/><path d="M1504.4,948l-11.5,5.1-2.9-5.6,8.3-3.4Z" fill="#d4d4d4"/><path d="M1484.7,938.3l6,1-2.2,6.3-5.9-2.4Z" fill="#d1d1d1"/><path d="M1470.2,939.3l6.1-1c.7,1.5,1.4,3,2.1,4.7l-5.6,2.7C1471.9,943.5,1471.1,941.4,1470.2,939.3Z" fill="#d1d1d1"/><path d="M1484.2,984.9h-7.4a4.4,4.4,0,0,1-.8-1.1c1.5-1.5,2.9-4.1,4.5-4.1s3.1,2.6,4.6,4Z" fill="#eaeaea"/><path d="M1504.4,948l-6.1-3.9,3.9-1.9c2-.7,4.1-2.6,5.7.9S1506.4,947,1504.4,948Z" fill="#aaa"/><path d="M1461.5,979.2l-5.4-6.4c2.9-.3,5.9-1.4,6.7-.6s.8,4,1,6.1Z" fill="#e8e8e8"/><path d="M1461.6,944.2l-5.2,4.2c-2.5-.6-4.8-1.3-3.4-4.8s3.6-1.7,5.6-.9S1460.6,943.7,1461.6,944.2Z" fill="#ababab"/><path d="M1504.2,974.6l-6.1,5.3c-.4-3.1-.6-5.1-.9-7l6.1-.4Z" fill="#eaeaea"/><path d="M1505.3,952.5l5.2,3.3c0,.5-.1,2.2-.2,4C1504,958.1,1504,958.1,1505.3,952.5Z" fill="#cfcfcf"/><path d="M1451.3,959.4c-2.8-5.8,3.2-4,4.1-7.2C1458,957.9,1454.3,958.2,1451.3,959.4Z" fill="#cecece"/><path d="M1487.7,980.3l5.7-2c1.9,2.4,1.1,3.8-1.5,4.7S1487.7,983.3,1487.7,980.3Z" fill="#f4f4f4"/><path d="M1467.6,978.3l5.8,2c-.7,2.5-1.7,4-4.8,2.5S1466.2,980.2,1467.6,978.3Z" fill="#f4f4f4"/><path d="M1503.3,968.6l2.3-5.5c2.8.3,3.5,1.5,2.4,4.2S1505.5,970.3,1503.3,968.6Z" fill="#f1f1f1"/><path d="M1453.5,963.3l4,4.9-3.9.2C1453.6,966.7,1453.5,965,1453.5,963.3Z" fill="#f3f3f3"/><path d="M1103.6,958.9c-1.5-5.7-.3-9,3.8-10.8s7.6-.7,9.4,2.9.5,5.2.6,7.9C1112.1,955.3,1108.9,955.3,1103.6,958.9Zm4.9-7.4-1.3-1.2-2.5,2.9,1.2,1.1Z" fill="#787878"/><path d="M1132.5,968.2l-12.3-5c.9-2,1.6-3.8,2.6-6l12.8,5.9C1134.6,964.8,1133.6,966.5,1132.5,968.2Z" fill="#d5d5d5"/><path d="M1083.5,963.3l14.4-6.5,2.6,5.5-13,5.9Z" fill="#d5d5d5"/><path d="M1089.5,943.4l11.1,4.3c-.9,2.1-1.5,3.7-2.4,6.1l-12.7-5.6Z" fill="#d5d5d5"/><path d="M1098.2,977.1c1.5-3.9,3.1-7.7,4.7-11.8l6.1,2.3-5.3,11.7Z" fill="#d5d5d5"/><path d="M1117.3,979.3l-3.9-8.5c-.4-.9-.6-1.8-1.1-3.1l5.6-2.5c1.7,4.1,3.3,7.9,5,11.8Z" fill="#d5d5d5"/><path d="M1114.7,938.3a66,66,0,0,1,3.8-8.6c.6-1,2.7-1.2,4.1-1.8.5,1.4,1.7,3.1,1.4,4.2a49.8,49.8,0,0,1-3.6,8.2Z" fill="#aeaeae"/><path d="M1103.6,958.9c5.3-3.6,8.5-3.6,13.8,0C1113.1,964.8,1108,964.8,1103.6,958.9Z" fill="#414141"/><path d="M1100.3,939.5c-1.1-2.2-2-4.4-3.1-6.6s-1.6-3.9,1.4-5.1,3.7.8,4.6,2.8,2.1,5.1,3.1,7.7Z" fill="#adadad"/><path d="M1132.7,948.5l-9.9,4.6c-1-2-1.7-3.6-2.7-5.7l8.3-3.2Z" fill="#d4d4d4"/><path d="M1132.7,948.5l-4.3-4.3,4-2c4-2.4,5.6-.6,6.1,3.9Z" fill="#acacac"/><path d="M1100.3,939.5l6-1.2,2.2,4.7-5.8,2.7Z" fill="#d3d3d3"/><path d="M1105.9,983.8c1.6-1.5,3.1-4.1,4.6-4.1s3.1,2.5,4.6,4l-.9,1.2h-7.3Z" fill="#efefef"/><path d="M1087.6,971.9c2,.2,4.8-.2,5.8.9s.2,3.8.2,5.8l-1.8.3-4.9-5.3Z" fill="#ededed"/><path d="M1114.7,938.3l5.7,2c-.7,1.6-1.3,3.3-2.1,5.2l-5.7-2.4Z" fill="#d2d2d2"/><path d="M1140.2,959.9c-4.8-.8-6.9-2.7-5.1-7.5l5.4,2.3C1140.4,955.9,1140.3,957.7,1140.2,959.9Z" fill="#cacaca"/><path d="M1127.5,978.6v-6l6.1.3.3,1.4-4.9,4.5Z" fill="#ededed"/><path d="M1117.3,979.3l5.6-2.3,1.8,3.8C1119.8,984.7,1119.1,984.6,1117.3,979.3Z" fill="#f5f5f5"/><path d="M1086,952.9c1.7,5-1.5,5.6-5.3,6.4-.1-2-.2-3.8-.2-5.2Z" fill="#d1d1d1"/><path d="M1098.2,977.1l5.5,2.2c-.8,5.7-3.7,4.5-7.4,2C1096.9,979.9,1097.5,978.5,1098.2,977.1Z" fill="#f5f5f5"/><path d="M1089.5,943.4l-4,4.8c-5-1.4-2.6-4.1-1.2-7.2Z" fill="#adadad"/><path d="M1132.5,968.2c1.1-1.7,2.1-3.4,3.1-5.1,6.1,1.3,1.2,4.2,1.9,7.4Z" fill="#f4f4f4"/><path d="M1083.5,963.3l4,4.9-3.9.2C1083.6,966.7,1083.5,965,1083.5,963.3Z" fill="#f4f4f4"/><path d="M1478.9,950.9l-2.6,2.9-1.7-1.6,2.5-3Z" fill="#f3f3f3"/><path d="M1108.5,951.5l-2.6,2.8-1.2-1.1,2.5-2.9Z" fill="#f3f3f3"/></svg>