<svg id="Cthuluh" xmlns="http://www.w3.org/2000/svg" xmlns:xlink="http://www.w3.org/1999/xlink" width="500" height="500" viewBox="0 0 500 500"><defs><clipPath id="clip-path"><rect x="-1.8" width="501.8" height="501.78" fill="none"/></clipPath></defs><g clip-path="url(#clip-path)"><g id="Background"><rect x="5.7" y="7.5" width="486.8" height="486.78" fill="#74327f"/><path d="M485,15V486.8H13.2V15H485M500,0H-1.8V501.8H500V0Z"/></g><g id="Wings"><path d="M67.2,500C66.1,424.8,6.3,59.5,158-71.5-26.7,87.3-1.1,424.8,0,500Z" fill="#231f20" stroke="#000" stroke-linecap="round" stroke-linejoin="round" stroke-width="5"/><path d="M438.2,500c1.1-75.2,60.9-440.5-90.8-571.5C532.1,87.3,506.5,424.8,505.4,500Z" fill="#231f20" stroke="#000" stroke-linecap="round" stroke-linejoin="round" stroke-width="5"/><path d="M438.2,500c1.1-75.2,60.9-440.5-90.8-571.5,71.7,96.9,17.8,222.6-26.6,236.6H184.7C140.2,151.1,86.3,25.4,158-71.5,6.3,59.5,66.1,424.8,67.2,500Z" fill="#59a38a" stroke="#000" stroke-linecap="round" stroke-linejoin="round" stroke-width="5"/><path d="M158-71.5C6.4,78.6,238.7,424.8,239.8,500" fill="none" stroke="#000" stroke-linecap="round" stroke-linejoin="round" stroke-width="2"/><path d="M67.2,500C66.1,424.8,6.3,59.5,158-71.5c-151.7,131-1,500.1,0,575.3Z" fill="#3e686e" stroke="#000" stroke-miterlimit="10" stroke-width="2"/><path d="M438.2,500c1.1-75.2,60.9-440.5-90.8-571.5,151.7,131,1.1,500.1,0,575.3Z" fill="#3e686e" stroke="#000" stroke-miterlimit="10" stroke-width="2"/><path d="M158-71.5C9.8,128.2,290.8,352.3,291.9,500" fill="none" stroke="#000" stroke-linecap="round" stroke-linejoin="round" stroke-width="2"/><path d="M164.3,82.8C63.3,100.5,57.7,194.3,54.8,290.1c25.7-64.3,70.5-77.9,117.8-85.1" fill="none" stroke="#000" stroke-linecap="round" stroke-linejoin="round" stroke-width="5"/><path d="M347.4-71.5C499,78.6,266.7,424.8,265.6,500" fill="none" stroke="#000" stroke-linecap="round" stroke-linejoin="round" stroke-width="2"/><path d="M347.4-71.5C495.6,128.2,214.6,352.3,213.5,500" fill="none" stroke="#000" stroke-linecap="round" stroke-linejoin="round" stroke-width="2"/><path d="M341.1,82.8c101,17.7,106.6,111.5,109.6,207.3C425,225.8,380.1,212.2,332.8,205" fill="none" stroke="#000" stroke-linecap="round" stroke-linejoin="round" stroke-width="5"/></g><g id="Body"><path d="M144.8,280.5S43.5,286.6,43.5,500H466.7s10.2-199.8-118.8-219.5S144.8,280.5,144.8,280.5Z" fill="#74327f" stroke="#000" stroke-miterlimit="10" stroke-width="5"/><path d="M64.4,500S49.9,317.5,149.9,290.5" fill="none" stroke="#000" stroke-miterlimit="10" stroke-width="2"/><path d="M360.2,296.4c79.4,44.1,76,206,76,206" fill="none" stroke="#000" stroke-miterlimit="10" stroke-width="2"/><path d="M166.3,358.7C98.4,383,95,472.1,100.6,500" fill="none" stroke="#000" stroke-miterlimit="10" stroke-width="2"/><path d="M388.1,500c-.6-115-44.6-141.3-44.6-141.3" fill="none" stroke="#000" stroke-miterlimit="10" stroke-width="2"/><path d="M62.7,363.8S145.5,350.4,165.3,501" fill="none" stroke="#000" stroke-miterlimit="10" stroke-width="5"/><path d="M446.4,362.5S317.3,348.2,323.5,500" fill="none" stroke="#000" stroke-miterlimit="10" stroke-width="5"/><path d="M461.9,427.1s-82.9-4-73.8,109.5" fill="none" stroke="#000" stroke-miterlimit="10" stroke-width="5"/></g><g id="Face"><polygon points="190.7 155.3 183.1 345.7 303.1 421.9 335.3 358.7 275.6 209.7 281 139.7 190.7 155.3" fill="#59a38a" stroke="#000" stroke-miterlimit="10"/><path d="M281.6,434c-5.5-1.6-11.8,1-15.2,5.7s-4,11-2.4,16.5c3,10.2,13.5,17.4,24.2,17.5s20.9-6.4,26.2-15.7,6.2-20.7,3.2-30.9l-30.1-10.8Z" fill="#59a38a" stroke="#000" stroke-linecap="round" stroke-linejoin="round" stroke-width="3"/><path d="M219.3,245.9c-.3,15.6-1.1,34-1.1,50.3s8.2,21.8,15.9,16.2c5.8-4.2,7.4-13.5,3.3-18.5,0,0-4.8-2.6-6.6-11.9,0,0-8.9-15.7,3.5-25.9h0l2.4-64.2Z" fill="#231f20" stroke="#000" stroke-miterlimit="10"/><polygon points="195.3 300.1 198.4 314.4 198.2 348.8 189.6 341.9 189.6 304.4 195.3 300.1" fill="#231f20" stroke="#000" stroke-miterlimit="10"/><path d="M221,367.5c0,4.9,0,26.6-.1,31.6l72.6,19v-8.2l-1.2-37-24.9-30.4L252,329.6,225.5,326l-10.2.6c-.1,11.2-.4,28.6-.5,39.8Z" fill="#231f20" stroke="#000" stroke-linecap="round" stroke-linejoin="round" stroke-width="3"/><path d="M221.5,397.1c6.8-3.2,20.8-4.2,25.6,1.5s6,14,3.7,21.1-6.8,15.7-13.2,19.6c-11.2,6.6-27.4,4.2-37.4-4.1-6.9-5.6-10.5-14.3-11.8-23a131.6,131.6,0,0,1-1-29.4h37.7Z" fill="#59a38a" stroke="#000" stroke-linecap="round" stroke-linejoin="round" stroke-width="3"/><path d="M320.9,307.7a32.4,32.4,0,0,0,45-33.5c-.8-6.1-3.5-12.3-8.6-15.7s-13.6-1.6-17.7,3l-5.3,8.2V230.1l1-25.1c0-9.4-.1-18.7-.2-28,0-4.6-.4-10-4.3-12.4s-6.2-1.4-9.4-1H281l8.6,130.8Z" fill="#59a38a" stroke="#000" stroke-linecap="round" stroke-linejoin="round" stroke-width="3"/><path d="M330.4,294c5.8.1,11.7-.9,16.7-3.8s9-7.7,10-13.4-1.3-12-6.3-15-12.2-1.6-15.2,3.4a7.8,7.8,0,0,0-1.2,4.5h-.1V230.1l-13.1,1v61.4Z" fill="#231f20" stroke="#000" stroke-linecap="round" stroke-linejoin="round" stroke-width="3"/><path d="M183,380.3c.3,7,.4,14.8-4.1,20.3s-11.9,6.7-18,4.2-10.3-8.7-10.8-15.3c-.4-4.6,1.2-9.7,5.1-12.3s10-1.8,12.1,2.4l-1-21.9h16.8Z" fill="#59a38a" stroke="#000" stroke-linecap="round" stroke-linejoin="round" stroke-width="3"/><path d="M161.2,315.5a17.9,17.9,0,0,1-31.9-15.1c-1.9,4.9,3.2,10.4,8.5,10.2s9.6-4.6,11.2-9.6,1.1-10.4.3-15.6-1.7-10.5-1-15.6a24.3,24.3,0,0,1,17.6-19.7l32.5-10.4Z" fill="#59a38a" stroke="#000" stroke-linecap="round" stroke-linejoin="round" stroke-width="3"/><path d="M237.6,147c-18.7-14.2-37.9-20.9-58.1-10.8A63.9,63.9,0,0,0,164.3,147c12-21.6,12.9-43,0-64.2Q180.8,15.3,252.9,0h0c47.9,10.2,77.8,37.8,88.9,82.8-13,21.2-12,42.6,0,64.2a66.4,66.4,0,0,0-15.3-10.8c-20.2-10.1-39.3-3.4-58,10.8Z" fill="#59a38a" stroke="#000" stroke-miterlimit="10"/><path d="M268.5,147c18.7-14.2,37.8-20.9,58-10.8" fill="#fefff9" stroke="#000" stroke-linecap="round" stroke-linejoin="round"/><path d="M268.5,147c17.8,7.9,36.2,11.8,58-10.8" fill="#fefff9" stroke="#000" stroke-linecap="round" stroke-linejoin="round" stroke-width="4"/><path d="M326.5,136.2s-5.6,17-26.7,22S268.5,147,268.5,147c17.2,7.7,29,6.2,49.9-14,1.1.5,7.4,4,8.1,3.2" fill="#231f20" stroke="#000" stroke-linecap="round" stroke-linejoin="round" stroke-width="4"/><path d="M179.5,136.2c21.9,22.6,40.2,18.7,58.1,10.8-18.7-14.2-37.9-20.9-58.1-10.8" fill="#fefff9" stroke="#000" stroke-linecap="round" stroke-linejoin="round"/><line x1="252.9" x2="252.9" y2="310.6" fill="none" stroke="#000" stroke-linecap="round" stroke-linejoin="round" stroke-width="2"/><path d="M164.3,82.8c38.7,0,63.1,24.3,73.3,64.2" fill="none" stroke="#000" stroke-linecap="round" stroke-linejoin="round" stroke-width="4"/><path d="M179.5,136.2C184,104.4,189.8,75,203,59.5" fill="none" stroke="#000" stroke-linecap="round" stroke-linejoin="round" stroke-width="2"/><path d="M174.9,54.3c52.5,0,62.7,40.6,62.7,92.7" fill="none" stroke="#000" stroke-linecap="round" stroke-linejoin="round" stroke-width="4"/><path d="M341.8,82.8c-38.7,0-63.1,24.3-73.3,64.2" fill="none" stroke="#000" stroke-linecap="round" stroke-linejoin="round" stroke-width="4"/><path d="M326.5,136.2C322,104.4,316.2,75,303.1,59.5" fill="none" stroke="#000" stroke-linecap="round" stroke-linejoin="round" stroke-width="2"/><path d="M268.5,147c17.8,7.9,36.2,11.8,58-10.8" fill="none" stroke="#000" stroke-linecap="round" stroke-linejoin="round"/><path d="M331.1,54.3c-52.4,0-62.6,40.6-62.6,92.7" fill="none" stroke="#000" stroke-linecap="round" stroke-linejoin="round" stroke-width="4"/><path d="M292.9,65.7c0-11.4-19.3-30.7-40-30.7h0c-20.8,0-39.8,19.3-39.8,30.7" fill="none" stroke="#000" stroke-linecap="round" stroke-linejoin="round" stroke-width="2"/><path d="M278.7,84c0-3.5-8-9.3-25.8-9.3h0c-17.9,0-25.5,5.8-25.5,9.3" fill="none" stroke="#000" stroke-linecap="round" stroke-linejoin="round" stroke-width="2"/><path d="M269.6,120.3c-5.3-3.3-11.3-2.8-16.7-2.8h0c-5.5,0-11.1-.5-16.5,2.8" fill="none" stroke="#000" stroke-linecap="round" stroke-linejoin="round" stroke-width="2"/><path d="M237.6,147c-18.7-14.2-37.9-20.9-58.1-10.8A63.9,63.9,0,0,0,164.3,147c12-21.6,12.9-43,0-64.2Q180.8,15.3,252.9,0h0c47.9,10.2,77.8,37.8,88.9,82.8-13,21.2-12,42.6,0,64.2a66.4,66.4,0,0,0-15.3-10.8c-20.2-10.1-39.3-3.4-58,10.8Z" fill="none" stroke="#000" stroke-linecap="round" stroke-linejoin="round" stroke-width="4"/><path d="M186.7,165.1c-3.7-1.5-10.1,1-12,4.5s-1.9,7.7-1.9,11.7c-.1,12.3-.1,24.6-.2,36.9l.8,36.1c-1.1,12.5-10.9,24-23.2,26.3-7.3,1.4-15.3-.5-20.4-5.8s-6.1-14.5-1.6-20.3a10.4,10.4,0,0,1,5.5-3.7,6.2,6.2,0,0,1,6.1,2.1,5.3,5.3,0,0,0-3.8,6,5.9,5.9,0,0,0,5.8,4.4c4.2-.1,7.1-4.9,6.3-9s-4.7-7.1-8.8-8c-7.2-1.8-15.2,2.2-18.9,8.7s-3.3,14.8.1,21.5,9.5,11.6,16.3,14.6a42.2,42.2,0,0,0,29.9,1.1C222,278.7,193.8,215.2,186.7,165.1Z" fill="#59a38a" stroke="#000" stroke-linecap="round" stroke-linejoin="round" stroke-width="3"/><path d="M179.5,136.2s5.6,17,26.8,22S237.6,147,237.6,147c-17.2,7.7-29.1,6.2-50-14-1,.5-7.3,4-8.1,3.2" fill="#231f20" stroke="#000" stroke-linecap="round" stroke-linejoin="round" stroke-width="4"/><path d="M239.5,146.5c-14.6,11.4-41.2,10.8-54.3-2.4l1.6,74.3c.1,3.8.1,7.7-1.6,11s-5.9,5.6-9.3,3.9c-1.1-3.1,1.9-6.8,5.2-6.5.9-6.2-6.4-11.6-12.5-10.1s-10.1,7.9-10.5,14.2c-.7,9.9,6.7,19.7,16.3,21.8s20.5-3.8,24-13c1.8-5,1.7-10.3,1.6-15.6-.3-16.2-.6-32.5-1-48.7-.1-5.5,7-7.8,10-3.3h.1c2.2,3.5,2.9,7.6,3.2,11.6a87.9,87.9,0,0,1-6.2,41.2c-6.1,14.8-16.1,27.6-24.7,41.2-11.6,18.4-20.8,39-21.4,60.7s8.8,44.7,27.4,55.9,47.4,7.6,62.6-9.4c5.8-6.5,9.9-14.7,10.3-23.3s-3.6-17.7-10.8-22.4-17.9-4.3-24,1.8-5.9,17.8,1,23,19.4,1.6,16.7-6.3c3.6,11.6-13.6,17-25.4,14.3s-20.8-13.1-24.2-24.7-2-24.2,1.7-35.7,9.4-22.2,14.7-33.1c17.9-37,30.4-79.4,29.5-120.5" fill="#59a38a" stroke="#000" stroke-linecap="round" stroke-linejoin="round" stroke-width="3"/><path d="M233.3,344.5c.7-5.7,6.3-9.5,11.8-7.1s7.7,9.4,7,14.8-5,12-9.9,16a42.1,42.1,0,0,1-35.4,8c-20.9-4.9-32.7-24.7-33.2-45.2-.8-30.5,16.6-57.4,31-82.9,9.1-16.1,17.6-32.8,21-51,1.4-7.5,1.9-15.4-1-22.5s-9.5-12.7-17.1-12.7c-13.2,0-14.7,8.4-14.7,18.5s.9,18.5,1.2,27.7,1.5,22.1-5.2,30.7c-3,3.9-8,6.6-12.9,5.9-9.5-1.2-12-14.2-4-19.1" fill="none" stroke="#000" stroke-linecap="round" stroke-linejoin="round" stroke-width="2"/><path d="M267.5,149.1c-7.1,51.8-7.9,106.8,15.5,153.6,7.4,14.8,17.1,28.5,23.4,43.8s8.9,33.3,1.7,48.3c-4.5,9.2-13.3,16.9-23.6,17.2s-21.1-8.8-19.4-18.9c1.8,6.4,11.3,9.2,17,5.8s7.5-11.9,4.1-17.7-10.8-8.6-17.3-7.1S257,380.8,254.6,387s-2,13.4.2,19.7c5.2,14.6,20.1,24.7,35.6,25.5s30.8-6.9,40.5-19,14.1-27.8,13.7-43.3-5.5-30.6-13-44.2c-9.7-17.7-27-31.6-33.2-50.9-5.3-16.6-6.2-32.9-5.9-50s-.5-28.8-.5-45.9c0-11.3,2.2-13.2,7.5-13.2,2.7,0,7.8-.1,7.8,14.9,0,2.7-.6,6.9-.9,11.4-.6,10-1.6,14.6.3,24.9s11.2,15.3,21.1,14.6a19.1,19.1,0,0,0,13.3-6.5c3.2-3.9,4.2-9.8,1.9-14.2s-8.4-7-13-4.8-6.3,9-2.8,12.7c1.1,1.3,2.8,2.3,2.9,4s-4,3.7-5.9,1.8-2.2-4.8-2.2-7.4l-1.5-70.9c-14.5,12.3-37.8,12.9-52.9,1.2Z" fill="#59a38a" stroke="#000" stroke-linecap="round" stroke-linejoin="round" stroke-width="3"/><path d="M239.2,164.5c-1.3,24-3.6,67.6-4.9,91.6" fill="none" stroke="#000" stroke-linecap="round" stroke-linejoin="round" stroke-width="3"/><path d="M238.4,271.4A8.3,8.3,0,0,0,242,262a8.1,8.1,0,0,0-8.7-5.1c-4.8.7-7.9,6-8.2,10.9-.5,7.4,4.1,15.1,11.1,17.4a14.3,14.3,0,0,0,16.5-6.3" fill="none" stroke="#000" stroke-linecap="round" stroke-linejoin="round" stroke-width="3"/><path d="M283.6,303.9c.6,4.1.2,9.1-.1,13.2s-1.8,8.5-4.8,11.4a15.2,15.2,0,0,1-9.2,4.1,16.4,16.4,0,0,1-17.4-19.5,10.4,10.4,0,0,1,2.9-5.8,6.3,6.3,0,0,1,6.1-1.6c2.4.7,3.9,3.2,4.3,5.7a21.2,21.2,0,0,1-.6,7.5c1.5-1.7,1.9-2.6,3.3-4.3-.4-19.9-.9-42.8-1.4-62.7" fill="none" stroke="#000" stroke-linecap="round" stroke-linejoin="round" stroke-width="3"/><path d="M298.2,328.2c.9,8.3.6,17.7.6,25.9,0,4.5-2.4,10-6.5,12.1s-9.6,1.7-13.3-.3a14.3,14.3,0,0,1-7.4-12,14.5,14.5,0,0,1,6.8-12.4" fill="none" stroke="#000" stroke-linecap="round" stroke-linejoin="round" stroke-width="2"/><path d="M309.9,359.7a18.6,18.6,0,0,1-12.6,11.8,27.1,27.1,0,0,1-17.5-1.5c-6.1-2.7-11.7-7.4-13.8-13.8s-.3-14.3,5.4-17.9a9.9,9.9,0,0,1,6-1.6,6.4,6.4,0,0,1,5.2,3.1c1.1,2,.9,4.4.3,6.6s-1.6,4.2-2,6.4-.3,3.6,1,4.7,4.5.5,5.7-1.3,1.3-4.3,1.3-6.5c.2-11.3.3-23.5.5-34.7" fill="none" stroke="#000" stroke-linecap="round" stroke-linejoin="round" stroke-width="3"/><path d="M238.1,285.6a10.2,10.2,0,0,1,6.9,6.8,21.1,21.1,0,0,1,.5,10,31.2,31.2,0,0,1-6.3,15.5c-6.9,8.6-20.2,11.2-29.9,5.9s-15.8-17.8-12.4-28.3" fill="none" stroke="#000" stroke-linecap="round" stroke-linejoin="round" stroke-width="3"/><path d="M236,311.7c-7.6,6.7-17.5,3.2-20.9-1.6s-2.7-7.8-2.8-11.9c-.2-11.5.4-101.1.2-112.6" fill="none" stroke="#000" stroke-linecap="round" stroke-linejoin="round" stroke-width="2"/><path d="M198.1,311.7v76.7c0,9.2,0,18.8,4,27.2s12.8,15.3,22.1,13.9A16.8,16.8,0,0,0,237.2,419a16.5,16.5,0,0,0-3.3-16.2" fill="none" stroke="#000" stroke-linecap="round" stroke-linejoin="round" stroke-width="2"/><path d="M215.3,326.6c-.1,11.2-.4,50.7-.5,61.9" fill="none" stroke="#000" stroke-linecap="round" stroke-linejoin="round" stroke-width="2"/><path d="M325.9,231.4c-8.1-4.2-11.3-14.3-11.4-23.5-.3-12.4,3.6-25.9-2.9-37.3-2.6-4.5-6.9-8.1-11.9-9-8.1-1.4-16,4.6-19.6,12-6.1,12.9-4.7,29.1-4.7,43.1-.1,17.1,1.3,34.4,5.4,51.1,4.7,18.9,13.1,37,26,51.5S331,350.7,332,372c1,19.3-6.8,39.1-24.7,48.4-9.2,4.7-20.8,5.5-30,.7s-15.2-15.8-13-25.9a11.2,11.2,0,0,1,4.2-7.4c2.4-1.8,6.5-2,8.6.6" fill="none" stroke="#000" stroke-linecap="round" stroke-linejoin="round" stroke-width="2"/><path d="M300.5,404.8c.2,9.2.4,17.4.6,26.5" fill="none" stroke="#000" stroke-linecap="round" stroke-linejoin="round" stroke-width="2"/><path d="M298.2,274.1v54.1" fill="none" stroke="#000" stroke-linecap="round" stroke-linejoin="round" stroke-width="2"/><path d="M308.2,222.5c-1.2,18.5-6.9,44.1,2.7,61.6s42.2,13.7,46.2-7.3c1.1-5.7-1.3-12-6.3-15s-12.2-1.6-15.2,3.4-.3,12.5,5.4,13.7c3.2.7,6.9-.9,8-4s-1.8-7-5.1-6.5" fill="none" stroke="#000" stroke-linecap="round" stroke-linejoin="round" stroke-width="2"/><path d="M165.9,250.1a24.3,24.3,0,0,0-17.6,19.7c-.7,5.1.3,10.4,1,15.6s1.3,10.6-.3,15.6-6,9.4-11.2,9.6-10.4-5.3-8.5-10.2a17.9,17.9,0,0,0,31.9,15.1" fill="none" stroke="#000" stroke-linecap="round" stroke-linejoin="round" stroke-width="3"/><path d="M187.4,382.8a131.6,131.6,0,0,0,1,29.4,39.1,39.1,0,0,0,11.8,23c8.8,8.3,26.2,10.7,37.4,4.1,6.4-3.9,10.9-12.4,13.2-19.6s1.2-15.4-3.7-21.1-13.5-8.1-20.3-4.9-10.3,12.2-6.9,18.8,12,9.2,17.3,3.8" fill="none" stroke="#000" stroke-linecap="round" stroke-linejoin="round" stroke-width="3"/><path d="M237.6,387.8a19.2,19.2,0,0,1,11.9,5.6,28.3,28.3,0,0,1,2.7-13.4,30.3,30.3,0,0,1-14.3,7.4" fill="none" stroke="#000" stroke-linecap="round" stroke-linejoin="round" stroke-width="3"/><path d="M221,340.5c0,4.9,0,53.6-.1,58.6" fill="none" stroke="#000" stroke-linecap="round" stroke-linejoin="round" stroke-width="2"/><path d="M320.9,307.7a32.4,32.4,0,0,0,45-33.5c-.8-6.1-3.5-12.3-8.6-15.7s-13.6-1.6-17.7,3" fill="none" stroke="#000" stroke-linecap="round" stroke-linejoin="round" stroke-width="3"/><path d="M306.5,291.4c8.6,11.8,26.8,14,36,10.3s17.4-12.8,18.9-23.1" fill="none" stroke="#000" stroke-linecap="round" stroke-linejoin="round" stroke-width="2"/><line x1="321.2" y1="231.1" x2="321.2" y2="292.5" fill="none" stroke="#000" stroke-linecap="round" stroke-linejoin="round" stroke-width="3"/><line x1="334.3" y1="230.1" x2="334.3" y2="269.7" fill="none" stroke="#000" stroke-linecap="round" stroke-linejoin="round" stroke-width="3"/><path d="M321.4,163.6c3.2-.4,6.7-.8,9.4,1s4.3,7.8,4.3,12.4c.1,9.3.2,18.6.2,28" fill="none" stroke="#000" stroke-linecap="round" stroke-linejoin="round" stroke-width="3"/><path d="M327.7,237.3v50.3" fill="none" stroke="#000" stroke-linecap="round" stroke-linejoin="round" stroke-width="3"/><path d="M317.6,427.1c3,10.2,2.2,21.7-3.2,30.9s-15.5,15.8-26.2,15.7S267,466.4,264,456.2c-1.6-5.5-1-11.9,2.4-16.5s9.7-7.3,15.2-5.7,9.6,7.7,8.2,13.3c-1,4-5,7.3-9.1,6.6s-6.8-6.1-4.2-9.4" fill="none" stroke="#000" stroke-linecap="round" stroke-linejoin="round" stroke-width="3"/><path d="M301.1,429.7c-.4,5.6.2,11.1-.3,16.7s-2.5,11.3-6.9,14.6-10.7,4.5-15.5,2-8.3-5.6-9.6-11a20.4,20.4,0,0,1,1.3-13.6c1.4-3,6.6-4.9,9.9-4.7" fill="none" stroke="#000" stroke-linecap="round" stroke-linejoin="round" stroke-width="2"/><path d="M279.8,472.8a18.8,18.8,0,0,0,.1,13.8,17.5,17.5,0,0,0,10.5,10.3,14.3,14.3,0,0,0,14.1-3.1c3.9-3.8,5-9.6,5.9-15a23.2,23.2,0,0,1-8.5,5.7c-3.2,1.1-7,1-9.8-1s-4.1-6.1-2.3-9.1Z" fill="#59a38a" stroke="#000" stroke-linecap="round" stroke-linejoin="round" stroke-width="3"/><path d="M159,389.5c1.7,4.9,8.3,4.3,10,1.1,3-5.4-1.6-8.6-1.9-13.5-.4-6.5-.5-11.9-.8-18.4" fill="none" stroke="#000" stroke-linecap="round" stroke-linejoin="round" stroke-width="3.17"/><path d="M336.6,269.6l-.8,11.8a4.6,4.6,0,0,0,5.4,4.8l1-.2a4.5,4.5,0,0,0,1.2-8.3h-.1c-3.3-2-6-4.2-6.7-8" fill="#59a38a" stroke="#000" stroke-miterlimit="10"/><path d="M347.5,264.5c-2.9-1.3-6.6,1.9-5.3,5s3.2,2.6,4.9,3.7,2.8,4.2,3.3,6.8c-.2-1,2.5-3.2,3-4a5.6,5.6,0,0,0,.3-4.2,12.1,12.1,0,0,0-6.2-7.3" fill="#59a38a" stroke="#000" stroke-miterlimit="10"/><path d="M234.8,233.5a69.2,69.2,0,0,0-8.2,13.2c-1,2.3-1.9,4.9-1.4,7.3s3,4.7,5.4,4a4.6,4.6,0,0,0,2.9-3,13.1,13.1,0,0,0,.7-4.4l.5-16.5" fill="#59a38a" stroke="#000" stroke-linecap="round" stroke-linejoin="round" stroke-width="3"/><path d="M234.1,312.4c5.8-4.2,7.4-13.5,3.3-18.5" fill="none" stroke="#000" stroke-linecap="round" stroke-linejoin="round" stroke-width="3"/><path d="M238.1,294.6s6.9-2.2,5.5,15.7c0,0,4.7-20.3-2.1-23s-12.5-4.8-12.5-4.8l3.6,14.3Z" fill="#231f20" stroke="#000" stroke-miterlimit="10"/></g><g id="Book"><path d="M232.1,412.9,129.8,402.4l11.5,33.4c-1,2.7-22.1,7.1-26.4-5.7l37.2,106.5,126.4-2.8L249.1,432.3Z" fill="#d35447" stroke="#000" stroke-linejoin="round" stroke-width="4"/><path d="M221.5,414.9a20,20,0,0,0-10.2,11.2c-1.9,4.8-1.1,10.9,1,15.6" fill="none" stroke="#000" stroke-linecap="round" stroke-linejoin="round" stroke-width="3"/><path d="M247.6,427.6c-.9-4.3-4.8-10-10.4-11.3" fill="none" stroke="#000" stroke-linecap="round" stroke-linejoin="round" stroke-width="3"/><circle cx="230" cy="432.3" r="19.1" fill="#ea817d" stroke="#000" stroke-miterlimit="10" stroke-width="4"/><circle cx="130.9" cy="419.7" r="19.1" fill="none" stroke="#000" stroke-miterlimit="10" stroke-width="3"/><line x1="230" y1="451.4" x2="130.9" y2="438.8" fill="none" stroke="#000" stroke-miterlimit="10" stroke-width="4"/><line x1="143.3" y1="440.4" x2="177.3" y2="536.6" fill="none" stroke="#000" stroke-miterlimit="10" stroke-width="4"/><line x1="218.1" y1="449.5" x2="252.1" y2="545.7" fill="none" stroke="#000" stroke-miterlimit="10" stroke-width="4"/><line x1="127.5" y1="464.3" x2="228.1" y2="477.7" fill="none" stroke="#000" stroke-miterlimit="10" stroke-width="2"/><path d="M130.9,400.5c11.1,1.6,18.5,1.6,19.1,19.2.4,10.5-8.5,19.1-19.1,19.1L230,451.4a19.1,19.1,0,0,1,0-38.2h2.1Z" fill="#eebb76" stroke="#000" stroke-linecap="round" stroke-linejoin="round" stroke-width="4"/><line x1="146.5" y1="408.6" x2="217.2" y2="418.1" fill="none" stroke="#000" stroke-miterlimit="10" stroke-width="2"/><line x1="150" y1="419.7" x2="213.1" y2="428.3" fill="none" stroke="#000" stroke-miterlimit="10" stroke-width="2"/><line x1="148.6" y1="427.1" x2="211.3" y2="436.1" fill="none" stroke="#000" stroke-miterlimit="10" stroke-width="2"/><line x1="143.7" y1="433.9" x2="215" y2="444.2" fill="none" stroke="#000" stroke-miterlimit="10" stroke-width="2"/></g><line x1="503.1" y1="500" x2="1.3" y2="500" fill="none" stroke="#000" stroke-linecap="round" stroke-linejoin="round" stroke-width="30"/></g></svg>