<?xml version="1.0" encoding="utf-8"?>
<!-- Generator: Adobe Illustrator 25.1.0, SVG Export Plug-In . SVG Version: 6.00 Build 0)  -->
<svg version="1.1" xmlns="http://www.w3.org/2000/svg" xmlns:xlink="http://www.w3.org/1999/xlink" x="0px" y="0px"
	 viewBox="0 0 1000 1000" style="enable-background:new 0 0 1000 1000;" xml:space="preserve">
<style type="text/css">
	.st0{display:none;}
	.st1{display:inline;fill:#231F20;}
	.st2{display:inline;}
	.st3{fill:#231F20;}
</style>
<g id="Layer_1" class="st0">
	<path class="st1" d="M950,50v900H50V50H950 M1000,0H0v1000h1000V0z"/>
	<g class="st2">
		<path d="M159.7,197.8v3.4c0,9.8-3,16-9.7,19.1v0.3c8.1,3.1,11.2,10.3,11.2,20.4v7.8c0,14.8-7.8,22.7-22.8,22.7h-23.7v-95.7h22.7
			C153,175.8,159.7,183,159.7,197.8z M129.8,189.5v25.3h5.9c5.6,0,9-2.5,9-10.1v-5.3c0-6.8-2.3-9.8-7.7-9.8H129.8z M129.8,228.5
			v29.4h8.6c5.1,0,7.8-2.3,7.8-9.4v-8.3c0-8.9-2.9-11.6-9.7-11.6H129.8z"/>
		<path d="M185.3,216.1H206v13.7h-20.7v28h26v13.7h-41v-95.7h41v13.7h-26V216.1z"/>
		<path d="M265.6,197.8v3.4c0,9.8-3,16-9.7,19.1v0.3c8.1,3.1,11.2,10.3,11.2,20.4v7.8c0,14.8-7.8,22.7-22.8,22.7h-23.7v-95.7h22.7
			C258.9,175.8,265.6,183,265.6,197.8z M235.6,189.5v25.3h5.9c5.6,0,9-2.5,9-10.1v-5.3c0-6.8-2.3-9.8-7.7-9.8H235.6z M235.6,228.5
			v29.4h8.6c5.1,0,7.8-2.3,7.8-9.4v-8.3c0-8.9-2.9-11.6-9.7-11.6H235.6z"/>
		<path d="M324.8,271.5h-15.2l-2.6-17.4h-18.5l-2.6,17.4h-13.8l15.3-95.7h22L324.8,271.5z M290.5,241.2H305l-7.1-48.4h-0.3
			L290.5,241.2z"/>
		<path d="M366.6,202.2h-0.3v69.3h-13.5v-95.7h18.9l15.2,57.3h0.3v-57.3h13.4v95.7h-15.5L366.6,202.2z"/>
		<path d="M426.4,216.1h20.7v13.7h-20.7v28h26v13.7h-41v-95.7h41v13.7h-26V216.1z"/>
		<path d="M476,175.8v73.8c0,6.8,3,9.3,7.8,9.3c4.8,0,7.8-2.5,7.8-9.3v-73.8h14.2v72.9c0,15.3-7.7,24.1-22.4,24.1
			c-14.8,0-22.4-8.8-22.4-24.1v-72.9H476z"/>
		<path d="M531.2,216.1h20.7v13.7h-20.7v28h26v13.7h-41v-95.7h41v13.7h-26V216.1z"/>
		<path d="M632.2,199.5v12.4c0,15.3-7.4,23.7-22.4,23.7h-7.1v36h-15v-95.7h22.2C624.8,175.8,632.2,184.1,632.2,199.5z M602.7,189.5
			v32.4h7.1c4.8,0,7.4-2.2,7.4-9v-14.4c0-6.8-2.6-9-7.4-9H602.7z"/>
		<path d="M670.7,271.5c-0.8-2.5-1.4-4-1.4-11.8v-15c0-8.9-3-12.2-9.8-12.2h-5.2v39h-15v-95.7h22.7c15.6,0,22.3,7.2,22.3,22v7.5
			c0,9.8-3.1,16.1-9.8,19.3v0.3c7.5,3.1,10,10.3,10,20.2v14.8c0,4.6,0.1,8.1,1.6,11.6H670.7z M654.2,189.5v29.4h5.9
			c5.6,0,9-2.5,9-10.1v-9.4c0-6.8-2.3-9.8-7.7-9.8H654.2z"/>
		<path d="M692.9,198.8c0-15.3,8.1-24.1,22.8-24.1s22.8,8.8,22.8,24.1v49.8c0,15.3-8.1,24.1-22.8,24.1s-22.8-8.8-22.8-24.1V198.8z
			 M708,249.5c0,6.8,3,9.4,7.8,9.4c4.8,0,7.8-2.6,7.8-9.4v-51.7c0-6.8-3-9.4-7.8-9.4c-4.8,0-7.8,2.6-7.8,9.4V249.5z"/>
	</g>
	<g class="st2">
		<path d="M123.5,332.1h17.4c12,0,17.1,5.6,17.1,16.9v2.9c0,7.6-2.3,12.3-7.5,14.4v0.2c6.2,2.1,8.6,7.6,8.6,15.3v6.3
			c0,11.3-6,17.4-17.5,17.4h-18.2V332.1z M139.6,362.1c4.3,0,6.9-1.9,6.9-7.8v-4.1c0-5.3-1.8-7.6-5.9-7.6h-5.6v19.4H139.6z
			 M141.7,395.2c3.9,0,6-1.8,6-7.2v-6.4c0-6.8-2.2-8.9-7.5-8.9h-5.1v22.6H141.7z"/>
		<path d="M164.9,389.3v-20.8c0-11.1,5.9-17.4,16.4-17.4s16.4,6.3,16.4,17.4v20.8c0,11.1-5.9,17.4-16.4,17.4
			S164.9,400.4,164.9,389.3z M186.5,390.3v-22.9c0-3.7-1.2-6.5-5.3-6.5s-5.3,2.8-5.3,6.5v22.9c0,3.8,1.3,6.5,5.3,6.5
			S186.5,394.1,186.5,390.3z"/>
		<path d="M205.2,332.1h11.1v73.5h-11.1V332.1z"/>
		<path d="M248.1,405.7c-0.3-0.6-0.7-2.9-0.9-6.3c-1.9,4.6-5.9,7.4-10.8,7.4c-7.4,0-12.1-4.6-12.1-15.6v-24.4
			c0-11,4.7-15.6,12.1-15.6c4,0,7.4,1.8,9.6,4.9v-23.8H257v58.1c0,7.6,0.5,12.4,1.3,15.4H248.1z M245.9,388.2v-18.7
			c0-6.3-2.6-8.6-5.8-8.6c-3.7,0-4.7,2.8-4.7,6.5v22.9c0,3.7,1.1,6.5,4.7,6.5C243.2,396.8,245.9,394.5,245.9,388.2z"/>
	</g>
	<g class="st2">
		<path d="M640.4,772.3l77.7-191.1h-73.9v-38.1H763v37.3l-77.7,191.1H763v38.1H640.4V772.3z"/>
		<path d="M780.6,776.1l68.2-126.4h-64.3v-34.3h107V649l-68.2,126.4h68.2v34.3H780.6V776.1z"/>
	</g>
	<g class="st2">
		<path d="M200.7,757.5h-48.4l-7.2,52.2h-38.8l43.4-266.5h56.7l43.4,266.5h-41.9L200.7,757.5z M195.3,721.3l-19-134.4l-18.7,134.4
			H195.3z"/>
		<path d="M348.8,809.6c-1.1-2.3-2.7-10.7-3-22.8c-7.2,17.1-21.7,26.7-41.1,26.7c-25.9,0-42.3-18.7-42.3-48.7
			c0-30.5,12.6-48,46.8-64.7c27.8-13.7,31.6-17.1,31.6-27.8v-3.8c0-15.6-4.9-22.1-16.4-22.1c-12.6,0-18.3,8-18.3,22.5v7.2h-38.1v-5
			c0-37.7,19.4-59.4,56.7-59.4c40.4,0,56.4,21.3,56.4,64v78.1c0,27.4,1.9,44.9,4.6,56H348.8z M340.8,746.4v-33.1
			c-3,3.8-9.1,7.6-19.8,14.5c-12.2,7.6-18.3,17.5-18.3,30.1c0,13.7,5.7,20.9,17.1,20.9C333.5,778.8,340.8,767.8,340.8,746.4z"/>
	</g>
</g>
<g id="Layer_2">
	<g>
		<path d="M126.7,170.8h20.6c15.4,0,21.6,6.8,21.6,22.3v4.2c0,11-3.8,17.5-11.9,20.1v0.3c9.5,2.4,13.4,9.3,13.4,21v8.3
			c0,15.3-6.6,22.6-21.7,22.6h-22V170.8z M145.8,215.1c11.4,0,16.7-4.8,16.7-16.7v-4.8c0-12-4.2-16.9-15.3-16.9h-14v38.4H145.8z
			 M148.7,263.7c10.9,0,15.3-5.1,15.3-16.8v-8.3c0-12.6-4.9-17.5-17.9-17.5h-12.9v42.6H148.7z"/>
		<path d="M221.6,220.6v14.1h-33.3v14.4c0,10.7,4.5,16.2,13.4,16.2c9,0,13.7-5.5,13.7-16.2v-1.7h6.2v1.1c0,14.4-7.1,22.5-19.9,22.5
			c-13,0-19.8-8-19.8-22.5v-28c0-14.4,6.8-22.5,19.8-22.5C214.5,198.2,221.6,206.2,221.6,220.6z M215.4,229.1v-9
			c0-10.7-4.8-16.2-13.7-16.2s-13.4,5.5-13.4,16.2v9H215.4z"/>
		<path d="M274.4,218.2v32.6c0,13.6-6.1,20.2-16.8,20.2c-8,0-14.3-4.5-17.2-12.4l-0.8,11h-4.7v-98.9h6.4v37.8
			c3.2-6.6,9-10.4,16.4-10.4C268.3,198.2,274.4,204.7,274.4,218.2z M268.2,218.9c0-9.6-3.8-15.1-12-15.1c-8.6,0-15,7.6-15,20.1v21.5
			c0,12.4,6.4,20.1,15,20.1c8.2,0,12-5.5,12-15.1V218.9z"/>
		<path d="M320.2,269.6c-0.6-2.1-0.8-6.1-1-10.7c-3.1,7.8-9.3,12.1-17.8,12.1c-10,0-16-6.5-16-16.9c0-10.6,4.8-16.7,17.9-22.5
			c13.3-5.8,15.1-7.3,15.1-13v-2c0-8.2-4.5-12.9-12.3-12.9c-7.8,0-13.1,4.5-13.1,13.4v1.6h-5.9v-1.3c0-12.6,7.6-19.3,19.2-19.3
			c12.1,0,18.4,6.9,18.4,19.3v34.2c0,7.8,0.4,14,1.4,17.9H320.2z M318.5,245.2v-16.4c-1.4,2.4-4.9,4.2-13.3,7.9
			c-9.6,4.2-13.4,9.2-13.4,16.8c0,7.5,4,11.9,11.2,11.9C312.3,265.4,318.5,257.6,318.5,245.2z"/>
		<path d="M336.7,252.1v-2.5h6.1v2.7c0,8.8,5.1,13.1,13,13.1c7.8,0,13-4.2,13-12.9c0-8.6-6.9-12.1-14.1-15.5
			c-8.3-4-17.2-8.2-17.2-20.9c0-11,7.1-17.9,18.1-17.9c10.9,0,18.2,6.9,18.2,18.6v1.3h-5.9v-1.4c0-8.6-5.1-12.9-12.1-12.9
			c-6.8,0-12.1,4.2-12.1,12.3c0,8.6,6.8,11.9,14.3,15.4c8.3,4,17.2,8.3,17.2,21c0,11.6-7.1,18.5-18.9,18.5
			C344,271,336.7,264.1,336.7,252.1z"/>
		<path d="M410.5,170.8h9l29.1,82.2v-82.2h6.2v98.9h-7.2l-30.9-88.4v88.4h-6.2V170.8z"/>
		<path d="M508.6,220.6v14.1h-33.3v14.4c0,10.7,4.5,16.2,13.4,16.2c9,0,13.7-5.5,13.7-16.2v-1.7h6.2v1.1c0,14.4-7.1,22.5-19.9,22.5
			c-13,0-19.8-8-19.8-22.5v-28c0-14.4,6.8-22.5,19.8-22.5C501.5,198.2,508.6,206.2,508.6,220.6z M502.3,229.1v-9
			c0-10.7-4.8-16.2-13.7-16.2s-13.4,5.5-13.4,16.2v9H502.3z"/>
		<path d="M560.2,199.6v70h-5.5l-0.1-10.2c-3,7.3-8.9,11.6-16.8,11.6c-10.9,0-16.5-6.5-16.5-20.1v-51.4h6.4V250
			c0,10.2,3.8,15.4,11.6,15.4c8.6,0,14.7-7.5,14.7-20.1v-45.8H560.2z"/>
		<path d="M613.9,220.6v14.1h-33.3v14.4c0,10.7,4.5,16.2,13.4,16.2c9,0,13.7-5.5,13.7-16.2v-1.7h6.2v1.1c0,14.4-7.1,22.5-19.9,22.5
			c-13,0-19.8-8-19.8-22.5v-28c0-14.4,6.8-22.5,19.8-22.5C606.8,198.2,613.9,206.2,613.9,220.6z M607.7,229.1v-9
			c0-10.7-4.8-16.2-13.7-16.2c-8.9,0-13.4,5.5-13.4,16.2v9H607.7z"/>
		<path d="M650.6,170.8h20.3c15,0,21.6,7.5,21.6,23.6v7.2c0,16.1-6.6,23.4-21.6,23.4h-13.8v44.6h-6.5V170.8z M670.9,219.1
			c10.6,0,15.1-4.8,15.1-17.2v-7.9c0-12.4-4.5-17.2-15.1-17.2h-13.8v42.4H670.9z"/>
		<path d="M730.5,199v6.4c-1.6-0.7-3-1-4.8-1c-10,0-15,7.8-15,24v41.2h-6.4v-70h5.4l0.1,11.3c2.7-8.6,8-12.7,15.7-12.7
			C727.4,198.2,729,198.3,730.5,199z"/>
		<path d="M738,248.6v-28c0-14.4,6.9-22.5,19.8-22.5s19.8,8,19.8,22.5v28c0,14.4-6.9,22.5-19.8,22.5S738,263,738,248.6z
			 M771.2,249.2v-29.1c0-10.3-4.2-16.2-13.4-16.2s-13.4,5.9-13.4,16.2v29.1c0,10.3,4.2,16.2,13.4,16.2S771.2,259.5,771.2,249.2z"/>
	</g>
	<g>
		<path d="M124.6,332.2H141c11.9,0,16.8,5.3,16.8,17.2v3.1c0,8.4-2.7,13.2-8.7,15.3v0.2c7,2,9.9,7.3,9.9,16v6.4
			c0,11.7-5.3,17.6-17,17.6h-17.4V332.2z M139.7,365.5c7.7,0,11.4-3.3,11.4-11.6V350c0-8.2-2.8-11.7-10.3-11.7h-9.4v27.2H139.7z
			 M142,402c7.3,0,10.3-3.4,10.3-11.5v-6.5c0-9-3.4-12.4-12.3-12.4h-8.7V402H142z"/>
		<path d="M167,391.8v-21.5c0-11.2,5.5-17.5,15.6-17.5c10.1,0,15.6,6.3,15.6,17.5v21.5c0,11.2-5.5,17.5-15.6,17.5
			C172.6,409.2,167,402.9,167,391.8z M191.7,392.4v-22.7c0-6.9-2.8-11.1-9.1-11.1c-6.4,0-9.1,4.1-9.1,11.1v22.7c0,6.8,2.8,11,9.1,11
			C188.9,403.4,191.7,399.2,191.7,392.4z"/>
		<path d="M207.1,391.8v-21.5c0-11.2,5.5-17.5,15.6-17.5c10.1,0,15.6,6.3,15.6,17.5v21.5c0,11.2-5.5,17.5-15.6,17.5
			C212.7,409.2,207.1,402.9,207.1,391.8z M231.9,392.4v-22.7c0-6.9-2.8-11.1-9.1-11.1c-6.4,0-9.1,4.1-9.1,11.1v22.7
			c0,6.8,2.8,11,9.1,11C229.1,403.4,231.9,399.2,231.9,392.4z"/>
		<path d="M262.3,380.6l-7.5,10.7v16.8h-6.5v-75.9h6.5v49.9l19.1-28.2h7.2l-14.3,20.5l15,33.7h-7.2L262.3,380.6z"/>
	</g>
	<g>
		<path d="M644.6,809.2l98.3-242.6h-94.4v-16.5h114v16.1l-98.3,242.6h98.3v16.5H644.6V809.2z"/>
		<path d="M786.2,810.3l85.3-164.7h-81.4v-15.3h100.6v14.9L805.4,810h85.3v15.3H786.2V810.3z"/>
	</g>
	<g>
		<path d="M217.8,762h-77.1l-13,63.3h-17.3l57-275.2h24.4l57.8,275.2h-18.5L217.8,762z M214.6,745.9l-35.8-171l-35,171H214.6z"/>
		<path d="M369.1,825.3c-1.6-5.9-2.4-16.9-2.8-29.9c-8.6,21.6-25.9,33.8-49.5,33.8c-27.9,0-44.4-18.1-44.4-47.2
			c0-29.5,13.4-46.4,49.9-62.5c37-16.1,42.1-20.4,42.1-36.2v-5.5c0-22.8-12.6-35.8-34.2-35.8c-21.6,0-36.6,12.6-36.6,37.3v4.3h-16.5
			v-3.5c0-35,21.2-53.9,53.5-53.9c33.8,0,51.1,19.3,51.1,53.9v95.1c0,21.6,1.2,38.9,3.9,49.9H369.1z M364.4,757.3v-45.6
			c-3.9,6.7-13.8,11.8-37,22c-26.7,11.8-37.3,25.6-37.3,46.8c0,20.8,11,33,31.1,33C347.1,813.5,364.4,791.9,364.4,757.3z"/>
	</g>
	<path class="st3" d="M950,50v900H50V50H950 M1000,0H0v1000h1000V0z"/>
</g>
</svg>
