<?xml version="1.0" encoding="utf-8"?>
<!-- Generator: Adobe Illustrator 25.1.0, SVG Export Plug-In . SVG Version: 6.00 Build 0)  -->
<svg version="1.1" xmlns="http://www.w3.org/2000/svg" xmlns:xlink="http://www.w3.org/1999/xlink" x="0px" y="0px"
	 viewBox="0 0 1000 1000" style="enable-background:new 0 0 1000 1000;" xml:space="preserve">
<style type="text/css">
	.st0{display:none;}
	.st1{display:inline;}
</style>
<g id="Layer_1">
	<g>
		<path d="M164.7,238.7h-16.1l-2.4,17.4h-12.9l14.5-88.8h18.9l14.5,88.8h-14L164.7,238.7z M162.9,226.6l-6.3-44.8l-6.2,44.8H162.9z"
			/>
		<path d="M223.3,256c-0.4-0.8-0.9-3.6-1-7.6c-2.4,5.7-7.2,8.9-13.7,8.9c-8.6,0-14.1-6.2-14.1-16.2c0-10.2,4.2-16,15.6-21.6
			c9.3-4.6,10.5-5.7,10.5-9.3V209c0-5.2-1.7-7.4-5.5-7.4c-4.2,0-6.1,2.7-6.1,7.5v2.4h-12.7v-1.6c0-12.6,6.5-19.8,18.9-19.8
			c13.5,0,18.8,7.1,18.8,21.3v26c0,9.1,0.6,15,1.5,18.7H223.3z M220.7,235v-11c-1,1.3-3,2.5-6.6,4.8c-4.1,2.5-6.1,5.8-6.1,10
			c0,4.6,1.9,7,5.7,7C218.3,245.8,220.7,242.1,220.7,235z"/>
		<path d="M283.2,167.2h21.1c14.5,0,20.7,6.7,20.7,20.4v3.6c0,9.1-2.8,14.9-9,17.4v0.3c7.5,2.5,10.4,9.1,10.4,18.5v7.6
			c0,13.7-7.2,21.1-21.2,21.1h-22V167.2z M302.7,203.4c5.2,0,8.4-2.3,8.4-9.4v-5c0-6.3-2.2-9.1-7.1-9.1h-6.7v23.5H302.7z
			 M305.2,243.4c4.7,0,7.2-2.2,7.2-8.8v-7.7c0-8.2-2.7-10.8-9-10.8h-6.2v27.3H305.2z"/>
		<path d="M383.4,209v29.4c0,13.3-5.7,18.9-14.7,18.9c-6.2,0-11.2-3.7-13.3-9.9l-1.8,8.6h-9.8v-88.8h13.5V196c2.7-3.8,6.6-6,11.4-6
			C377.7,190,383.4,195.6,383.4,209z M369.9,209.8c0-4.4-1.3-7.9-5.7-7.9c-3.8,0-7,2.8-7,10.4V235c0,7.6,3.2,10.4,7,10.4
			c4.4,0,5.7-3.4,5.7-7.9V209.8z"/>
		<path d="M430.7,235.5v-47.7c0-13.7,7.1-21.8,20.6-21.8c13.5,0,20.6,8.1,20.6,21.8v9.4h-13.2v-10.3c0-5.8-2.8-8.3-7-8.3
			c-4.2,0-7,2.4-7,8.3v49.6c0,5.8,2.8,8.1,7,8.1c4.2,0,7-2.3,7-8.1v-12.9h13.2v11.9c0,13.7-7.1,21.8-20.6,21.8
			C437.8,257.3,430.7,249.2,430.7,235.5z"/>
		<path d="M488.1,236.5v-25.6c0-13.2,6.9-20.8,19.7-20.8c12.9,0,19.2,8.1,19.2,20.8v3.9H514v-5.2c0-4.8-1.7-7.6-6.2-7.6
			c-4.6,0-6.2,2.8-6.2,7.6v28.2c0,4.8,1.7,7.6,6.2,7.6c4.6,0,6.2-2.8,6.2-7.6v-6.5h12.9v5.2c0,12.7-6.2,20.8-19.2,20.8
			C494.9,257.3,488.1,249.7,488.1,236.5z"/>
		<path d="M574.1,167.2h21.3c14,0,20.8,7.7,20.8,22v44.9c0,14.2-6.9,22-20.8,22h-21.3V167.2z M595.2,243.4c4.4,0,7.1-2.3,7.1-8.6
			v-46.2c0-6.3-2.7-8.6-7.1-8.6h-7.1v63.5H595.2z"/>
		<path d="M663.5,256c-0.4-0.8-0.9-3.6-1.1-7.6c-2.3,5.6-7.1,8.9-13.1,8.9c-8.9,0-14.6-5.6-14.6-18.9V209c0-13.3,5.7-18.9,14.6-18.9
			c4.8,0,8.9,2.2,11.6,6v-28.8h13.5v70.2c0,9.1,0.6,15,1.5,18.7H663.5z M660.8,235v-22.6c0-7.6-3.2-10.4-7-10.4
			c-4.4,0-5.7,3.4-5.7,7.9v27.7c0,4.4,1.3,7.9,5.7,7.9C657.6,245.4,660.8,242.6,660.8,235z"/>
		<path d="M723.5,167.2h38.1v12.7h-24.1v23.5h19.2v12.7h-19.2v27.3h24.1V256h-38.1V167.2z"/>
		<path d="M816.9,211.1v15.5h-26.4v10.9c0,5.7,2.3,7.9,6.7,7.9c4.3,0,6.7-2.2,6.7-7.9v-2.4h12.9v1.1c0,13.5-7,21.1-19.9,21.1
			s-19.9-7.6-19.9-21.1v-25.1c0-13.5,7-21.1,19.9-21.1S816.9,197.7,816.9,211.1z M803.7,215.9v-6.1c0-5.7-2.4-7.9-6.6-7.9
			c-4.2,0-6.6,2.2-6.6,7.9v6.1H803.7z"/>
		<path d="M137,306.5H174v12.7h-23v24.8h18v12.7h-18v38.7h-14V306.5z"/>
		<path d="M207.2,322.7v7.9h9.8V342h-9.8v53.3h-13.5V342h-7.4v-11.4h7.4v-9.6c0-10.5,5.2-15.7,15.9-15.7c2.8,0,5.1,0.4,7.4,1.3v11.4
			c-1.7-0.5-3.2-0.8-4.6-0.8C208.6,317.1,207.2,318.7,207.2,322.7z"/>
		<path d="M261.4,374.2v-46.7c0-14.2,7.1-22.3,20.8-22.3c13.7,0,20.8,8.1,20.8,22.3v7.6h-13.2v-8.5c0-6.3-2.8-8.8-7.2-8.8
			c-4.4,0-7.2,2.4-7.2,8.8v48.6c0,6.3,2.8,8.6,7.2,8.6c4.4,0,7.2-2.3,7.2-8.6v-17.4h-7v-12.7H303v29.1c0,14.2-7.1,22.3-20.8,22.3
			C268.5,396.6,261.4,388.5,261.4,374.2z"/>
		<path d="M360.3,330.6v65.6c0,12.4-4.8,20.1-19.9,20.1c-12.8,0-19.3-6.2-19.3-17.4v-0.4H334v1c0,3.4,1.9,5.7,6.1,5.7
			c4.6,0,6.7-2.3,6.7-8v-9.8c-2.7,3.8-6.6,6-11.4,6c-9,0-14.7-5.6-14.7-18.9v-26.3c0-13.3,5.7-18.9,14.7-18.9
			c5.8,0,10.7,3.3,12.9,8.9l0.3-7.6H360.3z M346.8,371.1v-19.4c0-7.6-3.2-10.4-7-10.4c-4.4,0-5.7,3.4-5.7,7.9v24.5
			c0,4.4,1.3,7.9,5.7,7.9C343.6,381.5,346.8,378.7,346.8,371.1z"/>
		<path d="M409.5,306.5h14v36.2h15v-36.2h14v88.8h-14v-40h-15v40h-14V306.5z"/>
		<path d="M511.4,348.2v47.1H498v-45.6c0-5.6-1.5-8.5-5.6-8.5c-3.8,0-6.9,2.7-6.9,10.4v43.7h-13.5v-88.8h13.5v28.7
			c2.5-3.8,6.6-5.8,11.4-5.8C506,329.3,511.4,334.9,511.4,348.2z"/>
		<path d="M560.3,306.5h14v88.8h-14V306.5z"/>
		<path d="M593.9,307.9h13.5v14.7h-13.5V307.9z M593.9,330.6h13.5v64.7h-13.5V330.6z"/>
		<path d="M652.8,395.3v-12.7c1.5,0.4,3,0.5,4.6,0.5c5.6,0,8.2-2.7,8.2-8.5v-68.2h14v67.8c0,14.6-6.6,21.6-20.3,21.6
			C656.7,395.8,654.8,395.7,652.8,395.3z"/>
		<path d="M691.6,415v-11.3c1.1,0.4,2.4,0.6,3.8,0.6c2.3,0,3.3-1.1,3.3-3.6v-70.2h13.5v71.6c0,9.5-4.6,14.1-13.8,14.1
			C695.8,416.3,693.5,415.9,691.6,415z M698.7,307.9h13.5v14.7h-13.5V307.9z"/>
		<path d="M781.1,356.2l-5.7,11.2v27.9h-14v-88.8h14v38.2l17.5-38.2h14.2l-16.6,32.6l16.9,56.2h-14.6L781.1,356.2z"/>
		<path d="M842,368.2l-5.3,8.5v18.7h-13.5v-88.8h13.5v51.3l15-27.2H866l-15,23.9l15.7,40.9h-14.5L842,368.2z"/>
		<path d="M137,445.7h14v76.2h23v12.7H137V445.7z"/>
		<path d="M190.6,445.7H204v88.8h-13.5V445.7z"/>
		<path d="M253.3,445.7H273l9.3,64.5l9.3-64.5h19.7v88.8H298v-67.3l-10.4,67.3h-11.7l-10.4-67.3v67.3h-12.2V445.7z"/>
		<path d="M395.6,487.5v47.1h-13.5v-46.2c0-4.4-1.1-7.9-5.5-7.9c-3.8,0-6.7,2.8-6.7,10.4v43.7h-13.5v-46.2c0-4.4-1.1-7.9-5.5-7.9
			c-3.8,0-6.7,2.8-6.7,10.4v43.7h-13.5v-64.7h11.7l0.3,7.5c2.3-5.6,6.9-8.8,12.7-8.8c6.2,0,10.7,2.7,12.9,8.6
			c2.3-5.5,7-8.6,12.7-8.6C390.1,468.6,395.6,474.3,395.6,487.5z"/>
		<path d="M444.4,445.7h17.3l14.1,53.2v-53.2h12.4v88.8h-14.1l-17.3-64.9v64.9h-12.4V445.7z"/>
		<path d="M547.2,487.5v47.1h-13.5V489c0-5.6-1.5-8.5-5.6-8.5c-3.8,0-6.9,2.7-6.9,10.4v43.7h-13.5v-64.7h11.7l0.3,7.5
			c2.3-5.6,7-8.8,12.9-8.8C541.8,468.6,547.2,474.2,547.2,487.5z"/>
		<path d="M595.1,513.5v-46.7c0-14.2,7.5-22.3,21.2-22.3c13.7,0,21.2,8.1,21.2,22.3v46.7c0,14.2-7.5,22.3-21.2,22.3
			C602.5,535.9,595.1,527.7,595.1,513.5z M623.5,514.4v-48.5c0-6.3-2.8-8.8-7.2-8.8c-4.4,0-7.2,2.4-7.2,8.8v48.5
			c0,6.3,2.8,8.8,7.2,8.8C620.7,523.2,623.5,520.8,623.5,514.4z"/>
		<path d="M655.5,514.8v-25.1c0-13.5,7.1-21.1,19.8-21.1c12.7,0,19.8,7.6,19.8,21.1v25.1c0,13.5-7.1,21.1-19.8,21.1
			C662.6,535.9,655.5,528.2,655.5,514.8z M681.6,516.1v-27.7c0-4.4-1.4-7.9-6.3-7.9s-6.3,3.4-6.3,7.9v27.7c0,4.6,1.5,7.9,6.3,7.9
			C680.1,523.9,681.6,520.6,681.6,516.1z"/>
		<path d="M743,445.7h20.6c14,0,20.8,7.7,20.8,22v8.8c0,14.2-6.9,22-20.8,22H757v36.2h-14V445.7z M763.6,485.7c4.4,0,6.9-2,6.9-8.4
			v-10.5c0-6.3-2.4-8.4-6.9-8.4H757v27.3H763.6z"/>
		<path d="M840.8,487.5v29.4c0,13.3-5.7,18.9-14.7,18.9c-4.8,0-8.8-2.2-11.4-6v24.4h-13.5v-84.4h11.7l0.3,7.6
			c2.3-5.6,7.1-8.9,12.9-8.9C835.1,468.6,840.8,474.2,840.8,487.5z M827.3,488.4c0-4.4-1.3-7.9-5.7-7.9c-3.8,0-7,2.8-7,10.4v22.6
			c0,7.6,3.2,10.4,7,10.4c4.4,0,5.7-3.4,5.7-7.9V488.4z"/>
		<path d="M181.8,669.4v12.7h-3.7c-5.2,0-10-1.9-11.7-8.5c-2.7,1-5.7,1.5-9.3,1.5c-13.7,0-21.2-8.1-21.2-22.3v-46.7
			c0-14.2,7.5-22.3,21.2-22.3c13.7,0,21.2,8.1,21.2,22.3v46.7c0,6-1.4,10.9-3.9,14.6c1,1.8,2.7,2,5.2,2H181.8z M164.4,605.2
			c0-6.3-2.8-8.8-7.2-8.8c-4.4,0-7.2,2.4-7.2,8.8v48.5c0,6.3,2.8,8.8,7.2,8.8c4.4,0,7.2-2.4,7.2-8.8V605.2z"/>
		<path d="M236.4,609.1v84.4h-13.5v-24.4c-2.7,3.8-6.6,6-11.4,6c-9,0-14.7-5.6-14.7-18.9v-29.4c0-13.3,5.7-18.9,14.7-18.9
			c6.2,0,11.2,3.7,13.3,9.9l1.8-8.6H236.4z M222.9,652.8v-22.6c0-7.6-3.2-10.4-7-10.4c-4.4,0-5.7,3.4-5.7,7.9v27.7
			c0,4.4,1.3,7.9,5.7,7.9C219.8,663.2,222.9,660.4,222.9,652.8z"/>
		<path d="M285.6,585h20.7c14.5,0,20.7,6.7,20.7,20.4v5.5c0,9.1-2.9,15-9.1,17.5v0.3c7,2.2,9.3,8.8,9.3,18.8v15.6
			c0,4.3,0.1,7.5,1.5,10.8h-14.2c-0.8-2.3-1.3-3.7-1.3-10.9v-16.2c0-8.3-2.4-10.9-8.8-10.9h-4.8v38.1h-14V585z M304.7,623.1
			c5.2,0,8.4-2.3,8.4-9.4v-6.9c0-6.3-2.2-9.1-7.1-9.1h-6.3v25.4H304.7z"/>
		<path d="M374.6,608.6v13.1c-1-0.3-2.3-0.4-3.4-0.4c-7.5,0-11.4,5.2-11.4,15.2v37.3h-13.5v-64.7H358l0.3,10.9
			c1.8-8.1,6-12.2,12.6-12.2C372.5,607.9,373.6,608.1,374.6,608.6z"/>
		<path d="M417.3,652.8v-5.1h13.2v6.1c0,6.3,2.8,8.6,7.2,8.6c4.4,0,7.4-2.3,7.4-8.9c0-7.4-3-11.9-12.2-19.9
			c-11.7-10.3-15.6-17.6-15.6-27.8c0-14,7.2-22.1,20.8-22.1c13.6,0,20.3,8.1,20.3,22.3v3.7h-13.2v-4.6c0-6.3-2.5-8.8-7-8.8
			c-4.4,0-7.1,2.4-7.1,8.5c0,6.5,3.2,11,12.3,19c11.7,10.3,15.5,17.5,15.5,28.6c0,14.5-7.4,22.6-21.1,22.6
			C424.1,675.1,417.3,667,417.3,652.8z"/>
		<path d="M473.5,655.3v-2h12.9v2.4c0,5.8,2.5,7.9,6,7.9c3.4,0,5.8-1.9,5.8-7c0-4.8-4.3-7.4-9.4-10.3c-6.9-3.9-14.7-8.4-14.7-20.6
			c0-10.8,6.2-17.9,18.2-17.9c11,0,18.2,7.1,18.2,18.9v1.4h-12.7v-1.8c0-5.2-2-7-5.3-7c-2.8,0-5.2,1.6-5.2,6.1c0,5.3,4.6,8.1,9.9,11
			c6.9,3.8,14.5,8.2,14.5,19.8c0,11.4-6.2,18.8-18.5,18.8C480.6,675.1,473.5,667.8,473.5,655.3z"/>
		<path d="M569.2,597.7h-14.6V585h43.2v12.7h-14.6v76.2h-14V597.7z"/>
		<path d="M627,620.5v37.1c0,4.1,1.4,5.6,5.2,5.6c1.4,0,2.9-0.3,4.6-0.8v11.4c-2.3,0.9-4.6,1.3-7.4,1.3c-10.7,0-15.9-5.2-15.9-15.7
			v-38.8h-7.4v-11.4h8l1.3-17.5H627v17.5h9.8v11.4H627z"/>
		<path d="M682.6,652.8V585h14v68.8c0,6.3,2.7,8.6,7.1,8.6c4.4,0,7.1-2.3,7.1-8.6V585h13.5v67.8c0,14.2-7.1,22.3-20.8,22.3
			C689.7,675.1,682.6,667,682.6,652.8z"/>
		<path d="M782.4,609.1v64.7h-11.7l-0.3-7.5c-2.3,5.6-7,8.8-12.9,8.8c-9,0-14.5-5.6-14.5-18.9v-47.1h13.5v45.6
			c0,5.6,1.5,8.5,5.6,8.5c3.8,0,6.9-2.7,6.9-10.4v-43.7H782.4z"/>
		<path d="M133.3,724.3h14.1l9.3,69.8l9.3-69.8h12.8l-13.5,88.8h-18.5L133.3,724.3z"/>
		<path d="M190.8,748.4h13.7l8.3,46.6l8.1-46.6h12.6l-13.1,64.7h-16.5L190.8,748.4z"/>
		<path d="M275.7,724.3h13.5l6.3,69.6l6.7-69.6h15.2l6.7,69.6l6.3-69.6h12.1l-9,88.8h-17.4l-6.5-61.1l-6.5,61.1h-18.5L275.7,724.3z"
			/>
		<path d="M355.6,748.4h13.2l6.9,46.6l6.3-46.6h13.6l6.3,46.6l6.9-46.6h11.9l-9.8,64.7h-16.2l-6.1-39.9l-6.1,39.9h-17.1L355.6,748.4
			z"/>
		<path d="M478.7,767.7l-15.4-43.4H478l9.5,29.1l9.8-29.1h13.2l-15.4,43.4l16.1,45.4h-14.7l-10.3-31.4l-10.5,31.4h-13.2L478.7,767.7
			z"/>
		<path d="M537.6,779.9l-13.7-31.5h14.7l7.7,20.2l7.9-20.2h13.3l-13.7,31.5l14.5,33.3h-14.7l-8.5-22.2l-8.6,22.2h-13.3L537.6,779.9z
			"/>
		<path d="M626.3,775.3l-16.9-51h14.9l9.6,33.1l9.6-33.1h13.6l-16.9,51v37.8h-14V775.3z"/>
		<path d="M668,832.8v-11.4c1.5,0.5,3.2,0.8,5,0.8c4.6,0,6.2-1.3,7.1-5.5l0.3-0.9l-15.6-67.4h13.7l8.6,44.6l7.7-44.6h12.6L693,818.7
			c-2.3,11-7.4,15.4-17.8,15.4C672.9,834.1,670.3,833.8,668,832.8z"/>
		<path d="M749.9,800.7l25.9-63.7h-24.6v-12.7h39.6v12.4l-25.9,63.7h25.9v12.7h-40.9V800.7z"/>
		<path d="M805.9,802l22.7-42.1h-21.4v-11.4h35.7v11.2l-22.7,42.1h22.7v11.4h-36.9V802z"/>
	</g>
</g>
<g id="Layer_2" class="st0">
	<g class="st1">
		<path d="M178.3,235.6h-24.9l-4.2,20.4h-5.6l18.4-88.8h7.9l18.7,88.8h-6L178.3,235.6z M177.3,230.4l-11.6-55.2l-11.3,55.2H177.3z"
			/>
		<path d="M236.5,256c-0.5-1.9-0.8-5.5-0.9-9.6c-2.8,7-8.4,10.9-16,10.9c-9,0-14.3-5.8-14.3-15.2c0-9.5,4.3-15,16.1-20.2
			c11.9-5.2,13.6-6.6,13.6-11.7v-1.8c0-7.4-4.1-11.6-11-11.6c-7,0-11.8,4.1-11.8,12.1v1.4h-5.3v-1.1c0-11.3,6.9-17.4,17.3-17.4
			c10.9,0,16.5,6.2,16.5,17.4v30.7c0,7,0.4,12.6,1.3,16.1H236.5z M234.9,234.1v-14.7c-1.3,2.2-4.4,3.8-11.9,7.1
			c-8.6,3.8-12.1,8.2-12.1,15.1c0,6.7,3.6,10.7,10,10.7C229.4,252.2,234.9,245.3,234.9,234.1z"/>
		<path d="M293.6,167.2h18.5c13.8,0,19.4,6.1,19.4,20.1v3.8c0,9.9-3.4,15.7-10.7,18v0.3c8.5,2.2,12.1,8.4,12.1,18.9v7.5
			c0,13.7-6,20.3-19.5,20.3h-19.8V167.2z M310.7,207.1c10.3,0,15-4.3,15-15v-4.3c0-10.8-3.8-15.2-13.7-15.2h-12.6v34.5H310.7z
			 M313.4,250.7c9.8,0,13.7-4.6,13.7-15.1v-7.5c0-11.3-4.4-15.7-16.1-15.7h-11.6v38.3H313.4z"/>
		<path d="M389.1,209.8v29.3c0,12.2-5.5,18.1-15.1,18.1c-7.2,0-12.8-4.1-15.5-11.2l-0.8,9.9h-4.2v-88.8h5.7v34
			c2.9-6,8.1-9.4,14.7-9.4C383.7,191.8,389.1,197.7,389.1,209.8z M383.6,210.5c0-8.6-3.4-13.6-10.8-13.6c-7.7,0-13.5,6.9-13.5,18
			v19.3c0,11.2,5.7,18,13.5,18c7.4,0,10.8-5,10.8-13.6V210.5z"/>
		<path d="M440.5,236.8v-50.3c0-12.8,7-20.6,18.9-20.6c12.3,0,19.2,7.7,19.2,20.6v9H473v-9.3c0-9.5-5.2-15-13.5-15
			c-8.1,0-13.2,5.5-13.2,15V237c0,9.5,5.1,15,13.2,15c8.3,0,13.5-5.5,13.5-15v-11.8h5.6v11.6c0,12.8-6.9,20.6-19.2,20.6
			C447.5,257.3,440.5,249.6,440.5,236.8z"/>
		<path d="M498.2,237.4v-25.6c0-12.9,6.1-19.9,17.6-19.9c11.7,0,17.3,7.2,17.3,19.9v1.7h-5.5v-2.2c0-9.4-3.7-14.3-11.8-14.3
			c-8.1,0-11.9,5-11.9,14.3v26.7c0,9.3,3.8,14.3,11.9,14.3c8.1,0,11.8-5.1,11.8-14.3v-3.6h5.5v3c0,12.7-5.6,19.9-17.3,19.9
			C504.3,257.3,498.2,250.2,498.2,237.4z"/>
		<path d="M584,167.2h19.3c13.5,0,19.4,6.7,19.4,21.2v46.5c0,14.5-6,21.2-19.4,21.2H584V167.2z M603.1,250.7
			c9.5,0,13.7-4.4,13.7-15.6v-47c0-11.2-4.2-15.6-13.7-15.6h-13.3v78.2H603.1z"/>
		<path d="M675.7,256c-0.5-1.9-0.9-5.5-1-9.8c-2.7,7-8.3,11-15.4,11c-9.6,0-15.1-6-15.1-18.1v-29.3c0-12.2,5.5-18,15.1-18
			c6.6,0,11.8,3.4,14.7,9.4v-34h5.7v72.7c0,7.1,0.3,12.6,1.1,16.1H675.7z M674.1,234.2v-19.3c0-11.2-5.7-18-13.5-18
			c-7.4,0-10.7,5-10.7,13.6v28.2c0,8.6,3.3,13.6,10.7,13.6C668.4,252.2,674.1,245.4,674.1,234.2z"/>
		<path d="M733.1,167.2h34.8v5.3h-28.9v34.5h24v5.3h-24v38.3h28.9v5.3h-34.8V167.2z"/>
		<path d="M821.5,212v12.7h-30v12.9c0,9.6,4.1,14.6,12.1,14.6c8.1,0,12.3-5,12.3-14.6v-1.5h5.6v1c0,12.9-6.3,20.2-17.9,20.2
			c-11.7,0-17.8-7.2-17.8-20.2V212c0-12.9,6.1-20.2,17.8-20.2C815.2,191.8,821.5,199.1,821.5,212z M816,219.6v-8.1
			c0-9.6-4.3-14.6-12.3-14.6s-12.1,5-12.1,14.6v8.1H816z"/>
		<path d="M147.6,306.5h33.6v5.3h-27.8v35.7h22.8v5.3h-22.8v42.5h-5.8V306.5z"/>
		<path d="M210.3,318.9v13.5h13.3v5h-13.3v58h-5.7v-58h-8.8v-5h8.8v-13.8c0-8.9,3.9-13.3,12.2-13.3c2.8,0,4.6,0.3,6.9,1.3v5.1
			c-2.2-1-4.1-1.3-6.1-1.3C212.4,310.3,210.3,312.7,210.3,318.9z"/>
		<path d="M271.5,375.1v-48.5c0-14,6.9-21.5,19.3-21.5c12.7,0,19.5,7.5,19.5,21.5v6.9h-5.6v-7.2c0-10.5-4.8-15.7-13.8-15.7
			c-8.8,0-13.6,5.2-13.6,15.7v49.2c0,10.7,4.8,15.7,13.6,15.7c9,0,13.8-5.1,13.8-15.7v-22.3h-12.6v-5.5h18.2v27.4
			c0,14-6.9,21.5-19.5,21.5C278.3,396.6,271.5,389.1,271.5,375.1z"/>
		<path d="M366.4,332.4v65.7c0,11.7-5.2,18.1-17.5,18.1c-11.2,0-17.3-5.5-17.3-15.5v-0.6h5.5v0.8c0,6.7,4.1,10.3,11.8,10.3
			c8,0,11.9-4.1,11.9-12.8v-13.6c-2.9,6-8.1,9.4-14.7,9.4c-9.6,0-15.1-6-15.1-18.1v-26.9c0-12.2,5.5-18,15.1-18
			c7.1,0,12.6,3.9,15.4,10.7l0.1-9.4H366.4z M360.8,371.1v-16.9c0-11.2-5.7-18-13.5-18c-7.4,0-10.7,5-10.7,13.6v25.8
			c0,8.6,3.3,13.6,10.7,13.6C355.1,389.1,360.8,382.2,360.8,371.1z"/>
		<path d="M419.7,306.5h5.8v39.9h27.3v-39.9h5.8v88.8h-5.8v-43.7h-27.3v43.7h-5.8V306.5z"/>
		<path d="M516.7,349.1v46.2H511V350c0-9.1-3.4-13.8-10.4-13.8c-7.7,0-13.2,6.7-13.2,18v41.1h-5.7v-88.8h5.7V340
			c2.9-5.7,8-8.9,14.5-8.9C511.6,331.1,516.7,336.9,516.7,349.1z"/>
		<path d="M569.5,306.5h5.8v88.8h-5.8V306.5z"/>
		<path d="M598.3,309.4h5.7v12.7h-5.7V309.4z M598.3,332.4h5.7v63h-5.7V332.4z"/>
		<path d="M653.2,394.9v-5.5c1.8,0.6,3.7,1,5.8,1c8.3,0,11.9-4.2,11.9-13.8v-70.2h5.8v70.1c0,13.1-5.5,19.3-17.1,19.3
			C657.2,395.8,655.1,395.6,653.2,394.9z"/>
		<path d="M690,415v-5.1c1.5,0.8,2.9,1.3,4.7,1.3c3.4,0,4.7-1.5,4.7-6.2v-72.6h5.7v72.9c0,7.5-3,11-9.8,11
			C693.3,416.3,691.6,415.9,690,415z M699.4,309.4h5.7v12.7h-5.7V309.4z"/>
		<path d="M775.5,346.4l-11.2,18.3v30.6h-5.8v-88.8h5.8v48.9l29.1-48.9h6.2l-20.2,33.8l20.4,55.1h-6.2L775.5,346.4z"/>
		<path d="M834.2,361.6l-9.8,13.6v20.2h-5.7v-88.8h5.7v60.7l24.8-34.8h6.3l-17.4,24l18.2,39H850L834.2,361.6z"/>
		<path d="M147.6,445.7h5.8v83.5h27.8v5.3h-33.6V445.7z"/>
		<path d="M200.2,445.7h5.7v88.8h-5.7V445.7z"/>
		<path d="M259.2,445.7h9.1l16.8,77.6l16.8-77.6h9.1v88.8h-5.8v-80.9l-17.6,80.9h-5.2l-17.6-80.9v80.9h-5.5V445.7z"/>
		<path d="M395.7,487.2v47.3H390v-46.8c0-7.9-3.2-12.3-9.8-12.3c-7.4,0-12.6,6.9-12.6,18v41.1H362v-46.8c0-7.9-3.2-12.3-9.8-12.3
			c-7.4,0-12.6,6.9-12.6,18v41.1h-5.7v-63h4.8l0.1,9.1c2.7-6.6,7.9-10.4,14.6-10.4c7.1,0,11.8,3.4,13.5,10.4
			c2.7-6.6,7.9-10.4,14.6-10.4C390.5,470.4,395.7,475.9,395.7,487.2z"/>
		<path d="M448.5,445.7h8.1l26.1,73.9v-73.9h5.6v88.8h-6.5l-27.8-79.5v79.5h-5.6V445.7z"/>
		<path d="M546.4,488.4v46.2h-5.7v-45.3c0-9.1-3.4-13.8-10.4-13.8c-7.7,0-13.2,6.7-13.2,18v41.1h-5.7v-63h5l0.1,9.1
			c2.7-6.6,8-10.4,15.1-10.4C541.3,470.4,546.4,476.2,546.4,488.4z"/>
		<path d="M598.2,514.4v-48.5c0-14,7-21.5,19.5-21.5c12.6,0,19.5,7.5,19.5,21.5v48.5c0,14-7,21.4-19.5,21.4
			C605.1,535.9,598.2,528.4,598.2,514.4z M631.4,514.8v-49.2c0-10.5-4.8-15.7-13.7-15.7c-8.9,0-13.7,5.2-13.7,15.7v49.2
			c0,10.5,4.8,15.7,13.7,15.7C626.6,530.5,631.4,525.3,631.4,514.8z"/>
		<path d="M658.6,515.7v-25.1c0-12.9,6.2-20.2,17.8-20.2c11.6,0,17.8,7.2,17.8,20.2v25.1c0,12.9-6.2,20.2-17.8,20.2
			C664.8,535.9,658.6,528.6,658.6,515.7z M688.4,516.2V490c0-9.3-3.8-14.6-12.1-14.6c-8.2,0-12.1,5.3-12.1,14.6v26.1
			c0,9.3,3.8,14.6,12.1,14.6C684.6,530.8,688.4,525.4,688.4,516.2z"/>
		<path d="M746.1,445.7h18.3c13.5,0,19.4,6.7,19.4,21.2v6.5c0,14.5-6,21.1-19.4,21.1H752v40.1h-5.8V445.7z M764.4,489.1
			c9.5,0,13.6-4.3,13.6-15.5v-7.1c0-11.2-4.1-15.5-13.6-15.5H752v38.1H764.4z"/>
		<path d="M839.3,488.4v29.3c0,12.2-5.5,18.2-15.1,18.2c-6.6,0-11.8-3.4-14.7-9.4v27.8h-5.7v-82.6h4.8l0.1,9.8c2.8-7,8.4-11,15.5-11
			C833.9,470.4,839.3,476.2,839.3,488.4z M833.6,489c0-8.6-3.3-13.6-10.7-13.6c-7.7,0-13.5,6.9-13.5,18v19.3c0,11.2,5.7,18,13.5,18
			c7.4,0,10.7-5,10.7-13.6V489z"/>
		<path d="M188.9,676.8v5.3h-2.2c-5.7,0-10.2-2.3-12.1-8.4c-2.5,0.9-5.3,1.4-8.5,1.4c-12.6,0-19.5-7.5-19.5-21.4v-48.5
			c0-14,7-21.4,19.5-21.4c12.6,0,19.5,7.5,19.5,21.4v48.5c0,8.1-2.4,14.1-6.9,17.6c1.4,4.1,3.8,5.5,8.4,5.5H188.9z M166.2,669.8
			c8.9,0,13.7-5.2,13.7-15.7v-49.2c0-10.5-4.8-15.7-13.7-15.7c-8.9,0-13.7,5.2-13.7,15.7v49.2C152.4,664.6,157.3,669.8,166.2,669.8z
			"/>
		<path d="M242.8,610.9v82.6h-5.7v-27.8c-2.9,6-8.1,9.4-14.7,9.4c-9.6,0-15.1-6-15.1-18.2v-29.3c0-12.2,5.5-18,15.1-18
			c7.2,0,12.8,4.1,15.5,11l0.8-9.8H242.8z M237.1,652v-19.3c0-11.2-5.7-18-13.5-18c-7.4,0-10.7,5-10.7,13.6v28.2
			c0,8.6,3.3,13.6,10.7,13.6C231.4,670.1,237.1,663.2,237.1,652z"/>
		<path d="M296.1,585h18.3c13.7,0,19.4,6.1,19.4,20.1v5.5c0,10.3-3.6,16.2-11.4,18.2v0.1c8,1.6,11.4,7.5,11.4,18.2v16.2
			c0,3.7,0.3,7.7,1.1,10.7h-6c-0.6-2.7-1-5.8-1-10.7v-16.5c0-10.9-4.3-14.9-14.7-14.9H302v42h-5.8V585z M313,626.4
			c10.3,0,15-4.3,15-14.9v-6c0-10.8-3.9-15.2-13.7-15.2H302v36H313z"/>
		<path d="M379.6,610.4v5.7c-1.4-0.6-2.7-0.9-4.3-0.9c-9,0-13.5,7-13.5,21.6v37.1h-5.7v-63h4.8l0.1,10.2c2.4-7.7,7.2-11.4,14.1-11.4
			C376.8,609.6,378.2,609.8,379.6,610.4z"/>
		<path d="M425.6,654.4v-4.8h5.6v5.2c0,9.8,5.1,15,13.5,15c8.4,0,13.5-5.2,13.5-15c0-9-3.8-14.9-15.4-23.9
			c-12.9-10-17.1-16.9-17.1-26.9c0-12.7,7-20.3,19-20.3s18.8,7.6,18.8,20.7v3.4h-5.6v-3.8c0-9.8-4.8-15-13.2-15
			c-8.2,0-13.2,5.3-13.2,14.6c0,8.2,3.9,14,15.7,23.2c12.8,10,16.8,16.9,16.8,27.5c0,13.1-7,20.7-19.3,20.7
			C432.4,675.1,425.6,667.5,425.6,654.4z"/>
		<path d="M481.4,658.1v-2.3h5.5v2.4c0,7.9,4.6,11.8,11.7,11.8c7,0,11.7-3.8,11.7-11.5c0-7.7-6.2-10.9-12.7-14
			c-7.5-3.6-15.5-7.4-15.5-18.8c0-9.9,6.3-16.1,16.2-16.1c9.8,0,16.4,6.2,16.4,16.8v1.1h-5.3v-1.3c0-7.7-4.6-11.5-10.9-11.5
			c-6.1,0-10.9,3.8-10.9,11c0,7.7,6.1,10.7,12.8,13.8c7.5,3.6,15.5,7.5,15.5,18.9c0,10.4-6.3,16.6-17,16.6
			C488,675.1,481.4,668.9,481.4,658.1z"/>
		<path d="M579,590.3h-16.9V585h39.6v5.3h-16.9v83.5H579V590.3z"/>
		<path d="M625.7,615.9v45.6c0,6.2,2,8.6,7.2,8.6c2,0,3.9-0.3,6.1-1.3v5.1c-2.3,1-4.1,1.3-6.9,1.3c-8.3,0-12.2-4.4-12.2-13.3v-45.9
			h-8.4v-5h8.5l0.8-19.3h4.8v19.3H639v5H625.7z"/>
		<path d="M687.8,653.7V585h5.8v69c0,10.5,4.8,15.7,13.6,15.7s13.5-5.2,13.5-15.7v-69h5.7v68.7c0,13.8-6.7,21.4-19.3,21.4
			C694.5,675.1,687.8,667.5,687.8,653.7z"/>
		<path d="M783.3,610.9v63h-5l-0.1-9.1c-2.7,6.6-8,10.4-15.1,10.4c-9.8,0-14.9-5.8-14.9-18v-46.2h5.7v45.3c0,9.1,3.4,13.8,10.4,13.8
			c7.7,0,13.2-6.7,13.2-18v-41.1H783.3z"/>
		<path d="M143.7,724.3h6l16.5,81l16.2-81h5.5L170,813.1h-8L143.7,724.3z"/>
		<path d="M202.3,750.2h5.8l14,55.5l13.8-55.5h5.5l-15.9,63h-7.4L202.3,750.2z"/>
		<path d="M287.1,724.3h5.7l11.5,80.9l11.6-80.9h7.1l11.7,80.9l11.6-80.9h5.3l-12.7,88.8h-8l-11.4-77.4L308,813.1h-8.2L287.1,724.3z
			"/>
		<path d="M366.8,750.2h5.7l10.9,54.7l10.5-54.7h6.6l10.7,54.7l10.8-54.7h5.3l-12.3,63h-7.1L397.3,761l-10.7,52.2h-7.4L366.8,750.2z
			"/>
		<path d="M491.7,767.8l-18-43.5h6.2l15.5,37.4l15.5-37.4h5.8l-18.2,43.5l18.9,45.3h-6.3l-16.2-39.3l-16.2,39.3h-5.7L491.7,767.8z"
			/>
		<path d="M548.7,780.9l-15.5-30.7h6.2l12.9,26l13.1-26h5.7l-15.5,30.7l16.2,32.2h-6.3L552,785.5l-13.7,27.7h-5.7L548.7,780.9z"/>
		<path d="M636.1,773l-18.9-48.7h6.2l15.7,41l15.9-41h5.8L642,773v40.1h-5.8V773z"/>
		<path d="M673.2,832.8v-5.1c1.5,0.9,3.2,1.3,5.2,1.3c4.4,0,6.5-1.7,8-7.7l2.2-8.4l-17.4-62.7h5.8l14.3,52.8l13.1-52.8h5.5l-18,71.7
			c-2.2,8.8-5.7,12.2-12.9,12.2C676.7,834.1,674.6,833.7,673.2,832.8z"/>
		<path d="M755.5,807.9l31.7-78.3h-30.5v-5.3h36.8v5.2l-31.7,78.3h31.7v5.3h-38.1V807.9z"/>
		<path d="M810.5,808.3l27.5-53.2h-26.3v-5h32.5v4.8l-27.5,53.2h27.5v5h-33.8V808.3z"/>
	</g>
</g>
</svg>
