<?xml version="1.0" encoding="utf-8"?>
<!-- Generator: Adobe Illustrator 25.1.0, SVG Export Plug-In . SVG Version: 6.00 Build 0)  -->
<svg version="1.1" xmlns="http://www.w3.org/2000/svg" xmlns:xlink="http://www.w3.org/1999/xlink" x="0px" y="0px"
	 viewBox="0 0 1000 1000" style="enable-background:new 0 0 1000 1000;" xml:space="preserve">
<style type="text/css">
	.st0{fill:#231F20;}
	.st1{display:none;}
	.st2{display:inline;fill:none;}
	.st3{display:inline;}
	.st4{font-family:'BebasNeue';}
	.st5{font-size:125px;}
	.st6{font-size:96px;}
	.st7{font-family:'BebasNeuePro-Bold';}
	.st8{font-size:348px;}
</style>
<g id="Layer_1">
	<path class="st0" d="M950,50v900H50V50H950 M1000,0H0v1000h1000V0z"/>
	<g>
		<path d="M159.7,197.8v3.4c0,9.8-3,16-9.7,19.1v0.3c8.1,3.1,11.2,10.3,11.2,20.4v7.8c0,14.8-7.8,22.7-22.8,22.7h-23.7v-95.7h22.7
			C153,175.8,159.7,183,159.7,197.8z M129.8,189.5v25.3h5.9c5.6,0,9-2.5,9-10.1v-5.3c0-6.8-2.3-9.8-7.7-9.8H129.8z M129.8,228.5
			v29.4h8.6c5.1,0,7.8-2.3,7.8-9.4v-8.3c0-8.9-2.9-11.6-9.7-11.6H129.8z"/>
		<path d="M185.3,216.1H206v13.7h-20.7v28h26v13.7h-41v-95.7h41v13.7h-26V216.1z"/>
		<path d="M265.6,197.8v3.4c0,9.8-3,16-9.7,19.1v0.3c8.1,3.1,11.2,10.3,11.2,20.4v7.8c0,14.8-7.8,22.7-22.8,22.7h-23.7v-95.7h22.7
			C258.9,175.8,265.6,183,265.6,197.8z M235.6,189.5v25.3h5.9c5.6,0,9-2.5,9-10.1v-5.3c0-6.8-2.3-9.8-7.7-9.8H235.6z M235.6,228.5
			v29.4h8.6c5.1,0,7.8-2.3,7.8-9.4v-8.3c0-8.9-2.9-11.6-9.7-11.6H235.6z"/>
		<path d="M324.8,271.5h-15.2l-2.6-17.4h-18.5l-2.6,17.4h-13.8l15.3-95.7h22L324.8,271.5z M290.5,241.2H305l-7.1-48.4h-0.3
			L290.5,241.2z"/>
		<path d="M366.6,202.2h-0.3v69.3h-13.5v-95.7h18.9l15.2,57.3h0.3v-57.3h13.4v95.7h-15.5L366.6,202.2z"/>
		<path d="M426.4,216.1h20.7v13.7h-20.7v28h26v13.7h-41v-95.7h41v13.7h-26V216.1z"/>
		<path d="M476,175.8v73.8c0,6.8,3,9.3,7.8,9.3c4.8,0,7.8-2.5,7.8-9.3v-73.8h14.2v72.9c0,15.3-7.7,24.1-22.4,24.1
			c-14.8,0-22.4-8.8-22.4-24.1v-72.9H476z"/>
		<path d="M531.2,216.1h20.7v13.7h-20.7v28h26v13.7h-41v-95.7h41v13.7h-26V216.1z"/>
		<path d="M632.2,199.5v12.4c0,15.3-7.4,23.7-22.4,23.7h-7.1v36h-15v-95.7h22.2C624.8,175.8,632.2,184.1,632.2,199.5z M602.7,189.5
			v32.4h7.1c4.8,0,7.4-2.2,7.4-9v-14.4c0-6.8-2.6-9-7.4-9H602.7z"/>
		<path d="M670.7,271.5c-0.8-2.5-1.4-4-1.4-11.8v-15c0-8.9-3-12.2-9.8-12.2h-5.2v39h-15v-95.7h22.7c15.6,0,22.3,7.2,22.3,22v7.5
			c0,9.8-3.1,16.1-9.8,19.3v0.3c7.5,3.1,10,10.3,10,20.2v14.8c0,4.6,0.1,8.1,1.6,11.6H670.7z M654.2,189.5v29.4h5.9
			c5.6,0,9-2.5,9-10.1v-9.4c0-6.8-2.3-9.8-7.7-9.8H654.2z"/>
		<path d="M692.9,198.8c0-15.3,8.1-24.1,22.8-24.1s22.8,8.8,22.8,24.1v49.8c0,15.3-8.1,24.1-22.8,24.1s-22.8-8.8-22.8-24.1V198.8z
			 M708,249.5c0,6.8,3,9.4,7.8,9.4c4.8,0,7.8-2.6,7.8-9.4v-51.7c0-6.8-3-9.4-7.8-9.4c-4.8,0-7.8,2.6-7.8,9.4V249.5z"/>
	</g>
	<g>
		<path d="M123.5,332.1h17.4c12,0,17.1,5.6,17.1,16.9v2.9c0,7.6-2.3,12.3-7.5,14.4v0.2c6.2,2.1,8.6,7.6,8.6,15.3v6.3
			c0,11.3-6,17.4-17.5,17.4h-18.2V332.1z M139.6,362.1c4.3,0,6.9-1.9,6.9-7.8v-4.1c0-5.3-1.8-7.6-5.9-7.6h-5.6v19.4H139.6z
			 M141.7,395.2c3.9,0,6-1.8,6-7.2v-6.4c0-6.8-2.2-8.9-7.5-8.9h-5.1v22.6H141.7z"/>
		<path d="M164.9,389.3v-20.8c0-11.1,5.9-17.4,16.4-17.4s16.4,6.3,16.4,17.4v20.8c0,11.1-5.9,17.4-16.4,17.4
			S164.9,400.4,164.9,389.3z M186.5,390.3v-22.9c0-3.7-1.2-6.5-5.3-6.5s-5.3,2.8-5.3,6.5v22.9c0,3.8,1.3,6.5,5.3,6.5
			S186.5,394.1,186.5,390.3z"/>
		<path d="M205.2,332.1h11.1v73.5h-11.1V332.1z"/>
		<path d="M248.1,405.7c-0.3-0.6-0.7-2.9-0.9-6.3c-1.9,4.6-5.9,7.4-10.8,7.4c-7.4,0-12.1-4.6-12.1-15.6v-24.4
			c0-11,4.7-15.6,12.1-15.6c4,0,7.4,1.8,9.6,4.9v-23.8H257v58.1c0,7.6,0.5,12.4,1.3,15.4H248.1z M245.9,388.2v-18.7
			c0-6.3-2.6-8.6-5.8-8.6c-3.7,0-4.7,2.8-4.7,6.5v22.9c0,3.7,1.1,6.5,4.7,6.5C243.2,396.8,245.9,394.5,245.9,388.2z"/>
	</g>
	<g>
		<path d="M640.4,772.3l77.7-191.1h-73.9v-38.1H763v37.3l-77.7,191.1H763v38.1H640.4V772.3z"/>
		<path d="M780.6,776.1l68.2-126.4h-64.3v-34.3h107V649l-68.2,126.4h68.2v34.3H780.6V776.1z"/>
	</g>
	<g>
		<path d="M200.7,757.5h-48.4l-7.2,52.2h-38.8l43.4-266.5h56.7l43.4,266.5h-41.9L200.7,757.5z M195.3,721.3l-19-134.4l-18.7,134.4
			H195.3z"/>
		<path d="M348.8,809.6c-1.1-2.3-2.7-10.7-3-22.8c-7.2,17.1-21.7,26.7-41.1,26.7c-25.9,0-42.3-18.7-42.3-48.7
			c0-30.5,12.6-48,46.8-64.7c27.8-13.7,31.6-17.1,31.6-27.8v-3.8c0-15.6-4.9-22.1-16.4-22.1c-12.6,0-18.3,8-18.3,22.5v7.2h-38.1v-5
			c0-37.7,19.4-59.4,56.7-59.4c40.4,0,56.4,21.3,56.4,64v78.1c0,27.4,1.9,44.9,4.6,56H348.8z M340.8,746.4v-33.1
			c-3,3.8-9.1,7.6-19.8,14.5c-12.2,7.6-18.3,17.5-18.3,30.1c0,13.7,5.7,20.9,17.1,20.9C333.5,778.8,340.8,767.8,340.8,746.4z"/>
	</g>
</g>
<g id="Layer_2" class="st1">
	<rect x="118.1" y="194.7" class="st2" width="560.3" height="101.1"/>
	<text transform="matrix(1 0 0 1 118.093 282.2213)" class="st3 st4 st5">Regular</text>
	<rect x="118.1" y="337.6" class="st2" width="560.3" height="101.1"/>
	<text transform="matrix(1 0 0 1 118.093 404.8169)" class="st3 st4 st6">Regular</text>
	<rect x="574.6" y="530.5" class="st2" width="371.4" height="250.2"/>
	<text transform="matrix(1 0 0 1 574.5936 774.0703)" class="st3 st7 st8">Aa</text>
	<rect x="102.4" y="530.5" class="st2" width="371.4" height="250.2"/>
	<text transform="matrix(1 0 0 1 102.4233 774.0703)" class="st3 st7 st8">Aa</text>
</g>
</svg>
