<svg id="Colour" xmlns="http://www.w3.org/2000/svg" width="431.1" height="491.1" viewBox="0 0 431.1 491.1"><rect width="431.1" height="491.05" fill="#fff"/><g id="Logo"><path d="M213.4,188.1s34.9-44.3,40.3-81.6l-20.3,19S225.7,165.8,213.4,188.1Z" fill="#3b549a"/><path d="M253.7,91.3c1.8-33.3-22.6-61.5-52-62.9s-54.6,24.5-56.4,57.9v-.8c-1.2,23.4,14.4,43.1,35,44s38.3-17.2,39.6-40.5h-.1c.8-15.6-9.6-28.7-23.3-29.4S171,71.1,170.1,86.7v2c.6-11.8,9.6-21,20-20.5s18.3,10.4,17.7,22.3h0c-.9,17.7-14.4,31.5-30,30.7s-27.5-15.7-26.5-33.4v.6c1.4-25.3,20.6-45,42.9-43.9s44.3,17.4,40.3,64.5Z" fill="#3b549a"/><path d="M327,193.2c-39.4,72-105.9,73.3-110.7,73.3H216c14.6,6.5,33.4,10,53.6,10,46,0,99.1-18.4,125.7-62.9A127.9,127.9,0,0,0,327,193.2Zm-57.4,73.3c-2.6,0-5.2,0-7.7-.2l.6-.2a144.1,144.1,0,0,0,37.8-23.5,157.7,157.7,0,0,0,32.4-39.2,116.8,116.8,0,0,1,48.4,13.4C354.1,253.3,306.8,266.5,269.6,266.5Z" fill="#63be6a"/><path d="M103.6,193.2a127.9,127.9,0,0,0-68.3,20.4c26.6,44.5,80.4,62.9,126.8,62.9,20.4,0,39.3-3.5,53.9-10h-.3C210.8,266.5,143.1,265.2,103.6,193.2Zm58.5,73.3c-23.2,0-46.8-4.9-66.7-13.9s-34.7-20.7-45.9-35.8a117.3,117.3,0,0,1,48.4-13.4,158.7,158.7,0,0,0,32.7,39.2,143,143,0,0,0,38.2,23.5l.6.3Z" fill="#63be6a"/><path d="M216,259.5c33.9.8,77.9-25.1,103.1-65.8C272.3,198.1,229.7,226.6,216,259.5Z" fill="#3b549a"/><path d="M112.9,193.7c25.2,40.7,69.2,66.6,103.1,65.8C202.3,226.6,159.8,198.1,112.9,193.7Z" fill="#3b549a"/><path d="M340.5,110.2C271.8,115.7,225,173.8,216,224.8c-9-51-55.8-109.1-124.5-114.6-1.8,26.1,6.3,53.9,16.8,74.9,84.2,7.5,108,58.8,108,58.8s28-52.8,107.1-57.6C333.8,165.3,342.3,136.3,340.5,110.2ZM200.3,209.7c-15.5-12.9-42.6-29-85.4-33.9-8.2-18-12.9-37.1-13.6-54.3,31.5,5.3,54,22.1,67.7,36a138.9,138.9,0,0,1,33.3,53.9Zm116.5-32.9c-40.2,3.7-67.2,19.5-83,32.4l-4.7,4c6.2-20.1,18.1-39.8,33.9-55.7,13.7-13.9,36.2-30.7,67.7-36C330,138.9,325.1,158.6,316.8,176.8Z" fill="#63be6a"/></g><g id="Wordmark"><g id="KARS"><path d="M67.5,348.5h7.7l27.3-32.3H94.7c-1.5,0-2.2-.8-2.2-2.3v-7.7c0-1.7.6-2.3,2.2-2.3h29.9c1.5,0,2.2.8,2.2,2.3v8c0,1.5-.7,2.3-2.2,2.3h-7.5l-29,34.9,29.2,43.1h9.5c1.5,0,2.2.8,2.2,2.3v7.4c0,1.7-.7,2.3-2.2,2.3H108a4.2,4.2,0,0,1-3.5-1.8L75,360.9H67.5v33.6h7.8c1.5,0,2.2.8,2.2,2.3v7.4c0,1.7-.7,2.3-2.2,2.3h-32c-1.5,0-2.2-.8-2.2-2.3v-7.4c0-1.7.7-2.3,2.2-2.3h7.8V316.2H43.3c-1.5,0-2.2-.8-2.2-2.3v-7.7c0-1.7.7-2.3,2.2-2.3h32c1.5,0,2.2.8,2.2,2.3v7.7c0,1.7-.7,2.3-2.2,2.3H67.5Z" fill="#3b549a"/><path d="M159.8,394.5h8.8c1.5,0,2.2.8,2.2,2.3v7.4c0,1.7-.7,2.3-2.2,2.3H137.4c-1.6,0-2.2-.8-2.2-2.3v-7.4c0-1.7.7-2.3,2.2-2.3H146l29.4-88.4a2.8,2.8,0,0,1,2.9-2.2h14.3a2.8,2.8,0,0,1,2.9,2.2l29.7,88.4h9.9c1.7,0,2.2.8,2.2,2.3v7.4c0,1.7-.7,2.3-2.2,2.3H198.3c-1.5,0-2.2-.8-2.2-2.3v-7.4c0-1.7.7-2.3,2.2-2.3h9.1l-6.9-20.3H166.6Zm9.7-31.7h27.8l-13.8-44.4Z" fill="#3b549a"/><path d="M243.8,396.8c0-1.5.7-2.3,2.2-2.3h7.6V316H246a1.9,1.9,0,0,1-2.2-2.2v-7.6c0-1.7.5-2.3,2.2-2.3,9.3-.4,22.7-.9,31.2-.9,25.3,0,38.2,8.8,38.2,28.1,0,13.6-7.4,23.7-17.8,28.7l17.2,34.7h9.1c1.5,0,2.2.8,2.2,2.3v7.4c0,1.7-.7,2.3-2.2,2.3H304.5a3.2,3.2,0,0,1-3.2-2l-20-40.6h-2.9a65.3,65.3,0,0,1-8.4-.5v31.1h9.3a2,2,0,0,1,2.2,2.3v7.4c0,1.7-.6,2.3-2.2,2.3H246c-1.5,0-2.2-.6-2.2-2.3ZM270,352h3.4c15.6,0,25.1-6.2,25.1-19.3s-11.3-17.2-23.2-17.2H270Z" fill="#3b549a"/><path d="M388.6,304.7a2.4,2.4,0,0,1,2,2.7v20.9a1.9,1.9,0,0,1-2.2,2.2h-8.2c-1.5,0-2.2-.6-2.1-2.2l.5-10.2a26.8,26.8,0,0,0-13.2-3.6c-9.1,0-15.7,4.8-15.7,13.3s5.1,13.4,17.1,18.1,28.5,10.7,28.5,30.7-12.6,31.7-35.2,31.7a86.7,86.7,0,0,1-24.7-3.9c-1.6-.5-2-1.2-2-2.8v-24c0-1.6.7-2.2,2.2-2.2h8.2c1.5,0,2.2.6,2,2.2l-.5,12.6c2.3,2.2,8.8,4.9,15.5,4.9,9.4,0,18.2-3.3,18.2-15.2s-7.9-15.4-19.4-19.3-25.9-10.9-25.9-28.7,11.7-30.5,33.1-30.5A79.8,79.8,0,0,1,388.6,304.7Z" fill="#3b549a"/></g><g id="Massage_Therapy" data-name="Massage Therapy"><polygon points="57.5 441.8 45.4 419.7 42.3 419.7 42.3 452 45.3 452 45.3 425.5 56.6 446 58.4 446 69.7 425.5 69.7 452 72.8 452 72.8 419.7 69.7 419.7 57.5 441.8" fill="#3b549a"/><path d="M73.3,452.5H69.2V427.4L58.7,446.5H56.3L45.8,427.4v25.1h-4V419.2h3.9l11.8,21.6,11.9-21.6h3.9Zm-3.1-1h2.1V420.2H70L57.5,442.8,45.1,420.2H42.8v31.3h2v-28l12.1,22h1.2l12.1-22Z" fill="#3b549a"/><path d="M97.4,448V437.3c0-2.9-.8-5.3-2.5-6.9a8.6,8.6,0,0,0-6.6-2.5,12.5,12.5,0,0,0-4.3.7,21.4,21.4,0,0,0-4.4,2.4l1.1,2a17.4,17.4,0,0,1,3.7-2.1,9.2,9.2,0,0,1,3.6-.7,6.3,6.3,0,0,1,4.7,1.8,7.4,7.4,0,0,1,1.7,5v2.2a13.5,13.5,0,0,0-3.2-.9,14.5,14.5,0,0,0-3.5-.4,12.3,12.3,0,0,0-3.9.6,8.3,8.3,0,0,0-3,1.4,7.2,7.2,0,0,0-2,2.3,6,6,0,0,0-.7,3,6.7,6.7,0,0,0,.6,2.8,5.3,5.3,0,0,0,1.6,2.3,6.7,6.7,0,0,0,2.4,1.6,8.7,8.7,0,0,0,3.2.6,10.7,10.7,0,0,0,4.9-1.2,9.1,9.1,0,0,0,3.9-3.3v1.9a2.4,2.4,0,0,0,.8,1.6,2.7,2.7,0,0,0,1.6.6h1.2v-2.7C97.7,449.3,97.4,448.8,97.4,448Zm-3-3a2.9,2.9,0,0,1-.2.9l-.5.9a8.3,8.3,0,0,1-3.1,2.4,9.2,9.2,0,0,1-3.9.9,6.2,6.2,0,0,1-2.5-.5,7.8,7.8,0,0,1-1.8-1.1,6.2,6.2,0,0,1-1.1-1.7,5.8,5.8,0,0,1-.3-1.9,4.2,4.2,0,0,1,2-3.7,8.8,8.8,0,0,1,5.1-1.3,17.3,17.3,0,0,1,3.2.3,15.8,15.8,0,0,1,3.1.9Z" fill="#3b549a"/><path d="M85.9,453a9.7,9.7,0,0,1-3.4-.6,7.8,7.8,0,0,1-2.6-1.7,8.5,8.5,0,0,1-1.7-2.5,7.3,7.3,0,0,1-.6-3,6.1,6.1,0,0,1,.8-3.2,7,7,0,0,1,2.1-2.5,8.7,8.7,0,0,1,3.2-1.5,16,16,0,0,1,7.6-.2,19.8,19.8,0,0,1,2.6.6V437a6.3,6.3,0,0,0-1.6-4.6,5.4,5.4,0,0,0-4.3-1.7,8.3,8.3,0,0,0-3.4.7,16.2,16.2,0,0,0-3.6,2l-.5.4-1.5-3,.3-.2a18,18,0,0,1,4.5-2.4,11.6,11.6,0,0,1,4.5-.8,9.6,9.6,0,0,1,7,2.6,10.2,10.2,0,0,1,2.6,7.3V448c0,.8.3.8.5.8h.5v3.6H97.2a2.8,2.8,0,0,1-1.9-.7,2.6,2.6,0,0,1-1-2v-.5a12.4,12.4,0,0,1-3.2,2.3A11.1,11.1,0,0,1,85.9,453Zm1.8-14.6a15.2,15.2,0,0,0-3.8.5,10.5,10.5,0,0,0-2.8,1.4,6.7,6.7,0,0,0-1.9,2.2,6,6,0,0,0-.6,2.7,7.5,7.5,0,0,0,.5,2.6,10.7,10.7,0,0,0,1.5,2.2,5.9,5.9,0,0,0,2.3,1.4,7.3,7.3,0,0,0,3,.6,10,10,0,0,0,4.7-1.2,8.5,8.5,0,0,0,3.7-3l.9-1.2v3.3a2.3,2.3,0,0,0,.6,1.3,3.3,3.3,0,0,0,1.3.4h.7v-1.9c-.5-.1-1-.5-1-1.7V437.3a9.3,9.3,0,0,0-2.3-6.6,8.9,8.9,0,0,0-6.3-2.3,12.3,12.3,0,0,0-4.2.7,28.1,28.1,0,0,0-3.8,2l.6,1.2a13.5,13.5,0,0,1,3.3-1.8,10,10,0,0,1,3.8-.8,6.5,6.5,0,0,1,5,2,7.2,7.2,0,0,1,1.9,5.3v2.9l-.7-.3a19.3,19.3,0,0,0-3.1-.9A19.5,19.5,0,0,0,87.7,438.4Zm-1,12.2a6.6,6.6,0,0,1-4.7-1.8,4.2,4.2,0,0,1-1.1-1.8,5.2,5.2,0,0,1-.4-2.1,4.7,4.7,0,0,1,2.2-4.1,9.8,9.8,0,0,1,5.4-1.4,18.4,18.4,0,0,1,3.3.3,17,17,0,0,1,3.2,1h.3V445a2.6,2.6,0,0,1-.3,1.1l-.5,1a8.7,8.7,0,0,1-3.3,2.6A10.5,10.5,0,0,1,86.7,450.6Zm1.4-10.2a8.3,8.3,0,0,0-4.9,1.3,3.7,3.7,0,0,0-1.7,3.2,4.7,4.7,0,0,0,.3,1.7,3.1,3.1,0,0,0,1,1.5,5,5,0,0,0,1.6,1.1,5.3,5.3,0,0,0,2.3.4,8.7,8.7,0,0,0,3.7-.9,7.2,7.2,0,0,0,2.9-2.2c.1-.3.3-.5.4-.8a2.5,2.5,0,0,0,.2-.7v-3.5a13.8,13.8,0,0,0-2.7-.8A16.3,16.3,0,0,0,88.1,440.4Z" fill="#3b549a"/><path d="M118.1,441a9.1,9.1,0,0,0-2.8-1.2,29,29,0,0,0-3.8-1.1l-2.6-.7-1.8-.8a3.2,3.2,0,0,1-1-1,3.8,3.8,0,0,1-.3-1.6,6.5,6.5,0,0,1,.4-2,5.3,5.3,0,0,1,1.2-1.4,9.8,9.8,0,0,1,1.8-.8l2.2-.2a9.9,9.9,0,0,1,3.8.7,7.9,7.9,0,0,1,3.1,2l1.4-1.8a9.3,9.3,0,0,0-3.4-2.3,12.8,12.8,0,0,0-4.8-.9,11.5,11.5,0,0,0-3.3.4,8.7,8.7,0,0,0-2.7,1.4,6.7,6.7,0,0,0-1.9,2.2,7.9,7.9,0,0,0-.6,3.2,5.3,5.3,0,0,0,.4,2.3,4.3,4.3,0,0,0,1.4,1.6,10.8,10.8,0,0,0,2.4,1.1,23.1,23.1,0,0,0,3.4,1l3,.8,2.2.9a3.5,3.5,0,0,1,1.7,2.8,3.7,3.7,0,0,1-1.7,3.3,7.2,7.2,0,0,1-4.4,1.2,11.6,11.6,0,0,1-4.2-.8,17,17,0,0,1-3.9-2.5l-1.4,2.1a11.4,11.4,0,0,0,4.4,2.6,13.4,13.4,0,0,0,5.2,1,10.1,10.1,0,0,0,6.5-2,6.1,6.1,0,0,0,2.4-5.1,5.3,5.3,0,0,0-.6-2.6A4.8,4.8,0,0,0,118.1,441Z" fill="#3b549a"/><path d="M111.5,453a17.1,17.1,0,0,1-5.4-1,12,12,0,0,1-4.5-2.7l-.3-.3,1.9-2.9.4.3a12.1,12.1,0,0,0,3.8,2.4,10.6,10.6,0,0,0,4,.8,7.5,7.5,0,0,0,4.2-1.1,3.4,3.4,0,0,0,1.4-2.9,2.3,2.3,0,0,0-.4-1.4,3.6,3.6,0,0,0-1.1-1,7.6,7.6,0,0,0-2-.8l-3-.8-3.5-1-2.5-1.2a4.3,4.3,0,0,1-1.5-1.8,4.9,4.9,0,0,1-.5-2.5,7.4,7.4,0,0,1,.7-3.4,5.9,5.9,0,0,1,2-2.4,9.4,9.4,0,0,1,2.8-1.5,13.4,13.4,0,0,1,3.5-.4,12.6,12.6,0,0,1,4.9.9,9,9,0,0,1,3.7,2.5l.3.3-2.1,2.6-.4-.4a8.4,8.4,0,0,0-2.9-2,10.9,10.9,0,0,0-3.6-.6l-2.1.2-1.6.7a4.1,4.1,0,0,0-1,1.3,2.9,2.9,0,0,0-.4,1.7,2.3,2.3,0,0,0,.3,1.3,2.2,2.2,0,0,0,.8.9l1.6.7,2.6.7a26.6,26.6,0,0,1,3.9,1.1,15.7,15.7,0,0,1,2.9,1.3,4.9,4.9,0,0,1,1.8,2,4.9,4.9,0,0,1,.7,2.8,6.6,6.6,0,0,1-2.6,5.5A10.4,10.4,0,0,1,111.5,453Zm-8.9-4.2a12.6,12.6,0,0,0,3.9,2.3,14.3,14.3,0,0,0,5,.9,9.4,9.4,0,0,0,6.1-1.8,5.9,5.9,0,0,0,2.3-4.8,5.7,5.7,0,0,0-.5-2.4,4.6,4.6,0,0,0-1.6-1.5,12.6,12.6,0,0,0-2.6-1.3l-3.8-1.1-2.7-.7a7.5,7.5,0,0,1-1.8-.8,2.3,2.3,0,0,1-1.2-1.2,3.4,3.4,0,0,1-.4-1.8,5.1,5.1,0,0,1,.5-2.2,4.3,4.3,0,0,1,1.4-1.6,4.1,4.1,0,0,1,1.9-.8,8.5,8.5,0,0,1,2.3-.3,10.9,10.9,0,0,1,4,.7,8.4,8.4,0,0,1,2.8,1.8l.8-1.1a9.1,9.1,0,0,0-2.9-1.9,13.4,13.4,0,0,0-4.6-.8,11.2,11.2,0,0,0-3.2.4,7.5,7.5,0,0,0-2.5,1.3,5.5,5.5,0,0,0-1.7,2,7.3,7.3,0,0,0-.6,3,4.6,4.6,0,0,0,.4,2.1,3.1,3.1,0,0,0,1.2,1.4,9.9,9.9,0,0,0,2.3,1,18.7,18.7,0,0,0,3.3,1l3.1.8a11.2,11.2,0,0,1,2.2,1,4.7,4.7,0,0,1,1.5,1.3,3.8,3.8,0,0,1,.5,1.9,4.1,4.1,0,0,1-1.9,3.7,7.3,7.3,0,0,1-4.7,1.3,11.2,11.2,0,0,1-4.4-.9,16.8,16.8,0,0,1-3.6-2.1Z" fill="#3b549a"/><path d="M139.4,441a9.1,9.1,0,0,0-2.8-1.2,29,29,0,0,0-3.8-1.1l-2.6-.7-1.8-.8a2.4,2.4,0,0,1-1-1,3.8,3.8,0,0,1-.3-1.6,4.5,4.5,0,0,1,.4-2,5.3,5.3,0,0,1,1.2-1.4,7.5,7.5,0,0,1,1.8-.8l2.2-.2a9.9,9.9,0,0,1,3.8.7,7.9,7.9,0,0,1,3.1,2l1.4-1.8a8.9,8.9,0,0,0-3.5-2.3,11.9,11.9,0,0,0-4.7-.9,11.5,11.5,0,0,0-3.3.4,6.9,6.9,0,0,0-2.7,1.4,6.7,6.7,0,0,0-1.9,2.2,7.9,7.9,0,0,0-.6,3.2,5.3,5.3,0,0,0,.4,2.3,4.3,4.3,0,0,0,1.4,1.6,9,9,0,0,0,2.4,1.1,23.1,23.1,0,0,0,3.4,1l3,.8,2.1.9a3,3,0,0,1,1.3,1.2,2.8,2.8,0,0,1,.5,1.6,3.7,3.7,0,0,1-1.7,3.3,7.2,7.2,0,0,1-4.4,1.2,11.6,11.6,0,0,1-4.2-.8,13.6,13.6,0,0,1-3.9-2.5l-1.4,2.1a11.4,11.4,0,0,0,4.4,2.6,13.4,13.4,0,0,0,5.2,1,9.8,9.8,0,0,0,6.4-2,6.2,6.2,0,0,0,2.5-5.1,5.3,5.3,0,0,0-.6-2.6A5.8,5.8,0,0,0,139.4,441Z" fill="#3b549a"/><path d="M132.8,453a16.6,16.6,0,0,1-5.4-1,12,12,0,0,1-4.5-2.7l-.3-.3,1.9-2.9.4.3a12.1,12.1,0,0,0,3.8,2.4,10.6,10.6,0,0,0,4,.8,6.9,6.9,0,0,0,4.1-1.1,3.2,3.2,0,0,0,1.1-4.3,3.6,3.6,0,0,0-1.1-1,7.6,7.6,0,0,0-2-.8l-3-.8-3.5-1-2.5-1.2a4.3,4.3,0,0,1-1.5-1.8,4.9,4.9,0,0,1-.5-2.5,7.4,7.4,0,0,1,.7-3.4,5.9,5.9,0,0,1,2-2.4,8.4,8.4,0,0,1,2.8-1.5,13.4,13.4,0,0,1,3.5-.4,12.6,12.6,0,0,1,4.9.9,9.7,9.7,0,0,1,3.7,2.5l.3.3-2.1,2.6-.4-.4a8.4,8.4,0,0,0-2.9-2,11.3,11.3,0,0,0-3.6-.6l-2.1.2-1.6.7a4.1,4.1,0,0,0-1,1.3,2.9,2.9,0,0,0-.4,1.7,3.9,3.9,0,0,0,.2,1.3,3.8,3.8,0,0,0,.9.9l1.6.7,2.6.7a26.6,26.6,0,0,1,3.9,1.1,15.7,15.7,0,0,1,2.9,1.3,4.9,4.9,0,0,1,1.8,2,5.8,5.8,0,0,1,.7,2.8,6.6,6.6,0,0,1-2.6,5.5A10.4,10.4,0,0,1,132.8,453Zm-8.9-4.2a13.3,13.3,0,0,0,3.8,2.3,15.2,15.2,0,0,0,5.1.9,9.4,9.4,0,0,0,6.1-1.8,5.9,5.9,0,0,0,2.3-4.8,4.5,4.5,0,0,0-.6-2.4,3.6,3.6,0,0,0-1.5-1.5,12.6,12.6,0,0,0-2.6-1.3l-3.8-1.1-2.7-.7-1.9-.8a2.5,2.5,0,0,1-1.1-1.2,3.4,3.4,0,0,1-.4-1.8,4.7,4.7,0,0,1,1.8-3.8,5,5,0,0,1,2-.8,8.5,8.5,0,0,1,2.3-.3,10,10,0,0,1,3.9.7,7.9,7.9,0,0,1,2.9,1.8l.8-1.1a10.4,10.4,0,0,0-2.9-1.9,13.4,13.4,0,0,0-4.6-.8,11.2,11.2,0,0,0-3.2.4,6.6,6.6,0,0,0-2.5,1.3,5.5,5.5,0,0,0-1.7,2,7.3,7.3,0,0,0-.6,3,4.6,4.6,0,0,0,.4,2.1,3.1,3.1,0,0,0,1.2,1.4,8.3,8.3,0,0,0,2.3,1,18.7,18.7,0,0,0,3.3,1l3,.8a9.9,9.9,0,0,1,2.3,1,3.5,3.5,0,0,1,1.4,1.3,3.1,3.1,0,0,1,.6,1.9,4.3,4.3,0,0,1-1.9,3.7,7.5,7.5,0,0,1-4.7,1.3,11.2,11.2,0,0,1-4.4-.9,16.8,16.8,0,0,1-3.6-2.1Z" fill="#3b549a"/><path d="M163.9,448V437.3a9.5,9.5,0,0,0-2.4-6.9,8.9,8.9,0,0,0-6.6-2.5,12.7,12.7,0,0,0-4.4.7,18.6,18.6,0,0,0-4.3,2.4l1,2a20.2,20.2,0,0,1,3.7-2.1,9.2,9.2,0,0,1,3.6-.7,6.1,6.1,0,0,1,4.7,1.8,6.9,6.9,0,0,1,1.7,5v2.2a13.5,13.5,0,0,0-3.2-.9,13.9,13.9,0,0,0-3.5-.4,12.3,12.3,0,0,0-3.9.6,8.3,8.3,0,0,0-3,1.4,7.2,7.2,0,0,0-2,2.3,7.3,7.3,0,0,0-.7,3,6.7,6.7,0,0,0,.6,2.8,6.3,6.3,0,0,0,1.6,2.3,7.2,7.2,0,0,0,2.5,1.6,7.8,7.8,0,0,0,3.1.6,11.5,11.5,0,0,0,5-1.2,10.4,10.4,0,0,0,3.9-3.3v1.9a1.8,1.8,0,0,0,.8,1.6,2.5,2.5,0,0,0,1.6.6h1.1v-2.7C164.3,449.3,163.9,448.8,163.9,448Zm-3-3a1.5,1.5,0,0,1-.2.9,4.1,4.1,0,0,1-.5.9,8.3,8.3,0,0,1-3.1,2.4,9.2,9.2,0,0,1-3.9.9,6.2,6.2,0,0,1-2.5-.5,7.8,7.8,0,0,1-1.8-1.1,4.2,4.2,0,0,1-1-1.7,4.1,4.1,0,0,1-.4-1.9,4.4,4.4,0,0,1,2-3.7,9.1,9.1,0,0,1,5.2-1.3l3.1.3a15.8,15.8,0,0,1,3.1.9Z" fill="#3b549a"/><path d="M152.4,453a8.8,8.8,0,0,1-3.3-.6,9.5,9.5,0,0,1-2.7-1.7,8.5,8.5,0,0,1-1.7-2.5,7.3,7.3,0,0,1-.6-3,7.2,7.2,0,0,1,.8-3.2,8.2,8.2,0,0,1,2.1-2.5,10.5,10.5,0,0,1,3.2-1.5,16,16,0,0,1,7.6-.2,16.7,16.7,0,0,1,2.6.6V437a6.3,6.3,0,0,0-1.6-4.6,5.2,5.2,0,0,0-4.3-1.7,8.3,8.3,0,0,0-3.4.7,16.2,16.2,0,0,0-3.6,2l-.5.4-1.5-3,.4-.2a17.5,17.5,0,0,1,4.4-2.4,12.1,12.1,0,0,1,4.6-.8,9.5,9.5,0,0,1,6.9,2.6,10.2,10.2,0,0,1,2.6,7.3V448c0,.8.3.8.5.8h.5v3.6h-1.6a2.6,2.6,0,0,1-1.9-.7,2.3,2.3,0,0,1-1-2v-.5a12.4,12.4,0,0,1-3.2,2.3A10.8,10.8,0,0,1,152.4,453Zm1.8-14.6a14.4,14.4,0,0,0-3.7.5,11.2,11.2,0,0,0-2.9,1.4,5.5,5.5,0,0,0-1.8,2.2,5,5,0,0,0-.7,2.7,5.8,5.8,0,0,0,.6,2.6,7.4,7.4,0,0,0,1.4,2.2,6.8,6.8,0,0,0,2.3,1.4,7.3,7.3,0,0,0,3,.6,10,10,0,0,0,4.7-1.2,9.4,9.4,0,0,0,3.8-3l.8-1.2.2,3.3a1.5,1.5,0,0,0,.6,1.3,2.8,2.8,0,0,0,1.3.4h.6v-1.9c-.4-.1-1-.5-1-1.7V437.3a9.3,9.3,0,0,0-2.3-6.6,8.5,8.5,0,0,0-6.2-2.3,11.6,11.6,0,0,0-4.2.7,24,24,0,0,0-3.9,2l.6,1.2a13.5,13.5,0,0,1,3.3-1.8,10.8,10.8,0,0,1,3.8-.8,6.9,6.9,0,0,1,5.1,2,7.6,7.6,0,0,1,1.8,5.3v2.9l-.7-.3a19.3,19.3,0,0,0-3.1-.9A19.5,19.5,0,0,0,154.2,438.4Zm-1,12.2a7.6,7.6,0,0,1-2.7-.5,5.3,5.3,0,0,1-1.9-1.3,3.6,3.6,0,0,1-1.2-1.8,5.2,5.2,0,0,1-.4-2.1,4.9,4.9,0,0,1,2.2-4.1,10.2,10.2,0,0,1,5.5-1.4l3.2.3a17,17,0,0,1,3.2,1h.3V445a5.2,5.2,0,0,1-.2,1.1l-.6,1a8.7,8.7,0,0,1-3.3,2.6A9.8,9.8,0,0,1,153.2,450.6Zm1.5-10.2a8.1,8.1,0,0,0-4.9,1.3,3.6,3.6,0,0,0-1.8,3.2,4.7,4.7,0,0,0,.3,1.7,4,4,0,0,0,1,1.5,6.4,6.4,0,0,0,1.6,1.1,5.3,5.3,0,0,0,2.3.4,8.4,8.4,0,0,0,3.7-.9,7.2,7.2,0,0,0,2.9-2.2l.5-.8a2,2,0,0,0,.1-.7v-3.5a10.7,10.7,0,0,0-2.7-.8A15.3,15.3,0,0,0,154.7,440.4Z" fill="#3b549a"/><path d="M188.2,433.2a14.5,14.5,0,0,0-3.6-3.8,9.6,9.6,0,0,0-9.4-.5,8.6,8.6,0,0,0-3.3,2.7,10.7,10.7,0,0,0-2.2,3.9,15,15,0,0,0-.8,4.7,13.3,13.3,0,0,0,.8,4.5,12.4,12.4,0,0,0,2.2,3.9,12.7,12.7,0,0,0,3.4,2.7,9.4,9.4,0,0,0,9-.3,10.3,10.3,0,0,0,3.6-3.6v4.7a8.1,8.1,0,0,1-.6,3.3,6.3,6.3,0,0,1-1.8,2.4,7.2,7.2,0,0,1-2.6,1.4,11.3,11.3,0,0,1-3.2.5,10.5,10.5,0,0,1-4.7-1.1,8.2,8.2,0,0,1-3.6-3.3l-1.9,1.5a12.1,12.1,0,0,0,3.9,3.9,11.8,11.8,0,0,0,6.3,1.5,16.2,16.2,0,0,0,4.4-.7,9.2,9.2,0,0,0,3.5-1.9,8.7,8.7,0,0,0,2.4-3.2,9.7,9.7,0,0,0,.9-4.3V428.3h-2.7Zm-.3,10.7a4.8,4.8,0,0,1-.9,2.1,7.5,7.5,0,0,1-1.7,1.9,10.5,10.5,0,0,1-2.3,1.3,5.8,5.8,0,0,1-2.6.5,7.2,7.2,0,0,1-3.3-.7,7.1,7.1,0,0,1-2.7-2.1,7.5,7.5,0,0,1-1.8-3,11.5,11.5,0,0,1-.7-3.6,10.3,10.3,0,0,1,.6-3.5,10.1,10.1,0,0,1,1.6-3.1,7.8,7.8,0,0,1,2.5-2.3,7.1,7.1,0,0,1,5.9-.3,9.4,9.4,0,0,1,2.2,1.2,8.5,8.5,0,0,1,1.9,1.9,7.6,7.6,0,0,1,1.3,2.3Z" fill="#3b549a"/><path d="M179.7,462.7a12.2,12.2,0,0,1-6.5-1.6,11.5,11.5,0,0,1-4.1-4.1l-.2-.3,2.6-2.2.3.5a8,8,0,0,0,3.4,3.2,9.9,9.9,0,0,0,4.5,1,9.4,9.4,0,0,0,3-.5,6.6,6.6,0,0,0,2.5-1.3,5.2,5.2,0,0,0,1.6-2.2,7.5,7.5,0,0,0,.6-3.1V449a10.3,10.3,0,0,1-7.8,3.8,8.4,8.4,0,0,1-4.5-1.1,10.9,10.9,0,0,1-3.6-2.8,15.5,15.5,0,0,1-2.3-4,15,15,0,0,1-.8-4.7,16.2,16.2,0,0,1,.8-4.9,12.7,12.7,0,0,1,2.3-4.1,10.8,10.8,0,0,1,3.5-2.8,9.6,9.6,0,0,1,4.5-1,8.9,8.9,0,0,1,5.4,1.6,17.9,17.9,0,0,1,2.8,2.7v-3.9h3.7v24.3a11.4,11.4,0,0,1-.9,4.6,10.6,10.6,0,0,1-2.6,3.3,9.5,9.5,0,0,1-3.7,2A16.3,16.3,0,0,1,179.7,462.7Zm-9.5-5.8a11.4,11.4,0,0,0,3.5,3.4,13.3,13.3,0,0,0,10.2.7,10.1,10.1,0,0,0,3.4-1.8,10,10,0,0,0,2.3-3,10.3,10.3,0,0,0,.8-4.1V428.8h-1.7v6.1l-.9-1.4a13.8,13.8,0,0,0-3.5-3.7,8.5,8.5,0,0,0-4.8-1.4,9.1,9.1,0,0,0-4.1.9,10.5,10.5,0,0,0-5.2,6.4,12.8,12.8,0,0,0,0,8.9,11.3,11.3,0,0,0,5.3,6.3,9.1,9.1,0,0,0,4.1.9,8.9,8.9,0,0,0,4.5-1.2,9.5,9.5,0,0,0,3.4-3.5l.9-1.5v6.5a7.8,7.8,0,0,1-.7,3.5,6.3,6.3,0,0,1-1.9,2.6,6.9,6.9,0,0,1-2.8,1.5,11.4,11.4,0,0,1-3.3.5,12.5,12.5,0,0,1-5-1.1,8.4,8.4,0,0,1-3.4-3.1Zm10.2-6.7a7.2,7.2,0,0,1-3.5-.8,8.6,8.6,0,0,1-2.9-2.1,11.3,11.3,0,0,1-1.9-3.2,12.2,12.2,0,0,1-.7-3.8,11.5,11.5,0,0,1,.6-3.7,10.9,10.9,0,0,1,1.7-3.2,7.8,7.8,0,0,1,2.7-2.4,7.1,7.1,0,0,1,3.6-.9,7.5,7.5,0,0,1,2.6.5,7,7,0,0,1,2.4,1.3,11.9,11.9,0,0,1,2,1.9,10.5,10.5,0,0,1,1.4,2.5V444a6.4,6.4,0,0,1-1,2.3,11.2,11.2,0,0,1-1.8,2,9.5,9.5,0,0,1-2.4,1.4A8.7,8.7,0,0,1,180.4,450.2Zm-.4-19.1a6.2,6.2,0,0,0-3.1.8,6.1,6.1,0,0,0-2.4,2.1,7.3,7.3,0,0,0-1.5,2.9,9.2,9.2,0,0,0,.1,6.8,9.2,9.2,0,0,0,1.7,2.9,6.7,6.7,0,0,0,2.5,1.9,7,7,0,0,0,5.5.3l2.2-1.3a6.9,6.9,0,0,0,1.6-1.8,5.2,5.2,0,0,0,.8-1.9v-7.2a7.2,7.2,0,0,0-1.2-2.1,7.7,7.7,0,0,0-1.8-1.8,8.8,8.8,0,0,0-2.1-1.2A6.2,6.2,0,0,0,180,431.1Z" fill="#3b549a"/><path d="M215.3,431.5a9.2,9.2,0,0,0-3.5-2.6,10,10,0,0,0-4.6-1,9.6,9.6,0,0,0-4.5,1,11.8,11.8,0,0,0-3.7,2.6,10.9,10.9,0,0,0-2.3,3.9,11.9,11.9,0,0,0-.9,4.7,12.8,12.8,0,0,0,.9,4.8,11.8,11.8,0,0,0,2.3,3.9,14.1,14.1,0,0,0,3.7,2.7,11.5,11.5,0,0,0,4.6,1,11.2,11.2,0,0,0,3.1-.5,11.8,11.8,0,0,0,2.8-1.2,8.2,8.2,0,0,0,2.2-1.9,6.1,6.1,0,0,0,1.5-2.4l-2.6-.7a5.8,5.8,0,0,1-1.1,1.8l-1.6,1.3a7.2,7.2,0,0,1-2,.9,9.1,9.1,0,0,1-2.3.3,6.7,6.7,0,0,1-3.1-.7,7.6,7.6,0,0,1-2.6-1.8,11.2,11.2,0,0,1-1.8-2.8,8.5,8.5,0,0,1-.8-3.5h19.4a4.3,4.3,0,0,0,.1-.5V440a13.9,13.9,0,0,0-.8-4.6A12.8,12.8,0,0,0,215.3,431.5Zm-16.4,7.4a10,10,0,0,1,.8-3.5,8,8,0,0,1,1.8-2.7,6.8,6.8,0,0,1,2.6-1.8,8.1,8.1,0,0,1,3.1-.6,8.7,8.7,0,0,1,3.2.6,7.6,7.6,0,0,1,2.6,1.8,12.7,12.7,0,0,1,1.8,2.7,10,10,0,0,1,.9,3.5Z" fill="#3b549a"/><path d="M207.3,453a10.6,10.6,0,0,1-4.8-1.1,9.7,9.7,0,0,1-3.8-2.8,12.2,12.2,0,0,1-2.5-4.1,13.8,13.8,0,0,1,0-9.8,11.8,11.8,0,0,1,2.5-4,11.3,11.3,0,0,1,3.7-2.8,11.2,11.2,0,0,1,4.8-1,10.9,10.9,0,0,1,4.8,1,11.3,11.3,0,0,1,3.7,2.8h0a10.2,10.2,0,0,1,2.4,4,12.8,12.8,0,0,1,.9,4.8v.8a2.2,2.2,0,0,1-.1.6v.4H199.5a9,9,0,0,0,.8,2.8,7.8,7.8,0,0,0,1.7,2.6,6.9,6.9,0,0,0,2.4,1.8,7.2,7.2,0,0,0,5,.3l1.9-.8,1.6-1.3a8.6,8.6,0,0,0,1-1.6l.2-.4,3.5,1-.2.5a8.7,8.7,0,0,1-1.6,2.6,10.6,10.6,0,0,1-2.3,1.9,10.1,10.1,0,0,1-3,1.3A11.3,11.3,0,0,1,207.3,453Zm-.1-24.6a10,10,0,0,0-4.3.9,11.2,11.2,0,0,0-3.5,2.5,12.8,12.8,0,0,0-2.3,3.7,14.4,14.4,0,0,0-.8,4.6,13.9,13.9,0,0,0,.8,4.6,13.3,13.3,0,0,0,2.3,3.8,12.4,12.4,0,0,0,3.5,2.5,9.8,9.8,0,0,0,7.4.5,8.5,8.5,0,0,0,2.6-1.1,9.6,9.6,0,0,0,2.2-1.8,9.9,9.9,0,0,0,1.1-1.7l-1.6-.5a6.5,6.5,0,0,1-1,1.5,4.9,4.9,0,0,1-1.8,1.4,10.2,10.2,0,0,1-2.1,1,8.1,8.1,0,0,1-8.4-2.4,9.7,9.7,0,0,1-1.9-2.9,7.8,7.8,0,0,1-.9-3.7v-.5H218V440a13.2,13.2,0,0,0-.8-4.4,13,13,0,0,0-2.2-3.8,12,12,0,0,0-3.4-2.5A10.5,10.5,0,0,0,207.2,428.4Zm9,11H198.3v-.5a9.9,9.9,0,0,1,2.7-6.6,7.5,7.5,0,0,1,2.8-1.8,8.7,8.7,0,0,1,6.7,0,8,8,0,0,1,2.7,1.8,10,10,0,0,1,2,2.9,10.6,10.6,0,0,1,.9,3.7Zm-16.8-1h15.7a10,10,0,0,0-2.5-5.4,7.8,7.8,0,0,0-2.4-1.6,7.6,7.6,0,0,0-5.9,0,7.2,7.2,0,0,0-2.5,1.6,11.7,11.7,0,0,0-1.7,2.6A12.8,12.8,0,0,0,199.4,438.4Z" fill="#3b549a"/><polygon points="229.6 422.5 240.7 422.5 240.7 452 243.7 452 243.7 422.5 254.8 422.5 254.8 419.7 229.6 419.7 229.6 422.5" fill="#3b549a"/><path d="M244.2,452.5h-4V423H229.1v-3.8h26.2V423H244.2Zm-3-1h2V422h11.1v-1.8H230.1V422h11.1Z" fill="#3b549a"/><path d="M276.3,430.7a6.3,6.3,0,0,0-2.2-2.1,7.1,7.1,0,0,0-3.4-.7,9.5,9.5,0,0,0-5.1,1.5,11.3,11.3,0,0,0-3.8,4.3V418.8h-3V452h3V437.5a6.6,6.6,0,0,1,1.2-2.7,7.6,7.6,0,0,1,1.9-2.1,8.3,8.3,0,0,1,2.3-1.5,7.4,7.4,0,0,1,2.5-.5,4.4,4.4,0,0,1,3.9,2,11,11,0,0,1,1.4,6.1V452h2.9V438.1a25.4,25.4,0,0,0-.3-4.1A9.9,9.9,0,0,0,276.3,430.7Z" fill="#3b549a"/><path d="M278.4,452.5h-3.9V438.8c0-2.6-.4-4.6-1.3-5.8a3.9,3.9,0,0,0-3.5-1.8,6.8,6.8,0,0,0-2.3.5,9.8,9.8,0,0,0-2.2,1.3,9.1,9.1,0,0,0-1.8,2.1,7.4,7.4,0,0,0-1.1,2.4v15h-4V418.3h4v13.6a10.4,10.4,0,0,1,3-2.9,9.7,9.7,0,0,1,5.4-1.6,6.8,6.8,0,0,1,3.6.8,5.9,5.9,0,0,1,2.4,2.3,8.2,8.2,0,0,1,1.3,3.3,19.6,19.6,0,0,1,.4,4.3Zm-2.9-1h1.9V438.1a24.1,24.1,0,0,0-.3-4,11.1,11.1,0,0,0-1.2-3.1,4.8,4.8,0,0,0-2.1-1.9,5.7,5.7,0,0,0-3.1-.7,9.9,9.9,0,0,0-4.9,1.4,11,11,0,0,0-3.6,4.1l-.9,1.8V419.3h-2v32.2h2V437.3a10.2,10.2,0,0,1,1.3-2.8,8.3,8.3,0,0,1,2-2.2,6.9,6.9,0,0,1,2.4-1.5,6.6,6.6,0,0,1,2.7-.6,5,5,0,0,1,4.4,2.2,12.2,12.2,0,0,1,1.4,6.4Z" fill="#3b549a"/><path d="M302.2,431.5a10.4,10.4,0,0,0-3.6-2.6,10,10,0,0,0-4.6-1,9.6,9.6,0,0,0-4.5,1,10.4,10.4,0,0,0-3.6,2.6,9.8,9.8,0,0,0-2.4,3.9,11.9,11.9,0,0,0-.9,4.7,12.8,12.8,0,0,0,.9,4.8,10.6,10.6,0,0,0,2.4,3.9,12.2,12.2,0,0,0,3.6,2.7,11.5,11.5,0,0,0,4.6,1,10.6,10.6,0,0,0,3.1-.5,11.8,11.8,0,0,0,2.8-1.2,10.6,10.6,0,0,0,2.3-1.9,7.2,7.2,0,0,0,1.4-2.4l-2.5-.7a9.4,9.4,0,0,1-1.2,1.8,7,7,0,0,1-1.6,1.3,7.2,7.2,0,0,1-2,.9,8.3,8.3,0,0,1-2.2.3,7.1,7.1,0,0,1-3.2-.7,7.2,7.2,0,0,1-2.5-1.8,9.2,9.2,0,0,1-1.9-2.8,10.5,10.5,0,0,1-.8-3.5h19.4a.7.7,0,0,0,.1-.5V440a13.9,13.9,0,0,0-.8-4.6A12.6,12.6,0,0,0,302.2,431.5Zm-16.5,7.4a10,10,0,0,1,.8-3.5,8,8,0,0,1,1.8-2.7,6.8,6.8,0,0,1,2.6-1.8,8.1,8.1,0,0,1,3.1-.6,8.7,8.7,0,0,1,3.2.6,7.6,7.6,0,0,1,2.6,1.8,12.7,12.7,0,0,1,1.8,2.7,10,10,0,0,1,.9,3.5Z" fill="#3b549a"/><path d="M294.1,453a10.6,10.6,0,0,1-4.8-1.1,9.7,9.7,0,0,1-3.8-2.8A12.2,12.2,0,0,1,283,445a13.8,13.8,0,0,1,0-9.8,11.8,11.8,0,0,1,2.5-4,10.8,10.8,0,0,1,3.8-2.8,10.4,10.4,0,0,1,4.7-1,10.6,10.6,0,0,1,4.8,1,10.4,10.4,0,0,1,3.7,2.8h0a10.2,10.2,0,0,1,2.4,4,12.8,12.8,0,0,1,.9,4.8v.8a2.2,2.2,0,0,1-.1.6v.4H286.3a9,9,0,0,0,.8,2.8,7.8,7.8,0,0,0,1.7,2.6,6.9,6.9,0,0,0,2.4,1.8,7.5,7.5,0,0,0,5.1.3l1.8-.8,1.6-1.3a5.4,5.4,0,0,0,1-1.6l.2-.4,3.5,1-.2.5a9.2,9.2,0,0,1-3.9,4.5,10.8,10.8,0,0,1-2.9,1.3A12.6,12.6,0,0,1,294.1,453Zm-.1-24.6a10.4,10.4,0,0,0-4.3.9,12.4,12.4,0,0,0-3.5,2.5,15.4,15.4,0,0,0-2.3,3.7,14.4,14.4,0,0,0-.8,4.6,13.9,13.9,0,0,0,.8,4.6,16,16,0,0,0,2.3,3.8,12.4,12.4,0,0,0,3.5,2.5,9.8,9.8,0,0,0,7.4.5,8.1,8.1,0,0,0,2.7-1.1,9.1,9.1,0,0,0,2.1-1.8,6.2,6.2,0,0,0,1.1-1.7l-1.6-.5a6.5,6.5,0,0,1-1,1.5,5.5,5.5,0,0,1-1.7,1.4l-2.2,1a8.1,8.1,0,0,1-8.4-2.4,9.7,9.7,0,0,1-1.9-2.9,11.2,11.2,0,0,1-.9-3.7v-.5h19.6V440a13.2,13.2,0,0,0-.8-4.4,13,13,0,0,0-2.2-3.8,12,12,0,0,0-3.4-2.5A10.5,10.5,0,0,0,294,428.4Zm9,11H285.1v-.5a14.3,14.3,0,0,1,.8-3.7,11.2,11.2,0,0,1,1.9-2.9,7.5,7.5,0,0,1,2.8-1.8,8.7,8.7,0,0,1,6.7,0,7.1,7.1,0,0,1,2.7,1.8,10,10,0,0,1,2,2.9,10.6,10.6,0,0,1,.9,3.7Zm-16.8-1h15.7a12.8,12.8,0,0,0-.7-2.8,12,12,0,0,0-1.8-2.6,7.8,7.8,0,0,0-2.4-1.6,7.6,7.6,0,0,0-5.9,0,8.2,8.2,0,0,0-2.5,1.6,8.7,8.7,0,0,0-1.6,2.6A9,9,0,0,0,286.2,438.4Z" fill="#3b549a"/><path d="M319.8,428.1a6.2,6.2,0,0,0-4.1,1.7,12.1,12.1,0,0,0-3.1,4.2v-5.7h-2.8V452h2.9V437.3a9.1,9.1,0,0,1,3.2-4.6,10.1,10.1,0,0,1,5.2-1.7v-2.8h-1.3Z" fill="#3b549a"/><path d="M313.2,452.5h-3.9V427.8h3.8v4.3a14.4,14.4,0,0,1,2.2-2.7,6.8,6.8,0,0,1,4.5-1.8h1.8v3.7h-.5a9.2,9.2,0,0,0-4.9,1.6,9.1,9.1,0,0,0-3,4.2Zm-2.9-1h1.9V437.1a9.1,9.1,0,0,1,3.3-4.8,10.4,10.4,0,0,1,5-1.8v-1.9h-.8a6.1,6.1,0,0,0-3.8,1.6,12.4,12.4,0,0,0-3,4l-.9,2v-7.4h-1.8Z" fill="#3b549a"/><path d="M342.2,448V437.3a9.5,9.5,0,0,0-2.5-6.9,8.6,8.6,0,0,0-6.6-2.5,13.1,13.1,0,0,0-4.4.7,20.9,20.9,0,0,0-4.3,2.4l1.1,2a15.3,15.3,0,0,1,3.7-2.1,9.2,9.2,0,0,1,3.6-.7,6.3,6.3,0,0,1,4.7,1.8,7.4,7.4,0,0,1,1.7,5v2.2a13.5,13.5,0,0,0-3.2-.9,14.5,14.5,0,0,0-3.5-.4,12.3,12.3,0,0,0-3.9.6,9.8,9.8,0,0,0-3.1,1.4,6.9,6.9,0,0,0-1.9,2.3,6,6,0,0,0-.7,3,8.7,8.7,0,0,0,.5,2.8,7.9,7.9,0,0,0,1.6,2.3,8.2,8.2,0,0,0,5.7,2.2,10.7,10.7,0,0,0,4.9-1.2,10.4,10.4,0,0,0,3.9-3.3v1.9a2.4,2.4,0,0,0,2.4,2.2h1.2v-2.7C342.5,449.3,342.2,448.8,342.2,448Zm-3-3a2.9,2.9,0,0,1-.2.9l-.6.9a7.3,7.3,0,0,1-3,2.4,9.3,9.3,0,0,1-4,.9,6,6,0,0,1-2.4-.5,7.8,7.8,0,0,1-1.8-1.1,4.5,4.5,0,0,1-1.1-1.7,5.8,5.8,0,0,1-.3-1.9,4.2,4.2,0,0,1,2-3.7,8.8,8.8,0,0,1,5.1-1.3,17.3,17.3,0,0,1,3.2.3,15.8,15.8,0,0,1,3.1.9Z" fill="#3b549a"/><path d="M330.7,453a9.3,9.3,0,0,1-3.4-.6,7.8,7.8,0,0,1-2.6-1.7,8.5,8.5,0,0,1-1.7-2.5,7.3,7.3,0,0,1-.6-3,7.1,7.1,0,0,1,.7-3.2,8.2,8.2,0,0,1,2.1-2.5,10.5,10.5,0,0,1,3.2-1.5,16.5,16.5,0,0,1,7.7-.2,19.8,19.8,0,0,1,2.6.6V437a6.3,6.3,0,0,0-1.6-4.6,5.4,5.4,0,0,0-4.3-1.7,8.7,8.7,0,0,0-3.5.7,18.2,18.2,0,0,0-3.5,2l-.5.4-1.5-3,.3-.2a16.4,16.4,0,0,1,4.5-2.4,11.2,11.2,0,0,1,4.5-.8,9.8,9.8,0,0,1,7,2.6,10.2,10.2,0,0,1,2.6,7.3V448c0,.8.3.8.5.8h.5v3.6H342a2.8,2.8,0,0,1-1.9-.7,2.6,2.6,0,0,1-1-2v-.5a11.4,11.4,0,0,1-3.3,2.3A10.5,10.5,0,0,1,330.7,453Zm1.8-14.6a15.2,15.2,0,0,0-3.8.5,11.2,11.2,0,0,0-2.9,1.4,7.9,7.9,0,0,0-1.8,2.2,6,6,0,0,0-.6,2.7,7.5,7.5,0,0,0,.5,2.6,10.7,10.7,0,0,0,1.5,2.2,5.9,5.9,0,0,0,2.3,1.4,7.3,7.3,0,0,0,3,.6,10,10,0,0,0,4.7-1.2,9.1,9.1,0,0,0,3.7-3l.9-1.2v3.3a2.3,2.3,0,0,0,.6,1.3,3.3,3.3,0,0,0,1.3.4h.7v-1.9c-.5-.1-1-.5-1-1.7V437.3a9.3,9.3,0,0,0-2.3-6.6,8.9,8.9,0,0,0-6.3-2.3,12,12,0,0,0-4.2.7,28.1,28.1,0,0,0-3.8,2l.5,1.2a16.1,16.1,0,0,1,3.4-1.8,10,10,0,0,1,3.8-.8,6.5,6.5,0,0,1,5,2,7.2,7.2,0,0,1,1.9,5.3v2.9l-.7-.3a19.3,19.3,0,0,0-3.1-.9Zm-1.1,12.2a6.7,6.7,0,0,1-2.6-.5,6.9,6.9,0,0,1-2-1.3,5.7,5.7,0,0,1-1.2-1.8,7.6,7.6,0,0,1-.3-2.1,4.7,4.7,0,0,1,2.2-4.1,9.8,9.8,0,0,1,5.4-1.4,18.4,18.4,0,0,1,3.3.3,17,17,0,0,1,3.2,1h.3V445a2.6,2.6,0,0,1-.3,1.1,2.7,2.7,0,0,1-.6,1,9.2,9.2,0,0,1-3.2,2.6A10.6,10.6,0,0,1,331.4,450.6Zm1.5-10.2a8.3,8.3,0,0,0-4.9,1.3,3.5,3.5,0,0,0-1.7,3.2,4.7,4.7,0,0,0,.3,1.7,3.8,3.8,0,0,0,.9,1.5,7.1,7.1,0,0,0,1.7,1.1,5.1,5.1,0,0,0,2.2.4,8.8,8.8,0,0,0,3.8-.9,6.9,6.9,0,0,0,2.8-2.2,3.5,3.5,0,0,0,.5-.8,2.5,2.5,0,0,0,.2-.7v-3.5a13.8,13.8,0,0,0-2.7-.8Z" fill="#3b549a"/><path d="M367.6,431.6a13.1,13.1,0,0,0-3.5-2.7,9.1,9.1,0,0,0-4.3-1,8.5,8.5,0,0,0-4.9,1.4,10.3,10.3,0,0,0-3.6,3.6v-4.6h-2.7v33.4h3V447.1a11.9,11.9,0,0,0,3.6,3.8,8.4,8.4,0,0,0,5.1,1.6,10,10,0,0,0,4.2-1,14,14,0,0,0,3.3-2.7,12.2,12.2,0,0,0,2.1-3.9,14.9,14.9,0,0,0,.7-4.7,14.4,14.4,0,0,0-.8-4.6A14.1,14.1,0,0,0,367.6,431.6Zm-.6,12.1a8.1,8.1,0,0,1-1.7,3,7.5,7.5,0,0,1-2.5,2.2,6.2,6.2,0,0,1-3.3.8,6.9,6.9,0,0,1-2.5-.4,7.1,7.1,0,0,1-2.2-1.3,8.5,8.5,0,0,1-1.9-1.9,10.5,10.5,0,0,1-1.3-2.3v-7.3a5,5,0,0,1,.9-2.3,8.1,8.1,0,0,1,1.9-1.8,7.6,7.6,0,0,1,2.3-1.3,6.9,6.9,0,0,1,2.4-.5,7.3,7.3,0,0,1,3.3.8,7.9,7.9,0,0,1,2.7,2.1,9.2,9.2,0,0,1,1.8,3,11.6,11.6,0,0,1,.7,3.7A10.3,10.3,0,0,1,367,443.7Z" fill="#3b549a"/><path d="M352.1,462.2h-4V427.8h3.7v3.5a14.1,14.1,0,0,1,2.9-2.5,9.8,9.8,0,0,1,5.1-1.4,9.2,9.2,0,0,1,4.6,1.1,11.7,11.7,0,0,1,3.5,2.8h0a13.3,13.3,0,0,1,3.2,8.9,13.6,13.6,0,0,1-.8,4.9,11.1,11.1,0,0,1-2.2,4,10.2,10.2,0,0,1-3.4,2.8,9.3,9.3,0,0,1-4.4,1.1,9.4,9.4,0,0,1-5.4-1.7,11.6,11.6,0,0,1-2.8-2.6Zm-3-1h2v-16l.9,1.6a10.4,10.4,0,0,0,3.5,3.7,8.1,8.1,0,0,0,4.8,1.5,8.4,8.4,0,0,0,3.9-1,9.6,9.6,0,0,0,3.2-2.5,13.7,13.7,0,0,0,2-3.8,13.3,13.3,0,0,0,.7-4.5,11.9,11.9,0,0,0-.8-4.5,11.2,11.2,0,0,0-2.1-3.7h0a10.9,10.9,0,0,0-3.3-2.7,9.5,9.5,0,0,0-4.1-.9,8.2,8.2,0,0,0-4.6,1.3,11.4,11.4,0,0,0-3.5,3.4l-.9,1.5v-5.8h-1.7Zm10.4-11a6.5,6.5,0,0,1-2.7-.5,10.1,10.1,0,0,1-4.3-3.3,18.8,18.8,0,0,1-1.4-2.4v-7.5a5.9,5.9,0,0,1,1-2.6,9,9,0,0,1,2-1.9,10,10,0,0,1,2.4-1.4,7.2,7.2,0,0,1,6.1.3,10.6,10.6,0,0,1,2.9,2.2,10.8,10.8,0,0,1,2.6,7.1,11.9,11.9,0,0,1-.6,3.7h0a11.4,11.4,0,0,1-1.8,3.2,7.3,7.3,0,0,1-2.7,2.2A6.8,6.8,0,0,1,359.5,450.2Zm-7.4-6.5a8.8,8.8,0,0,0,1.2,2.1,7.7,7.7,0,0,0,1.8,1.8,7.2,7.2,0,0,0,2.1,1.2,6.5,6.5,0,0,0,5.3-.3,7.2,7.2,0,0,0,2.5-2.1,8.9,8.9,0,0,0,1.5-2.9h0a9.2,9.2,0,0,0,.6-3.3,10.4,10.4,0,0,0-.7-3.5,9.2,9.2,0,0,0-1.7-2.9,8.2,8.2,0,0,0-2.5-2,6.9,6.9,0,0,0-5.3-.3,9.8,9.8,0,0,0-2.2,1.3,7.3,7.3,0,0,0-1.8,1.7,5.4,5.4,0,0,0-.8,2.1Z" fill="#3b549a"/><path d="M392.2,428.3l-7.8,20.8L376,428.3h-3.1l9.9,23.7c-.6,1.5-1.1,2.7-1.4,3.6a21.7,21.7,0,0,1-1,2.1,3.6,3.6,0,0,1-.6,1.1l-.4.4h-2.6v2.8h1.5a5.4,5.4,0,0,0,3.1-.8,5.2,5.2,0,0,0,1.8-2.5L395,428.3Z" fill="#3b549a"/><path d="M378.3,462.7h-2v-3.8h2.9l.2-.3a3.1,3.1,0,0,0,.6-.9l.9-2.1c.4-.8.8-2,1.4-3.4l-10.2-24.2h4.2l8.1,20,7.5-20h3.9l-12.1,31.3a6.4,6.4,0,0,1-2,2.7A5.7,5.7,0,0,1,378.3,462.7Zm-1-1.1h1a4.5,4.5,0,0,0,2.8-.7,5,5,0,0,0,1.6-2.3l11.6-29.9h-1.7l-8.2,21.7-8.7-21.7h-2.1l9.7,23.2v.2l-1.5,3.6-.9,2.1-.7,1.2a1.8,1.8,0,0,1-.7.5,1.3,1.3,0,0,1-.8.2h-1.4Z" fill="#3b549a"/></g></g></svg>