<?xml version="1.0" encoding="iso-8859-1"?>
<!-- Generator: Adobe Illustrator 25.0.1, SVG Export Plug-In . SVG Version: 6.00 Build 0)  -->
<svg version="1.1" id="Layer_1" xmlns="http://www.w3.org/2000/svg" xmlns:xlink="http://www.w3.org/1999/xlink" x="0px" y="0px"
	 viewBox="0 0 766.2 466.85" style="enable-background:new 0 0 766.2 466.85;" xml:space="preserve">
<g id="Colour_Breakdown">
	<rect x="436.6" width="181.1" height="167.94"/>
	<path d="M118.7,10H105v45.3l12.4-15.1l0,0l3.1-3.7c4.6-0.6,8.9-4.7,8.9-12.8S125,10,118.7,10z M121.9,31.2L109,15h9.2
		c4.1,0,6.8,3.5,6.8,8.7C125,27,123.8,29.7,121.9,31.2z"/>
	<polygon points="94.5,27.1 73.9,27.1 74,13.7 94.9,13.7 94.9,10 70.2,10 70.1,30.8 94.5,30.8 	"/>
	<polygon points="73.9,37 94.5,37 94.5,33.2 70.1,33.2 70.2,55.4 94.9,55.4 94.9,51.7 73.9,51.7 	"/>
	<path d="M136.3,10h3.7v45.4h-3.7V10z"/>
	<path d="M70.2,61.7h3.7v45.2h-3.7V61.7z"/>
	<path d="M103.2,113.2h3.7v45.2h-3.7V113.2z"/>
	<rect x="126.1" y="130.1" width="13.9" height="3.77"/>
	<path d="M136.3,136.4h-10.2v3.8h10.1v9.2c-0.735,1.108-1.647,2.088-2.7,2.9c-1.438,1.268-3.283,1.978-5.2,2c-5,0-9-4.6-10.7-11.5
		c-0.182-0.858-0.316-1.727-0.4-2.6c-0.116-0.829-0.183-1.663-0.2-2.5c-0.086-0.629-0.119-1.265-0.1-1.9c0-10.8,4.9-18.4,11.4-18.4
		c1.93,0.05,3.777,0.796,5.2,2.1c1.133,0.874,2.084,1.961,2.8,3.2c0.226,0.3,0.395,0.639,0.5,1l3-2.8c-0.943-1.812-2.12-3.493-3.5-5
		c-0.865-0.786-1.803-1.49-2.8-2.1c-1.575-0.929-3.372-1.413-5.2-1.4c-8.5,0-15.3,9.4-15.3,23.4c0,0.7,0.1,1.3,0.1,1.9
		c0.017,0.837,0.084,1.671,0.2,2.5l0.3,2.6c1.9,10.1,7.7,16.5,14.7,16.5c1.812-0.014,3.595-0.46,5.2-1.3
		c0.993-0.54,1.931-1.177,2.8-1.9c1.408-1.358,2.62-2.906,3.6-4.6v-15.1H136.3z"/>
	<polygon points="43,27.1 43,10 39.4,10 39.4,31.9 39.4,55.4 43,55.4 43,34.6 43,31.9 43,30.7 57.7,30.7 57.7,27.1 	"/>
	<polygon points="60.1,10 60.1,29.5 60.1,31.9 60.1,33.2 45.8,33.2 45.8,36.8 60.1,36.8 60.1,55.4 63.7,55.4 63.7,31.9 63.7,10 	"/>
	<polygon points="63.5,130.2 42.9,130.2 43,116.8 63.9,116.8 63.9,113.1 39.1,113.1 39.1,133.9 63.5,133.9 	"/>
	<polygon points="42.9,140.2 63.5,140.2 63.5,136.3 39.1,136.3 39.1,158.5 63.9,158.5 63.9,154.8 42.9,154.8 	"/>
	<path d="M90.4,61.7H80.3v45.2H84l0,0h6.3c9.2,0,15.2-9.7,15.2-22.6S99.6,61.7,90.4,61.7z M90.4,101.9h-6.1l14.2-17.4L84.3,66.6h6.1
		c7.3,0,11.4,7.9,11.4,17.6S97.6,101.9,90.4,101.9z"/>
	<path d="M18.3,113.2H8.1v45.2h3.7l0,0h6.4c9.2,0,15.2-9.7,15.2-22.6S27.5,113.2,18.3,113.2z M18.3,153.4h-6L26.4,136l-14.3-17.8
		h6.2c7.3,0,11.3,7.9,11.3,17.6S25.5,153.4,18.3,153.4L18.3,153.4z"/>
	<polygon points="116.8,91.9 116.8,91.9 116.8,91.9 	"/>
	<polygon points="136.4,91.9 122.3,91.9 121.5,95.8 132.9,95.9 136.2,106.9 141,106.9 	"/>
	<polygon points="129.7,84.6 129.7,84.6 129.7,84.6 	"/>
	<polyline points="130.9,89 135.3,89 129.7,70.3 127,61.7 121.7,61.7 119,70.2 114.6,84.6 112.4,91.9 107.7,106.9 112.5,106.9 
		115.6,96.9 116.8,91.9 116.8,91.9 119,84.6 124.4,66.7 127.2,76.1 	"/>
	<polygon points="150.1,96.7 150.1,61.7 146.4,61.7 146.4,100.3 148.2,100.3 148.2,100.4 170.9,100.4 170.9,96.7 	"/>
	<polygon points="146.4,103.3 146.4,106.9 151.6,106.9 170.9,106.9 170.9,103.3 	"/>
	<polygon points="124.4,55.4 129.4,55.4 121.7,38.9 118.6,42.6 	"/>
	<polygon points="105,55.4 117.4,40.2 105,55.3 	"/>
	<polygon points="120.5,36.5 120.5,36.5 120.5,36.5 	"/>
	<polygon points="117.4,40.2 117.4,40.2 117.4,40.2 	"/>
	<polygon points="167.3,10 167.3,24.9 167.3,40.1 167.3,48.5 152.8,26.7 152.8,33.2 167.4,55.4 170.9,55.4 170.9,40.1 170.9,24.9 
		170.9,10 	"/>
	<polyline points="150.2,10 146.4,10 146.4,24.9 146.4,40.1 146.4,55.4 150.1,55.4 150.1,40.1 150.1,24.9 150.1,16.5 164.2,39.1 
		164.2,32.2 	"/>
	<polygon points="60.1,61.7 60.1,76.6 60.1,91.8 60.1,100.1 45.7,78.4 45.7,84.9 60.2,107.1 63.8,107.1 63.8,91.8 63.8,76.6 
		63.8,61.7 	"/>
	<polyline points="43,61.7 39.2,61.7 39.2,76.6 39.2,91.8 39.2,107.1 42.9,107.1 42.9,91.8 42.9,76.6 42.9,68.2 57.1,90.8 
		57.1,83.9 	"/>
	<polygon points="167.3,113.1 167.3,128.1 167.3,143.2 167.3,151.6 152.8,129.8 152.8,136.3 167.4,158.5 170.9,158.5 170.9,143.2 
		170.9,128.1 170.9,113.1 	"/>
	<polyline points="150.2,113.1 146.4,113.1 146.4,128.1 146.4,143.2 146.4,158.5 150.1,158.5 150.1,143.2 150.1,128.1 150.1,119.6 
		164.2,142.2 164.2,135.3 	"/>
	<path d="M21.3,24.4c-3.1-0.9-6-1.6-7.5-3.2c-0.599-0.693-0.92-1.584-0.9-2.5c0-3.2,2.9-5.4,7.1-5.4c3.8-0.152,7.481,1.342,10.1,4.1
		l2.6-3.2c-2.9-3-7.1-4.8-12.4-4.8c-6.8,0-11.9,3.9-11.9,9.6c0.013,0.737,0.079,1.473,0.2,2.2c1.3,4.9,6.7,6.2,11.6,7.5
		s6.9,1.9,8.2,4.2l2.8-3.8C28.9,26.5,24.9,25.3,21.3,24.4z"/>
	<path d="M20.2,34.5c-3.1-0.9-5.4-2-6.8-3.6l-2.7,3.6c2.5,2.3,5.2,3.3,8.4,4.5s7.9,2,9.2,4.5c0.328,0.723,0.498,1.507,0.5,2.3
		c0,2.8-2,6.2-8.1,6.2c-4.21,0-8.202-1.868-10.9-5.1l-2.5,3.4c2.8,3.4,7.2,5.7,13.2,5.7c9.3,0,12.7-5.3,12.7-10.5
		c0.042-0.772-0.025-1.547-0.2-2.3C31.9,37.5,25.3,35.9,20.2,34.5z"/>
	<path d="M21.3,75.2c-3.1-0.9-6-1.6-7.5-3.2c-0.599-0.693-0.92-1.584-0.9-2.5c0-3.2,2.9-5.4,7.1-5.4c3.8-0.152,7.481,1.342,10.1,4.1
		l2.6-3.2c-2.9-3-7.1-4.8-12.4-4.8c-6.8,0-11.9,3.9-11.9,9.6c0.013,0.737,0.079,1.473,0.2,2.2c1.3,4.9,6.7,6.2,11.6,7.5
		s6.9,1.9,8.2,4.2l2.8-3.8C28.9,77.3,24.9,76.1,21.3,75.2z"/>
	<path d="M20.2,85.3c-3.1-0.9-5.3-2-6.8-3.6l-2.7,3.6c2.5,2.3,5.2,3.3,8.4,4.5s7.9,2,9.2,4.5c0.328,0.723,0.498,1.507,0.5,2.3
		c0,2.8-2,6.2-8.1,6.2c-4.21,0-8.202-1.868-10.9-5.1l-2.5,3.4c2.8,3.4,7.2,5.7,13.2,5.7c9.3,0,12.7-5.3,12.7-10.5
		c0.042-0.772-0.025-1.547-0.2-2.3C31.9,88.3,25.3,86.7,20.2,85.3z"/>
	<path d="M83.6,127.5c-3.1-0.9-6.1-1.6-7.5-3.2c-0.635-0.678-0.992-1.571-1-2.5c0-3.3,3-5.5,7.2-5.5c3.784-0.11,7.43,1.421,10,4.2
		l2.6-3.2c-2.9-3-7-4.8-12.3-4.8c-6.8,0-12,3.9-12,9.6c-0.005,0.744,0.096,1.485,0.3,2.2c1.2,4.9,6.6,6.2,11.5,7.5
		c4.9,1.3,7,1.9,8.3,4.2l2.8-3.8C91.1,129.6,87.2,128.4,83.6,127.5z"/>
	<path d="M82.5,137.5c-3.1-0.8-5.4-1.9-6.8-3.6l-2.8,3.7c2.5,2.3,5.3,3.3,8.5,4.5s7.9,2,9.1,4.5c0.423,0.691,0.632,1.491,0.6,2.3
		c0,2.8-2,6.2-8.2,6.2c-4.172-0.043-8.116-1.906-10.8-5.1l-2.6,3.4c3.371,3.775,8.242,5.862,13.3,5.7c9.3,0,12.7-5.3,12.7-10.6
		c-0.013-0.737-0.079-1.473-0.2-2.2C94.1,140.6,87.5,138.9,82.5,137.5z"/>
	<polygon points="105,10 123.3,33 105,55.3 	"/>
	<polygon points="80.3,61.7 98.5,84.6 80.3,106.9 	"/>
	<polygon points="8.1,113.2 26.4,136.2 8.1,158.5 	"/>
	<path style="fill:#636466;" d="M336.9,10h-13.8v45.3l12.4-15l0,0l3.1-3.6c4.6-0.6,8.9-4.7,8.9-12.9S343.1,10,336.9,10z M340,31.2
		l-12.9-16.1h9.2c4.1,0,6.8,3.5,6.8,8.6C343.1,27.1,341.9,29.8,340,31.2L340,31.2z"/>
	<polygon style="fill:#636466;" points="312.6,27.2 292.1,27.2 292.1,13.8 313,13.8 313,10 288.3,10 288.2,30.8 312.6,30.8 	"/>
	<polygon style="fill:#636466;" points="292,37 312.6,37 312.6,33.3 288.2,33.3 288.3,55.5 313,55.5 313,51.7 292.1,51.7 	"/>
	<path style="fill:#636466;" d="M354.4,10h3.7v45.5h-3.7V10z"/>
	<path style="fill:#636466;" d="M288.3,61.8h3.7V107h-3.7V61.8z"/>
	<path style="fill:#636466;" d="M321.3,113.2h3.7v45.3h-3.7V113.2z"/>
	<rect x="344.2" y="130.2" style="fill:#636466;" width="13.9" height="3.77"/>
	<path style="fill:#636466;" d="M354.4,136.5h-10.2v3.8h10.1v9.2c-0.706,1.131-1.622,2.115-2.7,2.9c-1.463,1.225-3.293,1.929-5.2,2
		c-5,0-9-4.6-10.7-11.5c-0.1-0.9-0.3-1.7-0.4-2.6c-0.116-0.829-0.183-1.663-0.2-2.5c-0.086-0.629-0.119-1.265-0.1-1.9
		c0-10.8,4.9-18.4,11.4-18.4c1.93,0.05,3.777,0.795,5.2,2.1c1.133,0.874,2.084,1.961,2.8,3.2l0.6,1l2.9-2.8
		c-0.943-1.812-2.12-3.493-3.5-5c-0.84-0.817-1.781-1.523-2.8-2.1c-1.575-0.929-3.372-1.413-5.2-1.4c-8.5,0-15.3,9.4-15.3,23.4
		c0,0.7,0.1,1.3,0.1,1.9c0.017,0.837,0.084,1.671,0.2,2.5l0.3,2.6c1.9,10.1,7.7,16.5,14.7,16.5c1.812-0.014,3.595-0.46,5.2-1.3
		c0.993-0.54,1.931-1.177,2.8-1.9c1.437-1.332,2.653-2.885,3.6-4.6v-15.1H354.4z"/>
	<polygon style="fill:#636466;" points="261.1,27.2 261.1,10 257.5,10 257.5,32 257.5,55.5 261.1,55.5 261.1,34.6 261.1,32 
		261.1,30.8 275.8,30.8 275.8,27.2 	"/>
	<polygon style="fill:#636466;" points="278.2,10 278.2,29.6 278.2,32 278.2,33.3 263.9,33.3 263.9,36.9 278.2,36.9 278.2,55.5 
		281.9,55.5 281.9,32 281.9,10 	"/>
	<polygon style="fill:#636466;" points="281.6,130.3 261,130.3 261.1,116.9 282,116.9 282,113.2 257.2,113.2 257.2,133.9 
		281.6,133.9 	"/>
	<polygon style="fill:#636466;" points="261,140.3 281.6,140.3 281.6,136.4 257.2,136.4 257.2,158.6 282,158.6 282,154.8 261,154.8 
			"/>
	<path style="fill:#636466;" d="M308.5,61.8h-10.1V107h3.7l0,0h6.3c9.2,0,15.2-9.7,15.2-22.6S317.7,61.8,308.5,61.8z M308.5,102
		h-6.1l14.3-17.3l-14.3-17.9h6.1c7.3,0,11.4,7.9,11.4,17.6S315.7,102,308.5,102z"/>
	<path style="fill:#636466;" d="M236.4,113.2h-10.2v45.3h3.7l0,0h6.4c9.2,0,15.2-9.7,15.2-22.6S245.6,113.2,236.4,113.2z
		 M236.4,153.5h-6l14.1-17.3l-14.3-17.9h6.2c7.3,0,11.4,7.8,11.4,17.6S243.6,153.5,236.4,153.5z"/>
	<polygon style="fill:#636466;" points="334.9,92 334.9,92 334.9,92 	"/>
	<polygon style="fill:#636466;" points="354.5,92 340.4,92 339.6,95.9 351,96 354.3,107 359.1,107 	"/>
	<polygon style="fill:#636466;" points="347.8,84.7 347.8,84.7 347.8,84.7 	"/>
	<polyline style="fill:#636466;" points="349,89.1 353.4,89.1 347.8,70.4 345.1,61.8 339.8,61.8 337.1,70.3 332.7,84.7 330.5,92 
		325.8,107 330.6,107 333.7,97 334.9,92 334.9,92 337.1,84.7 342.5,66.8 345.3,76.2 	"/>
	<polygon style="fill:#636466;" points="368.2,96.8 368.2,61.8 364.5,61.8 364.5,100.4 366.3,100.4 366.3,100.4 389,100.4 389,96.8 
			"/>
	<polygon style="fill:#636466;" points="364.5,103.3 364.5,107 369.7,107 389,107 389,103.3 	"/>
	<polygon style="fill:#636466;" points="342.5,55.5 347.5,55.5 339.8,39 336.8,42.7 	"/>
	<polygon style="fill:#636466;" points="323.1,55.5 335.5,40.3 323.1,55.4 	"/>
	<polygon style="fill:#636466;" points="338.6,36.6 338.6,36.6 338.6,36.6 	"/>
	<polygon style="fill:#636466;" points="335.5,40.2 335.5,40.3 335.5,40.2 	"/>
	<polygon style="fill:#636466;" points="385.4,10 385.4,25 385.4,40.2 385.4,48.5 370.9,26.8 370.9,33.2 385.5,55.5 389,55.5 
		389,40.2 389,25 389,10 	"/>
	<polyline style="fill:#636466;" points="368.3,10 364.5,10 364.5,25 364.5,40.2 364.5,55.5 368.2,55.5 368.2,40.2 368.2,25 
		368.2,16.6 382.4,39.2 382.4,32.2 	"/>
	<polygon style="fill:#636466;" points="278.2,61.7 278.2,76.7 278.2,91.9 278.2,100.2 263.8,78.5 263.8,84.9 278.3,107.2 
		281.9,107.2 281.9,91.9 281.9,76.7 281.9,61.7 	"/>
	<polyline style="fill:#636466;" points="261.1,61.7 257.3,61.7 257.3,76.7 257.3,91.9 257.3,107.2 261,107.2 261,91.9 261,76.7 
		261,68.3 275.2,90.9 275.2,83.9 	"/>
	<polygon style="fill:#636466;" points="385.4,113.2 385.4,128.2 385.4,143.3 385.4,151.7 370.9,129.9 370.9,136.4 385.5,158.6 
		389,158.6 389,143.3 389,128.2 389,113.2 	"/>
	<polyline style="fill:#636466;" points="368.3,113.2 364.5,113.2 364.5,128.2 364.5,143.3 364.5,158.6 368.2,158.6 368.2,143.3 
		368.2,128.2 368.2,119.7 382.4,142.3 382.4,135.4 	"/>
	<path d="M239.4,24.5c-3.1-0.9-6-1.6-7.5-3.2c-0.599-0.693-0.92-1.584-0.9-2.5c0-3.2,2.9-5.5,7.1-5.5
		c3.813-0.113,7.491,1.416,10.1,4.2l2.6-3.2c-2.9-3-7.1-4.8-12.4-4.8s-11.9,3.9-11.9,9.6c0.012,0.737,0.079,1.473,0.2,2.2
		c1.3,4.9,6.7,6.2,11.6,7.5s6.9,1.9,8.2,4.2l2.8-3.8C247,26.6,243,25.4,239.4,24.5z"/>
	<path d="M238.3,34.6c-3.1-0.9-5.3-2-6.8-3.7l-2.7,3.7c2.5,2.3,5.2,3.3,8.4,4.5s7.9,2,9.2,4.5c0.328,0.723,0.498,1.507,0.5,2.3
		c0,2.8-2,6.2-8.1,6.2c-4.201-0.041-8.177-1.901-10.9-5.1l-2.5,3.4c2.8,3.3,7.2,5.7,13.2,5.7c9.3,0,12.7-5.3,12.7-10.6
		c0.038-0.739-0.029-1.48-0.2-2.2C250,37.6,243.4,35.9,238.3,34.6z"/>
	<path d="M239.4,75.3c-3.1-0.9-6-1.6-7.5-3.2c-0.599-0.693-0.92-1.584-0.9-2.5c0-3.2,2.9-5.5,7.1-5.5
		c3.813-0.113,7.491,1.416,10.1,4.2l2.6-3.2c-2.9-3-7.1-4.8-12.4-4.8s-11.9,3.9-11.9,9.6c0.012,0.737,0.079,1.473,0.2,2.2
		c1.3,4.9,6.7,6.2,11.6,7.5s6.9,1.9,8.2,4.2l2.8-3.8C247,77.4,243,76.2,239.4,75.3z"/>
	<path d="M238.3,85.4c-3.1-0.9-5.3-2-6.8-3.7l-2.7,3.7c2.5,2.3,5.2,3.3,8.4,4.5s7.9,2,9.2,4.5c0.328,0.723,0.498,1.507,0.5,2.3
		c0,2.8-2,6.2-8.1,6.2c-4.21,0-8.202-1.868-10.9-5.1l-2.5,3.4c2.8,3.4,7.2,5.7,13.2,5.7c9.3,0,12.7-5.3,12.7-10.5
		c0.042-0.772-0.025-1.547-0.2-2.3C250,88.4,243.4,86.8,238.3,85.4z"/>
	<path d="M301.7,127.5c-3.1-0.8-6.1-1.5-7.5-3.1c-0.635-0.678-0.992-1.571-1-2.5c0-3.3,3-5.5,7.2-5.5c3.761-0.098,7.39,1.39,10,4.1
		l2.7-3.1c-3.304-3.227-7.784-4.962-12.4-4.8c-6.8,0-11.9,3.9-11.9,9.5c-0.042,0.772,0.025,1.547,0.2,2.3c1.2,4.9,6.6,6.2,11.5,7.5
		s7,1.8,8.3,4.2l2.8-3.8C309.2,129.7,305.3,128.5,301.7,127.5z"/>
	<path d="M300.6,137.6c-3.1-0.8-5.4-1.9-6.8-3.6l-2.8,3.7c2.5,2.3,5.3,3.3,8.5,4.5s7.9,2,9.1,4.5c0.423,0.691,0.632,1.491,0.6,2.3
		c0,2.8-2,6.2-8.2,6.2c-4.165-0.07-8.1-1.927-10.8-5.1l-2.6,3.4c3.371,3.775,8.242,5.862,13.3,5.7c9.3,0,12.7-5.3,12.7-10.6
		c-0.013-0.737-0.079-1.473-0.2-2.2C312.2,140.7,305.6,139,300.6,137.6z"/>
	<polygon style="fill:#549097;" points="323.1,10.1 341.4,33.1 323.1,55.4 	"/>
	<polygon style="fill:#549097;" points="298.4,61.7 316.7,84.7 298.4,107 	"/>
	<polygon style="fill:#549097;" points="226.2,113.3 244.5,136.3 226.2,158.6 	"/>
	<path style="fill:#FFFFFF;" d="M555.9,10.3h-13.8v45.3l12.4-15.2h0.1l3-3.7c4.6-0.5,9-4.6,9-12.8S562.1,10.3,555.9,10.3z M559,31.5
		l-12.9-16.2h9.2c4.1,0,6.9,3.6,6.9,8.7C562.33,26.857,561.152,29.617,559,31.5z"/>
	<polygon style="fill:#FFFFFF;" points="531.6,27.4 511.1,27.4 511.1,14.1 532,14.1 532,10.3 507.3,10.3 507.2,31.1 531.6,31.1 	"/>
	<polygon style="fill:#FFFFFF;" points="511,37.3 531.6,37.3 531.6,33.6 507.2,33.6 507.3,55.7 532,55.7 532,52 511.1,52 	"/>
	<path style="fill:#FFFFFF;" d="M573.4,10.3h3.7v45.4h-3.7V10.3z"/>
	<path style="fill:#FFFFFF;" d="M507.3,62h3.7v45.3h-3.7V62z"/>
	<path style="fill:#FFFFFF;" d="M540.3,113.5h3.7v45.3h-3.7V113.5z"/>
	<rect x="563.2" y="130.5" style="fill:#FFFFFF;" width="13.9" height="3.77"/>
	<path style="fill:#FFFFFF;" d="M573.4,136.8h-10.2v3.7h10.1v9.2c-0.7,1.164-1.616,2.182-2.7,3c-1.473,1.196-3.303,1.865-5.2,1.9
		c-5,0-9-4.5-10.6-11.5c-0.215-0.823-0.382-1.658-0.5-2.5c-0.116-0.862-0.183-1.73-0.2-2.6c-0.083-0.596-0.116-1.198-0.1-1.8
		c0-10.8,4.9-18.4,11.4-18.4c1.919,0.013,3.767,0.724,5.2,2c1.111,0.897,2.058,1.98,2.8,3.2l0.6,1l2.9-2.8
		c-0.919-1.797-2.099-3.448-3.5-4.9c-0.837-0.848-1.778-1.587-2.8-2.2c-1.575-0.929-3.372-1.413-5.2-1.4c-8.5,0-15.3,9.4-15.3,23.5
		c0,0.6,0.1,1.2,0.1,1.8c0.017,0.87,0.084,1.738,0.2,2.6c0.085,0.84,0.218,1.675,0.4,2.5c1.8,10.1,7.6,16.6,14.6,16.6
		c1.826-0.002,3.62-0.485,5.2-1.4c1.015-0.505,1.956-1.144,2.8-1.9c1.436-1.295,2.652-2.814,3.6-4.5v-15.1H573.4z"/>
	<polygon style="fill:#FFFFFF;" points="480.2,27.4 480.2,10.3 476.5,10.3 476.5,32.2 476.5,55.7 480.2,55.7 480.2,34.9 480.2,32.2 
		480.2,31 494.9,31 494.9,27.4 	"/>
	<polygon style="fill:#FFFFFF;" points="497.2,10.3 497.2,29.8 497.2,32.2 497.2,33.6 482.9,33.6 482.9,37.1 497.2,37.1 497.2,55.7 
		500.9,55.7 500.9,32.2 500.9,10.3 	"/>
	<polygon style="fill:#FFFFFF;" points="500.6,130.5 480,130.5 480.1,117.2 501,117.2 501,113.4 476.3,113.4 476.2,134.2 
		500.6,134.2 	"/>
	<polygon style="fill:#FFFFFF;" points="480,140.6 500.6,140.6 500.6,136.7 476.2,136.7 476.3,158.8 501,158.8 501,155.1 480,155.1 
			"/>
	<path style="fill:#FFFFFF;" d="M527.5,62h-10.1v45.3h10.1c9.2,0,15.2-9.7,15.2-22.6S536.7,62,527.5,62z M527.5,102.3h-6l14.2-17.4
		L521.4,67h6.1c7.3,0,11.4,7.9,11.4,17.7S534.7,102.3,527.5,102.3z"/>
	<path style="fill:#FFFFFF;" d="M455.4,113.5h-10.1v45.3h10.1c9.2,0,15.2-9.7,15.2-22.6S464.6,113.5,455.4,113.5z M455.4,153.8h-6
		l14.1-17.4l-14.3-17.9h6.2c7.3,0,11.4,7.9,11.4,17.7S462.6,153.8,455.4,153.8z"/>
	<polygon style="fill:#FFFFFF;" points="553.9,92.2 553.9,92.2 553.9,92.2 	"/>
	<polygon style="fill:#FFFFFF;" points="573.5,92.2 559.5,92.2 558.6,96.1 570,96.2 573.3,107.3 578.1,107.3 	"/>
	<polygon style="fill:#FFFFFF;" points="566.8,84.9 566.8,84.9 566.8,84.9 	"/>
	<polyline style="fill:#FFFFFF;" points="568,89.3 572.4,89.3 566.8,70.7 564.1,62 558.8,62 556.1,70.6 551.7,84.9 549.5,92.2 
		544.8,107.3 549.6,107.3 552.7,97.2 553.9,92.2 553.9,92.2 556.1,84.9 561.5,67 564.3,76.5 	"/>
	<polygon style="fill:#FFFFFF;" points="587.2,97 587.2,62 583.5,62 583.5,100.7 585.3,100.7 585.3,100.7 608,100.7 608,97 	"/>
	<polygon style="fill:#FFFFFF;" points="583.5,103.6 583.5,107.3 588.7,107.3 608,107.3 608,103.6 	"/>
	<polygon style="fill:#FFFFFF;" points="561.5,55.7 566.6,55.7 558.8,39.2 555.8,42.9 	"/>
	<polygon style="fill:#FFFFFF;" points="542.1,55.7 554.5,40.5 542.1,55.7 	"/>
	<polygon style="fill:#FFFFFF;" points="557.6,36.8 557.6,36.8 557.6,36.8 	"/>
	<polygon style="fill:#FFFFFF;" points="554.6,40.5 554.5,40.5 554.6,40.5 	"/>
	<polygon style="fill:#FFFFFF;" points="604.4,10.3 604.4,25.3 604.4,40.4 604.4,48.8 589.9,27 589.9,33.5 604.5,55.7 608.1,55.7 
		608.1,40.4 608.1,25.3 608.1,10.3 	"/>
	<polyline style="fill:#FFFFFF;" points="587.3,10.3 583.5,10.3 583.5,25.3 583.5,40.4 583.5,55.7 587.2,55.7 587.2,40.4 
		587.2,25.3 587.2,16.8 601.4,39.4 601.4,32.5 	"/>
	<polygon style="fill:#FFFFFF;" points="497.2,62 497.2,77 497.2,92.1 497.2,100.5 482.8,78.7 482.8,85.2 497.3,107.4 500.9,107.4 
		500.9,92.1 500.9,77 500.9,62 	"/>
	<polyline style="fill:#FFFFFF;" points="480.1,62 476.3,62 476.3,77 476.3,92.1 476.3,107.4 480,107.4 480,92.1 480,77 480,68.5 
		494.2,91.1 494.2,84.2 	"/>
	<polygon style="fill:#FFFFFF;" points="604.4,113.4 604.4,128.4 604.4,143.5 604.4,151.9 589.9,130.1 589.9,136.6 604.5,158.9 
		608.1,158.9 608.1,143.5 608.1,128.4 608.1,113.4 	"/>
	<polyline style="fill:#FFFFFF;" points="587.3,113.4 583.5,113.4 583.5,128.4 583.5,143.5 583.5,158.9 587.2,158.9 587.2,143.5 
		587.2,128.4 587.2,120 601.4,142.5 601.4,135.6 	"/>
	<path style="fill:#FFFFFF;" d="M458.4,24.7c-3.1-0.8-6-1.6-7.5-3.2c-0.637-0.67-0.964-1.577-0.9-2.5c0-3.2,2.9-5.4,7.1-5.4
		c3.791-0.101,7.452,1.385,10.1,4.1l2.6-3.1c-2.9-3.1-7.1-4.8-12.4-4.8s-11.9,3.8-11.9,9.5c0.008,0.737,0.075,1.473,0.2,2.2
		c1.3,4.9,6.7,6.3,11.6,7.5s6.9,1.9,8.2,4.2l2.9-3.7C466,26.9,462,25.7,458.4,24.7z"/>
	<path style="fill:#FFFFFF;" d="M457.4,34.8c-3.1-0.9-5.4-2-6.9-3.6l-2.7,3.7c2.5,2.2,5.2,3.2,8.4,4.4s7.9,2.1,9.2,4.5
		c0.33,0.757,0.5,1.574,0.5,2.4c0,2.7-2,6.2-8.1,6.2c-4.201-0.041-8.177-1.901-10.9-5.1l-2.5,3.3c2.8,3.4,7.2,5.8,13.2,5.8
		c9.3,0,12.8-5.4,12.8-10.6c0.006-0.777-0.095-1.551-0.3-2.3C469,37.8,462.4,36.2,457.4,34.8z"/>
	<path style="fill:#FFFFFF;" d="M458.4,75.5c-3.1-0.8-6-1.6-7.5-3.2c-0.621-0.64-0.947-1.51-0.9-2.4c0-3.3,3-5.5,7.1-5.5
		c3.791-0.101,7.452,1.385,10.1,4.1l2.6-3.1c-2.9-3.1-7-4.8-12.4-4.8s-11.9,3.8-11.9,9.5c-0.013,0.744,0.088,1.486,0.3,2.2
		c1.2,4.9,6.6,6.3,11.5,7.5s6.9,1.9,8.2,4.2l2.9-3.7C466,77.7,462,76.5,458.4,75.5z"/>
	<path style="fill:#FFFFFF;" d="M457.4,85.6c-3.1-0.9-5.4-1.9-6.9-3.6l-2.7,3.7c2.5,2.2,5.2,3.2,8.4,4.4s7.9,2.1,9.2,4.5
		c0.33,0.757,0.5,1.574,0.5,2.4c0,2.7-2,6.2-8.1,6.2c-4.201-0.041-8.177-1.901-10.9-5.1l-2.5,3.4c2.8,3.3,7.2,5.7,13.2,5.7
		c9.3,0,12.8-5.4,12.8-10.6c0.006-0.777-0.095-1.551-0.3-2.3C469,88.7,462.4,87,457.4,85.6z"/>
	<path style="fill:#FFFFFF;" d="M520.7,127.8c-3.1-0.8-6-1.6-7.5-3.2c-0.644-0.673-1.003-1.569-1-2.5c0-3.2,3-5.4,7.2-5.4
		c3.789-0.089,7.445,1.395,10.1,4.1l2.6-3.2c-3-3-7.1-4.7-12.4-4.7s-11.9,3.8-11.9,9.5c0.013,0.737,0.079,1.473,0.2,2.2
		c1.3,4.9,6.6,6.3,11.5,7.5s7,1.9,8.3,4.2l2.8-3.8C528.2,130,524.3,128.7,520.7,127.8z"/>
	<path style="fill:#FFFFFF;" d="M519.6,137.9c-3.1-0.9-5.4-2-6.8-3.6l-2.8,3.6c2.5,2.3,5.3,3.3,8.5,4.5s7.9,2,9.2,4.5
		c0.339,0.754,0.509,1.573,0.5,2.4c0,2.7-2,6.2-8.1,6.2c-4.223-0.039-8.213-1.942-10.9-5.2l-2.6,3.4c2.9,3.4,7.3,5.7,13.3,5.7
		c9.3,0,12.7-5.3,12.7-10.5c0.037-0.772-0.03-1.546-0.2-2.3C531.2,140.9,524.7,139.3,519.6,137.9z"/>
	<polygon style="fill:#FFFFFF;" points="542.1,10.4 560.4,33.3 542.1,55.7 	"/>
	<polygon style="fill:#FFFFFF;" points="517.4,62 535.7,84.9 517.4,107.3 	"/>
	<polygon style="fill:#FFFFFF;" points="445.3,113.6 463.5,136.5 445.3,158.9 	"/>
	<path style="fill:#549097;" d="M704.4,37.4L704.4,37.4c16.845,0,30.5,13.655,30.5,30.5l0,0c0,16.845-13.655,30.5-30.5,30.5l0,0
		c-16.845,0-30.5-13.655-30.5-30.5l0,0C673.9,51.055,687.555,37.4,704.4,37.4z"/>
	<path style="fill:#231F20;" d="M660.8,106.9l2-0.2c0.823-0.029,1.633,0.217,2.3,0.7c0.45,0.451,0.702,1.063,0.7,1.7
		c0.04,0.644-0.218,1.271-0.7,1.7c-0.633,0.632-1.508,0.96-2.4,0.9h-0.9v3.2h-1L660.8,106.9z M661.8,110.8h0.9c1.3,0,2-0.6,2-1.7
		s-0.7-1.6-1.9-1.6h-1V110.8z"/>
	<path style="fill:#231F20;" d="M667.5,112.3l-0.9,2.6h-1l2.7-8.1h1.3l2.7,8.1h-1.1l-0.9-2.6H667.5z M670.1,111.5l-0.8-2.3
		c-0.1-0.5-0.3-1-0.4-1.5l0,0c-0.086,0.511-0.22,1.014-0.4,1.5l-0.8,2.3H670.1z"/>
	<path style="fill:#231F20;" d="M673.5,114.9v-8.1h1.2l2.5,4.1c0.553,0.835,1.054,1.703,1.5,2.6l0,0c-0.1-1.1-0.1-2.1-0.1-3.3v-3.4
		h1v8.1h-1.1l-2.5-4.1c-0.576-0.856-1.077-1.759-1.5-2.7h-0.1c0.1,1,0.1,2,0.1,3.3v3.5L673.5,114.9z"/>
	<path style="fill:#231F20;" d="M682.9,107.7h-2.4v-0.9h6v0.9H684v7.2h-1.1V107.7z"/>
	<path style="fill:#231F20;" d="M694,110.8c0,2.7-1.7,4.2-3.8,4.2s-3.6-1.6-3.6-4.1s1.6-4.2,3.7-4.2S694,108.4,694,110.8z
		 M687.7,110.9c0,1.7,0.9,3.3,2.6,3.3s2.6-1.6,2.6-3.4s-0.9-3.3-2.6-3.3S687.7,109.1,687.7,110.9z"/>
	<path style="fill:#231F20;" d="M695.3,114.9v-8.1h1.2l2.5,4.1c0.553,0.835,1.054,1.703,1.5,2.6l0,0c-0.1-1.1-0.1-2.1-0.1-3.3v-3.4
		h1v8.1h-1.1l-2.5-4.1c-0.576-0.856-1.077-1.759-1.5-2.7h-0.1c0.1,1,0.1,2,0.1,3.3v3.5L695.3,114.9z"/>
	<path style="fill:#231F20;" d="M707.4,111.1h-3.1v2.9h3.5v0.9h-4.6v-8.1h4.4v0.9h-3.3v2.5h3.1V111.1z"/>
	<path style="fill:#231F20;" d="M711.3,114.9v-0.7l0.8-0.8c2-1.9,2.9-2.9,2.9-4c0.113-0.765-0.415-1.477-1.18-1.59
		c-0.106-0.016-0.213-0.019-0.32-0.01c-0.628,0.043-1.224,0.288-1.7,0.7l-0.3-0.7c0.601-0.544,1.39-0.831,2.2-0.8
		c1.21-0.11,2.28,0.781,2.391,1.991c0.006,0.07,0.009,0.139,0.009,0.209c0,1.5-1.1,2.6-2.7,4.2l-0.6,0.6h3.5v0.9L711.3,114.9z"/>
	<path style="fill:#231F20;" d="M717.4,114.9v-0.7l0.9-0.8c2-1.9,2.9-2.9,2.9-4c0.057-0.826-0.566-1.543-1.393-1.6
		c-0.069-0.005-0.138-0.005-0.207,0c-0.602,0.024-1.173,0.274-1.6,0.7l-0.4-0.7c0.62-0.511,1.397-0.794,2.2-0.8
		c1.21-0.11,2.28,0.781,2.391,1.991c0.006,0.07,0.009,0.139,0.009,0.209c0,1.5-1,2.6-2.7,4.2l-0.6,0.6h3.5v0.9L717.4,114.9z"/>
	<path style="fill:#231F20;" d="M723.9,113.7c0.506,0.329,1.097,0.502,1.7,0.5c1.3,0,1.8-0.9,1.7-1.5s-1-1.6-2-1.6h-0.6v-0.8h0.6
		c0.8,0,1.8-0.4,1.8-1.3s-0.4-1.2-1.4-1.2c-0.564,0.045-1.111,0.216-1.6,0.5l-0.2-0.7c0.593-0.393,1.289-0.602,2-0.6
		c1.5,0,2.2,0.9,2.2,1.8c-0.033,0.86-0.588,1.614-1.4,1.9l0,0c0.986,0.15,1.711,1.003,1.7,2c0,1.2-1,2.3-2.8,2.3
		c-0.698,0.006-1.387-0.166-2-0.5L723.9,113.7z"/>
	<path style="fill:#231F20;" d="M734.2,107.8h-0.8c-1.429,0.216-2.536,1.364-2.7,2.8l0,0c0.46-0.591,1.152-0.956,1.9-1
		c1.326-0.005,2.404,1.066,2.408,2.392c0,0.07-0.003,0.139-0.008,0.208c0.055,1.435-1.063,2.643-2.498,2.698
		c-0.034,0.001-0.068,0.002-0.102,0.002c-1.7,0-2.8-1.3-2.8-3.3c-0.006-1.286,0.456-2.53,1.3-3.5c0.724-0.596,1.582-1.008,2.5-1.2
		h0.8L734.2,107.8z M733.9,112.3c0.113-0.821-0.461-1.577-1.282-1.69c-0.105-0.014-0.212-0.018-0.318-0.01
		c-0.634-0.024-1.223,0.329-1.5,0.9c-0.095,0.148-0.131,0.327-0.1,0.5c0,1.2,0.6,2.2,1.7,2.2S733.9,113.5,733.9,112.3z"/>
	<path style="fill:#231F20;" d="M739.9,106.8v4.8c0,1.8,0.8,2.6,1.9,2.6s1.9-0.8,1.9-2.6v-4.8h1.1v4.7c0,2.5-1.3,3.5-3.1,3.5
		s-2.9-0.9-2.9-3.4v-4.8H739.9z"/>
	<path style="fill:#231F20;" d="M660.8,121.3l2-0.2c0.825-0.046,1.64,0.202,2.3,0.7c0.874,0.763,0.964,2.089,0.201,2.963
		c-0.265,0.304-0.613,0.525-1.001,0.637l0,0c0.621,0.354,1.031,0.988,1.1,1.7c0.158,0.755,0.392,1.492,0.7,2.2H665
		c-0.276-0.607-0.477-1.245-0.6-1.9c-0.2-1.2-0.6-1.6-1.6-1.6h-1v3.5h-1L660.8,121.3z M661.8,125h1.1c1.1,0,1.8-0.6,1.8-1.5
		s-0.7-1.5-1.8-1.5h-1.1V125z"/>
	<path style="fill:#231F20;" d="M673.4,128.9c-0.759,0.325-1.575,0.495-2.4,0.5c-2.3,0.297-4.406-1.327-4.704-3.627
		c-0.297-2.3,1.327-4.406,3.627-4.704c0.424-0.055,0.855-0.044,1.276,0.031c0.689-0.029,1.375,0.108,2,0.4l-0.3,0.8
		c-0.535-0.233-1.118-0.335-1.7-0.3c-1.648-0.175-3.125,1.019-3.3,2.666c-0.022,0.211-0.022,0.423,0,0.634
		c-0.17,1.593,0.983,3.022,2.576,3.192c0.174,0.019,0.35,0.021,0.524,0.008l1.4-0.2v-2.4h-1.6V125h2.6V128.9z"/>
	<path style="fill:#231F20;" d="M675,121.3l1.9-0.2c0.784-0.097,1.574,0.118,2.2,0.6c0.494,0.331,0.764,0.909,0.7,1.5
		c-0.013,0.791-0.54,1.48-1.3,1.7l0,0c0.925,0.227,1.582,1.048,1.6,2c0.04,0.615-0.221,1.212-0.7,1.6
		c-0.764,0.603-1.731,0.889-2.7,0.8H675V121.3z M676.1,124.6h0.9c1.1,0,1.8-0.5,1.8-1.3s-0.7-1.3-1.8-1.3h-0.9V124.6z M676.1,128.5
		h0.9c1,0,2-0.3,2-1.5s-0.9-1.6-2.1-1.6h-0.8L676.1,128.5z"/>
	<path style="fill:#231F20;" d="M686.5,125.7v0.7h-3v-0.7H686.5z"/>
	<path style="fill:#231F20;" d="M691.4,125.2c-0.757-0.282-1.27-0.992-1.3-1.8c0-1.2,1.1-2,2.5-2c1.022-0.249,2.051,0.378,2.3,1.4
		c0.249,1.022-0.378,2.051-1.4,2.3l0,0l0,0c0.941,0.267,1.593,1.122,1.6,2.1c-0.105,1.321-1.262,2.307-2.583,2.201
		c-0.006,0-0.011-0.001-0.017-0.001c-1.7,0-2.7-0.9-2.7-2.1C689.807,126.322,690.459,125.467,691.4,125.2L691.4,125.2z M694,127.3
		c0-1-0.6-1.4-1.7-1.7c-0.805,0.101-1.406,0.789-1.4,1.6c-0.002,0.828,0.668,1.501,1.497,1.503c0.034,0,0.069-0.001,0.103-0.003
		c0.771,0.055,1.441-0.525,1.496-1.296C693.999,127.369,694,127.335,694,127.3z M691.1,123.4c0,0.7,0.6,1.2,1.5,1.4
		c0.673-0.137,1.168-0.714,1.2-1.4c0-0.718-0.582-1.3-1.3-1.3c-0.716-0.055-1.341,0.48-1.396,1.196
		C691.101,123.331,691.1,123.365,691.1,123.4L691.1,123.4z"/>
	<path style="fill:#231F20;" d="M699.4,129.3v-2.1h-3.7v-0.7l3.5-5h1.2v4.8h1v0.9h-1v2.1H699.4z M699.4,126.3v-3.8l0,0l-0.7,1.2
		l-1.9,2.6H699.4L699.4,126.3z"/>
	<path style="fill:#231F20;" d="M707.1,122.5L707.1,122.5l-1.4,0.7l-0.2-0.8l1.7-0.9h0.9v7.8h-1V122.5z"/>
	<path style="fill:#231F20;" d="M714.2,129.3v-2.1h-3.6v-0.7l3.5-5h1.1v4.8h1.1v0.9h-1.1v2.1H714.2z M714.2,126.3v-3.8l0,0l-0.6,1.2
		l-1.9,2.6H714.2z"/>
	<path style="fill:#231F20;" d="M720.4,129.3v-2.1h-3.7v-0.7l3.5-5h1.2v4.8h1.1v0.9h-1.1v2.1H720.4z M720.4,126.3v-3.8l0,0l-0.7,1.2
		l-1.9,2.6H720.4L720.4,126.3z"/>
	<path style="fill:#231F20;" d="M728.1,122.5L728.1,122.5l-1.4,0.7l-0.2-0.8l1.7-0.9h0.9v7.8h-1V122.5z"/>
	<path style="fill:#231F20;" d="M736.6,122.4h-3l-0.3,2h0.7c0.592-0.022,1.18,0.116,1.7,0.4c0.711,0.409,1.135,1.18,1.1,2
		c-0.051,1.49-1.301,2.657-2.791,2.606c-0.036-0.001-0.073-0.003-0.109-0.006c-0.702,0.044-1.401-0.13-2-0.5l0.3-0.8
		c0.506,0.329,1.097,0.502,1.7,0.5c0.937,0.055,1.742-0.66,1.797-1.597c0.002-0.034,0.003-0.069,0.003-0.103c0-1-0.7-1.7-2.2-1.7
		h-1.1l0.5-3.7h3.7V122.4z"/>
	<path style="fill:#231F20;" d="M740.4,122.5L740.4,122.5l-1.4,0.7l-0.2-0.8l1.7-0.9h0.9v7.8h-1V122.5z"/>
	<path style="fill:#231F20;" d="M666.4,143.4c-0.658,0.3-1.378,0.437-2.1,0.4c-2.095,0.117-3.889-1.486-4.006-3.582
		c-0.01-0.173-0.008-0.346,0.006-0.518c-0.113-2.206,1.583-4.087,3.789-4.2c0.137-0.007,0.274-0.007,0.411,0
		c0.678-0.008,1.354,0.093,2,0.3l-0.3,0.9c-0.505-0.214-1.051-0.317-1.6-0.3c-1.653-0.119-3.089,1.124-3.208,2.776
		c-0.013,0.174-0.01,0.35,0.008,0.524c-0.17,1.593,0.983,3.022,2.576,3.192c0.174,0.019,0.35,0.021,0.524,0.008
		c0.582,0.025,1.162-0.077,1.7-0.3L666.4,143.4z"/>
	<path style="fill:#231F20;" d="M674.6,140.1c-0.1-1.1-0.2-2.5-0.2-3.4l0,0l-1,3l-1.4,3.9h-0.8l-1.3-3.8l-1-3.1l0,0
		c0,1-0.1,2.3-0.2,3.5l-0.2,3.5h-1l0.6-8.1h1.3l1.4,3.9c0.3,1,0.6,1.9,0.8,2.7l0,0c0.333-0.8,0.633-1.7,0.9-2.7l1.5-3.9h1.3l0.5,8.1
		h-1L674.6,140.1z"/>
	<path style="fill:#231F20;" d="M679.2,143.7v-3.4l-2.6-4.7h1.2l1.2,2.2l0.8,1.7l0,0l0.8-1.7l1.2-2.2h1.2l-2.7,4.6v3.5L679.2,143.7z
		"/>
	<path style="fill:#231F20;" d="M683.8,135.6h1.1v3.9l0,0l0.6-0.9l2.5-3h1.3l-2.9,3.4l3.1,4.7h-1.2l-2.7-4l-0.7,0.9v3.1h-1.1
		L683.8,135.6z"/>
	<path style="fill:#231F20;" d="M695.3,140.1v0.7h-3v-0.7H695.3z"/>
	<path style="fill:#231F20;" d="M700.1,139.6c-0.718-0.313-1.187-1.017-1.2-1.8c0-1.2,1-2,2.4-2s2.3,0.9,2.3,1.9
		c-0.001,0.817-0.525,1.542-1.3,1.8l0,0c0.941,0.267,1.593,1.122,1.6,2.1c0,1.3-1.2,2.2-2.7,2.2s-2.6-0.9-2.6-2.1
		c0.007-0.978,0.659-1.833,1.6-2.1L700.1,139.6z M702.8,141.7c0-1-0.6-1.4-1.7-1.7c-0.805,0.101-1.406,0.789-1.4,1.6
		c-0.002,0.828,0.668,1.501,1.497,1.503c0.034,0,0.069-0.001,0.103-0.003c0.771,0.055,1.441-0.525,1.496-1.296
		C702.799,141.769,702.8,141.735,702.8,141.7L702.8,141.7z M699.9,137.8c0,0.7,0.6,1.2,1.5,1.4c0.673-0.137,1.168-0.714,1.2-1.4
		c0-0.718-0.582-1.3-1.3-1.3c-0.716-0.055-1.341,0.48-1.396,1.196C699.901,137.731,699.9,137.765,699.9,137.8L699.9,137.8z"/>
	<path style="fill:#231F20;" d="M704.9,143.7V143l0.8-0.8c2-1.9,2.9-2.9,2.9-4c0.113-0.765-0.415-1.477-1.18-1.59
		c-0.106-0.016-0.213-0.019-0.32-0.01c-0.628,0.043-1.224,0.288-1.7,0.7l-0.3-0.7c0.601-0.544,1.39-0.831,2.2-0.8
		c1.21-0.11,2.28,0.781,2.391,1.991c0.006,0.07,0.009,0.139,0.009,0.209c0,1.5-1.1,2.6-2.7,4.2l-0.6,0.6h3.4v0.9L704.9,143.7z"/>
	<path style="fill:#231F20;" d="M713.6,143.7V143l0.8-0.8c2-1.9,2.9-2.9,2.9-4c0.113-0.765-0.415-1.477-1.18-1.59
		c-0.106-0.016-0.213-0.019-0.32-0.01c-0.628,0.043-1.224,0.288-1.7,0.7l-0.3-0.7c0.601-0.544,1.39-0.831,2.2-0.8
		c1.21-0.11,2.28,0.781,2.391,1.991c0.006,0.07,0.009,0.139,0.009,0.209c0,1.5-1.1,2.6-2.7,4.2l-0.6,0.6h3.4v0.9L713.6,143.7z"/>
	<path style="fill:#231F20;" d="M724.2,136.6h-0.8c-1.446,0.182-2.57,1.348-2.7,2.8l0,0c0.441-0.614,1.145-0.984,1.9-1
		c1.27-0.011,2.309,1.01,2.32,2.28c0.001,0.107-0.006,0.214-0.02,0.32c0.112,1.376-0.913,2.582-2.289,2.694
		c-0.103,0.008-0.207,0.01-0.31,0.006c-1.6,0-2.7-1.3-2.7-3.3c-0.057-1.294,0.412-2.557,1.3-3.5c0.712-0.615,1.575-1.029,2.5-1.2
		h0.8V136.6z M723.9,141.1c0.055-0.882-0.615-1.642-1.497-1.697c-0.034-0.002-0.069-0.003-0.103-0.003
		c-0.663-0.038-1.288,0.313-1.6,0.9c-0.043,0.165-0.077,0.331-0.1,0.5c0,1.2,0.6,2.2,1.8,2.2S723.9,142.3,723.9,141.1z"/>
	<path style="fill:#231F20;" d="M731.7,143.7v-2.1h-3.6v-0.7l3.4-5h1.2v4.8h1.1v0.9h-1.1v2.1H731.7z M731.7,140.7v-3.8l0,0
		c-0.211,0.412-0.445,0.813-0.7,1.2l-1.9,2.6H731.7L731.7,140.7z"/>
	<path style="fill:#231F20;" d="M737.8,143.7v-2.1h-3.6v-0.7l3.5-5h1.1v4.8h1.1v0.9h-1.1v2.1H737.8z M737.8,140.7v-2.6
		c0-0.4,0.1-0.8,0.1-1.2h-0.1l-0.6,1.2l-1.9,2.6H737.8z"/>
	<path style="fill:#231F20;" d="M748.5,139.7c0,2.7-1,4.1-2.7,4.1s-2.6-1.4-2.6-4s1.1-4,2.7-4S748.5,137.2,748.5,139.7z
		 M744.2,139.8c0,2.1,0.7,3.2,1.6,3.2s1.6-1.3,1.6-3.2s-0.5-3.2-1.6-3.2S744.2,137.7,744.2,139.8z"/>
	<path style="fill:#636466;" d="M704.4,203.9L704.4,203.9c16.845,0,30.5,13.655,30.5,30.5l0,0c0,16.845-13.655,30.5-30.5,30.5l0,0
		c-16.845,0-30.5-13.655-30.5-30.5l0,0C673.9,217.555,687.555,203.9,704.4,203.9z"/>
	<path style="fill:#231F20;" d="M660.8,273.3h2c0.813-0.074,1.627,0.138,2.3,0.6c0.426,0.427,0.676,0.998,0.7,1.6
		c-0.005,0.924-0.614,1.736-1.5,2l0,0c0.6,0.2,0.9,0.8,1.1,1.6c0.158,0.755,0.392,1.492,0.7,2.2H665
		c-0.276-0.607-0.477-1.245-0.6-1.9c-0.2-1.1-0.6-1.5-1.6-1.6h-1v3.5h-1L660.8,273.3z M661.8,277h1.1c1.1,0,1.8-0.6,1.8-1.5
		s-0.7-1.5-1.8-1.5h-1.1V277z"/>
	<path style="fill:#231F20;" d="M673.4,281c-0.78,0.234-1.586,0.368-2.4,0.4c-1.142,0.082-2.266-0.317-3.1-1.1
		c-0.778-0.797-1.179-1.889-1.1-3c0-2.4,1.7-4.1,4.4-4.1c0.678,0.003,1.351,0.104,2,0.3l-0.3,0.9c-0.524-0.275-1.109-0.412-1.7-0.4
		c-1.708-0.114-3.186,1.178-3.3,2.886c-0.009,0.138-0.009,0.276,0,0.414c-0.17,1.593,0.983,3.022,2.576,3.192
		c0.174,0.019,0.35,0.021,0.524,0.008l1.4-0.2v-2.4h-1.6v-0.8h2.6L673.4,281z"/>
	<path style="fill:#231F20;" d="M675,273.4l1.9-0.2c0.784-0.097,1.574,0.118,2.2,0.6c0.478,0.298,0.748,0.839,0.7,1.4
		c-0.001,0.817-0.525,1.542-1.3,1.8l0,0c0.925,0.227,1.582,1.048,1.6,2c0.058,0.618-0.206,1.223-0.7,1.6c-0.5,0.6-1.4,0.8-2.7,0.8
		H675V273.4z M676.1,276.7h0.9c1.1,0,1.8-0.6,1.8-1.4s-0.7-1.3-1.8-1.3h-0.9V276.7z M676.1,280.5h0.9c1,0,2-0.4,2-1.6
		s-0.9-1.5-2.1-1.5h-0.8L676.1,280.5z"/>
	<path style="fill:#231F20;" d="M686.5,277.7v0.8h-3v-0.8H686.5z"/>
	<path style="fill:#231F20;" d="M690.6,280.6h0.8c0.602-0.024,1.173-0.274,1.6-0.7c0.561-0.58,0.943-1.309,1.1-2.1H694
		c-0.394,0.602-1.082,0.946-1.8,0.9c-1.27,0.001-2.301-1.028-2.302-2.298c0-0.034,0.001-0.068,0.002-0.102
		c-0.055-1.49,1.108-2.743,2.598-2.798c0.034-0.001,0.068-0.002,0.102-0.002c1.5,0,2.5,1.3,2.5,3.3c0.11,1.332-0.364,2.646-1.3,3.6
		c-0.617,0.621-1.43,1.009-2.3,1.1h-0.9V280.6z M690.9,276.1c-0.11,0.821,0.466,1.576,1.286,1.687
		c0.071,0.01,0.142,0.014,0.214,0.013c0.652-0.005,1.257-0.345,1.6-0.9c0-0.1,0.1-0.2,0.1-0.3s-0.5-2.4-1.6-2.4
		c-0.938,0.049-1.658,0.848-1.61,1.786C690.892,276.024,690.895,276.062,690.9,276.1z"/>
	<path style="fill:#231F20;" d="M701.3,277.3c0,2.7-1,4.2-2.7,4.2s-2.6-1.5-2.6-4s1.1-4.1,2.7-4.1S701.3,274.9,701.3,277.3z
		 M697.1,277.5c0,2,0.6,3.1,1.5,3.1s1.6-1.2,1.6-3.2s-0.5-3.2-1.6-3.2S697.1,275.3,697.1,277.5L697.1,277.5z"/>
	<path style="fill:#231F20;" d="M707.1,274.5L707.1,274.5l-1.4,0.7l-0.2-0.8l1.7-0.9h0.9v7.8h-1V274.5z"/>
	<path style="fill:#231F20;" d="M716.1,277.3c0,2.7-1,4.2-2.7,4.2s-2.5-1.5-2.6-4s1.2-4.1,2.8-4.1S716.1,274.9,716.1,277.3z
		 M711.9,277.5c0,2,0.6,3.1,1.6,3.1s1.6-1.2,1.6-3.2s-0.5-3.2-1.6-3.2S711.9,275.3,711.9,277.5z"/>
	<path style="fill:#231F20;" d="M722.3,277.3c0,2.7-1,4.2-2.7,4.2s-2.6-1.5-2.6-4s1.1-4.1,2.7-4.1S722.3,274.9,722.3,277.3z
		 M718.1,277.5c0,2,0.6,3.1,1.5,3.1s1.6-1.2,1.6-3.2s-0.4-3.2-1.6-3.2S718.1,275.3,718.1,277.5L718.1,277.5z"/>
	<path style="fill:#231F20;" d="M728.1,274.5L728.1,274.5l-1.4,0.7l-0.2-0.8l1.7-0.9h0.9v7.8h-1V274.5z"/>
	<path style="fill:#231F20;" d="M737.2,277.3c0,2.7-1,4.2-2.8,4.2s-2.5-1.5-2.5-4s1.1-4.1,2.7-4.1S737.2,274.9,737.2,277.3z
		 M732.9,277.5c0,2,0.6,3.1,1.6,3.1s1.6-1.2,1.6-3.2s-0.5-3.2-1.6-3.2S732.9,275.3,732.9,277.5z"/>
	<path style="fill:#231F20;" d="M738.1,281.3v-0.6l0.8-0.8c2-1.9,2.9-2.9,2.9-4.1c0.121-0.708-0.355-1.379-1.063-1.5
		c-0.145-0.025-0.292-0.025-0.437,0c-0.589-0.003-1.158,0.21-1.6,0.6l-0.4-0.7c0.601-0.544,1.39-0.831,2.2-0.8
		c1.21-0.112,2.281,0.778,2.393,1.988c0.01,0.104,0.012,0.208,0.007,0.312c0,1.4-1,2.6-2.7,4.1l-0.6,0.6h3.5v0.9H738.1z"/>
	<path style="fill:#231F20;" d="M666.4,295.5c-0.658,0.3-1.378,0.437-2.1,0.4c-2.095,0.117-3.889-1.486-4.006-3.582
		c-0.01-0.173-0.008-0.346,0.006-0.518c0.063-2.429,2.084-4.347,4.513-4.284c0.582,0.015,1.156,0.146,1.687,0.384l-0.3,0.8
		c-0.505-0.214-1.051-0.317-1.6-0.3c-1.823-0.028-3.322,1.427-3.35,3.25c-0.028,1.823,1.427,3.322,3.25,3.35
		c0.59-0.003,1.171-0.14,1.7-0.4L666.4,295.5z"/>
	<path style="fill:#231F20;" d="M674.6,292.2c-0.1-1.2-0.2-2.5-0.2-3.5l0,0l-1,3.1l-1.4,3.9h-0.8l-1.3-3.9c-0.4-1.1-0.7-2.2-1-3.1
		l0,0c0,1-0.1,2.3-0.2,3.6l-0.2,3.4h-1l0.6-8.1h1.3l1.4,4c0.312,0.886,0.579,1.787,0.8,2.7l0,0c0.333-0.8,0.633-1.7,0.9-2.7l1.5-4
		h1.3l0.5,8.1h-1L674.6,292.2z"/>
	<path style="fill:#231F20;" d="M679.2,295.7v-3.4l-2.6-4.7h1.2l1.2,2.3c0.3,0.6,0.5,1.1,0.8,1.6l0,0c0.2-0.5,0.5-1,0.8-1.6l1.2-2.3
		h1.2l-2.7,4.7v3.4H679.2z"/>
	<path style="fill:#231F20;" d="M683.8,287.6h1.1v3.9l0,0l0.6-0.8l2.5-3.1h1.3l-2.9,3.5l3.1,4.6h-1.2l-2.7-3.9l-0.7,0.8v3.1h-1.1
		L683.8,287.6z"/>
	<path style="fill:#231F20;" d="M695.3,292.1v0.8h-3v-0.8H695.3z"/>
	<path style="fill:#231F20;" d="M703.9,291.7c0,2.7-1,4.2-2.7,4.2s-2.6-1.5-2.6-4s1.1-4.1,2.7-4.1S703.9,289.3,703.9,291.7z
		 M699.7,291.9c0,2,0.6,3.1,1.6,3.1s1.5-1.2,1.5-3.2s-0.4-3.2-1.5-3.2S699.7,289.7,699.7,291.9z"/>
	<path style="fill:#231F20;" d="M712.6,291.7c0,2.7-1,4.2-2.7,4.2s-2.6-1.5-2.6-4s1.1-4.1,2.7-4.1S712.6,289.3,712.6,291.7z
		 M708.4,291.9c0,2,0.6,3.1,1.6,3.1s1.5-1.2,1.5-3.2s-0.4-3.2-1.5-3.2S708.4,289.7,708.4,291.9z"/>
	<path style="fill:#231F20;" d="M721.3,291.7c0,2.7-1,4.2-2.7,4.2s-2.6-1.5-2.6-4s1.1-4.1,2.7-4.1S721.3,289.3,721.3,291.7z
		 M717.1,291.9c0,2,0.6,3.1,1.6,3.1s1.5-1.2,1.5-3.2s-0.4-3.2-1.5-3.2S717.1,289.7,717.1,291.9L717.1,291.9z"/>
	<path style="fill:#231F20;" d="M729.9,287.9v0.7l-3.4,7.1h-1.1l3.4-6.9H725v-0.9L729.9,287.9z"/>
	<path style="fill:#231F20;" d="M735.6,288.8h-3l-0.3,2h0.7c0.592-0.022,1.18,0.116,1.7,0.4c0.711,0.409,1.135,1.18,1.1,2
		c0.004,1.491-1.201,2.703-2.693,2.707c-0.069,0-0.138-0.002-0.207-0.007c-0.697-0.006-1.382-0.177-2-0.5l0.3-0.8
		c0.524,0.275,1.109,0.412,1.7,0.4c0.937,0.055,1.742-0.66,1.797-1.597c0.002-0.034,0.003-0.069,0.003-0.103c0-1-0.7-1.7-2.2-1.7
		h-1.1l0.5-3.8h3.7V288.8z"/>
	<path style="fill:#231F20;" d="M704.4,355.9L704.4,355.9c16.845,0,30.5,13.655,30.5,30.5l0,0c0,16.845-13.655,30.5-30.5,30.5l0,0
		c-16.845,0-30.5-13.655-30.5-30.5l0,0C673.9,369.555,687.555,355.9,704.4,355.9z"/>
	<path style="fill:#231F20;" d="M660.8,423.8l2-0.2c0.831-0.098,1.664,0.156,2.3,0.7c0.439,0.375,0.694,0.922,0.7,1.5
		c0.006,0.951-0.599,1.798-1.5,2.1l0,0c0.6,0.2,0.9,0.8,1.1,1.6c0.163,0.786,0.397,1.556,0.7,2.3H665
		c-0.254-0.649-0.454-1.318-0.6-2c-0.2-1.1-0.6-1.5-1.6-1.5h-1v3.5h-1L660.8,423.8z M661.8,427.5h1.1
		c0.877,0.11,1.677-0.511,1.787-1.387c0.009-0.07,0.013-0.142,0.013-0.213c0-1-0.7-1.5-1.8-1.5h-1.1V427.5z"/>
	<path style="fill:#231F20;" d="M673.4,431.4c-0.768,0.283-1.582,0.419-2.4,0.4c-1.122,0.065-2.228-0.291-3.1-1
		c-0.748-0.816-1.143-1.894-1.1-3c-0.061-2.264,1.724-4.148,3.987-4.21c0.138-0.004,0.275-0.001,0.413,0.01
		c0.689-0.029,1.375,0.108,2,0.4l-0.3,0.8c-0.535-0.233-1.118-0.335-1.7-0.3c-1.648-0.17-3.122,1.028-3.292,2.676
		c-0.018,0.174-0.021,0.349-0.008,0.524c0,2.1,1.2,3.3,3.1,3.3l1.4-0.2v-2.4h-1.6v-0.9h2.6L673.4,431.4z"/>
	<path style="fill:#231F20;" d="M675,423.8l1.9-0.2c0.784-0.097,1.574,0.118,2.2,0.6c0.478,0.298,0.748,0.839,0.7,1.4
		c-0.001,0.817-0.525,1.542-1.3,1.8l0,0c0.941,0.267,1.593,1.122,1.6,2.1c0.024,0.612-0.234,1.202-0.7,1.6
		c-0.779,0.567-1.744,0.817-2.7,0.7H675V423.8z M676.1,427.1h0.9c1.1,0,1.8-0.6,1.8-1.4s-0.7-1.3-1.8-1.3h-0.9V427.1z M676.1,431
		h0.9c1,0,2-0.4,2-1.6s-0.9-1.5-2.1-1.5h-0.8L676.1,431z"/>
	<path style="fill:#231F20;" d="M686.5,428.1v0.8h-3v-0.8H686.5z"/>
	<path style="fill:#231F20;" d="M690.2,430.6c0.541,0.226,1.115,0.362,1.7,0.4c1.4,0,1.8-0.8,1.8-1.5s-1-1.5-2-1.5h-0.6v-0.8h0.6
		c0.7,0,1.7-0.4,1.7-1.3s-0.4-1.2-1.4-1.2c-0.536,0.03-1.054,0.202-1.5,0.5l-0.3-0.8c0.593-0.393,1.289-0.602,2-0.6
		c1.6,0,2.3,0.9,2.3,1.9c-0.026,0.874-0.646,1.616-1.5,1.8l0,0c1.01,0.053,1.801,0.888,1.8,1.9c0,1.3-1,2.4-2.9,2.4
		c-0.695-0.02-1.377-0.19-2-0.5L690.2,430.6z"/>
	<path style="fill:#231F20;" d="M700.7,424.8h-2.9l-0.3,2.1h0.6c0.592-0.022,1.18,0.116,1.7,0.4c0.68,0.438,1.094,1.19,1.1,2
		c0.004,1.491-1.201,2.703-2.693,2.707c-0.069,0-0.138-0.002-0.207-0.007c-0.667,0.013-1.325-0.16-1.9-0.5l0.2-0.8
		c0.524,0.275,1.109,0.412,1.7,0.4c0.937,0.055,1.742-0.66,1.797-1.597c0.002-0.034,0.003-0.069,0.003-0.103c0-1-0.6-1.7-2.2-1.7
		h-1.1l0.5-3.7h3.7L700.7,424.8z"/>
	<path style="fill:#231F20;" d="M705,430.6c0.572,0.237,1.181,0.373,1.8,0.4c1.3,0,1.7-0.8,1.7-1.5s-1-1.5-2-1.5h-0.6v-0.8h0.6
		c0.8,0,1.8-0.4,1.8-1.3s-0.4-1.2-1.4-1.2c-0.564,0.046-1.111,0.216-1.6,0.5l-0.3-0.8c0.637-0.377,1.36-0.584,2.1-0.6
		c1.036-0.166,2.01,0.54,2.176,1.576c0.017,0.107,0.025,0.216,0.024,0.324c-0.015,0.844-0.585,1.578-1.4,1.8l0,0
		c0.971,0.103,1.705,0.924,1.7,1.9c0,1.3-1,2.4-2.8,2.4c-0.698,0.006-1.387-0.166-2-0.5L705,430.6z"/>
	<path style="fill:#231F20;" d="M713.2,424.9L713.2,424.9l-1.3,0.8l-0.2-0.8l1.7-0.9h0.9v7.8h-1.1V424.9z"/>
	<path style="fill:#231F20;" d="M719.9,430.6c0.541,0.226,1.115,0.362,1.7,0.4c1.4,0,1.8-0.8,1.8-1.5s-1-1.5-2-1.5h-0.6v-0.8h0.6
		c0.7,0,1.7-0.4,1.7-1.3s-0.4-1.2-1.4-1.2c-0.536,0.03-1.054,0.202-1.5,0.5l-0.3-0.8c0.624-0.407,1.356-0.616,2.1-0.6
		c1.036-0.166,2.01,0.54,2.176,1.576c0.017,0.107,0.025,0.216,0.024,0.324c-0.026,0.874-0.646,1.616-1.5,1.8l0,0
		c1.01,0.053,1.801,0.888,1.8,1.9c0,1.3-1,2.4-2.9,2.4c-0.695-0.02-1.377-0.19-2-0.5L719.9,430.6z"/>
	<path style="fill:#231F20;" d="M725.8,431.8v-0.7l0.8-0.8c2-1.9,2.9-2.9,2.9-4.1c0.121-0.708-0.355-1.379-1.063-1.5
		c-0.145-0.025-0.292-0.025-0.437,0c-0.628,0.043-1.224,0.288-1.7,0.7l-0.3-0.8c0.624-0.504,1.398-0.786,2.2-0.8
		c1.21-0.112,2.281,0.778,2.393,1.988c0.01,0.104,0.012,0.208,0.007,0.312c0,1.4-1.1,2.6-2.7,4.2l-0.6,0.6h3.5v0.9L725.8,431.8z"/>
	<path style="fill:#231F20;" d="M666.4,445.9c-0.658,0.3-1.378,0.437-2.1,0.4c-2.095,0.117-3.889-1.486-4.006-3.582
		c-0.01-0.173-0.008-0.346,0.006-0.518c-0.169-2.203,1.48-4.125,3.683-4.294c0.172-0.013,0.345-0.015,0.517-0.006
		c0.686,0.01,1.363,0.145,2,0.4l-0.3,0.9c-0.498-0.249-1.044-0.385-1.6-0.4c-1.711-0.063-3.149,1.272-3.213,2.983
		c-0.005,0.139-0.001,0.278,0.013,0.417c-0.112,1.653,1.138,3.084,2.791,3.195c0.103,0.007,0.206,0.009,0.309,0.005
		c0.582,0.025,1.162-0.077,1.7-0.3L666.4,445.9z"/>
	<path style="fill:#231F20;" d="M674.6,442.6c-0.1-1.1-0.2-2.5-0.2-3.5l0,0c-0.3,1-0.6,2-1,3.1l-1.4,3.9h-0.8l-1.3-3.8l-1-3.2l0,0
		c0,1-0.1,2.4-0.2,3.6l-0.2,3.5h-1l0.6-8.1h1.3l1.4,3.9c0.3,1,0.6,1.9,0.8,2.7l0,0c0.333-0.8,0.633-1.7,0.9-2.7l1.5-3.9h1.3l0.5,8.1
		h-1L674.6,442.6z"/>
	<path style="fill:#231F20;" d="M679.2,446.2v-3.5l-2.6-4.6h1.2l1.2,2.2l0.8,1.7l0,0c0.225-0.585,0.493-1.153,0.8-1.7l1.2-2.2h1.2
		l-2.7,4.6v3.5H679.2z"/>
	<path style="fill:#231F20;" d="M683.8,438.1h1.1v3.9l0,0l0.6-0.9l2.5-3h1.3l-2.9,3.4l3.1,4.7h-1.2l-2.7-4l-0.7,0.9v3.1h-1.1
		L683.8,438.1z"/>
	<path style="fill:#231F20;" d="M695.3,442.5v0.8h-3v-0.8H695.3z"/>
	<path style="fill:#231F20;" d="M703.9,442.2c0,2.6-1,4.1-2.7,4.1s-2.6-1.4-2.6-4s1.1-4.1,2.7-4.1S703.9,439.7,703.9,442.2z
		 M699.7,442.3c0,2,0.6,3.2,1.6,3.2s1.5-1.3,1.5-3.3s-0.4-3.2-1.5-3.2S699.7,440.2,699.7,442.3z"/>
	<path style="fill:#231F20;" d="M712.6,442.2c0,2.6-1,4.1-2.7,4.1s-2.6-1.4-2.6-4s1.1-4.1,2.7-4.1S712.6,439.7,712.6,442.2z
		 M708.4,442.3c0,2,0.6,3.2,1.6,3.2s1.5-1.3,1.5-3.3s-0.4-3.2-1.5-3.2S708.4,440.2,708.4,442.3z"/>
	<path style="fill:#231F20;" d="M721.3,442.2c0,2.6-1,4.1-2.7,4.1s-2.6-1.4-2.6-4s1.1-4.1,2.7-4.1S721.3,439.7,721.3,442.2z
		 M717.1,442.3c0,2,0.6,3.2,1.6,3.2s1.5-1.3,1.5-3.3s-0.4-3.2-1.5-3.2S717.1,440.2,717.1,442.3L717.1,442.3z"/>
	<path style="fill:#231F20;" d="M727.1,439.3L727.1,439.3l-1.4,0.8l-0.2-0.8l1.7-0.9h0.9v7.8h-1V439.3z"/>
	<path style="fill:#231F20;" d="M736.2,442.2c0,2.6-1,4.1-2.8,4.1s-2.5-1.4-2.5-4s1.1-4.1,2.7-4.1S736.2,439.7,736.2,442.2z
		 M731.9,442.3c0,2,0.6,3.2,1.6,3.2s1.6-1.3,1.6-3.3s-0.5-3.2-1.6-3.2S731.9,440.2,731.9,442.3z"/>
	<path style="fill:#231F20;" d="M742.3,442.2c0,2.6-1,4.1-2.7,4.1s-2.6-1.4-2.6-4s1.2-4.1,2.7-4.1S742.3,439.7,742.3,442.2z
		 M738.1,442.3c0,2,0.6,3.2,1.6,3.2s1.5-1.3,1.5-3.3s-0.4-3.2-1.5-3.2S738.1,440.2,738.1,442.3L738.1,442.3z"/>
	<rect y="404" width="539" height="62.85"/>
	<polygon style="fill:#FFFFFF;" points="526,414.2 526,429 526,443.9 526,452.1 511.8,431.1 511.8,437.7 526.2,459 529.7,459 
		529.7,443.9 529.7,429 529.7,414.2 	"/>
	<polyline style="fill:#FFFFFF;" points="509.2,414.2 505.5,414.2 505.5,429 505.5,443.9 505.5,459 509.1,459 509.1,443.9 
		509.1,429 509.1,420.7 523.1,441.5 523.1,434.8 	"/>
	<polygon style="fill:#FFFFFF;" points="241.1,414.3 241.1,429.1 241.1,444 241.1,452.3 226.9,431.3 226.9,437.8 241.2,459.1 
		244.7,459.1 244.7,444 244.7,429.1 244.7,414.3 	"/>
	<polyline style="fill:#FFFFFF;" points="224.3,414.3 220.5,414.3 220.5,429.1 220.5,444 220.5,459.1 224.2,459.1 224.2,444 
		224.2,429.1 224.2,420.8 238.1,441.6 238.1,434.9 	"/>
	<polygon style="fill:#FFFFFF;" points="423.8,430.1 403.5,430.1 403.5,417.9 424.2,417.9 424.2,414.2 399.8,414.2 399.8,433.7 
		423.8,433.7 	"/>
	<polygon style="fill:#FFFFFF;" points="403.5,455.3 403.5,441 423.8,441 423.8,437.3 399.8,437.3 399.8,459 424.2,459 424.2,455.3 
			"/>
	<path style="fill:#FFFFFF;" d="M271,459c9,0,15-9.5,15-22.3s-6-22.3-15-22.3h-10V459 M264.9,419.3h6.1c7.2,0,11.2,7.8,11.2,17.4
		s-4.1,17.4-11.2,17.4h-6"/>
	<polyline style="fill:#FFFFFF;" points="350.3,459 350.3,455.4 326.2,455.4 326.2,459 	"/>
	<path style="fill:#FFFFFF;" d="M121.2,414.2h-13.5v44.6l12.2-14.9l0,0l3-3.7c4.6-0.5,8.9-4.5,8.9-12.6S127.4,414.2,121.2,414.2z
		 M124.3,435.1l-12.7-15.9h9.1c4,0,6.7,3.5,6.7,8.5C127.4,431,126.2,433.7,124.3,435.1z"/>
	<polygon style="fill:#FFFFFF;" points="97.3,430.1 77.1,430.1 77.1,417.9 97.7,417.9 97.7,414.2 73.3,414.2 73.3,433.7 97.3,433.7 
			"/>
	<polygon style="fill:#FFFFFF;" points="77.1,455.3 77.1,441 97.3,441 97.3,437.3 73.3,437.3 73.3,459 97.7,459 97.7,455.3 	"/>
	<rect x="138.5" y="414.2" style="fill:#FFFFFF;" width="3.6" height="44.79"/>
	<rect x="251" y="414.4" style="fill:#FFFFFF;" width="3.6" height="44.63"/>
	<rect x="462.9" y="414.4" style="fill:#FFFFFF;" width="3.6" height="44.63"/>
	<rect x="485.4" y="433.4" style="fill:#FFFFFF;" width="13.7" height="3.72"/>
	<path style="fill:#FFFFFF;" d="M485.4,440.8v3.6h10v5.5c-0.701,1.074-1.581,2.021-2.6,2.8c-1.471,1.212-3.296,1.914-5.2,2
		c-4.9,0-8.9-4.5-10.5-11.4c-0.19-0.823-0.323-1.659-0.4-2.5c-0.116-0.829-0.183-1.663-0.2-2.5c-0.083-0.596-0.116-1.198-0.1-1.8
		c0-10.7,4.8-18.2,11.2-18.2c1.91,0.056,3.745,0.761,5.2,2c1.029,0.951,1.936,2.026,2.7,3.2l0.6,1l2.8-2.7
		c-0.85-1.813-1.999-3.47-3.4-4.9c-0.781-0.868-1.692-1.611-2.7-2.2c-1.601-0.852-3.386-1.298-5.2-1.3c-8.3,0-15,9.2-15,23.1v1.8
		c0.1,0.8,0.1,1.7,0.2,2.5c0.077,0.841,0.21,1.677,0.4,2.5c1.8,10,7.5,16.3,14.4,16.3c1.818,0.033,3.612-0.415,5.2-1.3
		c0.968-0.531,1.874-1.168,2.7-1.9c1.43-1.3,2.645-2.819,3.6-4.5v-11.1"/>
	<polygon style="fill:#FFFFFF;" points="46.6,430.1 46.6,414.2 43,414.2 43,459 46.6,459 46.6,433.7 61.1,433.7 61.1,430.1 	"/>
	<polygon style="fill:#FFFFFF;" points="63.4,414.2 63.4,437.3 49.3,437.3 49.3,440.8 63.4,440.8 63.4,459 67,459 67,414.2 	"/>
	<polygon style="fill:#FFFFFF;" points="297,443.8 297,443.8 297,443.8 	"/>
	<polygon style="fill:#FFFFFF;" points="316.3,444.2 302.5,444.2 301.6,448.1 312.8,448.1 316.1,459 320.9,459 	"/>
	<polygon style="fill:#FFFFFF;" points="309.7,436.7 309.7,436.7 309.7,436.7 	"/>
	<polyline style="fill:#FFFFFF;" points="307.1,414.1 301.8,414.1 288,459 292.8,459 304.5,419 310.7,440.5 315.1,440.5 	"/>
	<polyline style="fill:#FFFFFF;" points="350.3,451.8 350.3,448.1 329.8,448.1 329.8,414.1 326.2,414.1 326.2,451.8 	"/>
	<polygon style="fill:#FFFFFF;" points="126.8,459 131.8,459 124.7,444 121.7,447.6 	"/>
	<polygon style="fill:#FFFFFF;" points="107.7,459 119.9,444 107.7,458.9 	"/>
	<polygon style="fill:#FFFFFF;" points="122.9,440.3 122.9,440.3 122.9,440.3 	"/>
	<polygon style="fill:#FFFFFF;" points="119.9,444 119.9,444 119.9,444 	"/>
	<polygon style="fill:#FFFFFF;" points="169,414.2 169,429 169,443.9 169,452.2 154.8,431.2 154.8,437.7 169.2,459 172.7,459 
		172.7,443.9 172.7,429 172.7,414.2 	"/>
	<polyline style="fill:#FFFFFF;" points="152.2,414.2 148.5,414.2 148.5,429 148.5,443.9 148.5,459 152.1,459 152.1,443.9 
		152.1,429 152.1,420.7 166.1,441.5 166.1,434.8 	"/>
	<path style="fill:#FFFFFF;" d="M25.2,428.4c-3.1-0.8-6-1.5-7.4-3.1c-0.617-0.683-0.94-1.581-0.9-2.5c0-3.1,2.9-5.3,7-5.3
		c3.721-0.146,7.325,1.31,9.9,4l2.6-3.1c-2.9-3-6.9-4.7-12.2-4.7s-11.8,3.8-11.8,9.4c-0.005,0.744,0.096,1.485,0.3,2.2
		c1.2,4.8,6.5,6.1,11.4,7.4s6.8,1.8,8.1,4.1l2.8-3.7C32.6,430.6,28.8,429.4,25.2,428.4z"/>
	<path style="fill:#FFFFFF;" d="M24.1,438.4c-3-0.9-5.3-2-6.7-3.6l-2.7,3.6c2.5,2.3,5.1,3.2,8.3,4.4s7.8,2,9,4.5
		c0.423,0.691,0.631,1.491,0.6,2.3c0,2.7-2,6.1-8.1,6.1c-4.133-0.085-8.031-1.943-10.7-5.1l-2.5,3.4c2.8,3.3,7.2,5.6,13.1,5.6
		c9.2,0,12.5-5.2,12.5-10.4c0.038-0.739-0.029-1.48-0.2-2.2C35.6,441.4,29.1,439.7,24.1,438.4z"/>
	<path style="fill:#FFFFFF;" d="M202.9,428.2c-3.1-0.8-6-1.5-7.4-3.1c-0.621-0.64-0.947-1.51-0.9-2.4c0-3.2,2.9-5.4,7-5.4
		c3.714-0.108,7.304,1.342,9.9,4l2.6-3.1c-3.253-3.17-7.662-4.868-12.2-4.7c-6.7,0-11.8,3.8-11.8,9.4
		c-0.013,0.744,0.088,1.486,0.3,2.2c1.2,4.8,6.5,6.2,11.4,7.4s6.8,1.9,8.1,4.1l2.8-3.7C210.3,430.4,206.5,429.2,202.9,428.2z"/>
	<path style="fill:#FFFFFF;" d="M201.8,438.2c-3-0.9-5.3-1.9-6.7-3.6l-2.7,3.6c2.5,2.3,5.1,3.3,8.3,4.5s7.8,1.9,9,4.4
		c0.423,0.691,0.632,1.491,0.6,2.3c0,2.7-2,6.1-8,6.1c-4.153-0.031-8.089-1.854-10.8-5l-2.5,3.3c2.8,3.3,7.2,5.6,13.1,5.6
		c9.2,0,12.5-5.2,12.5-10.4c0.038-0.739-0.029-1.48-0.2-2.2C213.3,441.2,206.8,439.6,201.8,438.2z"/>
	<path style="fill:#FFFFFF;" d="M443.6,428.1c-3.1-0.8-6-1.5-7.4-3.1c-0.648-0.629-1.009-1.497-1-2.4c0-3.2,3-5.4,7.1-5.4
		c3.707-0.072,7.283,1.373,9.9,4l2.6-3.1c-3.259-3.16-7.664-4.856-12.2-4.7c-6.7,0-11.8,3.8-11.8,9.4
		c-0.013,0.744,0.088,1.486,0.3,2.2c1.2,4.8,6.5,6.2,11.3,7.4s6.9,1.9,8.2,4.1l2.8-3.7C451,430.3,447.1,429.1,443.6,428.1z"/>
	<path style="fill:#FFFFFF;" d="M442.5,438.1c-3-0.9-5.3-1.9-6.7-3.6l-2.7,3.7c2.4,2.2,5.1,3.2,8.3,4.4s7.8,1.9,9,4.4
		c0.388,0.701,0.562,1.501,0.5,2.3c0,2.7-1.9,6.1-8,6.1c-4.123-0.034-8.029-1.859-10.7-5l-2.5,3.3c2.8,3.3,7.2,5.6,13.1,5.6
		c9.2,0,12.5-5.2,12.5-10.4c-0.013-0.737-0.079-1.473-0.2-2.2C454,441.1,447.5,439.5,442.5,438.1z"/>
	<polygon style="fill:#FFFFFF;" points="107.7,414.2 125.7,436.8 107.7,458.8 	"/>
	<path style="fill:#FFFFFF;" d="M379.2,414.4h-10V459h10c9.1,0,15-9.5,15-22.3S388.3,414.4,379.2,414.4z M379.2,454.1h-5.9
		l-0.2-34.8h6.1c7.2,0,11.2,7.8,11.2,17.4S386.3,454.1,379.2,454.1z"/>
	<polygon style="fill:#FFFFFF;" points="369.2,414.4 387.2,437.1 369.2,459 	"/>
	<polygon style="fill:#FFFFFF;" points="261,414.4 279,437.1 261,459 	"/>
	<polygon style="fill:#636466;" points="524.8,324.6 524.8,339.4 524.8,354.3 524.8,362.6 510.6,341.6 510.6,348.1 524.9,369.4 
		528.4,369.4 528.4,354.3 528.4,339.4 528.4,324.6 	"/>
	<polyline style="fill:#636466;" points="508,324.6 504.2,324.6 504.2,339.4 504.2,354.3 504.2,369.4 507.9,369.4 507.9,354.3 
		507.9,339.4 507.9,331.1 521.8,351.9 521.8,345.2 	"/>
	<polygon style="fill:#636466;" points="239.9,324.7 239.9,339.5 239.9,354.4 239.9,362.7 225.7,341.7 225.7,348.3 240,369.5 
		243.5,369.5 243.5,354.4 243.5,339.5 243.5,324.7 	"/>
	<polyline style="fill:#636466;" points="223,324.7 219.3,324.7 219.3,339.5 219.3,354.4 219.3,369.5 223,369.5 223,354.4 
		223,339.5 223,331.2 236.9,352 236.9,345.3 	"/>
	<polygon style="fill:#636466;" points="422.6,340.5 402.3,340.5 402.3,328.4 423,328.4 423,324.6 398.6,324.6 398.5,344.1 
		422.6,344.1 	"/>
	<polygon style="fill:#636466;" points="402.3,365.7 402.3,351.4 422.6,351.4 422.6,347.7 398.5,347.7 398.6,369.4 423,369.4 
		423,365.7 	"/>
	<path style="fill:#636466;" d="M269.8,369.4c9,0,14.9-9.5,14.9-22.2s-5.9-22.4-14.9-22.4h-10v44.6 M263.7,329.8h6.1
		c7.2,0,11.2,7.7,11.2,17.4s-4.1,17.3-11.2,17.3h-6"/>
	<polyline style="fill:#636466;" points="349.1,369.4 349.1,365.8 325,365.8 325,369.4 	"/>
	<path style="fill:#636466;" d="M120,324.6h-13.5v44.7l12.2-14.9l0,0l3-3.6c4.6-0.6,8.8-4.6,8.8-12.7S126.2,324.6,120,324.6z
		 M123.1,345.5l-12.7-15.9h9.1c4,0,6.7,3.5,6.7,8.5C126.2,341.4,125,344.1,123.1,345.5L123.1,345.5z"/>
	<polygon style="fill:#636466;" points="96.1,340.5 75.9,340.5 75.9,328.4 96.5,328.4 96.5,324.6 72.1,324.6 72.1,344.1 96.1,344.1 
			"/>
	<polygon style="fill:#636466;" points="75.8,365.7 75.8,351.4 96.1,351.4 96.1,347.7 72.1,347.7 72.1,369.4 96.5,369.4 96.5,365.7 
			"/>
	<rect x="137.3" y="324.6" style="fill:#636466;" width="3.6" height="44.79"/>
	<rect x="249.8" y="324.8" style="fill:#636466;" width="3.6" height="44.63"/>
	<rect x="461.7" y="324.8" style="fill:#636466;" width="3.6" height="44.63"/>
	<rect x="484.2" y="343.8" style="fill:#636466;" width="13.7" height="3.72"/>
	<path style="fill:#636466;" d="M484.2,351.2v3.7h10v5.4c-0.701,1.074-1.581,2.021-2.6,2.8c-1.447,1.253-3.286,1.961-5.2,2
		c-4.9,0-8.9-4.5-10.5-11.4c-0.19-0.823-0.323-1.659-0.4-2.5c-0.155-0.826-0.255-1.661-0.3-2.5c0-0.6-0.1-1.2-0.1-1.8
		c0-10.6,4.9-18.1,11.3-18.1c1.915,0.031,3.758,0.739,5.2,2c1.051,0.892,1.961,1.937,2.7,3.1l0.5,1l2.9-2.7
		c-0.885-1.793-2.03-3.444-3.4-4.9c-0.799-0.821-1.707-1.528-2.7-2.1c-1.58-0.915-3.374-1.398-5.2-1.4c-8.3,0-15,9.2-15,23.1v1.8
		c0.1,0.9,0.1,1.7,0.2,2.5c0.077,0.841,0.21,1.677,0.4,2.5c1.8,10,7.5,16.3,14.4,16.3c1.816,0.019,3.607-0.428,5.2-1.3
		c0.968-0.531,1.874-1.168,2.7-1.9c1.402-1.327,2.614-2.841,3.6-4.5v-11.1"/>
	<polygon style="fill:#636466;" points="45.4,340.5 45.4,324.6 41.8,324.6 41.8,369.4 45.4,369.4 45.4,344.1 59.9,344.1 59.9,340.5 
			"/>
	<polygon style="fill:#636466;" points="62.2,324.6 62.2,347.7 48.1,347.7 48.1,351.2 62.2,351.2 62.2,369.4 65.8,369.4 65.8,324.6 
			"/>
	<polygon style="fill:#636466;" points="295.8,354.3 295.8,354.3 295.8,354.3 	"/>
	<polygon style="fill:#636466;" points="315.1,354.6 301.2,354.6 300.4,358.5 311.6,358.5 314.9,369.4 319.7,369.4 	"/>
	<polygon style="fill:#636466;" points="308.5,347.1 308.5,347.1 308.5,347.1 	"/>
	<polyline style="fill:#636466;" points="305.9,324.5 300.6,324.5 286.8,369.4 291.5,369.4 303.2,329.4 309.5,350.9 313.8,350.9 	
		"/>
	<polyline style="fill:#636466;" points="349.1,362.2 349.1,358.5 328.6,358.5 328.6,324.5 325,324.5 325,362.2 	"/>
	<polygon style="fill:#636466;" points="125.6,369.4 130.5,369.4 123.5,354.4 120.5,358 	"/>
	<polygon points="106.5,369.4 118.7,354.4 106.5,369.3 	"/>
	<polygon points="121.7,350.8 121.7,350.8 121.7,350.8 	"/>
	<polygon points="118.7,354.4 118.7,354.4 118.7,354.4 	"/>
	<polygon style="fill:#636466;" points="167.8,324.6 167.8,339.4 167.8,354.3 167.8,362.6 153.6,341.6 153.6,348.2 167.9,369.4 
		171.4,369.4 171.4,354.3 171.4,339.4 171.4,324.6 	"/>
	<polyline style="fill:#636466;" points="151,324.6 147.2,324.6 147.2,339.4 147.2,354.3 147.2,369.4 150.9,369.4 150.9,354.3 
		150.9,339.4 150.9,331.1 164.8,351.9 164.8,345.2 	"/>
	<path d="M24,338.8c-3.1-0.8-6-1.5-7.4-3.1c-0.648-0.629-1.009-1.497-1-2.4c0-3.2,3-5.4,7.1-5.4c3.707-0.072,7.283,1.373,9.9,4
		l2.6-3.1c-3.259-3.16-7.664-4.856-12.2-4.7c-6.7,0-11.8,3.8-11.8,9.4c-0.013,0.744,0.088,1.486,0.3,2.2c1.2,4.8,6.5,6.2,11.3,7.4
		s6.9,1.9,8.2,4.1l2.8-3.7C31.4,341,27.5,339.8,24,338.8z"/>
	<path d="M22.9,348.8c-3-0.9-5.3-1.9-6.7-3.6l-2.7,3.6c2.4,2.3,5.1,3.3,8.3,4.5s7.8,1.9,9,4.4c0.388,0.701,0.562,1.501,0.5,2.3
		c0,2.7-1.9,6.1-8,6.1c-4.123-0.034-8.029-1.859-10.7-5l-2.5,3.3c2.8,3.3,7.2,5.6,13.1,5.6c9.2,0,12.5-5.2,12.5-10.4
		c0.038-0.739-0.029-1.48-0.2-2.2C34.4,351.8,27.9,350.2,22.9,348.8z"/>
	<path style="fill:#231F20;" d="M201.7,338.7c-3.1-0.9-6-1.6-7.4-3.2c-0.648-0.629-1.009-1.497-1-2.4c0-3.2,3-5.4,7.1-5.4
		c3.729-0.082,7.321,1.406,9.9,4.1l2.6-3.1c-3.222-3.227-7.643-4.966-12.2-4.8c-6.7,0-11.8,3.8-11.8,9.4
		c-0.013,0.744,0.088,1.486,0.3,2.2c1.2,4.8,6.5,6.2,11.3,7.4s6.9,1.9,8.2,4.2l2.8-3.8C209.1,340.8,205.2,339.6,201.7,338.7z"/>
	<path style="fill:#231F20;" d="M200.6,348.6c-3-0.9-5.3-1.9-6.7-3.6l-2.7,3.7c2.4,2.2,5.1,3.2,8.3,4.4s7.8,2,9,4.4
		c0.377,0.705,0.55,1.502,0.5,2.3c0,2.7-1.9,6.1-8,6.1c-4.123-0.034-8.029-1.859-10.7-5l-2.5,3.3c3.293,3.766,8.1,5.858,13.1,5.7
		c9.2,0,12.5-5.3,12.5-10.5c0.038-0.739-0.029-1.48-0.2-2.2C212.1,351.6,205.6,350,200.6,348.6z"/>
	<path style="fill:#231F20;" d="M442.3,338.6c-3-0.9-5.9-1.6-7.3-3.2c-0.648-0.629-1.009-1.497-1-2.4c0-3.2,3-5.4,7.1-5.4
		c3.729-0.082,7.321,1.406,9.9,4.1l2.6-3.1c-3.222-3.227-7.643-4.966-12.2-4.8c-6.8,0-11.8,3.9-11.8,9.4
		c-0.013,0.744,0.088,1.486,0.3,2.2c1.2,4.9,6.5,6.2,11.3,7.4s6.9,1.9,8.1,4.2l2.8-3.8C449.8,340.7,445.9,339.5,442.3,338.6z"/>
	<path style="fill:#231F20;" d="M441.3,348.5c-3.1-0.9-5.3-1.9-6.7-3.6l-2.8,3.7c2.5,2.2,5.2,3.2,8.4,4.4s7.8,2,9,4.4
		c0.328,0.723,0.498,1.507,0.5,2.3c0,2.7-1.9,6.1-8,6.1c-4.13-0.007-8.045-1.837-10.7-5l-2.5,3.3c3.275,3.79,8.095,5.887,13.1,5.7
		c9.1,0,12.5-5.3,12.5-10.5c-0.013-0.737-0.079-1.473-0.2-2.2C452.7,351.5,446.3,349.9,441.3,348.5z"/>
	<polygon style="fill:#549097;" points="106.5,324.6 124.5,347.2 106.5,369.3 	"/>
	<path style="fill:#636466;" d="M378,324.8h-10v44.6h10c9,0,15-9.5,15-22.2S387,324.8,378,324.8z M378,364.5h-5.9l-0.2-34.7h6.1
		c7.2,0,11.2,7.7,11.2,17.4S385.1,364.5,378,364.5z"/>
	<polygon style="fill:#549097;" points="368,324.8 386,347.5 368,369.4 	"/>
	<polygon style="fill:#549097;" points="259.8,324.8 277.8,347.5 259.8,369.4 	"/>
	<polygon points="525.5,244.5 525.5,259.3 525.5,274.2 525.5,282.4 511.3,261.4 511.3,268 525.7,289.3 529.2,289.3 529.2,274.2 
		529.2,259.3 529.2,244.5 	"/>
	<polyline points="508.7,244.5 505,244.5 505,259.3 505,274.2 505,289.3 508.6,289.3 508.6,274.2 508.6,259.3 508.6,250.9 
		522.6,271.7 522.6,265.1 	"/>
	<polygon points="240.6,244.6 240.6,259.4 240.6,274.3 240.6,282.5 226.4,261.5 226.4,268.1 240.7,289.4 244.2,289.4 244.2,274.3 
		244.2,259.4 244.2,244.6 	"/>
	<polyline points="223.8,244.6 220,244.6 220,259.4 220,274.3 220,289.4 223.7,289.4 223.7,274.3 223.7,259.4 223.7,251.1 
		237.6,271.9 237.6,265.2 	"/>
	<polygon points="423.3,260.3 403,260.3 403,248.2 423.7,248.2 423.7,244.5 399.3,244.5 399.3,263.9 423.3,263.9 	"/>
	<polygon points="403,285.6 403,271.2 423.3,271.2 423.3,267.6 399.3,267.6 399.3,289.3 423.7,289.3 423.7,285.6 	"/>
	<path d="M270.5,289.3c9,0,15-9.6,15-22.3c0-12.7-6-22.3-15-22.3h-10v44.6 M264.5,249.6h6c7.2,0,11.2,7.8,11.2,17.4
		s-4.1,17.3-11.2,17.3h-6"/>
	<polyline points="349.8,289.3 349.8,285.7 325.7,285.7 325.7,289.3 	"/>
	<path d="M120.7,244.5h-13.5v44.6l12.2-14.8l0,0l3-3.6c4.6-0.5,8.9-4.6,8.9-12.6C131.3,250.1,126.9,244.5,120.7,244.5z M123.8,265.4
		l-12.7-15.9h9.1c4,0,6.7,3.4,6.7,8.5C127.053,260.811,125.911,263.538,123.8,265.4z"/>
	<polygon points="96.8,260.3 76.6,260.3 76.6,248.2 97.2,248.2 97.2,244.5 72.8,244.5 72.8,263.9 96.8,263.9 	"/>
	<polygon points="76.6,285.6 76.6,271.2 96.8,271.2 96.8,267.6 72.8,267.6 72.8,289.3 97.2,289.3 97.2,285.6 	"/>
	<rect x="138" y="244.5" width="3.6" height="44.79"/>
	<rect x="250.5" y="244.7" width="3.6" height="44.63"/>
	<rect x="462.4" y="244.7" width="3.6" height="44.63"/>
	<rect x="484.9" y="263.7" width="13.7" height="3.72"/>
	<path d="M484.9,271v3.7h10v5.4c-0.697,1.106-1.576,2.087-2.6,2.9c-1.48,1.183-3.306,1.85-5.2,1.9c-4.9,0-8.9-4.5-10.5-11.3
		c-0.182-0.825-0.315-1.66-0.4-2.5c-0.116-0.829-0.183-1.663-0.2-2.5c-0.086-0.629-0.119-1.265-0.1-1.9c0-10.6,4.8-18.1,11.2-18.1
		c1.91,0.056,3.745,0.761,5.2,2c1.052,0.928,1.962,2.007,2.7,3.2l0.6,1l2.8-2.8c-0.874-1.799-2.021-3.452-3.4-4.9
		c-0.81-0.809-1.717-1.514-2.7-2.1c-1.583-0.898-3.381-1.348-5.2-1.3c-8.3,0-15,9.2-15,23v1.9c0.1,0.8,0.1,1.7,0.2,2.5
		c0.085,0.84,0.218,1.675,0.4,2.5c1.8,10,7.5,16.3,14.4,16.3c1.812-0.014,3.595-0.46,5.2-1.3c0.946-0.565,1.848-1.201,2.7-1.9
		c1.408-1.321,2.62-2.836,3.6-4.5V271"/>
	<polygon points="46.1,260.4 46.1,244.5 42.5,244.5 42.5,289.3 46.1,289.3 46.1,263.9 60.6,263.9 60.6,260.3 	"/>
	<polygon points="62.9,244.5 62.9,267.6 48.8,267.6 48.8,271.1 62.9,271.1 62.9,289.3 66.5,289.3 66.5,244.5 	"/>
	<polygon points="296.5,274.1 296.5,274.1 296.5,274.1 	"/>
	<polygon points="315.8,274.4 302,274.4 301.1,278.4 312.3,278.4 315.6,289.3 320.4,289.3 	"/>
	<polygon points="309.2,266.9 309.2,266.9 309.2,266.9 	"/>
	<polyline points="306.6,244.3 301.3,244.3 287.5,289.3 292.3,289.3 304,249.3 310.2,270.8 314.6,270.8 	"/>
	<polyline points="349.8,282 349.8,278.4 329.3,278.4 329.3,244.3 325.7,244.3 325.7,282 	"/>
	<polygon points="126.3,289.3 131.3,289.3 124.2,274.3 121.2,277.9 	"/>
	<polygon points="107.2,289.3 119.4,274.3 107.2,289.2 	"/>
	<polygon points="122.4,270.6 122.4,270.6 122.4,270.6 	"/>
	<polygon points="119.4,274.2 119.4,274.3 119.4,274.2 	"/>
	<polygon points="168.5,244.5 168.5,259.3 168.5,274.2 168.5,282.4 154.3,261.4 154.3,268 168.7,289.3 172.2,289.3 172.2,274.2 
		172.2,259.3 172.2,244.5 	"/>
	<polyline points="151.7,244.5 148,244.5 148,259.3 148,274.2 148,289.3 151.6,289.3 151.6,274.2 151.6,259.3 151.6,250.9 
		165.6,271.7 165.6,265.1 	"/>
	<path d="M24.7,258.7c-3.1-0.8-6-1.6-7.4-3.1c-0.599-0.693-0.92-1.584-0.9-2.5c0-3.2,2.9-5.4,7-5.4c3.736-0.12,7.343,1.374,9.9,4.1
		l2.6-3.1c-2.9-3-6.9-4.7-12.2-4.7s-11.8,3.8-11.8,9.4c-0.005,0.744,0.096,1.485,0.3,2.2c1.2,4.8,6.5,6.1,11.4,7.4s6.8,1.8,8.1,4.1
		l2.8-3.7C32.1,260.8,28.3,259.6,24.7,258.7z"/>
	<path d="M23.6,268.6c-3-0.8-5.3-1.9-6.7-3.5l-2.7,3.6c2.5,2.2,5.1,3.2,8.3,4.4s7.8,2,9,4.4c0.398,0.701,0.605,1.494,0.6,2.3
		c0,2.8-2,6.2-8,6.2c-4.165-0.07-8.1-1.927-10.8-5.1l-2.5,3.4c2.8,3.3,7.2,5.6,13.1,5.6c9.2,0,12.5-5.3,12.5-10.4
		c0.037-0.772-0.03-1.546-0.2-2.3C35.1,271.6,28.6,270,23.6,268.6z"/>
	<path d="M202.4,258.5c-3.1-0.8-6-1.6-7.4-3.1c-0.599-0.693-0.92-1.584-0.9-2.5c0-3.2,2.9-5.4,7-5.4c3.736-0.12,7.343,1.374,9.9,4.1
		l2.6-3.1c-2.9-3-6.9-4.7-12.2-4.7s-11.8,3.8-11.8,9.4c-0.005,0.744,0.096,1.485,0.3,2.2c1.2,4.8,6.5,6.1,11.4,7.4s6.8,1.8,8.1,4.1
		l2.8-3.7C209.8,260.6,206,259.4,202.4,258.5z"/>
	<path d="M201.3,268.5c-3-0.9-5.3-2-6.7-3.6l-2.7,3.6c2.5,2.2,5.1,3.2,8.3,4.4s7.8,2,9,4.5c0.423,0.691,0.632,1.491,0.6,2.3
		c0,2.7-2,6.1-8,6.1c-4.165-0.07-8.1-1.927-10.8-5.1l-2.5,3.4c2.8,3.3,7.2,5.6,13.1,5.6c9.2,0,12.5-5.3,12.5-10.4
		c0.042-0.739-0.025-1.481-0.2-2.2C212.8,271.5,206.3,269.8,201.3,268.5z"/>
	<path d="M443.1,258.4c-3.1-0.8-6-1.6-7.4-3.1c-0.635-0.678-0.992-1.571-1-2.5c0-3.2,3-5.3,7.1-5.3c3.716-0.12,7.311,1.332,9.9,4
		l2.6-3.1c-2.9-3-7-4.7-12.2-4.7s-11.8,3.8-11.8,9.4c-0.005,0.744,0.096,1.485,0.3,2.2c1.2,4.8,6.5,6.1,11.3,7.4s6.9,1.8,8.2,4.1
		l2.8-3.7C450.5,260.5,446.6,259.4,443.1,258.4z"/>
	<path d="M442,268.4c-3-0.9-5.3-2-6.7-3.6l-2.7,3.6c2.4,2.2,5.1,3.2,8.3,4.4s7.8,2,9,4.5c0.388,0.701,0.562,1.501,0.5,2.3
		c0,2.7-1.9,6.1-8,6.1c-4.136-0.072-8.039-1.932-10.7-5.1l-2.5,3.4c2.8,3.3,7.2,5.6,13.1,5.6c9.2,0,12.5-5.3,12.5-10.4
		c-0.008-0.738-0.075-1.473-0.2-2.2C453.5,271.4,447,269.7,442,268.4z"/>
	<polygon points="107.2,244.5 125.2,267.1 107.2,289.1 	"/>
	<path d="M378.7,244.7h-10v44.6h10c9.1,0,15-9.6,15-22.3C393.7,254.3,387.8,244.7,378.7,244.7z M378.7,284.3h-5.9l-0.2-34.8h6.1
		c7.2,0,11.2,7.8,11.2,17.4S385.8,284.3,378.7,284.3z"/>
	<polygon points="368.7,244.7 386.7,267.3 368.7,289.3 	"/>
	<polygon points="260.5,244.7 278.5,267.3 260.5,289.3 	"/>
</g>
</svg>
