<svg xmlns="http://www.w3.org/2000/svg" width="1186.7" height="482" viewBox="0 0 1186.7 482"><g id="Cthulhu"><path d="M112.2,44.3l-58.9,115c30.4-48,74.2-86.7,124.6-110.3-25.3,81.6-81,185.2-121.1,257.6C103.6,253,188.9,161.5,249.7,113.1,203,200.1,117.3,350.4,70.6,437.4,175.8,315.3,275.7,168.2,388.8,55c-36.6,67.8-43.7,94.6-80.3,162.4s-73.9,137.2-98.8,211.2C304,317.6,429,133.1,535.8,35.1,490,130.7,420.2,306,374.4,401.7c86.2-91.3,172.3-256.4,258.5-347.6-27.9,89.8-66.2,286.7-94.1,376.6,59-96.2,93.7-168.7,150.1-263.6-14.1,98.9-33,178.9-43.1,262.6C705,373.3,762.4,270.2,821.6,213.8c-1,84.3-37,169.3-54.3,233.6" fill="none" stroke="#2d315d" stroke-linecap="round" stroke-linejoin="round" stroke-width="71.96"/><rect x="60.7" y="432.7" width="809.4" height="14.7" fill="#fff"/><rect x="57.4" y="429.7" width="809.4" height="14.7" fill="#e1b000"/><path d="M52.1,35.1h77.1V57.8H103.1V194H78.2V57.8H52.1Z" fill="#fff"/><path d="M165.1,194h-25V35.1h25v68.1h28.4V35.1h25.4V194H193.5V125.9H165.1Z" fill="#fff"/><path d="M262,102.1h34.3v22.7H262v46.5h43.2V194H237.1V35.1h68.1V57.8H262Z" fill="#fff"/><path d="M428.2,134.8v21.1c0,25.4-12.7,39.9-37.2,39.9s-37.3-14.5-37.3-39.9V73.2c0-25.4,12.8-39.9,37.3-39.9s37.2,14.5,37.2,39.9V88.7H404.6v-17c0-11.4-5-15.7-13-15.7s-12.9,4.3-12.9,15.7v85.8c0,11.3,5,15.4,12.9,15.4s13-4.1,13-15.4V134.8Z" fill="#fff"/><path d="M524.2,194H499l-4.3-28.8H464.1L459.7,194H436.8L462.2,35.1h36.6Zm-57-50.4h24.1L479.5,63.3H479Z" fill="#fff"/><path d="M535.8,35.1h25V171.3h41V194h-66Z" fill="#fff"/><path d="M612.7,35.1h25V171.3h41.1V194H612.7Z" fill="#fff"/><path d="M57.3,283.2c0-25.4,13.4-39.9,37.9-39.9s37.9,14.5,37.9,39.9v82.7c0,25.4-13.4,39.9-37.9,39.9s-37.9-14.5-37.9-39.9Zm25,84.3c0,11.3,4.9,15.6,12.9,15.6s12.9-4.3,12.9-15.6V281.7c0-11.4-5-15.7-12.9-15.7s-12.9,4.3-12.9,15.7Z" fill="#fff"/><path d="M174.2,315.7h32.2v22.7H174.2V404h-25V245.1h66.1v22.7H174.2Z" fill="#fff"/><path d="M334.9,344.8v21.1c0,25.4-12.7,39.9-37.2,39.9s-37.3-14.5-37.3-39.9V283.2c0-25.4,12.8-39.9,37.3-39.9s37.2,14.5,37.2,39.9v15.5H311.3v-17c0-11.4-5-15.7-12.9-15.7s-13,4.3-13,15.7v85.8c0,11.3,5,15.4,13,15.4s12.9-4.1,12.9-15.4V344.8Z" fill="#fff"/><path d="M347.5,245.1h77.2v22.7H398.6V404H373.7V267.8H347.5Z" fill="#fff"/><path d="M460.6,404h-25V245.1h25v68.1H489V245.1h25.4V404H489V335.9H460.6Z" fill="#fff"/><path d="M556.4,245.1V367.7c0,11.3,5,15.4,12.9,15.4s13-4.1,13-15.4V245.1h23.6v121c0,25.4-12.7,40-37.3,40s-37.2-14.6-37.2-40v-121Z" fill="#fff"/><path d="M622.9,245.1h25V381.3h41V404h-66Z" fill="#fff"/><path d="M724.8,404h-25V245.1h25v68.1h28.4V245.1h25.4V404H753.2V335.9H724.8Z" fill="#fff"/><path d="M820.6,245.1V367.7c0,11.3,5,15.4,12.9,15.4s13-4.1,13-15.4V245.1h23.6v121c0,25.4-12.7,40-37.2,40s-37.3-14.6-37.3-40v-121Z" fill="#fff"/><path d="M48.1,31.1h77.1V53.8H99.1V190H74.2V53.8H48.1Z" fill="#e1b000"/><path d="M161.1,190h-25V31.1h25V99.2h28.4V31.1h25.4V190H189.5V121.9H161.1Z" fill="#e1b000"/><path d="M258,98.1h34.3v22.7H258v46.5h43.2V190H233.1V31.1h68.1V53.8H258Z" fill="#e1b000"/><path d="M424.2,130.8v21.1c0,25.4-12.7,39.9-37.2,39.9s-37.3-14.5-37.3-39.9V69.2c0-25.4,12.7-39.9,37.3-39.9s37.2,14.5,37.2,39.9V84.7H400.6v-17c0-11.4-5-15.7-13-15.7s-12.9,4.3-12.9,15.7v85.8c0,11.3,5,15.4,12.9,15.4s13-4.1,13-15.4V130.8Z" fill="#e1b000"/><path d="M520.2,190H495l-4.3-28.8H460.1L455.7,190H432.8L458.2,31.1h36.6Zm-57-50.4h24.1L475.5,59.3H475Z" fill="#e1b000"/><path d="M531.8,31.1h25V167.3h41V190h-66Z" fill="#e1b000"/><path d="M608.7,31.1h25V167.3h41.1V190H608.7Z" fill="#e1b000"/><path d="M53.3,279.2c0-25.4,13.4-39.9,37.9-39.9s37.9,14.5,37.9,39.9v82.7c0,25.4-13.4,39.9-37.9,39.9s-37.9-14.5-37.9-39.9Zm25,84.3c0,11.3,4.9,15.6,12.9,15.6s12.9-4.3,12.9-15.6V277.7c0-11.4-5-15.7-12.9-15.7s-12.9,4.3-12.9,15.7Z" fill="#e1b000"/><path d="M170.2,311.7h32.2v22.7H170.2V400h-25V241.1h66.1v22.7H170.2Z" fill="#e1b000"/><path d="M330.9,340.8v21.1c0,25.4-12.7,39.9-37.2,39.9s-37.3-14.5-37.3-39.9V279.2c0-25.4,12.8-39.9,37.3-39.9s37.2,14.5,37.2,39.9v15.5H307.3v-17c0-11.4-5-15.7-12.9-15.7s-13,4.3-13,15.7v85.8c0,11.3,5,15.4,13,15.4s12.9-4.1,12.9-15.4V340.8Z" fill="#e1b000"/><path d="M342.5,241.1h77.2v22.7H393.6V400h-25V263.8H342.5Z" fill="#e1b000"/><path d="M455.6,400h-25V241.1h25v68.1H484V241.1h25.4V400H484V331.9H455.6Z" fill="#e1b000"/><path d="M551.4,241.1V363.7c0,11.3,5,15.4,12.9,15.4s13-4.1,13-15.4V241.1h23.6v121c0,25.4-12.7,40-37.3,40s-37.2-14.6-37.2-40v-121Z" fill="#e1b000"/><path d="M617.9,241.1h25V377.3h41V400h-66Z" fill="#e1b000"/><path d="M719.8,400h-25V241.1h25v68.1h28.4V241.1h25.4V400H748.2V331.9H719.8Z" fill="#e1b000"/><path d="M815.6,241.1V363.7c0,11.3,5,15.4,12.9,15.4s13-4.1,13-15.4V241.1h23.6v121c0,25.4-12.7,40-37.2,40s-37.3-14.6-37.3-40v-121Z" fill="#e1b000"/></g></svg>