<svg id="Layer_7" data-name="Layer 7" xmlns="http://www.w3.org/2000/svg" width="1186.7" height="482" viewBox="0 0 1186.7 482"><path d="M90.8,49.5,43,104.9,158.6,45,82.2,149.4A355.6,355.6,0,0,1,220.4,68.2C162,109.8,118.2,170.2,97.6,237.3L310,57.7,215.6,221.9,414.5,80.1a1002.1,1002.1,0,0,0-119.6,159L517.7,60q-62,90.6-123.8,181.4L582.2,79.1,482.6,270.9l143.1-86.5" fill="none" stroke="#2d315d" stroke-linecap="round" stroke-linejoin="round" stroke-width="79.35"/><path d="M99.9,106h35v50.4c0,25.5-12.7,40-37.3,40s-37.2-14.5-37.2-40V73.8c0-25.4,12.7-39.9,37.2-39.9s37.3,14.5,37.3,39.9V89.2H111.3v-17c0-11.3-5-15.6-13-15.6S85.4,60.9,85.4,72.2V158c0,11.4,5,15.5,12.9,15.5s13-4.1,13-15.5V128.7H99.9Z" fill="#fff"/><path d="M148.9,73.8c0-25.4,13.4-39.9,38-39.9s37.9,14.5,37.9,39.9v82.6c0,25.5-13.4,40-37.9,40s-38-14.5-38-40Zm25,84.2c0,11.4,5,15.7,13,15.7s12.9-4.3,12.9-15.7V72.2c0-11.3-5-15.6-12.9-15.6s-13,4.3-13,15.6Z" fill="#fff"/><path d="M240.9,35.7h24.9V171.9h41.1v22.7h-66Z" fill="#fff"/><path d="M317.8,35.7h39.5c25,0,37.3,13.8,37.3,39.2v80.4c0,25.4-12.3,39.3-37.3,39.3H317.8Zm25,22.7V171.9h14.1c7.9,0,12.7-4.1,12.7-15.5V73.8c0-11.3-4.8-15.4-12.7-15.4Z" fill="#fff"/><path d="M435.4,102.6h34.3v22.7H435.4v46.6h43.1v22.7H410.4V35.7h68.1V58.4H435.4Z" fill="#fff"/><path d="M516.7,79.5h-.5V194.6H493.8V35.7h31.3l25.2,95.1h.4V35.7H573V194.6H547.3Z" fill="#fff"/><path d="M95.9,102h35v50.4c0,25.5-12.7,40-37.3,40s-37.2-14.5-37.2-40V69.8c0-25.4,12.7-39.9,37.2-39.9s37.3,14.5,37.3,39.9V85.2H107.3v-17c0-11.3-5-15.6-13-15.6S81.4,56.9,81.4,68.2V154c0,11.4,5,15.5,12.9,15.5s13-4.1,13-15.5V124.7H95.9Z" fill="#e1b000"/><path d="M144.9,69.8c0-25.4,13.4-39.9,38-39.9s37.9,14.5,37.9,39.9v82.6c0,25.5-13.4,40-37.9,40s-38-14.5-38-40Zm25,84.2c0,11.4,5,15.7,13,15.7s12.9-4.3,12.9-15.7V68.2c0-11.3-5-15.6-12.9-15.6s-13,4.3-13,15.6Z" fill="#e1b000"/><path d="M236.9,31.7h24.9V167.9h41.1v22.7h-66Z" fill="#e1b000"/><path d="M313.8,31.7h39.5c25,0,37.3,13.8,37.3,39.2v80.4c0,25.4-12.3,39.3-37.3,39.3H313.8Zm25,22.7V167.9h14.1c7.9,0,12.7-4.1,12.7-15.5V69.8c0-11.3-4.8-15.4-12.7-15.4Z" fill="#e1b000"/><path d="M431.4,98.6h34.3v22.7H431.4v46.6h43.1v22.7H406.4V31.7h68.1V54.4H431.4Z" fill="#e1b000"/><path d="M512.7,75.5h-.5V190.6H489.7V31.7h31.4l25.2,95.1h.4V31.7H569V190.6H543.3Z" fill="#e1b000"/><rect x="59.5" y="223.5" width="513.5" height="14.7" fill="#fff"/><rect x="57.4" y="220.5" width="513.5" height="14.7" fill="#e1b000"/></svg>