<svg xmlns="http://www.w3.org/2000/svg" width="1186.7" height="482" viewBox="0 0 1186.7 482"><g id="Guy_Ritchie" data-name="Guy Ritchie"><path d="M141.5,40.3,48.8,157,210,54.5c-53.6,56.4-112.4,140.1-139.2,212,78-49.3,173.1-115.7,251.1-165-74.3,76.1-193.6,227-261.6,308.4,100.2-63.1,248.4-198.3,348.6-261.4-73.8,86.7-147.5,199.4-221.2,286.1,93.5-62.9,187-151.8,280.5-214.7,29.5-19.8,61.1-40.4,97-42.3A1194.6,1194.6,0,0,1,385.8,403L601.6,279.3,492.7,437" fill="none" stroke="#2d315d" stroke-linecap="round" stroke-linejoin="round" stroke-width="77.3"/><path d="M96.8,105.5h34.9v50.4c0,25.4-12.7,39.9-37.2,39.9s-37.2-14.5-37.2-39.9V73.2c0-25.4,12.7-39.9,37.2-39.9s37.2,14.5,37.2,39.9V88.7H108.1v-17c0-11.4-5-15.7-12.9-15.7S82.3,60.3,82.3,71.7v85.8c0,11.3,4.9,15.4,12.9,15.4s12.9-4.1,12.9-15.4V128.2H96.8Z" fill="#fff"/><path d="M171.7,35.1V157.7c0,11.3,5,15.4,12.9,15.4s13-4.1,13-15.4V35.1h23.6v121c0,25.4-12.7,40-37.2,40s-37.3-14.6-37.3-40V35.1Z" fill="#fff"/><path d="M261.6,141.3,230,35.1h26.1L275,107.5h.4l18.9-72.4h23.8L286.6,141.3V194h-25Z" fill="#fff"/><path d="M111.5,404c-1.3-4.1-2.2-6.6-2.2-19.5v-25c0-14.7-5-20.2-16.4-20.2H84.3V404h-25V245.1H97c25.9,0,37,12,37,36.6v12.4c0,16.4-5.2,26.8-16.3,32.1v.4c12.5,5.2,16.5,17,16.5,33.6v24.5c0,7.7.3,13.4,2.8,19.3ZM84.3,267.8v48.8h9.8c9.3,0,14.9-4.1,14.9-16.8V284.2c0-11.4-3.8-16.4-12.7-16.4Z" fill="#fff"/><path d="M150.6,245.1h24.9V404H150.6Z" fill="#fff"/><path d="M186.4,245.1h77.2v22.7H237.5V404h-25V267.8H186.4Z" fill="#fff"/><path d="M346.9,344.8v21.1c0,25.4-12.7,39.9-37.2,39.9s-37.2-14.5-37.2-39.9V283.2c0-25.4,12.7-39.9,37.2-39.9s37.2,14.5,37.2,39.9v15.5H323.3v-17c0-11.4-5-15.7-12.9-15.7s-13,4.3-13,15.7v85.8c0,11.3,5,15.4,13,15.4s12.9-4.1,12.9-15.4V344.8Z" fill="#fff"/><path d="M387.1,404h-25V245.1h25v68.1h28.4V245.1h25.4V404H415.5V335.9H387.1Z" fill="#fff"/><path d="M459.1,245.1H484V404H459.1Z" fill="#fff"/><path d="M527.2,312.1h34.2v22.7H527.2v46.5h43.1V404H502.2V245.1h68.1v22.7H527.2Z" fill="#fff"/><path d="M92.8,101.5h34.9v50.4c0,25.4-12.7,39.9-37.2,39.9s-37.2-14.5-37.2-39.9V69.2c0-25.4,12.7-39.9,37.2-39.9s37.2,14.5,37.2,39.9V84.7H104.1v-17c0-11.4-5-15.7-12.9-15.7S78.3,56.3,78.3,67.7v85.8c0,11.3,4.9,15.4,12.9,15.4s12.9-4.1,12.9-15.4V124.2H92.8Z" fill="#e1b000"/><path d="M167.7,31.1V153.7c0,11.3,5,15.4,12.9,15.4s13-4.1,13-15.4V31.1h23.6v121c0,25.4-12.7,40-37.3,40s-37.2-14.6-37.2-40V31.1Z" fill="#e1b000"/><path d="M257.6,137.3,226,31.1h26.1L271,103.5h.4l18.9-72.4h23.8L282.5,137.3V190H257.6Z" fill="#e1b000"/><path d="M107.5,400c-1.3-4.1-2.2-6.6-2.2-19.5v-25c0-14.7-5-20.2-16.4-20.2H80.3V400h-25V241.1H93c25.9,0,37,12,37,36.6v12.4c0,16.4-5.2,26.8-16.3,32v.5c12.4,5.2,16.5,17,16.5,33.6v24.5c0,7.7.3,13.4,2.8,19.3ZM80.3,263.8v48.8h9.8c9.3,0,14.9-4.1,14.9-16.8V280.2c0-11.4-3.8-16.4-12.7-16.4Z" fill="#e1b000"/><path d="M146.6,241.1h24.9V400H146.6Z" fill="#e1b000"/><path d="M182.4,241.1h77.2v22.7H233.5V400h-25V263.8H182.4Z" fill="#e1b000"/><path d="M342.9,340.8v21.1c0,25.4-12.7,39.9-37.2,39.9s-37.2-14.5-37.2-39.9V279.2c0-25.4,12.7-39.9,37.2-39.9s37.2,14.5,37.2,39.9v15.5H319.3v-17c0-11.4-5-15.7-12.9-15.7s-13,4.3-13,15.7v85.8c0,11.3,5,15.4,13,15.4s12.9-4.1,12.9-15.4V340.8Z" fill="#e1b000"/><path d="M383.1,400h-25V241.1h25v68.1h28.4V241.1h25.4V400H411.5V331.9H383.1Z" fill="#e1b000"/><path d="M455.1,241.1H480V400H455.1Z" fill="#e1b000"/><path d="M523.2,308.1h34.2v22.7H523.2v46.5h43.1V400H498.2V241.1h68.1v22.7H523.2Z" fill="#e1b000"/><rect x="59.5" y="432.7" width="510.8" height="14.7" fill="#fff"/><rect x="57.4" y="429.7" width="510.8" height="14.7" fill="#e1b000"/></g></svg>