<svg id="Layer_4" data-name="Layer 4" xmlns="http://www.w3.org/2000/svg" width="1186.7" height="482" viewBox="0 0 1186.7 482"><path d="M106.5,44.7C79,60.6,57.3,85.7,46,114.6L186.4,48.1,82.3,205.7,267.4,79,167.2,238A758.1,758.1,0,0,1,365.8,76.9,675.6,675.6,0,0,1,256.9,270.2L496.7,51.4,442.4,224l204-178.8L556,221.7A689.4,689.4,0,0,1,743.6,68.9L663.5,223.7,857.9,87q-36.4,82.4-73,164.8Q864,184,942.9,116.1q-18.4,51-37,102l7.8-14.7" fill="none" stroke="#2d315d" stroke-linecap="round" stroke-linejoin="round" stroke-width="80.41"/><path d="M62.5,35.7H87.4V194.6H62.5Z" fill="#fff"/><path d="M130.6,106.3h32.2V129H130.6v65.6h-25V35.7h66V58.4h-41Z" fill="#fff"/><path d="M241.6,79.5h-.5V194.6H218.6V35.7H250l25.2,95.1h.4V35.7h22.3V194.6H272.2Z" fill="#fff"/><path d="M313.7,73.8c0-25.4,13.4-39.9,37.9-39.9s38,14.5,38,39.9v82.6c0,25.5-13.4,40-38,40s-37.9-14.5-37.9-40Zm25,84.2c0,11.4,5,15.7,12.9,15.7s13-4.3,13-15.7V72.2c0-11.3-5-15.6-13-15.6s-12.9,4.3-12.9,15.6Z" fill="#fff"/><path d="M461.3,109.9h-.5L452,194.6H417.7L400,35.7h24.3L437.5,161h.4L449.7,35.7h24.1L486,161.9h.5L499.2,35.7H521L503.3,194.6H470.1Z" fill="#fff"/><path d="M561.4,35.7h77.2V58.4H612.5V194.6h-25V58.4H561.4Z" fill="#fff"/><path d="M674.4,194.6H649.5V35.7h24.9v68.1h28.4V35.7h25.4V194.6H702.8V126.5H674.4Z" fill="#fff"/><path d="M771.4,102.6h34.2v22.7H771.4v46.6h43.1v22.7H746.4V35.7h68.1V58.4H771.4Z" fill="#fff"/><path d="M852.6,79.5h-.4V194.6H829.7V35.7H861l25.2,95.1h.5V35.7h22.2V194.6H883.3Z" fill="#fff"/><path d="M58.5,31.7H83.4V190.6H58.5Z" fill="#e1b000"/><path d="M126.6,102.3h32.2V125H126.6v65.6h-25V31.7h66V54.4h-41Z" fill="#e1b000"/><path d="M237.6,75.5h-.5V190.6H214.6V31.7H246l25.2,95.1h.4V31.7h22.3V190.6H268.2Z" fill="#e1b000"/><path d="M309.7,69.8c0-25.4,13.4-39.9,37.9-39.9s38,14.5,38,39.9v82.6c0,25.5-13.4,40-38,40s-37.9-14.5-37.9-40Zm25,84.2c0,11.4,5,15.7,12.9,15.7s13-4.3,13-15.7V68.2c0-11.3-5-15.6-13-15.6s-12.9,4.3-12.9,15.6Z" fill="#e1b000"/><path d="M457.3,105.9h-.5L448,190.6H413.7L396,31.7h24.3L433.5,157h.4L445.7,31.7h24.1L482,157.9h.5L495.2,31.7H517L499.3,190.6H466.1Z" fill="#e1b000"/><path d="M557.4,31.7h77.2V54.4H608.5V190.6h-25V54.4H557.4Z" fill="#e1b000"/><path d="M670.4,190.6H645.5V31.7h24.9V99.8h28.4V31.7h25.4V190.6H698.8V122.5H670.4Z" fill="#e1b000"/><path d="M767.4,98.6h34.2v22.7H767.4v46.6h43.1v22.7H742.4V31.7h68.1V54.4H767.4Z" fill="#e1b000"/><path d="M848.6,75.5h-.4V190.6H825.7V31.7H857l25.2,95.1h.5V31.7h22.2V190.6H879.3Z" fill="#e1b000"/><rect x="60.9" y="223.5" width="848" height="14.7" fill="#fff"/><rect x="57.4" y="220.5" width="848" height="14.7" fill="#e1b000"/></svg>