<?xml version="1.0" encoding="utf-8"?>
<!-- Generator: Adobe Illustrator 25.0.1, SVG Export Plug-In . SVG Version: 6.00 Build 0)  -->
<svg version="1.1" id="Layer_1" xmlns="http://www.w3.org/2000/svg" xmlns:xlink="http://www.w3.org/1999/xlink" x="0px" y="0px"
	 viewBox="0 0 1186.7 482" style="enable-background:new 0 0 1186.7 482;" xml:space="preserve">
<style type="text/css">
	.st0{fill:none;stroke:#2D315D;stroke-width:78.18;stroke-linecap:round;stroke-linejoin:round;}
	.st1{fill:#FFFFFF;}
	.st2{fill:#E1B000;}
</style>
<g id="Marvelverse">
	<path class="st0" d="M85.4,45.3C68,100,63.6,128.7,46.2,183.4c41.5-44.4,76-88.8,117.4-133.2c-5.4,73-16.7,133-22.1,206
		c37.3-77,89.3-146.4,152-202.7l1.9,171.1c21.4-70.1,63.2-133.3,118.3-179.2l5,184.5c21.2-78.2,73.7-146.7,142.1-185.5
		c22.9,58.8,26.4,123.3,10.2,184.2c6.6-70.1,50.3-99,111-129.4c5.4-2.7,11-5.2,17-5.6c20.6-1.3,35.2,24.1,32.2,45.5
		s-17.6,38.7-31.5,54.7c21.4-64,68.5-118.1,127.5-146.2l6.1,122.6c26.5-50.5,68.2-92,117.7-117.1c10.1,44.9,7.8,91.7-6.5,135.4
		c-5.4-38.1,15-78.6,48-95.6l19.2,78.4"/>
	<path class="st1" d="M114.3,147.9h0.5l16.8-112.8h34.7V194h-23.6V80.1h-0.4L125.5,194h-23.6L83.7,81.6h-0.5V194H61.5V35.1h34.7
		L114.3,147.9z"/>
	<path class="st1" d="M265.3,194h-25.2l-4.3-28.8h-30.7l-4.3,28.8h-22.9l25.4-158.9h36.6L265.3,194z M208.3,143.6h24.1l-11.8-80.3
		h-0.5L208.3,143.6z"/>
	<path class="st1" d="M329.1,194c-1.4-4.1-2.3-6.6-2.3-19.5v-25c0-14.7-5-20.2-16.3-20.2h-8.7V194h-24.9V35.1h37.7
		c25.8,0,37,12,37,36.6v12.4c0,16.4-5.3,26.8-16.4,32.1v0.4c12.5,5.2,16.6,17,16.6,33.6v24.5c0,7.7,0.2,13.4,2.7,19.3H329.1z
		 M301.8,57.8v48.8h9.8c9.3,0,15-4.1,15-16.8V74.2c0-11.4-3.9-16.4-12.7-16.4L301.8,57.8z"/>
	<path class="st1" d="M405.1,164.7h0.5l18.8-129.6h22.9L422.8,194h-37.2L361.1,35.1h25.2L405.1,164.7z"/>
	<path class="st1" d="M483.9,102.1h34.3v22.7h-34.3v46.5H527V194h-68.1V35.1H527v22.7h-43.1V102.1z"/>
	<path class="st1" d="M542.5,35.1h24.9v136.2h41.1V194h-66V35.1z"/>
	<path class="st1" d="M649.4,164.7h0.4l18.9-129.6h22.9L667.1,194h-37.2L605.3,35.1h25.2L649.4,164.7z"/>
	<path class="st1" d="M728.1,102.1h34.3v22.7h-34.3v46.5h43.2V194h-68.1V35.1h68.1v22.7h-43.2V102.1z"/>
	<path class="st1" d="M838.9,194c-1.3-4.1-2.3-6.6-2.3-19.5v-25c0-14.7-4.9-20.2-16.3-20.2h-8.6V194h-25V35.1h37.7
		c25.9,0,37,12,37,36.6v12.4c0,16.4-5.2,26.8-16.4,32.1v0.4c12.5,5.2,16.6,17,16.6,33.6v24.5c0,7.7,0.2,13.4,2.7,19.3H838.9z
		 M811.7,57.8v48.8h9.7c9.3,0,15-4.1,15-16.8V74.2c0-11.4-3.8-16.4-12.7-16.4L811.7,57.8z"/>
	<path class="st1" d="M911.6,33.3c24.2,0,36.7,14.5,36.7,39.9v5h-23.6v-6.5c0-11.4-4.5-15.7-12.5-15.7s-12.4,4.3-12.4,15.7
		s4.9,20.2,21.3,34.5c20.9,18.4,27.5,31.5,27.5,49.7c0,25.4-12.8,39.9-37.3,39.9s-37.2-14.5-37.2-39.9v-9.8h23.6v11.4
		c0,11.3,5,15.4,12.9,15.4s13-4.1,13-15.4s-5-20.2-21.4-34.5c-20.8-18.4-27.4-31.6-27.4-49.8C874.8,47.8,887.3,33.3,911.6,33.3z"/>
	<path class="st1" d="M987.8,102.1h34.3v22.7h-34.3v46.5h43.2V194h-68.1V35.1h68.1v22.7h-43.2V102.1z"/>
	<path class="st2" d="M110.3,143.9h0.5l16.8-112.8h34.7V190h-23.6V76.1h-0.4L121.5,190H97.9L79.7,77.6h-0.5V190H57.4V31.1h34.8
		L110.3,143.9z"/>
	<path class="st2" d="M261.3,190h-25.2l-4.3-28.8h-30.7l-4.3,28.8h-22.9l25.4-158.9h36.6L261.3,190z M204.3,139.6h24.1l-11.8-80.3
		h-0.5L204.3,139.6z"/>
	<path class="st2" d="M325.1,190c-1.4-4.1-2.3-6.6-2.3-19.5v-25c0-14.7-5-20.2-16.3-20.2h-8.7V190h-24.9V31.1h37.6
		c25.9,0,37.1,12,37.1,36.6v12.4c0,16.4-5.3,26.8-16.4,32v0.5c12.5,5.2,16.6,17,16.6,33.6v24.5c0,7.7,0.2,13.4,2.7,19.3H325.1z
		 M297.8,53.8v48.8h9.8c9.3,0,15-4.1,15-16.8V70.2c0-11.4-3.9-16.4-12.7-16.4L297.8,53.8z"/>
	<path class="st2" d="M401.1,160.7h0.5l18.8-129.6h22.9L418.8,190h-37.2L357.1,31.1h25.2L401.1,160.7z"/>
	<path class="st2" d="M479.9,98.1h34.3v22.7h-34.3v46.5H523V190h-68.1V31.1H523v22.7h-43.1V98.1z"/>
	<path class="st2" d="M538.5,31.1h24.9v136.2h41.1V190h-66V31.1z"/>
	<path class="st2" d="M645.4,160.7h0.4l18.9-129.6h22.9L663.1,190h-37.3L601.3,31.1h25.2L645.4,160.7z"/>
	<path class="st2" d="M724.1,98.1h34.3v22.7h-34.3v46.5h43.2V190h-68.1V31.1h68.1v22.7h-43.2V98.1z"/>
	<path class="st2" d="M834.9,190c-1.3-4.1-2.3-6.6-2.3-19.5v-25c0-14.7-5-20.2-16.3-20.2h-8.6V190h-25V31.1h37.7
		c25.9,0,37,12,37,36.6v12.4c0,16.4-5.2,26.8-16.4,32v0.5c12.5,5.2,16.6,17,16.6,33.6v24.5c0,7.7,0.2,13.4,2.7,19.3H834.9z
		 M807.7,53.8v48.8h9.7c9.3,0,15-4.1,15-16.8V70.2c0-11.4-3.8-16.4-12.7-16.4L807.7,53.8z"/>
	<path class="st2" d="M907.6,29.3c24.2,0,36.7,14.5,36.7,39.9v5h-23.6v-6.5c0-11.4-4.5-15.7-12.5-15.7s-12.5,4.3-12.5,15.7
		s5,20.2,21.4,34.5c20.9,18.3,27.5,31.5,27.5,49.7c0,25.4-12.8,39.9-37.3,39.9s-37.2-14.5-37.2-39.9v-9.8h23.6v11.4
		c0,11.3,5,15.4,12.9,15.4s13-4.1,13-15.4s-5-20.2-21.4-34.5c-20.8-18.4-27.4-31.6-27.4-49.8C870.8,43.8,883.3,29.3,907.6,29.3z"/>
	<path class="st2" d="M983.8,98.1h34.3v22.7h-34.3v46.5h43.2V190h-68.1V31.1h68.1v22.7h-43.2V98.1z"/>
	<rect x="61.4" y="223.5" class="st1" width="969.6" height="14.7"/>
	<rect x="57.4" y="220.5" class="st2" width="969.6" height="14.7"/>
</g>
</svg>
