<svg xmlns="http://www.w3.org/2000/svg" width="1186.7" height="482" viewBox="0 0 1186.7 482"><g id="Scouts"><path d="M83.6,44.7C61.9,79.6,67.2,94.1,45.4,128.9,112.1,95.7,141,77.1,200.1,51.6c-33.2,54.1-70.2,104.3-118.7,151C158.3,160.8,263.7,104.1,322.8,52c-61,88.9-169.2,201.2-244,278.9C223.5,224.7,361.4,145.9,514.5,52c-98.6,132.2-292.2,273.6-424,372.7,148.8-56.4,365.4-188.3,497-277.8C450.2,242.4,384.2,320.2,267.7,439.6,391.6,370.8,454,335.1,571.1,266.3a409.2,409.2,0,0,1-79.8,150.8l118.3-45.8" fill="none" stroke="#2d315d" stroke-linecap="round" stroke-linejoin="round" stroke-width="84"/><path d="M92.9,33.3c24.3,0,36.8,14.5,36.8,39.9v5H106.1V71.7c0-11.4-4.6-15.7-12.5-15.7S81.1,60.3,81.1,71.7s5,20.2,21.4,34.5c20.8,18.4,27.4,31.5,27.4,49.7,0,25.4-12.7,39.9-37.2,39.9s-37.2-14.5-37.2-39.9v-9.8H79.1v11.4c0,11.3,5,15.4,12.9,15.4s13-4.1,13-15.4-5-20.2-21.4-34.5C62.7,104.6,56.1,91.4,56.1,73.2,56.1,47.8,68.6,33.3,92.9,33.3Z" fill="#fff"/><path d="M216.6,134.8v21.1c0,25.4-12.7,39.9-37.2,39.9s-37.2-14.5-37.2-39.9V73.2c0-25.4,12.7-39.9,37.2-39.9s37.2,14.5,37.2,39.9V88.7H193v-17c0-11.4-5-15.7-12.9-15.7s-12.9,4.3-12.9,15.7v85.8c0,11.3,4.9,15.4,12.9,15.4s12.9-4.1,12.9-15.4V134.8Z" fill="#fff"/><path d="M229.8,73.2c0-25.4,13.4-39.9,37.9-39.9s37.9,14.5,37.9,39.9v82.7c0,25.4-13.4,39.9-37.9,39.9s-37.9-14.5-37.9-39.9Zm25,84.3c0,11.3,5,15.6,12.9,15.6s12.9-4.3,12.9-15.6V71.7c0-11.4-4.9-15.7-12.9-15.7s-12.9,4.3-12.9,15.7Z" fill="#fff"/><path d="M345.6,35.1V157.7c0,11.3,5,15.4,12.9,15.4s12.9-4.1,12.9-15.4V35.1h23.7v121c0,25.4-12.8,40-37.3,40s-37.2-14.6-37.2-40V35.1Z" fill="#fff"/><path d="M404.8,35.1H482V57.8H455.9V194h-25V57.8H404.8Z" fill="#fff"/><path d="M526.5,33.3c24.3,0,36.8,14.5,36.8,39.9v5H539.6V71.7c0-11.4-4.5-15.7-12.4-15.7s-12.5,4.3-12.5,15.7,5,20.2,21.3,34.5c20.9,18.4,27.5,31.5,27.5,49.7,0,25.4-12.7,39.9-37.2,39.9S489,181.3,489,155.9v-9.8h23.6v11.4c0,11.3,5,15.4,13,15.4s12.9-4.1,12.9-15.4-5-20.2-21.3-34.5c-20.9-18.4-27.5-31.6-27.5-49.8C489.7,47.8,502.2,33.3,526.5,33.3Z" fill="#fff"/><path d="M131.7,344.8v21.1c0,25.4-12.7,39.9-37.2,39.9s-37.2-14.5-37.2-39.9V283.2c0-25.4,12.7-39.9,37.2-39.9s37.2,14.5,37.2,39.9v15.5H108.1v-17c0-11.4-5-15.7-12.9-15.7s-12.9,4.3-12.9,15.7v85.8c0,11.3,4.9,15.4,12.9,15.4s12.9-4.1,12.9-15.4V344.8Z" fill="#fff"/><path d="M227.8,404H202.6l-4.4-28.8H167.6L163.3,404H140.4l25.4-158.9h36.5Zm-57-50.4h24L183,273.3h-.4Z" fill="#fff"/><path d="M262,288.9h-.4V404H239.1V245.1h31.3l25.2,95.1h.5V245.1h22.2V404H292.7Z" fill="#fff"/><path d="M417.1,404H391.9l-4.3-28.8H356.9L352.6,404H329.7l25.4-158.9h36.5Zm-57-50.4h24.1l-11.8-80.3h-.5Z" fill="#fff"/><path d="M428.6,245.1h39.5c25,0,37.3,13.9,37.3,39.3v80.3c0,25.5-12.3,39.3-37.3,39.3H428.6Zm25,22.7V381.3h14.1c7.9,0,12.7-4.1,12.7-15.4V283.2c0-11.3-4.8-15.4-12.7-15.4Z" fill="#fff"/><path d="M601.9,404H576.7l-4.4-28.8H541.7L537.4,404H514.5l25.4-158.9h36.5Zm-57-50.4h24l-11.8-80.3h-.4Z" fill="#fff"/><rect x="59.6" y="432.2" width="549.9" height="14.7" fill="#fff"/><rect x="57.4" y="429.2" width="549.9" height="14.7" fill="#e1b000"/><path d="M88.9,29.3c24.3,0,36.8,14.5,36.8,39.9v5H102.1V67.7c0-11.4-4.6-15.7-12.5-15.7S77.1,56.3,77.1,67.7s5,20.2,21.4,34.5c20.8,18.3,27.4,31.5,27.4,49.7,0,25.4-12.7,39.9-37.2,39.9s-37.2-14.5-37.2-39.9v-9.8H75.1v11.4c0,11.3,5,15.4,12.9,15.4s13-4.1,13-15.4S96,133.3,79.6,119C58.7,100.6,52.1,87.4,52.1,69.2,52.1,43.8,64.6,29.3,88.9,29.3Z" fill="#e1b000"/><path d="M212.6,130.8v21.1c0,25.4-12.7,39.9-37.2,39.9s-37.2-14.5-37.2-39.9V69.2c0-25.4,12.7-39.9,37.2-39.9s37.2,14.5,37.2,39.9V84.7H189v-17c0-11.4-5-15.7-12.9-15.7s-13,4.3-13,15.7v85.8c0,11.3,5,15.4,13,15.4s12.9-4.1,12.9-15.4V130.8Z" fill="#e1b000"/><path d="M225.8,69.2c0-25.4,13.4-39.9,37.9-39.9s37.9,14.5,37.9,39.9v82.7c0,25.4-13.4,39.9-37.9,39.9s-37.9-14.5-37.9-39.9Zm25,84.3c0,11.3,5,15.6,12.9,15.6s12.9-4.3,12.9-15.6V67.7c0-11.4-4.9-15.7-12.9-15.7s-12.9,4.3-12.9,15.7Z" fill="#e1b000"/><path d="M341.6,31.1V153.7c0,11.3,5,15.4,12.9,15.4s12.9-4.1,12.9-15.4V31.1h23.7v121c0,25.4-12.8,40-37.3,40s-37.2-14.6-37.2-40V31.1Z" fill="#e1b000"/><path d="M400.8,31.1H478V53.8H451.9V190h-25V53.8H400.8Z" fill="#e1b000"/><path d="M522.5,29.3c24.3,0,36.8,14.5,36.8,39.9v5H535.6V67.7c0-11.4-4.5-15.7-12.4-15.7s-12.5,4.3-12.5,15.7,5,20.2,21.3,34.5c20.9,18.3,27.5,31.5,27.5,49.7,0,25.4-12.7,39.9-37.2,39.9S485,177.3,485,151.9v-9.8h23.6v11.4c0,11.3,5,15.4,13,15.4s12.9-4.1,12.9-15.4-5-20.2-21.3-34.5c-20.9-18.4-27.5-31.6-27.5-49.8C485.7,43.8,498.2,29.3,522.5,29.3Z" fill="#e1b000"/><path d="M127.7,340.8v21.1c0,25.4-12.7,39.9-37.2,39.9s-37.2-14.5-37.2-39.9V279.2c0-25.4,12.7-39.9,37.2-39.9s37.2,14.5,37.2,39.9v15.5H104.1v-17c0-11.4-5-15.7-12.9-15.7s-12.9,4.3-12.9,15.7v85.8c0,11.3,4.9,15.4,12.9,15.4s12.9-4.1,12.9-15.4V340.8Z" fill="#e1b000"/><path d="M223.8,400H198.6l-4.4-28.8H163.6L159.3,400H136.4l25.4-158.9h36.5Zm-57-50.4h24L179,269.3h-.4Z" fill="#e1b000"/><path d="M258,284.9h-.4V400H235.1V241.1h31.3l25.2,95.1h.5V241.1h22.2V400H288.7Z" fill="#e1b000"/><path d="M413.1,400H387.9l-4.3-28.8H352.9L348.6,400H325.7l25.4-158.9h36.5Zm-57-50.4h24.1l-11.8-80.3h-.5Z" fill="#e1b000"/><path d="M424.6,241.1h39.5c25,0,37.3,13.9,37.3,39.3v80.3c0,25.5-12.3,39.3-37.3,39.3H424.6Zm25,22.7V377.3h14.1c7.9,0,12.7-4.1,12.7-15.4V279.2c0-11.3-4.8-15.4-12.7-15.4Z" fill="#e1b000"/><path d="M597.8,400H572.6l-4.3-28.8H537.7L533.4,400H510.5l25.4-158.9h36.5Zm-56.9-50.4h24l-11.8-80.3h-.4Z" fill="#e1b000"/></g></svg>