<?xml version="1.0" encoding="utf-8"?>
<!-- Generator: Adobe Illustrator 25.1.0, SVG Export Plug-In . SVG Version: 6.00 Build 0)  -->
<svg version="1.1" id="Layer_2_1_" xmlns="http://www.w3.org/2000/svg" xmlns:xlink="http://www.w3.org/1999/xlink" x="0px" y="0px"
	 viewBox="0 0 1186.7 482" style="enable-background:new 0 0 1186.7 482;" xml:space="preserve">
<style type="text/css">
	.st0{fill:none;stroke:#E1B000;stroke-width:61.44;stroke-linecap:round;stroke-linejoin:round;}
	.st1{fill:#FFFFFF;}
	.st2{fill:#2D315D;}
</style>
<path class="st0" d="M95.7,46.1l-48.3,95.1l129-86.8c-21.9,66.3-43.7,132.7-65.6,199.1C164.5,180,218.3,106.2,277.4,46.1
	c-26.8,62.3-48.8,130.8-65,203.1L363,67l-37.2,128.7l37.1-40.9"/>
<rect x="58.5" y="223.5" class="st1" width="270.3" height="14.7"/>
<rect x="57.4" y="220.5" class="st2" width="270.3" height="14.7"/>
<path class="st1" d="M64.6,143L110,35.7h27.2V143H149v22.7h-11.8v28.9h-25v-28.9H64.6V143z M112.2,143V84.3h-0.4L87.5,143H112.2z"/>
<path class="st1" d="M158.3,73.8c0-25.4,13.4-39.9,37.9-39.9s37.9,14.5,37.9,39.9v82.6c0,25.5-13.4,40-37.9,40s-37.9-14.5-37.9-40
	L158.3,73.8z M183.3,158c0,11.4,5,15.7,12.9,15.7s13-4.3,13-15.7V72.2c0-11.3-5-15.6-13-15.6s-12.9,4.3-12.9,15.6V158z"/>
<path class="st1" d="M244.3,143l45.4-107.3H317V143h11.8v22.7H317v28.9h-25v-28.9h-47.7V143z M292,143V84.3h-0.4L267.3,143H292z"/>
<path class="st2" d="M60.6,139L106,31.7h27.2V139H145v22.7h-11.8v28.9h-25v-28.9H60.6V139z M108.2,139V80.2h-0.4L83.5,139H108.2z"/>
<path class="st2" d="M154.3,69.8c0-25.4,13.4-39.9,37.9-39.9s37.9,14.5,37.9,39.9v82.6c0,25.5-13.4,40-37.9,40s-37.9-14.5-37.9-40
	L154.3,69.8z M179.3,154c0,11.4,5,15.7,12.9,15.7s13-4.3,13-15.7V68.2c0-11.3-5-15.6-13-15.6s-12.9,4.3-12.9,15.6V154z"/>
<path class="st2" d="M240.3,139l45.4-107.3H313V139h11.8v22.7H313v28.9h-25v-28.9h-47.7V139z M288,139V80.2h-0.4L263.3,139H288z"/>
<g>
	<path class="st2" d="M409.3,109.1V92.5c0-5,2.7-7.9,7.5-7.9c4.9,0,7.5,2.9,7.5,7.9v16.6c0,5-2.7,7.9-7.5,7.9
		C411.9,117,409.3,114.1,409.3,109.1z M419.4,109.4V92.2c0-2.2-1-3.1-2.6-3.1c-1.6,0-2.6,0.9-2.6,3.1v17.2c0,2.2,1,3.1,2.6,3.1
		C418.4,112.5,419.4,111.6,419.4,109.4z"/>
	<path class="st2" d="M427.3,109.1V92.5c0-5,2.7-7.9,7.5-7.9c4.9,0,7.5,2.9,7.5,7.9v16.6c0,5-2.7,7.9-7.5,7.9
		C429.9,117,427.3,114.1,427.3,109.1z M437.4,109.4V92.2c0-2.2-1-3.1-2.6-3.1c-1.6,0-2.6,0.9-2.6,3.1v17.2c0,2.2,1,3.1,2.6,3.1
		C436.4,112.5,437.4,111.6,437.4,109.4z"/>
	<path class="st2" d="M445.6,85.1h7.3c4.9,0,7.4,2.7,7.4,7.8v3.1c0,5-2.4,7.8-7.4,7.8h-2.3v12.8h-5V85.1z M452.9,99.2
		c1.6,0,2.4-0.7,2.4-3v-3.7c0-2.2-0.9-3-2.4-3h-2.3v9.7H452.9z"/>
	<path class="st2" d="M462.3,109.1v-1.8h4.7v2.2c0,2.2,1,3.1,2.6,3.1c1.6,0,2.6-0.8,2.6-3.1c0-2.6-1.1-4.2-4.3-7.1
		c-4.1-3.6-5.5-6.3-5.5-9.9c0-4.9,2.6-7.8,7.4-7.8c4.8,0,7.2,2.9,7.2,7.9v1.3h-4.7v-1.6c0-2.2-0.9-3.1-2.5-3.1c-1.6,0-2.5,0.9-2.5,3
		c0,2.3,1.1,3.9,4.4,6.8c4.1,3.6,5.5,6.2,5.5,10.1c0,5.1-2.6,8-7.5,8C464.7,117,462.3,114.1,462.3,109.1z"/>
	<path class="st2" d="M480,111.6h4.9v5H480V111.6z"/>
	<path class="st2" d="M489,111.6h4.9v5H489V111.6z"/>
	<path class="st2" d="M498,111.6h4.9v5H498V111.6z"/>
	<path class="st2" d="M520.1,97.7v13.1c0,1.4,0.5,2,1.8,2c0.5,0,1-0.1,1.6-0.3v4c-0.8,0.3-1.6,0.5-2.6,0.5c-3.8,0-5.6-1.8-5.6-5.6
		V97.7h-2.6v-4h2.8l0.5-6.2h4.1v6.2h3.5v4H520.1z"/>
	<path class="st2" d="M540.2,99.9v16.7h-4.8v-16.2c0-2-0.5-3-2-3c-1.4,0-2.4,0.9-2.4,3.7v15.5h-4.8V85.1h4.8v10.2
		c0.9-1.4,2.3-2.1,4.1-2.1C538.3,93.2,540.2,95.1,540.2,99.9z"/>
	<path class="st2" d="M557.4,100.6v5.5h-9.4v3.9c0,2,0.8,2.8,2.4,2.8c1.5,0,2.4-0.8,2.4-2.8v-0.9h4.6v0.4c0,4.8-2.5,7.5-7.1,7.5
		s-7.1-2.7-7.1-7.5v-8.9c0-4.8,2.5-7.5,7.1-7.5S557.4,95.9,557.4,100.6z M552.7,102.3v-2.2c0-2-0.9-2.8-2.3-2.8
		c-1.5,0-2.3,0.8-2.3,2.8v2.2H552.7z"/>
	<path class="st2" d="M581.8,99.9v10.4c0,4.7-2,6.7-5.2,6.7c-1.7,0-3.1-0.8-4.1-2.1v8.6h-4.8V93.6h4.1l0.1,2.7
		c0.8-2,2.5-3.1,4.6-3.1C579.8,93.2,581.8,95.1,581.8,99.9z M577,100.2c0-1.6-0.4-2.8-2-2.8c-1.4,0-2.5,1-2.5,3.7v8
		c0,2.7,1.1,3.7,2.5,3.7c1.6,0,2-1.2,2-2.8V100.2z"/>
	<path class="st2" d="M594.5,116.5c-0.1-0.3-0.3-1.3-0.4-2.7c-0.9,2-2.6,3.2-4.9,3.2c-3.1,0-5-2.2-5-5.8c0-3.6,1.5-5.7,5.5-7.6
		c3.3-1.6,3.7-2,3.7-3.3v-0.5c0-1.8-0.6-2.6-1.9-2.6c-1.5,0-2.2,0.9-2.2,2.7v0.9h-4.5v-0.6c0-4.5,2.3-7,6.7-7c4.8,0,6.7,2.5,6.7,7.6
		v9.2c0,3.2,0.2,5.3,0.5,6.6H594.5z M593.5,109.1v-3.9c-0.4,0.5-1.1,0.9-2.3,1.7c-1.4,0.9-2.2,2.1-2.2,3.6c0,1.6,0.7,2.5,2,2.5
		C592.7,112.9,593.5,111.6,593.5,109.1z"/>
	<path class="st2" d="M615.6,93.6v23.3c0,4.4-1.7,7.1-7.1,7.1c-4.5,0-6.8-2.2-6.8-6.2v-0.1h4.6v0.4c0,1.2,0.7,2,2.2,2
		c1.6,0,2.4-0.8,2.4-2.8v-3.5c-0.9,1.4-2.3,2.1-4,2.1c-3.2,0-5.2-2-5.2-6.7v-9.3c0-4.7,2-6.7,5.2-6.7c2.1,0,3.8,1.2,4.6,3.1l0.1-2.7
		H615.6z M610.8,108v-6.9c0-2.7-1.1-3.7-2.5-3.7c-1.6,0-2,1.2-2,2.8v8.7c0,1.6,0.5,2.8,2,2.8C609.7,111.6,610.8,110.7,610.8,108z"/>
	<path class="st2" d="M632.9,100.6v5.5h-9.4v3.9c0,2,0.8,2.8,2.4,2.8c1.5,0,2.4-0.8,2.4-2.8v-0.9h4.6v0.4c0,4.8-2.5,7.5-7.1,7.5
		s-7.1-2.7-7.1-7.5v-8.9c0-4.8,2.5-7.5,7.1-7.5S632.9,95.9,632.9,100.6z M628.3,102.3v-2.2c0-2-0.9-2.8-2.3-2.8
		c-1.5,0-2.3,0.8-2.3,2.8v2.2H628.3z"/>
	<path class="st2" d="M643.1,123.5v-4c0.5,0.2,1.1,0.3,1.8,0.3c1.6,0,2.2-0.5,2.5-1.9l0.1-0.3l-5.5-23.9h4.9l3.1,15.8l2.7-15.8h4.5
		l-5.1,24.9c-0.8,3.9-2.6,5.4-6.3,5.4C644.8,124,643.9,123.9,643.1,123.5z"/>
	<path class="st2" d="M658.9,109.5v-8.9c0-4.8,2.5-7.5,7-7.5c4.5,0,7,2.7,7,7.5v8.9c0,4.8-2.5,7.5-7,7.5
		C661.4,117,658.9,114.3,658.9,109.5z M668.1,110v-9.8c0-1.6-0.5-2.8-2.2-2.8s-2.2,1.2-2.2,2.8v9.8c0,1.6,0.5,2.8,2.2,2.8
		S668.1,111.6,668.1,110z"/>
	<path class="st2" d="M689.9,93.6v22.9h-4.1l-0.1-2.7c-0.8,2-2.5,3.1-4.6,3.1c-3.2,0-5.1-2-5.1-6.7V93.6h4.8v16.2c0,2,0.5,3,2,3
		c1.3,0,2.4-0.9,2.4-3.7V93.6H689.9z"/>
	<path class="st2" d="M714.8,99.9v16.7H710v-16.2c0-2-0.5-3-2-3c-1.4,0-2.4,0.9-2.4,3.7v15.5h-4.8V85.1h4.8v10.2
		c0.9-1.4,2.3-2.1,4.1-2.1C712.8,93.2,714.8,95.1,714.8,99.9z"/>
	<path class="st2" d="M727.6,116.5c-0.1-0.3-0.3-1.3-0.4-2.7c-0.9,2-2.6,3.2-4.9,3.2c-3.1,0-5-2.2-5-5.8c0-3.6,1.5-5.7,5.5-7.6
		c3.3-1.6,3.7-2,3.7-3.3v-0.5c0-1.8-0.6-2.6-1.9-2.6c-1.5,0-2.2,0.9-2.2,2.7v0.9h-4.5v-0.6c0-4.5,2.3-7,6.7-7c4.8,0,6.7,2.5,6.7,7.6
		v9.2c0,3.2,0.2,5.3,0.5,6.6H727.6z M726.7,109.1v-3.9c-0.4,0.5-1.1,0.9-2.3,1.7c-1.4,0.9-2.2,2.1-2.2,3.6c0,1.6,0.7,2.5,2,2.5
		C725.8,112.9,726.7,111.6,726.7,109.1z"/>
	<path class="st2" d="M733.6,93.6h4.9l2.9,16.5l2.9-16.5h4.5l-4.6,22.9h-5.8L733.6,93.6z"/>
	<path class="st2" d="M764.7,100.6v5.5h-9.4v3.9c0,2,0.8,2.8,2.4,2.8c1.5,0,2.4-0.8,2.4-2.8v-0.9h4.6v0.4c0,4.8-2.5,7.5-7.1,7.5
		s-7.1-2.7-7.1-7.5v-8.9c0-4.8,2.5-7.5,7.1-7.5S764.7,95.9,764.7,100.6z M760,102.3v-2.2c0-2-0.9-2.8-2.3-2.8
		c-1.5,0-2.3,0.8-2.3,2.8v2.2H760z"/>
	<path class="st2" d="M785.1,93.4v4.6c-0.4-0.1-0.8-0.1-1.2-0.1c-2.7,0-4.1,1.8-4.1,5.4v13.2H775V93.6h4.1l0.1,3.9
		c0.6-2.9,2.1-4.3,4.5-4.3C784.3,93.2,784.7,93.2,785.1,93.4z"/>
	<path class="st2" d="M800.9,100.6v5.5h-9.4v3.9c0,2,0.8,2.8,2.4,2.8c1.5,0,2.4-0.8,2.4-2.8v-0.9h4.6v0.4c0,4.8-2.5,7.5-7.1,7.5
		s-7.1-2.7-7.1-7.5v-8.9c0-4.8,2.5-7.5,7.1-7.5S800.9,95.9,800.9,100.6z M796.2,102.3v-2.2c0-2-0.9-2.8-2.3-2.8
		c-1.5,0-2.3,0.8-2.3,2.8v2.2H796.2z"/>
	<path class="st2" d="M813.3,116.5c-0.1-0.3-0.3-1.3-0.4-2.7c-0.9,2-2.6,3.2-4.9,3.2c-3.1,0-5-2.2-5-5.8c0-3.6,1.5-5.7,5.5-7.6
		c3.3-1.6,3.7-2,3.7-3.3v-0.5c0-1.8-0.6-2.6-1.9-2.6c-1.5,0-2.2,0.9-2.2,2.7v0.9h-4.5v-0.6c0-4.5,2.3-7,6.7-7c4.8,0,6.7,2.5,6.7,7.6
		v9.2c0,3.2,0.2,5.3,0.5,6.6H813.3z M812.3,109.1v-3.9c-0.4,0.5-1.1,0.9-2.3,1.7c-1.4,0.9-2.2,2.1-2.2,3.6c0,1.6,0.7,2.5,2,2.5
		C811.5,112.9,812.3,111.6,812.3,109.1z"/>
	<path class="st2" d="M820.3,109.6v-9.1c0-4.7,2.4-7.4,7-7.4c4.6,0,6.8,2.9,6.8,7.4v1.4h-4.6v-1.8c0-1.7-0.6-2.7-2.2-2.7
		c-1.6,0-2.2,1-2.2,2.7v10c0,1.7,0.6,2.7,2.2,2.7c1.6,0,2.2-1,2.2-2.7v-2.3h4.6v1.8c0,4.5-2.2,7.4-6.8,7.4
		C822.7,117,820.3,114.3,820.3,109.6z"/>
	<path class="st2" d="M851,99.9v16.7h-4.8v-16.2c0-2-0.5-3-2-3c-1.4,0-2.4,0.9-2.4,3.7v15.5H837V85.1h4.8v10.2
		c0.9-1.4,2.3-2.1,4.1-2.1C849.1,93.2,851,95.1,851,99.9z"/>
	<path class="st2" d="M868.2,100.6v5.5h-9.4v3.9c0,2,0.8,2.8,2.4,2.8c1.5,0,2.4-0.8,2.4-2.8v-0.9h4.6v0.4c0,4.8-2.5,7.5-7.1,7.5
		s-7.1-2.7-7.1-7.5v-8.9c0-4.8,2.5-7.5,7.1-7.5S868.2,95.9,868.2,100.6z M863.6,102.3v-2.2c0-2-0.9-2.8-2.3-2.8
		c-1.5,0-2.3,0.8-2.3,2.8v2.2H863.6z"/>
	<path class="st2" d="M881.4,116.5c-0.1-0.3-0.3-1.3-0.4-2.7c-0.8,2-2.5,3.2-4.6,3.2c-3.2,0-5.2-2-5.2-6.7V99.9c0-4.7,2-6.7,5.2-6.7
		c1.7,0,3.1,0.8,4.1,2.1V85.1h4.8v24.9c0,3.2,0.2,5.3,0.5,6.6H881.4z M880.4,109.1v-8c0-2.7-1.1-3.7-2.5-3.7c-1.6,0-2,1.2-2,2.8v9.8
		c0,1.6,0.5,2.8,2,2.8C879.3,112.8,880.4,111.8,880.4,109.1z"/>
	<path class="st2" d="M906,116.5c-0.1-0.3-0.3-1.3-0.4-2.7c-0.8,2-2.5,3.2-4.6,3.2c-3.2,0-5.2-2-5.2-6.7V99.9c0-4.7,2-6.7,5.2-6.7
		c1.7,0,3.1,0.8,4.1,2.1V85.1h4.8v24.9c0,3.2,0.2,5.3,0.5,6.6H906z M905,109.1v-8c0-2.7-1.1-3.7-2.5-3.7c-1.6,0-2,1.2-2,2.8v9.8
		c0,1.6,0.5,2.8,2,2.8C903.9,112.8,905,111.8,905,109.1z"/>
	<path class="st2" d="M913.1,109.5v-8.9c0-4.8,2.5-7.5,7-7.5c4.5,0,7,2.7,7,7.5v8.9c0,4.8-2.5,7.5-7,7.5
		C915.6,117,913.1,114.3,913.1,109.5z M922.3,110v-9.8c0-1.6-0.5-2.8-2.2-2.8s-2.2,1.2-2.2,2.8v9.8c0,1.6,0.5,2.8,2.2,2.8
		S922.3,111.6,922.3,110z"/>
	<path class="st2" d="M944,100.6v5.5h-9.4v3.9c0,2,0.8,2.8,2.4,2.8c1.5,0,2.4-0.8,2.4-2.8v-0.9h4.6v0.4c0,4.8-2.5,7.5-7.1,7.5
		s-7.1-2.7-7.1-7.5v-8.9c0-4.8,2.5-7.5,7.1-7.5S944,95.9,944,100.6z M939.3,102.3v-2.2c0-2-0.9-2.8-2.3-2.8c-1.5,0-2.3,0.8-2.3,2.8
		v2.2H939.3z"/>
	<path class="st2" d="M946.3,110v-0.7h4.6v0.9c0,2.1,0.9,2.8,2.1,2.8s2.1-0.7,2.1-2.5c0-1.7-1.5-2.6-3.3-3.6c-2.4-1.4-5.2-3-5.2-7.3
		c0-3.8,2.2-6.3,6.4-6.3c3.9,0,6.4,2.5,6.4,6.7v0.5h-4.5v-0.6c0-1.8-0.7-2.5-1.9-2.5c-1,0-1.8,0.6-1.8,2.2c0,1.9,1.6,2.9,3.5,3.9
		c2.4,1.3,5.1,2.9,5.1,7c0,4-2.2,6.7-6.6,6.7C948.8,117,946.3,114.4,946.3,110z"/>
	<path class="st2" d="M976.5,99.9v16.7h-4.8v-16.2c0-2-0.5-3-2-3c-1.4,0-2.4,0.9-2.4,3.7v15.5h-4.8V93.6h4.1l0.1,2.7
		c0.8-2,2.5-3.1,4.6-3.1C974.6,93.2,976.5,95.1,976.5,99.9z"/>
	<path class="st2" d="M979.4,85.1h5l-1.2,10.2h-2.7L979.4,85.1z"/>
	<path class="st2" d="M993.8,97.7v13.1c0,1.4,0.5,2,1.8,2c0.5,0,1-0.1,1.6-0.3v4c-0.8,0.3-1.6,0.5-2.6,0.5c-3.8,0-5.6-1.8-5.6-5.6
		V97.7h-2.6v-4h2.8l0.5-6.2h4.1v6.2h3.5v4H993.8z"/>
	<path class="st2" d="M1020.8,100.6v5.5h-9.4v3.9c0,2,0.8,2.8,2.4,2.8c1.5,0,2.4-0.8,2.4-2.8v-0.9h4.6v0.4c0,4.8-2.5,7.5-7.1,7.5
		s-7.1-2.7-7.1-7.5v-8.9c0-4.8,2.5-7.5,7.1-7.5S1020.8,95.9,1020.8,100.6z M1016.1,102.3v-2.2c0-2-0.9-2.8-2.3-2.8
		c-1.5,0-2.3,0.8-2.3,2.8v2.2H1016.1z"/>
	<path class="st2" d="M1027.2,104.8l-4.9-11.2h5.2l2.7,7.2l2.8-7.2h4.7l-4.9,11.2l5.1,11.8h-5.2l-3-7.9l-3.1,7.9h-4.7L1027.2,104.8z
		"/>
	<path class="st2" d="M1040.4,85.5h4.8v5.2h-4.8V85.5z M1040.4,93.6h4.8v22.9h-4.8V93.6z"/>
	<path class="st2" d="M1047.9,110v-0.7h4.6v0.9c0,2.1,0.9,2.8,2.1,2.8s2.1-0.7,2.1-2.5c0-1.7-1.5-2.6-3.3-3.6
		c-2.4-1.4-5.2-3-5.2-7.3c0-3.8,2.2-6.3,6.4-6.3c3.9,0,6.4,2.5,6.4,6.7v0.5h-4.5v-0.6c0-1.8-0.7-2.5-1.9-2.5c-1,0-1.8,0.6-1.8,2.2
		c0,1.9,1.6,2.9,3.5,3.9c2.4,1.3,5.1,2.9,5.1,7c0,4-2.2,6.7-6.6,6.7C1050.4,117,1047.9,114.4,1047.9,110z"/>
	<path class="st2" d="M1070.1,97.7v13.1c0,1.4,0.5,2,1.8,2c0.5,0,1-0.1,1.6-0.3v4c-0.8,0.3-1.6,0.5-2.6,0.5c-3.8,0-5.6-1.8-5.6-5.6
		V97.7h-2.6v-4h2.8l0.5-6.2h4.1v6.2h3.5v4H1070.1z"/>
	<path class="st2" d="M1076.4,111.6h4.9v5h-4.9V111.6z"/>
	<path class="st2" d="M1085.4,111.6h4.9v5h-4.9V111.6z"/>
	<path class="st2" d="M1094.4,111.6h4.9v5h-4.9V111.6z"/>
	<path class="st2" d="M409.6,139.1h5v31.5h-5V139.1z"/>
	<path class="st2" d="M417.9,139.1h5l-1.2,10.2H419L417.9,139.1z"/>
	<path class="st2" d="M449.2,153.9v16.7h-4.8v-16.4c0-1.6-0.4-2.8-1.9-2.8c-1.3,0-2.4,1-2.4,3.7v15.5h-4.8v-16.4
		c0-1.6-0.4-2.8-1.9-2.8c-1.4,0-2.4,1-2.4,3.7v15.5h-4.8v-22.9h4.1l0.1,2.7c0.8-2,2.4-3.1,4.5-3.1c2.2,0,3.8,0.9,4.6,3.1
		c0.8-1.9,2.5-3.1,4.5-3.1C447.2,147.2,449.2,149.2,449.2,153.9z"/>
	<path class="st2" d="M459.5,163.5v-8.9c0-4.8,2.5-7.5,7-7.5c4.5,0,7,2.7,7,7.5v8.9c0,4.8-2.5,7.5-7,7.5
		C462,171,459.5,168.3,459.5,163.5z M468.7,164v-9.8c0-1.6-0.5-2.8-2.2-2.8s-2.2,1.2-2.2,2.8v9.8c0,1.6,0.5,2.8,2.2,2.8
		S468.7,165.6,468.7,164z"/>
	<path class="st2" d="M490.7,153.9v16.7h-4.8v-16.2c0-2-0.5-3-2-3c-1.4,0-2.4,0.9-2.4,3.7v15.5h-4.8v-22.9h4.1l0.1,2.7
		c0.8-2,2.5-3.1,4.6-3.1C488.8,147.2,490.7,149.1,490.7,153.9z"/>
	<path class="st2" d="M501.4,139.5h4.8v5.2h-4.8V139.5z M501.4,147.6h4.8v22.9h-4.8V147.6z"/>
	<path class="st2" d="M516,151.7v13.1c0,1.4,0.5,2,1.8,2c0.5,0,1-0.1,1.6-0.3v4c-0.8,0.3-1.6,0.5-2.6,0.5c-3.8,0-5.6-1.8-5.6-5.6
		v-13.8h-2.6v-4h2.8l0.5-6.2h4.1v6.2h3.5v4H516z"/>
	<path class="st2" d="M524,170.5h-1.7v-5h4.9v4.5l-2.8,5.9h-2.3L524,170.5z"/>
	<path class="st2" d="M552.3,153.9v10.4c0,4.7-2,6.7-5.2,6.7c-2.2,0-4-1.3-4.7-3.5l-0.6,3.1h-3.5v-31.5h4.8v10.2
		c0.9-1.3,2.3-2.1,4.1-2.1C550.3,147.2,552.3,149.1,552.3,153.9z M547.6,154.2c0-1.6-0.4-2.8-2-2.8c-1.4,0-2.5,1-2.5,3.7v8
		c0,2.7,1.1,3.7,2.5,3.7c1.6,0,2-1.2,2-2.8V154.2z"/>
	<path class="st2" d="M569.5,147.6v22.9h-4.1l-0.1-2.7c-0.8,2-2.5,3.1-4.6,3.1c-3.2,0-5.1-2-5.1-6.7v-16.7h4.8v16.2c0,2,0.5,3,2,3
		c1.3,0,2.4-0.9,2.4-3.7v-15.5H569.5z"/>
	<path class="st2" d="M579.3,151.7v13.1c0,1.4,0.5,2,1.8,2c0.5,0,1-0.1,1.6-0.3v4c-0.8,0.3-1.6,0.5-2.6,0.5c-3.8,0-5.6-1.8-5.6-5.6
		v-13.8h-2.6v-4h2.8l0.5-6.2h4.1v6.2h3.5v4H579.3z"/>
	<path class="st2" d="M598.7,144.8v2.8h3.5v4h-3.5v18.9H594v-18.9h-2.6v-4h2.6v-3.4c0-3.7,1.8-5.6,5.6-5.6c1,0,1.8,0.1,2.6,0.4v4
		c-0.6-0.2-1.1-0.3-1.6-0.3C599.2,142.8,598.7,143.4,598.7,144.8z"/>
	<path class="st2" d="M604,163.5v-8.9c0-4.8,2.5-7.5,7-7.5c4.5,0,7,2.7,7,7.5v8.9c0,4.8-2.5,7.5-7,7.5
		C606.5,171,604,168.3,604,163.5z M613.3,164v-9.8c0-1.6-0.5-2.8-2.2-2.8s-2.2,1.2-2.2,2.8v9.8c0,1.6,0.5,2.8,2.2,2.8
		S613.3,165.6,613.3,164z"/>
	<path class="st2" d="M631.3,147.4v4.6c-0.4-0.1-0.8-0.1-1.2-0.1c-2.7,0-4.1,1.8-4.1,5.4v13.2h-4.8v-22.9h4.1l0.1,3.9
		c0.6-2.9,2.1-4.3,4.5-4.3C630.5,147.2,631,147.2,631.3,147.4z"/>
	<path class="st2" d="M654.7,153.9v16.7h-4.8v-16.2c0-2-0.5-3-2-3c-1.4,0-2.4,0.9-2.4,3.7v15.5h-4.8v-22.9h4.1l0.1,2.7
		c0.8-2,2.5-3.1,4.6-3.1C652.7,147.2,654.7,149.1,654.7,153.9z"/>
	<path class="st2" d="M657.8,163.5v-8.9c0-4.8,2.5-7.5,7-7.5c4.5,0,7,2.7,7,7.5v8.9c0,4.8-2.5,7.5-7,7.5
		C660.3,171,657.8,168.3,657.8,163.5z M667,164v-9.8c0-1.6-0.5-2.8-2.2-2.8s-2.2,1.2-2.2,2.8v9.8c0,1.6,0.5,2.8,2.2,2.8
		S667,165.6,667,164z"/>
	<path class="st2" d="M673.8,147.6h4.7l2.4,16.5l2.2-16.5h4.8l2.2,16.5l2.4-16.5h4.2l-3.5,22.9h-5.8l-2.2-14.1l-2.2,14.1h-6.1
		L673.8,147.6z"/>
	<path class="st2" d="M720.5,153.9v16.7h-4.8v-16.2c0-2-0.5-3-2-3c-1.4,0-2.4,0.9-2.4,3.7v15.5h-4.8v-31.5h4.8v10.2
		c0.9-1.3,2.3-2.1,4.1-2.1C718.6,147.2,720.5,149.1,720.5,153.9z"/>
	<path class="st2" d="M737.8,154.6v5.5h-9.4v3.9c0,2,0.8,2.8,2.4,2.8c1.5,0,2.4-0.8,2.4-2.8v-0.9h4.6v0.4c0,4.8-2.5,7.5-7.1,7.5
		s-7.1-2.7-7.1-7.5v-8.9c0-4.8,2.5-7.5,7.1-7.5S737.8,149.9,737.8,154.6z M733.1,156.3v-2.2c0-2-0.9-2.8-2.3-2.8
		c-1.5,0-2.3,0.8-2.3,2.8v2.2H733.1z"/>
	<path class="st2" d="M751,147.4v4.6c-0.4-0.1-0.8-0.1-1.2-0.1c-2.7,0-4.1,1.8-4.1,5.4v13.2h-4.8v-22.9h4.1l0.1,3.9
		c0.6-2.9,2.1-4.3,4.5-4.3C750.2,147.2,750.6,147.2,751,147.4z"/>
	<path class="st2" d="M766.8,154.6v5.5h-9.4v3.9c0,2,0.8,2.8,2.4,2.8c1.5,0,2.4-0.8,2.4-2.8v-0.9h4.6v0.4c0,4.8-2.5,7.5-7.1,7.5
		s-7.1-2.7-7.1-7.5v-8.9c0-4.8,2.5-7.5,7.1-7.5S766.8,149.9,766.8,154.6z M762.1,156.3v-2.2c0-2-0.9-2.8-2.3-2.8
		c-1.5,0-2.3,0.8-2.3,2.8v2.2H762.1z"/>
	<path class="st2" d="M768.8,139.1h5l-1.2,10.2H770L768.8,139.1z"/>
	<path class="st2" d="M775.4,164v-0.7h4.6v0.9c0,2.1,0.9,2.8,2.1,2.8s2.1-0.7,2.1-2.5c0-1.7-1.5-2.6-3.3-3.6c-2.4-1.4-5.2-3-5.2-7.3
		c0-3.8,2.2-6.3,6.4-6.3c3.9,0,6.4,2.5,6.4,6.7v0.5h-4.5v-0.6c0-1.8-0.7-2.5-1.9-2.5c-1,0-1.8,0.6-1.8,2.2c0,1.9,1.6,2.9,3.5,3.9
		c2.4,1.3,5.1,2.9,5.1,7c0,4-2.2,6.7-6.6,6.7C777.9,171,775.4,168.4,775.4,164z"/>
	<path class="st2" d="M802.7,143.6h-5.2v-4.5h15.3v4.5h-5.2v27h-5V143.6z"/>
	<path class="st2" d="M815.2,139.5h4.8v5.2h-4.8V139.5z M815.2,147.6h4.8v22.9h-4.8V147.6z"/>
	<path class="st2" d="M829.8,151.7v13.1c0,1.4,0.5,2,1.8,2c0.5,0,1-0.1,1.6-0.3v4c-0.8,0.3-1.6,0.5-2.6,0.5c-3.8,0-5.6-1.8-5.6-5.6
		v-13.8h-2.6v-4h2.8l0.5-6.2h4.1v6.2h3.5v4H829.8z"/>
	<path class="st2" d="M849.7,147.6v22.9h-4.1l-0.1-2.7c-0.8,2-2.5,3.1-4.6,3.1c-3.2,0-5.1-2-5.1-6.7v-16.7h4.8v16.2c0,2,0.5,3,2,3
		c1.3,0,2.4-0.9,2.4-3.7v-15.5H849.7z"/>
	<path class="st2" d="M852.5,164v-0.7h4.6v0.9c0,2.1,0.9,2.8,2.1,2.8s2.1-0.7,2.1-2.5c0-1.7-1.5-2.6-3.3-3.6c-2.4-1.4-5.2-3-5.2-7.3
		c0-3.8,2.2-6.3,6.4-6.3c3.9,0,6.4,2.5,6.4,6.7v0.5h-4.5v-0.6c0-1.8-0.7-2.5-1.9-2.5c-1,0-1.8,0.6-1.8,2.2c0,1.9,1.6,2.9,3.5,3.9
		c2.4,1.3,5.1,2.9,5.1,7c0,4-2.2,6.7-6.6,6.7C855,171,852.5,168.4,852.5,164z"/>
	<path class="st2" d="M885.8,164.4h-5.7l-0.9,6.2h-4.6l5.1-31.5h6.7l5.1,31.5h-4.9L885.8,164.4z M885.2,160.1l-2.2-15.9l-2.2,15.9
		H885.2z"/>
	<path class="st2" d="M907.9,153.9v16.7h-4.8v-16.2c0-2-0.5-3-2-3c-1.4,0-2.4,0.9-2.4,3.7v15.5h-4.8v-22.9h4.1l0.1,2.7
		c0.8-2,2.5-3.1,4.6-3.1C905.9,147.2,907.9,149.1,907.9,153.9z"/>
	<path class="st2" d="M921.3,170.5c-0.1-0.3-0.3-1.3-0.4-2.7c-0.8,2-2.5,3.2-4.6,3.2c-3.2,0-5.2-2-5.2-6.7v-10.4
		c0-4.7,2-6.7,5.2-6.7c1.7,0,3.1,0.8,4.1,2.1v-10.2h4.8v24.9c0,3.2,0.2,5.3,0.5,6.6H921.3z M920.4,163.1v-8c0-2.7-1.1-3.7-2.5-3.7
		c-1.6,0-2,1.2-2,2.8v9.8c0,1.6,0.5,2.8,2,2.8C919.3,166.8,920.4,165.8,920.4,163.1z"/>
	<path class="st2" d="M938.9,147.4v4.6c-0.4-0.1-0.8-0.1-1.2-0.1c-2.7,0-4.1,1.8-4.1,5.4v13.2h-4.8v-22.9h4.1l0.1,3.9
		c0.6-2.9,2.1-4.3,4.5-4.3C938.1,147.2,938.5,147.2,938.9,147.4z"/>
	<path class="st2" d="M940.5,163.5v-8.9c0-4.8,2.5-7.5,7-7.5c4.5,0,7,2.7,7,7.5v8.9c0,4.8-2.5,7.5-7,7.5
		C943.1,171,940.5,168.3,940.5,163.5z M949.8,164v-9.8c0-1.6-0.5-2.8-2.2-2.8s-2.2,1.2-2.2,2.8v9.8c0,1.6,0.5,2.8,2.2,2.8
		S949.8,165.6,949.8,164z"/>
	<path class="st2" d="M980.8,153.9v16.7H976v-16.4c0-1.6-0.4-2.8-1.9-2.8c-1.3,0-2.4,1-2.4,3.7v15.5h-4.8v-16.4
		c0-1.6-0.4-2.8-1.9-2.8c-1.4,0-2.4,1-2.4,3.7v15.5h-4.8v-22.9h4.1l0.1,2.7c0.8-2,2.4-3.1,4.5-3.1c2.2,0,3.8,0.9,4.6,3.1
		c0.8-1.9,2.5-3.1,4.5-3.1C978.8,147.2,980.8,149.2,980.8,153.9z"/>
	<path class="st2" d="M998,154.6v5.5h-9.4v3.9c0,2,0.8,2.8,2.4,2.8c1.5,0,2.4-0.8,2.4-2.8v-0.9h4.6v0.4c0,4.8-2.5,7.5-7.1,7.5
		s-7.1-2.7-7.1-7.5v-8.9c0-4.8,2.5-7.5,7.1-7.5S998,149.9,998,154.6z M993.3,156.3v-2.2c0-2-0.9-2.8-2.3-2.8c-1.5,0-2.3,0.8-2.3,2.8
		v2.2H993.3z"/>
	<path class="st2" d="M1011.1,170.5c-0.1-0.3-0.3-1.3-0.4-2.7c-0.8,2-2.5,3.2-4.6,3.2c-3.2,0-5.2-2-5.2-6.7v-10.4
		c0-4.7,2-6.7,5.2-6.7c1.7,0,3.1,0.8,4.1,2.1v-10.2h4.8v24.9c0,3.2,0.2,5.3,0.5,6.6H1011.1z M1010.2,163.1v-8c0-2.7-1.1-3.7-2.5-3.7
		c-1.6,0-2,1.2-2,2.8v9.8c0,1.6,0.5,2.8,2,2.8C1009.1,166.8,1010.2,165.8,1010.2,163.1z"/>
	<path class="st2" d="M1018.2,163.5v-8.9c0-4.8,2.5-7.5,7-7.5c4.5,0,7,2.7,7,7.5v8.9c0,4.8-2.5,7.5-7,7.5
		C1020.7,171,1018.2,168.3,1018.2,163.5z M1027.5,164v-9.8c0-1.6-0.5-2.8-2.2-2.8s-2.2,1.2-2.2,2.8v9.8c0,1.6,0.5,2.8,2.2,2.8
		S1027.5,165.6,1027.5,164z"/>
	<path class="st2" d="M1049.4,153.9v16.7h-4.8v-16.2c0-2-0.5-3-2-3c-1.4,0-2.4,0.9-2.4,3.7v15.5h-4.8v-22.9h4.1l0.1,2.7
		c0.8-2,2.5-3.1,4.6-3.1C1047.5,147.2,1049.4,149.1,1049.4,153.9z"/>
	<path class="st2" d="M1060.4,148.5h4.9v4.9h-4.9V148.5z M1060.4,165.6h4.9v5h-4.9V165.6z"/>
	<path class="st2" d="M1069.2,139.1h7.6c5,0,7.4,2.7,7.4,7.8v15.9c0,5-2.4,7.8-7.4,7.8h-7.6V139.1z M1076.7,166
		c1.6,0,2.5-0.8,2.5-3.1v-16.4c0-2.2-0.9-3.1-2.5-3.1h-2.5V166H1076.7z"/>
</g>
</svg>
