<?xml version="1.0" encoding="utf-8"?>
<!-- Generator: Adobe Illustrator 25.1.0, SVG Export Plug-In . SVG Version: 6.00 Build 0)  -->
<svg version="1.1" id="Layer_2_1_" xmlns="http://www.w3.org/2000/svg" xmlns:xlink="http://www.w3.org/1999/xlink" x="0px" y="0px"
	 viewBox="0 0 1186.7 482" style="enable-background:new 0 0 1186.7 482;" xml:space="preserve">
<style type="text/css">
	.st0{fill:none;stroke:#E1B000;stroke-width:58.3383;stroke-linecap:round;stroke-linejoin:round;}
	.st1{fill:#FFFFFF;}
	.st2{fill:none;stroke:#E1B000;stroke-width:61.44;stroke-linecap:round;stroke-linejoin:round;}
	.st3{fill:#2D315D;}
</style>
<path class="st0" d="M358,46.6c-9.7,45.9-19.5,91.7-29.2,137.6c28.1-41,56.1-82,84.2-123c-8,52.1-16.1,104.2-24.1,156.3
	c32.4-56.2,64.8-112.4,97.2-168.6c-3.6,47.5-7.1,94.9-10.7,142.4c15.2-37.4,30.3-74.9,45.5-112.3c1.9,42.7,3.8,85.4,5.7,128.2
	c12.9-48.3,33.8-93.1,61.1-130.3c0.5,43.4,1,86.8,1.6,130.1c8.5-46.6,26-90.4,50.5-126.4c2.9,37.2,5.9,74.3,8.8,111.5
	c18.2-37,36.4-74.1,54.6-111.1c0.7,43.2,1.4,86.3,2.1,129.5c15.4-36.8,30.8-73.7,46.2-110.5c0.7,32.6,1.5,65.2,2.2,97.8
	c19.6-45.3,39.1-90.7,58.7-136c1,46.1,2.1,92.3,3.1,138.4c16.1-34,32.3-67.9,48.4-101.9c1.3,28.5,2.6,56.9,3.9,85.4
	c6.9-40.1,13.7-80.1,20.6-120.2c5.8,44.5,11.6,88.9,17.4,133.4c10.5-42.9,29.6-82.4,54.8-113.5c2.7,36,5.3,72,8,108
	c12.6-35.2,25.2-70.4,37.7-105.6c5.6,40.7,11.2,81.4,16.8,122.1c5.9-47.7,25.1-92.5,53.3-124.5c4.4,35.7,8.9,71.5,13.3,107.2"/>
<g>
	<path class="st1" d="M378.3,117.1v-16.6c0-5,2.7-7.9,7.5-7.9c4.9,0,7.5,2.9,7.5,7.9v16.6c0,5-2.7,7.9-7.5,7.9
		C380.9,125,378.3,122.1,378.3,117.1z M388.3,117.4v-17.2c0-2.2-1-3.1-2.6-3.1c-1.6,0-2.6,0.9-2.6,3.1v17.2c0,2.2,1,3.1,2.6,3.1
		C387.3,120.5,388.3,119.7,388.3,117.4z"/>
	<path class="st1" d="M396.3,117.1v-16.6c0-5,2.7-7.9,7.5-7.9c4.9,0,7.5,2.9,7.5,7.9v16.6c0,5-2.7,7.9-7.5,7.9
		C398.9,125,396.3,122.1,396.3,117.1z M406.3,117.4v-17.2c0-2.2-1-3.1-2.6-3.1c-1.6,0-2.6,0.9-2.6,3.1v17.2c0,2.2,1,3.1,2.6,3.1
		C405.3,120.5,406.3,119.7,406.3,117.4z"/>
	<path class="st1" d="M414.6,93.1h7.3c4.9,0,7.4,2.7,7.4,7.8v3.1c0,5-2.4,7.8-7.4,7.8h-2.3v12.8h-5V93.1z M421.9,107.2
		c1.6,0,2.4-0.7,2.4-3v-3.7c0-2.2-0.9-3-2.4-3h-2.3v9.7H421.9z"/>
	<path class="st1" d="M431.3,117.1v-1.8h4.7v2.2c0,2.2,1,3.1,2.6,3.1c1.6,0,2.6-0.8,2.6-3.1c0-2.6-1.1-4.2-4.3-7.1
		c-4.1-3.6-5.5-6.3-5.5-9.9c0-4.9,2.6-7.8,7.4-7.8c4.8,0,7.2,2.9,7.2,7.9v1.3h-4.7v-1.6c0-2.2-0.9-3.1-2.5-3.1c-1.6,0-2.5,0.9-2.5,3
		c0,2.3,1.1,3.9,4.4,6.8c4.1,3.6,5.5,6.2,5.5,10.1c0,5.1-2.6,8-7.5,8C433.7,125,431.3,122.1,431.3,117.1z"/>
	<path class="st1" d="M449,119.6h4.9v5H449V119.6z"/>
	<path class="st1" d="M458,119.6h4.9v5H458V119.6z"/>
	<path class="st1" d="M467,119.6h4.9v5H467V119.6z"/>
	<path class="st1" d="M489.1,105.7v13.1c0,1.4,0.5,2,1.8,2c0.5,0,1-0.1,1.6-0.3v4c-0.8,0.3-1.6,0.5-2.6,0.5c-3.8,0-5.6-1.8-5.6-5.6
		v-13.8h-2.6v-4h2.8l0.5-6.2h4.1v6.2h3.5v4H489.1z"/>
	<path class="st1" d="M509.2,107.9v16.7h-4.8v-16.2c0-2-0.5-3-2-3c-1.4,0-2.4,0.9-2.4,3.7v15.5h-4.8V93.1h4.8v10.2
		c0.9-1.4,2.3-2.1,4.1-2.1C507.2,101.2,509.2,103.1,509.2,107.9z"/>
	<path class="st1" d="M526.4,108.6v5.5H517v3.9c0,2,0.8,2.8,2.4,2.8c1.5,0,2.4-0.8,2.4-2.8v-0.9h4.6v0.4c0,4.8-2.5,7.5-7.1,7.5
		s-7.1-2.7-7.1-7.5v-8.9c0-4.8,2.5-7.5,7.1-7.5S526.4,103.9,526.4,108.6z M521.7,110.3v-2.2c0-2-0.9-2.8-2.3-2.8
		c-1.5,0-2.3,0.8-2.3,2.8v2.2H521.7z"/>
	<path class="st1" d="M550.8,107.9v10.4c0,4.7-2,6.7-5.2,6.7c-1.7,0-3.1-0.8-4.1-2.1v8.6h-4.8v-29.9h4.1l0.1,2.7
		c0.8-2,2.5-3.1,4.6-3.1C548.8,101.2,550.8,103.1,550.8,107.9z M546,108.2c0-1.6-0.4-2.8-2-2.8c-1.4,0-2.5,1-2.5,3.7v8
		c0,2.7,1.1,3.7,2.5,3.7c1.6,0,2-1.2,2-2.8V108.2z"/>
	<path class="st1" d="M563.4,124.6c-0.1-0.3-0.3-1.3-0.4-2.7c-0.9,2-2.6,3.2-4.9,3.2c-3.1,0-5-2.2-5-5.8c0-3.6,1.5-5.7,5.5-7.6
		c3.3-1.6,3.7-2,3.7-3.3v-0.5c0-1.8-0.6-2.6-1.9-2.6c-1.5,0-2.2,0.9-2.2,2.7v0.9h-4.5v-0.6c0-4.5,2.3-7,6.7-7c4.8,0,6.7,2.5,6.7,7.6
		v9.2c0,3.2,0.2,5.3,0.5,6.6H563.4z M562.5,117.1v-3.9c-0.4,0.5-1.1,0.9-2.3,1.7c-1.4,0.9-2.2,2.1-2.2,3.6c0,1.6,0.7,2.5,2,2.5
		C561.6,120.9,562.5,119.6,562.5,117.1z"/>
	<path class="st1" d="M584.5,101.6v23.3c0,4.4-1.7,7.1-7.1,7.1c-4.5,0-6.8-2.2-6.8-6.2v-0.1h4.6v0.4c0,1.2,0.7,2,2.2,2
		c1.6,0,2.4-0.8,2.4-2.8v-3.5c-0.9,1.4-2.3,2.1-4,2.1c-3.2,0-5.2-2-5.2-6.7v-9.3c0-4.7,2-6.7,5.2-6.7c2.1,0,3.8,1.2,4.6,3.1l0.1-2.7
		H584.5z M579.8,116v-6.9c0-2.7-1.1-3.7-2.5-3.7c-1.6,0-2,1.2-2,2.8v8.7c0,1.6,0.5,2.8,2,2.8C578.6,119.7,579.8,118.7,579.8,116z"/>
	<path class="st1" d="M601.9,108.6v5.5h-9.4v3.9c0,2,0.8,2.8,2.4,2.8c1.5,0,2.4-0.8,2.4-2.8v-0.9h4.6v0.4c0,4.8-2.5,7.5-7.1,7.5
		s-7.1-2.7-7.1-7.5v-8.9c0-4.8,2.5-7.5,7.1-7.5S601.9,103.9,601.9,108.6z M597.2,110.3v-2.2c0-2-0.9-2.8-2.3-2.8
		c-1.5,0-2.3,0.8-2.3,2.8v2.2H597.2z"/>
	<path class="st1" d="M612.1,131.5v-4c0.5,0.2,1.1,0.3,1.8,0.3c1.6,0,2.2-0.5,2.5-1.9l0.1-0.3l-5.5-23.9h4.9l3.1,15.8l2.7-15.8h4.5
		l-5.1,24.9c-0.8,3.9-2.6,5.4-6.3,5.4C613.8,132,612.9,131.9,612.1,131.5z"/>
	<path class="st1" d="M627.8,117.5v-8.9c0-4.8,2.5-7.5,7-7.5c4.5,0,7,2.7,7,7.5v8.9c0,4.8-2.5,7.5-7,7.5
		C630.3,125,627.8,122.3,627.8,117.5z M637.1,118v-9.8c0-1.6-0.5-2.8-2.2-2.8s-2.2,1.2-2.2,2.8v9.8c0,1.6,0.5,2.8,2.2,2.8
		S637.1,119.6,637.1,118z"/>
	<path class="st1" d="M658.9,101.6v22.9h-4.1l-0.1-2.7c-0.8,2-2.5,3.1-4.6,3.1c-3.2,0-5.1-2-5.1-6.7v-16.7h4.8v16.2c0,2,0.5,3,2,3
		c1.3,0,2.4-0.9,2.4-3.7v-15.5H658.9z"/>
	<path class="st1" d="M683.8,107.9v16.7H679v-16.2c0-2-0.5-3-2-3c-1.4,0-2.4,0.9-2.4,3.7v15.5h-4.8V93.1h4.8v10.2
		c0.9-1.4,2.3-2.1,4.1-2.1C681.8,101.2,683.8,103.1,683.8,107.9z"/>
	<path class="st1" d="M696.6,124.6c-0.1-0.3-0.3-1.3-0.4-2.7c-0.9,2-2.6,3.2-4.9,3.2c-3.1,0-5-2.2-5-5.8c0-3.6,1.5-5.7,5.5-7.6
		c3.3-1.6,3.7-2,3.7-3.3v-0.5c0-1.8-0.6-2.6-1.9-2.6c-1.5,0-2.2,0.9-2.2,2.7v0.9H687v-0.6c0-4.5,2.3-7,6.7-7c4.8,0,6.7,2.5,6.7,7.6
		v9.2c0,3.2,0.2,5.3,0.5,6.6H696.6z M695.6,117.1v-3.9c-0.4,0.5-1.1,0.9-2.3,1.7c-1.4,0.9-2.2,2.1-2.2,3.6c0,1.6,0.7,2.5,2,2.5
		C694.8,120.9,695.6,119.6,695.6,117.1z"/>
	<path class="st1" d="M702.6,101.6h4.9l2.9,16.5l2.9-16.5h4.5l-4.6,22.9h-5.8L702.6,101.6z"/>
	<path class="st1" d="M733.7,108.6v5.5h-9.4v3.9c0,2,0.8,2.8,2.4,2.8c1.5,0,2.4-0.8,2.4-2.8v-0.9h4.6v0.4c0,4.8-2.5,7.5-7.1,7.5
		s-7.1-2.7-7.1-7.5v-8.9c0-4.8,2.5-7.5,7.1-7.5S733.7,103.9,733.7,108.6z M729,110.3v-2.2c0-2-0.9-2.8-2.3-2.8
		c-1.5,0-2.3,0.8-2.3,2.8v2.2H729z"/>
	<path class="st1" d="M754,101.4v4.6c-0.4-0.1-0.8-0.1-1.2-0.1c-2.7,0-4.1,1.8-4.1,5.4v13.2H744v-22.9h4.1l0.1,3.9
		c0.6-2.9,2.1-4.3,4.5-4.3C753.3,101.2,753.7,101.2,754,101.4z"/>
	<path class="st1" d="M769.8,108.6v5.5h-9.4v3.9c0,2,0.8,2.8,2.4,2.8c1.5,0,2.4-0.8,2.4-2.8v-0.9h4.6v0.4c0,4.8-2.5,7.5-7.1,7.5
		s-7.1-2.7-7.1-7.5v-8.9c0-4.8,2.5-7.5,7.1-7.5S769.8,103.9,769.8,108.6z M765.2,110.3v-2.2c0-2-0.9-2.8-2.3-2.8
		c-1.5,0-2.3,0.8-2.3,2.8v2.2H765.2z"/>
	<path class="st1" d="M782.3,124.6c-0.1-0.3-0.3-1.3-0.4-2.7c-0.9,2-2.6,3.2-4.9,3.2c-3.1,0-5-2.2-5-5.8c0-3.6,1.5-5.7,5.5-7.6
		c3.3-1.6,3.7-2,3.7-3.3v-0.5c0-1.8-0.6-2.6-1.9-2.6c-1.5,0-2.2,0.9-2.2,2.7v0.9h-4.5v-0.6c0-4.5,2.3-7,6.7-7c4.8,0,6.7,2.5,6.7,7.6
		v9.2c0,3.2,0.2,5.3,0.5,6.6H782.3z M781.3,117.1v-3.9c-0.4,0.5-1.1,0.9-2.3,1.7c-1.4,0.9-2.2,2.1-2.2,3.6c0,1.6,0.7,2.5,2,2.5
		C780.5,120.9,781.3,119.6,781.3,117.1z"/>
	<path class="st1" d="M789.3,117.6v-9.1c0-4.7,2.4-7.4,7-7.4c4.6,0,6.8,2.9,6.8,7.4v1.4h-4.6v-1.8c0-1.7-0.6-2.7-2.2-2.7
		c-1.6,0-2.2,1-2.2,2.7v10c0,1.7,0.6,2.7,2.2,2.7c1.6,0,2.2-1,2.2-2.7v-2.3h4.6v1.8c0,4.5-2.2,7.4-6.8,7.4
		C791.7,125,789.3,122.3,789.3,117.6z"/>
	<path class="st1" d="M820,107.9v16.7h-4.8v-16.2c0-2-0.5-3-2-3c-1.4,0-2.4,0.9-2.4,3.7v15.5H806V93.1h4.8v10.2
		c0.9-1.4,2.3-2.1,4.1-2.1C818,101.2,820,103.1,820,107.9z"/>
	<path class="st1" d="M837.2,108.6v5.5h-9.4v3.9c0,2,0.8,2.8,2.4,2.8c1.5,0,2.4-0.8,2.4-2.8v-0.9h4.6v0.4c0,4.8-2.5,7.5-7.1,7.5
		s-7.1-2.7-7.1-7.5v-8.9c0-4.8,2.5-7.5,7.1-7.5S837.2,103.9,837.2,108.6z M832.5,110.3v-2.2c0-2-0.9-2.8-2.3-2.8
		c-1.5,0-2.3,0.8-2.3,2.8v2.2H832.5z"/>
	<path class="st1" d="M850.3,124.6c-0.1-0.3-0.3-1.3-0.4-2.7c-0.8,2-2.5,3.2-4.6,3.2c-3.2,0-5.2-2-5.2-6.7v-10.4
		c0-4.7,2-6.7,5.2-6.7c1.7,0,3.1,0.8,4.1,2.1V93.1h4.8v24.9c0,3.2,0.2,5.3,0.5,6.6H850.3z M849.4,117.1v-8c0-2.7-1.1-3.7-2.5-3.7
		c-1.6,0-2,1.2-2,2.8v9.8c0,1.6,0.5,2.8,2,2.8C848.3,120.8,849.4,119.8,849.4,117.1z"/>
	<path class="st1" d="M875,124.6c-0.1-0.3-0.3-1.3-0.4-2.7c-0.8,2-2.5,3.2-4.6,3.2c-3.2,0-5.2-2-5.2-6.7v-10.4c0-4.7,2-6.7,5.2-6.7
		c1.7,0,3.1,0.8,4.1,2.1V93.1h4.8v24.9c0,3.2,0.2,5.3,0.5,6.6H875z M874,117.1v-8c0-2.7-1.1-3.7-2.5-3.7c-1.6,0-2,1.2-2,2.8v9.8
		c0,1.6,0.5,2.8,2,2.8C872.9,120.8,874,119.8,874,117.1z"/>
	<path class="st1" d="M882,117.5v-8.9c0-4.8,2.5-7.5,7-7.5c4.5,0,7,2.7,7,7.5v8.9c0,4.8-2.5,7.5-7,7.5
		C884.5,125,882,122.3,882,117.5z M891.3,118v-9.8c0-1.6-0.5-2.8-2.2-2.8s-2.2,1.2-2.2,2.8v9.8c0,1.6,0.5,2.8,2.2,2.8
		S891.3,119.6,891.3,118z"/>
	<path class="st1" d="M913,108.6v5.5h-9.4v3.9c0,2,0.8,2.8,2.4,2.8c1.5,0,2.4-0.8,2.4-2.8v-0.9h4.6v0.4c0,4.8-2.5,7.5-7.1,7.5
		s-7.1-2.7-7.1-7.5v-8.9c0-4.8,2.5-7.5,7.1-7.5S913,103.9,913,108.6z M908.3,110.3v-2.2c0-2-0.9-2.8-2.3-2.8c-1.5,0-2.3,0.8-2.3,2.8
		v2.2H908.3z"/>
	<path class="st1" d="M915.2,118v-0.7h4.6v0.9c0,2.1,0.9,2.8,2.1,2.8s2.1-0.7,2.1-2.5c0-1.7-1.5-2.6-3.3-3.6c-2.4-1.4-5.2-3-5.2-7.3
		c0-3.8,2.2-6.3,6.4-6.3c3.9,0,6.4,2.5,6.4,6.7v0.5h-4.5v-0.6c0-1.8-0.7-2.5-1.9-2.5c-1,0-1.8,0.6-1.8,2.2c0,1.9,1.6,2.9,3.5,3.9
		c2.4,1.3,5.1,2.9,5.1,7c0,4-2.2,6.7-6.6,6.7C917.8,125,915.2,122.4,915.2,118z"/>
	<path class="st1" d="M945.5,107.9v16.7h-4.8v-16.2c0-2-0.5-3-2-3c-1.4,0-2.4,0.9-2.4,3.7v15.5h-4.8v-22.9h4.1l0.1,2.7
		c0.8-2,2.5-3.1,4.6-3.1C943.5,101.2,945.5,103.1,945.5,107.9z"/>
	<path class="st1" d="M948.4,93.1h5l-1.2,10.2h-2.7L948.4,93.1z"/>
	<path class="st1" d="M962.8,105.7v13.1c0,1.4,0.5,2,1.8,2c0.5,0,1-0.1,1.6-0.3v4c-0.8,0.3-1.6,0.5-2.6,0.5c-3.8,0-5.6-1.8-5.6-5.6
		v-13.8h-2.6v-4h2.8l0.5-6.2h4.1v6.2h3.5v4H962.8z"/>
	<path class="st1" d="M989.8,108.6v5.5h-9.4v3.9c0,2,0.8,2.8,2.4,2.8c1.5,0,2.4-0.8,2.4-2.8v-0.9h4.6v0.4c0,4.8-2.5,7.5-7.1,7.5
		s-7.1-2.7-7.1-7.5v-8.9c0-4.8,2.5-7.5,7.1-7.5S989.8,103.9,989.8,108.6z M985.1,110.3v-2.2c0-2-0.9-2.8-2.3-2.8
		c-1.5,0-2.3,0.8-2.3,2.8v2.2H985.1z"/>
	<path class="st1" d="M996.1,112.8l-4.9-11.2h5.2l2.7,7.2l2.8-7.2h4.7l-4.9,11.2l5.1,11.8h-5.2l-3-7.9l-3.1,7.9H991L996.1,112.8z"/>
	<path class="st1" d="M1009.3,93.6h4.8v5.2h-4.8V93.6z M1009.3,101.6h4.8v22.9h-4.8V101.6z"/>
	<path class="st1" d="M1016.9,118v-0.7h4.6v0.9c0,2.1,0.9,2.8,2.1,2.8s2.1-0.7,2.1-2.5c0-1.7-1.5-2.6-3.3-3.6
		c-2.4-1.4-5.2-3-5.2-7.3c0-3.8,2.2-6.3,6.4-6.3c3.9,0,6.4,2.5,6.4,6.7v0.5h-4.5v-0.6c0-1.8-0.7-2.5-1.9-2.5c-1,0-1.8,0.6-1.8,2.2
		c0,1.9,1.6,2.9,3.5,3.9c2.4,1.3,5.1,2.9,5.1,7c0,4-2.2,6.7-6.6,6.7C1019.4,125,1016.9,122.4,1016.9,118z"/>
	<path class="st1" d="M1039.1,105.7v13.1c0,1.4,0.5,2,1.8,2c0.5,0,1-0.1,1.6-0.3v4c-0.8,0.3-1.6,0.5-2.6,0.5c-3.8,0-5.6-1.8-5.6-5.6
		v-13.8h-2.6v-4h2.8l0.5-6.2h4.1v6.2h3.5v4H1039.1z"/>
	<path class="st1" d="M1045.4,119.6h4.9v5h-4.9V119.6z"/>
	<path class="st1" d="M1054.4,119.6h4.9v5h-4.9V119.6z"/>
	<path class="st1" d="M1063.4,119.6h4.9v5h-4.9V119.6z"/>
	<path class="st1" d="M378.6,147.1h5v31.5h-5V147.1z"/>
	<path class="st1" d="M386.9,147.1h5l-1.2,10.2H388L386.9,147.1z"/>
	<path class="st1" d="M418.1,161.9v16.7h-4.8v-16.4c0-1.6-0.4-2.8-1.9-2.8c-1.3,0-2.4,1-2.4,3.7v15.5h-4.8v-16.4
		c0-1.6-0.4-2.8-1.9-2.8c-1.4,0-2.4,1-2.4,3.7v15.5h-4.8v-22.9h4.1l0.1,2.7c0.8-2,2.4-3.1,4.5-3.1c2.2,0,3.8,0.9,4.6,3.1
		c0.8-1.9,2.5-3.1,4.5-3.1C416.2,155.2,418.1,157.2,418.1,161.9z"/>
	<path class="st1" d="M428.4,171.5v-8.9c0-4.8,2.5-7.5,7-7.5c4.5,0,7,2.7,7,7.5v8.9c0,4.8-2.5,7.5-7,7.5
		C431,179,428.4,176.3,428.4,171.5z M437.7,172v-9.8c0-1.6-0.5-2.8-2.2-2.8s-2.2,1.2-2.2,2.8v9.8c0,1.6,0.5,2.8,2.2,2.8
		S437.7,173.6,437.7,172z"/>
	<path class="st1" d="M459.7,161.9v16.7h-4.8v-16.2c0-2-0.5-3-2-3c-1.4,0-2.4,0.9-2.4,3.7v15.5h-4.8v-22.9h4.1l0.1,2.7
		c0.8-2,2.5-3.1,4.6-3.1C457.7,155.2,459.7,157.1,459.7,161.9z"/>
	<path class="st1" d="M470.4,147.6h4.8v5.2h-4.8V147.6z M470.4,155.6h4.8v22.9h-4.8V155.6z"/>
	<path class="st1" d="M485,159.7v13.1c0,1.4,0.5,2,1.8,2c0.5,0,1-0.1,1.6-0.3v4c-0.8,0.3-1.6,0.5-2.6,0.5c-3.8,0-5.6-1.8-5.6-5.6
		v-13.8h-2.6v-4h2.8l0.5-6.2h4.1v6.2h3.5v4H485z"/>
	<path class="st1" d="M493,178.6h-1.7v-5h4.9v4.5l-2.8,5.9h-2.3L493,178.6z"/>
	<path class="st1" d="M521.3,161.9v10.4c0,4.7-2,6.7-5.2,6.7c-2.2,0-4-1.3-4.7-3.5l-0.6,3.1h-3.5v-31.5h4.8v10.2
		c0.9-1.3,2.3-2.1,4.1-2.1C519.3,155.2,521.3,157.1,521.3,161.9z M516.5,162.2c0-1.6-0.4-2.8-2-2.8c-1.4,0-2.5,1-2.5,3.7v8
		c0,2.7,1.1,3.7,2.5,3.7c1.6,0,2-1.2,2-2.8V162.2z"/>
	<path class="st1" d="M538.5,155.6v22.9h-4.1l-0.1-2.7c-0.8,2-2.5,3.1-4.6,3.1c-3.2,0-5.1-2-5.1-6.7v-16.7h4.8v16.2c0,2,0.5,3,2,3
		c1.3,0,2.4-0.9,2.4-3.7v-15.5H538.5z"/>
	<path class="st1" d="M548.3,159.7v13.1c0,1.4,0.5,2,1.8,2c0.5,0,1-0.1,1.6-0.3v4c-0.8,0.3-1.6,0.5-2.6,0.5c-3.8,0-5.6-1.8-5.6-5.6
		v-13.8h-2.6v-4h2.8l0.5-6.2h4.1v6.2h3.5v4H548.3z"/>
	<path class="st1" d="M567.7,152.8v2.8h3.5v4h-3.5v18.9h-4.8v-18.9h-2.6v-4h2.6v-3.4c0-3.7,1.8-5.6,5.6-5.6c1,0,1.8,0.1,2.6,0.4v4
		c-0.6-0.2-1.1-0.3-1.6-0.3C568.2,150.8,567.7,151.4,567.7,152.8z"/>
	<path class="st1" d="M573,171.5v-8.9c0-4.8,2.5-7.5,7-7.5c4.5,0,7,2.7,7,7.5v8.9c0,4.8-2.5,7.5-7,7.5
		C575.5,179,573,176.3,573,171.5z M582.2,172v-9.8c0-1.6-0.5-2.8-2.2-2.8s-2.2,1.2-2.2,2.8v9.8c0,1.6,0.5,2.8,2.2,2.8
		S582.2,173.6,582.2,172z"/>
	<path class="st1" d="M600.3,155.4v4.6c-0.4-0.1-0.8-0.1-1.2-0.1c-2.7,0-4.1,1.8-4.1,5.4v13.2h-4.8v-22.9h4.1l0.1,3.9
		c0.6-2.9,2.1-4.3,4.5-4.3C599.5,155.2,599.9,155.2,600.3,155.4z"/>
	<path class="st1" d="M623.6,161.9v16.7h-4.8v-16.2c0-2-0.5-3-2-3c-1.4,0-2.4,0.9-2.4,3.7v15.5h-4.8v-22.9h4.1l0.1,2.7
		c0.8-2,2.5-3.1,4.6-3.1C621.7,155.2,623.6,157.1,623.6,161.9z"/>
	<path class="st1" d="M626.7,171.5v-8.9c0-4.8,2.5-7.5,7-7.5c4.5,0,7,2.7,7,7.5v8.9c0,4.8-2.5,7.5-7,7.5
		C629.3,179,626.7,176.3,626.7,171.5z M636,172v-9.8c0-1.6-0.5-2.8-2.2-2.8s-2.2,1.2-2.2,2.8v9.8c0,1.6,0.5,2.8,2.2,2.8
		S636,173.6,636,172z"/>
	<path class="st1" d="M642.8,155.6h4.7l2.4,16.5l2.2-16.5h4.8l2.2,16.5l2.4-16.5h4.2l-3.5,22.9h-5.8l-2.2-14.1l-2.2,14.1h-6.1
		L642.8,155.6z"/>
	<path class="st1" d="M689.5,161.9v16.7h-4.8v-16.2c0-2-0.5-3-2-3c-1.4,0-2.4,0.9-2.4,3.7v15.5h-4.8v-31.5h4.8v10.2
		c0.9-1.3,2.3-2.1,4.1-2.1C687.6,155.2,689.5,157.1,689.5,161.9z"/>
	<path class="st1" d="M706.8,162.6v5.5h-9.4v3.9c0,2,0.8,2.8,2.4,2.8c1.5,0,2.4-0.8,2.4-2.8v-0.9h4.6v0.4c0,4.8-2.5,7.5-7.1,7.5
		s-7.1-2.7-7.1-7.5v-8.9c0-4.8,2.5-7.5,7.1-7.5S706.8,157.9,706.8,162.6z M702.1,164.3v-2.2c0-2-0.9-2.8-2.3-2.8
		c-1.5,0-2.3,0.8-2.3,2.8v2.2H702.1z"/>
	<path class="st1" d="M719.9,155.4v4.6c-0.4-0.1-0.8-0.1-1.2-0.1c-2.7,0-4.1,1.8-4.1,5.4v13.2h-4.8v-22.9h4.1l0.1,3.9
		c0.6-2.9,2.1-4.3,4.5-4.3C719.2,155.2,719.6,155.2,719.9,155.4z"/>
	<path class="st1" d="M735.7,162.6v5.5h-9.4v3.9c0,2,0.8,2.8,2.4,2.8c1.5,0,2.4-0.8,2.4-2.8v-0.9h4.6v0.4c0,4.8-2.5,7.5-7.1,7.5
		s-7.1-2.7-7.1-7.5v-8.9c0-4.8,2.5-7.5,7.1-7.5S735.7,157.9,735.7,162.6z M731.1,164.3v-2.2c0-2-0.9-2.8-2.3-2.8
		c-1.5,0-2.3,0.8-2.3,2.8v2.2H731.1z"/>
	<path class="st1" d="M737.8,147.1h5l-1.2,10.2H739L737.8,147.1z"/>
	<path class="st1" d="M744.3,172v-0.7h4.6v0.9c0,2.1,0.9,2.8,2.1,2.8s2.1-0.7,2.1-2.5c0-1.7-1.5-2.6-3.3-3.6c-2.4-1.4-5.2-3-5.2-7.3
		c0-3.8,2.2-6.3,6.4-6.3c3.9,0,6.4,2.5,6.4,6.7v0.5h-4.5v-0.6c0-1.8-0.7-2.5-1.9-2.5c-1,0-1.8,0.6-1.8,2.2c0,1.9,1.6,2.9,3.5,3.9
		c2.4,1.3,5.1,2.9,5.1,7c0,4-2.2,6.7-6.6,6.7C746.8,179,744.3,176.4,744.3,172z"/>
	<path class="st1" d="M771.7,151.6h-5.2v-4.5h15.3v4.5h-5.2v27h-5V151.6z"/>
	<path class="st1" d="M784.2,147.6h4.8v5.2h-4.8V147.6z M784.2,155.6h4.8v22.9h-4.8V155.6z"/>
	<path class="st1" d="M798.7,159.7v13.1c0,1.4,0.5,2,1.8,2c0.5,0,1-0.1,1.6-0.3v4c-0.8,0.3-1.6,0.5-2.6,0.5c-3.8,0-5.6-1.8-5.6-5.6
		v-13.8h-2.6v-4h2.8l0.5-6.2h4.1v6.2h3.5v4H798.7z"/>
	<path class="st1" d="M818.7,155.6v22.9h-4.1l-0.1-2.7c-0.8,2-2.5,3.1-4.6,3.1c-3.2,0-5.1-2-5.1-6.7v-16.7h4.8v16.2c0,2,0.5,3,2,3
		c1.3,0,2.4-0.9,2.4-3.7v-15.5H818.7z"/>
	<path class="st1" d="M821.5,172v-0.7h4.6v0.9c0,2.1,0.9,2.8,2.1,2.8s2.1-0.7,2.1-2.5c0-1.7-1.5-2.6-3.3-3.6c-2.4-1.4-5.2-3-5.2-7.3
		c0-3.8,2.2-6.3,6.4-6.3c3.9,0,6.4,2.5,6.4,6.7v0.5h-4.5v-0.6c0-1.8-0.7-2.5-1.9-2.5c-1,0-1.8,0.6-1.8,2.2c0,1.9,1.6,2.9,3.5,3.9
		c2.4,1.3,5.1,2.9,5.1,7c0,4-2.2,6.7-6.6,6.7C824,179,821.5,176.4,821.5,172z"/>
	<path class="st1" d="M854.8,172.4H849l-0.9,6.2h-4.6l5.1-31.5h6.7l5.1,31.5h-4.9L854.8,172.4z M854.1,168.1l-2.2-15.9l-2.2,15.9
		H854.1z"/>
	<path class="st1" d="M876.8,161.9v16.7h-4.8v-16.2c0-2-0.5-3-2-3c-1.4,0-2.4,0.9-2.4,3.7v15.5h-4.8v-22.9h4.1l0.1,2.7
		c0.8-2,2.5-3.1,4.6-3.1C874.9,155.2,876.8,157.1,876.8,161.9z"/>
	<path class="st1" d="M890.3,178.6c-0.1-0.3-0.3-1.3-0.4-2.7c-0.8,2-2.5,3.2-4.6,3.2c-3.2,0-5.2-2-5.2-6.7v-10.4
		c0-4.7,2-6.7,5.2-6.7c1.7,0,3.1,0.8,4.1,2.1v-10.2h4.8v24.9c0,3.2,0.2,5.3,0.5,6.6H890.3z M889.4,171.1v-8c0-2.7-1.1-3.7-2.5-3.7
		c-1.6,0-2,1.2-2,2.8v9.8c0,1.6,0.5,2.8,2,2.8C888.2,174.8,889.4,173.8,889.4,171.1z"/>
	<path class="st1" d="M907.9,155.4v4.6c-0.4-0.1-0.8-0.1-1.2-0.1c-2.7,0-4.1,1.8-4.1,5.4v13.2h-4.8v-22.9h4.1l0.1,3.9
		c0.6-2.9,2.1-4.3,4.5-4.3C907.1,155.2,907.5,155.2,907.9,155.4z"/>
	<path class="st1" d="M909.5,171.5v-8.9c0-4.8,2.5-7.5,7-7.5c4.5,0,7,2.7,7,7.5v8.9c0,4.8-2.5,7.5-7,7.5
		C912,179,909.5,176.3,909.5,171.5z M918.8,172v-9.8c0-1.6-0.5-2.8-2.2-2.8s-2.2,1.2-2.2,2.8v9.8c0,1.6,0.5,2.8,2.2,2.8
		S918.8,173.6,918.8,172z"/>
	<path class="st1" d="M949.7,161.9v16.7H945v-16.4c0-1.6-0.4-2.8-1.9-2.8c-1.3,0-2.4,1-2.4,3.7v15.5h-4.8v-16.4
		c0-1.6-0.4-2.8-1.9-2.8c-1.4,0-2.4,1-2.4,3.7v15.5h-4.8v-22.9h4.1l0.1,2.7c0.8-2,2.4-3.1,4.5-3.1c2.2,0,3.8,0.9,4.6,3.1
		c0.8-1.9,2.5-3.1,4.5-3.1C947.8,155.2,949.7,157.2,949.7,161.9z"/>
	<path class="st1" d="M967,162.6v5.5h-9.4v3.9c0,2,0.8,2.8,2.4,2.8c1.5,0,2.4-0.8,2.4-2.8v-0.9h4.6v0.4c0,4.8-2.5,7.5-7.1,7.5
		s-7.1-2.7-7.1-7.5v-8.9c0-4.8,2.5-7.5,7.1-7.5S967,157.9,967,162.6z M962.3,164.3v-2.2c0-2-0.9-2.8-2.3-2.8c-1.5,0-2.3,0.8-2.3,2.8
		v2.2H962.3z"/>
	<path class="st1" d="M980.1,178.6c-0.1-0.3-0.3-1.3-0.4-2.7c-0.8,2-2.5,3.2-4.6,3.2c-3.2,0-5.2-2-5.2-6.7v-10.4
		c0-4.7,2-6.7,5.2-6.7c1.7,0,3.1,0.8,4.1,2.1v-10.2h4.8v24.9c0,3.2,0.2,5.3,0.5,6.6H980.1z M979.2,171.1v-8c0-2.7-1.1-3.7-2.5-3.7
		c-1.6,0-2,1.2-2,2.8v9.8c0,1.6,0.5,2.8,2,2.8C978.1,174.8,979.2,173.8,979.2,171.1z"/>
	<path class="st1" d="M987.2,171.5v-8.9c0-4.8,2.5-7.5,7-7.5c4.5,0,7,2.7,7,7.5v8.9c0,4.8-2.5,7.5-7,7.5
		C989.7,179,987.2,176.3,987.2,171.5z M996.5,172v-9.8c0-1.6-0.5-2.8-2.2-2.8s-2.2,1.2-2.2,2.8v9.8c0,1.6,0.5,2.8,2.2,2.8
		S996.5,173.6,996.5,172z"/>
	<path class="st1" d="M1018.4,161.9v16.7h-4.8v-16.2c0-2-0.5-3-2-3c-1.4,0-2.4,0.9-2.4,3.7v15.5h-4.8v-22.9h4.1l0.1,2.7
		c0.8-2,2.5-3.1,4.6-3.1C1016.5,155.2,1018.4,157.1,1018.4,161.9z"/>
	<path class="st1" d="M1029.4,156.5h4.9v4.9h-4.9V156.5z M1029.4,173.6h4.9v5h-4.9V173.6z"/>
	<path class="st1" d="M1038.2,147.1h7.6c5,0,7.4,2.7,7.4,7.8v15.9c0,5-2.4,7.8-7.4,7.8h-7.6V147.1z M1045.6,174.1
		c1.6,0,2.5-0.8,2.5-3.1v-16.4c0-2.2-0.9-3.1-2.5-3.1h-2.5v22.5H1045.6z"/>
</g>
<path class="st2" d="M95.7,46.1l-48.3,95.1l129-86.8c-21.9,66.3-43.7,132.7-65.6,199.1C164.5,180,218.3,106.2,277.4,46.1
	c-26.8,62.3-48.8,130.8-65,203.1L363,67l-37.2,128.7l37.1-40.9"/>
<rect x="58.5" y="223.5" class="st1" width="270.3" height="14.7"/>
<rect x="57.4" y="220.5" class="st3" width="270.3" height="14.7"/>
<path class="st1" d="M64.6,143L110,35.7h27.2V143H149v22.7h-11.8v28.9h-25v-28.9H64.6V143z M112.2,143V84.3h-0.4L87.5,143H112.2z"/>
<path class="st1" d="M158.3,73.8c0-25.4,13.4-39.9,37.9-39.9s37.9,14.5,37.9,39.9v82.6c0,25.5-13.4,40-37.9,40s-37.9-14.5-37.9-40
	L158.3,73.8z M183.3,158c0,11.4,5,15.7,12.9,15.7s13-4.3,13-15.7V72.2c0-11.3-5-15.6-13-15.6s-12.9,4.3-12.9,15.6V158z"/>
<path class="st1" d="M244.3,143l45.4-107.3H317V143h11.8v22.7H317v28.9h-25v-28.9h-47.7V143z M292,143V84.3h-0.4L267.3,143H292z"/>
<path class="st3" d="M60.6,139L106,31.7h27.2V139H145v22.7h-11.8v28.9h-25v-28.9H60.6V139z M108.2,139V80.2h-0.4L83.5,139H108.2z"/>
<path class="st3" d="M154.3,69.8c0-25.4,13.4-39.9,37.9-39.9s37.9,14.5,37.9,39.9v82.6c0,25.5-13.4,40-37.9,40s-37.9-14.5-37.9-40
	L154.3,69.8z M179.3,154c0,11.4,5,15.7,12.9,15.7s13-4.3,13-15.7V68.2c0-11.3-5-15.6-13-15.6s-12.9,4.3-12.9,15.6V154z"/>
<path class="st3" d="M240.3,139l45.4-107.3H313V139h11.8v22.7H313v28.9h-25v-28.9h-47.7V139z M288,139V80.2h-0.4L263.3,139H288z"/>
<g>
	<path class="st3" d="M374.3,113.1V96.5c0-5,2.7-7.9,7.5-7.9c4.9,0,7.5,2.9,7.5,7.9v16.6c0,5-2.7,7.9-7.5,7.9
		C376.9,121,374.3,118.1,374.3,113.1z M384.3,113.4V96.2c0-2.2-1-3.1-2.6-3.1c-1.6,0-2.6,0.9-2.6,3.1v17.2c0,2.2,1,3.1,2.6,3.1
		C383.3,116.5,384.3,115.6,384.3,113.4z"/>
	<path class="st3" d="M392.3,113.1V96.5c0-5,2.7-7.9,7.5-7.9c4.9,0,7.5,2.9,7.5,7.9v16.6c0,5-2.7,7.9-7.5,7.9
		C394.9,121,392.3,118.1,392.3,113.1z M402.3,113.4V96.2c0-2.2-1-3.1-2.6-3.1c-1.6,0-2.6,0.9-2.6,3.1v17.2c0,2.2,1,3.1,2.6,3.1
		C401.3,116.5,402.3,115.6,402.3,113.4z"/>
	<path class="st3" d="M410.6,89.1h7.3c4.9,0,7.4,2.7,7.4,7.8v3.1c0,5-2.4,7.8-7.4,7.8h-2.3v12.8h-5V89.1z M417.9,103.2
		c1.6,0,2.4-0.7,2.4-3v-3.7c0-2.2-0.9-3-2.4-3h-2.3v9.7H417.9z"/>
	<path class="st3" d="M427.3,113.1v-1.8h4.7v2.2c0,2.2,1,3.1,2.6,3.1c1.6,0,2.6-0.8,2.6-3.1c0-2.6-1.1-4.2-4.3-7.1
		c-4.1-3.6-5.5-6.3-5.5-9.9c0-4.9,2.6-7.8,7.4-7.8c4.8,0,7.2,2.9,7.2,7.9v1.3h-4.7v-1.6c0-2.2-0.9-3.1-2.5-3.1c-1.6,0-2.5,0.9-2.5,3
		c0,2.3,1.1,3.9,4.4,6.8c4.1,3.6,5.5,6.2,5.5,10.1c0,5.1-2.6,8-7.5,8C429.7,121,427.3,118.1,427.3,113.1z"/>
	<path class="st3" d="M445,115.6h4.9v5H445V115.6z"/>
	<path class="st3" d="M454,115.6h4.9v5H454V115.6z"/>
	<path class="st3" d="M463,115.6h4.9v5H463V115.6z"/>
	<path class="st3" d="M485.1,101.7v13.1c0,1.4,0.5,2,1.8,2c0.5,0,1-0.1,1.6-0.3v4c-0.8,0.3-1.6,0.5-2.6,0.5c-3.8,0-5.6-1.8-5.6-5.6
		v-13.8h-2.6v-4h2.8l0.5-6.2h4.1v6.2h3.5v4H485.1z"/>
	<path class="st3" d="M505.2,103.9v16.7h-4.8v-16.2c0-2-0.5-3-2-3c-1.4,0-2.4,0.9-2.4,3.7v15.5h-4.8V89.1h4.8v10.2
		c0.9-1.4,2.3-2.1,4.1-2.1C503.2,97.2,505.2,99.1,505.2,103.9z"/>
	<path class="st3" d="M522.4,104.6v5.5H513v3.9c0,2,0.8,2.8,2.4,2.8c1.5,0,2.4-0.8,2.4-2.8v-0.9h4.6v0.4c0,4.8-2.5,7.5-7.1,7.5
		s-7.1-2.7-7.1-7.5v-8.9c0-4.8,2.5-7.5,7.1-7.5S522.4,99.9,522.4,104.6z M517.7,106.3v-2.2c0-2-0.9-2.8-2.3-2.8
		c-1.5,0-2.3,0.8-2.3,2.8v2.2H517.7z"/>
	<path class="st3" d="M546.8,103.9v10.4c0,4.7-2,6.7-5.2,6.7c-1.7,0-3.1-0.8-4.1-2.1v8.6h-4.8V97.6h4.1l0.1,2.7
		c0.8-2,2.5-3.1,4.6-3.1C544.8,97.2,546.8,99.1,546.8,103.9z M542,104.2c0-1.6-0.4-2.8-2-2.8c-1.4,0-2.5,1-2.5,3.7v8
		c0,2.7,1.1,3.7,2.5,3.7c1.6,0,2-1.2,2-2.8V104.2z"/>
	<path class="st3" d="M559.4,120.6c-0.1-0.3-0.3-1.3-0.4-2.7c-0.9,2-2.6,3.2-4.9,3.2c-3.1,0-5-2.2-5-5.8c0-3.6,1.5-5.7,5.5-7.6
		c3.3-1.6,3.7-2,3.7-3.3v-0.5c0-1.8-0.6-2.6-1.9-2.6c-1.5,0-2.2,0.9-2.2,2.7v0.9h-4.5v-0.6c0-4.5,2.3-7,6.7-7c4.8,0,6.7,2.5,6.7,7.6
		v9.2c0,3.2,0.2,5.3,0.5,6.6H559.4z M558.5,113.1v-3.9c-0.4,0.5-1.1,0.9-2.3,1.7c-1.4,0.9-2.2,2.1-2.2,3.6c0,1.6,0.7,2.5,2,2.5
		C557.6,116.9,558.5,115.6,558.5,113.1z"/>
	<path class="st3" d="M580.5,97.6v23.3c0,4.4-1.7,7.1-7.1,7.1c-4.5,0-6.8-2.2-6.8-6.2v-0.1h4.6v0.4c0,1.2,0.7,2,2.2,2
		c1.6,0,2.4-0.8,2.4-2.8v-3.5c-0.9,1.4-2.3,2.1-4,2.1c-3.2,0-5.2-2-5.2-6.7v-9.3c0-4.7,2-6.7,5.2-6.7c2.1,0,3.8,1.2,4.6,3.1l0.1-2.7
		H580.5z M575.8,112v-6.9c0-2.7-1.1-3.7-2.5-3.7c-1.6,0-2,1.2-2,2.8v8.7c0,1.6,0.5,2.8,2,2.8C574.6,115.6,575.8,114.7,575.8,112z"/>
	<path class="st3" d="M597.9,104.6v5.5h-9.4v3.9c0,2,0.8,2.8,2.4,2.8c1.5,0,2.4-0.8,2.4-2.8v-0.9h4.6v0.4c0,4.8-2.5,7.5-7.1,7.5
		s-7.1-2.7-7.1-7.5v-8.9c0-4.8,2.5-7.5,7.1-7.5S597.9,99.9,597.9,104.6z M593.2,106.3v-2.2c0-2-0.9-2.8-2.3-2.8
		c-1.5,0-2.3,0.8-2.3,2.8v2.2H593.2z"/>
	<path class="st3" d="M608.1,127.5v-4c0.5,0.2,1.1,0.3,1.8,0.3c1.6,0,2.2-0.5,2.5-1.9l0.1-0.3l-5.5-23.9h4.9l3.1,15.8l2.7-15.8h4.5
		l-5.1,24.9c-0.8,3.9-2.6,5.4-6.3,5.4C609.8,128,608.9,127.9,608.1,127.5z"/>
	<path class="st3" d="M623.8,113.5v-8.9c0-4.8,2.5-7.5,7-7.5c4.5,0,7,2.7,7,7.5v8.9c0,4.8-2.5,7.5-7,7.5
		C626.3,121,623.8,118.3,623.8,113.5z M633.1,114v-9.8c0-1.6-0.5-2.8-2.2-2.8s-2.2,1.2-2.2,2.8v9.8c0,1.6,0.5,2.8,2.2,2.8
		S633.1,115.6,633.1,114z"/>
	<path class="st3" d="M654.9,97.6v22.9h-4.1l-0.1-2.7c-0.8,2-2.5,3.1-4.6,3.1c-3.2,0-5.1-2-5.1-6.7V97.6h4.8v16.2c0,2,0.5,3,2,3
		c1.3,0,2.4-0.9,2.4-3.7V97.6H654.9z"/>
	<path class="st3" d="M679.8,103.9v16.7H675v-16.2c0-2-0.5-3-2-3c-1.4,0-2.4,0.9-2.4,3.7v15.5h-4.8V89.1h4.8v10.2
		c0.9-1.4,2.3-2.1,4.1-2.1C677.8,97.2,679.8,99.1,679.8,103.9z"/>
	<path class="st3" d="M692.6,120.6c-0.1-0.3-0.3-1.3-0.4-2.7c-0.9,2-2.6,3.2-4.9,3.2c-3.1,0-5-2.2-5-5.8c0-3.6,1.5-5.7,5.5-7.6
		c3.3-1.6,3.7-2,3.7-3.3v-0.5c0-1.8-0.6-2.6-1.9-2.6c-1.5,0-2.2,0.9-2.2,2.7v0.9H683v-0.6c0-4.5,2.3-7,6.7-7c4.8,0,6.7,2.5,6.7,7.6
		v9.2c0,3.2,0.2,5.3,0.5,6.6H692.6z M691.6,113.1v-3.9c-0.4,0.5-1.1,0.9-2.3,1.7c-1.4,0.9-2.2,2.1-2.2,3.6c0,1.6,0.7,2.5,2,2.5
		C690.8,116.9,691.6,115.6,691.6,113.1z"/>
	<path class="st3" d="M698.6,97.6h4.9l2.9,16.5l2.9-16.5h4.5l-4.6,22.9h-5.8L698.6,97.6z"/>
	<path class="st3" d="M729.7,104.6v5.5h-9.4v3.9c0,2,0.8,2.8,2.4,2.8c1.5,0,2.4-0.8,2.4-2.8v-0.9h4.6v0.4c0,4.8-2.5,7.5-7.1,7.5
		s-7.1-2.7-7.1-7.5v-8.9c0-4.8,2.5-7.5,7.1-7.5S729.7,99.9,729.7,104.6z M725,106.3v-2.2c0-2-0.9-2.8-2.3-2.8
		c-1.5,0-2.3,0.8-2.3,2.8v2.2H725z"/>
	<path class="st3" d="M750,97.4v4.6c-0.4-0.1-0.8-0.1-1.2-0.1c-2.7,0-4.1,1.8-4.1,5.4v13.2H740V97.6h4.1l0.1,3.9
		c0.6-2.9,2.1-4.3,4.5-4.3C749.3,97.2,749.7,97.2,750,97.4z"/>
	<path class="st3" d="M765.8,104.6v5.5h-9.4v3.9c0,2,0.8,2.8,2.4,2.8c1.5,0,2.4-0.8,2.4-2.8v-0.9h4.6v0.4c0,4.8-2.5,7.5-7.1,7.5
		s-7.1-2.7-7.1-7.5v-8.9c0-4.8,2.5-7.5,7.1-7.5S765.8,99.9,765.8,104.6z M761.2,106.3v-2.2c0-2-0.9-2.8-2.3-2.8
		c-1.5,0-2.3,0.8-2.3,2.8v2.2H761.2z"/>
	<path class="st3" d="M778.3,120.6c-0.1-0.3-0.3-1.3-0.4-2.7c-0.9,2-2.6,3.2-4.9,3.2c-3.1,0-5-2.2-5-5.8c0-3.6,1.5-5.7,5.5-7.6
		c3.3-1.6,3.7-2,3.7-3.3v-0.5c0-1.8-0.6-2.6-1.9-2.6c-1.5,0-2.2,0.9-2.2,2.7v0.9h-4.5v-0.6c0-4.5,2.3-7,6.7-7c4.8,0,6.7,2.5,6.7,7.6
		v9.2c0,3.2,0.2,5.3,0.5,6.6H778.3z M777.3,113.1v-3.9c-0.4,0.5-1.1,0.9-2.3,1.7c-1.4,0.9-2.2,2.1-2.2,3.6c0,1.6,0.7,2.5,2,2.5
		C776.5,116.9,777.3,115.6,777.3,113.1z"/>
	<path class="st3" d="M785.3,113.6v-9.1c0-4.7,2.4-7.4,7-7.4c4.6,0,6.8,2.9,6.8,7.4v1.4h-4.6v-1.8c0-1.7-0.6-2.7-2.2-2.7
		c-1.6,0-2.2,1-2.2,2.7v10c0,1.7,0.6,2.7,2.2,2.7c1.6,0,2.2-1,2.2-2.7v-2.3h4.6v1.8c0,4.5-2.2,7.4-6.8,7.4
		C787.7,121,785.3,118.3,785.3,113.6z"/>
	<path class="st3" d="M816,103.9v16.7h-4.8v-16.2c0-2-0.5-3-2-3c-1.4,0-2.4,0.9-2.4,3.7v15.5H802V89.1h4.8v10.2
		c0.9-1.4,2.3-2.1,4.1-2.1C814,97.2,816,99.1,816,103.9z"/>
	<path class="st3" d="M833.2,104.6v5.5h-9.4v3.9c0,2,0.8,2.8,2.4,2.8c1.5,0,2.4-0.8,2.4-2.8v-0.9h4.6v0.4c0,4.8-2.5,7.5-7.1,7.5
		s-7.1-2.7-7.1-7.5v-8.9c0-4.8,2.5-7.5,7.1-7.5S833.2,99.9,833.2,104.6z M828.5,106.3v-2.2c0-2-0.9-2.8-2.3-2.8
		c-1.5,0-2.3,0.8-2.3,2.8v2.2H828.5z"/>
	<path class="st3" d="M846.3,120.6c-0.1-0.3-0.3-1.3-0.4-2.7c-0.8,2-2.5,3.2-4.6,3.2c-3.2,0-5.2-2-5.2-6.7v-10.4
		c0-4.7,2-6.7,5.2-6.7c1.7,0,3.1,0.8,4.1,2.1V89.1h4.8v24.9c0,3.2,0.2,5.3,0.5,6.6H846.3z M845.4,113.1v-8c0-2.7-1.1-3.7-2.5-3.7
		c-1.6,0-2,1.2-2,2.8v9.8c0,1.6,0.5,2.8,2,2.8C844.3,116.8,845.4,115.8,845.4,113.1z"/>
	<path class="st3" d="M871,120.6c-0.1-0.3-0.3-1.3-0.4-2.7c-0.8,2-2.5,3.2-4.6,3.2c-3.2,0-5.2-2-5.2-6.7v-10.4c0-4.7,2-6.7,5.2-6.7
		c1.7,0,3.1,0.8,4.1,2.1V89.1h4.8v24.9c0,3.2,0.2,5.3,0.5,6.6H871z M870,113.1v-8c0-2.7-1.1-3.7-2.5-3.7c-1.6,0-2,1.2-2,2.8v9.8
		c0,1.6,0.5,2.8,2,2.8C868.9,116.8,870,115.8,870,113.1z"/>
	<path class="st3" d="M878,113.5v-8.9c0-4.8,2.5-7.5,7-7.5c4.5,0,7,2.7,7,7.5v8.9c0,4.8-2.5,7.5-7,7.5
		C880.5,121,878,118.3,878,113.5z M887.3,114v-9.8c0-1.6-0.5-2.8-2.2-2.8s-2.2,1.2-2.2,2.8v9.8c0,1.6,0.5,2.8,2.2,2.8
		S887.3,115.6,887.3,114z"/>
	<path class="st3" d="M909,104.6v5.5h-9.4v3.9c0,2,0.8,2.8,2.4,2.8c1.5,0,2.4-0.8,2.4-2.8v-0.9h4.6v0.4c0,4.8-2.5,7.5-7.1,7.5
		s-7.1-2.7-7.1-7.5v-8.9c0-4.8,2.5-7.5,7.1-7.5S909,99.9,909,104.6z M904.3,106.3v-2.2c0-2-0.9-2.8-2.3-2.8c-1.5,0-2.3,0.8-2.3,2.8
		v2.2H904.3z"/>
	<path class="st3" d="M911.2,114v-0.7h4.6v0.9c0,2.1,0.9,2.8,2.1,2.8s2.1-0.7,2.1-2.5c0-1.7-1.5-2.6-3.3-3.6c-2.4-1.4-5.2-3-5.2-7.3
		c0-3.8,2.2-6.3,6.4-6.3c3.9,0,6.4,2.5,6.4,6.7v0.5h-4.5v-0.6c0-1.8-0.7-2.5-1.9-2.5c-1,0-1.8,0.6-1.8,2.2c0,1.9,1.6,2.9,3.5,3.9
		c2.4,1.3,5.1,2.9,5.1,7c0,4-2.2,6.7-6.6,6.7C913.8,121,911.2,118.4,911.2,114z"/>
	<path class="st3" d="M941.5,103.9v16.7h-4.8v-16.2c0-2-0.5-3-2-3c-1.4,0-2.4,0.9-2.4,3.7v15.5h-4.8V97.6h4.1l0.1,2.7
		c0.8-2,2.5-3.1,4.6-3.1C939.5,97.2,941.5,99.1,941.5,103.9z"/>
	<path class="st3" d="M944.4,89.1h5l-1.2,10.2h-2.7L944.4,89.1z"/>
	<path class="st3" d="M958.8,101.7v13.1c0,1.4,0.5,2,1.8,2c0.5,0,1-0.1,1.6-0.3v4c-0.8,0.3-1.6,0.5-2.6,0.5c-3.8,0-5.6-1.8-5.6-5.6
		v-13.8h-2.6v-4h2.8l0.5-6.2h4.1v6.2h3.5v4H958.8z"/>
	<path class="st3" d="M985.8,104.6v5.5h-9.4v3.9c0,2,0.8,2.8,2.4,2.8c1.5,0,2.4-0.8,2.4-2.8v-0.9h4.6v0.4c0,4.8-2.5,7.5-7.1,7.5
		s-7.1-2.7-7.1-7.5v-8.9c0-4.8,2.5-7.5,7.1-7.5S985.8,99.9,985.8,104.6z M981.1,106.3v-2.2c0-2-0.9-2.8-2.3-2.8
		c-1.5,0-2.3,0.8-2.3,2.8v2.2H981.1z"/>
	<path class="st3" d="M992.1,108.8l-4.9-11.2h5.2l2.7,7.2l2.8-7.2h4.7l-4.9,11.2l5.1,11.8h-5.2l-3-7.9l-3.1,7.9H987L992.1,108.8z"/>
	<path class="st3" d="M1005.3,89.5h4.8v5.2h-4.8V89.5z M1005.3,97.6h4.8v22.9h-4.8V97.6z"/>
	<path class="st3" d="M1012.9,114v-0.7h4.6v0.9c0,2.1,0.9,2.8,2.1,2.8s2.1-0.7,2.1-2.5c0-1.7-1.5-2.6-3.3-3.6
		c-2.4-1.4-5.2-3-5.2-7.3c0-3.8,2.2-6.3,6.4-6.3c3.9,0,6.4,2.5,6.4,6.7v0.5h-4.5v-0.6c0-1.8-0.7-2.5-1.9-2.5c-1,0-1.8,0.6-1.8,2.2
		c0,1.9,1.6,2.9,3.5,3.9c2.4,1.3,5.1,2.9,5.1,7c0,4-2.2,6.7-6.6,6.7C1015.4,121,1012.9,118.4,1012.9,114z"/>
	<path class="st3" d="M1035.1,101.7v13.1c0,1.4,0.5,2,1.8,2c0.5,0,1-0.1,1.6-0.3v4c-0.8,0.3-1.6,0.5-2.6,0.5c-3.8,0-5.6-1.8-5.6-5.6
		v-13.8h-2.6v-4h2.8l0.5-6.2h4.1v6.2h3.5v4H1035.1z"/>
	<path class="st3" d="M1041.4,115.6h4.9v5h-4.9V115.6z"/>
	<path class="st3" d="M1050.4,115.6h4.9v5h-4.9V115.6z"/>
	<path class="st3" d="M1059.4,115.6h4.9v5h-4.9V115.6z"/>
	<path class="st3" d="M374.6,143.1h5v31.5h-5V143.1z"/>
	<path class="st3" d="M382.9,143.1h5l-1.2,10.2H384L382.9,143.1z"/>
	<path class="st3" d="M414.1,157.9v16.7h-4.8v-16.4c0-1.6-0.4-2.8-1.9-2.8c-1.3,0-2.4,1-2.4,3.7v15.5h-4.8v-16.4
		c0-1.6-0.4-2.8-1.9-2.8c-1.4,0-2.4,1-2.4,3.7v15.5h-4.8v-22.9h4.1l0.1,2.7c0.8-2,2.4-3.1,4.5-3.1c2.2,0,3.8,0.9,4.6,3.1
		c0.8-1.9,2.5-3.1,4.5-3.1C412.2,151.2,414.1,153.2,414.1,157.9z"/>
	<path class="st3" d="M424.4,167.5v-8.9c0-4.8,2.5-7.5,7-7.5c4.5,0,7,2.7,7,7.5v8.9c0,4.8-2.5,7.5-7,7.5
		C427,175,424.4,172.3,424.4,167.5z M433.7,168v-9.8c0-1.6-0.5-2.8-2.2-2.8s-2.2,1.2-2.2,2.8v9.8c0,1.6,0.5,2.8,2.2,2.8
		S433.7,169.6,433.7,168z"/>
	<path class="st3" d="M455.7,157.9v16.7h-4.8v-16.2c0-2-0.5-3-2-3c-1.4,0-2.4,0.9-2.4,3.7v15.5h-4.8v-22.9h4.1l0.1,2.7
		c0.8-2,2.5-3.1,4.6-3.1C453.7,151.2,455.7,153.1,455.7,157.9z"/>
	<path class="st3" d="M466.4,143.5h4.8v5.2h-4.8V143.5z M466.4,151.6h4.8v22.9h-4.8V151.6z"/>
	<path class="st3" d="M480.9,155.7v13.1c0,1.4,0.5,2,1.8,2c0.5,0,1-0.1,1.6-0.3v4c-0.8,0.3-1.6,0.5-2.6,0.5c-3.8,0-5.6-1.8-5.6-5.6
		v-13.8h-2.6v-4h2.8l0.5-6.2h4.1v6.2h3.5v4H480.9z"/>
	<path class="st3" d="M489,174.6h-1.7v-5h4.9v4.5l-2.8,5.9h-2.3L489,174.6z"/>
	<path class="st3" d="M517.3,157.9v10.4c0,4.7-2,6.7-5.2,6.7c-2.2,0-4-1.3-4.7-3.5l-0.6,3.1h-3.5v-31.5h4.8v10.2
		c0.9-1.3,2.3-2.1,4.1-2.1C515.3,151.2,517.3,153.1,517.3,157.9z M512.5,158.2c0-1.6-0.4-2.8-2-2.8c-1.4,0-2.5,1-2.5,3.7v8
		c0,2.7,1.1,3.7,2.5,3.7c1.6,0,2-1.2,2-2.8V158.2z"/>
	<path class="st3" d="M534.5,151.6v22.9h-4.1l-0.1-2.7c-0.8,2-2.5,3.1-4.6,3.1c-3.2,0-5.1-2-5.1-6.7v-16.7h4.8v16.2c0,2,0.5,3,2,3
		c1.3,0,2.4-0.9,2.4-3.7v-15.5H534.5z"/>
	<path class="st3" d="M544.3,155.7v13.1c0,1.4,0.5,2,1.8,2c0.5,0,1-0.1,1.6-0.3v4c-0.8,0.3-1.6,0.5-2.6,0.5c-3.8,0-5.6-1.8-5.6-5.6
		v-13.8h-2.6v-4h2.8l0.5-6.2h4.1v6.2h3.5v4H544.3z"/>
	<path class="st3" d="M563.7,148.8v2.8h3.5v4h-3.5v18.9h-4.8v-18.9h-2.6v-4h2.6v-3.4c0-3.7,1.8-5.6,5.6-5.6c1,0,1.8,0.1,2.6,0.4v4
		c-0.6-0.2-1.1-0.3-1.6-0.3C564.2,146.8,563.7,147.4,563.7,148.8z"/>
	<path class="st3" d="M569,167.5v-8.9c0-4.8,2.5-7.5,7-7.5c4.5,0,7,2.7,7,7.5v8.9c0,4.8-2.5,7.5-7,7.5
		C571.5,175,569,172.3,569,167.5z M578.2,168v-9.8c0-1.6-0.5-2.8-2.2-2.8s-2.2,1.2-2.2,2.8v9.8c0,1.6,0.5,2.8,2.2,2.8
		S578.2,169.6,578.2,168z"/>
	<path class="st3" d="M596.3,151.4v4.6c-0.4-0.1-0.8-0.1-1.2-0.1c-2.7,0-4.1,1.8-4.1,5.4v13.2h-4.8v-22.9h4.1l0.1,3.9
		c0.6-2.9,2.1-4.3,4.5-4.3C595.5,151.2,595.9,151.2,596.3,151.4z"/>
	<path class="st3" d="M619.6,157.9v16.7h-4.8v-16.2c0-2-0.5-3-2-3c-1.4,0-2.4,0.9-2.4,3.7v15.5h-4.8v-22.9h4.1l0.1,2.7
		c0.8-2,2.5-3.1,4.6-3.1C617.7,151.2,619.6,153.1,619.6,157.9z"/>
	<path class="st3" d="M622.7,167.5v-8.9c0-4.8,2.5-7.5,7-7.5c4.5,0,7,2.7,7,7.5v8.9c0,4.8-2.5,7.5-7,7.5
		C625.3,175,622.7,172.3,622.7,167.5z M632,168v-9.8c0-1.6-0.5-2.8-2.2-2.8s-2.2,1.2-2.2,2.8v9.8c0,1.6,0.5,2.8,2.2,2.8
		S632,169.6,632,168z"/>
	<path class="st3" d="M638.8,151.6h4.7l2.4,16.5l2.2-16.5h4.8l2.2,16.5l2.4-16.5h4.2l-3.5,22.9h-5.8l-2.2-14.1l-2.2,14.1h-6.1
		L638.8,151.6z"/>
	<path class="st3" d="M685.5,157.9v16.7h-4.8v-16.2c0-2-0.5-3-2-3c-1.4,0-2.4,0.9-2.4,3.7v15.5h-4.8v-31.5h4.8v10.2
		c0.9-1.3,2.3-2.1,4.1-2.1C683.6,151.2,685.5,153.1,685.5,157.9z"/>
	<path class="st3" d="M702.8,158.6v5.5h-9.4v3.9c0,2,0.8,2.8,2.4,2.8c1.5,0,2.4-0.8,2.4-2.8v-0.9h4.6v0.4c0,4.8-2.5,7.5-7.1,7.5
		s-7.1-2.7-7.1-7.5v-8.9c0-4.8,2.5-7.5,7.1-7.5S702.8,153.9,702.8,158.6z M698.1,160.3v-2.2c0-2-0.9-2.8-2.3-2.8
		c-1.5,0-2.3,0.8-2.3,2.8v2.2H698.1z"/>
	<path class="st3" d="M715.9,151.4v4.6c-0.4-0.1-0.8-0.1-1.2-0.1c-2.7,0-4.1,1.8-4.1,5.4v13.2h-4.8v-22.9h4.1l0.1,3.9
		c0.6-2.9,2.1-4.3,4.5-4.3C715.2,151.2,715.6,151.2,715.9,151.4z"/>
	<path class="st3" d="M731.7,158.6v5.5h-9.4v3.9c0,2,0.8,2.8,2.4,2.8c1.5,0,2.4-0.8,2.4-2.8v-0.9h4.6v0.4c0,4.8-2.5,7.5-7.1,7.5
		s-7.1-2.7-7.1-7.5v-8.9c0-4.8,2.5-7.5,7.1-7.5S731.7,153.9,731.7,158.6z M727.1,160.3v-2.2c0-2-0.9-2.8-2.3-2.8
		c-1.5,0-2.3,0.8-2.3,2.8v2.2H727.1z"/>
	<path class="st3" d="M733.8,143.1h5l-1.2,10.2H735L733.8,143.1z"/>
	<path class="st3" d="M740.3,168v-0.7h4.6v0.9c0,2.1,0.9,2.8,2.1,2.8s2.1-0.7,2.1-2.5c0-1.7-1.5-2.6-3.3-3.6c-2.4-1.4-5.2-3-5.2-7.3
		c0-3.8,2.2-6.3,6.4-6.3c3.9,0,6.4,2.5,6.4,6.7v0.5h-4.5v-0.6c0-1.8-0.7-2.5-1.9-2.5c-1,0-1.8,0.6-1.8,2.2c0,1.9,1.6,2.9,3.5,3.9
		c2.4,1.3,5.1,2.9,5.1,7c0,4-2.2,6.7-6.6,6.7C742.8,175,740.3,172.4,740.3,168z"/>
	<path class="st3" d="M767.7,147.6h-5.2v-4.5h15.3v4.5h-5.2v27h-5V147.6z"/>
	<path class="st3" d="M780.2,143.5h4.8v5.2h-4.8V143.5z M780.2,151.6h4.8v22.9h-4.8V151.6z"/>
	<path class="st3" d="M794.7,155.7v13.1c0,1.4,0.5,2,1.8,2c0.5,0,1-0.1,1.6-0.3v4c-0.8,0.3-1.6,0.5-2.6,0.5c-3.8,0-5.6-1.8-5.6-5.6
		v-13.8h-2.6v-4h2.8l0.5-6.2h4.1v6.2h3.5v4H794.7z"/>
	<path class="st3" d="M814.7,151.6v22.9h-4.1l-0.1-2.7c-0.8,2-2.5,3.1-4.6,3.1c-3.2,0-5.1-2-5.1-6.7v-16.7h4.8v16.2c0,2,0.5,3,2,3
		c1.3,0,2.4-0.9,2.4-3.7v-15.5H814.7z"/>
	<path class="st3" d="M817.5,168v-0.7h4.6v0.9c0,2.1,0.9,2.8,2.1,2.8s2.1-0.7,2.1-2.5c0-1.7-1.5-2.6-3.3-3.6c-2.4-1.4-5.2-3-5.2-7.3
		c0-3.8,2.2-6.3,6.4-6.3c3.9,0,6.4,2.5,6.4,6.7v0.5H826v-0.6c0-1.8-0.7-2.5-1.9-2.5c-1,0-1.8,0.6-1.8,2.2c0,1.9,1.6,2.9,3.5,3.9
		c2.4,1.3,5.1,2.9,5.1,7c0,4-2.2,6.7-6.6,6.7C820,175,817.5,172.4,817.5,168z"/>
	<path class="st3" d="M850.8,168.4H845l-0.9,6.2h-4.6l5.1-31.5h6.7l5.1,31.5h-4.9L850.8,168.4z M850.1,164.1l-2.2-15.9l-2.2,15.9
		H850.1z"/>
	<path class="st3" d="M872.8,157.9v16.7h-4.8v-16.2c0-2-0.5-3-2-3c-1.4,0-2.4,0.9-2.4,3.7v15.5h-4.8v-22.9h4.1l0.1,2.7
		c0.8-2,2.5-3.1,4.6-3.1C870.9,151.2,872.8,153.1,872.8,157.9z"/>
	<path class="st3" d="M886.3,174.6c-0.1-0.3-0.3-1.3-0.4-2.7c-0.8,2-2.5,3.2-4.6,3.2c-3.2,0-5.2-2-5.2-6.7v-10.4
		c0-4.7,2-6.7,5.2-6.7c1.7,0,3.1,0.8,4.1,2.1v-10.2h4.8v24.9c0,3.2,0.2,5.3,0.5,6.6H886.3z M885.4,167.1v-8c0-2.7-1.1-3.7-2.5-3.7
		c-1.6,0-2,1.2-2,2.8v9.8c0,1.6,0.5,2.8,2,2.8C884.2,170.8,885.4,169.8,885.4,167.1z"/>
	<path class="st3" d="M903.9,151.4v4.6c-0.4-0.1-0.8-0.1-1.2-0.1c-2.7,0-4.1,1.8-4.1,5.4v13.2h-4.8v-22.9h4.1l0.1,3.9
		c0.6-2.9,2.1-4.3,4.5-4.3C903.1,151.2,903.5,151.2,903.9,151.4z"/>
	<path class="st3" d="M905.5,167.5v-8.9c0-4.8,2.5-7.5,7-7.5c4.5,0,7,2.7,7,7.5v8.9c0,4.8-2.5,7.5-7,7.5
		C908,175,905.5,172.3,905.5,167.5z M914.8,168v-9.8c0-1.6-0.5-2.8-2.2-2.8s-2.2,1.2-2.2,2.8v9.8c0,1.6,0.5,2.8,2.2,2.8
		S914.8,169.6,914.8,168z"/>
	<path class="st3" d="M945.7,157.9v16.7H941v-16.4c0-1.6-0.4-2.8-1.9-2.8c-1.3,0-2.4,1-2.4,3.7v15.5h-4.8v-16.4
		c0-1.6-0.4-2.8-1.9-2.8c-1.4,0-2.4,1-2.4,3.7v15.5h-4.8v-22.9h4.1l0.1,2.7c0.8-2,2.4-3.1,4.5-3.1c2.2,0,3.8,0.9,4.6,3.1
		c0.8-1.9,2.5-3.1,4.5-3.1C943.8,151.2,945.7,153.2,945.7,157.9z"/>
	<path class="st3" d="M963,158.6v5.5h-9.4v3.9c0,2,0.8,2.8,2.4,2.8c1.5,0,2.4-0.8,2.4-2.8v-0.9h4.6v0.4c0,4.8-2.5,7.5-7.1,7.5
		s-7.1-2.7-7.1-7.5v-8.9c0-4.8,2.5-7.5,7.1-7.5S963,153.9,963,158.6z M958.3,160.3v-2.2c0-2-0.9-2.8-2.3-2.8c-1.5,0-2.3,0.8-2.3,2.8
		v2.2H958.3z"/>
	<path class="st3" d="M976.1,174.6c-0.1-0.3-0.3-1.3-0.4-2.7c-0.8,2-2.5,3.2-4.6,3.2c-3.2,0-5.2-2-5.2-6.7v-10.4
		c0-4.7,2-6.7,5.2-6.7c1.7,0,3.1,0.8,4.1,2.1v-10.2h4.8v24.9c0,3.2,0.2,5.3,0.5,6.6H976.1z M975.2,167.1v-8c0-2.7-1.1-3.7-2.5-3.7
		c-1.6,0-2,1.2-2,2.8v9.8c0,1.6,0.5,2.8,2,2.8C974.1,170.8,975.2,169.8,975.2,167.1z"/>
	<path class="st3" d="M983.2,167.5v-8.9c0-4.8,2.5-7.5,7-7.5c4.5,0,7,2.7,7,7.5v8.9c0,4.8-2.5,7.5-7,7.5
		C985.7,175,983.2,172.3,983.2,167.5z M992.5,168v-9.8c0-1.6-0.5-2.8-2.2-2.8s-2.2,1.2-2.2,2.8v9.8c0,1.6,0.5,2.8,2.2,2.8
		S992.5,169.6,992.5,168z"/>
	<path class="st3" d="M1014.4,157.9v16.7h-4.8v-16.2c0-2-0.5-3-2-3c-1.4,0-2.4,0.9-2.4,3.7v15.5h-4.8v-22.9h4.1l0.1,2.7
		c0.8-2,2.5-3.1,4.6-3.1C1012.5,151.2,1014.4,153.1,1014.4,157.9z"/>
	<path class="st3" d="M1025.4,152.5h4.9v4.9h-4.9V152.5z M1025.4,169.6h4.9v5h-4.9V169.6z"/>
	<path class="st3" d="M1034.2,143.1h7.6c5,0,7.4,2.7,7.4,7.8v15.9c0,5-2.4,7.8-7.4,7.8h-7.6V143.1z M1041.6,170.1
		c1.6,0,2.5-0.8,2.5-3.1v-16.4c0-2.2-0.9-3.1-2.5-3.1h-2.5v22.5H1041.6z"/>
</g>
</svg>
