<?xml version="1.0" encoding="utf-8"?>
<!-- Generator: Adobe Illustrator 25.0.1, SVG Export Plug-In . SVG Version: 6.00 Build 0)  -->
<svg version="1.1" id="Layer_1" xmlns="http://www.w3.org/2000/svg" xmlns:xlink="http://www.w3.org/1999/xlink" x="0px" y="0px"
	 viewBox="0 0 529 482" style="enable-background:new 0 0 529 482;" xml:space="preserve">
<style type="text/css">
	.st0{fill:none;stroke:#F37021;stroke-width:72.89;stroke-linecap:round;stroke-linejoin:round;}
	.st1{fill:#FFFFFF;}
	.st2{fill:#2D315D;}
</style>
<path class="st0" d="M139.8,44.3c-39.9,49-73.2,105.1-98.6,165.6C106.3,170,199.8,87.3,265,47.3C222.1,124.3,77,354.6,44.4,438
	c99-97.4,282.6-327.6,392.4-398.1c-46.9,117.2-148.1,296.3-209,405.5C350.7,374.3,393,313.8,471.6,274.7"/>
<path class="st1" d="M143,193.9h-25.2l-4.3-28.8H82.8l-4.3,28.8H55.6L81,35h36.6L143,193.9z M86,143.5h24.1L98.3,63.1h-0.5L86,143.5
	z"/>
<path class="st1" d="M229.3,71.5v5.7c0,16.4-5,26.6-16.2,31.8v0.5c13.4,5.2,18.7,17,18.7,33.8v12.9c0,24.5-13,37.7-38,37.7h-39.2V35
	h37.7C218.1,35,229.3,47,229.3,71.5z M179.5,57.7v42h9.8c9.3,0,15-4.1,15-16.8V74c0-11.3-3.9-16.3-12.7-16.3H179.5z M179.5,122.4
	v48.8h14.3c8.4,0,13-3.9,13-15.7v-13.8c0-14.8-4.8-19.3-16.1-19.3H179.5z"/>
<path class="st1" d="M244.7,73.1c0-25.4,13.4-39.9,37.9-39.9s37.9,14.5,37.9,39.9v82.7c0,25.4-13.4,39.9-37.9,39.9
	s-37.9-14.5-37.9-39.9L244.7,73.1z M269.7,157.3c0,11.4,5,15.7,12.9,15.7s12.9-4.3,12.9-15.7V71.5c0-11.3-5-15.6-12.9-15.6
	s-12.9,4.3-12.9,15.6V157.3z"/>
<path class="st1" d="M360.5,35v122.6c0,11.3,5,15.4,12.9,15.4s12.9-4.1,12.9-15.4V35h23.6v121c0,25.4-12.7,39.9-37.2,39.9
	s-37.2-14.5-37.2-39.9V35H360.5z"/>
<path class="st1" d="M419.7,35h77.2v22.7h-26.1v136.2h-25V57.7h-26.1V35z"/>
<path class="st1" d="M114.8,357.8h0.5L132.1,245h34.7v158.9h-23.6v-114h-0.4l-16.8,114h-23.6L84.2,291.5h-0.5v112.4H62V245h34.7
	L114.8,357.8z"/>
<path class="st1" d="M210,312h34.2v22.7H210v46.5h43.1v22.7H185V245h68.1v22.7H210V312z"/>
<path class="st1" d="M271.7,368.7l-3.2-57.4V245h25v66.3l-3.2,57.4L271.7,368.7z M293,379.8v24.1h-24v-24.1H293z"/>
<path class="st2" d="M139,189.9h-25.2l-4.3-28.8H78.8l-4.3,28.8H51.6L77,31h36.6L139,189.9z M82,139.5h24.1L94.3,59.1h-0.5L82,139.5
	z"/>
<path class="st2" d="M225.3,67.5v5.7c0,16.4-5,26.6-16.2,31.8v0.4c13.4,5.3,18.7,17.1,18.7,33.9v12.9c0,24.5-13,37.7-38,37.7h-39.2
	V31h37.7C214.1,31,225.3,43,225.3,67.5z M175.5,53.7v42h9.8c9.3,0,15-4.1,15-16.8V70c0-11.3-3.9-16.3-12.7-16.3H175.5z M175.5,118.4
	v48.8h14.3c8.4,0,13-3.9,13-15.7v-13.8c0-14.8-4.8-19.3-16.1-19.3H175.5z"/>
<path class="st2" d="M240.7,69.1c0-25.4,13.4-39.9,37.9-39.9s37.9,14.5,37.9,39.9v82.7c0,25.4-13.4,39.9-37.9,39.9
	s-37.9-14.5-37.9-39.9L240.7,69.1z M265.7,153.3c0,11.4,5,15.7,12.9,15.7s12.9-4.3,12.9-15.7V67.5c0-11.3-5-15.6-12.9-15.6
	s-12.9,4.3-12.9,15.6V153.3z"/>
<path class="st2" d="M356.5,31v122.6c0,11.3,4.9,15.4,12.9,15.4s12.9-4.1,12.9-15.4V31h23.6v121c0,25.4-12.7,39.9-37.2,39.9
	s-37.2-14.5-37.2-39.9V31H356.5z"/>
<path class="st2" d="M415.7,31h77.2v22.7h-26.1v136.2h-25V53.7h-26.1V31z"/>
<path class="st2" d="M110.8,353.8h0.5L128.1,241h34.7v158.9h-23.6v-114h-0.4l-16.8,114H98.4L80.2,287.5h-0.5v112.4H58V241h34.7
	L110.8,353.8z"/>
<path class="st2" d="M206,308h34.2v22.7H206v46.5h43.1v22.7H181V241h68.1v22.7H206V308z"/>
<path class="st2" d="M267.7,364.7l-3.2-57.4V241h25v66.3l-3.2,57.4L267.7,364.7z M289,375.8v24.1h-24v-24.1H289z"/>
<rect x="59.2" y="434.7" class="st1" width="437.7" height="14.7"/>
<rect x="57.4" y="430.7" class="st2" width="437.7" height="14.7"/>
</svg>
