<svg id="Layer_1" data-name="Layer 1" xmlns="http://www.w3.org/2000/svg" width="26.7in" height="15in" viewBox="0 0 1920 1080"><rect x="1.7" width="1918.3" height="1080" fill="#f7f4e4"/><path d="M119.5,62.4,108.6,48.2l-14.1,14L80.3,46.6c-4.4,6.3-13.5,13.8-18,20.2-4.1-6-8.8-11-13.5-16.9l-16,15.8c-1.5-5.4-4.9-10.8-7.7-16.2" fill="none" stroke="#e1b000" stroke-linecap="round" stroke-linejoin="round" stroke-width="12.81"/><path d="M203.1,90l10-7.6-9.9-10,11-10c-4.4-3.1-9.7-9.6-14.2-12.7,4.2-2.9,7.7-6.3,11.9-9.5L200.8,28.8c3.8-1,7.6-3.4,11.4-5.4" fill="none" stroke="#0096a4" stroke-linecap="round" stroke-linejoin="round" stroke-width="9.05"/><path d="M474.8,90l10-7.6-9.9-10,11-10c-4.4-3.1-9.7-9.6-14.2-12.7,4.2-2.9,7.7-6.3,11.9-9.5L472.5,28.8c3.8-1,7.6-3.4,11.4-5.4" fill="none" stroke="#e1b000" stroke-linecap="round" stroke-linejoin="round" stroke-width="9.05"/><path d="M746.6,90l10-7.6-9.9-10,11-10c-4.4-3.1-9.7-9.6-14.2-12.7,4.2-2.9,7.7-6.3,11.9-9.5L744.3,28.8c3.7-1,7.5-3.4,11.3-5.4" fill="none" stroke="#f37021" stroke-linecap="round" stroke-linejoin="round" stroke-width="9.05"/><path d="M203.1,302.9l10-7.6-9.9-10,11-10c-4.4-3.1-9.7-9.6-14.2-12.7,4.2-2.9,7.7-6.3,11.9-9.5l-11.1-11.4c3.8-1,7.6-3.4,11.4-5.4" fill="none" stroke="#2d315d" stroke-linecap="round" stroke-linejoin="round" stroke-width="9.05"/><path d="M474.8,302.9l10-7.6-9.9-10,11-10c-4.4-3.1-9.7-9.6-14.2-12.7,4.2-2.9,7.7-6.3,11.9-9.5l-11.1-11.4c3.8-1,7.6-3.4,11.4-5.4" fill="none" stroke="#0096a4" stroke-linecap="round" stroke-linejoin="round" stroke-width="9.05"/><path d="M746.6,302.9l10-7.6-9.9-10,11-10c-4.4-3.1-9.7-9.6-14.2-12.7,4.2-2.9,7.7-6.3,11.9-9.5l-11.1-11.4c3.7-1,7.5-3.4,11.3-5.4" fill="none" stroke="#e1b000" stroke-linecap="round" stroke-linejoin="round" stroke-width="9.05"/><path d="M203.1,519.3l10-7.6-9.9-10,11-10c-4.4-3.1-9.7-9.6-14.2-12.7,4.2-2.9,7.7-6.3,11.9-9.5l-11.1-11.4c3.8-1,7.6-3.5,11.4-5.4" fill="none" stroke="#f37021" stroke-linecap="round" stroke-linejoin="round" stroke-width="9.05"/><path d="M474.8,519.3l10-7.6-9.9-10,11-10c-4.4-3.1-9.7-9.6-14.2-12.7,4.2-2.9,7.7-6.3,11.9-9.5l-11.1-11.4c3.8-1,7.6-3.5,11.4-5.4" fill="none" stroke="#2d315d" stroke-linecap="round" stroke-linejoin="round" stroke-width="9.05"/><path d="M746.6,519.3l10-7.6-9.9-10,11-10c-4.4-3.1-9.7-9.6-14.2-12.7,4.2-2.9,7.7-6.3,11.9-9.5l-11.1-11.4c3.7-1,7.5-3.5,11.3-5.4" fill="none" stroke="#0096a4" stroke-linecap="round" stroke-linejoin="round" stroke-width="9.05"/><path d="M88.1,50.4c-3.3-2.6-6.6-5.3-10.2-7.6a72.7,72.7,0,0,0-8.6-5.2c-2.6-1.7-5.3-3-5.9-6.3A7.5,7.5,0,0,1,71,22c4.9,0,7.6,2.4,7.6,9v3.6H93.1v-3c0-14.5-7.6-22.8-22.5-22.8-7.9,0-15.1,2.7-19.1,9s-5.6,14.8,0,20.4,16.2,9.9,23.1,16.5H93.1C91.8,53.4,90.1,52.1,88.1,50.4Z" fill="#2d315d"/><path d="M53.5,59c3.3,2.6,6.6,5.3,10.2,7.6a73.2,73.2,0,0,0,8.6,5.3c2.6,1.6,5.3,2.9,5.9,6.2s-1.9,9.3-7.6,9.3S63,85.1,63,78.5V74.8H48.5v3c0,14.5,7.6,22.8,22.5,22.8,7.9,0,15.2-2.7,19.1-8.9s5.6-14.9,0-20.5S73.9,61.3,67,54.7H48.5A55.6,55.6,0,0,0,53.5,59Z" fill="#2d315d"/><path d="M391.5,62.4,380.6,48.2l-14.1,14L352.3,46.6c-4.4,6.3-13.5,13.8-18,20.2-4.1-6-8.8-11-13.4-16.9L304.8,65.7c-1.5-5.4-4.9-10.8-7.7-16.2" fill="none" stroke="#f37021" stroke-linecap="round" stroke-linejoin="round" stroke-width="12.81"/><path d="M360.1,50.4c-3.3-2.6-6.6-5.3-10.2-7.6a72.7,72.7,0,0,0-8.6-5.2c-2.6-1.7-5.3-3-5.9-6.3A7.5,7.5,0,0,1,343,22c4.9,0,7.6,2.4,7.6,9v3.6h14.5v-3c0-14.5-7.6-22.8-22.5-22.8-7.9,0-15.1,2.7-19.1,9s-5.6,14.8,0,20.4,16.2,9.9,23.1,16.5h18.5C363.8,53.4,362.1,52.1,360.1,50.4Z" fill="#0096a4"/><path d="M325.5,59c3.3,2.6,6.6,5.3,10.2,7.6a82.5,82.5,0,0,0,8.6,5.3c2.6,1.6,5.3,2.9,5.9,6.2s-1.9,9.3-7.6,9.3-7.5-2.3-7.5-8.9V74.8H320.5v3c0,14.5,7.6,22.8,22.5,22.8,7.9,0,15.2-2.7,19.1-8.9s5.6-14.9,0-20.5S345.9,61.3,339,54.7H320.5C321.9,56,323.8,57.7,325.5,59Z" fill="#0096a4"/><path d="M663.5,62.4,652.6,48.2l-14.1,14L624.3,46.6c-4.3,6.3-13.5,13.8-17.9,20.2-4.2-6-8.9-11-13.5-16.9L576.8,65.7c-1.5-5.4-4.9-10.8-7.7-16.2" fill="none" stroke="#2d315d" stroke-linecap="round" stroke-linejoin="round" stroke-width="12.81"/><path d="M632.1,50.4c-3.3-2.6-6.6-5.3-10.2-7.6a72.7,72.7,0,0,0-8.6-5.2c-2.6-1.7-5.2-3-5.9-6.3A7.5,7.5,0,0,1,615,22c4.9,0,7.6,2.4,7.6,9v3.6h14.5v-3c0-14.5-7.6-22.8-22.4-22.8-8,0-15.2,2.7-19.2,9s-5.6,14.8,0,20.4,16.2,9.9,23.1,16.5h18.5C635.8,53.4,634.1,52.1,632.1,50.4Z" fill="#e1b000"/><path d="M597.5,59c3.3,2.6,6.6,5.3,10.2,7.6a82.5,82.5,0,0,0,8.6,5.3c2.6,1.6,5.3,2.9,5.9,6.2s-1.9,9.3-7.5,9.3-7.6-2.3-7.6-8.9V74.8H592.5v3c0,14.5,7.6,22.8,22.5,22.8,7.9,0,15.2-2.7,19.1-8.9s5.6-14.9,0-20.5S618,61.3,611,54.7H592.5C593.9,56,595.8,57.7,597.5,59Z" fill="#e1b000"/><path d="M256.1,169.6l-10.9-14.1-14.1,14-14.2-15.6c-4.4,6.2-13.5,13.8-18,20.2-4.1-6-8.8-11-13.5-16.9l-16,15.7c-1.5-5.3-4.9-10.7-7.8-16.1" fill="none" stroke="#e1b000" stroke-linecap="round" stroke-linejoin="round" stroke-width="12.81"/><path d="M224.7,157.7c-3.3-2.6-6.6-5.3-10.2-7.6a82.5,82.5,0,0,0-8.6-5.3c-2.6-1.6-5.3-2.9-5.9-6.2s1.9-9.3,7.6-9.3,7.5,2.3,7.5,8.9v3.7h14.6v-3c0-14.5-7.6-22.8-22.5-22.8-7.9,0-15.2,2.7-19.1,8.9s-5.6,14.9,0,20.5,16.2,9.9,23.1,16.5h18.5C228.4,160.7,226.7,159.4,224.7,157.7Z" fill="#2d315d"/><path d="M190.1,166.3c3.3,2.6,6.6,5.3,10.2,7.6a73.2,73.2,0,0,0,8.6,5.3c2.6,1.6,5.3,2.9,5.9,6.2a7.5,7.5,0,0,1-7.6,9.3c-4.9,0-7.6-2.3-7.6-8.9v-3.7H185.1v3c0,14.5,7.6,22.8,22.5,22.8,7.9,0,15.1-2.7,19.1-8.9s5.6-14.9,0-20.5-16.2-9.9-23.1-16.5H185.1A55.6,55.6,0,0,0,190.1,166.3Z" fill="#2d315d"/><path d="M528.1,169.6l-10.9-14.1-14.1,14-14.2-15.6c-4.4,6.2-13.5,13.8-18,20.2-4.1-6-8.8-11-13.5-16.9l-16,15.7c-1.5-5.3-4.9-10.7-7.7-16.1" fill="none" stroke="#f37021" stroke-linecap="round" stroke-linejoin="round" stroke-width="12.81"/><path d="M496.7,157.7c-3.3-2.6-6.6-5.3-10.2-7.6a73.2,73.2,0,0,0-8.6-5.3c-2.6-1.6-5.3-2.9-5.9-6.2a7.5,7.5,0,0,1,7.6-9.3c4.9,0,7.6,2.3,7.6,8.9v3.7h14.5v-3c0-14.5-7.6-22.8-22.5-22.8-7.9,0-15.1,2.7-19.1,8.9s-5.6,14.9,0,20.5,16.2,9.9,23.1,16.5h18.5C500.4,160.7,498.7,159.4,496.7,157.7Z" fill="#0096a4"/><path d="M462.1,166.3c3.3,2.6,6.6,5.3,10.2,7.6a73.2,73.2,0,0,0,8.6,5.3c2.6,1.6,5.3,2.9,5.9,6.2a7.5,7.5,0,0,1-7.6,9.3c-4.9,0-7.6-2.3-7.6-8.9v-3.7H457.1v3c0,14.5,7.6,22.8,22.5,22.8,7.9,0,15.1-2.7,19.1-8.9s5.6-14.9,0-20.5-16.2-9.9-23.1-16.5H457.1A55.6,55.6,0,0,0,462.1,166.3Z" fill="#0096a4"/><path d="M800.1,169.6l-10.9-14.1-14.1,14-14.2-15.6c-4.4,6.2-13.5,13.8-18,20.2-4.1-6-8.8-11-13.5-16.9l-16,15.7c-1.5-5.3-4.9-10.7-7.7-16.1" fill="none" stroke="#2d315d" stroke-linecap="round" stroke-linejoin="round" stroke-width="12.81"/><path d="M768.7,157.7c-3.3-2.6-6.6-5.3-10.2-7.6a73.2,73.2,0,0,0-8.6-5.3c-2.6-1.6-5.3-2.9-5.9-6.2a7.5,7.5,0,0,1,7.6-9.3c4.9,0,7.6,2.3,7.6,8.9v3.7h14.5v-3c0-14.5-7.6-22.8-22.5-22.8-7.9,0-15.1,2.7-19.1,8.9s-5.6,14.9,0,20.5,16.2,9.9,23.1,16.5h18.5C772.4,160.7,770.7,159.4,768.7,157.7Z" fill="#e1b000"/><path d="M734.1,166.3c3.3,2.6,6.6,5.3,10.2,7.6a82.5,82.5,0,0,0,8.6,5.3c2.6,1.6,5.3,2.9,5.9,6.2s-1.9,9.3-7.6,9.3-7.5-2.3-7.5-8.9v-3.7H729.1v3c0,14.5,7.6,22.8,22.5,22.8,7.9,0,15.2-2.7,19.1-8.9s5.6-14.9,0-20.5-16.2-9.9-23.1-16.5H729.1C730.5,163.3,732.4,165,734.1,166.3Z" fill="#e1b000"/><path d="M256.3,384.9l-10.8-14.2-14.2,14-14.2-15.6c-4.3,6.3-13.5,13.8-17.9,20.2-4.2-6-8.9-11-13.5-16.9l-16.1,15.8c-1.5-5.4-4.9-10.8-7.7-16.2" fill="none" stroke="#0096a4" stroke-linecap="round" stroke-linejoin="round" stroke-width="12.81"/><path d="M225,372.9a114.1,114.1,0,0,0-10.3-7.6,80.3,80.3,0,0,0-8.5-5.2c-2.7-1.7-5.3-3-6-6.3a7.5,7.5,0,0,1,7.6-9.3c5,0,7.6,2.4,7.6,9v3.6h14.5v-3c0-14.5-7.6-22.8-22.4-22.8-7.9,0-15.2,2.7-19.2,9s-5.6,14.8,0,20.4,16.2,9.9,23.1,16.5h18.5C228.6,375.9,226.9,374.6,225,372.9Z" fill="#f37021"/><path d="M190.3,381.5c3.3,2.6,6.6,5.3,10.2,7.6a94.5,94.5,0,0,0,8.6,5.3c2.7,1.6,5.3,2.9,6,6.2a7.5,7.5,0,0,1-7.6,9.3c-5,0-7.6-2.3-7.6-8.9v-3.7H185.4v3c0,14.5,7.6,22.8,22.4,22.8,7.9,0,15.2-2.7,19.1-8.9s5.7-14.9,0-20.5-16.1-9.9-23.1-16.5H185.4C186.7,378.5,188.7,380.2,190.3,381.5Z" fill="#f37021"/><path d="M528.3,384.9l-10.8-14.2-14.2,14-14.1-15.6c-4.4,6.3-13.6,13.8-18,20.2-4.2-6-8.9-11-13.5-16.9l-16.1,15.8c-1.5-5.4-4.9-10.8-7.7-16.2" fill="none" stroke="#e1b000" stroke-linecap="round" stroke-linejoin="round" stroke-width="12.81"/><path d="M497,372.9a114.1,114.1,0,0,0-10.3-7.6,80.3,80.3,0,0,0-8.5-5.2c-2.7-1.7-5.3-3-6-6.3a7.5,7.5,0,0,1,7.6-9.3c5,0,7.6,2.4,7.6,9v3.6h14.5v-3c0-14.5-7.6-22.8-22.4-22.8-7.9,0-15.2,2.7-19.2,9s-5.6,14.8,0,20.4,16.2,9.9,23.1,16.5h18.5C500.6,375.9,499,374.6,497,372.9Z" fill="#2d315d"/><path d="M462.3,381.5a114.1,114.1,0,0,0,10.3,7.6,81,81,0,0,0,8.5,5.3c2.7,1.6,5.3,2.9,6,6.2a7.5,7.5,0,0,1-7.6,9.3c-5,0-7.6-2.3-7.6-8.9v-3.7H457.4v3c0,14.5,7.6,22.8,22.4,22.8,7.9,0,15.2-2.7,19.2-8.9s5.6-14.9,0-20.5-16.2-9.9-23.1-16.5H457.4C458.7,378.5,460.7,380.2,462.3,381.5Z" fill="#2d315d"/><path d="M800.3,384.9l-10.8-14.2-14.2,14-14.1-15.6c-4.4,6.3-13.6,13.8-18,20.2-4.2-6-8.9-11-13.5-16.9l-16.1,15.8c-1.5-5.4-4.9-10.8-7.7-16.2" fill="none" stroke="#f37021" stroke-linecap="round" stroke-linejoin="round" stroke-width="12.81"/><path d="M769,372.9c-3.3-2.6-6.6-5.3-10.2-7.6a93.5,93.5,0,0,0-8.6-5.2c-2.7-1.7-5.3-3-6-6.3a7.5,7.5,0,0,1,7.6-9.3c5,0,7.6,2.4,7.6,9v3.6h14.5v-3c0-14.5-7.6-22.8-22.4-22.8-7.9,0-15.2,2.7-19.2,9s-5.6,14.8,0,20.4,16.2,9.9,23.2,16.5h18.4C772.6,375.9,771,374.6,769,372.9Z" fill="#0096a4"/><path d="M734.3,381.5a114.1,114.1,0,0,0,10.3,7.6,81,81,0,0,0,8.5,5.3c2.7,1.6,5.3,2.9,6,6.2a7.5,7.5,0,0,1-7.6,9.3c-5,0-7.6-2.3-7.6-8.9v-3.7H729.4v3c0,14.5,7.6,22.8,22.4,22.8,7.9,0,15.2-2.7,19.2-8.9s5.6-14.9,0-20.5-16.2-9.9-23.1-16.5H729.4C730.7,378.5,732.7,380.2,734.3,381.5Z" fill="#0096a4"/><path d="M935.5,62.4,924.7,48.2l-14.2,14L896.3,46.6c-4.3,6.3-13.5,13.8-17.9,20.2-4.2-6-8.9-11-13.5-16.9L848.8,65.7c-1.5-5.4-4.9-10.8-7.7-16.2" fill="none" stroke="#0096a4" stroke-linecap="round" stroke-linejoin="round" stroke-width="12.81"/><path d="M904.2,50.4a114.1,114.1,0,0,0-10.3-7.6,72.7,72.7,0,0,0-8.6-5.2c-2.6-1.7-5.2-3-5.9-6.3A7.5,7.5,0,0,1,887,22c4.9,0,7.6,2.4,7.6,9v3.6h14.5v-3c0-14.5-7.6-22.8-22.4-22.8-8,0-15.2,2.7-19.2,9s-5.6,14.8,0,20.4,16.2,9.9,23.1,16.5h18.5C907.8,53.4,906.1,52.1,904.2,50.4Z" fill="#f37021"/><path d="M869.5,59c3.3,2.6,6.6,5.3,10.2,7.6a82.5,82.5,0,0,0,8.6,5.3c2.7,1.6,5.3,2.9,6,6.2s-2,9.3-7.6,9.3-7.6-2.3-7.6-8.9V74.8H864.6v3c0,14.5,7.5,22.8,22.4,22.8,7.9,0,15.2-2.7,19.1-8.9s5.6-14.9,0-20.5S890,61.3,883,54.7H864.6C865.9,56,867.9,57.7,869.5,59Z" fill="#f37021"/><path d="M119.5,277.9l-10.9-14.1-14.1,14L80.3,262.2c-4.4,6.2-13.5,13.7-18,20.1-4.1-5.9-8.8-10.9-13.5-16.9l-16,15.8c-1.5-5.4-4.9-10.8-7.7-16.2" fill="none" stroke="#0096a4" stroke-linecap="round" stroke-linejoin="round" stroke-width="12.81"/><path d="M88.1,266a108,108,0,0,0-10.2-7.6,61.9,61.9,0,0,0-8.6-5.3c-2.6-1.7-5.3-3-5.9-6.3a7.4,7.4,0,0,1,7.6-9.2c4.9,0,7.6,2.3,7.6,8.9v3.6H93.1v-3c0-14.5-7.6-22.7-22.5-22.7-7.9,0-15.1,2.6-19.1,8.9s-5.6,14.8,0,20.4,16.2,9.9,23.1,16.6H93.1A47.4,47.4,0,0,0,88.1,266Z" fill="#f37021"/><path d="M53.5,274.5a108,108,0,0,0,10.2,7.6,61.9,61.9,0,0,0,8.6,5.3c2.6,1.7,5.3,3,5.9,6.3s-1.9,9.2-7.6,9.2S63,300.6,63,294v-3.6H48.5v3c0,14.5,7.6,22.7,22.5,22.7,7.9,0,15.2-2.6,19.1-8.9s5.6-14.8,0-20.4S73.9,276.9,67,270.3H48.5A55.2,55.2,0,0,0,53.5,274.5Z" fill="#f37021"/><path d="M391.5,277.9l-10.9-14.1-14.1,14-14.2-15.6c-4.4,6.2-13.5,13.7-18,20.1-4.1-5.9-8.8-10.9-13.4-16.9l-16.1,15.8c-1.5-5.4-4.9-10.8-7.7-16.2" fill="none" stroke="#e1b000" stroke-linecap="round" stroke-linejoin="round" stroke-width="12.81"/><path d="M360.1,266a108,108,0,0,0-10.2-7.6,61.9,61.9,0,0,0-8.6-5.3c-2.6-1.7-5.3-3-5.9-6.3a7.4,7.4,0,0,1,7.6-9.2c4.9,0,7.6,2.3,7.6,8.9v3.6h14.5v-3c0-14.5-7.6-22.7-22.5-22.7-7.9,0-15.1,2.6-19.1,8.9s-5.6,14.8,0,20.4,16.2,9.9,23.1,16.6h18.5A47.4,47.4,0,0,0,360.1,266Z" fill="#2d315d"/><path d="M325.5,274.5a108,108,0,0,0,10.2,7.6,68.4,68.4,0,0,0,8.6,5.3c2.6,1.7,5.3,3,5.9,6.3s-1.9,9.2-7.6,9.2-7.5-2.3-7.5-8.9v-3.6H320.5v3c0,14.5,7.6,22.7,22.5,22.7,7.9,0,15.2-2.6,19.1-8.9s5.6-14.8,0-20.4-16.2-9.9-23.1-16.5H320.5C321.9,271.6,323.8,273.2,325.5,274.5Z" fill="#2d315d"/><path d="M663.5,277.9l-10.9-14.1-14.1,14-14.2-15.6c-4.3,6.2-13.5,13.7-17.9,20.1-4.2-5.9-8.9-10.9-13.5-16.9l-16.1,15.8c-1.5-5.4-4.9-10.8-7.7-16.2" fill="none" stroke="#f37021" stroke-linecap="round" stroke-linejoin="round" stroke-width="12.81"/><path d="M632.1,266a108,108,0,0,0-10.2-7.6,61.9,61.9,0,0,0-8.6-5.3c-2.6-1.7-5.2-3-5.9-6.3a7.4,7.4,0,0,1,7.6-9.2c4.9,0,7.6,2.3,7.6,8.9v3.6h14.5v-3c0-14.5-7.6-22.7-22.4-22.7-8,0-15.2,2.6-19.2,8.9s-5.6,14.8,0,20.4,16.2,9.9,23.1,16.6h18.5A47.4,47.4,0,0,0,632.1,266Z" fill="#0096a4"/><path d="M597.5,274.5a108,108,0,0,0,10.2,7.6,68.4,68.4,0,0,0,8.6,5.3c2.6,1.7,5.3,3,5.9,6.3a7.4,7.4,0,0,1-7.5,9.2c-5,0-7.6-2.3-7.6-8.9v-3.6H592.5v3c0,14.5,7.6,22.7,22.5,22.7,7.9,0,15.2-2.6,19.1-8.9s5.6-14.8,0-20.4S618,276.9,611,270.3H592.5C593.9,271.6,595.8,273.2,597.5,274.5Z" fill="#0096a4"/><path d="M935.5,277.9l-10.8-14.1-14.2,14-14.2-15.6c-4.3,6.2-13.5,13.7-17.9,20.1-4.2-5.9-8.9-10.9-13.5-16.9l-16.1,15.8c-1.5-5.4-4.9-10.8-7.7-16.2" fill="none" stroke="#2d315d" stroke-linecap="round" stroke-linejoin="round" stroke-width="12.81"/><path d="M904.2,266a97.7,97.7,0,0,0-10.3-7.6,61.9,61.9,0,0,0-8.6-5.3c-2.6-1.7-5.2-3-5.9-6.3a7.4,7.4,0,0,1,7.6-9.2c4.9,0,7.6,2.3,7.6,8.9v3.6h14.5v-3c0-14.5-7.6-22.7-22.4-22.7-8,0-15.2,2.6-19.2,8.9s-5.6,14.8,0,20.4,16.2,9.9,23.1,16.6h18.5A57.5,57.5,0,0,0,904.2,266Z" fill="#e1b000"/><path d="M869.5,274.5a108,108,0,0,0,10.2,7.6,68.4,68.4,0,0,0,8.6,5.3c2.7,1.7,5.3,3,6,6.3a7.5,7.5,0,0,1-7.6,9.2c-5,0-7.6-2.3-7.6-8.9v-3.6H864.6v3c0,14.5,7.5,22.7,22.4,22.7,7.9,0,15.2-2.6,19.1-8.9s5.6-14.8,0-20.4S890,276.9,883,270.3H864.6C865.9,271.6,867.9,273.2,869.5,274.5Z" fill="#e1b000"/><path d="M119.5,494.4l-10.9-14.1-14.1,14L80.3,478.7c-4.4,6.2-13.5,13.8-18,20.1-4.1-5.9-8.8-10.9-13.5-16.8l-16,15.7c-1.5-5.4-4.9-10.7-7.7-16.1" fill="none" stroke="#2d315d" stroke-linecap="round" stroke-linejoin="round" stroke-width="12.81"/><path d="M88.1,482.5c-3.3-2.6-6.6-5.3-10.2-7.6a73.2,73.2,0,0,0-8.6-5.3c-2.6-1.6-5.3-2.9-5.9-6.2a7.5,7.5,0,0,1,7.6-9.3c4.9,0,7.6,2.3,7.6,8.9v3.7H93.1v-3c0-14.5-7.6-22.8-22.5-22.8-7.9,0-15.1,2.7-19.1,8.9s-5.6,14.9,0,20.5,16.2,9.9,23.1,16.5H93.1A62.9,62.9,0,0,0,88.1,482.5Z" fill="#e1b000"/><path d="M53.5,491.1c3.3,2.6,6.6,5.3,10.2,7.6a72.7,72.7,0,0,0,8.6,5.2c2.6,1.7,5.3,3,5.9,6.3a7.4,7.4,0,0,1-7.6,9.3c-4.9,0-7.6-2.4-7.6-9v-3.6H48.5v3c0,14.5,7.6,22.8,22.5,22.8,7.9,0,15.2-2.7,19.1-9s5.6-14.8,0-20.4S73.9,493.4,67,486.8H48.5A55.6,55.6,0,0,0,53.5,491.1Z" fill="#e1b000"/><path d="M391.5,494.4l-10.9-14.1-14.1,14-14.2-15.6c-4.4,6.2-13.5,13.8-18,20.1-4.1-5.9-8.8-10.9-13.4-16.8l-16.1,15.7c-1.5-5.4-4.9-10.7-7.7-16.1" fill="none" stroke="#0096a4" stroke-linecap="round" stroke-linejoin="round" stroke-width="12.81"/><path d="M360.1,482.5c-3.3-2.6-6.6-5.3-10.2-7.6a73.2,73.2,0,0,0-8.6-5.3c-2.6-1.6-5.3-2.9-5.9-6.2a7.5,7.5,0,0,1,7.6-9.3c4.9,0,7.6,2.3,7.6,8.9v3.7h14.5v-3c0-14.5-7.6-22.8-22.5-22.8-7.9,0-15.1,2.7-19.1,8.9s-5.6,14.9,0,20.5,16.2,9.9,23.1,16.5h18.5A62.9,62.9,0,0,0,360.1,482.5Z" fill="#f37021"/><path d="M325.5,491.1c3.3,2.6,6.6,5.3,10.2,7.6a81.8,81.8,0,0,0,8.6,5.2c2.6,1.7,5.3,3,5.9,6.3a7.4,7.4,0,0,1-7.6,9.3c-4.9,0-7.5-2.4-7.5-9v-3.6H320.5v3c0,14.5,7.6,22.8,22.5,22.8,7.9,0,15.2-2.7,19.1-9s5.6-14.8,0-20.4-16.2-9.9-23.1-16.5H320.5C321.9,488.1,323.8,489.8,325.5,491.1Z" fill="#f37021"/><path d="M663.5,494.4l-10.9-14.1-14.1,14-14.2-15.6c-4.3,6.2-13.5,13.8-17.9,20.1-4.2-5.9-8.9-10.9-13.5-16.8l-16.1,15.7c-1.5-5.4-4.9-10.7-7.7-16.1" fill="none" stroke="#e1b000" stroke-linecap="round" stroke-linejoin="round" stroke-width="12.81"/><path d="M632.1,482.5c-3.3-2.6-6.6-5.3-10.2-7.6a73.2,73.2,0,0,0-8.6-5.3c-2.6-1.6-5.2-2.9-5.9-6.2a7.5,7.5,0,0,1,7.6-9.3c4.9,0,7.6,2.3,7.6,8.9v3.7h14.5v-3c0-14.5-7.6-22.8-22.4-22.8-8,0-15.2,2.7-19.2,8.9s-5.6,14.9,0,20.5,16.2,9.9,23.1,16.5h18.5A62.9,62.9,0,0,0,632.1,482.5Z" fill="#2d315d"/><path d="M597.5,491.1c3.3,2.6,6.6,5.3,10.2,7.6a81.8,81.8,0,0,0,8.6,5.2c2.6,1.7,5.3,3,5.9,6.3a7.4,7.4,0,0,1-7.5,9.3c-5,0-7.6-2.4-7.6-9v-3.6H592.5v3c0,14.5,7.6,22.8,22.5,22.8,7.9,0,15.2-2.7,19.1-9s5.6-14.8,0-20.4S618,493.4,611,486.8H592.5C593.9,488.1,595.8,489.8,597.5,491.1Z" fill="#2d315d"/><path d="M935.5,494.4l-10.8-14.1-14.2,14-14.2-15.6c-4.3,6.2-13.5,13.8-17.9,20.1-4.2-5.9-8.9-10.9-13.5-16.8l-16.1,15.7c-1.5-5.4-4.9-10.7-7.7-16.1" fill="none" stroke="#f37021" stroke-linecap="round" stroke-linejoin="round" stroke-width="12.81"/><path d="M904.2,482.5a114.1,114.1,0,0,0-10.3-7.6,73.2,73.2,0,0,0-8.6-5.3c-2.6-1.6-5.2-2.9-5.9-6.2a7.5,7.5,0,0,1,7.6-9.3c4.9,0,7.6,2.3,7.6,8.9v3.7h14.5v-3c0-14.5-7.6-22.8-22.4-22.8-8,0-15.2,2.7-19.2,8.9s-5.6,14.9,0,20.5,16.2,9.9,23.1,16.5h18.5C907.8,485.5,906.1,484.1,904.2,482.5Z" fill="#0096a4"/><path d="M869.5,491.1c3.3,2.6,6.6,5.3,10.2,7.6a81.8,81.8,0,0,0,8.6,5.2c2.7,1.7,5.3,3,6,6.3s-2,9.3-7.6,9.3-7.6-2.4-7.6-9v-3.6H864.6v3c0,14.5,7.5,22.8,22.4,22.8,7.9,0,15.2-2.7,19.1-9s5.6-14.8,0-20.4S890,493.4,883,486.8H864.6C865.9,488.1,867.9,489.8,869.5,491.1Z" fill="#0096a4"/><path d="M67.9,197.7l10-7.7L68,180l11-10c-4.4-3-9.7-9.5-14.2-12.6,4.2-3,7.7-6.3,11.9-9.6L65.6,136.5c3.8-1.1,7.6-3.5,11.4-5.5" fill="none" stroke="#2d315d" stroke-linecap="round" stroke-linejoin="round" stroke-width="9.05"/><path d="M339.7,197.7l9.9-7.7-9.9-10,11-10c-4.3-3-9.7-9.5-14.2-12.6,4.2-3,7.8-6.3,12-9.6l-11.2-11.3c3.8-1.1,7.6-3.5,11.4-5.5" fill="none" stroke="#0096a4" stroke-linecap="round" stroke-linejoin="round" stroke-width="9.05"/><path d="M611.4,197.7l10-7.7-9.9-10,11-10c-4.4-3-9.7-9.5-14.2-12.6,4.2-3,7.7-6.3,11.9-9.6l-11.1-11.3c3.8-1.1,7.6-3.5,11.4-5.5" fill="none" stroke="#e1b000" stroke-linecap="round" stroke-linejoin="round" stroke-width="9.05"/><path d="M882.5,197.7l10-7.7-9.9-10,11-10c-4.4-3-9.7-9.5-14.2-12.6,4.2-3,7.7-6.3,11.9-9.6l-11.1-11.3c3.8-1.1,7.6-3.5,11.4-5.5" fill="none" stroke="#f37021" stroke-linecap="round" stroke-linejoin="round" stroke-width="9.05"/><path d="M67.9,412.5l10-7.6-9.9-10,11-10c-4.4-3.1-9.7-9.6-14.2-12.7,4.2-2.9,7.7-6.3,11.9-9.5L65.6,351.3c3.8-1,7.6-3.4,11.4-5.4" fill="none" stroke="#f37021" stroke-linecap="round" stroke-linejoin="round" stroke-width="9.05"/><path d="M339.7,412.5l9.9-7.6-9.9-10,11-10c-4.3-3.1-9.7-9.6-14.2-12.7,4.2-2.9,7.8-6.3,12-9.5l-11.2-11.4c3.8-1,7.6-3.4,11.4-5.4" fill="none" stroke="#2d315d" stroke-linecap="round" stroke-linejoin="round" stroke-width="9.05"/><path d="M611.4,412.5l10-7.6-9.9-10,11-10c-4.4-3.1-9.7-9.6-14.2-12.7,4.2-2.9,7.7-6.3,11.9-9.5l-11.1-11.4c3.8-1,7.6-3.4,11.4-5.4" fill="none" stroke="#0096a4" stroke-linecap="round" stroke-linejoin="round" stroke-width="9.05"/><path d="M882.5,412.5l10-7.6-9.9-10,11-10c-4.4-3.1-9.7-9.6-14.2-12.7,4.2-2.9,7.7-6.3,11.9-9.5l-11.1-11.4c3.8-1,7.6-3.4,11.4-5.4" fill="none" stroke="#e1b000" stroke-linecap="round" stroke-linejoin="round" stroke-width="9.05"/><path d="M1800.2,62.4l10.9-14.2,14.2,14,14.1-15.6c4.4,6.3,13.5,13.8,18,20.2,4.1-6,8.9-11,13.5-16.9L1887,65.7c1.4-5.4,4.8-10.8,7.7-16.2" fill="none" stroke="#e1b000" stroke-linecap="round" stroke-linejoin="round" stroke-width="12.81"/><path d="M1716.6,90l-9.9-7.6,9.8-10-11-10c4.4-3.1,9.7-9.6,14.3-12.7-4.2-2.9-7.8-6.3-12-9.5L1719,28.8c-3.8-1-7.6-3.4-11.4-5.4" fill="none" stroke="#0096a4" stroke-linecap="round" stroke-linejoin="round" stroke-width="9.05"/><path d="M1444.9,90l-10-7.6,9.9-10-11-10c4.4-3.1,9.7-9.6,14.2-12.7-4.2-2.9-7.7-6.3-11.9-9.5l11.1-11.4c-3.8-1-7.6-3.4-11.4-5.4" fill="none" stroke="#e1b000" stroke-linecap="round" stroke-linejoin="round" stroke-width="9.05"/><path d="M1173.1,90l-9.9-7.6,9.9-10-11-10c4.3-3.1,9.7-9.6,14.2-12.7-4.2-2.9-7.8-6.3-12-9.5l11.2-11.4c-3.8-1-7.6-3.4-11.4-5.4" fill="none" stroke="#f37021" stroke-linecap="round" stroke-linejoin="round" stroke-width="9.05"/><path d="M1716.6,302.9l-9.9-7.6,9.8-10-11-10c4.4-3.1,9.7-9.6,14.3-12.7-4.2-2.9-7.8-6.3-12-9.5l11.2-11.4c-3.8-1-7.6-3.4-11.4-5.4" fill="none" stroke="#2d315d" stroke-linecap="round" stroke-linejoin="round" stroke-width="9.05"/><path d="M1444.9,302.9l-10-7.6,9.9-10-11-10c4.4-3.1,9.7-9.6,14.2-12.7-4.2-2.9-7.7-6.3-11.9-9.5l11.1-11.4c-3.8-1-7.6-3.4-11.4-5.4" fill="none" stroke="#0096a4" stroke-linecap="round" stroke-linejoin="round" stroke-width="9.05"/><path d="M1173.1,302.9l-9.9-7.6,9.9-10-11-10c4.3-3.1,9.7-9.6,14.2-12.7-4.2-2.9-7.8-6.3-12-9.5l11.2-11.4c-3.8-1-7.6-3.4-11.4-5.4" fill="none" stroke="#e1b000" stroke-linecap="round" stroke-linejoin="round" stroke-width="9.05"/><path d="M1716.6,519.3l-9.9-7.6,9.8-10-11-10c4.4-3.1,9.7-9.6,14.3-12.7-4.2-2.9-7.8-6.3-12-9.5l11.2-11.4c-3.8-1-7.6-3.5-11.4-5.4" fill="none" stroke="#f37021" stroke-linecap="round" stroke-linejoin="round" stroke-width="9.05"/><path d="M1444.9,519.3l-10-7.6,9.9-10-11-10c4.4-3.1,9.7-9.6,14.2-12.7-4.2-2.9-7.7-6.3-11.9-9.5l11.1-11.4c-3.8-1-7.6-3.5-11.4-5.4" fill="none" stroke="#2d315d" stroke-linecap="round" stroke-linejoin="round" stroke-width="9.05"/><path d="M1173.1,519.3l-9.9-7.6,9.9-10-11-10c4.3-3.1,9.7-9.6,14.2-12.7-4.2-2.9-7.8-6.3-12-9.5l11.2-11.4c-3.8-1-7.6-3.5-11.4-5.4" fill="none" stroke="#0096a4" stroke-linecap="round" stroke-linejoin="round" stroke-width="9.05"/><path d="M1831.6,50.4c3.3-2.6,6.6-5.3,10.2-7.6a81.8,81.8,0,0,1,8.6-5.2c2.6-1.7,5.3-3,5.9-6.3a7.4,7.4,0,0,0-7.6-9.3c-4.9,0-7.5,2.4-7.5,9v3.6h-14.6v-3c0-14.5,7.6-22.8,22.5-22.8,7.9,0,15.2,2.7,19.1,9s5.6,14.8,0,20.4-16.2,9.9-23.1,16.5h-18.5Z" fill="#2d315d"/><path d="M1866.2,59c-3.3,2.6-6.6,5.3-10.2,7.6a73.2,73.2,0,0,1-8.6,5.3c-2.6,1.6-5.3,2.9-5.9,6.2a7.5,7.5,0,0,0,7.6,9.3c4.9,0,7.6-2.3,7.6-8.9V74.8h14.5v3c0,14.5-7.6,22.8-22.5,22.8-7.9,0-15.1-2.7-19.1-8.9s-5.6-14.9,0-20.5,16.2-9.9,23.1-16.5h18.5A55.6,55.6,0,0,1,1866.2,59Z" fill="#2d315d"/><path d="M1528.2,62.4l10.9-14.2,14.1,14,14.2-15.6c4.4,6.3,13.5,13.8,18,20.2,4.1-6,8.8-11,13.5-16.9l16,15.8c1.5-5.4,4.9-10.8,7.8-16.2" fill="none" stroke="#f37021" stroke-linecap="round" stroke-linejoin="round" stroke-width="12.81"/><path d="M1559.6,50.4c3.3-2.6,6.6-5.3,10.2-7.6a72.7,72.7,0,0,1,8.6-5.2c2.6-1.7,5.3-3,5.9-6.3a7.5,7.5,0,0,0-7.6-9.3c-4.9,0-7.6,2.4-7.6,9v3.6h-14.5v-3c0-14.5,7.6-22.8,22.5-22.8,7.9,0,15.2,2.7,19.1,9s5.6,14.8,0,20.4-16.2,9.9-23.1,16.5h-18.5C1555.9,53.4,1557.6,52.1,1559.6,50.4Z" fill="#0096a4"/><path d="M1594.2,59c-3.3,2.6-6.6,5.3-10.2,7.6a73.2,73.2,0,0,1-8.6,5.3c-2.6,1.6-5.3,2.9-5.9,6.2a7.5,7.5,0,0,0,7.6,9.3c4.9,0,7.6-2.3,7.6-8.9V74.8h14.5v3c0,14.5-7.6,22.8-22.5,22.8-7.9,0-15.1-2.7-19.1-8.9s-5.6-14.9,0-20.5,16.2-9.9,23.1-16.5h18.5A55.6,55.6,0,0,1,1594.2,59Z" fill="#0096a4"/><path d="M1256.2,62.4l10.9-14.2,14.1,14,14.2-15.6c4.4,6.3,13.5,13.8,18,20.2,4.1-6,8.8-11,13.5-16.9l16,15.8c1.5-5.4,4.9-10.8,7.7-16.2" fill="none" stroke="#2d315d" stroke-linecap="round" stroke-linejoin="round" stroke-width="12.81"/><path d="M1287.6,50.4c3.3-2.6,6.6-5.3,10.2-7.6a72.7,72.7,0,0,1,8.6-5.2c2.6-1.7,5.3-3,5.9-6.3a7.5,7.5,0,0,0-7.6-9.3c-4.9,0-7.6,2.4-7.6,9v3.6h-14.5v-3c0-14.5,7.6-22.8,22.5-22.8,7.9,0,15.1,2.7,19.1,9s5.6,14.8,0,20.4-16.2,9.9-23.1,16.5h-18.5C1283.9,53.4,1285.6,52.1,1287.6,50.4Z" fill="#e1b000"/><path d="M1322.2,59c-3.3,2.6-6.6,5.3-10.2,7.6a73.2,73.2,0,0,1-8.6,5.3c-2.6,1.6-5.3,2.9-5.9,6.2a7.5,7.5,0,0,0,7.6,9.3c4.9,0,7.6-2.3,7.6-8.9V74.8h14.5v3c0,14.5-7.6,22.8-22.5,22.8-7.9,0-15.2-2.7-19.1-8.9s-5.6-14.9,0-20.5,16.2-9.9,23.1-16.5h18.5A55.6,55.6,0,0,1,1322.2,59Z" fill="#e1b000"/><path d="M1663.6,169.6l10.9-14.1,14.2,14,14.1-15.6c4.4,6.2,13.6,13.8,18,20.2,4.1-6,8.9-11,13.5-16.9l16.1,15.7c1.4-5.3,4.9-10.7,7.7-16.1" fill="none" stroke="#e1b000" stroke-linecap="round" stroke-linejoin="round" stroke-width="12.81"/><path d="M1695,157.7c3.3-2.6,6.6-5.3,10.2-7.6a82.5,82.5,0,0,1,8.6-5.3c2.6-1.6,5.3-2.9,5.9-6.2s-1.9-9.3-7.5-9.3-7.6,2.3-7.6,8.9v3.7H1690v-3c0-14.5,7.6-22.8,22.5-22.8,7.9,0,15.2,2.7,19.1,8.9s5.6,14.9,0,20.5-16.1,9.9-23.1,16.5H1690Z" fill="#2d315d"/><path d="M1729.7,166.3c-3.3,2.6-6.7,5.3-10.3,7.6a73.2,73.2,0,0,1-8.6,5.3c-2.6,1.6-5.2,2.9-5.9,6.2a7.5,7.5,0,0,0,7.6,9.3c4.9,0,7.6-2.3,7.6-8.9v-3.7h14.5v3c0,14.5-7.6,22.8-22.4,22.8-8,0-15.2-2.7-19.2-8.9s-5.6-14.9,0-20.5,16.2-9.9,23.1-16.5h18.5C1733.3,163.3,1731.3,165,1729.7,166.3Z" fill="#2d315d"/><path d="M1391.6,169.6l10.9-14.1,14.2,14,14.1-15.6c4.4,6.2,13.5,13.8,18,20.2,4.1-6,8.9-11,13.5-16.9l16.1,15.7c1.4-5.3,4.8-10.7,7.7-16.1" fill="none" stroke="#f37021" stroke-linecap="round" stroke-linejoin="round" stroke-width="12.81"/><path d="M1423,157.7c3.3-2.6,6.6-5.3,10.2-7.6a82.5,82.5,0,0,1,8.6-5.3c2.6-1.6,5.3-2.9,5.9-6.2s-1.9-9.3-7.5-9.3-7.6,2.3-7.6,8.9v3.7H1418v-3c0-14.5,7.6-22.8,22.5-22.8,7.9,0,15.2,2.7,19.1,8.9s5.6,14.9,0,20.5-16.1,9.9-23.1,16.5H1418Z" fill="#0096a4"/><path d="M1457.6,166.3c-3.3,2.6-6.6,5.3-10.2,7.6a73.2,73.2,0,0,1-8.6,5.3c-2.6,1.6-5.3,2.9-5.9,6.2a7.5,7.5,0,0,0,7.6,9.3c4.9,0,7.6-2.3,7.6-8.9v-3.7h14.5v3c0,14.5-7.6,22.8-22.4,22.8-8,0-15.2-2.7-19.2-8.9s-5.6-14.9,0-20.5,16.2-9.9,23.1-16.5h18.5A55.6,55.6,0,0,1,1457.6,166.3Z" fill="#0096a4"/><path d="M1119.6,169.6l10.9-14.1,14.1,14,14.2-15.6c4.4,6.2,13.5,13.8,18,20.2,4.1-6,8.8-11,13.5-16.9l16,15.7c1.5-5.3,4.9-10.7,7.8-16.1" fill="none" stroke="#2d315d" stroke-linecap="round" stroke-linejoin="round" stroke-width="12.81"/><path d="M1151,157.7c3.3-2.6,6.6-5.3,10.2-7.6a82.5,82.5,0,0,1,8.6-5.3c2.6-1.6,5.3-2.9,5.9-6.2s-1.9-9.3-7.6-9.3-7.5,2.3-7.5,8.9v3.7H1146v-3c0-14.5,7.6-22.8,22.5-22.8,7.9,0,15.2,2.7,19.1,8.9s5.6,14.9,0,20.5-16.2,9.9-23.1,16.5H1146C1147.3,160.7,1149,159.4,1151,157.7Z" fill="#e1b000"/><path d="M1185.6,166.3c-3.3,2.6-6.6,5.3-10.2,7.6a73.2,73.2,0,0,1-8.6,5.3c-2.6,1.6-5.3,2.9-5.9,6.2a7.5,7.5,0,0,0,7.6,9.3c4.9,0,7.6-2.3,7.6-8.9v-3.7h14.5v3c0,14.5-7.6,22.8-22.5,22.8-7.9,0-15.1-2.7-19.1-8.9s-5.6-14.9,0-20.5,16.2-9.9,23.1-16.5h18.5A55.6,55.6,0,0,1,1185.6,166.3Z" fill="#e1b000"/><path d="M1663.4,384.9l10.9-14.2,14.1,14,14.2-15.6c4.3,6.3,13.5,13.8,17.9,20.2,4.2-6,8.9-11,13.5-16.9l16.1,15.8c1.5-5.4,4.9-10.8,7.7-16.2" fill="none" stroke="#0096a4" stroke-linecap="round" stroke-linejoin="round" stroke-width="12.81"/><path d="M1694.8,372.9c3.3-2.6,6.6-5.3,10.2-7.6a72.7,72.7,0,0,1,8.6-5.2c2.6-1.7,5.2-3,5.9-6.3a7.5,7.5,0,0,0-7.6-9.3c-4.9,0-7.6,2.4-7.6,9v3.6h-14.5v-3c0-14.5,7.6-22.8,22.4-22.8,8,0,15.2,2.7,19.2,9s5.6,14.8,0,20.4-16.2,9.9-23.1,16.5h-18.5C1691.1,375.9,1692.8,374.6,1694.8,372.9Z" fill="#f37021"/><path d="M1729.4,381.5c-3.3,2.6-6.6,5.3-10.2,7.6a82.5,82.5,0,0,1-8.6,5.3c-2.6,1.6-5.3,2.9-5.9,6.2s1.9,9.3,7.5,9.3,7.6-2.3,7.6-8.9v-3.7h14.6v3c0,14.5-7.6,22.8-22.5,22.8-7.9,0-15.2-2.7-19.1-8.9s-5.6-14.9,0-20.5,16.1-9.9,23.1-16.5h18.5C1733,378.5,1731.1,380.2,1729.4,381.5Z" fill="#f37021"/><path d="M1391.4,384.9l10.9-14.2,14.1,14,14.2-15.6c4.3,6.3,13.5,13.8,17.9,20.2,4.2-6,8.9-11,13.5-16.9l16.1,15.8c1.5-5.4,4.9-10.8,7.7-16.2" fill="none" stroke="#e1b000" stroke-linecap="round" stroke-linejoin="round" stroke-width="12.81"/><path d="M1422.7,372.9a114.1,114.1,0,0,1,10.3-7.6,72.7,72.7,0,0,1,8.6-5.2c2.6-1.7,5.2-3,5.9-6.3a7.5,7.5,0,0,0-7.6-9.3c-4.9,0-7.6,2.4-7.6,9v3.6h-14.5v-3c0-14.5,7.6-22.8,22.4-22.8,8,0,15.2,2.7,19.2,9s5.6,14.8,0,20.4-16.2,9.9-23.1,16.5h-18.5C1419.1,375.9,1420.8,374.6,1422.7,372.9Z" fill="#2d315d"/><path d="M1457.4,381.5c-3.3,2.6-6.6,5.3-10.2,7.6a82.5,82.5,0,0,1-8.6,5.3c-2.7,1.6-5.3,2.9-6,6.2s2,9.3,7.6,9.3,7.6-2.3,7.6-8.9v-3.7h14.5v3c0,14.5-7.5,22.8-22.4,22.8-7.9,0-15.2-2.7-19.1-8.9s-5.6-14.9,0-20.5,16.1-9.9,23.1-16.5h18.4C1461,378.5,1459,380.2,1457.4,381.5Z" fill="#2d315d"/><path d="M1119.4,384.9l10.8-14.2,14.2,14,14.2-15.6c4.3,6.3,13.5,13.8,17.9,20.2,4.2-6,8.9-11,13.5-16.9l16.1,15.8c1.5-5.4,4.9-10.8,7.7-16.2" fill="none" stroke="#f37021" stroke-linecap="round" stroke-linejoin="round" stroke-width="12.81"/><path d="M1150.7,372.9a114.1,114.1,0,0,1,10.3-7.6,80.3,80.3,0,0,1,8.5-5.2c2.7-1.7,5.3-3,6-6.3a7.5,7.5,0,0,0-7.6-9.3c-5,0-7.6,2.4-7.6,9v3.6h-14.5v-3c0-14.5,7.6-22.8,22.4-22.8,7.9,0,15.2,2.7,19.2,9s5.6,14.8,0,20.4-16.2,9.9-23.1,16.5h-18.5C1147.1,375.9,1148.8,374.6,1150.7,372.9Z" fill="#0096a4"/><path d="M1185.4,381.5c-3.3,2.6-6.6,5.3-10.2,7.6a94.5,94.5,0,0,1-8.6,5.3c-2.7,1.6-5.3,2.9-6,6.2a7.5,7.5,0,0,0,7.6,9.3c5,0,7.6-2.3,7.6-8.9v-3.7h14.5v3c0,14.5-7.6,22.8-22.4,22.8-7.9,0-15.2-2.7-19.1-8.9s-5.7-14.9,0-20.5,16.1-9.9,23.1-16.5h18.4C1189,378.5,1187,380.2,1185.4,381.5Z" fill="#0096a4"/><path d="M984.2,62.4l10.9-14.2,14.1,14,14.2-15.6c4.4,6.3,13.5,13.8,18,20.2,4.1-6,8.8-11,13.5-16.9l16,15.8c1.5-5.4,4.9-10.8,7.7-16.2" fill="none" stroke="#0096a4" stroke-linecap="round" stroke-linejoin="round" stroke-width="12.81"/><path d="M1015.6,50.4c3.3-2.6,6.6-5.3,10.2-7.6a72.7,72.7,0,0,1,8.6-5.2c2.6-1.7,5.3-3,5.9-6.3a7.5,7.5,0,0,0-7.6-9.3c-4.9,0-7.6,2.4-7.6,9v3.6h-14.5v-3c0-14.5,7.6-22.8,22.5-22.8,7.9,0,15.1,2.7,19.1,9s5.6,14.8,0,20.4-16.2,9.9-23.1,16.5h-18.5C1011.9,53.4,1013.6,52.1,1015.6,50.4Z" fill="#f37021"/><path d="M1050.2,59c-3.3,2.6-6.6,5.3-10.2,7.6a82.5,82.5,0,0,1-8.6,5.3c-2.6,1.6-5.3,2.9-5.9,6.2s1.9,9.3,7.6,9.3,7.5-2.3,7.5-8.9V74.8h14.6v3c0,14.5-7.6,22.8-22.5,22.8-7.9,0-15.2-2.7-19.1-8.9s-5.6-14.9,0-20.5,16.2-9.9,23.1-16.5h18.5C1053.8,56,1051.9,57.7,1050.2,59Z" fill="#f37021"/><path d="M1800.2,277.9l10.9-14.1,14.2,14,14.1-15.6c4.4,6.2,13.5,13.7,18,20.1,4.1-5.9,8.9-10.9,13.5-16.9l16.1,15.8c1.4-5.4,4.8-10.8,7.7-16.2" fill="none" stroke="#0096a4" stroke-linecap="round" stroke-linejoin="round" stroke-width="12.81"/><path d="M1831.6,266a108,108,0,0,1,10.2-7.6,68.4,68.4,0,0,1,8.6-5.3c2.6-1.7,5.3-3,5.9-6.3s-1.9-9.2-7.6-9.2-7.5,2.3-7.5,8.9v3.6h-14.6v-3c0-14.5,7.6-22.7,22.5-22.7,7.9,0,15.2,2.6,19.1,8.9s5.6,14.8,0,20.4-16.2,9.9-23.1,16.6h-18.5A60.3,60.3,0,0,1,1831.6,266Z" fill="#f37021"/><path d="M1866.2,274.5a108,108,0,0,1-10.2,7.6,61.9,61.9,0,0,1-8.6,5.3c-2.6,1.7-5.3,3-5.9,6.3a7.4,7.4,0,0,0,7.6,9.2c4.9,0,7.6-2.3,7.6-8.9v-3.6h14.5v3c0,14.5-7.6,22.7-22.5,22.7-7.9,0-15.1-2.6-19.1-8.9s-5.6-14.8,0-20.4,16.2-9.9,23.1-16.5h18.5A55.2,55.2,0,0,1,1866.2,274.5Z" fill="#f37021"/><path d="M1528.2,277.9l10.9-14.1,14.1,14,14.2-15.6c4.4,6.2,13.5,13.7,18,20.1,4.1-5.9,8.8-10.9,13.5-16.9l16,15.8c1.5-5.4,4.9-10.8,7.8-16.2" fill="none" stroke="#e1b000" stroke-linecap="round" stroke-linejoin="round" stroke-width="12.81"/><path d="M1559.6,266a108,108,0,0,1,10.2-7.6,61.9,61.9,0,0,1,8.6-5.3c2.6-1.7,5.3-3,5.9-6.3a7.4,7.4,0,0,0-7.6-9.2c-4.9,0-7.6,2.3-7.6,8.9v3.6h-14.5v-3c0-14.5,7.6-22.7,22.5-22.7,7.9,0,15.2,2.6,19.1,8.9s5.6,14.8,0,20.4-16.2,9.9-23.1,16.6h-18.5A47.4,47.4,0,0,1,1559.6,266Z" fill="#2d315d"/><path d="M1594.2,274.5a108,108,0,0,1-10.2,7.6,61.9,61.9,0,0,1-8.6,5.3c-2.6,1.7-5.3,3-5.9,6.3a7.4,7.4,0,0,0,7.6,9.2c4.9,0,7.6-2.3,7.6-8.9v-3.6h14.5v3c0,14.5-7.6,22.7-22.5,22.7-7.9,0-15.1-2.6-19.1-8.9s-5.6-14.8,0-20.4,16.2-9.9,23.1-16.5h18.5A55.2,55.2,0,0,1,1594.2,274.5Z" fill="#2d315d"/><path d="M1256.2,277.9l10.9-14.1,14.1,14,14.2-15.6c4.4,6.2,13.5,13.7,18,20.1,4.1-5.9,8.8-10.9,13.5-16.9l16,15.8c1.5-5.4,4.9-10.8,7.7-16.2" fill="none" stroke="#f37021" stroke-linecap="round" stroke-linejoin="round" stroke-width="12.81"/><path d="M1287.6,266a108,108,0,0,1,10.2-7.6,61.9,61.9,0,0,1,8.6-5.3c2.6-1.7,5.3-3,5.9-6.3a7.4,7.4,0,0,0-7.6-9.2c-4.9,0-7.6,2.3-7.6,8.9v3.6h-14.5v-3c0-14.5,7.6-22.7,22.5-22.7,7.9,0,15.1,2.6,19.1,8.9s5.6,14.8,0,20.4-16.2,9.9-23.1,16.6h-18.5A47.4,47.4,0,0,1,1287.6,266Z" fill="#0096a4"/><path d="M1322.2,274.5a108,108,0,0,1-10.2,7.6,61.9,61.9,0,0,1-8.6,5.3c-2.6,1.7-5.3,3-5.9,6.3a7.4,7.4,0,0,0,7.6,9.2c4.9,0,7.6-2.3,7.6-8.9v-3.6h14.5v3c0,14.5-7.6,22.7-22.5,22.7-7.9,0-15.2-2.6-19.1-8.9s-5.6-14.8,0-20.4,16.2-9.9,23.1-16.5h18.5A55.2,55.2,0,0,1,1322.2,274.5Z" fill="#0096a4"/><path d="M984.2,277.9l10.9-14.1,14.1,14,14.2-15.6c4.4,6.2,13.5,13.7,18,20.1,4.1-5.9,8.8-10.9,13.5-16.9l16,15.8c1.5-5.4,4.9-10.8,7.7-16.2" fill="none" stroke="#2d315d" stroke-linecap="round" stroke-linejoin="round" stroke-width="12.81"/><path d="M1015.6,266a108,108,0,0,1,10.2-7.6,61.9,61.9,0,0,1,8.6-5.3c2.6-1.7,5.3-3,5.9-6.3a7.4,7.4,0,0,0-7.6-9.2c-4.9,0-7.6,2.3-7.6,8.9v3.6h-14.5v-3c0-14.5,7.6-22.7,22.5-22.7,7.9,0,15.1,2.6,19.1,8.9s5.6,14.8,0,20.4-16.2,9.9-23.1,16.6h-18.5A47.4,47.4,0,0,1,1015.6,266Z" fill="#e1b000"/><path d="M1050.2,274.5a108,108,0,0,1-10.2,7.6,68.4,68.4,0,0,1-8.6,5.3c-2.6,1.7-5.3,3-5.9,6.3s1.9,9.2,7.6,9.2,7.5-2.3,7.5-8.9v-3.6h14.6v3c0,14.5-7.6,22.7-22.5,22.7-7.9,0-15.2-2.6-19.1-8.9s-5.6-14.8,0-20.4,16.2-9.9,23.1-16.5h18.5C1053.8,271.6,1051.9,273.2,1050.2,274.5Z" fill="#e1b000"/><path d="M1800.2,494.4l10.9-14.1,14.2,14,14.1-15.6c4.4,6.2,13.5,13.8,18,20.1,4.1-5.9,8.9-10.9,13.5-16.8l16.1,15.7c1.4-5.4,4.8-10.7,7.7-16.1" fill="none" stroke="#2d315d" stroke-linecap="round" stroke-linejoin="round" stroke-width="12.81"/><path d="M1831.6,482.5c3.3-2.6,6.6-5.3,10.2-7.6a82.5,82.5,0,0,1,8.6-5.3c2.6-1.6,5.3-2.9,5.9-6.2s-1.9-9.3-7.6-9.3-7.5,2.3-7.5,8.9v3.7h-14.6v-3c0-14.5,7.6-22.8,22.5-22.8,7.9,0,15.2,2.7,19.1,8.9s5.6,14.9,0,20.5-16.2,9.9-23.1,16.5h-18.5C1828,485.5,1829.6,484.1,1831.6,482.5Z" fill="#e1b000"/><path d="M1866.2,491.1c-3.3,2.6-6.6,5.3-10.2,7.6a72.7,72.7,0,0,1-8.6,5.2c-2.6,1.7-5.3,3-5.9,6.3a7.5,7.5,0,0,0,7.6,9.3c4.9,0,7.6-2.4,7.6-9v-3.6h14.5v3c0,14.5-7.6,22.8-22.5,22.8-7.9,0-15.1-2.7-19.1-9s-5.6-14.8,0-20.4,16.2-9.9,23.1-16.5h18.5A55.6,55.6,0,0,1,1866.2,491.1Z" fill="#e1b000"/><path d="M1528.2,494.4l10.9-14.1,14.1,14,14.2-15.6c4.4,6.2,13.5,13.8,18,20.1,4.1-5.9,8.8-10.9,13.5-16.8l16,15.7c1.5-5.4,4.9-10.7,7.8-16.1" fill="none" stroke="#0096a4" stroke-linecap="round" stroke-linejoin="round" stroke-width="12.81"/><path d="M1559.6,482.5c3.3-2.6,6.6-5.3,10.2-7.6a73.2,73.2,0,0,1,8.6-5.3c2.6-1.6,5.3-2.9,5.9-6.2a7.5,7.5,0,0,0-7.6-9.3c-4.9,0-7.6,2.3-7.6,8.9v3.7h-14.5v-3c0-14.5,7.6-22.8,22.5-22.8,7.9,0,15.2,2.7,19.1,8.9s5.6,14.9,0,20.5-16.2,9.9-23.1,16.5h-18.5A62.9,62.9,0,0,1,1559.6,482.5Z" fill="#f37021"/><path d="M1594.2,491.1c-3.3,2.6-6.6,5.3-10.2,7.6a72.7,72.7,0,0,1-8.6,5.2c-2.6,1.7-5.3,3-5.9,6.3a7.5,7.5,0,0,0,7.6,9.3c4.9,0,7.6-2.4,7.6-9v-3.6h14.5v3c0,14.5-7.6,22.8-22.5,22.8-7.9,0-15.1-2.7-19.1-9s-5.6-14.8,0-20.4,16.2-9.9,23.1-16.5h18.5A55.6,55.6,0,0,1,1594.2,491.1Z" fill="#f37021"/><path d="M1256.2,494.4l10.9-14.1,14.1,14,14.2-15.6c4.4,6.2,13.5,13.8,18,20.1,4.1-5.9,8.8-10.9,13.5-16.8l16,15.7c1.5-5.4,4.9-10.7,7.7-16.1" fill="none" stroke="#e1b000" stroke-linecap="round" stroke-linejoin="round" stroke-width="12.81"/><path d="M1287.6,482.5c3.3-2.6,6.6-5.3,10.2-7.6a73.2,73.2,0,0,1,8.6-5.3c2.6-1.6,5.3-2.9,5.9-6.2a7.5,7.5,0,0,0-7.6-9.3c-4.9,0-7.6,2.3-7.6,8.9v3.7h-14.5v-3c0-14.5,7.6-22.8,22.5-22.8,7.9,0,15.1,2.7,19.1,8.9s5.6,14.9,0,20.5-16.2,9.9-23.1,16.5h-18.5A62.9,62.9,0,0,1,1287.6,482.5Z" fill="#2d315d"/><path d="M1322.2,491.1c-3.3,2.6-6.6,5.3-10.2,7.6a72.7,72.7,0,0,1-8.6,5.2c-2.6,1.7-5.3,3-5.9,6.3a7.5,7.5,0,0,0,7.6,9.3c4.9,0,7.6-2.4,7.6-9v-3.6h14.5v3c0,14.5-7.6,22.8-22.5,22.8-7.9,0-15.2-2.7-19.1-9s-5.6-14.8,0-20.4,16.2-9.9,23.1-16.5h18.5A55.6,55.6,0,0,1,1322.2,491.1Z" fill="#2d315d"/><path d="M984.2,494.4l10.9-14.1,14.1,14,14.2-15.6c4.4,6.2,13.5,13.8,18,20.1,4.1-5.9,8.8-10.9,13.5-16.8l16,15.7c1.5-5.4,4.9-10.7,7.7-16.1" fill="none" stroke="#f37021" stroke-linecap="round" stroke-linejoin="round" stroke-width="12.81"/><path d="M1015.6,482.5c3.3-2.6,6.6-5.3,10.2-7.6a73.2,73.2,0,0,1,8.6-5.3c2.6-1.6,5.3-2.9,5.9-6.2a7.5,7.5,0,0,0-7.6-9.3c-4.9,0-7.6,2.3-7.6,8.9v3.7h-14.5v-3c0-14.5,7.6-22.8,22.5-22.8,7.9,0,15.1,2.7,19.1,8.9s5.6,14.9,0,20.5-16.2,9.9-23.1,16.5h-18.5A62.9,62.9,0,0,1,1015.6,482.5Z" fill="#0096a4"/><path d="M1050.2,491.1c-3.3,2.6-6.6,5.3-10.2,7.6a81.8,81.8,0,0,1-8.6,5.2c-2.6,1.7-5.3,3-5.9,6.3a7.4,7.4,0,0,0,7.6,9.3c4.9,0,7.5-2.4,7.5-9v-3.6h14.6v3c0,14.5-7.6,22.8-22.5,22.8-7.9,0-15.2-2.7-19.1-9s-5.6-14.8,0-20.4,16.2-9.9,23.1-16.5h18.5C1053.8,488.1,1051.9,489.8,1050.2,491.1Z" fill="#0096a4"/><path d="M1851.8,197.7l-10-7.7,9.9-10-11-10c4.4-3,9.7-9.5,14.2-12.6-4.2-3-7.7-6.3-11.9-9.6l11.1-11.3c-3.8-1.1-7.6-3.5-11.4-5.5" fill="none" stroke="#2d315d" stroke-linecap="round" stroke-linejoin="round" stroke-width="9.05"/><path d="M1580.1,197.7l-10-7.7,9.9-10-11-10c4.4-3,9.7-9.5,14.2-12.6-4.2-3-7.7-6.3-11.9-9.6l11.1-11.3c-3.8-1.1-7.6-3.5-11.4-5.5" fill="none" stroke="#0096a4" stroke-linecap="round" stroke-linejoin="round" stroke-width="9.05"/><path d="M1308.3,197.7l-10-7.7,9.9-10-11-10c4.4-3,9.7-9.5,14.2-12.6-4.2-3-7.7-6.3-11.9-9.6l11.1-11.3c-3.8-1.1-7.6-3.5-11.4-5.5" fill="none" stroke="#e1b000" stroke-linecap="round" stroke-linejoin="round" stroke-width="9.05"/><path d="M1037.2,197.7l-10-7.7,9.9-10-11-10c4.4-3,9.7-9.5,14.2-12.6-4.2-3-7.7-6.3-11.9-9.6l11.1-11.3c-3.8-1.1-7.6-3.5-11.4-5.5" fill="none" stroke="#f37021" stroke-linecap="round" stroke-linejoin="round" stroke-width="9.05"/><path d="M1851.8,412.5l-10-7.6,9.9-10-11-10c4.4-3.1,9.7-9.6,14.2-12.7-4.2-2.9-7.7-6.3-11.9-9.5l11.1-11.4c-3.8-1-7.6-3.4-11.4-5.4" fill="none" stroke="#f37021" stroke-linecap="round" stroke-linejoin="round" stroke-width="9.05"/><path d="M1580.1,412.5l-10-7.6,9.9-10-11-10c4.4-3.1,9.7-9.6,14.2-12.7-4.2-2.9-7.7-6.3-11.9-9.5l11.1-11.4c-3.8-1-7.6-3.4-11.4-5.4" fill="none" stroke="#2d315d" stroke-linecap="round" stroke-linejoin="round" stroke-width="9.05"/><path d="M1308.3,412.5l-10-7.6,9.9-10-11-10c4.4-3.1,9.7-9.6,14.2-12.7-4.2-2.9-7.7-6.3-11.9-9.5l11.1-11.4c-3.8-1-7.6-3.4-11.4-5.4" fill="none" stroke="#0096a4" stroke-linecap="round" stroke-linejoin="round" stroke-width="9.05"/><path d="M1037.2,412.5l-10-7.6,9.9-10-11-10c4.4-3.1,9.7-9.6,14.2-12.7-4.2-2.9-7.7-6.3-11.9-9.5l11.1-11.4c-3.8-1-7.6-3.4-11.4-5.4" fill="none" stroke="#e1b000" stroke-linecap="round" stroke-linejoin="round" stroke-width="9.05"/><path d="M119.5,1021.6l-10.9,14.1-14.1-14-14.2,15.6c-4.4-6.2-13.5-13.7-18-20.1-4.1,5.9-8.8,10.9-13.5,16.9l-16-15.8c-1.5,5.4-4.9,10.8-7.7,16.1" fill="none" stroke="#e1b000" stroke-linecap="round" stroke-linejoin="round" stroke-width="12.81"/><path d="M203.1,993.9l10,7.7-9.9,10,11,10c-4.4,3.1-9.7,9.5-14.2,12.7,4.2,2.9,7.7,6.2,11.9,9.5l-11.1,11.3c3.8,1.1,7.6,3.5,11.4,5.5" fill="none" stroke="#0096a4" stroke-linecap="round" stroke-linejoin="round" stroke-width="9.05"/><path d="M474.8,993.9l10,7.7-9.9,10,11,10c-4.4,3.1-9.7,9.5-14.2,12.7,4.2,2.9,7.7,6.2,11.9,9.5l-11.1,11.3c3.8,1.1,7.6,3.5,11.4,5.5" fill="none" stroke="#e1b000" stroke-linecap="round" stroke-linejoin="round" stroke-width="9.05"/><path d="M746.6,993.9l10,7.7-9.9,10,11,10c-4.4,3.1-9.7,9.5-14.2,12.7,4.2,2.9,7.7,6.2,11.9,9.5l-11.1,11.3c3.7,1.1,7.5,3.5,11.3,5.5" fill="none" stroke="#f37021" stroke-linecap="round" stroke-linejoin="round" stroke-width="9.05"/><path d="M203.1,781l10,7.7-9.9,10,11,10c-4.4,3.1-9.7,9.5-14.2,12.7,4.2,2.9,7.7,6.2,11.9,9.5l-11.1,11.3c3.8,1.1,7.6,3.5,11.4,5.5" fill="none" stroke="#2d315d" stroke-linecap="round" stroke-linejoin="round" stroke-width="9.05"/><path d="M474.8,781l10,7.7-9.9,10,11,10c-4.4,3.1-9.7,9.5-14.2,12.7,4.2,2.9,7.7,6.2,11.9,9.5l-11.1,11.3c3.8,1.1,7.6,3.5,11.4,5.5" fill="none" stroke="#0096a4" stroke-linecap="round" stroke-linejoin="round" stroke-width="9.05"/><path d="M746.6,781l10,7.7-9.9,10,11,10c-4.4,3.1-9.7,9.5-14.2,12.7,4.2,2.9,7.7,6.2,11.9,9.5l-11.1,11.3c3.7,1.1,7.5,3.5,11.3,5.5" fill="none" stroke="#e1b000" stroke-linecap="round" stroke-linejoin="round" stroke-width="9.05"/><path d="M203.1,564.6l10,7.7-9.9,10,11,10c-4.4,3.1-9.7,9.5-14.2,12.7,4.2,2.9,7.7,6.2,11.9,9.5l-11.1,11.4c3.8,1,7.6,3.4,11.4,5.4" fill="none" stroke="#f37021" stroke-linecap="round" stroke-linejoin="round" stroke-width="9.05"/><path d="M474.8,564.6l10,7.7-9.9,10,11,10c-4.4,3.1-9.7,9.5-14.2,12.7,4.2,2.9,7.7,6.2,11.9,9.5l-11.1,11.4c3.8,1,7.6,3.4,11.4,5.4" fill="none" stroke="#2d315d" stroke-linecap="round" stroke-linejoin="round" stroke-width="9.05"/><path d="M746.6,564.6l10,7.7-9.9,10,11,10c-4.4,3.1-9.7,9.5-14.2,12.7,4.2,2.9,7.7,6.2,11.9,9.5l-11.1,11.4c3.7,1,7.5,3.4,11.3,5.4" fill="none" stroke="#0096a4" stroke-linecap="round" stroke-linejoin="round" stroke-width="9.05"/><path d="M88.1,1033.5a108,108,0,0,1-10.2,7.6,61.9,61.9,0,0,1-8.6,5.3c-2.6,1.7-5.3,3-5.9,6.3a7.4,7.4,0,0,0,7.6,9.2c4.9,0,7.6-2.3,7.6-8.9v-3.6H93.1v2.9c0,14.6-7.6,22.8-22.5,22.8-7.9,0-15.1-2.6-19.1-8.9s-5.6-14.8,0-20.5,16.2-9.9,23.1-16.5H93.1A47.4,47.4,0,0,1,88.1,1033.5Z" fill="#2d315d"/><path d="M53.5,1025a108,108,0,0,1,10.2-7.6,61.9,61.9,0,0,1,8.6-5.3c2.6-1.7,5.3-3,5.9-6.3s-1.9-9.2-7.6-9.2-7.6,2.3-7.6,8.9v3.6H48.5v-3c0-14.5,7.6-22.7,22.5-22.7,7.9,0,15.2,2.6,19.1,8.9s5.6,14.8,0,20.4-16.2,9.9-23.1,16.5H48.5A55.2,55.2,0,0,1,53.5,1025Z" fill="#2d315d"/><path d="M391.5,1021.6l-10.9,14.1-14.1-14-14.2,15.6c-4.4-6.2-13.5-13.7-18-20.1-4.1,5.9-8.8,10.9-13.4,16.9l-16.1-15.8c-1.5,5.4-4.9,10.8-7.7,16.1" fill="none" stroke="#f37021" stroke-linecap="round" stroke-linejoin="round" stroke-width="12.81"/><path d="M360.1,1033.5a108,108,0,0,1-10.2,7.6,61.9,61.9,0,0,1-8.6,5.3c-2.6,1.7-5.3,3-5.9,6.3a7.4,7.4,0,0,0,7.6,9.2c4.9,0,7.6-2.3,7.6-8.9v-3.6h14.5v2.9c0,14.6-7.6,22.8-22.5,22.8-7.9,0-15.1-2.6-19.1-8.9s-5.6-14.8,0-20.5,16.2-9.9,23.1-16.5h18.5A47.4,47.4,0,0,1,360.1,1033.5Z" fill="#0096a4"/><path d="M325.5,1025a108,108,0,0,1,10.2-7.6,68.4,68.4,0,0,1,8.6-5.3c2.6-1.7,5.3-3,5.9-6.3s-1.9-9.2-7.6-9.2-7.5,2.3-7.5,8.9v3.6H320.5v-3c0-14.5,7.6-22.7,22.5-22.7,7.9,0,15.2,2.6,19.1,8.9s5.6,14.8,0,20.4-16.2,9.9-23.1,16.5H320.5C321.9,1027.9,323.8,1026.3,325.5,1025Z" fill="#0096a4"/><path d="M663.5,1021.6l-10.9,14.1-14.1-14-14.2,15.6c-4.3-6.2-13.5-13.7-17.9-20.1-4.2,5.9-8.9,10.9-13.5,16.9l-16.1-15.8c-1.5,5.4-4.9,10.8-7.7,16.1" fill="none" stroke="#2d315d" stroke-linecap="round" stroke-linejoin="round" stroke-width="12.81"/><path d="M632.1,1033.5a108,108,0,0,1-10.2,7.6,61.9,61.9,0,0,1-8.6,5.3c-2.6,1.7-5.2,3-5.9,6.3a7.4,7.4,0,0,0,7.6,9.2c4.9,0,7.6-2.3,7.6-8.9v-3.6h14.5v2.9c0,14.6-7.6,22.8-22.4,22.8-8,0-15.2-2.6-19.2-8.9s-5.6-14.8,0-20.5,16.2-9.9,23.1-16.5h18.5A47.4,47.4,0,0,1,632.1,1033.5Z" fill="#e1b000"/><path d="M597.5,1025a108,108,0,0,1,10.2-7.6,68.4,68.4,0,0,1,8.6-5.3c2.6-1.7,5.3-3,5.9-6.3a7.4,7.4,0,0,0-7.5-9.2c-5,0-7.6,2.3-7.6,8.9v3.6H592.5v-3c0-14.5,7.6-22.7,22.5-22.7,7.9,0,15.2,2.6,19.1,8.9s5.6,14.8,0,20.4-16.1,9.9-23.1,16.5H592.5C593.9,1027.9,595.8,1026.3,597.5,1025Z" fill="#e1b000"/><path d="M256.1,914.3l-10.9,14.1-14.1-14L216.9,930c-4.4-6.2-13.5-13.7-18-20.1-4.1,5.9-8.8,10.9-13.5,16.9l-16-15.8c-1.5,5.4-4.9,10.8-7.8,16.2" fill="none" stroke="#e1b000" stroke-linecap="round" stroke-linejoin="round" stroke-width="12.81"/><path d="M224.7,926.2a108,108,0,0,1-10.2,7.6,68.4,68.4,0,0,1-8.6,5.3c-2.6,1.7-5.3,3-5.9,6.3s1.9,9.2,7.6,9.2,7.5-2.3,7.5-8.9v-3.6h14.6v3c0,14.5-7.6,22.7-22.5,22.7-7.9,0-15.2-2.6-19.1-8.9s-5.6-14.8,0-20.4,16.2-9.9,23.1-16.5h18.5A64,64,0,0,1,224.7,926.2Z" fill="#2d315d"/><path d="M190.1,917.7a108,108,0,0,1,10.2-7.6,61.9,61.9,0,0,1,8.6-5.3c2.6-1.7,5.3-3,5.9-6.3a7.4,7.4,0,0,0-7.6-9.2c-4.9,0-7.6,2.3-7.6,8.9v3.6H185.1v-2.9c0-14.6,7.6-22.8,22.5-22.8,7.9,0,15.1,2.6,19.1,8.9s5.6,14.8,0,20.5-16.2,9.9-23.1,16.5H185.1A43.1,43.1,0,0,1,190.1,917.7Z" fill="#2d315d"/><path d="M528.1,914.3l-10.9,14.1-14.1-14L488.9,930c-4.4-6.2-13.5-13.7-18-20.1-4.1,5.9-8.8,10.9-13.5,16.9l-16-15.8c-1.5,5.4-4.9,10.8-7.7,16.2" fill="none" stroke="#f37021" stroke-linecap="round" stroke-linejoin="round" stroke-width="12.81"/><path d="M496.7,926.2a108,108,0,0,1-10.2,7.6,61.9,61.9,0,0,1-8.6,5.3c-2.6,1.7-5.3,3-5.9,6.3a7.4,7.4,0,0,0,7.6,9.2c4.9,0,7.6-2.3,7.6-8.9v-3.6h14.5v3c0,14.5-7.6,22.7-22.5,22.7-7.9,0-15.1-2.6-19.1-8.9s-5.6-14.8,0-20.4,16.2-9.9,23.1-16.5h18.5A64,64,0,0,1,496.7,926.2Z" fill="#0096a4"/><path d="M462.1,917.7a108,108,0,0,1,10.2-7.6,61.9,61.9,0,0,1,8.6-5.3c2.6-1.7,5.3-3,5.9-6.3a7.4,7.4,0,0,0-7.6-9.2c-4.9,0-7.6,2.3-7.6,8.9v3.6H457.1v-2.9c0-14.6,7.6-22.8,22.5-22.8,7.9,0,15.1,2.6,19.1,8.9s5.6,14.8,0,20.5-16.2,9.9-23.1,16.5H457.1A43.1,43.1,0,0,1,462.1,917.7Z" fill="#0096a4"/><path d="M800.1,914.3l-10.9,14.1-14.1-14L760.9,930c-4.4-6.2-13.5-13.7-18-20.1-4.1,5.9-8.8,10.9-13.5,16.9l-16-15.8c-1.5,5.4-4.9,10.8-7.7,16.2" fill="none" stroke="#2d315d" stroke-linecap="round" stroke-linejoin="round" stroke-width="12.81"/><path d="M768.7,926.2a108,108,0,0,1-10.2,7.6,61.9,61.9,0,0,1-8.6,5.3c-2.6,1.7-5.3,3-5.9,6.3a7.4,7.4,0,0,0,7.6,9.2c4.9,0,7.6-2.3,7.6-8.9v-3.6h14.5v3c0,14.5-7.6,22.7-22.5,22.7-7.9,0-15.1-2.6-19.1-8.9s-5.6-14.8,0-20.4,16.2-9.9,23.1-16.5h18.5A64,64,0,0,1,768.7,926.2Z" fill="#e1b000"/><path d="M734.1,917.7a108,108,0,0,1,10.2-7.6,68.4,68.4,0,0,1,8.6-5.3c2.6-1.7,5.3-3,5.9-6.3s-1.9-9.2-7.6-9.2-7.5,2.3-7.5,8.9v3.6H729.1v-2.9c0-14.6,7.6-22.8,22.5-22.8,7.9,0,15.2,2.6,19.1,8.9s5.6,14.8,0,20.5-16.2,9.9-23.1,16.5H729.1A53.4,53.4,0,0,1,734.1,917.7Z" fill="#e1b000"/><path d="M256.3,699.1l-10.8,14.1-14.2-14-14.2,15.6c-4.3-6.2-13.5-13.7-17.9-20.1-4.2,5.9-8.9,10.9-13.5,16.9l-16.1-15.8c-1.5,5.4-4.9,10.8-7.7,16.1" fill="none" stroke="#0096a4" stroke-linecap="round" stroke-linejoin="round" stroke-width="12.81"/><path d="M225,711a97.7,97.7,0,0,1-10.3,7.6,67.2,67.2,0,0,1-8.5,5.3c-2.7,1.7-5.3,3-6,6.3a7.4,7.4,0,0,0,7.6,9.2c5,0,7.6-2.3,7.6-8.9v-3.6h14.5v2.9c0,14.6-7.6,22.8-22.4,22.8-7.9,0-15.2-2.6-19.2-8.9s-5.6-14.8,0-20.5,16.2-9.9,23.1-16.5h18.5A57.5,57.5,0,0,1,225,711Z" fill="#f37021"/><path d="M190.3,702.5a108,108,0,0,1,10.2-7.6,76.4,76.4,0,0,1,8.6-5.3c2.7-1.7,5.3-3,6-6.3a7.4,7.4,0,0,0-7.6-9.2c-5,0-7.6,2.3-7.6,8.9v3.6H185.4v-3c0-14.5,7.6-22.7,22.4-22.7,7.9,0,15.2,2.6,19.1,8.9s5.7,14.8,0,20.4-16.1,9.9-23.1,16.5H185.4C186.7,705.4,188.7,703.8,190.3,702.5Z" fill="#f37021"/><path d="M528.3,699.1l-10.8,14.1-14.2-14-14.1,15.6c-4.4-6.2-13.6-13.7-18-20.1-4.2,5.9-8.9,10.9-13.5,16.9l-16.1-15.8c-1.5,5.4-4.9,10.8-7.7,16.1" fill="none" stroke="#e1b000" stroke-linecap="round" stroke-linejoin="round" stroke-width="12.81"/><path d="M497,711a97.7,97.7,0,0,1-10.3,7.6,67.2,67.2,0,0,1-8.5,5.3c-2.7,1.7-5.3,3-6,6.3a7.4,7.4,0,0,0,7.6,9.2c5,0,7.6-2.3,7.6-8.9v-3.6h14.5v2.9c0,14.6-7.6,22.8-22.4,22.8-7.9,0-15.2-2.6-19.2-8.9s-5.6-14.8,0-20.5,16.2-9.9,23.1-16.5h18.5A45.3,45.3,0,0,1,497,711Z" fill="#2d315d"/><path d="M462.3,702.5a97.7,97.7,0,0,1,10.3-7.6,67.2,67.2,0,0,1,8.5-5.3c2.7-1.7,5.3-3,6-6.3a7.4,7.4,0,0,0-7.6-9.2c-5,0-7.6,2.3-7.6,8.9v3.6H457.4v-3c0-14.5,7.6-22.7,22.4-22.7,7.9,0,15.2,2.6,19.2,8.9s5.6,14.8,0,20.4-16.2,9.9-23.1,16.5H457.4C458.7,705.4,460.7,703.8,462.3,702.5Z" fill="#2d315d"/><path d="M800.3,699.1l-10.8,14.1-14.2-14-14.1,15.6c-4.4-6.2-13.6-13.7-18-20.1-4.2,5.9-8.9,10.9-13.5,16.9l-16.1-15.8c-1.5,5.4-4.9,10.8-7.7,16.1" fill="none" stroke="#f37021" stroke-linecap="round" stroke-linejoin="round" stroke-width="12.81"/><path d="M769,711a108,108,0,0,1-10.2,7.6,76.4,76.4,0,0,1-8.6,5.3c-2.7,1.7-5.3,3-6,6.3a7.4,7.4,0,0,0,7.6,9.2c5,0,7.6-2.3,7.6-8.9v-3.6h14.5v2.9c0,14.6-7.6,22.8-22.4,22.8-7.9,0-15.2-2.6-19.2-8.9s-5.6-14.8,0-20.5,16.2-9.9,23.2-16.5h18.4A45.3,45.3,0,0,1,769,711Z" fill="#0096a4"/><path d="M734.3,702.5a97.7,97.7,0,0,1,10.3-7.6,67.2,67.2,0,0,1,8.5-5.3c2.7-1.7,5.3-3,6-6.3a7.4,7.4,0,0,0-7.6-9.2c-5,0-7.6,2.3-7.6,8.9v3.6H729.4v-3c0-14.5,7.6-22.7,22.4-22.7,7.9,0,15.2,2.6,19.2,8.9s5.6,14.8,0,20.4-16.2,9.9-23.1,16.5H729.4C730.7,705.4,732.7,703.8,734.3,702.5Z" fill="#0096a4"/><path d="M935.5,1021.6l-10.8,14.1-14.2-14-14.2,15.6c-4.3-6.2-13.5-13.7-17.9-20.1-4.2,5.9-8.9,10.9-13.5,16.9l-16.1-15.8c-1.5,5.4-4.9,10.8-7.7,16.1" fill="none" stroke="#0096a4" stroke-linecap="round" stroke-linejoin="round" stroke-width="12.81"/><path d="M904.2,1033.5a97.7,97.7,0,0,1-10.3,7.6,61.9,61.9,0,0,1-8.6,5.3c-2.6,1.7-5.2,3-5.9,6.3a7.4,7.4,0,0,0,7.6,9.2c4.9,0,7.6-2.3,7.6-8.9v-3.6h14.5v2.9c0,14.6-7.6,22.8-22.4,22.8-8,0-15.2-2.6-19.2-8.9s-5.6-14.8,0-20.5,16.2-9.9,23.1-16.5h18.5A57.5,57.5,0,0,1,904.2,1033.5Z" fill="#f37021"/><path d="M869.5,1025a108,108,0,0,1,10.2-7.6,68.4,68.4,0,0,1,8.6-5.3c2.7-1.7,5.3-3,6-6.3a7.5,7.5,0,0,0-7.6-9.2c-5,0-7.6,2.3-7.6,8.9v3.6H864.6v-3c0-14.5,7.5-22.7,22.4-22.7,7.9,0,15.2,2.6,19.1,8.9s5.6,14.8,0,20.4-16.1,9.9-23.1,16.5H864.6C865.9,1027.9,867.9,1026.3,869.5,1025Z" fill="#f37021"/><path d="M119.5,806.1l-10.9,14.1-14.1-14L80.3,821.8c-4.4-6.2-13.5-13.8-18-20.2-4.1,6-8.8,11-13.5,16.9l-16-15.7c-1.5,5.3-4.9,10.7-7.7,16.1" fill="none" stroke="#0096a4" stroke-linecap="round" stroke-linejoin="round" stroke-width="12.81"/><path d="M88.1,818c-3.3,2.6-6.6,5.3-10.2,7.6a73.2,73.2,0,0,1-8.6,5.3c-2.6,1.6-5.3,2.9-5.9,6.2a7.5,7.5,0,0,0,7.6,9.3c4.9,0,7.6-2.3,7.6-8.9v-3.7H93.1v3c0,14.5-7.6,22.8-22.5,22.8-7.9,0-15.1-2.7-19.1-8.9s-5.6-14.9,0-20.5,16.2-9.9,23.1-16.5H93.1C91.8,815,90.1,816.3,88.1,818Z" fill="#f37021"/><path d="M53.5,809.4c3.3-2.6,6.6-5.3,10.2-7.6a73.2,73.2,0,0,1,8.6-5.3c2.6-1.6,5.3-2.9,5.9-6.2a7.4,7.4,0,0,0-7.6-9.3c-4.9,0-7.6,2.3-7.6,8.9v3.7H48.5v-3c0-14.5,7.6-22.8,22.5-22.8,7.9,0,15.2,2.7,19.1,8.9s5.6,14.9,0,20.5S73.9,807.1,67,813.7H48.5A55.6,55.6,0,0,1,53.5,809.4Z" fill="#f37021"/><path d="M391.5,806.1l-10.9,14.1-14.1-14-14.2,15.6c-4.4-6.2-13.5-13.8-18-20.2-4.1,6-8.8,11-13.4,16.9l-16.1-15.7c-1.5,5.3-4.9,10.7-7.7,16.1" fill="none" stroke="#e1b000" stroke-linecap="round" stroke-linejoin="round" stroke-width="12.81"/><path d="M360.1,818c-3.3,2.6-6.6,5.3-10.2,7.6a73.2,73.2,0,0,1-8.6,5.3c-2.6,1.6-5.3,2.9-5.9,6.2a7.5,7.5,0,0,0,7.6,9.3c4.9,0,7.6-2.3,7.6-8.9v-3.7h14.5v3c0,14.5-7.6,22.8-22.5,22.8-7.9,0-15.1-2.7-19.1-8.9s-5.6-14.9,0-20.5,16.2-9.9,23.1-16.5h18.5C363.8,815,362.1,816.3,360.1,818Z" fill="#2d315d"/><path d="M325.5,809.4c3.3-2.6,6.6-5.3,10.2-7.6a82.5,82.5,0,0,1,8.6-5.3c2.6-1.6,5.3-2.9,5.9-6.2a7.4,7.4,0,0,0-7.6-9.3c-4.9,0-7.5,2.3-7.5,8.9v3.7H320.5v-3c0-14.5,7.6-22.8,22.5-22.8,7.9,0,15.2,2.7,19.1,8.9s5.6,14.9,0,20.5-16.2,9.9-23.1,16.5H320.5C321.9,812.4,323.8,810.7,325.5,809.4Z" fill="#2d315d"/><path d="M663.5,806.1l-10.9,14.1-14.1-14-14.2,15.6c-4.3-6.2-13.5-13.8-17.9-20.2-4.2,6-8.9,11-13.5,16.9l-16.1-15.7c-1.5,5.3-4.9,10.7-7.7,16.1" fill="none" stroke="#f37021" stroke-linecap="round" stroke-linejoin="round" stroke-width="12.81"/><path d="M632.1,818c-3.3,2.6-6.6,5.3-10.2,7.6a73.2,73.2,0,0,1-8.6,5.3c-2.6,1.6-5.2,2.9-5.9,6.2a7.5,7.5,0,0,0,7.6,9.3c4.9,0,7.6-2.3,7.6-8.9v-3.7h14.5v3c0,14.5-7.6,22.8-22.4,22.8-8,0-15.2-2.7-19.2-8.9s-5.6-14.9,0-20.5,16.2-9.9,23.1-16.5h18.5C635.8,815,634.1,816.3,632.1,818Z" fill="#0096a4"/><path d="M597.5,809.4c3.3-2.6,6.6-5.3,10.2-7.6a82.5,82.5,0,0,1,8.6-5.3c2.6-1.6,5.3-2.9,5.9-6.2a7.4,7.4,0,0,0-7.5-9.3c-5,0-7.6,2.3-7.6,8.9v3.7H592.5v-3c0-14.5,7.6-22.8,22.5-22.8,7.9,0,15.2,2.7,19.1,8.9s5.6,14.9,0,20.5S618,807.1,611,813.7H592.5C593.9,812.4,595.8,810.7,597.5,809.4Z" fill="#0096a4"/><path d="M935.5,806.1l-10.8,14.1-14.2-14-14.2,15.6c-4.3-6.2-13.5-13.8-17.9-20.2-4.2,6-8.9,11-13.5,16.9l-16.1-15.7c-1.5,5.3-4.9,10.7-7.7,16.1" fill="none" stroke="#2d315d" stroke-linecap="round" stroke-linejoin="round" stroke-width="12.81"/><path d="M904.2,818a114.1,114.1,0,0,1-10.3,7.6,73.2,73.2,0,0,1-8.6,5.3c-2.6,1.6-5.2,2.9-5.9,6.2a7.5,7.5,0,0,0,7.6,9.3c4.9,0,7.6-2.3,7.6-8.9v-3.7h14.5v3c0,14.5-7.6,22.8-22.4,22.8-8,0-15.2-2.7-19.2-8.9s-5.6-14.9,0-20.5,16.2-9.9,23.1-16.5h18.5C907.8,815,906.1,816.3,904.2,818Z" fill="#e1b000"/><path d="M869.5,809.4c3.3-2.6,6.6-5.3,10.2-7.6a82.5,82.5,0,0,1,8.6-5.3c2.7-1.6,5.3-2.9,6-6.2s-2-9.3-7.6-9.3-7.6,2.3-7.6,8.9v3.7H864.6v-3c0-14.5,7.5-22.8,22.4-22.8,7.9,0,15.2,2.7,19.1,8.9s5.6,14.9,0,20.5S890,807.1,883,813.7H864.6C865.9,812.4,867.9,810.7,869.5,809.4Z" fill="#e1b000"/><path d="M119.5,589.5l-10.9,14.2-14.1-14L80.3,605.2c-4.4-6.2-13.5-13.7-18-20.1-4.1,6-8.8,11-13.5,16.9l-16-15.8c-1.5,5.4-4.9,10.8-7.7,16.2" fill="none" stroke="#2d315d" stroke-linecap="round" stroke-linejoin="round" stroke-width="12.81"/><path d="M88.1,601.5c-3.3,2.6-6.6,5.2-10.2,7.6a72.7,72.7,0,0,1-8.6,5.2c-2.6,1.7-5.3,3-5.9,6.3a7.4,7.4,0,0,0,7.6,9.2c4.9,0,7.6-2.3,7.6-8.9v-3.6H93.1v3c0,14.5-7.6,22.7-22.5,22.7-7.9,0-15.1-2.6-19.1-8.9s-5.6-14.8,0-20.4,16.2-9.9,23.1-16.5H93.1C91.8,598.5,90.1,599.8,88.1,601.5Z" fill="#e1b000"/><path d="M53.5,592.9a108,108,0,0,1,10.2-7.6,73.2,73.2,0,0,1,8.6-5.3c2.6-1.6,5.3-3,5.9-6.3s-1.9-9.2-7.6-9.2-7.6,2.3-7.6,8.9V577H48.5v-2.9c0-14.6,7.6-22.8,22.5-22.8,7.9,0,15.2,2.6,19.1,8.9s5.6,14.9,0,20.5S73.9,590.6,67,597.2H48.5A43.1,43.1,0,0,1,53.5,592.9Z" fill="#e1b000"/><path d="M391.5,589.5l-10.9,14.2-14.1-14-14.2,15.5c-4.4-6.2-13.5-13.7-18-20.1-4.1,6-8.8,11-13.4,16.9l-16.1-15.8c-1.5,5.4-4.9,10.8-7.7,16.2" fill="none" stroke="#0096a4" stroke-linecap="round" stroke-linejoin="round" stroke-width="12.81"/><path d="M360.1,601.5c-3.3,2.6-6.6,5.2-10.2,7.6a72.7,72.7,0,0,1-8.6,5.2c-2.6,1.7-5.3,3-5.9,6.3a7.4,7.4,0,0,0,7.6,9.2c4.9,0,7.6-2.3,7.6-8.9v-3.6h14.5v3c0,14.5-7.6,22.7-22.5,22.7-7.9,0-15.1-2.6-19.1-8.9s-5.6-14.8,0-20.4,16.2-9.9,23.1-16.5h18.5C363.8,598.5,362.1,599.8,360.1,601.5Z" fill="#f37021"/><path d="M325.5,592.9a108,108,0,0,1,10.2-7.6,82.5,82.5,0,0,1,8.6-5.3c2.6-1.6,5.3-3,5.9-6.3s-1.9-9.2-7.6-9.2-7.5,2.3-7.5,8.9V577H320.5v-2.9c0-14.6,7.6-22.8,22.5-22.8,7.9,0,15.2,2.6,19.1,8.9s5.6,14.9,0,20.5-16.2,9.9-23.1,16.5H320.5A53.4,53.4,0,0,1,325.5,592.9Z" fill="#f37021"/><path d="M663.5,589.5l-10.9,14.2-14.1-14-14.2,15.5c-4.3-6.2-13.5-13.7-17.9-20.1-4.2,6-8.9,11-13.5,16.9l-16.1-15.8c-1.5,5.4-4.9,10.8-7.7,16.2" fill="none" stroke="#e1b000" stroke-linecap="round" stroke-linejoin="round" stroke-width="12.81"/><path d="M632.1,601.5c-3.3,2.6-6.6,5.2-10.2,7.6a72.7,72.7,0,0,1-8.6,5.2c-2.6,1.7-5.2,3-5.9,6.3a7.4,7.4,0,0,0,7.6,9.2c4.9,0,7.6-2.3,7.6-8.9v-3.6h14.5v3c0,14.5-7.6,22.7-22.4,22.7-8,0-15.2-2.6-19.2-8.9s-5.6-14.8,0-20.4,16.2-9.9,23.1-16.5h18.5C635.8,598.5,634.1,599.8,632.1,601.5Z" fill="#2d315d"/><path d="M597.5,592.9a108,108,0,0,1,10.2-7.6,82.5,82.5,0,0,1,8.6-5.3c2.6-1.6,5.3-3,5.9-6.3a7.4,7.4,0,0,0-7.5-9.2c-5,0-7.6,2.3-7.6,8.9V577H592.5v-2.9c0-14.6,7.6-22.8,22.5-22.8,7.9,0,15.2,2.6,19.1,8.9s5.6,14.9,0,20.5S618,590.6,611,597.2H592.5A53.4,53.4,0,0,1,597.5,592.9Z" fill="#2d315d"/><path d="M935.5,589.5l-10.8,14.2-14.2-14-14.2,15.5c-4.3-6.2-13.5-13.7-17.9-20.1-4.2,6-8.9,11-13.5,16.9l-16.1-15.8c-1.5,5.4-4.9,10.8-7.7,16.2" fill="none" stroke="#f37021" stroke-linecap="round" stroke-linejoin="round" stroke-width="12.81"/><path d="M904.2,601.5c-3.3,2.6-6.6,5.2-10.3,7.6a72.7,72.7,0,0,1-8.6,5.2c-2.6,1.7-5.2,3-5.9,6.3a7.4,7.4,0,0,0,7.6,9.2c4.9,0,7.6-2.3,7.6-8.9v-3.6h14.5v3c0,14.5-7.6,22.7-22.4,22.7-8,0-15.2-2.6-19.2-8.9s-5.6-14.8,0-20.4,16.2-9.9,23.1-16.5h18.5C907.8,598.5,906.1,599.8,904.2,601.5Z" fill="#0096a4"/><path d="M869.5,592.9a108,108,0,0,1,10.2-7.6,82.5,82.5,0,0,1,8.6-5.3c2.7-1.6,5.3-3,6-6.3a7.5,7.5,0,0,0-7.6-9.2c-5,0-7.6,2.3-7.6,8.9V577H864.6v-2.9c0-14.6,7.5-22.8,22.4-22.8,7.9,0,15.2,2.6,19.1,8.9s5.6,14.9,0,20.5S890,590.6,883,597.2H864.6A51.9,51.9,0,0,1,869.5,592.9Z" fill="#0096a4"/><path d="M67.9,886.2l10,7.7-9.9,10,11,10c-4.4,3.1-9.7,9.6-14.2,12.7,4.2,2.9,7.7,6.3,11.9,9.5L65.6,947.5c3.8,1,7.6,3.4,11.4,5.4" fill="none" stroke="#2d315d" stroke-linecap="round" stroke-linejoin="round" stroke-width="9.05"/><path d="M339.7,886.2l9.9,7.7-9.9,10,11,10c-4.3,3.1-9.7,9.6-14.2,12.7,4.2,2.9,7.8,6.3,12,9.5l-11.2,11.4c3.8,1,7.6,3.4,11.4,5.4" fill="none" stroke="#0096a4" stroke-linecap="round" stroke-linejoin="round" stroke-width="9.05"/><path d="M611.4,886.2l10,7.7-9.9,10,11,10c-4.4,3.1-9.7,9.6-14.2,12.7,4.2,2.9,7.7,6.3,11.9,9.5l-11.1,11.4c3.8,1,7.6,3.4,11.4,5.4" fill="none" stroke="#e1b000" stroke-linecap="round" stroke-linejoin="round" stroke-width="9.05"/><path d="M882.5,886.2l10,7.7-9.9,10,11,10c-4.4,3.1-9.7,9.6-14.2,12.7,4.2,2.9,7.7,6.3,11.9,9.5l-11.1,11.4c3.8,1,7.6,3.4,11.4,5.4" fill="none" stroke="#f37021" stroke-linecap="round" stroke-linejoin="round" stroke-width="9.05"/><path d="M67.9,671.4l10,7.7-9.9,10,11,10c-4.4,3.1-9.7,9.5-14.2,12.7,4.2,2.9,7.7,6.2,11.9,9.5L65.6,732.6c3.8,1.1,7.6,3.5,11.4,5.5" fill="none" stroke="#f37021" stroke-linecap="round" stroke-linejoin="round" stroke-width="9.05"/><path d="M339.7,671.4l9.9,7.7-9.9,10,11,10c-4.3,3.1-9.7,9.5-14.2,12.7,4.2,2.9,7.8,6.2,12,9.5l-11.2,11.3c3.8,1.1,7.6,3.5,11.4,5.5" fill="none" stroke="#2d315d" stroke-linecap="round" stroke-linejoin="round" stroke-width="9.05"/><path d="M611.4,671.4l10,7.7-9.9,10,11,10c-4.4,3.1-9.7,9.5-14.2,12.7,4.2,2.9,7.7,6.2,11.9,9.5l-11.1,11.3c3.8,1.1,7.6,3.5,11.4,5.5" fill="none" stroke="#0096a4" stroke-linecap="round" stroke-linejoin="round" stroke-width="9.05"/><path d="M882.5,671.4l10,7.7-9.9,10,11,10c-4.4,3.1-9.7,9.5-14.2,12.7,4.2,2.9,7.7,6.2,11.9,9.5l-11.1,11.3c3.8,1.1,7.6,3.5,11.4,5.5" fill="none" stroke="#e1b000" stroke-linecap="round" stroke-linejoin="round" stroke-width="9.05"/><path d="M1800.2,1021.6l10.9,14.1,14.2-14,14.1,15.6c4.4-6.2,13.5-13.7,18-20.1,4.1,5.9,8.9,10.9,13.5,16.9l16.1-15.8c1.4,5.4,4.8,10.8,7.7,16.1" fill="none" stroke="#e1b000" stroke-linecap="round" stroke-linejoin="round" stroke-width="12.81"/><path d="M1716.6,993.9l-9.9,7.7,9.8,10-11,10c4.4,3.1,9.7,9.5,14.3,12.7-4.2,2.9-7.8,6.2-12,9.5l11.2,11.3c-3.8,1.1-7.6,3.5-11.4,5.5" fill="none" stroke="#0096a4" stroke-linecap="round" stroke-linejoin="round" stroke-width="9.05"/><path d="M1444.9,993.9l-10,7.7,9.9,10-11,10c4.4,3.1,9.7,9.5,14.2,12.7-4.2,2.9-7.7,6.2-11.9,9.5l11.1,11.3c-3.8,1.1-7.6,3.5-11.4,5.5" fill="none" stroke="#e1b000" stroke-linecap="round" stroke-linejoin="round" stroke-width="9.05"/><path d="M1173.1,993.9l-9.9,7.7,9.9,10-11,10c4.3,3.1,9.7,9.5,14.2,12.7-4.2,2.9-7.8,6.2-12,9.5l11.2,11.3c-3.8,1.1-7.6,3.5-11.4,5.5" fill="none" stroke="#f37021" stroke-linecap="round" stroke-linejoin="round" stroke-width="9.05"/><path d="M1716.6,781l-9.9,7.7,9.8,10-11,10c4.4,3.1,9.7,9.5,14.3,12.7-4.2,2.9-7.8,6.2-12,9.5l11.2,11.3c-3.8,1.1-7.6,3.5-11.4,5.5" fill="none" stroke="#2d315d" stroke-linecap="round" stroke-linejoin="round" stroke-width="9.05"/><path d="M1444.9,781l-10,7.7,9.9,10-11,10c4.4,3.1,9.7,9.5,14.2,12.7-4.2,2.9-7.7,6.2-11.9,9.5l11.1,11.3c-3.8,1.1-7.6,3.5-11.4,5.5" fill="none" stroke="#0096a4" stroke-linecap="round" stroke-linejoin="round" stroke-width="9.05"/><path d="M1173.1,781l-9.9,7.7,9.9,10-11,10c4.3,3.1,9.7,9.5,14.2,12.7-4.2,2.9-7.8,6.2-12,9.5l11.2,11.3c-3.8,1.1-7.6,3.5-11.4,5.5" fill="none" stroke="#e1b000" stroke-linecap="round" stroke-linejoin="round" stroke-width="9.05"/><path d="M1716.6,564.6l-9.9,7.7,9.8,10-11,10c4.4,3.1,9.7,9.5,14.3,12.7-4.2,2.9-7.8,6.2-12,9.5l11.2,11.4c-3.8,1-7.6,3.4-11.4,5.4" fill="none" stroke="#f37021" stroke-linecap="round" stroke-linejoin="round" stroke-width="9.05"/><path d="M1444.9,564.6l-10,7.7,9.9,10-11,10c4.4,3.1,9.7,9.5,14.2,12.7-4.2,2.9-7.7,6.2-11.9,9.5l11.1,11.4c-3.8,1-7.6,3.4-11.4,5.4" fill="none" stroke="#2d315d" stroke-linecap="round" stroke-linejoin="round" stroke-width="9.05"/><path d="M1173.1,564.6l-9.9,7.7,9.9,10-11,10c4.3,3.1,9.7,9.5,14.2,12.7-4.2,2.9-7.8,6.2-12,9.5l11.2,11.4c-3.8,1-7.6,3.4-11.4,5.4" fill="none" stroke="#0096a4" stroke-linecap="round" stroke-linejoin="round" stroke-width="9.05"/><path d="M1831.6,1033.5a108,108,0,0,0,10.2,7.6,68.4,68.4,0,0,0,8.6,5.3c2.6,1.7,5.3,3,5.9,6.3s-1.9,9.2-7.6,9.2-7.5-2.3-7.5-8.9v-3.6h-14.6v2.9c0,14.6,7.6,22.8,22.5,22.8,7.9,0,15.2-2.6,19.1-8.9s5.6-14.8,0-20.5-16.2-9.9-23.1-16.5h-18.5A60.3,60.3,0,0,0,1831.6,1033.5Z" fill="#2d315d"/><path d="M1866.2,1025a108,108,0,0,0-10.2-7.6,61.9,61.9,0,0,0-8.6-5.3c-2.6-1.7-5.3-3-5.9-6.3a7.4,7.4,0,0,1,7.6-9.2c4.9,0,7.6,2.3,7.6,8.9v3.6h14.5v-3c0-14.5-7.6-22.7-22.5-22.7-7.9,0-15.1,2.6-19.1,8.9s-5.6,14.8,0,20.4,16.2,9.9,23.1,16.5h18.5A55.2,55.2,0,0,0,1866.2,1025Z" fill="#2d315d"/><path d="M1528.2,1021.6l10.9,14.1,14.1-14,14.2,15.6c4.4-6.2,13.5-13.7,18-20.1,4.1,5.9,8.8,10.9,13.5,16.9l16-15.8c1.5,5.4,4.9,10.8,7.8,16.1" fill="none" stroke="#f37021" stroke-linecap="round" stroke-linejoin="round" stroke-width="12.81"/><path d="M1559.6,1033.5a108,108,0,0,0,10.2,7.6,61.9,61.9,0,0,0,8.6,5.3c2.6,1.7,5.3,3,5.9,6.3a7.4,7.4,0,0,1-7.6,9.2c-4.9,0-7.6-2.3-7.6-8.9v-3.6h-14.5v2.9c0,14.6,7.6,22.8,22.5,22.8,7.9,0,15.2-2.6,19.1-8.9s5.6-14.8,0-20.5-16.2-9.9-23.1-16.5h-18.5A47.4,47.4,0,0,0,1559.6,1033.5Z" fill="#0096a4"/><path d="M1594.2,1025a108,108,0,0,0-10.2-7.6,61.9,61.9,0,0,0-8.6-5.3c-2.6-1.7-5.3-3-5.9-6.3a7.4,7.4,0,0,1,7.6-9.2c4.9,0,7.6,2.3,7.6,8.9v3.6h14.5v-3c0-14.5-7.6-22.7-22.5-22.7-7.9,0-15.1,2.6-19.1,8.9s-5.6,14.8,0,20.4,16.2,9.9,23.1,16.5h18.5A55.2,55.2,0,0,0,1594.2,1025Z" fill="#0096a4"/><path d="M1256.2,1021.6l10.9,14.1,14.1-14,14.2,15.6c4.4-6.2,13.5-13.7,18-20.1,4.1,5.9,8.8,10.9,13.5,16.9l16-15.8c1.5,5.4,4.9,10.8,7.7,16.1" fill="none" stroke="#2d315d" stroke-linecap="round" stroke-linejoin="round" stroke-width="12.81"/><path d="M1287.6,1033.5a108,108,0,0,0,10.2,7.6,61.9,61.9,0,0,0,8.6,5.3c2.6,1.7,5.3,3,5.9,6.3a7.4,7.4,0,0,1-7.6,9.2c-4.9,0-7.6-2.3-7.6-8.9v-3.6h-14.5v2.9c0,14.6,7.6,22.8,22.5,22.8,7.9,0,15.1-2.6,19.1-8.9s5.6-14.8,0-20.5-16.2-9.9-23.1-16.5h-18.5A47.4,47.4,0,0,0,1287.6,1033.5Z" fill="#e1b000"/><path d="M1322.2,1025a108,108,0,0,0-10.2-7.6,61.9,61.9,0,0,0-8.6-5.3c-2.6-1.7-5.3-3-5.9-6.3a7.4,7.4,0,0,1,7.6-9.2c4.9,0,7.6,2.3,7.6,8.9v3.6h14.5v-3c0-14.5-7.6-22.7-22.5-22.7-7.9,0-15.2,2.6-19.1,8.9s-5.6,14.8,0,20.4,16.2,9.9,23.1,16.5h18.5A55.2,55.2,0,0,0,1322.2,1025Z" fill="#e1b000"/><path d="M1663.6,914.3l10.9,14.1,14.2-14,14.1,15.6c4.4-6.2,13.6-13.7,18-20.1,4.1,5.9,8.9,10.9,13.5,16.9l16.1-15.8c1.4,5.4,4.9,10.8,7.7,16.2" fill="none" stroke="#e1b000" stroke-linecap="round" stroke-linejoin="round" stroke-width="12.81"/><path d="M1695,926.2a108,108,0,0,0,10.2,7.6,68.4,68.4,0,0,0,8.6,5.3c2.6,1.7,5.3,3,5.9,6.3a7.4,7.4,0,0,1-7.5,9.2c-5,0-7.6-2.3-7.6-8.9v-3.6H1690v3c0,14.5,7.6,22.7,22.5,22.7,7.9,0,15.2-2.6,19.1-8.9s5.6-14.8,0-20.4-16.1-9.9-23.1-16.5H1690C1691.4,923.3,1693,924.6,1695,926.2Z" fill="#2d315d"/><path d="M1729.7,917.7a109.3,109.3,0,0,0-10.3-7.6,61.9,61.9,0,0,0-8.6-5.3c-2.6-1.7-5.2-3-5.9-6.3a7.4,7.4,0,0,1,7.6-9.2c4.9,0,7.6,2.3,7.6,8.9v3.6h14.5v-2.9c0-14.6-7.6-22.8-22.4-22.8-8,0-15.2,2.6-19.2,8.9s-5.6,14.8,0,20.5,16.2,9.9,23.1,16.5h18.5A51.9,51.9,0,0,0,1729.7,917.7Z" fill="#2d315d"/><path d="M1391.6,914.3l10.9,14.1,14.2-14,14.1,15.6c4.4-6.2,13.5-13.7,18-20.1,4.1,5.9,8.9,10.9,13.5,16.9l16.1-15.8c1.4,5.4,4.8,10.8,7.7,16.2" fill="none" stroke="#f37021" stroke-linecap="round" stroke-linejoin="round" stroke-width="12.81"/><path d="M1423,926.2a108,108,0,0,0,10.2,7.6,68.4,68.4,0,0,0,8.6,5.3c2.6,1.7,5.3,3,5.9,6.3a7.4,7.4,0,0,1-7.5,9.2c-5,0-7.6-2.3-7.6-8.9v-3.6H1418v3c0,14.5,7.6,22.7,22.5,22.7,7.9,0,15.2-2.6,19.1-8.9s5.6-14.8,0-20.4-16.1-9.9-23.1-16.5H1418C1419.4,923.3,1421,924.6,1423,926.2Z" fill="#0096a4"/><path d="M1457.6,917.7a108,108,0,0,0-10.2-7.6,61.9,61.9,0,0,0-8.6-5.3c-2.6-1.7-5.3-3-5.9-6.3a7.4,7.4,0,0,1,7.6-9.2c4.9,0,7.6,2.3,7.6,8.9v3.6h14.5v-2.9c0-14.6-7.6-22.8-22.4-22.8-8,0-15.2,2.6-19.2,8.9s-5.6,14.8,0,20.5,16.2,9.9,23.1,16.5h18.5A43.1,43.1,0,0,0,1457.6,917.7Z" fill="#0096a4"/><path d="M1119.6,914.3l10.9,14.1,14.1-14,14.2,15.6c4.4-6.2,13.5-13.7,18-20.1,4.1,5.9,8.8,10.9,13.5,16.9l16-15.8c1.5,5.4,4.9,10.8,7.8,16.2" fill="none" stroke="#2d315d" stroke-linecap="round" stroke-linejoin="round" stroke-width="12.81"/><path d="M1151,926.2a108,108,0,0,0,10.2,7.6,68.4,68.4,0,0,0,8.6,5.3c2.6,1.7,5.3,3,5.9,6.3s-1.9,9.2-7.6,9.2-7.5-2.3-7.5-8.9v-3.6H1146v3c0,14.5,7.6,22.7,22.5,22.7,7.9,0,15.2-2.6,19.1-8.9s5.6-14.8,0-20.4-16.2-9.9-23.1-16.5H1146A64,64,0,0,0,1151,926.2Z" fill="#e1b000"/><path d="M1185.6,917.7a108,108,0,0,0-10.2-7.6,61.9,61.9,0,0,0-8.6-5.3c-2.6-1.7-5.3-3-5.9-6.3a7.4,7.4,0,0,1,7.6-9.2c4.9,0,7.6,2.3,7.6,8.9v3.6h14.5v-2.9c0-14.6-7.6-22.8-22.5-22.8-7.9,0-15.1,2.6-19.1,8.9s-5.6,14.8,0,20.5,16.2,9.9,23.1,16.5h18.5A43.1,43.1,0,0,0,1185.6,917.7Z" fill="#e1b000"/><path d="M1663.4,699.1l10.9,14.1,14.1-14,14.2,15.6c4.3-6.2,13.5-13.7,17.9-20.1,4.2,5.9,8.9,10.9,13.5,16.9l16.1-15.8c1.5,5.4,4.9,10.8,7.7,16.1" fill="none" stroke="#0096a4" stroke-linecap="round" stroke-linejoin="round" stroke-width="12.81"/><path d="M1694.8,711a108,108,0,0,0,10.2,7.6,61.9,61.9,0,0,0,8.6,5.3c2.6,1.7,5.2,3,5.9,6.3a7.4,7.4,0,0,1-7.6,9.2c-4.9,0-7.6-2.3-7.6-8.9v-3.6h-14.5v2.9c0,14.6,7.6,22.8,22.4,22.8,8,0,15.2-2.6,19.2-8.9s5.6-14.8,0-20.5-16.2-9.9-23.1-16.5h-18.5A47.4,47.4,0,0,0,1694.8,711Z" fill="#f37021"/><path d="M1729.4,702.5a108,108,0,0,0-10.2-7.6,68.4,68.4,0,0,0-8.6-5.3c-2.6-1.7-5.3-3-5.9-6.3a7.4,7.4,0,0,1,7.5-9.2c5,0,7.6,2.3,7.6,8.9v3.6h14.6v-3c0-14.5-7.6-22.7-22.5-22.7-7.9,0-15.2,2.6-19.1,8.9s-5.6,14.8,0,20.4,16.1,9.9,23.1,16.5h18.5C1733,705.4,1731.1,703.8,1729.4,702.5Z" fill="#f37021"/><path d="M1391.4,699.1l10.9,14.1,14.1-14,14.2,15.6c4.3-6.2,13.5-13.7,17.9-20.1,4.2,5.9,8.9,10.9,13.5,16.9l16.1-15.8c1.5,5.4,4.9,10.8,7.7,16.1" fill="none" stroke="#e1b000" stroke-linecap="round" stroke-linejoin="round" stroke-width="12.81"/><path d="M1422.7,711a97.7,97.7,0,0,0,10.3,7.6,61.9,61.9,0,0,0,8.6,5.3c2.6,1.7,5.2,3,5.9,6.3a7.4,7.4,0,0,1-7.6,9.2c-4.9,0-7.6-2.3-7.6-8.9v-3.6h-14.5v2.9c0,14.6,7.6,22.8,22.4,22.8,8,0,15.2-2.6,19.2-8.9s5.6-14.8,0-20.5-16.2-9.9-23.1-16.5h-18.5A57.5,57.5,0,0,0,1422.7,711Z" fill="#2d315d"/><path d="M1457.4,702.5a108,108,0,0,0-10.2-7.6,68.4,68.4,0,0,0-8.6-5.3c-2.7-1.7-5.3-3-6-6.3a7.5,7.5,0,0,1,7.6-9.2c5,0,7.6,2.3,7.6,8.9v3.6h14.5v-3c0-14.5-7.5-22.7-22.4-22.7-7.9,0-15.2,2.6-19.1,8.9s-5.6,14.8,0,20.4,16.1,9.9,23.1,16.5h18.4C1461,705.4,1459,703.8,1457.4,702.5Z" fill="#2d315d"/><path d="M1119.4,699.1l10.8,14.1,14.2-14,14.2,15.6c4.3-6.2,13.5-13.7,17.9-20.1,4.2,5.9,8.9,10.9,13.5,16.9l16.1-15.8c1.5,5.4,4.9,10.8,7.7,16.1" fill="none" stroke="#f37021" stroke-linecap="round" stroke-linejoin="round" stroke-width="12.81"/><path d="M1150.7,711a97.7,97.7,0,0,0,10.3,7.6,67.2,67.2,0,0,0,8.5,5.3c2.7,1.7,5.3,3,6,6.3a7.4,7.4,0,0,1-7.6,9.2c-5,0-7.6-2.3-7.6-8.9v-3.6h-14.5v2.9c0,14.6,7.6,22.8,22.4,22.8,7.9,0,15.2-2.6,19.2-8.9s5.6-14.8,0-20.5-16.2-9.9-23.1-16.5h-18.5A57.5,57.5,0,0,0,1150.7,711Z" fill="#0096a4"/><path d="M1185.4,702.5a108,108,0,0,0-10.2-7.6,76.4,76.4,0,0,0-8.6-5.3c-2.7-1.7-5.3-3-6-6.3a7.4,7.4,0,0,1,7.6-9.2c5,0,7.6,2.3,7.6,8.9v3.6h14.5v-3c0-14.5-7.6-22.7-22.4-22.7-7.9,0-15.2,2.6-19.1,8.9s-5.7,14.8,0,20.4,16.1,9.9,23.1,16.5h18.4C1189,705.4,1187,703.8,1185.4,702.5Z" fill="#0096a4"/><path d="M984.2,1021.6l10.9,14.1,14.1-14,14.2,15.6c4.4-6.2,13.5-13.7,18-20.1,4.1,5.9,8.8,10.9,13.5,16.9l16-15.8c1.5,5.4,4.9,10.8,7.7,16.1" fill="none" stroke="#0096a4" stroke-linecap="round" stroke-linejoin="round" stroke-width="12.81"/><path d="M1015.6,1033.5a108,108,0,0,0,10.2,7.6,61.9,61.9,0,0,0,8.6,5.3c2.6,1.7,5.3,3,5.9,6.3a7.4,7.4,0,0,1-7.6,9.2c-4.9,0-7.6-2.3-7.6-8.9v-3.6h-14.5v2.9c0,14.6,7.6,22.8,22.5,22.8,7.9,0,15.1-2.6,19.1-8.9s5.6-14.8,0-20.5-16.2-9.9-23.1-16.5h-18.5A47.4,47.4,0,0,0,1015.6,1033.5Z" fill="#f37021"/><path d="M1050.2,1025a108,108,0,0,0-10.2-7.6,68.4,68.4,0,0,0-8.6-5.3c-2.6-1.7-5.3-3-5.9-6.3s1.9-9.2,7.6-9.2,7.5,2.3,7.5,8.9v3.6h14.6v-3c0-14.5-7.6-22.7-22.5-22.7-7.9,0-15.2,2.6-19.1,8.9s-5.6,14.8,0,20.4,16.2,9.9,23.1,16.5h18.5C1053.8,1027.9,1051.9,1026.3,1050.2,1025Z" fill="#f37021"/><path d="M1800.2,806.1l10.9,14.1,14.2-14,14.1,15.6c4.4-6.2,13.5-13.8,18-20.2,4.1,6,8.9,11,13.5,16.9l16.1-15.7c1.4,5.3,4.8,10.7,7.7,16.1" fill="none" stroke="#0096a4" stroke-linecap="round" stroke-linejoin="round" stroke-width="12.81"/><path d="M1831.6,818c3.3,2.6,6.6,5.3,10.2,7.6a82.5,82.5,0,0,0,8.6,5.3c2.6,1.6,5.3,2.9,5.9,6.2s-1.9,9.3-7.6,9.3-7.5-2.3-7.5-8.9v-3.7h-14.6v3c0,14.5,7.6,22.8,22.5,22.8,7.9,0,15.2-2.7,19.1-8.9s5.6-14.9,0-20.5-16.2-9.9-23.1-16.5h-18.5Z" fill="#f37021"/><path d="M1866.2,809.4c-3.3-2.6-6.6-5.3-10.2-7.6a73.2,73.2,0,0,0-8.6-5.3c-2.6-1.6-5.3-2.9-5.9-6.2a7.5,7.5,0,0,1,7.6-9.3c4.9,0,7.6,2.3,7.6,8.9v3.7h14.5v-3c0-14.5-7.6-22.8-22.5-22.8-7.9,0-15.1,2.7-19.1,8.9s-5.6,14.9,0,20.5,16.2,9.9,23.1,16.5h18.5A55.6,55.6,0,0,0,1866.2,809.4Z" fill="#f37021"/><path d="M1528.2,806.1l10.9,14.1,14.1-14,14.2,15.6c4.4-6.2,13.5-13.8,18-20.2,4.1,6,8.8,11,13.5,16.9l16-15.7c1.5,5.3,4.9,10.7,7.8,16.1" fill="none" stroke="#e1b000" stroke-linecap="round" stroke-linejoin="round" stroke-width="12.81"/><path d="M1559.6,818c3.3,2.6,6.6,5.3,10.2,7.6a73.2,73.2,0,0,0,8.6,5.3c2.6,1.6,5.3,2.9,5.9,6.2a7.5,7.5,0,0,1-7.6,9.3c-4.9,0-7.6-2.3-7.6-8.9v-3.7h-14.5v3c0,14.5,7.6,22.8,22.5,22.8,7.9,0,15.2-2.7,19.1-8.9s5.6-14.9,0-20.5-16.2-9.9-23.1-16.5h-18.5C1555.9,815,1557.6,816.3,1559.6,818Z" fill="#2d315d"/><path d="M1594.2,809.4c-3.3-2.6-6.6-5.3-10.2-7.6a73.2,73.2,0,0,0-8.6-5.3c-2.6-1.6-5.3-2.9-5.9-6.2a7.5,7.5,0,0,1,7.6-9.3c4.9,0,7.6,2.3,7.6,8.9v3.7h14.5v-3c0-14.5-7.6-22.8-22.5-22.8-7.9,0-15.1,2.7-19.1,8.9s-5.6,14.9,0,20.5,16.2,9.9,23.1,16.5h18.5A55.6,55.6,0,0,0,1594.2,809.4Z" fill="#2d315d"/><path d="M1256.2,806.1l10.9,14.1,14.1-14,14.2,15.6c4.4-6.2,13.5-13.8,18-20.2,4.1,6,8.8,11,13.5,16.9l16-15.7c1.5,5.3,4.9,10.7,7.7,16.1" fill="none" stroke="#f37021" stroke-linecap="round" stroke-linejoin="round" stroke-width="12.81"/><path d="M1287.6,818c3.3,2.6,6.6,5.3,10.2,7.6a73.2,73.2,0,0,0,8.6,5.3c2.6,1.6,5.3,2.9,5.9,6.2a7.5,7.5,0,0,1-7.6,9.3c-4.9,0-7.6-2.3-7.6-8.9v-3.7h-14.5v3c0,14.5,7.6,22.8,22.5,22.8,7.9,0,15.1-2.7,19.1-8.9s5.6-14.9,0-20.5-16.2-9.9-23.1-16.5h-18.5C1283.9,815,1285.6,816.3,1287.6,818Z" fill="#0096a4"/><path d="M1322.2,809.4c-3.3-2.6-6.6-5.3-10.2-7.6a73.2,73.2,0,0,0-8.6-5.3c-2.6-1.6-5.3-2.9-5.9-6.2a7.5,7.5,0,0,1,7.6-9.3c4.9,0,7.6,2.3,7.6,8.9v3.7h14.5v-3c0-14.5-7.6-22.8-22.5-22.8-7.9,0-15.2,2.7-19.1,8.9s-5.6,14.9,0,20.5,16.2,9.9,23.1,16.5h18.5A55.6,55.6,0,0,0,1322.2,809.4Z" fill="#0096a4"/><path d="M984.2,806.1l10.9,14.1,14.1-14,14.2,15.6c4.4-6.2,13.5-13.8,18-20.2,4.1,6,8.8,11,13.5,16.9l16-15.7c1.5,5.3,4.9,10.7,7.7,16.1" fill="none" stroke="#2d315d" stroke-linecap="round" stroke-linejoin="round" stroke-width="12.81"/><path d="M1015.6,818c3.3,2.6,6.6,5.3,10.2,7.6a73.2,73.2,0,0,0,8.6,5.3c2.6,1.6,5.3,2.9,5.9,6.2a7.5,7.5,0,0,1-7.6,9.3c-4.9,0-7.6-2.3-7.6-8.9v-3.7h-14.5v3c0,14.5,7.6,22.8,22.5,22.8,7.9,0,15.1-2.7,19.1-8.9s5.6-14.9,0-20.5-16.2-9.9-23.1-16.5h-18.5C1011.9,815,1013.6,816.3,1015.6,818Z" fill="#e1b000"/><path d="M1050.2,809.4c-3.3-2.6-6.6-5.3-10.2-7.6a82.5,82.5,0,0,0-8.6-5.3c-2.6-1.6-5.3-2.9-5.9-6.2a7.4,7.4,0,0,1,7.6-9.3c4.9,0,7.5,2.3,7.5,8.9v3.7h14.6v-3c0-14.5-7.6-22.8-22.5-22.8-7.9,0-15.2,2.7-19.1,8.9s-5.6,14.9,0,20.5,16.2,9.9,23.1,16.5h18.5C1053.8,812.4,1051.9,810.7,1050.2,809.4Z" fill="#e1b000"/><path d="M1800.2,589.5l10.9,14.2,14.2-14,14.1,15.5c4.4-6.2,13.5-13.7,18-20.1,4.1,6,8.9,11,13.5,16.9l16.1-15.8c1.4,5.4,4.8,10.8,7.7,16.2" fill="none" stroke="#2d315d" stroke-linecap="round" stroke-linejoin="round" stroke-width="12.81"/><path d="M1831.6,601.5c3.3,2.6,6.6,5.2,10.2,7.6a81.8,81.8,0,0,0,8.6,5.2c2.6,1.7,5.3,3,5.9,6.3s-1.9,9.2-7.6,9.2-7.5-2.3-7.5-8.9v-3.6h-14.6v3c0,14.5,7.6,22.7,22.5,22.7,7.9,0,15.2-2.6,19.1-8.9s5.6-14.8,0-20.4-16.2-9.9-23.1-16.5h-18.5Z" fill="#e1b000"/><path d="M1866.2,592.9a108,108,0,0,0-10.2-7.6,73.2,73.2,0,0,0-8.6-5.3c-2.6-1.6-5.3-3-5.9-6.3a7.4,7.4,0,0,1,7.6-9.2c4.9,0,7.6,2.3,7.6,8.9V577h14.5v-2.9c0-14.6-7.6-22.8-22.5-22.8-7.9,0-15.1,2.6-19.1,8.9s-5.6,14.9,0,20.5,16.2,9.9,23.1,16.5h18.5A43.1,43.1,0,0,0,1866.2,592.9Z" fill="#e1b000"/><path d="M1528.2,589.5l10.9,14.2,14.1-14,14.2,15.5c4.4-6.2,13.5-13.7,18-20.1,4.1,6,8.8,11,13.5,16.9l16-15.8c1.5,5.4,4.9,10.8,7.8,16.2" fill="none" stroke="#0096a4" stroke-linecap="round" stroke-linejoin="round" stroke-width="12.81"/><path d="M1559.6,601.5c3.3,2.6,6.6,5.2,10.2,7.6a72.7,72.7,0,0,0,8.6,5.2c2.6,1.7,5.3,3,5.9,6.3a7.4,7.4,0,0,1-7.6,9.2c-4.9,0-7.6-2.3-7.6-8.9v-3.6h-14.5v3c0,14.5,7.6,22.7,22.5,22.7,7.9,0,15.2-2.6,19.1-8.9s5.6-14.8,0-20.4-16.2-9.9-23.1-16.5h-18.5C1555.9,598.5,1557.6,599.8,1559.6,601.5Z" fill="#f37021"/><path d="M1594.2,592.9a108,108,0,0,0-10.2-7.6,73.2,73.2,0,0,0-8.6-5.3c-2.6-1.6-5.3-3-5.9-6.3a7.4,7.4,0,0,1,7.6-9.2c4.9,0,7.6,2.3,7.6,8.9V577h14.5v-2.9c0-14.6-7.6-22.8-22.5-22.8-7.9,0-15.1,2.6-19.1,8.9s-5.6,14.9,0,20.5,16.2,9.9,23.1,16.5h18.5A43.1,43.1,0,0,0,1594.2,592.9Z" fill="#f37021"/><path d="M1256.2,589.5l10.9,14.2,14.1-14,14.2,15.5c4.4-6.2,13.5-13.7,18-20.1,4.1,6,8.8,11,13.5,16.9l16-15.8c1.5,5.4,4.9,10.8,7.7,16.2" fill="none" stroke="#e1b000" stroke-linecap="round" stroke-linejoin="round" stroke-width="12.81"/><path d="M1287.6,601.5c3.3,2.6,6.6,5.2,10.2,7.6a72.7,72.7,0,0,0,8.6,5.2c2.6,1.7,5.3,3,5.9,6.3a7.4,7.4,0,0,1-7.6,9.2c-4.9,0-7.6-2.3-7.6-8.9v-3.6h-14.5v3c0,14.5,7.6,22.7,22.5,22.7,7.9,0,15.1-2.6,19.1-8.9s5.6-14.8,0-20.4-16.2-9.9-23.1-16.5h-18.5C1283.9,598.5,1285.6,599.8,1287.6,601.5Z" fill="#2d315d"/><path d="M1322.2,592.9a108,108,0,0,0-10.2-7.6,73.2,73.2,0,0,0-8.6-5.3c-2.6-1.6-5.3-3-5.9-6.3a7.4,7.4,0,0,1,7.6-9.2c4.9,0,7.6,2.3,7.6,8.9V577h14.5v-2.9c0-14.6-7.6-22.8-22.5-22.8-7.9,0-15.2,2.6-19.1,8.9s-5.6,14.9,0,20.5,16.2,9.9,23.1,16.5h18.5A43.1,43.1,0,0,0,1322.2,592.9Z" fill="#2d315d"/><path d="M984.2,589.5l10.9,14.2,14.1-14,14.2,15.5c4.4-6.2,13.5-13.7,18-20.1,4.1,6,8.8,11,13.5,16.9l16-15.8c1.5,5.4,4.9,10.8,7.7,16.2" fill="none" stroke="#f37021" stroke-linecap="round" stroke-linejoin="round" stroke-width="12.81"/><path d="M1015.6,601.5c3.3,2.6,6.6,5.2,10.2,7.6a72.7,72.7,0,0,0,8.6,5.2c2.6,1.7,5.3,3,5.9,6.3a7.4,7.4,0,0,1-7.6,9.2c-4.9,0-7.6-2.3-7.6-8.9v-3.6h-14.5v3c0,14.5,7.6,22.7,22.5,22.7,7.9,0,15.1-2.6,19.1-8.9s5.6-14.8,0-20.4-16.2-9.9-23.1-16.5h-18.5C1011.9,598.5,1013.6,599.8,1015.6,601.5Z" fill="#0096a4"/><path d="M1050.2,592.9a108,108,0,0,0-10.2-7.6,82.5,82.5,0,0,0-8.6-5.3c-2.6-1.6-5.3-3-5.9-6.3s1.9-9.2,7.6-9.2,7.5,2.3,7.5,8.9V577h14.6v-2.9c0-14.6-7.6-22.8-22.5-22.8-7.9,0-15.2,2.6-19.1,8.9s-5.6,14.9,0,20.5,16.2,9.9,23.1,16.5h18.5A53.4,53.4,0,0,0,1050.2,592.9Z" fill="#0096a4"/><path d="M1851.8,886.2l-10,7.7,9.9,10-11,10c4.4,3.1,9.7,9.6,14.2,12.7-4.2,2.9-7.7,6.3-11.9,9.5l11.1,11.4c-3.8,1-7.6,3.4-11.4,5.4" fill="none" stroke="#2d315d" stroke-linecap="round" stroke-linejoin="round" stroke-width="9.05"/><path d="M1580.1,886.2l-10,7.7,9.9,10-11,10c4.4,3.1,9.7,9.6,14.2,12.7-4.2,2.9-7.7,6.3-11.9,9.5l11.1,11.4c-3.8,1-7.6,3.4-11.4,5.4" fill="none" stroke="#0096a4" stroke-linecap="round" stroke-linejoin="round" stroke-width="9.05"/><path d="M1308.3,886.2l-10,7.7,9.9,10-11,10c4.4,3.1,9.7,9.6,14.2,12.7-4.2,2.9-7.7,6.3-11.9,9.5l11.1,11.4c-3.8,1-7.6,3.4-11.4,5.4" fill="none" stroke="#e1b000" stroke-linecap="round" stroke-linejoin="round" stroke-width="9.05"/><path d="M1037.2,886.2l-10,7.7,9.9,10-11,10c4.4,3.1,9.7,9.6,14.2,12.7-4.2,2.9-7.7,6.3-11.9,9.5l11.1,11.4c-3.8,1-7.6,3.4-11.4,5.4" fill="none" stroke="#f37021" stroke-linecap="round" stroke-linejoin="round" stroke-width="9.05"/><path d="M1851.8,671.4l-10,7.7,9.9,10-11,10c4.4,3.1,9.7,9.5,14.2,12.7-4.2,2.9-7.7,6.2-11.9,9.5l11.1,11.3c-3.8,1.1-7.6,3.5-11.4,5.5" fill="none" stroke="#f37021" stroke-linecap="round" stroke-linejoin="round" stroke-width="9.05"/><path d="M1580.1,671.4l-10,7.7,9.9,10-11,10c4.4,3.1,9.7,9.5,14.2,12.7-4.2,2.9-7.7,6.2-11.9,9.5l11.1,11.3c-3.8,1.1-7.6,3.5-11.4,5.5" fill="none" stroke="#2d315d" stroke-linecap="round" stroke-linejoin="round" stroke-width="9.05"/><path d="M1308.3,671.4l-10,7.7,9.9,10-11,10c4.4,3.1,9.7,9.5,14.2,12.7-4.2,2.9-7.7,6.2-11.9,9.5l11.1,11.3c-3.8,1.1-7.6,3.5-11.4,5.5" fill="none" stroke="#0096a4" stroke-linecap="round" stroke-linejoin="round" stroke-width="9.05"/><path d="M1037.2,671.4l-10,7.7,9.9,10-11,10c4.4,3.1,9.7,9.5,14.2,12.7-4.2,2.9-7.7,6.2-11.9,9.5l11.1,11.3c-3.8,1.1-7.6,3.5-11.4,5.5" fill="none" stroke="#e1b000" stroke-linecap="round" stroke-linejoin="round" stroke-width="9.05"/><rect x="1.7" width="1918.3" height="1080" fill="#f7f4e4" opacity="0.75"/></svg>