<?xml version="1.0" encoding="utf-8"?>
<!-- Generator: Adobe Illustrator 25.0.1, SVG Export Plug-In . SVG Version: 6.00 Build 0)  -->
<svg version="1.1" id="Layer_9" xmlns="http://www.w3.org/2000/svg" xmlns:xlink="http://www.w3.org/1999/xlink" x="0px" y="0px"
	 viewBox="0 0 108 53.8" style="enable-background:new 0 0 108 53.8;" xml:space="preserve">
<style type="text/css">
	.st0{fill:none;stroke:#E1B000;stroke-width:7.87;stroke-linecap:round;stroke-linejoin:round;}
</style>
<path class="st0" d="M16.6,15c-0.7,6.5-1,13-0.7,19.5l11.5-19.8c0.4,9.5,0.8,19.2,3.2,28.4L45,10.7l3.9,30.1l8-27
	c0.8,9.2,3,18.2,6.5,26.7c0.7-6.2,2.3-12.3,4.7-18.1c1.3,6.8,3.7,13.3,7.2,19.2c1.1-9,3.5-17.8,7.1-26.1c1.3,7.2,3.4,14.3,6.2,21.1
	c0.1-0.9,3.5-18.4,3.6-19.3"/>
</svg>
