<?xml version="1.0" encoding="utf-8"?>
<!-- Generator: Adobe Illustrator 25.0.1, SVG Export Plug-In . SVG Version: 6.00 Build 0)  -->
<svg version="1.1" id="Branding" xmlns="http://www.w3.org/2000/svg" xmlns:xlink="http://www.w3.org/1999/xlink" x="0px" y="0px"
	 viewBox="0 0 875 482" style="enable-background:new 0 0 875 482;" xml:space="preserve">
<style type="text/css">
	.st0{fill:none;stroke:#F37021;stroke-width:73.51;stroke-linecap:round;stroke-linejoin:round;}
	.st1{fill:#FFFFFF;}
	.st2{fill:#2D315D;}
</style>
<path class="st0" d="M127.7,47.4l-81.6,90l175.5-79.7c-9.1,26.8-25.7,50.5-42,73.8l-74.4,106.2c95.1-68.1,193.9-130.9,295.9-188
	c-41.9,70.7-74.6,146.6-97.2,225.6L613.2,58.9c-42.9,63.5-76.8,132.7-100.5,205.6C612.3,193.3,716,128.1,823.2,69"/>
<path class="st1" d="M150.8,72.2v5.7c0,16.3-5.4,26.6-17.3,31.8v0.4c14.3,5.3,19.9,17.1,19.9,33.9v12.9c0,24.5-13.8,37.7-40.6,37.7
	H70.7V35.7h40.4C138.8,35.7,150.8,47.7,150.8,72.2z M97.4,58.4v42h10.5c10,0,16.1-4.1,16.1-16.8v-8.9c0-11.3-4.2-16.3-13.7-16.3
	L97.4,58.4z M97.4,123.1v48.8h15.4c9,0,13.9-3.9,13.9-15.7v-13.8c0-14.8-5.2-19.3-17.3-19.3L97.4,123.1z"/>
<path class="st1" d="M225.5,194.6c-1.5-4.1-2.4-6.6-2.4-19.5v-25c0-14.8-5.4-20.2-17.6-20.2h-9.2v64.7h-26.8V35.7h40.4
	c27.8,0,39.7,12,39.7,36.5v12.5c0,16.4-5.6,26.8-17.5,32v0.5c13.4,5.2,17.7,17,17.7,33.6v24.5c0,7.7,0.3,13.4,3,19.3L225.5,194.6z
	 M196.3,58.4v48.8h10.5c9.9,0,16-4.1,16-16.8V74.7c0-11.3-4.1-16.3-13.6-16.3L196.3,58.4z"/>
<path class="st1" d="M354,194.6h-27l-4.6-28.9h-32.9l-4.6,28.9h-24.6l27.3-158.9h39.2L354,194.6z M292.9,144.2h25.8l-12.6-80.4h-0.5
	L292.9,144.2z"/>
<path class="st1" d="M390.8,79.5h-0.5v115.1h-24.1V35.7h33.6l27,95.1h0.5V35.7h23.9v158.9h-27.5L390.8,79.5z"/>
<path class="st1" d="M569.7,35.7h26.8v158.9h-26.8V35.7z"/>
<path class="st1" d="M640.3,79.5h-0.5v115.1h-24.1V35.7h33.6l27,95.1h0.5V35.7h23.9v158.9h-27.5L640.3,79.5z"/>
<path class="st1" d="M760.1,106h37.5v50.4c0,25.5-13.7,40-39.9,40s-40-14.5-40-40V73.8c0-25.4,13.7-39.9,40-39.9
	s39.9,14.5,39.9,39.9v15.4h-25.3v-17c0-11.3-5.4-15.6-13.9-15.6s-13.9,4.3-13.9,15.6V158c0,11.4,5.4,15.5,13.9,15.5
	s13.9-4.1,13.9-15.5v-29.3h-12.2V106z"/>
<path class="st1" d="M510.8,35.7h-43.1v62.7L495,121V58.2h15.4c8.7,0,13.9,4.2,13.9,15.4V156c0,11.3-5.2,15.3-13.9,15.3H495v-17.1
	l-27.3-22.7v62.6h43.1c27.3,0,40.6-13.9,40.6-39.1V74.8C551.5,49.5,538.1,35.7,510.8,35.7z"/>
<path class="st2" d="M145.8,68.2v5.7c0,16.3-5.4,26.6-17.3,31.8v0.4c14.3,5.3,19.9,17.1,19.9,33.9v12.9c0,24.5-13.8,37.7-40.6,37.7
	H65.7V31.7h40.4C133.8,31.7,145.8,43.7,145.8,68.2z M92.4,54.4v42h10.5c10,0,16.1-4.1,16.1-16.8v-8.9c0-11.3-4.2-16.3-13.7-16.3
	L92.4,54.4z M92.4,119.1v48.8h15.4c9,0,13.9-3.9,13.9-15.7v-13.8c0-14.8-5.2-19.3-17.3-19.3L92.4,119.1z"/>
<path class="st2" d="M220.5,190.6c-1.5-4.1-2.4-6.6-2.4-19.5v-25c0-14.8-5.4-20.2-17.6-20.2h-9.2v64.7h-26.8V31.7h40.4
	c27.8,0,39.7,12,39.7,36.5v12.5c0,16.4-5.6,26.8-17.5,32v0.5c13.4,5.2,17.7,17,17.7,33.6v24.5c0,7.7,0.3,13.4,3,19.3L220.5,190.6z
	 M191.3,54.4v48.8h10.4c10,0,16.1-4.1,16.1-16.8V70.7c0-11.3-4.1-16.3-13.6-16.3L191.3,54.4z"/>
<path class="st2" d="M349,190.6h-27l-4.6-28.9h-32.9l-4.6,28.9h-24.6l27.3-158.9h39.2L349,190.6z M287.9,140.2h25.8l-12.6-80.4h-0.5
	L287.9,140.2z"/>
<path class="st2" d="M385.8,75.5h-0.5v115.1h-24.1V31.7h33.6l27,95.1h0.5V31.7h23.9v158.9h-27.5L385.8,75.5z"/>
<path class="st2" d="M564.7,31.7h26.8v158.9h-26.8V31.7z"/>
<path class="st2" d="M635.3,75.5h-0.5v115.1h-24.1V31.7h33.6l27,95.1h0.5V31.7h23.9v158.9h-27.5L635.3,75.5z"/>
<path class="st2" d="M755.1,102h37.5v50.4c0,25.5-13.7,40-40,40s-39.9-14.5-39.9-40V69.8c0-25.4,13.7-39.9,39.9-39.9
	s40,14.5,40,39.9v15.4h-25.3v-17c0-11.3-5.4-15.6-13.9-15.6s-13.9,4.3-13.9,15.6V154c0,11.4,5.4,15.5,13.9,15.5s13.9-4.1,13.9-15.5
	v-29.3h-12.2V102z"/>
<path class="st2" d="M505.8,31.7h-43.1v62.7L490,117V54.2h15.4c8.7,0,13.9,4.2,13.9,15.4V152c0,11.3-5.2,15.3-13.9,15.3H490v-17.2
	l-27.3-22.6v62.6h43.1c27.3,0,40.6-13.9,40.6-39.1V70.8C546.5,45.5,533.1,31.7,505.8,31.7z"/>
<rect x="60.4" y="224.5" class="st1" width="737.2" height="14.7"/>
<rect x="57.4" y="220.5" class="st2" width="737.2" height="14.7"/>
</svg>
