<svg id="Designss" xmlns="http://www.w3.org/2000/svg" width="832.8" height="298.1" viewBox="0 0 832.8 298.1"><path d="M137.6,46.1,47.4,141.2,288.5,54.4q-61.4,99.5-122.6,199.1C266.2,180,366.9,106.2,477.3,46.1A847.6,847.6,0,0,0,355.9,249.2C449.7,188.5,525,107.8,618.8,47.1,602.9,109.7,590.1,172,576,219,630,187.1,724.8,97.8,778.8,66L731,241" fill="none" stroke="#e1b000" stroke-linecap="round" stroke-linejoin="round" stroke-width="84"/><path d="M188.6,101.9h36.5v22.7H188.6v46.5h46v22.7H161.9V34.9h72.7V57.6h-46Z" fill="#fff"/><path d="M286.8,31.8c26,0,39.3,14.7,39.3,40.5v5.1H300.9V70.7c0-11.5-4.8-15.9-13.3-15.9s-13.3,4.4-13.3,15.9,5.3,20.5,22.7,35c22.3,18.7,29.3,32,29.3,50.4,0,25.8-13.5,40.5-39.7,40.5s-39.7-14.7-39.7-40.5v-9.9h25.2v11.5c0,11.5,5.3,15.7,13.8,15.7s13.8-4.2,13.8-15.7-5.3-20.5-22.8-35c-22.3-18.6-29.3-32-29.3-50.4C247.6,46.5,260.9,31.8,286.8,31.8Z" fill="#fff"/><path d="M341.6,34.9h26.6V193.8H341.6Z" fill="#fff"/><path d="M427.5,105.3h37.3v50.4c0,25.4-13.6,39.9-39.7,39.9s-39.7-14.5-39.7-39.9V73.1c0-25.5,13.5-40,39.7-40s39.7,14.5,39.7,40V88.5H439.6v-17c0-11.4-5.3-15.7-13.8-15.7S412,60.1,412,71.5v85.8c0,11.3,5.3,15.4,13.8,15.4s13.8-4.1,13.8-15.4V128H427.5Z" fill="#fff"/><path d="M506.2,78.7h-.5V193.8h-24V34.9h33.5L542,130h.5V34.9h23.7V193.8H538.9Z" fill="#fff"/><path d="M662.2,195.3c33.7,0,45.8-20.1,45.8-38.9a48.3,48.3,0,0,0-.8-8.1c-3.5-21.8-28.3-28.1-44.8-32.3-10.8-3.2-17-6.6-20.9-11.2l-2.8-3.2-13.4,18.2,2.4,2.2c8.7,7.6,17.5,11.2,29,15.6,2.9,1.1,5.9,2,8.9,2.9,8.5,2.7,17.2,5.4,19.5,10.4.9,1.7,1.2,3.5,1.2,6.4s-1.1,17.4-23.8,17.4c-18.2,0-29.5-11-33.6-15.7l-2.7-3.2-12.6,16.9,1.7,2.1C623,184.2,637.3,195.3,662.2,195.3Z" fill="#fff"/><path d="M659.5,102.6l1.4.3,3.3,1c9.7,3,18.9,5.7,21.8,11.5l2.5,5L702.8,101l-2-2.1c-8.9-9.5-22.5-13.9-34.6-17.2C655.9,79,647,76.4,643,72.2a8.8,8.8,0,0,1-2.3-6.4c0-9,8.2-15.1,20.3-15.1s23,4.3,30.9,13.1l2.6,2.8,13.4-16-2.1-2.3C695,36.9,680.3,31.1,662.2,31.1c-25.2,0-43.4,15-43.4,35.8a25.5,25.5,0,0,0,1.3,8.4C624.4,93.3,643,98.2,659.5,102.6Z" fill="#fff"/><path d="M105.8,34.4H62.7V96.9L90,119.5V56.9h15.4c8.7,0,13.9,4.1,13.9,15.3v82.1c0,11.3-5.2,15.3-13.9,15.3H90V152.5L62.7,129.9v62.4h43.1c27.3,0,40.6-13.8,40.6-39V73.4C146.5,48.2,133.1,34.4,105.8,34.4Z" fill="#fff"/><path d="M758.4,195.3c33.7,0,45.8-20.1,45.8-38.9a48.3,48.3,0,0,0-.8-8.1c-3.5-21.8-28.3-28.1-44.8-32.3-10.8-3.2-17-6.6-20.9-11.2l-2.8-3.2-13.4,18.2,2.4,2.2c8.7,7.6,17.5,11.2,29,15.6,2.9,1.1,5.9,2,8.9,2.9,8.5,2.7,17.2,5.4,19.5,10.4.9,1.7,1.2,3.5,1.2,6.4s-1.1,17.4-23.8,17.4c-18.2,0-29.5-11-33.6-15.7l-2.7-3.2-12.6,16.9,1.7,2.1C719.2,184.2,733.5,195.3,758.4,195.3Z" fill="#fff"/><path d="M755.7,102.6l1.4.3,3.3,1c9.7,3,18.9,5.7,21.8,11.5l2.5,5L799,101l-2-2.1c-8.9-9.5-22.5-13.9-34.6-17.2-10.3-2.7-19.2-5.3-23.2-9.5a8.8,8.8,0,0,1-2.3-6.4c0-9,8.2-15.1,20.3-15.1s23,4.3,30.9,13.1l2.6,2.8,13.4-16L802,48.3c-10.8-11.4-25.5-17.2-43.6-17.2-25.2,0-43.4,15-43.4,35.8a25.5,25.5,0,0,0,1.3,8.4C720.6,93.3,739.2,98.2,755.7,102.6Z" fill="#fff"/><rect x="63.1" y="223" width="746" height="14.7" fill="#fff"/><circle cx="590.1" cy="182.2" r="10.2" fill="#fff"/><path d="M184.5,97.9h36.6v22.7H184.5v46.5h46.1v22.7H157.9V30.9h72.7V53.6H184.5Z" fill="#2d315d"/><path d="M282.8,27.8c26,0,39.3,14.7,39.3,40.5v5.1H296.9V66.7c0-11.5-4.9-15.9-13.3-15.9s-13.3,4.4-13.3,15.9,5.3,20.5,22.7,35c22.3,18.6,29.3,32,29.3,50.4,0,25.8-13.5,40.5-39.7,40.5s-39.7-14.7-39.7-40.5v-9.9h25.2v11.5c0,11.5,5.3,15.7,13.8,15.7s13.8-4.2,13.8-15.7-5.3-20.5-22.8-35c-22.3-18.6-29.3-32-29.3-50.4C243.6,42.5,256.9,27.8,282.8,27.8Z" fill="#2d315d"/><path d="M337.6,30.9h26.6V189.8H337.6Z" fill="#2d315d"/><path d="M423.5,101.3h37.3v50.4c0,25.4-13.6,39.9-39.7,39.9s-39.7-14.5-39.7-39.9V69.1c0-25.5,13.5-40,39.7-40s39.7,14.5,39.7,40V84.5H435.6v-17c0-11.4-5.3-15.7-13.8-15.7S408,56.1,408,67.5v85.8c0,11.3,5.3,15.4,13.8,15.4s13.8-4.1,13.8-15.4V124H423.5Z" fill="#2d315d"/><path d="M502.2,74.7h-.5V189.8h-24V30.9h33.5L538,126h.5V30.9h23.7V189.8H534.9Z" fill="#2d315d"/><path d="M658.2,191.3c33.7,0,45.8-20.1,45.8-38.9a48.3,48.3,0,0,0-.8-8.1c-3.5-21.8-28.3-28.1-44.8-32.3-10.8-3.3-17-6.6-20.9-11.2l-2.8-3.2-13.4,18.2,2.4,2.2c8.7,7.6,17.5,11.2,29,15.6,2.9,1.1,5.9,2,8.9,2.9,8.5,2.7,17.2,5.4,19.5,10.4.9,1.7,1.2,3.5,1.2,6.4s-1.1,17.4-23.8,17.4c-18.2,0-29.5-11-33.6-15.7l-2.7-3.3-12.6,17,1.7,2.1C619,180.1,633.3,191.3,658.2,191.3Z" fill="#2d315d"/><path d="M655.5,98.6l1.4.3,3.3,1c9.7,3,18.9,5.7,21.8,11.5l2.5,5L698.8,97l-2-2.1c-8.9-9.5-22.5-13.9-34.6-17.2C651.9,75,643,72.4,639,68.2a8.8,8.8,0,0,1-2.3-6.4c0-9,8.2-15.1,20.3-15.1s23,4.3,30.9,13.1l2.6,2.8,13.4-16-2.1-2.3C691,32.9,676.3,27.1,658.2,27.1c-25.2,0-43.4,15-43.4,35.8a25.9,25.9,0,0,0,1.3,8.4C620.4,89.3,639,94.2,655.5,98.6Z" fill="#2d315d"/><path d="M101.8,30.4H58.7V92.9L86,115.5V52.9h15.4c8.7,0,13.9,4.1,13.9,15.3v82.1c0,11.3-5.2,15.3-13.9,15.3H86V148.5L58.7,125.9v62.4h43.1c27.3,0,40.6-13.8,40.6-39V69.4C142.5,44.2,129.1,30.4,101.8,30.4Z" fill="#2d315d"/><path d="M754.4,191.3c33.7,0,45.8-20.1,45.8-38.9a48.3,48.3,0,0,0-.8-8.1c-3.5-21.8-28.3-28.1-44.8-32.3-10.8-3.3-17-6.6-20.9-11.2l-2.8-3.2-13.4,18.2,2.4,2.2c8.7,7.6,17.5,11.2,29,15.6,2.9,1.1,5.9,2,8.9,2.9,8.5,2.7,17.2,5.4,19.5,10.4.9,1.7,1.2,3.5,1.2,6.4s-1.1,17.4-23.8,17.4c-18.2,0-29.5-11-33.6-15.7l-2.7-3.3-12.6,17,1.7,2.1C715.2,180.1,729.5,191.3,754.4,191.3Z" fill="#2d315d"/><path d="M751.7,98.6l1.4.3,3.3,1c9.7,3,18.9,5.7,21.8,11.5l2.5,5L795,97l-2-2.1c-8.9-9.5-22.5-13.9-34.6-17.2-10.3-2.7-19.2-5.3-23.2-9.5a8.8,8.8,0,0,1-2.3-6.4c0-9,8.2-15.1,20.3-15.1s23,4.3,30.9,13.1l2.6,2.8,13.4-16L798,44.3c-10.8-11.4-25.5-17.2-43.6-17.2-25.2,0-43.4,15-43.4,35.8a25.9,25.9,0,0,0,1.3,8.4C716.6,89.3,735.2,94.2,751.7,98.6Z" fill="#2d315d"/><rect x="59.1" y="219" width="746" height="14.7" fill="#2d315d"/><circle cx="586.1" cy="178.2" r="10.2" fill="#2d315d"/><line x1="703.9" y1="46.6" x2="609.6" y2="168.7" fill="none"/></svg>