<svg id="Layer_1" data-name="Layer 1" xmlns="http://www.w3.org/2000/svg" width="612" height="612" viewBox="0 0 612 612"><rect width="612" height="612" fill="#fff"/><path d="M398,283.2c-17.6-14-35.1-28-54.3-40.3-14.1-10.5-29.8-19.2-45.6-28-14-8.7-28-15.8-31.5-33.3-5.3-24.5,10.5-49,40.3-49,26.3,0,40.3,12.2,40.3,47.3v19.2h77V183.4c0-77.1-40.2-120.9-119.1-120.9-42,0-80.6,14-101.6,47.3-21,31.5-29.8,78.8,0,108.6,35.1,35,85.9,52.6,122.6,87.6h98.1C417.2,299,408.5,292,398,283.2Z" fill="#0096a4"/><path d="M214,328.8c17.6,14,35.1,28,54.3,40.3,14.1,10.5,29.8,19.2,45.6,28,14,8.7,28,15.8,31.5,33.3,5.3,24.5-10.5,49-40.3,49-26.3,0-40.3-12.2-40.3-47.3V412.9h-77v15.7c0,77.1,40.2,120.9,119.1,120.9,42,0,80.6-14,101.6-47.3,21-31.5,29.8-78.8,0-108.6-35.1-35-85.9-52.6-122.6-87.6H187.8C194.8,313,205.3,321.8,214,328.8Z" fill="#0096a4"/></svg>