<?xml version="1.0" encoding="utf-8"?>
<!-- Generator: Adobe Illustrator 25.1.0, SVG Export Plug-In . SVG Version: 6.00 Build 0)  -->
<svg version="1.1" id="Ilustration.layout" xmlns="http://www.w3.org/2000/svg" xmlns:xlink="http://www.w3.org/1999/xlink" x="0px"
	 y="0px" viewBox="0 0 1186.7 482" style="enable-background:new 0 0 1186.7 482;" xml:space="preserve">
<style type="text/css">
	.st0{fill:none;stroke:#2D315D;stroke-width:84;stroke-linecap:round;stroke-linejoin:round;}
	.st1{fill:#FFFFFF;}
	.st2{fill:#E1B000;}
</style>
<path class="st0" d="M104.9,42.2c-29.3,42.9-31,56.9-60.3,99.7c96.2-34.2,158.5-55.5,266-80.9C240.4,130.9,94.1,304.2,45.7,390.6
	C174.5,330.7,443.3,115.7,565,43.5c-42.9,78.9-85.9,159.4-115.9,198.7s-93.2,112.5-159.3,188.5c144.4-119.5,374.7-285.9,538.1-378
	c-67.1,92-77.2,109.3-138.5,193.5c167.1-89.4,237.8-139.1,400.9-222.3c-34.1,106.5-19.8,76-43.2,198.1"/>
<rect x="61.4" y="434.7" class="st1" width="970.6" height="14.7"/>
<path class="st1" d="M69.5,36.2h26.7v158.9H69.5V36.2z"/>
<path class="st1" d="M115.7,36.2h26.7v136.2h44v22.7h-70.7V36.2z"/>
<path class="st1" d="M198,36.2h26.7v136.2h44v22.7H198V36.2z"/>
<path class="st1" d="M305.9,36.2v122.6c0,11.3,5.3,15.4,13.8,15.4s13.9-4.1,13.9-15.4V36.2h25.2v121c0,25.4-13.6,40-39.8,40
	s-39.9-14.6-39.9-40v-121H305.9z"/>
<path class="st1" d="M463.1,36.2h82.6v22.7h-27.9v136.2H491V58.9h-27.9V36.2z"/>
<path class="st1" d="M613.2,195.1c-1.4-4.1-2.4-6.6-2.4-19.5v-25c0-14.7-5.4-20.2-17.5-20.2h-9.2v64.7h-26.8V36.2h40.4
	c27.7,0,39.6,12,39.6,36.6v12.4c0,16.4-5.6,26.8-17.5,32.1v0.4c13.3,5.2,17.7,17,17.7,33.6v24.5c0,7.7,0.3,13.4,2.9,19.3
	L613.2,195.1z M584.1,58.9v48.8h10.4c10,0,16-4.1,16-16.8V75.3c0-11.4-4.1-16.4-13.6-16.4H584.1z"/>
<path class="st1" d="M741.5,195.1h-27l-4.6-28.8h-32.8l-4.6,28.8H648l27.2-158.9h39.1L741.5,195.1z M680.5,144.7h25.8l-12.7-80.3
	h-0.5L680.5,144.7z"/>
<path class="st1" d="M736.9,36.2h82.5v22.7h-27.9v136.2h-26.7V58.9h-27.9V36.2z"/>
<path class="st1" d="M831.1,36.2h26.7v158.9h-26.7V36.2z"/>
<path class="st1" d="M875.1,74.3c0-25.4,14.3-39.9,40.5-39.9s40.6,14.5,40.6,39.9V157c0,25.4-14.3,39.9-40.6,39.9
	s-40.5-14.5-40.5-39.9V74.3z M901.8,158.6c0,11.3,5.3,15.6,13.8,15.6s13.9-4.3,13.9-15.6V72.8c0-11.4-5.4-15.7-13.9-15.7
	s-13.8,4.3-13.8,15.7V158.6z"/>
<path class="st1" d="M997.7,80h-0.5v115.1h-24V36.2h33.5l27,95.1h0.5V36.2h23.8v158.9h-27.5L997.7,80z"/>
<path class="st1" d="M69.5,246.2h26.7v136.2h44v22.7H69.5V246.2z"/>
<path class="st1" d="M238.3,405.1h-26.9l-4.6-28.8H174l-4.6,28.8h-24.6L172,246.2h39.1L238.3,405.1z M177.4,354.7h25.7l-12.6-80.3
	H190L177.4,354.7z"/>
<path class="st1" d="M263.8,352.5l-33.7-106.3H258l20.2,72.4h0.5l20.1-72.4h25.5l-33.7,106.3v52.6h-26.8V352.5z"/>
<path class="st1" d="M329.2,284.3c0-25.4,14.3-39.9,40.6-39.9s40.5,14.5,40.5,39.9V367c0,25.4-14.3,39.9-40.5,39.9
	s-40.6-14.5-40.6-39.9V284.3z M355.9,368.6c0,11.3,5.3,15.6,13.9,15.6s13.8-4.3,13.8-15.6v-85.8c0-11.4-5.3-15.7-13.8-15.7
	s-13.9,4.3-13.9,15.7V368.6z"/>
<path class="st1" d="M453.1,246.2v122.6c0,11.3,5.3,15.4,13.8,15.4s13.9-4.1,13.9-15.4V246.2H506v121c0,25.4-13.6,40-39.8,40
	s-39.9-14.6-39.9-40v-121L453.1,246.2z"/>
<path class="st1" d="M516.5,246.2h82.6v22.7h-28v136.2h-26.7V268.9h-27.9V246.2z"/>
<rect x="61.4" y="434.7" class="st1" width="970.6" height="14.7"/>
<path class="st1" d="M1161.4,35.9h23.1l-67.1,158.9h-23.1L1161.4,35.9z"/>
<rect x="57.4" y="430.7" class="st2" width="970.6" height="14.7"/>
<path class="st2" d="M65.5,32.2h26.7v158.9H65.5V32.2z"/>
<path class="st2" d="M111.7,32.2h26.7v136.2h44v22.7h-70.7V32.2z"/>
<path class="st2" d="M194,32.2h26.7v136.2h44v22.7H194V32.2z"/>
<path class="st2" d="M301.9,32.2v122.6c0,11.3,5.3,15.4,13.8,15.4s13.9-4.1,13.9-15.4V32.2h25.2v121c0,25.4-13.6,40-39.8,40
	s-39.9-14.6-39.9-40v-121H301.9z"/>
<path class="st2" d="M459.1,32.2h82.6v22.7h-27.9v136.2H487V54.9h-27.9V32.2z"/>
<path class="st2" d="M609.2,191.1c-1.4-4.1-2.4-6.6-2.4-19.5v-25c0-14.7-5.4-20.2-17.5-20.2h-9.2v64.7h-26.8V32.2h40.4
	c27.7,0,39.6,12,39.6,36.6v12.4c0,16.4-5.6,26.8-17.5,32.1v0.4c13.3,5.2,17.7,17,17.7,33.6v24.5c0,7.7,0.3,13.4,2.9,19.3
	L609.2,191.1z M580.1,54.9v48.8h10.4c10,0,16-4.1,16-16.8V71.3c0-11.4-4.1-16.4-13.6-16.4H580.1z"/>
<path class="st2" d="M737.5,191.1h-27l-4.6-28.8h-32.8l-4.6,28.8h-24.6l27.3-158.9h39.1L737.5,191.1z M676.5,140.7h25.7l-12.6-80.3
	h-0.5L676.5,140.7z"/>
<path class="st2" d="M732.9,32.2h82.5v22.7h-27.9v136.2h-26.7V54.9h-27.9V32.2z"/>
<path class="st2" d="M827.1,32.2h26.7v158.9h-26.7V32.2z"/>
<path class="st2" d="M871.1,70.3c0-25.4,14.3-39.9,40.5-39.9s40.6,14.5,40.6,39.9V153c0,25.4-14.3,39.9-40.6,39.9
	s-40.5-14.5-40.5-39.9V70.3z M897.8,154.6c0,11.3,5.3,15.6,13.8,15.6s13.9-4.3,13.9-15.6V68.8c0-11.4-5.4-15.7-13.9-15.7
	s-13.8,4.3-13.8,15.7V154.6z"/>
<path class="st2" d="M993.7,76h-0.5v115.1h-24V32.2h33.5l27,95.1h0.5V32.2h23.8v158.9h-27.5L993.7,76z"/>
<path class="st2" d="M65.5,242.2h26.7v136.2h44v22.7H65.5V242.2z"/>
<path class="st2" d="M234.3,401.1h-26.9l-4.6-28.8H170l-4.6,28.8h-24.6L168,242.2h39.1L234.3,401.1z M173.4,350.7h25.7l-12.6-80.3
	H186L173.4,350.7z"/>
<path class="st2" d="M259.8,348.4l-33.7-106.2H254l20.2,72.4h0.5l20.1-72.4h25.5l-33.7,106.2v52.7h-26.8V348.4z"/>
<path class="st2" d="M325.2,280.3c0-25.4,14.3-39.9,40.5-39.9s40.6,14.5,40.6,39.9V363c0,25.4-14.3,39.9-40.6,39.9
	s-40.5-14.5-40.5-39.9V280.3z M351.9,364.6c0,11.3,5.3,15.6,13.8,15.6s13.9-4.3,13.9-15.6v-85.8c0-11.4-5.3-15.7-13.9-15.7
	s-13.8,4.3-13.8,15.7V364.6z"/>
<path class="st2" d="M449.1,242.2v122.6c0,11.3,5.3,15.4,13.8,15.4s13.9-4.1,13.9-15.4V242.2H502v121c0,25.4-13.6,40-39.8,40
	s-39.9-14.6-39.9-40v-121L449.1,242.2z"/>
<path class="st2" d="M512.5,242.2H595v22.7h-27.9v136.2h-26.7V264.9h-27.9V242.2z"/>
<path class="st2" d="M1157.4,31.9h23.1l-67.1,158.9h-23.1L1157.4,31.9z"/>
<g>
	<path class="st1" d="M441.3,107.9c-5.8-4.6-11.6-9.2-17.9-13.3c-4.6-3.5-9.8-6.3-15-9.2c-4.6-2.9-9.2-5.2-10.4-11
		c-1.7-8.1,3.5-16.1,13.3-16.1c8.7,0,13.3,4,13.3,15.6v6.3h25.4v-5.2c0-25.4-13.2-39.8-39.2-39.8c-13.8,0-26.5,4.6-33.5,15.6
		c-6.9,10.4-9.8,26,0,35.8c11.6,11.5,28.3,17.3,40.4,28.9h32.3C447.6,113.1,444.7,110.8,441.3,107.9z"/>
	<path class="st1" d="M380.7,123c5.8,4.6,11.6,9.2,17.9,13.3c4.6,3.5,9.8,6.3,15,9.2c4.6,2.9,9.2,5.2,10.4,11
		c1.7,8.1-3.5,16.1-13.3,16.1c-8.7,0-13.3-4-13.3-15.6v-6.3H372v5.2c0,25.4,13.2,39.8,39.2,39.8c13.8,0,26.5-4.6,33.5-15.6
		c6.9-10.4,9.8-26,0-35.8c-11.6-11.5-28.3-17.3-40.4-28.9H372C374.3,117.8,377.8,120.7,380.7,123z"/>
</g>
<g>
	<path class="st2" d="M437.2,103.9c-5.8-4.6-11.6-9.2-17.9-13.3c-4.6-3.5-9.8-6.3-15-9.2c-4.6-2.9-9.2-5.2-10.4-11
		c-1.7-8.1,3.5-16.1,13.3-16.1c8.7,0,13.3,4,13.3,15.6v6.3h25.4v-5.2c0-25.4-13.2-39.8-39.2-39.8c-13.8,0-26.5,4.6-33.5,15.6
		c-6.9,10.4-9.8,26,0,35.8c11.6,11.5,28.3,17.3,40.4,28.9h32.3C443.6,109.1,440.7,106.8,437.2,103.9z"/>
	<path class="st2" d="M376.6,119c5.8,4.6,11.6,9.2,17.9,13.3c4.6,3.5,9.8,6.3,15,9.2c4.6,2.9,9.2,5.2,10.4,11
		c1.7,8.1-3.5,16.1-13.3,16.1c-8.7,0-13.3-4-13.3-15.6v-6.3H368v5.2c0,25.4,13.2,39.8,39.2,39.8c13.8,0,26.5-4.6,33.5-15.6
		c6.9-10.4,9.8-26,0-35.8c-11.6-11.5-28.3-17.3-40.4-28.9H368C370.3,113.8,373.8,116.7,376.6,119z"/>
</g>
</svg>
