<svg id="Ilustration.layout" xmlns="http://www.w3.org/2000/svg" width="1186.7" height="482" viewBox="0 0 1186.7 482"><path d="M104.9,42.2c-29.3,42.9-31,56.9-60.3,99.7,96.2-34.2,158.5-55.5,266-80.9C240.4,130.9,94.1,304.2,45.7,390.6,174.5,330.7,443.3,115.7,565,43.5c-42.9,78.9-85.9,159.4-115.9,198.7S355.9,354.7,289.8,430.7c144.4-119.5,374.7-285.9,538.1-378-67.1,92-77.2,109.3-138.5,193.5,167.1-89.4,237.8-139.1,400.9-222.3-34.1,106.5-19.8,76-43.2,198.1" fill="none" stroke="#2d315d" stroke-linecap="round" stroke-linejoin="round" stroke-width="84"/><rect x="61.4" y="434.7" width="970.6" height="14.7" fill="#fff"/><path d="M69.5,36.2H96.2V195.1H69.5Z" fill="#fff"/><path d="M115.7,36.2h26.7V172.4h44v22.7H115.7Z" fill="#fff"/><path d="M198,36.2h26.7V172.4h44v22.7H198Z" fill="#fff"/><path d="M305.9,36.2V158.8c0,11.3,5.3,15.4,13.8,15.4s13.9-4.1,13.9-15.4V36.2h25.2v121c0,25.4-13.6,40-39.8,40s-39.9-14.6-39.9-40V36.2Z" fill="#fff"/><path d="M463.1,36.2h82.6V58.9H517.8V195.1H491V58.9H463.1Z" fill="#fff"/><path d="M613.2,195.1c-1.4-4.1-2.4-6.6-2.4-19.5v-25c0-14.7-5.4-20.2-17.5-20.2h-9.2v64.7H557.3V36.2h40.4c27.7,0,39.6,12,39.6,36.6V85.2c0,16.4-5.6,26.8-17.5,32.1v.4c13.3,5.2,17.7,17,17.7,33.6v24.5c0,7.7.3,13.4,2.9,19.3ZM584.1,58.9v48.8h10.4c10,0,16-4.1,16-16.8V75.3c0-11.4-4.1-16.4-13.6-16.4Z" fill="#fff"/><path d="M741.5,195.1h-27l-4.6-28.8H677.1l-4.6,28.8H648L675.2,36.2h39.1Zm-61-50.4h25.8L693.6,64.4h-.5Z" fill="#fff"/><path d="M736.9,36.2h82.5V58.9H791.5V195.1H764.8V58.9H736.9Z" fill="#fff"/><path d="M831.1,36.2h26.7V195.1H831.1Z" fill="#fff"/><path d="M875.1,74.3c0-25.4,14.3-39.9,40.5-39.9s40.6,14.5,40.6,39.9V157c0,25.4-14.3,39.9-40.6,39.9s-40.5-14.5-40.5-39.9Zm26.7,84.3c0,11.3,5.3,15.6,13.8,15.6s13.9-4.3,13.9-15.6V72.8c0-11.4-5.4-15.7-13.9-15.7s-13.8,4.3-13.8,15.7Z" fill="#fff"/><path d="M997.7,80h-.5V195.1h-24V36.2h33.5l27,95.1h.5V36.2H1058V195.1h-27.5Z" fill="#fff"/><path d="M69.5,246.2H96.2V382.4h44v22.7H69.5Z" fill="#fff"/><path d="M238.3,405.1H211.4l-4.6-28.8H174l-4.6,28.8H144.8L172,246.2h39.1Zm-60.9-50.4h25.7l-12.6-80.3H190Z" fill="#fff"/><path d="M263.8,352.5,230.1,246.2H258l20.2,72.4h.5l20.1-72.4h25.5L290.6,352.5v52.6H263.8Z" fill="#fff"/><path d="M329.2,284.3c0-25.4,14.3-39.9,40.6-39.9s40.5,14.5,40.5,39.9V367c0,25.4-14.3,39.9-40.5,39.9s-40.6-14.5-40.6-39.9Zm26.7,84.3c0,11.3,5.3,15.6,13.9,15.6s13.8-4.3,13.8-15.6V282.8c0-11.4-5.3-15.7-13.8-15.7s-13.9,4.3-13.9,15.7Z" fill="#fff"/><path d="M453.1,246.2V368.8c0,11.3,5.3,15.4,13.8,15.4s13.9-4.1,13.9-15.4V246.2H506v121c0,25.4-13.6,40-39.8,40s-39.9-14.6-39.9-40v-121Z" fill="#fff"/><path d="M516.5,246.2h82.6v22.7h-28V405.1H544.4V268.9H516.5Z" fill="#fff"/><path d="M411.7,196.3c34,0,46.2-19.8,46.2-38.4a45.8,45.8,0,0,0-.8-7.9c-3.5-21.5-28.5-27.8-45.2-31.9-10.9-3.2-17.1-6.5-21-11l-2.9-3.2-13.5,18,2.4,2.1c8.8,7.5,17.7,11.1,29.3,15.4,2.9,1.1,5.9,2,9,2.9,8.5,2.6,17.3,5.3,19.6,10.2a12.6,12.6,0,0,1,1.2,6.3c0,2.9-1.1,17.2-24,17.2-18.3,0-29.7-10.9-33.8-15.5l-2.8-3.2L362.7,174l1.7,2.1C372.2,185.3,386.6,196.3,411.7,196.3Z" fill="#fff"/><path d="M409,104.9l1.4.3,3.3,1c9.8,2.9,19.1,5.6,22,11.3l2.5,4.9,14.5-19.1-2.1-2.1c-8.9-9.3-22.6-13.7-34.8-16.9-10.4-2.7-19.4-5.2-23.4-9.4a8.5,8.5,0,0,1-2.3-6.3c0-8.9,8.2-14.9,20.4-14.9s23.2,4.3,31.2,12.9l2.6,2.8,13.5-15.8-2.1-2.2c-10.9-11.3-25.7-17-44-17-25.4,0-43.7,14.8-43.7,35.3a25.3,25.3,0,0,0,1.3,8.3C373.6,95.7,392.4,100.6,409,104.9Z" fill="#fff"/><rect x="61.4" y="434.7" width="970.6" height="14.7" fill="#fff"/><path d="M1161.4,35.9h23.1l-67.1,158.9h-23.1Z" fill="#fff"/><rect x="57.4" y="430.7" width="970.6" height="14.7" fill="#e1b000"/><path d="M65.5,32.2H92.2V191.1H65.5Z" fill="#e1b000"/><path d="M111.7,32.2h26.7V168.4h44v22.7H111.7Z" fill="#e1b000"/><path d="M194,32.2h26.7V168.4h44v22.7H194Z" fill="#e1b000"/><path d="M301.9,32.2V154.8c0,11.3,5.3,15.4,13.8,15.4s13.9-4.1,13.9-15.4V32.2h25.2v121c0,25.4-13.6,40-39.8,40s-39.9-14.6-39.9-40V32.2Z" fill="#e1b000"/><path d="M459.1,32.2h82.6V54.9H513.8V191.1H487V54.9H459.1Z" fill="#e1b000"/><path d="M609.2,191.1c-1.4-4.1-2.4-6.6-2.4-19.5v-25c0-14.7-5.4-20.2-17.5-20.2h-9.2v64.7H553.3V32.2h40.4c27.7,0,39.6,12,39.6,36.6V81.2c0,16.4-5.6,26.8-17.5,32.1v.4c13.3,5.2,17.7,17,17.7,33.6v24.5c0,7.7.3,13.4,2.9,19.3ZM580.1,54.9v48.8h10.4c10,0,16-4.1,16-16.8V71.3c0-11.4-4.1-16.4-13.6-16.4Z" fill="#e1b000"/><path d="M737.5,191.1h-27l-4.6-28.8H673.1l-4.6,28.8H643.9L671.2,32.2h39.1Zm-61-50.4h25.7L689.6,60.4h-.5Z" fill="#e1b000"/><path d="M732.9,32.2h82.5V54.9H787.5V191.1H760.8V54.9H732.9Z" fill="#e1b000"/><path d="M827.1,32.2h26.7V191.1H827.1Z" fill="#e1b000"/><path d="M871.1,70.3c0-25.4,14.3-39.9,40.5-39.9s40.6,14.5,40.6,39.9V153c0,25.4-14.3,39.9-40.6,39.9s-40.5-14.5-40.5-39.9Zm26.7,84.3c0,11.3,5.3,15.6,13.8,15.6s13.9-4.3,13.9-15.6V68.8c0-11.4-5.4-15.7-13.9-15.7s-13.8,4.3-13.8,15.7Z" fill="#e1b000"/><path d="M993.7,76h-.5V191.1h-24V32.2h33.5l27,95.1h.5V32.2H1054V191.1h-27.5Z" fill="#e1b000"/><path d="M65.5,242.2H92.2V378.4h44v22.7H65.5Z" fill="#e1b000"/><path d="M234.3,401.1H207.4l-4.6-28.8H170l-4.6,28.8H140.8L168,242.2h39.1Zm-60.9-50.4h25.7l-12.6-80.3H186Z" fill="#e1b000"/><path d="M259.8,348.4,226.1,242.2H254l20.2,72.4h.5l20.1-72.4h25.5L286.6,348.4v52.7H259.8Z" fill="#e1b000"/><path d="M325.2,280.3c0-25.4,14.3-39.9,40.5-39.9s40.6,14.5,40.6,39.9V363c0,25.4-14.3,39.9-40.6,39.9s-40.5-14.5-40.5-39.9Zm26.7,84.3c0,11.3,5.3,15.6,13.8,15.6s13.9-4.3,13.9-15.6V278.8c0-11.4-5.3-15.7-13.9-15.7s-13.8,4.3-13.8,15.7Z" fill="#e1b000"/><path d="M449.1,242.2V364.8c0,11.3,5.3,15.4,13.8,15.4s13.9-4.1,13.9-15.4V242.2H502v121c0,25.4-13.6,40-39.8,40s-39.9-14.6-39.9-40v-121Z" fill="#e1b000"/><path d="M512.5,242.2H595v22.7H567.1V401.1H540.4V264.9H512.5Z" fill="#e1b000"/><path d="M407.7,192.3c34,0,46.2-19.8,46.2-38.4a45.8,45.8,0,0,0-.8-7.9c-3.5-21.5-28.5-27.8-45.2-31.9-10.9-3.2-17.1-6.5-21-11L384,99.9l-13.5,18,2.4,2.1c8.8,7.5,17.7,11.1,29.3,15.4,2.9,1.1,5.9,2,9,2.9,8.5,2.6,17.3,5.3,19.6,10.2a12.6,12.6,0,0,1,1.2,6.3c0,2.9-1.1,17.2-24,17.2-18.3,0-29.7-10.9-33.9-15.5l-2.7-3.2L358.7,170l1.7,2.1C368.2,181.3,382.6,192.3,407.7,192.3Z" fill="#e1b000"/><path d="M405,100.9l1.4.3,3.3,1c9.8,2.9,19.1,5.6,22,11.3l2.5,4.9,14.5-19.1-2.1-2.1c-8.9-9.3-22.6-13.7-34.8-16.9-10.4-2.7-19.4-5.2-23.4-9.4a8.6,8.6,0,0,1-2.4-6.3c0-8.9,8.3-14.9,20.5-14.9s23.2,4.3,31.2,12.9l2.6,2.8,13.5-15.8-2.1-2.2c-10.9-11.3-25.7-17-44-17-25.4,0-43.7,14.8-43.7,35.3a25.3,25.3,0,0,0,1.3,8.3C369.6,91.7,388.4,96.6,405,100.9Z" fill="#e1b000"/><path d="M1157.4,31.9h23.1l-67.1,158.9h-23.1Z" fill="#e1b000"/></svg>