<?xml version="1.0" encoding="utf-8"?>
<!-- Generator: Adobe Illustrator 25.0.1, SVG Export Plug-In . SVG Version: 6.00 Build 0)  -->
<svg version="1.1" id="Motion" xmlns="http://www.w3.org/2000/svg" xmlns:xlink="http://www.w3.org/1999/xlink" x="0px" y="0px"
	 viewBox="0 0 726 319" style="enable-background:new 0 0 726 319;" xml:space="preserve">
<style type="text/css">
	.st0{fill:none;stroke:#0096A4;stroke-width:84;stroke-linecap:round;stroke-linejoin:round;}
	.st1{fill:#FFFFFF;}
	.st2{fill:#2D315D;}
</style>
<path class="st0" d="M137.6,46.1l-90.2,95.1l241.1-86.8c-40.9,66.3-81.8,132.7-122.6,199.1c100.3-73.5,201-147.3,311.4-207.4
	c-49.8,61.7-90.6,130.1-121.4,203.1L637.3,67l-69.4,128.7l69.3-40.9"/>
<rect x="59.7" y="223.5" class="st1" width="552.1" height="14.7"/>
<path class="st1" d="M126.1,148.5h0.5l18-112.8h37.3v158.9h-25.3v-114h-0.5l-18,114h-25.3L93.3,82.2h-0.5v112.4H69.4V35.7h37.3
	L126.1,148.5z"/>
<path class="st1" d="M199.2,73.8c0-25.4,14.3-39.9,40.6-39.9s40.7,14.5,40.7,39.9v82.6c0,25.5-14.4,40-40.7,40s-40.6-14.5-40.6-40
	L199.2,73.8z M226,158c0,11.4,5.3,15.7,13.8,15.7s13.9-4.3,13.9-15.7V72.2c0-11.3-5.3-15.6-13.9-15.6S226,60.9,226,72.2V158z"/>
<path class="st1" d="M290,35.7h82.8v22.7h-28v136.2H318V58.4h-28V35.7z"/>
<path class="st1" d="M384.4,35.7h26.8v158.9h-26.8V35.7z"/>
<path class="st1" d="M428.5,73.8c0-25.4,14.4-39.9,40.6-39.9s40.7,14.5,40.7,39.9v82.6c0,25.5-14.4,40-40.7,40s-40.6-14.5-40.6-40
	V73.8z M455.3,158c0,11.4,5.3,15.7,13.8,15.7S483,169.4,483,158V72.2c0-11.3-5.3-15.6-13.9-15.6s-13.8,4.3-13.8,15.6L455.3,158z"/>
<path class="st1" d="M551.4,79.5h-0.5v115.1h-24.1V35.7h33.6l27.1,95.1h0.4V35.7h23.9v158.9h-27.5L551.4,79.5z"/>
<path class="st2" d="M122.1,144.5h0.5l18-112.8h37.3v158.9h-25.3v-114h-0.5l-18,114h-25.3L89.3,78.2h-0.5v112.4H65.4V31.7h37.3
	L122.1,144.5z"/>
<path class="st2" d="M195.2,69.8c0-25.4,14.3-39.9,40.6-39.9s40.7,14.5,40.7,39.9v82.6c0,25.5-14.4,40-40.7,40s-40.6-14.5-40.6-40
	L195.2,69.8z M222,154c0,11.4,5.3,15.7,13.8,15.7s13.9-4.3,13.9-15.7V68.2c0-11.3-5.4-15.6-13.9-15.6S222,56.9,222,68.2V154z"/>
<path class="st2" d="M286,31.7h82.7v22.7h-27.9v136.2H314V54.4h-28V31.7z"/>
<path class="st2" d="M380.4,31.7h26.8v158.9h-26.8V31.7z"/>
<path class="st2" d="M424.5,69.8c0-25.4,14.4-39.9,40.6-39.9s40.7,14.5,40.7,39.9v82.6c0,25.5-14.4,40-40.7,40s-40.6-14.5-40.6-40
	V69.8z M451.3,154c0,11.4,5.3,15.7,13.8,15.7S479,165.4,479,154V68.2c0-11.3-5.3-15.6-13.9-15.6s-13.8,4.3-13.8,15.6L451.3,154z"/>
<path class="st2" d="M547.4,75.5h-0.5v115.1h-24.1V31.7h33.6l27.1,95.1h0.4V31.7h23.9v158.9h-27.5L547.4,75.5z"/>
<rect x="57.4" y="220.5" class="st2" width="552.1" height="14.7"/>
</svg>
