<svg id="Motion" xmlns="http://www.w3.org/2000/svg" width="1186.7" height="482" viewBox="0 0 1186.7 482"><path d="M137.6,46.1,47.4,141.2,288.5,54.4q-61.4,99.5-122.6,199.1C266.2,180,366.9,106.2,477.3,46.1A847.6,847.6,0,0,0,355.9,249.2L637.3,67,567.9,195.7l69.3-40.9" fill="none" stroke="#0096a4" stroke-linecap="round" stroke-linejoin="round" stroke-width="84"/><rect x="59.7" y="223.5" width="552.1" height="14.7" fill="#fff"/><path d="M126.1,148.5h.5l18-112.8h37.3V194.6H156.6V80.6h-.5l-18,114H112.8L93.3,82.2h-.5V194.6H69.4V35.7h37.3Z" fill="#fff"/><path d="M199.2,73.8c0-25.4,14.3-39.9,40.6-39.9s40.7,14.5,40.7,39.9v82.6c0,25.5-14.4,40-40.7,40s-40.6-14.5-40.6-40ZM226,158c0,11.4,5.3,15.7,13.8,15.7s13.9-4.3,13.9-15.7V72.2c0-11.3-5.3-15.6-13.9-15.6S226,60.9,226,72.2Z" fill="#fff"/><path d="M290,35.7h82.8V58.4h-28V194.6H318V58.4H290Z" fill="#fff"/><path d="M384.4,35.7h26.8V194.6H384.4Z" fill="#fff"/><path d="M428.5,73.8c0-25.4,14.4-39.9,40.6-39.9s40.7,14.5,40.7,39.9v82.6c0,25.5-14.4,40-40.7,40s-40.6-14.5-40.6-40ZM455.3,158c0,11.4,5.3,15.7,13.8,15.7S483,169.4,483,158V72.2c0-11.3-5.3-15.6-13.9-15.6s-13.8,4.3-13.8,15.6Z" fill="#fff"/><path d="M551.4,79.5h-.5V194.6H526.8V35.7h33.6l27.1,95.1h.4V35.7h23.9V194.6H584.3Z" fill="#fff"/><path d="M122.1,144.5h.5l18-112.8h37.3V190.6H152.6V76.6h-.5l-18,114H108.8L89.3,78.2h-.5V190.6H65.4V31.7h37.3Z" fill="#2d315d"/><path d="M195.2,69.8c0-25.4,14.3-39.9,40.6-39.9s40.7,14.5,40.7,39.9v82.6c0,25.5-14.4,40-40.7,40s-40.6-14.5-40.6-40ZM222,154c0,11.4,5.3,15.7,13.8,15.7s13.9-4.3,13.9-15.7V68.2c0-11.3-5.4-15.6-13.9-15.6S222,56.9,222,68.2Z" fill="#2d315d"/><path d="M286,31.7h82.7V54.4H340.8V190.6H314V54.4H286Z" fill="#2d315d"/><path d="M380.4,31.7h26.8V190.6H380.4Z" fill="#2d315d"/><path d="M424.5,69.8c0-25.4,14.4-39.9,40.6-39.9s40.7,14.5,40.7,39.9v82.6c0,25.5-14.4,40-40.7,40s-40.6-14.5-40.6-40ZM451.3,154c0,11.4,5.3,15.7,13.8,15.7S479,165.4,479,154V68.2c0-11.3-5.3-15.6-13.9-15.6s-13.8,4.3-13.8,15.6Z" fill="#2d315d"/><path d="M547.4,75.5h-.5V190.6H522.8V31.7h33.6l27.1,95.1h.4V31.7h23.9V190.6H580.3Z" fill="#2d315d"/><rect x="57.4" y="220.5" width="552.1" height="14.7" fill="#2d315d"/></svg>