<?xml version="1.0" encoding="utf-8"?>
<!-- Generator: Adobe Illustrator 25.0.1, SVG Export Plug-In . SVG Version: 6.00 Build 0)  -->
<svg version="1.1" xmlns="http://www.w3.org/2000/svg" xmlns:xlink="http://www.w3.org/1999/xlink" x="0px" y="0px"
	 viewBox="0 0 922.7 531" style="enable-background:new 0 0 922.7 531;" xml:space="preserve">
<style type="text/css">
	.st0{display:none;fill:none;stroke:#0096A4;stroke-width:51;stroke-linecap:round;stroke-linejoin:round;stroke-miterlimit:10;}
	.st1{fill:none;stroke:#0096A4;stroke-width:86.4349;stroke-linecap:round;stroke-linejoin:round;stroke-miterlimit:10;}
	.st2{fill:#FFFFFF;}
	.st3{fill:#2D315D;}
</style>
<g id="Layer_2">
	<path class="st0" d="M301.6,15.9C210.7,82.9,119.9,150,29,217C180.3,139.9,333.4,62,498.6,22.6C354.9,130.8,211.1,239.1,67.4,347.3
		C302,218.5,408.6,150,638.2,24C504.8,157.9,481.9,192.5,321.5,287.3C235.8,338,143.8,377.3,54.2,420.6
		c34.8-19.8,69.7-39.6,104.5-59.4c67.8-38.5,135.5-77,203.3-115.5c110.9-63.1,225.8-127.4,352.5-142.1
		C518,235,321.5,366.5,125.1,498c34,4.9,67.3-10.2,98.4-24.9c153.4-72.6,306.8-145.2,460.2-217.9C587.2,365.4,453.9,435.1,323,500.5
		C461.8,436.3,600.7,372,739.5,307.8C691.8,356.4,644,405,596.3,453.6c77.4-25.8,154.7-51.6,232.1-77.5"/>
	<path class="st1" d="M308.1,53c-127.4,102.9-134.6,123.7-262,226.6c179.4-82.7,305.8-135.2,485.3-218
		C387.5,185.3,243.6,309,99.7,432.6c188.6-105,377.2-210,565.8-315.1c-110,124.1-272.9,242.2-382.8,366.3
		C426.6,395.9,616,293.2,770.7,223.7C691,312.6,625.7,392.4,533,483.9c132.5-50.7,98.2-43.2,215.7-87.6"/>
</g>
<g id="Layer_1">
	<g>
		<rect x="107.7" y="480.5" class="st2" width="726.3" height="14.7"/>
		<path class="st2" d="M159,241.9c33.7,0,45.8-19.8,45.8-38.4c0-3-0.4-5.5-0.8-7.9c-3.5-21.5-28.3-27.8-44.8-31.9
			c-10.8-3.2-17-6.5-20.9-11l-2.8-3.2l-13.4,18l2.4,2.1c8.7,7.5,17.5,11.1,29,15.4c2.9,1.1,5.9,2,8.9,2.9
			c8.5,2.6,17.2,5.3,19.5,10.2c0.9,1.7,1.2,3.5,1.2,6.3c0,2.9-1.1,17.2-23.8,17.2c-18.2,0-29.5-10.9-33.6-15.5l-2.7-3.2l-12.6,16.7
			l1.7,2.1C119.8,230.9,134.1,241.9,159,241.9z"/>
		<path class="st2" d="M156.3,150.5l1.5,0.4c1.1,0.3,2.2,0.7,3.3,1c9.7,2.9,18.9,5.6,21.8,11.3l2.5,4.9l14.3-19.1l-2-2.1
			c-8.9-9.3-22.5-13.7-34.6-16.9c-10.3-2.7-19.2-5.2-23.2-9.4c-1.5-1.8-2.3-3.3-2.3-6.3c0-8.9,8.2-14.9,20.3-14.9
			c12.6,0,23,4.3,30.9,12.9l2.6,2.8l13.4-15.8l-2.1-2.2c-10.8-11.3-25.5-17-43.6-17c-25.2,0-43.5,14.8-43.5,35.3
			c0,3,0.4,5.6,1.3,8.3C121.2,141.3,139.8,146.2,156.3,150.5z"/>
		<g>
			<path class="st2" d="M159,452.1c33.7,0,45.8-19.8,45.8-38.4c0-3-0.4-5.5-0.8-7.9c-3.5-21.5-28.3-27.8-44.8-31.9
				c-10.8-3.2-17-6.5-20.9-11l-2.8-3.2l-13.4,18l2.4,2.1c8.7,7.5,17.5,11.1,29,15.4c2.9,1.1,5.9,2,8.9,2.9
				c8.5,2.6,17.2,5.3,19.5,10.2c0.9,1.7,1.2,3.5,1.2,6.3c0,2.9-1.1,17.2-23.8,17.2c-18.2,0-29.5-10.9-33.6-15.5l-2.7-3.2l-12.6,16.7
				l1.7,2.1C119.8,441.1,134.1,452.1,159,452.1z"/>
			<path class="st2" d="M156.3,360.7l1.4,0.3c1.1,0.3,2.2,0.7,3.3,1c9.7,2.9,18.9,5.6,21.8,11.3l2.5,4.9l14.3-19.1l-2-2.1
				c-8.9-9.3-22.5-13.7-34.6-16.9c-10.3-2.7-19.2-5.2-23.2-9.4c-1.5-1.8-2.3-3.3-2.3-6.3c0-8.9,8.2-14.9,20.3-14.9
				c12.6,0,23,4.3,30.9,12.9l2.6,2.8l13.4-15.8l-2.1-2.2c-10.8-11.3-25.5-17-43.6-17c-25.2,0-43.4,14.8-43.4,35.3
				c0,3,0.4,5.6,1.3,8.3C121.2,351.5,139.8,356.4,156.3,360.7z"/>
		</g>
		<path class="st2" d="M249.1,240.5H222V83.4h27.1v67.3h30.8V83.4h27.6v157.1h-27.6v-67.4h-30.8V240.5z"/>
		<path class="st2" d="M361.8,149.6H399V172h-37.2v46h46.8v22.4h-73.9v-157h73.9v22.4h-46.8V149.6L361.8,149.6z"/>
		<path class="st2" d="M489.4,240.5c-1.5-4-2.5-6.5-2.5-19.3v-24.7c0-14.6-5.4-20-17.7-20h-9.4v64h-27.1V83.4h41
			c28.1,0,40.2,11.9,40.2,36.1v12.3c0,16.2-5.7,26.5-17.7,31.6v0.4c13.6,5.2,18,16.8,18,33.2v24.2c0,7.6,0.2,13.2,3,19.1h-27.8
			V240.5z M459.9,105.8V154h10.6c10.1,0,16.3-4,16.3-16.6V122c0-11.2-4.2-16.2-13.8-16.2H459.9z"/>
		<path class="st2" d="M539.2,83.4h27.1v157.1h-27.1V83.4z"/>
		<path class="st2" d="M618.1,126.7h-0.5v113.8h-24.4V83.4h34l27.4,94h0.5v-94h24.2v157.1h-27.9L618.1,126.7z"/>
		<path class="st2" d="M247.3,335.7h-0.5V450h-24.5V292.1h34.2l27.5,94.5h0.5v-94.5h24.3V450h-28L247.3,335.7z"/>
		<path class="st2" d="M335.8,292.1h27.3V450h-27.3V292.1z"/>
		<path class="st2" d="M587.1,450h-27.5l-4.7-28.6h-33.5l-4.7,28.6h-25l27.8-157.9h39.9L587.1,450z M524.9,400h26.3l-12.9-79.9h-0.6
			L524.9,400z"/>
		<path class="st2" d="M607.1,292.1h27.3v135.3h44.8V450h-72.1V292.1z"/>
		<g>
			<path class="st2" d="M433.4,292.1h-43.1v62.5l27.3,22.6v-62.6H433c8.7,0,13.9,4.1,13.9,15.3V412c0,11.3-5.2,15.3-13.9,15.3h-15.4
				v-17.1l-27.3-22.6V450h43.1c27.3,0,40.6-13.8,40.6-39v-79.9C474.1,305.9,460.7,292.1,433.4,292.1z"/>
		</g>
	</g>
	<g>
		<rect x="102.7" y="476.5" class="st3" width="726.3" height="14.7"/>
		<path class="st3" d="M154,237.9c33.7,0,45.8-19.8,45.8-38.4c0-3-0.4-5.5-0.8-7.9c-3.5-21.5-28.3-27.8-44.8-31.9
			c-10.8-3.2-17-6.5-20.9-11l-2.8-3.2l-13.4,18l2.4,2.1c8.7,7.5,17.5,11.1,29,15.4c2.9,1.1,5.9,2,8.9,2.9
			c8.5,2.6,17.2,5.3,19.5,10.2c0.9,1.7,1.2,3.5,1.2,6.3c0,2.9-1.1,17.2-23.8,17.2c-18.2,0-29.5-10.9-33.6-15.5l-2.7-3.2l-12.6,16.7
			l1.7,2.1C114.8,226.9,129.1,237.9,154,237.9z"/>
		<path class="st3" d="M151.3,146.5l1.5,0.4c1.1,0.3,2.2,0.7,3.3,1c9.7,2.9,18.9,5.6,21.8,11.3l2.5,4.9l14.3-19.1l-2-2.1
			c-8.9-9.3-22.5-13.7-34.6-16.9c-10.3-2.7-19.2-5.2-23.2-9.4c-1.5-1.8-2.3-3.3-2.3-6.3c0-8.9,8.2-14.9,20.3-14.9
			c12.6,0,23,4.3,30.9,12.9l2.6,2.8l13.4-15.8l-2.1-2.2c-10.8-11.3-25.5-17-43.6-17c-25.2,0-43.5,14.8-43.5,35.3
			c0,3,0.4,5.6,1.3,8.3C116.2,137.3,134.8,142.2,151.3,146.5z"/>
		<g>
			<path class="st3" d="M154,448.1c33.7,0,45.8-19.8,45.8-38.4c0-3-0.4-5.5-0.8-7.9c-3.5-21.5-28.3-27.8-44.8-31.9
				c-10.8-3.2-17-6.5-20.9-11l-2.8-3.2l-13.4,18l2.4,2.1c8.7,7.5,17.5,11.1,29,15.4c2.9,1.1,5.9,2,8.9,2.9
				c8.5,2.6,17.2,5.3,19.5,10.2c0.9,1.7,1.2,3.5,1.2,6.3c0,2.9-1.1,17.2-23.8,17.2c-18.2,0-29.5-10.9-33.6-15.5l-2.7-3.2l-12.6,16.7
				l1.7,2.1C114.8,437.1,129.1,448.1,154,448.1z"/>
			<path class="st3" d="M151.3,356.7l1.4,0.3c1.1,0.3,2.2,0.7,3.3,1c9.7,2.9,18.9,5.6,21.8,11.3l2.5,4.9l14.3-19.1l-2-2.1
				c-8.9-9.3-22.5-13.7-34.6-16.9c-10.3-2.7-19.2-5.2-23.2-9.4c-1.5-1.8-2.3-3.3-2.3-6.3c0-8.9,8.2-14.9,20.3-14.9
				c12.6,0,23,4.3,30.9,12.9l2.6,2.8l13.4-15.8l-2.1-2.2c-10.8-11.3-25.5-17-43.6-17c-25.2,0-43.4,14.8-43.4,35.3
				c0,3,0.4,5.6,1.3,8.3C116.2,347.5,134.8,352.4,151.3,356.7z"/>
		</g>
		<path class="st3" d="M244.1,236.5H217V79.4h27.1v67.3h30.8V79.4h27.6v157.1h-27.6v-67.4h-30.8V236.5z"/>
		<path class="st3" d="M356.8,145.6H394V168h-37.2v46h46.8v22.4h-73.9v-157h73.9v22.4h-46.8L356.8,145.6L356.8,145.6z"/>
		<path class="st3" d="M484.4,236.5c-1.5-4-2.5-6.5-2.5-19.3v-24.7c0-14.6-5.4-20-17.7-20h-9.4v64h-27.1V79.4h41
			c28.1,0,40.2,11.9,40.2,36.1v12.3c0,16.2-5.7,26.5-17.7,31.6v0.4c13.6,5.2,18,16.8,18,33.2v24.2c0,7.6,0.2,13.2,3,19.1h-27.8
			V236.5z M454.9,101.8V150h10.6c10.1,0,16.3-4,16.3-16.6V118c0-11.2-4.2-16.2-13.8-16.2H454.9z"/>
		<path class="st3" d="M534.2,79.4h27.1v157.1h-27.1V79.4z"/>
		<path class="st3" d="M613.1,122.7h-0.5v113.8h-24.4V79.4h34l27.4,94h0.5v-94h24.2v157.1h-27.9L613.1,122.7z"/>
		<path class="st3" d="M242.3,331.7h-0.5V446h-24.5V288.1h34.2l27.5,94.5h0.5v-94.5h24.3V446h-28L242.3,331.7z"/>
		<path class="st3" d="M330.8,288.1h27.3V446h-27.3V288.1z"/>
		<path class="st3" d="M582.1,446h-27.5l-4.7-28.6h-33.5l-4.7,28.6h-25l27.8-157.9h39.9L582.1,446z M519.9,396h26.3l-12.9-79.9h-0.6
			L519.9,396z"/>
		<path class="st3" d="M602.1,288.1h27.3v135.3h44.8V446h-72.1V288.1z"/>
		<g>
			<path class="st3" d="M428.4,288.1h-43.1v62.5l27.3,22.6v-62.6H428c8.7,0,13.9,4.1,13.9,15.3V408c0,11.3-5.2,15.3-13.9,15.3h-15.4
				v-17.1l-27.3-22.6V446h43.1c27.3,0,40.6-13.8,40.6-39v-79.9C469.1,301.9,455.7,288.1,428.4,288.1z"/>
		</g>
	</g>
</g>
</svg>
