<?xml version="1.0" encoding="utf-8"?>
<!-- Generator: Adobe Illustrator 25.1.0, SVG Export Plug-In . SVG Version: 6.00 Build 0)  -->
<svg version="1.1" id="Layer_1" xmlns="http://www.w3.org/2000/svg" xmlns:xlink="http://www.w3.org/1999/xlink" x="0px" y="0px"
	 viewBox="0 0 757 531" style="enable-background:new 0 0 757 531;" xml:space="preserve">
<style type="text/css">
	.st0{fill:none;stroke:#F37021;stroke-width:82.42;stroke-linecap:round;stroke-linejoin:round;}
	.st1{fill:#FFFFFF;}
	.st2{fill:#2D315D;}
</style>
<g id="Layer_2-2">
	<path class="st0" d="M282.8,53C166.9,155.9,160.4,176.7,44.5,279.6c163.2-82.7,278.1-135.2,441.3-218l-392.5,371l514.4-315.1
		c-100,124.1-248.1,242.2-348,366.3c130.8-87.9,303-190.6,443.6-260.1c-72.4,88.9-131.8,168.7-216.1,260.2
		c120.5-50.7,89.3-43.2,196.1-87.6"/>
</g>
<rect x="106.6" y="480.5" class="st1" width="572.6" height="14.7"/>
<path class="st1" d="M249.1,240.5H222V83.4h27.1v67.3h30.8V83.4h27.6v157.1h-27.6v-67.4h-30.8V240.5z"/>
<path class="st1" d="M361.8,149.6H399V172h-37.2v46h46.8v22.4h-73.9v-157h73.9v22.4h-46.8V149.6z"/>
<path class="st1" d="M489.4,240.5c-1.5-4-2.5-6.5-2.5-19.3v-24.7c0-14.6-5.4-20-17.7-20h-9.4v64h-27.1V83.4h41
	c28.1,0,40.2,11.9,40.2,36.1v12.3c0,16.2-5.7,26.5-17.7,31.6v0.4c13.6,5.2,18,16.8,18,33.2v24.2c0,7.6,0.2,13.2,3,19.1h-27.8V240.5z
	 M459.9,105.8V154h10.6c10.1,0,16.3-4,16.3-16.6V122c0-11.2-4.2-16.2-13.8-16.2H459.9z"/>
<path class="st1" d="M539.2,83.4h27.1v157.1h-27.1V83.4z"/>
<path class="st1" d="M618.1,126.7h-0.5v113.8h-24.4V83.4h34l27.4,94h0.5v-94h24.2v157.1h-27.9L618.1,126.7z"/>
<path class="st1" d="M247.3,335.7h-0.5V450h-24.5V292.1h34.2l27.5,94.5h0.5v-94.5h24.3V450h-28L247.3,335.7z"/>
<path class="st1" d="M335.8,292.1h27.3V450h-27.3V292.1z"/>
<path class="st1" d="M587.1,450h-27.5l-4.7-28.6h-33.5l-4.7,28.6h-25l27.8-157.9h39.9L587.1,450z M524.9,400h26.3l-12.9-79.9h-0.6
	L524.9,400z"/>
<path class="st1" d="M607.1,292.1h27.3v135.3h44.8V450h-72.1V292.1z"/>
<path class="st1" d="M433.4,292.1h-43.1v62.5l27.3,22.6v-62.6H433c8.7,0,13.9,4.1,13.9,15.3V412c0,11.3-5.2,15.3-13.9,15.3h-15.4
	v-17.1l-27.3-22.6V450h43.1c27.3,0,40.6-13.8,40.6-39v-79.9C474.1,305.9,460.7,292.1,433.4,292.1z"/>
<rect x="102.7" y="476.5" class="st2" width="572.6" height="14.7"/>
<path class="st2" d="M244.1,236.5H217V79.4h27.1v67.3h30.8V79.4h27.6v157.1h-27.6v-67.4h-30.8V236.5z"/>
<path class="st2" d="M356.8,145.6H394V168h-37.2v46h46.8v22.4h-73.9v-157h73.9v22.4h-46.8V145.6z"/>
<path class="st2" d="M484.4,236.5c-1.5-4-2.5-6.5-2.5-19.3v-24.7c0-14.6-5.4-20-17.7-20h-9.4v64h-27.1V79.4h41
	c28.1,0,40.2,11.9,40.2,36.1v12.3c0,16.2-5.7,26.5-17.7,31.6v0.4c13.6,5.2,18,16.8,18,33.2v24.2c0,7.6,0.2,13.2,3,19.1h-27.8V236.5z
	 M454.9,101.8V150h10.6c10.1,0,16.3-4,16.3-16.6V118c0-11.2-4.2-16.2-13.8-16.2H454.9z"/>
<path class="st2" d="M534.2,79.4h27.1v157.1h-27.1V79.4z"/>
<path class="st2" d="M613.1,122.7h-0.5v113.8h-24.4V79.4h34l27.4,94h0.5v-94h24.2v157.1h-27.9L613.1,122.7z"/>
<path class="st2" d="M242.3,331.7h-0.5V446h-24.5V288.1h34.2l27.5,94.5h0.5v-94.5h24.3V446h-28L242.3,331.7z"/>
<path class="st2" d="M330.8,288.1h27.3V446h-27.3V288.1z"/>
<path class="st2" d="M582.1,446h-27.5l-4.7-28.6h-33.5l-4.7,28.6h-25l27.8-157.9h39.9L582.1,446z M519.9,396h26.3l-12.9-79.9h-0.6
	L519.9,396z"/>
<path class="st2" d="M602.1,288.1h27.3v135.3h44.8V446h-72.1V288.1z"/>
<path class="st2" d="M428.4,288.1h-43.1v62.5l27.3,22.6v-62.6H428c8.7,0,13.9,4.1,13.9,15.3V408c0,11.3-5.2,15.3-13.9,15.3h-15.4
	v-17.1l-27.3-22.6V446h43.1c27.3,0,40.6-13.8,40.6-39v-79.9C469.1,301.9,455.7,288.1,428.4,288.1z"/>
<g>
	<path class="st1" d="M185,153.3c-5.8-4.6-11.6-9.2-17.9-13.3c-4.6-3.5-9.8-6.3-15-9.2c-4.6-2.9-9.2-5.2-10.4-11
		c-1.7-8.1,3.5-16.1,13.3-16.1c8.7,0,13.3,4,13.3,15.6v6.3h25.4v-5.2c0-25.4-13.2-39.8-39.2-39.8c-13.8,0-26.5,4.6-33.5,15.6
		c-6.9,10.4-9.8,26,0,35.8c11.6,11.5,28.3,17.3,40.4,28.9h32.3C191.3,158.5,188.4,156.2,185,153.3z"/>
	<path class="st1" d="M124.4,168.3c5.8,4.6,11.6,9.2,17.9,13.3c4.6,3.5,9.8,6.3,15,9.2c4.6,2.9,9.2,5.2,10.4,11
		c1.7,8.1-3.5,16.1-13.3,16.1c-8.7,0-13.3-4-13.3-15.6V196h-25.4v5.2c0,25.4,13.2,39.8,39.2,39.8c13.8,0,26.5-4.6,33.5-15.6
		c6.9-10.4,9.8-26,0-35.8c-11.6-11.5-28.3-17.3-40.4-28.9h-32.3C118.1,163.1,121.5,166,124.4,168.3z"/>
</g>
<g>
	<path class="st1" d="M185,363.5c-5.8-4.6-11.6-9.2-17.9-13.3c-4.6-3.5-9.8-6.3-15-9.2c-4.6-2.9-9.2-5.2-10.4-11
		c-1.7-8.1,3.5-16.1,13.3-16.1c8.7,0,13.3,4,13.3,15.6v6.3h25.4v-5.2c0-25.4-13.2-39.8-39.2-39.8c-13.8,0-26.5,4.6-33.5,15.6
		c-6.9,10.4-9.8,26,0,35.8c11.6,11.5,28.3,17.3,40.4,28.9h32.3C191.3,368.7,188.4,366.4,185,363.5z"/>
	<path class="st1" d="M124.4,378.6c5.8,4.6,11.6,9.2,17.9,13.3c4.6,3.5,9.8,6.3,15,9.2c4.6,2.9,9.2,5.2,10.4,11
		c1.7,8.1-3.5,16.1-13.3,16.1c-8.7,0-13.3-4-13.3-15.6v-6.3h-25.4v5.2c0,25.4,13.2,39.8,39.2,39.8c13.8,0,26.5-4.6,33.5-15.6
		c6.9-10.4,9.8-26,0-35.8c-11.6-11.5-28.3-17.3-40.4-28.9h-32.3C118.1,373.4,121.5,376.3,124.4,378.6z"/>
</g>
<g>
	<path class="st2" d="M181,149.3c-5.8-4.6-11.6-9.2-17.9-13.3c-4.6-3.5-9.8-6.3-15-9.2c-4.6-2.9-9.2-5.2-10.4-11
		c-1.7-8.1,3.5-16.1,13.3-16.1c8.7,0,13.3,4,13.3,15.6v6.3h25.4v-5.2c0-25.4-13.2-39.8-39.2-39.8c-13.8,0-26.5,4.6-33.5,15.6
		c-6.9,10.4-9.8,26,0,35.8c11.6,11.5,28.3,17.3,40.4,28.9h32.3C187.3,154.5,184.4,152.2,181,149.3z"/>
	<path class="st2" d="M120.4,164.3c5.8,4.6,11.6,9.2,17.9,13.3c4.6,3.5,9.8,6.3,15,9.2c4.6,2.9,9.2,5.2,10.4,11
		c1.7,8.1-3.5,16.1-13.3,16.1c-8.7,0-13.3-4-13.3-15.6V192h-25.4v5.2c0,25.4,13.2,39.8,39.2,39.8c13.8,0,26.5-4.6,33.5-15.6
		c6.9-10.4,9.8-26,0-35.8c-11.6-11.5-28.3-17.3-40.4-28.9h-32.3C114.1,159.1,117.5,162,120.4,164.3z"/>
</g>
<g>
	<path class="st2" d="M181,359.5c-5.8-4.6-11.6-9.2-17.9-13.3c-4.6-3.5-9.8-6.3-15-9.2c-4.6-2.9-9.2-5.2-10.4-11
		c-1.7-8.1,3.5-16.1,13.3-16.1c8.7,0,13.3,4,13.3,15.6v6.3h25.4v-5.2c0-25.4-13.2-39.8-39.2-39.8c-13.8,0-26.5,4.6-33.5,15.6
		c-6.9,10.4-9.8,26,0,35.8c11.6,11.5,28.3,17.3,40.4,28.9h32.3C187.3,364.7,184.4,362.4,181,359.5z"/>
	<path class="st2" d="M120.4,374.6c5.8,4.6,11.6,9.2,17.9,13.3c4.6,3.5,9.8,6.3,15,9.2c4.6,2.9,9.2,5.2,10.4,11
		c1.7,8.1-3.5,16.1-13.3,16.1c-8.7,0-13.3-4-13.3-15.6v-6.3h-25.4v5.2c0,25.4,13.2,39.8,39.2,39.8c13.8,0,26.5-4.6,33.5-15.6
		c6.9-10.4,9.8-26,0-35.8c-11.6-11.5-28.3-17.3-40.4-28.9h-32.3C114.1,369.4,117.5,372.3,120.4,374.6z"/>
</g>
</svg>
