<svg id="Layer_1" data-name="Layer 1" xmlns="http://www.w3.org/2000/svg" width="757" height="531" viewBox="0 0 757 531"><g id="Layer_2-2" data-name="Layer 2"><path d="M282.8,53C166.9,155.9,160.4,176.7,44.5,279.6c163.2-82.7,278.1-135.2,441.3-218L93.3,432.6,607.7,117.5c-100,124.1-248.1,242.2-348,366.3,130.8-87.9,303-190.6,443.6-260.1-72.4,88.9-131.8,168.7-216.1,260.2,120.5-50.7,89.3-43.2,196.1-87.6" fill="none" stroke="#f37021" stroke-linecap="round" stroke-linejoin="round" stroke-width="82.42"/></g><rect x="106.6" y="480.5" width="572.6" height="14.7" fill="#fff"/><path d="M159,241.9c33.7,0,45.8-19.8,45.8-38.4a45.8,45.8,0,0,0-.8-7.9c-3.5-21.5-28.3-27.8-44.8-31.9-10.8-3.2-17-6.5-20.9-11l-2.8-3.2-13.4,18,2.4,2.1c8.7,7.5,17.5,11.1,29,15.4,2.9,1.1,5.9,2,8.9,2.9,8.5,2.6,17.2,5.3,19.5,10.2a12.6,12.6,0,0,1,1.2,6.3c0,2.9-1.1,17.2-23.8,17.2-18.2,0-29.5-10.9-33.6-15.5l-2.7-3.2-12.6,16.7,1.7,2.1C119.8,230.9,134.1,241.9,159,241.9Z" fill="#fff"/><path d="M156.3,150.5l1.5.4,3.3,1c9.7,2.9,18.9,5.6,21.8,11.3l2.5,4.9L199.7,149l-2-2.1c-8.9-9.3-22.5-13.7-34.6-16.9-10.3-2.7-19.2-5.2-23.2-9.4a8.5,8.5,0,0,1-2.3-6.3c0-8.9,8.2-14.9,20.3-14.9s23,4.3,30.9,12.9l2.6,2.8,13.4-15.8-2.1-2.2c-10.8-11.3-25.5-17-43.6-17-25.2,0-43.5,14.8-43.5,35.3a25.3,25.3,0,0,0,1.3,8.3C121.2,141.3,139.8,146.2,156.3,150.5Z" fill="#fff"/><path d="M159,452.1c33.7,0,45.8-19.8,45.8-38.4a45.8,45.8,0,0,0-.8-7.9c-3.5-21.5-28.3-27.8-44.8-31.9-10.8-3.2-17-6.5-20.9-11l-2.8-3.2-13.4,18,2.4,2.1c8.7,7.5,17.5,11.1,29,15.4,2.9,1.1,5.9,2,8.9,2.9,8.5,2.6,17.2,5.3,19.5,10.2a12.6,12.6,0,0,1,1.2,6.3c0,2.9-1.1,17.2-23.8,17.2-18.2,0-29.5-10.9-33.6-15.5l-2.7-3.2-12.6,16.7,1.7,2.1C119.8,441.1,134.1,452.1,159,452.1Z" fill="#fff"/><path d="M156.3,360.7l1.4.3,3.3,1c9.7,2.9,18.9,5.6,21.8,11.3l2.5,4.9,14.3-19.1-2-2.1c-8.9-9.3-22.5-13.7-34.6-16.9-10.3-2.7-19.2-5.2-23.2-9.4a8.5,8.5,0,0,1-2.3-6.3c0-8.9,8.2-14.9,20.3-14.9s23,4.3,30.9,12.9l2.6,2.8,13.4-15.8-2.1-2.2c-10.8-11.3-25.5-17-43.6-17-25.2,0-43.4,14.8-43.4,35.3a25.3,25.3,0,0,0,1.3,8.3C121.2,351.5,139.8,356.4,156.3,360.7Z" fill="#fff"/><path d="M249.1,240.5H222V83.4h27.1v67.3h30.8V83.4h27.6V240.5H279.9V173.1H249.1v67.4Z" fill="#fff"/><path d="M361.8,149.6H399V172H361.8v46h46.8v22.4H334.7V83.4h73.9v22.4H361.8v43.8Z" fill="#fff"/><path d="M489.4,240.5c-1.5-4-2.5-6.5-2.5-19.3V196.5c0-14.6-5.4-20-17.7-20h-9.4v64H432.7V83.4h41c28.1,0,40.2,11.9,40.2,36.1v12.3c0,16.2-5.7,26.5-17.7,31.6v.4c13.6,5.2,18,16.8,18,33.2v24.2c0,7.6.2,13.2,3,19.1H489.4v.2ZM459.9,105.8V154h10.6c10.1,0,16.3-4,16.3-16.6V122c0-11.2-4.2-16.2-13.8-16.2Z" fill="#fff"/><path d="M539.2,83.4h27.1V240.5H539.2Z" fill="#fff"/><path d="M618.1,126.7h-.5V240.5H593.2V83.4h34l27.4,94h.5v-94h24.2V240.5H651.4Z" fill="#fff"/><path d="M247.3,335.7h-.5V450H222.3V292.1h34.2L284,386.6h.5V292.1h24.3V450h-28Z" fill="#fff"/><path d="M335.8,292.1h27.3V450H335.8Z" fill="#fff"/><path d="M587.1,450H559.6l-4.7-28.6H521.4L516.7,450h-25l27.8-157.9h39.9Zm-62.2-50h26.3l-12.9-79.9h-.6Z" fill="#fff"/><path d="M607.1,292.1h27.3V427.4h44.8V450H607.1Z" fill="#fff"/><path d="M433.4,292.1H390.3v62.5l27.3,22.6V314.6H433c8.7,0,13.9,4.1,13.9,15.3V412c0,11.3-5.2,15.3-13.9,15.3H417.6V410.2l-27.3-22.6V450h43.1c27.3,0,40.6-13.8,40.6-39V331.1C474.1,305.9,460.7,292.1,433.4,292.1Z" fill="#fff"/><rect x="102.7" y="476.5" width="572.6" height="14.7" fill="#2d315d"/><path d="M154,237.9c33.7,0,45.8-19.8,45.8-38.4a45.8,45.8,0,0,0-.8-7.9c-3.5-21.5-28.3-27.8-44.8-31.9-10.8-3.2-17-6.5-20.9-11l-2.8-3.2-13.4,18,2.4,2.1c8.7,7.5,17.5,11.1,29,15.4,2.9,1.1,5.9,2,8.9,2.9,8.5,2.6,17.2,5.3,19.5,10.2a12.6,12.6,0,0,1,1.2,6.3c0,2.9-1.1,17.2-23.8,17.2-18.2,0-29.5-10.9-33.6-15.5l-2.7-3.2-12.6,16.7,1.7,2.1C114.8,226.9,129.1,237.9,154,237.9Z" fill="#2d315d"/><path d="M151.3,146.5l1.5.4,3.3,1c9.7,2.9,18.9,5.6,21.8,11.3l2.5,4.9L194.7,145l-2-2.1c-8.9-9.3-22.5-13.7-34.6-16.9-10.3-2.7-19.2-5.2-23.2-9.4a8.5,8.5,0,0,1-2.3-6.3c0-8.9,8.2-14.9,20.3-14.9s23,4.3,30.9,12.9l2.6,2.8,13.4-15.8-2.1-2.2c-10.8-11.3-25.5-17-43.6-17-25.2,0-43.5,14.8-43.5,35.3a25.3,25.3,0,0,0,1.3,8.3C116.2,137.3,134.8,142.2,151.3,146.5Z" fill="#2d315d"/><path d="M154,448.1c33.7,0,45.8-19.8,45.8-38.4a45.8,45.8,0,0,0-.8-7.9c-3.5-21.5-28.3-27.8-44.8-31.9-10.8-3.2-17-6.5-20.9-11l-2.8-3.2-13.4,18,2.4,2.1c8.7,7.5,17.5,11.1,29,15.4,2.9,1.1,5.9,2,8.9,2.9,8.5,2.6,17.2,5.3,19.5,10.2a12.6,12.6,0,0,1,1.2,6.3c0,2.9-1.1,17.2-23.8,17.2-18.2,0-29.5-10.9-33.6-15.5l-2.7-3.2-12.6,16.7,1.7,2.1C114.8,437.1,129.1,448.1,154,448.1Z" fill="#2d315d"/><path d="M151.3,356.7l1.4.3,3.3,1c9.7,2.9,18.9,5.6,21.8,11.3l2.5,4.9,14.3-19.1-2-2.1c-8.9-9.3-22.5-13.7-34.6-16.9-10.3-2.7-19.2-5.2-23.2-9.4a8.5,8.5,0,0,1-2.3-6.3c0-8.9,8.2-14.9,20.3-14.9s23,4.3,30.9,12.9l2.6,2.8,13.4-15.8-2.1-2.2c-10.8-11.3-25.5-17-43.6-17-25.2,0-43.4,14.8-43.4,35.3a25.3,25.3,0,0,0,1.3,8.3C116.2,347.5,134.8,352.4,151.3,356.7Z" fill="#2d315d"/><path d="M244.1,236.5H217V79.4h27.1v67.3h30.8V79.4h27.6V236.5H274.9V169.1H244.1v67.4Z" fill="#2d315d"/><path d="M356.8,145.6H394V168H356.8v46h46.8v22.4H329.7V79.4h73.9v22.4H356.8v43.8Z" fill="#2d315d"/><path d="M484.4,236.5c-1.5-4-2.5-6.5-2.5-19.3V192.5c0-14.6-5.4-20-17.7-20h-9.4v64H427.7V79.4h41c28.1,0,40.2,11.9,40.2,36.1v12.3c0,16.2-5.7,26.5-17.7,31.6v.4c13.6,5.2,18,16.8,18,33.2v24.2c0,7.6.2,13.2,3,19.1H484.4v.2ZM454.9,101.8V150h10.6c10.1,0,16.3-4,16.3-16.6V118c0-11.2-4.2-16.2-13.8-16.2Z" fill="#2d315d"/><path d="M534.2,79.4h27.1V236.5H534.2Z" fill="#2d315d"/><path d="M613.1,122.7h-.5V236.5H588.2V79.4h34l27.4,94h.5v-94h24.2V236.5H646.4Z" fill="#2d315d"/><path d="M242.3,331.7h-.5V446H217.3V288.1h34.2L279,382.6h.5V288.1h24.3V446h-28Z" fill="#2d315d"/><path d="M330.8,288.1h27.3V446H330.8Z" fill="#2d315d"/><path d="M582.1,446H554.6l-4.7-28.6H516.4L511.7,446h-25l27.8-157.9h39.9Zm-62.2-50h26.3l-12.9-79.9h-.6Z" fill="#2d315d"/><path d="M602.1,288.1h27.3V423.4h44.8V446H602.1Z" fill="#2d315d"/><path d="M428.4,288.1H385.3v62.5l27.3,22.6V310.6H428c8.7,0,13.9,4.1,13.9,15.3V408c0,11.3-5.2,15.3-13.9,15.3H412.6V406.2l-27.3-22.6V446h43.1c27.3,0,40.6-13.8,40.6-39V327.1C469.1,301.9,455.7,288.1,428.4,288.1Z" fill="#2d315d"/></svg>