<?xml version="1.0" encoding="utf-8"?>
<!-- Generator: Adobe Illustrator 25.0.1, SVG Export Plug-In . SVG Version: 6.00 Build 0)  -->
<svg version="1.1" id="UX.UI" xmlns="http://www.w3.org/2000/svg" xmlns:xlink="http://www.w3.org/1999/xlink" x="0px" y="0px"
	 viewBox="0 0 1047 482" style="enable-background:new 0 0 1047 482;" xml:space="preserve">
<style type="text/css">
	.st0{fill:none;stroke:#E1B000;stroke-width:66.03;stroke-linecap:round;stroke-linejoin:round;}
	.st1{fill:#FFFFFF;}
	.st2{fill:#2D315D;}
</style>
<path class="st0" d="M151.2,38.6L44,131.3l220.4-73.2c-59.9,48.6-147.1,131.2-207,179.7c139.6-54.7,171.5-65.2,300.8-121.5
	C231.7,240.9,189.9,221.1,35.7,382.1c106.6-42.4,112.1-26.5,217.7-68.6L107.9,444.3"/>
<path class="st1" d="M94.7,35.9v122.5c0,11.4,5.4,15.5,13.9,15.5s13.9-4.1,13.9-15.5V35.9h25.3v121c0,25.4-13.6,39.9-39.9,39.9
	S68,182.3,68,156.9v-121C68,35.9,94.7,35.9,94.7,35.9z"/>
<path class="st1" d="M255.5,35.9l-28,77.1l29.9,81.8h-28.2l-21.7-62.9H207l-21.9,62.9H160l30-81.8l-28-77.1h27.7l20,58.5h0.5
	l20.4-58.5L255.5,35.9L255.5,35.9z"/>
<path class="st1" d="M94.7,245.9v122.5c0,11.4,5.4,15.5,13.9,15.5s13.9-4.1,13.9-15.5V245.9h25.3v121c0,25.4-13.6,39.9-39.9,39.9
	S68,392.3,68,366.9v-121H94.7z"/>
<path class="st1" d="M166.1,245.9h26.8v158.9h-26.8V245.9z"/>
<path class="st1" d="M354.3,35.9h23.1l-67.2,158.9h-23.1L354.3,35.9z"/>
<path class="st2" d="M90.7,31.9v122.5c0,11.4,5.4,15.5,13.9,15.5s13.9-4.1,13.9-15.5V31.9h25.3v121c0,25.4-13.6,39.9-39.9,39.9
	S64,178.3,64,152.9v-121C64,31.9,90.7,31.9,90.7,31.9z"/>
<path class="st2" d="M251.5,31.9l-28,77.1l29.9,81.8h-28.2l-21.7-62.9H203l-21.9,62.9H156l30-81.8l-28-77.1h27.7l20,58.5h0.5
	l20.4-58.5L251.5,31.9z"/>
<path class="st2" d="M90.7,241.9v122.5c0,11.4,5.4,15.5,13.9,15.5s13.9-4.1,13.9-15.5V241.9h25.3v121c0,25.4-13.6,39.9-39.9,39.9
	S64,388.3,64,362.9v-121H90.7z"/>
<path class="st2" d="M162.1,241.9h26.8v158.9h-26.8V241.9z"/>
<path class="st2" d="M350.3,31.9h23.1l-67.2,158.9h-23.1L350.3,31.9z"/>
<rect x="58.7" y="434.7" class="st1" width="318.7" height="14.7"/>
<rect x="57.4" y="430.7" class="st2" width="318.7" height="14.7"/>
</svg>
