<?xml version="1.0" encoding="utf-8"?>
<!-- Generator: Adobe Illustrator 25.1.0, SVG Export Plug-In . SVG Version: 6.00 Build 0)  -->
<svg version="1.1" id="Layer_3" xmlns="http://www.w3.org/2000/svg" xmlns:xlink="http://www.w3.org/1999/xlink" x="0px" y="0px"
	 viewBox="0 0 1186.7 482" style="enable-background:new 0 0 1186.7 482;" xml:space="preserve">
<style type="text/css">
	.st0{fill:none;stroke:#E1B000;stroke-width:82.05;stroke-linecap:round;stroke-linejoin:round;}
	.st1{fill:#FFFFFF;}
	.st2{fill:#2D315D;}
</style>
<path class="st0" d="M99.1,43.7c-19.4,21.5-36.9,36.1-56.4,57.6L153,51.2L86.9,181.4l163-124l-95.3,164.8l234.7-180L267.5,292.1
	c85.6-89.6,182.9-167.2,289.3-230.7l-62.4,178.5L672,58.4c-15,58.1-30,116.3-44.9,174.4c33.5-65,78-123.8,131.5-173.7
	c-15.4,55.2-30.8,110.4-46.1,165.5c41.4-63.2,90.1-121.3,145-173.2l-49,188.1L937.4,77.4c-5.7,54.3-11.3,108.5-17,162.8"/>
<path class="st1" d="M106.9,107h35v50.4c0,25.5-12.7,40-37.3,40s-37.2-14.5-37.2-40V74.8c0-25.4,12.7-39.9,37.2-39.9
	s37.3,14.5,37.3,39.9v15.4h-23.6v-17c0-11.3-5-15.6-13-15.6s-12.9,4.3-12.9,15.6V159c0,11.4,5,15.5,12.9,15.5s13-4.1,13-15.5v-29.3
	h-11.4V107z"/>
<path class="st1" d="M183,103.6h34.2v22.7H183v46.6h43.1v22.7H158V36.7h68.1v22.7H183V103.6z"/>
<path class="st1" d="M264.2,80.5h-0.4v115.1h-22.5V36.7h31.3l25.2,95.1h0.5V36.7h22.2v158.9h-25.6L264.2,80.5z"/>
<path class="st1" d="M338.5,36.7H378c24.9,0,37.2,13.8,37.2,39.2v80.4c0,25.4-12.3,39.3-37.2,39.3h-39.5V36.7z M363.4,59.4v113.5
	h14.1c7.9,0,12.7-4.1,12.7-15.5V74.8c0-11.3-4.8-15.4-12.7-15.4H363.4z"/>
<path class="st1" d="M456,103.6h34.3v22.7H456v46.6h43.2v22.7h-68.1V36.7h68.1v22.7H456V103.6z"/>
<path class="st1" d="M566.8,195.6c-1.3-4.1-2.3-6.6-2.3-19.5v-25c0-14.8-4.9-20.2-16.3-20.2h-8.6v64.7h-25V36.7h37.7
	c25.9,0,37,12,37,36.5v12.5c0,16.4-5.2,26.8-16.4,32v0.5c12.5,5.2,16.6,17,16.6,33.6v24.5c0,7.7,0.2,13.4,2.7,19.3L566.8,195.6z
	 M539.6,59.4v48.8h9.7c9.3,0,15-4.1,15-16.8V75.7c0-11.3-3.8-16.3-12.7-16.3L539.6,59.4z"/>
<path class="st1" d="M639.5,34.9c24.2,0,36.7,14.5,36.7,39.9v5h-23.6v-6.6c0-11.3-4.5-15.6-12.5-15.6s-12.5,4.3-12.5,15.6
	s5,20.2,21.4,34.5c20.9,18.4,27.5,31.6,27.5,49.7c0,25.5-12.8,40-37.3,40s-37.2-14.5-37.2-40v-9.7h23.6V159c0,11.4,5,15.5,12.9,15.5
	s13-4.1,13-15.5s-5-20.2-21.4-34.5c-20.8-18.4-27.4-31.5-27.4-49.7C602.7,49.4,615.2,34.9,639.5,34.9z"/>
<path class="st1" d="M771.6,195.6h-25.2l-4.3-28.9h-30.7l-4.3,28.9h-22.9l25.4-158.9h36.5L771.6,195.6z M714.6,145.2h24l-11.8-80.4
	h-0.4L714.6,145.2z"/>
<path class="st1" d="M808.1,107.3h32.2V130h-32.2v65.6h-25V36.7h66.1v22.7h-41.1V107.3z"/>
<path class="st1" d="M886.2,103.6h34.3v22.7h-34.3v46.6h43.1v22.7h-68.1V36.7h68.1v22.7h-43.1V103.6z"/>
<rect x="61" y="223.5" class="st1" width="868.4" height="14.7"/>
<rect x="57.4" y="220.5" class="st2" width="868.4" height="14.7"/>
<path class="st2" d="M102.9,102h35v50.4c0,25.5-12.7,40-37.3,40s-37.2-14.5-37.2-40V69.8c0-25.4,12.7-39.9,37.2-39.9
	s37.3,14.5,37.3,39.9v15.4h-23.6v-17c0-11.3-5-15.6-13-15.6s-12.9,4.3-12.9,15.6V154c0,11.4,5,15.5,12.9,15.5s13-4.1,13-15.5v-29.3
	h-11.4V102z"/>
<path class="st2" d="M179,98.6h34.2v22.7H179v46.6h43.1v22.7H154V31.7h68.1v22.7H179V98.6z"/>
<path class="st2" d="M260.2,75.5h-0.4v115.1h-22.5V31.7h31.3l25.2,95.1h0.5V31.7h22.2v158.9h-25.6L260.2,75.5z"/>
<path class="st2" d="M334.5,31.7H374c24.9,0,37.2,13.8,37.2,39.2v80.4c0,25.4-12.3,39.3-37.2,39.3h-39.5V31.7z M359.4,54.4v113.5
	h14.1c7.9,0,12.7-4.1,12.7-15.5V69.8c0-11.3-4.8-15.4-12.7-15.4H359.4z"/>
<path class="st2" d="M452,98.6h34.3v22.7H452v46.6h43.2v22.7h-68.1V31.7h68.1v22.7H452V98.6z"/>
<path class="st2" d="M562.8,190.6c-1.4-4.1-2.3-6.6-2.3-19.5v-25c0-14.8-5-20.2-16.3-20.2h-8.6v64.7h-25V31.7h37.7
	c25.9,0,37,12,37,36.5v12.5c0,16.3-5.2,26.8-16.4,32v0.5c12.5,5.2,16.6,17,16.6,33.6v24.5c0,7.7,0.2,13.4,2.7,19.3L562.8,190.6z
	 M535.6,54.4v48.8h9.7c9.3,0,15-4.1,15-16.8V70.7c0-11.3-3.8-16.3-12.7-16.3L535.6,54.4z"/>
<path class="st2" d="M635.4,29.9c24.3,0,36.8,14.5,36.8,39.9v5h-23.6v-6.6c0-11.3-4.5-15.6-12.5-15.6s-12.5,4.3-12.5,15.6
	s5,20.2,21.4,34.5c20.9,18.4,27.5,31.6,27.5,49.7c0,25.5-12.8,40-37.3,40s-37.2-14.5-37.2-40v-9.7h23.6V154c0,11.4,5,15.5,12.9,15.5
	s13-4.1,13-15.5s-5-20.2-21.4-34.5c-20.8-18.4-27.4-31.5-27.4-49.7C598.7,44.4,611.2,29.9,635.4,29.9z"/>
<path class="st2" d="M767.6,190.6h-25.2l-4.3-28.9h-30.7l-4.3,28.9h-22.9l25.4-158.9h36.5L767.6,190.6z M710.6,140.2h24l-11.8-80.4
	h-0.4L710.6,140.2z"/>
<path class="st2" d="M804.1,102.3h32.2V125h-32.2v65.6h-25V31.7h66.1v22.7h-41.1V102.3z"/>
<path class="st2" d="M882.2,98.6h34.3v22.7h-34.3v46.6h43.1v22.7h-68.1V31.7h68.1v22.7h-43.1V98.6z"/>
</svg>
