<?xml version="1.0" encoding="utf-8"?>
<!-- Generator: Adobe Illustrator 25.1.0, SVG Export Plug-In . SVG Version: 6.00 Build 0)  -->
<svg version="1.1" id="Layer_5" xmlns="http://www.w3.org/2000/svg" xmlns:xlink="http://www.w3.org/1999/xlink" x="0px" y="0px"
	 viewBox="0 0 1186.7 482" style="enable-background:new 0 0 1186.7 482;" xml:space="preserve">
<style type="text/css">
	.st0{fill:none;stroke:#E1B000;stroke-width:75.37;stroke-linecap:round;stroke-linejoin:round;}
	.st1{fill:#FFFFFF;}
	.st2{fill:#2D315D;}
</style>
<path class="st0" d="M103.5,42.2L45,127.3l90.3-73.8L76.7,216.9l79.5-84c26.5-27.8,52.9-55.7,82.5-81.2c-33.7,51-58,106.5-71.7,164
	L317.2,66.8c-21.4,48-35.3,99.1-41.1,151.3c38.9-50,72.5-103.8,100.5-160.6l-16.1,168.3c42-51.8,77.9-108.2,107-168.2l-6.1,173.3
	c17.7-31.2,42-59.5,71.4-83.2"/>
<path class="st1" d="M65.5,35.7h24.9v136.2h41.1v22.7h-66V35.7z"/>
<path class="st1" d="M167.4,102.6h34.3v22.7h-34.3v46.6h43.1v22.7h-68.1V35.7h68.1v22.7h-43.1V102.6z"/>
<path class="st1" d="M306.8,194.6h-25.2l-4.4-28.9h-30.6l-4.3,28.9h-22.9l25.4-158.9h36.5L306.8,194.6z M249.8,144.2h24L262,63.8
	h-0.4L249.8,144.2z"/>
<path class="st1" d="M350.1,165.3h0.5l18.8-129.6h22.9l-24.5,158.9h-37.2L306.1,35.7h25.2L350.1,165.3z"/>
<path class="st1" d="M426.6,79.5h-0.4v115.1h-22.5V35.7H435l25.2,95.1h0.5V35.7h22.2v158.9h-25.6L426.6,79.5z"/>
<path class="st2" d="M60.5,31.7h24.9v136.2h41.1v22.7h-66V31.7z"/>
<path class="st2" d="M162.4,98.6h34.3v22.7h-34.3v46.6h43.1v22.7h-68.1V31.7h68.1v22.7h-43.1V98.6z"/>
<path class="st2" d="M301.8,190.6h-25.2l-4.4-28.9h-30.6l-4.3,28.9h-22.9l25.4-158.9h36.5L301.8,190.6z M244.8,140.2h24L257,59.8
	h-0.4L244.8,140.2z"/>
<path class="st2" d="M345.1,161.3h0.5l18.8-129.6h22.9l-24.5,158.9h-37.2L301.1,31.7h25.2L345.1,161.3z"/>
<path class="st2" d="M421.6,75.5h-0.4v115.1h-22.5V31.7H430l25.2,95.1h0.5V31.7h22.2v158.9h-25.6L421.6,75.5z"/>
<rect x="59.1" y="223.5" class="st1" width="422.9" height="14.7"/>
<rect x="57.4" y="220.5" class="st2" width="422.9" height="14.7"/>
</svg>
